<svg width="411" height="731" viewBox="0 0 411 731" fill="none" xmlns="http://www.w3.org/2000/svg">
<rect width="411" height="731" fill="#F1F1F1"/>
<g clip-path="url(#clip0)">
<rect width="411" height="731" fill="white"/>
<g filter="url(#filter0_ddd)">
<rect width="411" height="72" transform="translate(0 659)" fill="#6200EE"/>
<rect width="102.75" height="72" transform="translate(0 659)" fill="#6200EE"/>
<path d="M36.3008 706.441H33.1973V715H31.4814V706.441H28.4053V705.047H36.3008V706.441ZM46.6152 710.283C46.6152 711.258 46.4466 712.115 46.1094 712.854C45.7721 713.587 45.2891 714.152 44.6602 714.549C44.0358 714.941 43.3158 715.137 42.5 715.137C41.6934 715.137 40.9733 714.941 40.3398 714.549C39.7109 714.152 39.2233 713.59 38.877 712.86C38.5352 712.131 38.362 711.29 38.3574 710.338V709.777C38.3574 708.807 38.5283 707.95 38.8701 707.207C39.2165 706.464 39.7018 705.897 40.3262 705.505C40.9551 705.108 41.6751 704.91 42.4863 704.91C43.2975 704.91 44.0153 705.106 44.6396 705.498C45.2686 705.885 45.7539 706.446 46.0957 707.18C46.4375 707.909 46.6107 708.759 46.6152 709.729V710.283ZM44.8857 709.764C44.8857 708.661 44.6761 707.815 44.2568 707.228C43.8421 706.64 43.252 706.346 42.4863 706.346C41.7389 706.346 41.1533 706.64 40.7295 707.228C40.3102 707.811 40.096 708.638 40.0869 709.709V710.283C40.0869 711.377 40.2988 712.222 40.7227 712.819C41.151 713.416 41.7435 713.715 42.5 713.715C43.2656 713.715 43.8535 713.423 44.2637 712.84C44.6784 712.257 44.8857 711.404 44.8857 710.283V709.764ZM49.5879 715V705.047H52.5273C53.4069 705.047 54.1862 705.243 54.8652 705.635C55.5488 706.027 56.0775 706.583 56.4512 707.303C56.8249 708.023 57.0117 708.848 57.0117 709.777V710.276C57.0117 711.22 56.8226 712.049 56.4443 712.765C56.0706 713.48 55.5352 714.032 54.8379 714.419C54.1452 714.806 53.3499 715 52.4521 715H49.5879ZM51.3174 706.441V713.619H52.4453C53.3522 713.619 54.0472 713.337 54.5303 712.771C55.0179 712.202 55.2663 711.386 55.2754 710.324V709.771C55.2754 708.69 55.0407 707.866 54.5713 707.296C54.1019 706.726 53.4206 706.441 52.5273 706.441H51.3174ZM65.4053 712.683H61.5498L60.7432 715H58.9453L62.7051 705.047H64.2568L68.0234 715H66.2188L65.4053 712.683ZM62.0352 711.288H64.9199L63.4775 707.159L62.0352 711.288ZM72.6299 709.764L74.9199 705.047H76.834L73.498 711.336V715H71.7617V711.336L68.4189 705.047H70.3398L72.6299 709.764Z" fill="white" fill-opacity="0.74"/>
<path fill-rule="evenodd" clip-rule="evenodd" d="M51 693C52.1 693 53 692.1 53 691H49C49 692.1 49.89 693 51 693ZM57 687V682C57 678.93 55.36 676.36 52.5 675.68V675C52.5 674.17 51.83 673.5 51 673.5C50.17 673.5 49.5 674.17 49.5 675V675.68C46.63 676.36 45 678.92 45 682V687L43 689V690H59V689L57 687Z" fill="white" fill-opacity="0.74"/>
<rect width="102.75" height="72" transform="translate(102.75 659)" fill="#6200EE"/>
<rect width="102.75" height="2" transform="translate(102.75 729)" fill="#6200EE"/>
<rect x="102.75" y="729" width="103" height="2" fill="white"/>
<path d="M138.512 710.557H134.424V713.619H139.202V715H132.694V705.047H139.154V706.441H134.424V709.189H138.512V710.557ZM145.367 712.833L147.896 705.047H149.797L146.215 715H144.54L140.972 705.047H142.865L145.367 712.833ZM157.992 710.557H153.904V713.619H158.683V715H152.175V705.047H158.635V706.441H153.904V709.189H157.992V710.557ZM169.236 715H167.507L163.07 707.938V715H161.341V705.047H163.07L167.521 712.136V705.047H169.236V715ZM179.517 706.441H176.413V715H174.697V706.441H171.621V705.047H179.517V706.441Z" fill="white"/>
<path d="M150.75 682H148.75V684H150.75V682ZM154.75 682H152.75V684H154.75V682ZM158.75 682H156.75V684H158.75V682ZM160.75 675H159.75V673H157.75V675H149.75V673H147.75V675H146.75C145.64 675 144.76 675.9 144.76 677L144.75 691C144.75 691.53 144.961 692.039 145.336 692.414C145.711 692.789 146.22 693 146.75 693H160.75C161.85 693 162.75 692.1 162.75 691V677C162.75 675.9 161.85 675 160.75 675ZM160.75 691H146.75V680H160.75V691Z" fill="white"/>
<rect width="102.75" height="72" transform="translate(205.5 659)" fill="#6200EE"/>
<path d="M243.673 715H241.95V710.577H237.5V715H235.771V705.047H237.5V709.189H241.95V705.047H243.673V715ZM252.668 712.683H248.812L248.006 715H246.208L249.968 705.047H251.52L255.286 715H253.481L252.668 712.683ZM249.298 711.288H252.183L250.74 707.159L249.298 711.288ZM257.671 715V705.047H261.082C262.208 705.047 263.064 705.272 263.652 705.724C264.24 706.175 264.534 706.847 264.534 707.74C264.534 708.196 264.411 708.606 264.165 708.971C263.919 709.335 263.559 709.618 263.085 709.818C263.623 709.964 264.037 710.24 264.329 710.646C264.625 711.047 264.773 711.53 264.773 712.095C264.773 713.029 264.473 713.747 263.871 714.248C263.274 714.749 262.417 715 261.301 715H257.671ZM259.4 710.509V713.619H261.321C261.864 713.619 262.287 713.485 262.593 713.216C262.898 712.947 263.051 712.573 263.051 712.095C263.051 711.06 262.522 710.532 261.465 710.509H259.4ZM259.4 709.237H261.096C261.633 709.237 262.053 709.117 262.354 708.875C262.659 708.629 262.812 708.283 262.812 707.836C262.812 707.344 262.67 706.988 262.388 706.77C262.11 706.551 261.674 706.441 261.082 706.441H259.4V709.237ZM269.578 715H267.855V705.047H269.578V715ZM279.94 706.441H276.837V715H275.121V706.441H272.045V705.047H279.94V706.441Z" fill="white" fill-opacity="0.74"/>
<path fill-rule="evenodd" clip-rule="evenodd" d="M256.5 692.35L255.05 691.03C249.9 686.36 246.5 683.28 246.5 679.5C246.5 676.42 248.92 674 252 674C253.74 674 255.41 674.81 256.5 676.09C257.59 674.81 259.26 674 261 674C264.08 674 266.5 676.42 266.5 679.5C266.5 683.28 263.1 686.36 257.95 691.04L256.5 692.35Z" fill="white" fill-opacity="0.74"/>
<rect width="102.75" height="72" transform="translate(308.25 659)" fill="#6200EE"/>
<path d="M322.205 711.76C322.105 712.822 321.713 713.651 321.029 714.248C320.346 714.84 319.437 715.137 318.302 715.137C317.509 715.137 316.809 714.95 316.203 714.576C315.602 714.198 315.137 713.662 314.809 712.97C314.48 712.277 314.31 711.473 314.296 710.557V709.627C314.296 708.688 314.462 707.861 314.795 707.146C315.128 706.43 315.604 705.879 316.224 705.491C316.848 705.104 317.568 704.91 318.384 704.91C319.482 704.91 320.366 705.209 321.036 705.806C321.706 706.403 322.096 707.246 322.205 708.335H320.482C320.4 707.619 320.191 707.104 319.854 706.79C319.521 706.471 319.031 706.312 318.384 706.312C317.632 706.312 317.053 706.587 316.647 707.139C316.246 707.686 316.041 708.49 316.032 709.552V710.434C316.032 711.509 316.224 712.329 316.606 712.895C316.994 713.46 317.559 713.742 318.302 713.742C318.981 713.742 319.491 713.59 319.833 713.284C320.175 712.979 320.391 712.471 320.482 711.76H322.205ZM332.95 710.283C332.95 711.258 332.782 712.115 332.444 712.854C332.107 713.587 331.624 714.152 330.995 714.549C330.371 714.941 329.651 715.137 328.835 715.137C328.028 715.137 327.308 714.941 326.675 714.549C326.046 714.152 325.558 713.59 325.212 712.86C324.87 712.131 324.697 711.29 324.692 710.338V709.777C324.692 708.807 324.863 707.95 325.205 707.207C325.551 706.464 326.037 705.897 326.661 705.505C327.29 705.108 328.01 704.91 328.821 704.91C329.632 704.91 330.35 705.106 330.975 705.498C331.604 705.885 332.089 706.446 332.431 707.18C332.772 707.909 332.946 708.759 332.95 709.729V710.283ZM331.221 709.764C331.221 708.661 331.011 707.815 330.592 707.228C330.177 706.64 329.587 706.346 328.821 706.346C328.074 706.346 327.488 706.64 327.064 707.228C326.645 707.811 326.431 708.638 326.422 709.709V710.283C326.422 711.377 326.634 712.222 327.058 712.819C327.486 713.416 328.078 713.715 328.835 713.715C329.601 713.715 330.188 713.423 330.599 712.84C331.013 712.257 331.221 711.404 331.221 710.283V709.764ZM338.165 705.047L341.036 712.676L343.9 705.047H346.136V715H344.413V711.719L344.584 707.33L341.645 715H340.407L337.475 707.337L337.646 711.719V715H335.923V705.047H338.165ZM351.679 705.047L354.55 712.676L357.414 705.047H359.649V715H357.927V711.719L358.098 707.33L355.158 715H353.921L350.988 707.337L351.159 711.719V715H349.437V705.047H351.679ZM370.23 705.047V711.698C370.23 712.756 369.891 713.594 369.212 714.214C368.537 714.829 367.637 715.137 366.512 715.137C365.372 715.137 364.468 714.834 363.798 714.228C363.128 713.617 362.793 712.771 362.793 711.691V705.047H364.516V711.705C364.516 712.37 364.684 712.879 365.021 713.229C365.359 713.58 365.855 713.756 366.512 713.756C367.842 713.756 368.508 713.054 368.508 711.65V705.047H370.23ZM381.229 715H379.499L375.062 707.938V715H373.333V705.047H375.062L379.513 712.136V705.047H381.229V715ZM386.348 715H384.625V705.047H386.348V715ZM396.71 706.441H393.606V715H391.891V706.441H388.814V705.047H396.71V706.441ZM402.629 709.764L404.919 705.047H406.833L403.497 711.336V715H401.761V711.336L398.418 705.047H400.339L402.629 709.764Z" fill="white" fill-opacity="0.74"/>
<path d="M363.25 682C364.91 682 366.24 680.66 366.24 679C366.24 677.34 364.91 676 363.25 676C361.59 676 360.25 677.34 360.25 679C360.25 680.66 361.59 682 363.25 682ZM355.25 682C356.91 682 358.24 680.66 358.24 679C358.24 677.34 356.91 676 355.25 676C353.59 676 352.25 677.34 352.25 679C352.25 680.66 353.59 682 355.25 682ZM355.25 684C352.92 684 348.25 685.17 348.25 687.5V690H362.25V687.5C362.25 685.17 357.58 684 355.25 684ZM363.25 684C362.96 684 362.63 684.02 362.28 684.05C363.44 684.89 364.25 686.02 364.25 687.5V690H370.25V687.5C370.25 685.17 365.58 684 363.25 684Z" fill="white" fill-opacity="0.74"/>
</g>
<g filter="url(#filter1_ddd)">
<rect width="411" height="56" fill="#6200EE"/>
<path fill-rule="evenodd" clip-rule="evenodd" d="M287 38C288.1 38 289 37.1 289 36H285C285 37.1 285.89 38 287 38ZM293 32V27C293 23.93 291.36 21.36 288.5 20.68V20C288.5 19.17 287.83 18.5 287 18.5C286.17 18.5 285.5 19.17 285.5 20V20.68C282.63 21.36 281 23.92 281 27V32L279 34V35H295V34L293 32Z" fill="white" fill-opacity="0.74"/>
<path fill-rule="evenodd" clip-rule="evenodd" d="M341 32.08C340.24 32.08 339.56 32.38 339.04 32.85L331.91 28.7C331.96 28.47 332 28.24 332 28C332 27.76 331.96 27.53 331.91 27.3L338.96 23.19C339.5 23.69 340.21 24 341 24C342.66 24 344 22.66 344 21C344 19.34 342.66 18 341 18C339.34 18 338 19.34 338 21C338 21.24 338.04 21.47 338.09 21.7L331.04 25.81C330.5 25.31 329.79 25 329 25C327.34 25 326 26.34 326 28C326 29.66 327.34 31 329 31C329.79 31 330.5 30.69 331.04 30.19L338.16 34.35C338.11 34.56 338.08 34.78 338.08 35C338.08 36.61 339.39 37.92 341 37.92C342.61 37.92 343.92 36.61 343.92 35C343.92 33.39 342.61 32.08 341 32.08Z" fill="white" fill-opacity="0.74"/>
<path fill-rule="evenodd" clip-rule="evenodd" d="M386.5 30H385.71L385.43 29.73C386.41 28.59 387 27.11 387 25.5C387 21.91 384.09 19 380.5 19C376.91 19 374 21.91 374 25.5C374 29.09 376.91 32 380.5 32C382.11 32 383.59 31.41 384.73 30.43L385 30.71V31.5L390 36.49L391.49 35L386.5 30ZM380.5 30C378.01 30 376 27.99 376 25.5C376 23.01 378.01 21 380.5 21C382.99 21 385 23.01 385 25.5C385 27.99 382.99 30 380.5 30Z" fill="white" fill-opacity="0.74"/>
<path fill-rule="evenodd" clip-rule="evenodd" d="M19 34H37V32H19V34ZM19 29H37V27H19V29ZM19 22V24H37V22H19Z" fill="white" fill-opacity="0.74"/>
</g>
<mask id="mask0" style="mask-type:alpha" maskUnits="userSpaceOnUse" x="0" y="66" width="392" height="88">
<rect y="66" width="392" height="88" fill="white"/>
</mask>
<g mask="url(#mask0)">
<path d="M24.8047 133H23.4854V128.399H18.4678V133H17.1553V123.047H18.4678V127.326H23.4854V123.047H24.8047V133ZM31.7539 133C31.681 132.854 31.6217 132.594 31.5762 132.221C30.9883 132.831 30.2865 133.137 29.4707 133.137C28.7415 133.137 28.1423 132.932 27.6729 132.521C27.208 132.107 26.9756 131.583 26.9756 130.949C26.9756 130.179 27.2673 129.582 27.8506 129.158C28.4385 128.73 29.2633 128.516 30.3252 128.516H31.5557V127.935C31.5557 127.493 31.4235 127.142 31.1592 126.882C30.8949 126.618 30.5052 126.485 29.9902 126.485C29.5391 126.485 29.1608 126.599 28.8555 126.827C28.5501 127.055 28.3975 127.331 28.3975 127.654H27.126C27.126 127.285 27.2559 126.93 27.5156 126.588C27.7799 126.242 28.1354 125.968 28.582 125.768C29.0332 125.567 29.5277 125.467 30.0654 125.467C30.9176 125.467 31.5853 125.681 32.0684 126.109C32.5514 126.533 32.8021 127.119 32.8203 127.866V131.271C32.8203 131.95 32.9069 132.49 33.0801 132.891V133H31.7539ZM29.6553 132.036C30.0518 132.036 30.4277 131.934 30.7832 131.729C31.1387 131.523 31.3962 131.257 31.5557 130.929V129.411H30.5645C29.015 129.411 28.2402 129.865 28.2402 130.771C28.2402 131.168 28.3724 131.478 28.6367 131.701C28.901 131.924 29.2406 132.036 29.6553 132.036ZM41.3145 129.384C41.3145 130.514 41.0547 131.423 40.5352 132.111C40.0156 132.795 39.3184 133.137 38.4434 133.137C37.5091 133.137 36.7868 132.806 36.2764 132.146L36.2148 133H35.0527V122.5H36.3174V126.417C36.8278 125.784 37.5319 125.467 38.4297 125.467C39.3275 125.467 40.0316 125.806 40.542 126.485C41.057 127.164 41.3145 128.094 41.3145 129.274V129.384ZM40.0498 129.24C40.0498 128.379 39.8835 127.714 39.5508 127.244C39.2181 126.775 38.7396 126.54 38.1152 126.54C37.2812 126.54 36.682 126.927 36.3174 127.702V130.901C36.7048 131.676 37.3086 132.063 38.1289 132.063C38.735 132.063 39.2067 131.829 39.5439 131.359C39.8812 130.89 40.0498 130.184 40.0498 129.24ZM44.5381 133H43.2734V125.604H44.5381V133ZM43.1709 123.642C43.1709 123.437 43.2324 123.263 43.3555 123.122C43.4831 122.981 43.6699 122.91 43.916 122.91C44.1621 122.91 44.349 122.981 44.4766 123.122C44.6042 123.263 44.668 123.437 44.668 123.642C44.668 123.847 44.6042 124.018 44.4766 124.154C44.349 124.291 44.1621 124.359 43.916 124.359C43.6699 124.359 43.4831 124.291 43.3555 124.154C43.2324 124.018 43.1709 123.847 43.1709 123.642ZM48.5342 123.812V125.604H49.915V126.581H48.5342V131.168C48.5342 131.464 48.5957 131.688 48.7188 131.838C48.8418 131.984 49.0514 132.057 49.3477 132.057C49.4935 132.057 49.694 132.029 49.9492 131.975V133C49.6165 133.091 49.293 133.137 48.9785 133.137C48.4134 133.137 47.9873 132.966 47.7002 132.624C47.4131 132.282 47.2695 131.797 47.2695 131.168V126.581H45.9229V125.604H47.2695V123.812H48.5342ZM59.3975 133H58.126V124.571L55.5762 125.508V124.359L59.1992 122.999H59.3975V133ZM67.1641 132.337C67.1641 132.118 67.2279 131.936 67.3555 131.79C67.4876 131.644 67.6836 131.571 67.9434 131.571C68.2031 131.571 68.3991 131.644 68.5312 131.79C68.668 131.936 68.7363 132.118 68.7363 132.337C68.7363 132.547 68.668 132.722 68.5312 132.863C68.3991 133.005 68.2031 133.075 67.9434 133.075C67.6836 133.075 67.4876 133.005 67.3555 132.863C67.2279 132.722 67.1641 132.547 67.1641 132.337ZM67.1709 126.301C67.1709 126.082 67.2347 125.9 67.3623 125.754C67.4945 125.608 67.6904 125.535 67.9502 125.535C68.21 125.535 68.4059 125.608 68.5381 125.754C68.6748 125.9 68.7432 126.082 68.7432 126.301C68.7432 126.51 68.6748 126.686 68.5381 126.827C68.4059 126.968 68.21 127.039 67.9502 127.039C67.6904 127.039 67.4945 126.968 67.3623 126.827C67.2347 126.686 67.1709 126.51 67.1709 126.301ZM82.0879 129.842C81.9648 130.895 81.5752 131.708 80.9189 132.282C80.2673 132.852 79.3991 133.137 78.3145 133.137C77.1387 133.137 76.1953 132.715 75.4844 131.872C74.778 131.029 74.4248 129.901 74.4248 128.488V127.531C74.4248 126.606 74.5889 125.793 74.917 125.091C75.2497 124.389 75.7191 123.851 76.3252 123.478C76.9313 123.099 77.6331 122.91 78.4307 122.91C79.488 122.91 80.3356 123.206 80.9736 123.799C81.6117 124.387 81.9831 125.202 82.0879 126.246H80.7686C80.6546 125.453 80.4062 124.879 80.0234 124.523C79.6452 124.168 79.1143 123.99 78.4307 123.99C77.5921 123.99 76.9336 124.3 76.4551 124.92C75.9811 125.54 75.7441 126.422 75.7441 127.565V128.529C75.7441 129.609 75.9697 130.468 76.4209 131.106C76.8721 131.744 77.5033 132.063 78.3145 132.063C79.0436 132.063 79.6019 131.899 79.9893 131.571C80.3812 131.239 80.641 130.662 80.7686 129.842H82.0879ZM83.6025 129.233C83.6025 128.509 83.7438 127.857 84.0264 127.278C84.3135 126.7 84.71 126.253 85.2158 125.938C85.7262 125.624 86.3073 125.467 86.959 125.467C87.9661 125.467 88.7796 125.815 89.3994 126.513C90.0238 127.21 90.3359 128.137 90.3359 129.295V129.384C90.3359 130.104 90.1969 130.751 89.9189 131.325C89.6455 131.895 89.2513 132.339 88.7363 132.658C88.2259 132.977 87.638 133.137 86.9727 133.137C85.9701 133.137 85.1566 132.788 84.5322 132.091C83.9124 131.394 83.6025 130.471 83.6025 129.322V129.233ZM84.874 129.384C84.874 130.204 85.0632 130.863 85.4414 131.359C85.8242 131.856 86.3346 132.104 86.9727 132.104C87.6152 132.104 88.1257 131.854 88.5039 131.353C88.8822 130.847 89.0713 130.14 89.0713 129.233C89.0713 128.422 88.8776 127.766 88.4902 127.265C88.1074 126.759 87.597 126.506 86.959 126.506C86.3346 126.506 85.8311 126.754 85.4482 127.251C85.0654 127.748 84.874 128.459 84.874 129.384ZM93.3613 125.604L93.3955 126.424C93.9378 125.786 94.6693 125.467 95.5898 125.467C96.6243 125.467 97.3285 125.863 97.7021 126.656C97.9482 126.301 98.2673 126.014 98.6592 125.795C99.0557 125.576 99.5228 125.467 100.061 125.467C101.683 125.467 102.508 126.326 102.535 128.044V133H101.271V128.119C101.271 127.59 101.15 127.196 100.908 126.937C100.667 126.672 100.261 126.54 99.6914 126.54C99.222 126.54 98.8324 126.681 98.5225 126.964C98.2126 127.242 98.0326 127.618 97.9824 128.092V133H96.7109V128.153C96.7109 127.078 96.1846 126.54 95.1318 126.54C94.3024 126.54 93.735 126.893 93.4297 127.6V133H92.165V125.604H93.3613ZM105.889 125.604L105.923 126.424C106.465 125.786 107.197 125.467 108.117 125.467C109.152 125.467 109.856 125.863 110.229 126.656C110.476 126.301 110.795 126.014 111.187 125.795C111.583 125.576 112.05 125.467 112.588 125.467C114.21 125.467 115.035 126.326 115.062 128.044V133H113.798V128.119C113.798 127.59 113.677 127.196 113.436 126.937C113.194 126.672 112.788 126.54 112.219 126.54C111.749 126.54 111.36 126.681 111.05 126.964C110.74 127.242 110.56 127.618 110.51 128.092V133H109.238V128.153C109.238 127.078 108.712 126.54 107.659 126.54C106.83 126.54 106.262 126.893 105.957 127.6V133H104.692V125.604H105.889ZM120.296 133.137C119.293 133.137 118.478 132.809 117.849 132.152C117.22 131.492 116.905 130.61 116.905 129.507V129.274C116.905 128.541 117.044 127.887 117.322 127.312C117.605 126.734 117.997 126.283 118.498 125.959C119.004 125.631 119.551 125.467 120.139 125.467C121.1 125.467 121.848 125.784 122.381 126.417C122.914 127.05 123.181 127.957 123.181 129.138V129.664H118.17C118.188 130.393 118.4 130.983 118.806 131.435C119.216 131.881 119.735 132.104 120.364 132.104C120.811 132.104 121.189 132.013 121.499 131.831C121.809 131.649 122.08 131.407 122.312 131.106L123.085 131.708C122.465 132.66 121.535 133.137 120.296 133.137ZM120.139 126.506C119.628 126.506 119.2 126.693 118.854 127.066C118.507 127.436 118.293 127.955 118.211 128.625H121.916V128.529C121.88 127.887 121.706 127.39 121.396 127.039C121.087 126.684 120.667 126.506 120.139 126.506ZM126.097 125.604L126.138 126.533C126.703 125.822 127.441 125.467 128.353 125.467C129.916 125.467 130.704 126.349 130.718 128.112V133H129.453V128.105C129.449 127.572 129.326 127.178 129.084 126.923C128.847 126.668 128.476 126.54 127.97 126.54C127.56 126.54 127.2 126.649 126.89 126.868C126.58 127.087 126.338 127.374 126.165 127.729V133H124.9V125.604H126.097ZM134.591 123.812V125.604H135.972V126.581H134.591V131.168C134.591 131.464 134.652 131.688 134.775 131.838C134.898 131.984 135.108 132.057 135.404 132.057C135.55 132.057 135.751 132.029 136.006 131.975V133C135.673 133.091 135.35 133.137 135.035 133.137C134.47 133.137 134.044 132.966 133.757 132.624C133.47 132.282 133.326 131.797 133.326 131.168V126.581H131.979V125.604H133.326V123.812H134.591ZM145.454 133H144.183V124.571L141.633 125.508V124.359L145.256 122.999H145.454V133Z" fill="black" fill-opacity="0.6"/>
<path d="M23.75 103.742H18.8203V107.773H24.5469V109H17.3203V97.625H24.4688V98.8594H18.8203V102.516H23.75V103.742ZM28.9234 107.039L31.0172 100.547H32.4937L29.4625 109H28.3609L25.2984 100.547H26.775L28.9234 107.039ZM37.4328 109.156C36.287 109.156 35.3547 108.781 34.6359 108.031C33.9172 107.276 33.5578 106.268 33.5578 105.008V104.742C33.5578 103.904 33.7167 103.156 34.0344 102.5C34.3573 101.839 34.8052 101.323 35.3781 100.953C35.9562 100.578 36.5812 100.391 37.2531 100.391C38.3521 100.391 39.2062 100.753 39.8156 101.477C40.425 102.201 40.7297 103.237 40.7297 104.586V105.188H35.0031C35.024 106.021 35.2661 106.695 35.7297 107.211C36.1984 107.721 36.7922 107.977 37.5109 107.977C38.0214 107.977 38.4536 107.872 38.8078 107.664C39.162 107.456 39.4719 107.18 39.7375 106.836L40.6203 107.523C39.912 108.612 38.8495 109.156 37.4328 109.156ZM37.2531 101.578C36.6698 101.578 36.1802 101.792 35.7844 102.219C35.3885 102.641 35.1437 103.234 35.05 104H39.2844V103.891C39.2427 103.156 39.0448 102.589 38.6906 102.188C38.3365 101.781 37.8573 101.578 37.2531 101.578ZM43.9266 100.547L43.9734 101.609C44.6193 100.797 45.463 100.391 46.5047 100.391C48.2911 100.391 49.1922 101.398 49.2078 103.414V109H47.7625V103.406C47.7573 102.797 47.6167 102.346 47.3406 102.055C47.0698 101.763 46.6453 101.617 46.0672 101.617C45.5984 101.617 45.187 101.742 44.8328 101.992C44.4786 102.242 44.2026 102.57 44.0047 102.977V109H42.5594V100.547H43.9266ZM53.4984 98.5V100.547H55.0766V101.664H53.4984V106.906C53.4984 107.245 53.5687 107.5 53.7094 107.672C53.85 107.839 54.0896 107.922 54.4281 107.922C54.5948 107.922 54.824 107.891 55.1156 107.828V109C54.7354 109.104 54.3656 109.156 54.0062 109.156C53.3604 109.156 52.8734 108.961 52.5453 108.57C52.2172 108.18 52.0531 107.625 52.0531 106.906V101.664H50.5141V100.547H52.0531V98.5H53.4984ZM65.6422 109H64.1891V99.3672L61.275 100.438V99.125L65.4156 97.5703H65.6422V109Z" fill="black" fill-opacity="0.87"/>
<path d="M22.3965 83.6309C22.3965 84.3275 22.276 84.9395 22.0352 85.4668C21.7943 85.9909 21.4492 86.3945 21 86.6777C20.554 86.9577 20.0397 87.0977 19.457 87.0977C18.8809 87.0977 18.3665 86.9577 17.9141 86.6777C17.4648 86.3945 17.1165 85.9925 16.8691 85.4717C16.625 84.9508 16.5013 84.3503 16.498 83.6699V83.2695C16.498 82.5762 16.6201 81.9642 16.8643 81.4336C17.1117 80.903 17.4583 80.4977 17.9043 80.2178C18.3535 79.9346 18.8678 79.793 19.4473 79.793C20.0267 79.793 20.5394 79.9329 20.9854 80.2129C21.4346 80.4896 21.7812 80.89 22.0254 81.4141C22.2695 81.9349 22.3932 82.542 22.3965 83.2354V83.6309ZM21.1611 83.2598C21.1611 82.472 21.0114 81.8682 20.7119 81.4482C20.4157 81.0283 19.9941 80.8184 19.4473 80.8184C18.9134 80.8184 18.4951 81.0283 18.1924 81.4482C17.8929 81.8649 17.7399 82.4557 17.7334 83.2207V83.6309C17.7334 84.4121 17.8848 85.016 18.1875 85.4424C18.4935 85.8688 18.9167 86.082 19.457 86.082C20.0039 86.082 20.4238 85.8737 20.7168 85.457C21.013 85.0404 21.1611 84.4316 21.1611 83.6309V83.2598ZM30.5518 84.6855C30.4801 85.444 30.2002 86.0365 29.7119 86.4629C29.2236 86.8861 28.5742 87.0977 27.7637 87.0977C27.1973 87.0977 26.6976 86.9642 26.2646 86.6973C25.835 86.4271 25.5029 86.0446 25.2686 85.5498C25.0342 85.055 24.9121 84.4805 24.9023 83.8262V83.1621C24.9023 82.4915 25.0212 81.9007 25.2588 81.3896C25.4964 80.8786 25.8366 80.4847 26.2793 80.208C26.7253 79.9313 27.2396 79.793 27.8223 79.793C28.6068 79.793 29.2383 80.0062 29.7168 80.4326C30.1953 80.859 30.4736 81.4613 30.5518 82.2393H29.3213C29.2627 81.7282 29.113 81.3604 28.8721 81.1357C28.6344 80.9079 28.2845 80.7939 27.8223 80.7939C27.2852 80.7939 26.8717 80.9909 26.582 81.3848C26.2956 81.7754 26.1491 82.3499 26.1426 83.1084V83.7383C26.1426 84.5065 26.2793 85.0924 26.5527 85.4961C26.8294 85.8997 27.2331 86.1016 27.7637 86.1016C28.2487 86.1016 28.6133 85.9925 28.8574 85.7744C29.1016 85.5563 29.2562 85.1934 29.3213 84.6855H30.5518ZM38.1504 80.8867H35.9336V87H34.708V80.8867H32.5107V79.8906H38.1504V80.8867ZM47.3076 87H46.126V81.292L44.3828 81.8877V80.8867L47.1562 79.8662H47.3076V87ZM56.0586 87H51.2783V86.1846L53.6465 83.6016C53.9883 83.2207 54.2308 82.9033 54.374 82.6494C54.5205 82.3923 54.5938 82.1351 54.5938 81.8779C54.5938 81.5394 54.4977 81.266 54.3057 81.0576C54.1169 80.8493 53.8613 80.7451 53.5391 80.7451C53.1549 80.7451 52.8571 80.8623 52.6455 81.0967C52.4339 81.3311 52.3281 81.6517 52.3281 82.0586H51.1416C51.1416 81.6257 51.2393 81.2367 51.4346 80.8916C51.6331 80.5433 51.9147 80.2731 52.2793 80.0811C52.6471 79.889 53.0703 79.793 53.5488 79.793C54.2389 79.793 54.7826 79.9671 55.1797 80.3154C55.5801 80.6605 55.7803 81.139 55.7803 81.751C55.7803 82.1058 55.6794 82.4785 55.4775 82.8691C55.279 83.2565 54.9518 83.6976 54.4961 84.1924L52.7578 86.0527H56.0586V87ZM58.7061 88.6016L58.0664 88.2207C58.2552 87.9245 58.3838 87.6657 58.4521 87.4443C58.5238 87.2262 58.5612 87.0033 58.5645 86.7754V85.8525H59.6338L59.6289 86.707C59.6257 87.0521 59.5378 87.3971 59.3652 87.7422C59.196 88.0905 58.9762 88.377 58.7061 88.6016ZM70.9297 87H66.1494V86.1846L68.5176 83.6016C68.8594 83.2207 69.1019 82.9033 69.2451 82.6494C69.3916 82.3923 69.4648 82.1351 69.4648 81.8779C69.4648 81.5394 69.3688 81.266 69.1768 81.0576C68.988 80.8493 68.7324 80.7451 68.4102 80.7451C68.026 80.7451 67.7282 80.8623 67.5166 81.0967C67.305 81.3311 67.1992 81.6517 67.1992 82.0586H66.0127C66.0127 81.6257 66.1104 81.2367 66.3057 80.8916C66.5042 80.5433 66.7858 80.2731 67.1504 80.0811C67.5182 79.889 67.9414 79.793 68.4199 79.793C69.11 79.793 69.6536 79.9671 70.0508 80.3154C70.4512 80.6605 70.6514 81.139 70.6514 81.751C70.6514 82.1058 70.5505 82.4785 70.3486 82.8691C70.1501 83.2565 69.8229 83.6976 69.3672 84.1924L67.6289 86.0527H70.9297V87ZM77.9668 84.0068C77.9668 85.029 77.7747 85.8005 77.3906 86.3213C77.0098 86.8389 76.4287 87.0977 75.6475 87.0977C74.8792 87.0977 74.2998 86.8454 73.9092 86.3408C73.5218 85.833 73.3232 85.0827 73.3135 84.0898V82.8594C73.3135 81.8372 73.5039 81.0706 73.8848 80.5596C74.2689 80.0485 74.8532 79.793 75.6377 79.793C76.4157 79.793 76.9951 80.042 77.376 80.54C77.7601 81.0381 77.957 81.7835 77.9668 82.7764V84.0068ZM76.7803 82.6787C76.7803 82.0114 76.6891 81.5231 76.5068 81.2139C76.3245 80.9014 76.0348 80.7451 75.6377 80.7451C75.2503 80.7451 74.9655 80.8932 74.7832 81.1895C74.6009 81.4824 74.5049 81.9414 74.4951 82.5664V84.1777C74.4951 84.8418 74.5879 85.3366 74.7734 85.6621C74.959 85.9876 75.2503 86.1504 75.6475 86.1504C76.0283 86.1504 76.3099 86.0007 76.4922 85.7012C76.6745 85.3984 76.7705 84.9264 76.7803 84.2852V82.6787ZM85.2969 87H80.5166V86.1846L82.8848 83.6016C83.2266 83.2207 83.4691 82.9033 83.6123 82.6494C83.7588 82.3923 83.832 82.1351 83.832 81.8779C83.832 81.5394 83.736 81.266 83.5439 81.0576C83.3551 80.8493 83.0996 80.7451 82.7773 80.7451C82.3932 80.7451 82.0954 80.8623 81.8838 81.0967C81.6722 81.3311 81.5664 81.6517 81.5664 82.0586H80.3799C80.3799 81.6257 80.4775 81.2367 80.6729 80.8916C80.8714 80.5433 81.153 80.2731 81.5176 80.0811C81.8854 79.889 82.3086 79.793 82.7871 79.793C83.4772 79.793 84.0208 79.9671 84.418 80.3154C84.8184 80.6605 85.0186 81.139 85.0186 81.751C85.0186 82.1058 84.9176 82.4785 84.7158 82.8691C84.5173 83.2565 84.1901 83.6976 83.7344 84.1924L81.9961 86.0527H85.2969V87ZM90.9131 87H89.7314V81.292L87.9883 81.8877V80.8867L90.7617 79.8662H90.9131V87Z" fill="black" fill-opacity="0.6"/>
<rect x="17.4222" y="153" width="374.578" height="1" fill="#212121" fill-opacity="0.08"/>
<path fill-rule="evenodd" clip-rule="evenodd" d="M380 106C381.1 106 382 105.1 382 104C382 102.9 381.1 102 380 102C378.9 102 378 102.9 378 104C378 105.1 378.9 106 380 106ZM380 108C378.9 108 378 108.9 378 110C378 111.1 378.9 112 380 112C381.1 112 382 111.1 382 110C382 108.9 381.1 108 380 108ZM380 114C378.9 114 378 114.9 378 116C378 117.1 378.9 118 380 118C381.1 118 382 117.1 382 116C382 114.9 381.1 114 380 114Z" fill="black" fill-opacity="0.6"/>
</g>
<g filter="url(#filter2_ddd)">
<path d="M255 114C255 111.791 256.791 110 259 110H379C381.209 110 383 111.791 383 114V202C383 204.209 381.209 206 379 206H259C256.791 206 255 204.209 255 202V114Z" fill="white"/>
<path d="M265.45 129.257L268.294 121.047H269.729L266.038 131H264.876L261.191 121.047H262.62L265.45 129.257ZM272.495 131H271.23V123.604H272.495V131ZM271.128 121.642C271.128 121.437 271.189 121.263 271.312 121.122C271.44 120.981 271.627 120.91 271.873 120.91C272.119 120.91 272.306 120.981 272.434 121.122C272.561 121.263 272.625 121.437 272.625 121.642C272.625 121.847 272.561 122.018 272.434 122.154C272.306 122.291 272.119 122.359 271.873 122.359C271.627 122.359 271.44 122.291 271.312 122.154C271.189 122.018 271.128 121.847 271.128 121.642ZM277.845 131.137C276.842 131.137 276.026 130.809 275.397 130.152C274.769 129.492 274.454 128.61 274.454 127.507V127.274C274.454 126.541 274.593 125.887 274.871 125.312C275.154 124.734 275.546 124.283 276.047 123.959C276.553 123.631 277.1 123.467 277.688 123.467C278.649 123.467 279.396 123.784 279.93 124.417C280.463 125.05 280.729 125.957 280.729 127.138V127.664H275.719C275.737 128.393 275.949 128.983 276.354 129.435C276.765 129.881 277.284 130.104 277.913 130.104C278.36 130.104 278.738 130.013 279.048 129.831C279.358 129.649 279.629 129.407 279.861 129.106L280.634 129.708C280.014 130.66 279.084 131.137 277.845 131.137ZM277.688 124.506C277.177 124.506 276.749 124.693 276.402 125.066C276.056 125.436 275.842 125.955 275.76 126.625H279.465V126.529C279.428 125.887 279.255 125.39 278.945 125.039C278.635 124.684 278.216 124.506 277.688 124.506ZM288.998 129.257L290.42 123.604H291.685L289.531 131H288.506L286.708 125.395L284.958 131H283.933L281.786 123.604H283.044L284.5 129.141L286.223 123.604H287.241L288.998 129.257Z" fill="black"/>
<path d="M267.781 158.399H263.468V161.927H268.479V163H262.155V153.047H268.41V154.127H263.468V157.326H267.781V158.399ZM269.72 159.24C269.72 158.105 269.989 157.194 270.526 156.506C271.064 155.813 271.768 155.467 272.639 155.467C273.505 155.467 274.19 155.763 274.696 156.355V152.5H275.961V163H274.799L274.737 162.207C274.231 162.827 273.527 163.137 272.625 163.137C271.768 163.137 271.069 162.786 270.526 162.084C269.989 161.382 269.72 160.466 269.72 159.336V159.24ZM270.984 159.384C270.984 160.222 271.158 160.879 271.504 161.353C271.85 161.826 272.329 162.063 272.939 162.063C273.742 162.063 274.327 161.703 274.696 160.983V157.586C274.318 156.889 273.737 156.54 272.953 156.54C272.333 156.54 271.85 156.779 271.504 157.258C271.158 157.736 270.984 158.445 270.984 159.384ZM279.554 163H278.289V155.604H279.554V163ZM278.187 153.642C278.187 153.437 278.248 153.263 278.371 153.122C278.499 152.981 278.686 152.91 278.932 152.91C279.178 152.91 279.365 152.981 279.492 153.122C279.62 153.263 279.684 153.437 279.684 153.642C279.684 153.847 279.62 154.018 279.492 154.154C279.365 154.291 279.178 154.359 278.932 154.359C278.686 154.359 278.499 154.291 278.371 154.154C278.248 154.018 278.187 153.847 278.187 153.642ZM283.55 153.812V155.604H284.931V156.581H283.55V161.168C283.55 161.464 283.611 161.688 283.734 161.838C283.857 161.984 284.067 162.057 284.363 162.057C284.509 162.057 284.71 162.029 284.965 161.975V163C284.632 163.091 284.309 163.137 283.994 163.137C283.429 163.137 283.003 162.966 282.716 162.624C282.429 162.282 282.285 161.797 282.285 161.168V156.581H280.938V155.604H282.285V153.812H283.55Z" fill="black"/>
<path d="M262.155 195V185.047H264.965C265.831 185.047 266.596 185.238 267.262 185.621C267.927 186.004 268.44 186.549 268.8 187.255C269.164 187.961 269.349 188.772 269.354 189.688V190.324C269.354 191.263 269.171 192.086 268.807 192.792C268.447 193.498 267.929 194.041 267.255 194.419C266.585 194.797 265.803 194.991 264.91 195H262.155ZM263.468 186.127V193.927H264.849C265.86 193.927 266.646 193.612 267.207 192.983C267.772 192.354 268.055 191.459 268.055 190.297V189.716C268.055 188.586 267.788 187.708 267.255 187.084C266.726 186.455 265.974 186.136 264.999 186.127H263.468ZM274.464 195.137C273.461 195.137 272.646 194.809 272.017 194.152C271.388 193.492 271.073 192.61 271.073 191.507V191.274C271.073 190.541 271.212 189.887 271.49 189.312C271.773 188.734 272.165 188.283 272.666 187.959C273.172 187.631 273.719 187.467 274.307 187.467C275.268 187.467 276.016 187.784 276.549 188.417C277.082 189.05 277.349 189.957 277.349 191.138V191.664H272.338C272.356 192.393 272.568 192.983 272.974 193.435C273.384 193.881 273.903 194.104 274.532 194.104C274.979 194.104 275.357 194.013 275.667 193.831C275.977 193.649 276.248 193.407 276.48 193.106L277.253 193.708C276.633 194.66 275.703 195.137 274.464 195.137ZM274.307 188.506C273.796 188.506 273.368 188.693 273.021 189.066C272.675 189.436 272.461 189.955 272.379 190.625H276.084V190.529C276.048 189.887 275.874 189.39 275.564 189.039C275.255 188.684 274.835 188.506 274.307 188.506ZM280.442 195H279.178V184.5H280.442V195ZM285.792 195.137C284.789 195.137 283.974 194.809 283.345 194.152C282.716 193.492 282.401 192.61 282.401 191.507V191.274C282.401 190.541 282.54 189.887 282.818 189.312C283.101 188.734 283.493 188.283 283.994 187.959C284.5 187.631 285.047 187.467 285.635 187.467C286.596 187.467 287.344 187.784 287.877 188.417C288.41 189.05 288.677 189.957 288.677 191.138V191.664H283.666C283.684 192.393 283.896 192.983 284.302 193.435C284.712 193.881 285.231 194.104 285.86 194.104C286.307 194.104 286.685 194.013 286.995 193.831C287.305 193.649 287.576 193.407 287.809 193.106L288.581 193.708C287.961 194.66 287.032 195.137 285.792 195.137ZM285.635 188.506C285.124 188.506 284.696 188.693 284.35 189.066C284.003 189.436 283.789 189.955 283.707 190.625H287.412V190.529C287.376 189.887 287.202 189.39 286.893 189.039C286.583 188.684 286.163 188.506 285.635 188.506ZM292.112 185.812V187.604H293.493V188.581H292.112V193.168C292.112 193.464 292.174 193.688 292.297 193.838C292.42 193.984 292.63 194.057 292.926 194.057C293.072 194.057 293.272 194.029 293.527 193.975V195C293.195 195.091 292.871 195.137 292.557 195.137C291.992 195.137 291.565 194.966 291.278 194.624C290.991 194.282 290.848 193.797 290.848 193.168V188.581H289.501V187.604H290.848V185.812H292.112ZM298.296 195.137C297.293 195.137 296.478 194.809 295.849 194.152C295.22 193.492 294.905 192.61 294.905 191.507V191.274C294.905 190.541 295.044 189.887 295.322 189.312C295.605 188.734 295.997 188.283 296.498 187.959C297.004 187.631 297.551 187.467 298.139 187.467C299.1 187.467 299.848 187.784 300.381 188.417C300.914 189.05 301.181 189.957 301.181 191.138V191.664H296.17C296.188 192.393 296.4 192.983 296.806 193.435C297.216 193.881 297.735 194.104 298.364 194.104C298.811 194.104 299.189 194.013 299.499 193.831C299.809 193.649 300.08 193.407 300.312 193.106L301.085 193.708C300.465 194.66 299.535 195.137 298.296 195.137ZM298.139 188.506C297.628 188.506 297.2 188.693 296.854 189.066C296.507 189.436 296.293 189.955 296.211 190.625H299.916V190.529C299.88 189.887 299.706 189.39 299.396 189.039C299.087 188.684 298.667 188.506 298.139 188.506Z" fill="black"/>
</g>
</g>
<defs>
<filter id="filter0_ddd" x="-8" y="652" width="427" height="88" filterUnits="userSpaceOnUse" color-interpolation-filters="sRGB">
<feFlood flood-opacity="0" result="BackgroundImageFix"/>
<feColorMatrix in="SourceAlpha" type="matrix" values="0 0 0 0 0 0 0 0 0 0 0 0 0 0 0 0 0 0 127 0" result="hardAlpha"/>
<feOffset dy="1"/>
<feGaussianBlur stdDeviation="4"/>
<feColorMatrix type="matrix" values="0 0 0 0 0 0 0 0 0 0 0 0 0 0 0 0 0 0 0.2 0"/>
<feBlend mode="normal" in2="BackgroundImageFix" result="effect1_dropShadow"/>
<feColorMatrix in="SourceAlpha" type="matrix" values="0 0 0 0 0 0 0 0 0 0 0 0 0 0 0 0 0 0 127 0" result="hardAlpha"/>
<feOffset dy="3"/>
<feGaussianBlur stdDeviation="1.5"/>
<feColorMatrix type="matrix" values="0 0 0 0 0 0 0 0 0 0 0 0 0 0 0 0 0 0 0.12 0"/>
<feBlend mode="normal" in2="effect1_dropShadow" result="effect2_dropShadow"/>
<feColorMatrix in="SourceAlpha" type="matrix" values="0 0 0 0 0 0 0 0 0 0 0 0 0 0 0 0 0 0 127 0" result="hardAlpha"/>
<feOffset dy="3"/>
<feGaussianBlur stdDeviation="2"/>
<feColorMatrix type="matrix" values="0 0 0 0 0 0 0 0 0 0 0 0 0 0 0 0 0 0 0.14 0"/>
<feBlend mode="normal" in2="effect2_dropShadow" result="effect3_dropShadow"/>
<feBlend mode="normal" in="SourceGraphic" in2="effect3_dropShadow" result="shape"/>
</filter>
<filter id="filter1_ddd" x="-10" y="-9" width="431" height="76" filterUnits="userSpaceOnUse" color-interpolation-filters="sRGB">
<feFlood flood-opacity="0" result="BackgroundImageFix"/>
<feColorMatrix in="SourceAlpha" type="matrix" values="0 0 0 0 0 0 0 0 0 0 0 0 0 0 0 0 0 0 127 0" result="hardAlpha"/>
<feOffset dy="2"/>
<feGaussianBlur stdDeviation="2"/>
<feColorMatrix type="matrix" values="0 0 0 0 0 0 0 0 0 0 0 0 0 0 0 0 0 0 0.2 0"/>
<feBlend mode="normal" in2="BackgroundImageFix" result="effect1_dropShadow"/>
<feColorMatrix in="SourceAlpha" type="matrix" values="0 0 0 0 0 0 0 0 0 0 0 0 0 0 0 0 0 0 127 0" result="hardAlpha"/>
<feOffset dy="1"/>
<feGaussianBlur stdDeviation="5"/>
<feColorMatrix type="matrix" values="0 0 0 0 0 0 0 0 0 0 0 0 0 0 0 0 0 0 0.12 0"/>
<feBlend mode="normal" in2="effect1_dropShadow" result="effect2_dropShadow"/>
<feColorMatrix in="SourceAlpha" type="matrix" values="0 0 0 0 0 0 0 0 0 0 0 0 0 0 0 0 0 0 127 0" result="hardAlpha"/>
<feOffset dy="4"/>
<feGaussianBlur stdDeviation="2.5"/>
<feColorMatrix type="matrix" values="0 0 0 0 0 0 0 0 0 0 0 0 0 0 0 0 0 0 0.14 0"/>
<feBlend mode="normal" in2="effect2_dropShadow" result="effect3_dropShadow"/>
<feBlend mode="normal" in="SourceGraphic" in2="effect3_dropShadow" result="shape"/>
</filter>
<filter id="filter2_ddd" x="241" y="99" width="156" height="125" filterUnits="userSpaceOnUse" color-interpolation-filters="sRGB">
<feFlood flood-opacity="0" result="BackgroundImageFix"/>
<feColorMatrix in="SourceAlpha" type="matrix" values="0 0 0 0 0 0 0 0 0 0 0 0 0 0 0 0 0 0 127 0" result="hardAlpha"/>
<feOffset dy="5"/>
<feGaussianBlur stdDeviation="2.5"/>
<feColorMatrix type="matrix" values="0 0 0 0 0 0 0 0 0 0 0 0 0 0 0 0 0 0 0.2 0"/>
<feBlend mode="normal" in2="BackgroundImageFix" result="effect1_dropShadow"/>
<feColorMatrix in="SourceAlpha" type="matrix" values="0 0 0 0 0 0 0 0 0 0 0 0 0 0 0 0 0 0 127 0" result="hardAlpha"/>
<feOffset dy="3"/>
<feGaussianBlur stdDeviation="7"/>
<feColorMatrix type="matrix" values="0 0 0 0 0 0 0 0 0 0 0 0 0 0 0 0 0 0 0.12 0"/>
<feBlend mode="normal" in2="effect1_dropShadow" result="effect2_dropShadow"/>
<feColorMatrix in="SourceAlpha" type="matrix" values="0 0 0 0 0 0 0 0 0 0 0 0 0 0 0 0 0 0 127 0" result="hardAlpha"/>
<feOffset dy="8"/>
<feGaussianBlur stdDeviation="5"/>
<feColorMatrix type="matrix" values="0 0 0 0 0 0 0 0 0 0 0 0 0 0 0 0 0 0 0.14 0"/>
<feBlend mode="normal" in2="effect2_dropShadow" result="effect3_dropShadow"/>
<feBlend mode="normal" in="SourceGraphic" in2="effect3_dropShadow" result="shape"/>
</filter>
<clipPath id="clip0">
<rect width="411" height="731" fill="white"/>
</clipPath>
</defs>
</svg>
