<svg width="411" height="731" viewBox="0 0 411 731" fill="none" xmlns="http://www.w3.org/2000/svg">
<rect width="411" height="731" fill="#F1F1F1"/>
<g clip-path="url(#clip0_728:3654)">
<rect width="411" height="731" fill="white"/>
<g filter="url(#filter0_ddd_728:3654)">
<rect width="411" height="72" transform="translate(0 659)" fill="#6200EE"/>
<rect width="102.75" height="72" transform="translate(0 659)" fill="#6200EE"/>
<path d="M36.3008 706.441H33.1973V715H31.4814V706.441H28.4053V705.047H36.3008V706.441ZM46.6152 710.283C46.6152 711.258 46.4466 712.115 46.1094 712.854C45.7721 713.587 45.2891 714.152 44.6602 714.549C44.0358 714.941 43.3158 715.137 42.5 715.137C41.6934 715.137 40.9733 714.941 40.3398 714.549C39.7109 714.152 39.2233 713.59 38.877 712.86C38.5352 712.131 38.362 711.29 38.3574 710.338V709.777C38.3574 708.807 38.5283 707.95 38.8701 707.207C39.2165 706.464 39.7018 705.897 40.3262 705.505C40.9551 705.108 41.6751 704.91 42.4863 704.91C43.2975 704.91 44.0153 705.106 44.6396 705.498C45.2686 705.885 45.7539 706.446 46.0957 707.18C46.4375 707.909 46.6107 708.759 46.6152 709.729V710.283ZM44.8857 709.764C44.8857 708.661 44.6761 707.815 44.2568 707.228C43.8421 706.64 43.252 706.346 42.4863 706.346C41.7389 706.346 41.1533 706.64 40.7295 707.228C40.3102 707.811 40.096 708.638 40.0869 709.709V710.283C40.0869 711.377 40.2988 712.222 40.7227 712.819C41.151 713.416 41.7435 713.715 42.5 713.715C43.2656 713.715 43.8535 713.423 44.2637 712.84C44.6784 712.257 44.8857 711.404 44.8857 710.283V709.764ZM49.5879 715V705.047H52.5273C53.4069 705.047 54.1862 705.243 54.8652 705.635C55.5488 706.027 56.0775 706.583 56.4512 707.303C56.8249 708.023 57.0117 708.848 57.0117 709.777V710.276C57.0117 711.22 56.8226 712.049 56.4443 712.765C56.0706 713.48 55.5352 714.032 54.8379 714.419C54.1452 714.806 53.3499 715 52.4521 715H49.5879ZM51.3174 706.441V713.619H52.4453C53.3522 713.619 54.0472 713.337 54.5303 712.771C55.0179 712.202 55.2663 711.386 55.2754 710.324V709.771C55.2754 708.69 55.0407 707.866 54.5713 707.296C54.1019 706.726 53.4206 706.441 52.5273 706.441H51.3174ZM65.4053 712.683H61.5498L60.7432 715H58.9453L62.7051 705.047H64.2568L68.0234 715H66.2188L65.4053 712.683ZM62.0352 711.288H64.9199L63.4775 707.159L62.0352 711.288ZM72.6299 709.764L74.9199 705.047H76.834L73.498 711.336V715H71.7617V711.336L68.4189 705.047H70.3398L72.6299 709.764Z" fill="white" fill-opacity="0.74"/>
<path fill-rule="evenodd" clip-rule="evenodd" d="M51 693C52.1 693 53 692.1 53 691H49C49 692.1 49.89 693 51 693ZM57 687V682C57 678.93 55.36 676.36 52.5 675.68V675C52.5 674.17 51.83 673.5 51 673.5C50.17 673.5 49.5 674.17 49.5 675V675.68C46.63 676.36 45 678.92 45 682V687L43 689V690H59V689L57 687Z" fill="white" fill-opacity="0.74"/>
<rect width="102.75" height="72" transform="translate(102.75 659)" fill="#6200EE"/>
<rect width="102.75" height="2" transform="translate(102.75 729)" fill="#6200EE"/>
<rect x="102.75" y="729" width="103" height="2" fill="white"/>
<path d="M138.512 710.557H134.424V713.619H139.202V715H132.694V705.047H139.154V706.441H134.424V709.189H138.512V710.557ZM145.367 712.833L147.896 705.047H149.797L146.215 715H144.54L140.972 705.047H142.865L145.367 712.833ZM157.992 710.557H153.904V713.619H158.683V715H152.175V705.047H158.635V706.441H153.904V709.189H157.992V710.557ZM169.236 715H167.507L163.07 707.938V715H161.341V705.047H163.07L167.521 712.136V705.047H169.236V715ZM179.517 706.441H176.413V715H174.697V706.441H171.621V705.047H179.517V706.441Z" fill="white"/>
<path d="M150.75 682H148.75V684H150.75V682ZM154.75 682H152.75V684H154.75V682ZM158.75 682H156.75V684H158.75V682ZM160.75 675H159.75V673H157.75V675H149.75V673H147.75V675H146.75C145.64 675 144.76 675.9 144.76 677L144.75 691C144.75 691.53 144.961 692.039 145.336 692.414C145.711 692.789 146.22 693 146.75 693H160.75C161.85 693 162.75 692.1 162.75 691V677C162.75 675.9 161.85 675 160.75 675ZM160.75 691H146.75V680H160.75V691Z" fill="white"/>
<rect width="102.75" height="72" transform="translate(205.5 659)" fill="#6200EE"/>
<path d="M243.673 715H241.95V710.577H237.5V715H235.771V705.047H237.5V709.189H241.95V705.047H243.673V715ZM252.668 712.683H248.812L248.006 715H246.208L249.968 705.047H251.52L255.286 715H253.481L252.668 712.683ZM249.298 711.288H252.183L250.74 707.159L249.298 711.288ZM257.671 715V705.047H261.082C262.208 705.047 263.064 705.272 263.652 705.724C264.24 706.175 264.534 706.847 264.534 707.74C264.534 708.196 264.411 708.606 264.165 708.971C263.919 709.335 263.559 709.618 263.085 709.818C263.623 709.964 264.037 710.24 264.329 710.646C264.625 711.047 264.773 711.53 264.773 712.095C264.773 713.029 264.473 713.747 263.871 714.248C263.274 714.749 262.417 715 261.301 715H257.671ZM259.4 710.509V713.619H261.321C261.864 713.619 262.287 713.485 262.593 713.216C262.898 712.947 263.051 712.573 263.051 712.095C263.051 711.06 262.522 710.532 261.465 710.509H259.4ZM259.4 709.237H261.096C261.633 709.237 262.053 709.117 262.354 708.875C262.659 708.629 262.812 708.283 262.812 707.836C262.812 707.344 262.67 706.988 262.388 706.77C262.11 706.551 261.674 706.441 261.082 706.441H259.4V709.237ZM269.578 715H267.855V705.047H269.578V715ZM279.94 706.441H276.837V715H275.121V706.441H272.045V705.047H279.94V706.441Z" fill="white" fill-opacity="0.74"/>
<path fill-rule="evenodd" clip-rule="evenodd" d="M256.5 692.35L255.05 691.03C249.9 686.36 246.5 683.28 246.5 679.5C246.5 676.42 248.92 674 252 674C253.74 674 255.41 674.81 256.5 676.09C257.59 674.81 259.26 674 261 674C264.08 674 266.5 676.42 266.5 679.5C266.5 683.28 263.1 686.36 257.95 691.04L256.5 692.35Z" fill="white" fill-opacity="0.74"/>
<rect width="102.75" height="72" transform="translate(308.25 659)" fill="#6200EE"/>
<path d="M322.205 711.76C322.105 712.822 321.713 713.651 321.029 714.248C320.346 714.84 319.437 715.137 318.302 715.137C317.509 715.137 316.809 714.95 316.203 714.576C315.602 714.198 315.137 713.662 314.809 712.97C314.48 712.277 314.31 711.473 314.296 710.557V709.627C314.296 708.688 314.462 707.861 314.795 707.146C315.128 706.43 315.604 705.879 316.224 705.491C316.848 705.104 317.568 704.91 318.384 704.91C319.482 704.91 320.366 705.209 321.036 705.806C321.706 706.403 322.096 707.246 322.205 708.335H320.482C320.4 707.619 320.191 707.104 319.854 706.79C319.521 706.471 319.031 706.312 318.384 706.312C317.632 706.312 317.053 706.587 316.647 707.139C316.246 707.686 316.041 708.49 316.032 709.552V710.434C316.032 711.509 316.224 712.329 316.606 712.895C316.994 713.46 317.559 713.742 318.302 713.742C318.981 713.742 319.491 713.59 319.833 713.284C320.175 712.979 320.391 712.471 320.482 711.76H322.205ZM332.95 710.283C332.95 711.258 332.782 712.115 332.444 712.854C332.107 713.587 331.624 714.152 330.995 714.549C330.371 714.941 329.651 715.137 328.835 715.137C328.028 715.137 327.308 714.941 326.675 714.549C326.046 714.152 325.558 713.59 325.212 712.86C324.87 712.131 324.697 711.29 324.692 710.338V709.777C324.692 708.807 324.863 707.95 325.205 707.207C325.551 706.464 326.037 705.897 326.661 705.505C327.29 705.108 328.01 704.91 328.821 704.91C329.632 704.91 330.35 705.106 330.975 705.498C331.604 705.885 332.089 706.446 332.431 707.18C332.772 707.909 332.946 708.759 332.95 709.729V710.283ZM331.221 709.764C331.221 708.661 331.011 707.815 330.592 707.228C330.177 706.64 329.587 706.346 328.821 706.346C328.074 706.346 327.488 706.64 327.064 707.228C326.645 707.811 326.431 708.638 326.422 709.709V710.283C326.422 711.377 326.634 712.222 327.058 712.819C327.486 713.416 328.078 713.715 328.835 713.715C329.601 713.715 330.188 713.423 330.599 712.84C331.013 712.257 331.221 711.404 331.221 710.283V709.764ZM338.165 705.047L341.036 712.676L343.9 705.047H346.136V715H344.413V711.719L344.584 707.33L341.645 715H340.407L337.475 707.337L337.646 711.719V715H335.923V705.047H338.165ZM351.679 705.047L354.55 712.676L357.414 705.047H359.649V715H357.927V711.719L358.098 707.33L355.158 715H353.921L350.988 707.337L351.159 711.719V715H349.437V705.047H351.679ZM370.23 705.047V711.698C370.23 712.756 369.891 713.594 369.212 714.214C368.537 714.829 367.637 715.137 366.512 715.137C365.372 715.137 364.468 714.834 363.798 714.228C363.128 713.617 362.793 712.771 362.793 711.691V705.047H364.516V711.705C364.516 712.37 364.684 712.879 365.021 713.229C365.359 713.58 365.855 713.756 366.512 713.756C367.842 713.756 368.508 713.054 368.508 711.65V705.047H370.23ZM381.229 715H379.499L375.062 707.938V715H373.333V705.047H375.062L379.513 712.136V705.047H381.229V715ZM386.348 715H384.625V705.047H386.348V715ZM396.71 706.441H393.606V715H391.891V706.441H388.814V705.047H396.71V706.441ZM402.629 709.764L404.919 705.047H406.833L403.497 711.336V715H401.761V711.336L398.418 705.047H400.339L402.629 709.764Z" fill="white" fill-opacity="0.74"/>
<path d="M363.25 682C364.91 682 366.24 680.66 366.24 679C366.24 677.34 364.91 676 363.25 676C361.59 676 360.25 677.34 360.25 679C360.25 680.66 361.59 682 363.25 682ZM355.25 682C356.91 682 358.24 680.66 358.24 679C358.24 677.34 356.91 676 355.25 676C353.59 676 352.25 677.34 352.25 679C352.25 680.66 353.59 682 355.25 682ZM355.25 684C352.92 684 348.25 685.17 348.25 687.5V690H362.25V687.5C362.25 685.17 357.58 684 355.25 684ZM363.25 684C362.96 684 362.63 684.02 362.28 684.05C363.44 684.89 364.25 686.02 364.25 687.5V690H370.25V687.5C370.25 685.17 365.58 684 363.25 684Z" fill="white" fill-opacity="0.74"/>
</g>
<g filter="url(#filter1_ddd_728:3654)">
<rect width="411" height="56" fill="#6200EE"/>
<path fill-rule="evenodd" clip-rule="evenodd" d="M287 38C288.1 38 289 37.1 289 36H285C285 37.1 285.89 38 287 38ZM293 32V27C293 23.93 291.36 21.36 288.5 20.68V20C288.5 19.17 287.83 18.5 287 18.5C286.17 18.5 285.5 19.17 285.5 20V20.68C282.63 21.36 281 23.92 281 27V32L279 34V35H295V34L293 32Z" fill="white" fill-opacity="0.74"/>
<path fill-rule="evenodd" clip-rule="evenodd" d="M341 32.08C340.24 32.08 339.56 32.38 339.04 32.85L331.91 28.7C331.96 28.47 332 28.24 332 28C332 27.76 331.96 27.53 331.91 27.3L338.96 23.19C339.5 23.69 340.21 24 341 24C342.66 24 344 22.66 344 21C344 19.34 342.66 18 341 18C339.34 18 338 19.34 338 21C338 21.24 338.04 21.47 338.09 21.7L331.04 25.81C330.5 25.31 329.79 25 329 25C327.34 25 326 26.34 326 28C326 29.66 327.34 31 329 31C329.79 31 330.5 30.69 331.04 30.19L338.16 34.35C338.11 34.56 338.08 34.78 338.08 35C338.08 36.61 339.39 37.92 341 37.92C342.61 37.92 343.92 36.61 343.92 35C343.92 33.39 342.61 32.08 341 32.08Z" fill="white" fill-opacity="0.74"/>
<path fill-rule="evenodd" clip-rule="evenodd" d="M386.5 30H385.71L385.43 29.73C386.41 28.59 387 27.11 387 25.5C387 21.91 384.09 19 380.5 19C376.91 19 374 21.91 374 25.5C374 29.09 376.91 32 380.5 32C382.11 32 383.59 31.41 384.73 30.43L385 30.71V31.5L390 36.49L391.49 35L386.5 30ZM380.5 30C378.01 30 376 27.99 376 25.5C376 23.01 378.01 21 380.5 21C382.99 21 385 23.01 385 25.5C385 27.99 382.99 30 380.5 30Z" fill="white" fill-opacity="0.74"/>
<path fill-rule="evenodd" clip-rule="evenodd" d="M19 34H37V32H19V34ZM19 29H37V27H19V29ZM19 22V24H37V22H19Z" fill="white" fill-opacity="0.74"/>
</g>
<mask id="mask0_728:3654" style="mask-type:alpha" maskUnits="userSpaceOnUse" x="0" y="66" width="392" height="88">
<rect y="66" width="392" height="88" fill="white"/>
</mask>
<g mask="url(#mask0_728:3654)">
<path d="M24.8047 133H23.4854L18.4746 125.33V133H17.1553V123.047H18.4746L23.499 130.751V123.047H24.8047V133ZM26.8525 129.233C26.8525 128.509 26.9938 127.857 27.2764 127.278C27.5635 126.7 27.96 126.253 28.4658 125.938C28.9762 125.624 29.5573 125.467 30.209 125.467C31.2161 125.467 32.0296 125.815 32.6494 126.513C33.2738 127.21 33.5859 128.137 33.5859 129.295V129.384C33.5859 130.104 33.4469 130.751 33.1689 131.325C32.8955 131.895 32.5013 132.339 31.9863 132.658C31.4759 132.977 30.888 133.137 30.2227 133.137C29.2201 133.137 28.4066 132.788 27.7822 132.091C27.1624 131.394 26.8525 130.471 26.8525 129.322V129.233ZM28.124 129.384C28.124 130.204 28.3132 130.863 28.6914 131.359C29.0742 131.856 29.5846 132.104 30.2227 132.104C30.8652 132.104 31.3757 131.854 31.7539 131.353C32.1322 130.847 32.3213 130.14 32.3213 129.233C32.3213 128.422 32.1276 127.766 31.7402 127.265C31.3574 126.759 30.847 126.506 30.209 126.506C29.5846 126.506 29.0811 126.754 28.6982 127.251C28.3154 127.748 28.124 128.459 28.124 129.384ZM37.1377 123.812V125.604H38.5186V126.581H37.1377V131.168C37.1377 131.464 37.1992 131.688 37.3223 131.838C37.4453 131.984 37.6549 132.057 37.9512 132.057C38.097 132.057 38.2975 132.029 38.5527 131.975V133C38.2201 133.091 37.8965 133.137 37.582 133.137C37.0169 133.137 36.5908 132.966 36.3037 132.624C36.0166 132.282 35.873 131.797 35.873 131.168V126.581H34.5264V125.604H35.873V123.812H37.1377ZM46.415 131.284L48.2471 125.604H49.5391L46.8867 133H45.9229L43.2432 125.604H44.5352L46.415 131.284ZM53.9795 133.137C52.9769 133.137 52.1611 132.809 51.5322 132.152C50.9033 131.492 50.5889 130.61 50.5889 129.507V129.274C50.5889 128.541 50.7279 127.887 51.0059 127.312C51.2884 126.734 51.6803 126.283 52.1816 125.959C52.6875 125.631 53.2344 125.467 53.8223 125.467C54.7839 125.467 55.5312 125.784 56.0645 126.417C56.5977 127.05 56.8643 127.957 56.8643 129.138V129.664H51.8535C51.8717 130.393 52.0837 130.983 52.4893 131.435C52.8994 131.881 53.4189 132.104 54.0479 132.104C54.4945 132.104 54.8727 132.013 55.1826 131.831C55.4925 131.649 55.7637 131.407 55.9961 131.106L56.7686 131.708C56.1488 132.66 55.2191 133.137 53.9795 133.137ZM53.8223 126.506C53.3118 126.506 52.8835 126.693 52.5371 127.066C52.1908 127.436 51.9766 127.955 51.8945 128.625H55.5996V128.529C55.5632 127.887 55.39 127.39 55.0801 127.039C54.7702 126.684 54.3509 126.506 53.8223 126.506ZM62.1592 126.738C61.9678 126.706 61.7604 126.69 61.5371 126.69C60.7077 126.69 60.1449 127.044 59.8486 127.75V133H58.584V125.604H59.8145L59.835 126.458C60.2497 125.797 60.8376 125.467 61.5986 125.467C61.8447 125.467 62.0316 125.499 62.1592 125.562V126.738ZM66.1211 131.147L67.8438 125.604H69.1973L66.2236 134.142C65.7633 135.372 65.0319 135.987 64.0293 135.987L63.79 135.967L63.3184 135.878V134.853L63.6602 134.88C64.0885 134.88 64.4212 134.793 64.6582 134.62C64.8997 134.447 65.098 134.13 65.2529 133.67L65.5332 132.918L62.8945 125.604H64.2754L66.1211 131.147ZM74.9268 133V126.581H73.7578V125.604H74.9268V124.845C74.9268 124.052 75.1387 123.439 75.5625 123.006C75.9863 122.573 76.5856 122.356 77.3604 122.356C77.652 122.356 77.9414 122.395 78.2285 122.473L78.1602 123.498C77.946 123.457 77.7181 123.437 77.4766 123.437C77.0664 123.437 76.7497 123.557 76.5264 123.799C76.3031 124.036 76.1914 124.378 76.1914 124.824V125.604H77.7705V126.581H76.1914V133H74.9268ZM83.9883 132.269C83.4961 132.847 82.7738 133.137 81.8213 133.137C81.0329 133.137 80.4313 132.909 80.0166 132.453C79.6064 131.993 79.3991 131.314 79.3945 130.416V125.604H80.6592V130.382C80.6592 131.503 81.1149 132.063 82.0264 132.063C82.9925 132.063 83.6351 131.703 83.9541 130.983V125.604H85.2188V133H84.0156L83.9883 132.269ZM88.5928 125.604L88.6338 126.533C89.1989 125.822 89.9372 125.467 90.8486 125.467C92.4118 125.467 93.2002 126.349 93.2139 128.112V133H91.9492V128.105C91.9447 127.572 91.8216 127.178 91.5801 126.923C91.3431 126.668 90.9717 126.54 90.4658 126.54C90.0557 126.54 89.6956 126.649 89.3857 126.868C89.0758 127.087 88.8343 127.374 88.6611 127.729V133H87.3965V125.604H88.5928ZM96.5674 125.604L96.6084 126.533C97.1735 125.822 97.9118 125.467 98.8232 125.467C100.386 125.467 101.175 126.349 101.188 128.112V133H99.9238V128.105C99.9193 127.572 99.7962 127.178 99.5547 126.923C99.3177 126.668 98.9463 126.54 98.4404 126.54C98.0303 126.54 97.6702 126.649 97.3604 126.868C97.0505 127.087 96.8089 127.374 96.6357 127.729V133H95.3711V125.604H96.5674ZM105.766 131.147L107.488 125.604H108.842L105.868 134.142C105.408 135.372 104.676 135.987 103.674 135.987L103.435 135.967L102.963 135.878V134.853L103.305 134.88C103.733 134.88 104.066 134.793 104.303 134.62C104.544 134.447 104.743 134.13 104.897 133.67L105.178 132.918L102.539 125.604H103.92L105.766 131.147Z" fill="black" fill-opacity="0.6"/>
<path d="M19.7734 105.414L19.9922 106.914L20.3125 105.562L22.5625 97.625H23.8281L26.0234 105.562L26.3359 106.938L26.5781 105.406L28.3438 97.625H29.8516L27.0938 109H25.7266L23.3828 100.711L23.2031 99.8438L23.0234 100.711L20.5938 109H19.2266L16.4766 97.625H17.9766L19.7734 105.414ZM35.3609 101.844C35.1422 101.807 34.9052 101.789 34.65 101.789C33.7021 101.789 33.0589 102.193 32.7203 103V109H31.275V100.547H32.6812L32.7047 101.523C33.1786 100.768 33.8505 100.391 34.7203 100.391C35.0016 100.391 35.2151 100.427 35.3609 100.5V101.844ZM36.3078 104.695C36.3078 103.867 36.4693 103.122 36.7922 102.461C37.1203 101.799 37.5734 101.289 38.1516 100.93C38.7349 100.57 39.399 100.391 40.1437 100.391C41.2948 100.391 42.2245 100.789 42.9328 101.586C43.6464 102.383 44.0031 103.443 44.0031 104.766V104.867C44.0031 105.69 43.8443 106.43 43.5266 107.086C43.2141 107.737 42.7635 108.245 42.175 108.609C41.5917 108.974 40.9198 109.156 40.1594 109.156C39.0135 109.156 38.0839 108.758 37.3703 107.961C36.662 107.164 36.3078 106.109 36.3078 104.797V104.695ZM37.7609 104.867C37.7609 105.805 37.9771 106.557 38.4094 107.125C38.8469 107.693 39.4302 107.977 40.1594 107.977C40.8937 107.977 41.4771 107.69 41.9094 107.117C42.3417 106.539 42.5578 105.732 42.5578 104.695C42.5578 103.768 42.3365 103.018 41.8937 102.445C41.4562 101.867 40.8729 101.578 40.1437 101.578C39.4302 101.578 38.8547 101.862 38.4172 102.43C37.9797 102.997 37.7609 103.81 37.7609 104.867ZM47.9266 98.5V100.547H49.5047V101.664H47.9266V106.906C47.9266 107.245 47.9969 107.5 48.1375 107.672C48.2781 107.839 48.5177 107.922 48.8563 107.922C49.0229 107.922 49.2521 107.891 49.5438 107.828V109C49.1635 109.104 48.7938 109.156 48.4344 109.156C47.7885 109.156 47.3016 108.961 46.9734 108.57C46.6453 108.18 46.4813 107.625 46.4813 106.906V101.664H44.9422V100.547H46.4813V98.5H47.9266ZM54.8578 109.156C53.712 109.156 52.7797 108.781 52.0609 108.031C51.3422 107.276 50.9828 106.268 50.9828 105.008V104.742C50.9828 103.904 51.1417 103.156 51.4594 102.5C51.7823 101.839 52.2302 101.323 52.8031 100.953C53.3812 100.578 54.0062 100.391 54.6781 100.391C55.7771 100.391 56.6312 100.753 57.2406 101.477C57.85 102.201 58.1547 103.237 58.1547 104.586V105.188H52.4281C52.449 106.021 52.6911 106.695 53.1547 107.211C53.6234 107.721 54.2172 107.977 54.9359 107.977C55.4464 107.977 55.8786 107.872 56.2328 107.664C56.587 107.456 56.8969 107.18 57.1625 106.836L58.0453 107.523C57.337 108.612 56.2745 109.156 54.8578 109.156ZM54.6781 101.578C54.0948 101.578 53.6052 101.792 53.2094 102.219C52.8135 102.641 52.5687 103.234 52.475 104H56.7094V103.891C56.6677 103.156 56.4698 102.589 56.1156 102.188C55.7615 101.781 55.2823 101.578 54.6781 101.578ZM69.3219 109C69.2385 108.833 69.1708 108.536 69.1188 108.109C68.4469 108.807 67.6448 109.156 66.7125 109.156C65.8792 109.156 65.1943 108.922 64.6578 108.453C64.1266 107.979 63.8609 107.38 63.8609 106.656C63.8609 105.776 64.1943 105.094 64.8609 104.609C65.5328 104.12 66.4755 103.875 67.6891 103.875H69.0953V103.211C69.0953 102.706 68.9443 102.305 68.6422 102.008C68.3401 101.706 67.8948 101.555 67.3063 101.555C66.7906 101.555 66.3583 101.685 66.0094 101.945C65.6604 102.206 65.4859 102.521 65.4859 102.891H64.0328C64.0328 102.469 64.1813 102.062 64.4781 101.672C64.7802 101.276 65.1865 100.964 65.6969 100.734C66.2125 100.505 66.7776 100.391 67.3922 100.391C68.3661 100.391 69.1292 100.635 69.6813 101.125C70.2333 101.609 70.5198 102.279 70.5406 103.133V107.023C70.5406 107.799 70.6396 108.417 70.8375 108.875V109H69.3219ZM66.9234 107.898C67.3766 107.898 67.8063 107.781 68.2125 107.547C68.6188 107.312 68.913 107.008 69.0953 106.633V104.898H67.9625C66.1917 104.898 65.3063 105.417 65.3063 106.453C65.3063 106.906 65.4573 107.26 65.7594 107.516C66.0615 107.771 66.4495 107.898 66.9234 107.898ZM78.5672 100.547V109.977C78.5672 111.602 77.8302 112.414 76.3563 112.414C76.0385 112.414 75.7443 112.367 75.4734 112.273V111.117C75.6401 111.159 75.8589 111.18 76.1297 111.18C76.4526 111.18 76.6974 111.091 76.8641 110.914C77.0359 110.742 77.1219 110.44 77.1219 110.008V100.547H78.5672ZM76.9734 98.3047C76.9734 98.0755 77.0438 97.8802 77.1844 97.7188C77.3302 97.5521 77.5411 97.4688 77.8172 97.4688C78.0984 97.4688 78.312 97.5495 78.4578 97.7109C78.6036 97.8724 78.6766 98.0703 78.6766 98.3047C78.6766 98.5391 78.6036 98.7344 78.4578 98.8906C78.312 99.0469 78.0984 99.125 77.8172 99.125C77.5359 99.125 77.325 99.0469 77.1844 98.8906C77.0438 98.7344 76.9734 98.5391 76.9734 98.3047ZM80.6703 104.695C80.6703 103.867 80.8318 103.122 81.1547 102.461C81.4828 101.799 81.9359 101.289 82.5141 100.93C83.0974 100.57 83.7615 100.391 84.5062 100.391C85.6573 100.391 86.587 100.789 87.2953 101.586C88.0089 102.383 88.3656 103.443 88.3656 104.766V104.867C88.3656 105.69 88.2068 106.43 87.8891 107.086C87.5766 107.737 87.126 108.245 86.5375 108.609C85.9542 108.974 85.2823 109.156 84.5219 109.156C83.376 109.156 82.4464 108.758 81.7328 107.961C81.0245 107.164 80.6703 106.109 80.6703 104.797V104.695ZM82.1234 104.867C82.1234 105.805 82.3396 106.557 82.7719 107.125C83.2094 107.693 83.7927 107.977 84.5219 107.977C85.2562 107.977 85.8396 107.69 86.2719 107.117C86.7042 106.539 86.9203 105.732 86.9203 104.695C86.9203 103.768 86.699 103.018 86.2562 102.445C85.8187 101.867 85.2354 101.578 84.5062 101.578C83.7927 101.578 83.2172 101.862 82.7797 102.43C82.3422 102.997 82.1234 103.81 82.1234 104.867ZM92.6875 105.086L91.7812 106.031V109H90.3359V97H91.7812V104.258L92.5547 103.328L95.1875 100.547H96.9453L93.6562 104.078L97.3281 109H95.6328L92.6875 105.086ZM101.939 109.156C100.793 109.156 99.8609 108.781 99.1422 108.031C98.4234 107.276 98.0641 106.268 98.0641 105.008V104.742C98.0641 103.904 98.2229 103.156 98.5406 102.5C98.8635 101.839 99.3115 101.323 99.8844 100.953C100.463 100.578 101.088 100.391 101.759 100.391C102.858 100.391 103.713 100.753 104.322 101.477C104.931 102.201 105.236 103.237 105.236 104.586V105.188H99.5094C99.5302 106.021 99.7724 106.695 100.236 107.211C100.705 107.721 101.298 107.977 102.017 107.977C102.528 107.977 102.96 107.872 103.314 107.664C103.668 107.456 103.978 107.18 104.244 106.836L105.127 107.523C104.418 108.612 103.356 109.156 101.939 109.156ZM101.759 101.578C101.176 101.578 100.686 101.792 100.291 102.219C99.8948 102.641 99.65 103.234 99.5563 104H103.791V103.891C103.749 103.156 103.551 102.589 103.197 102.188C102.843 101.781 102.364 101.578 101.759 101.578Z" fill="black" fill-opacity="0.87"/>
<path d="M22.3965 83.6309C22.3965 84.3275 22.276 84.9395 22.0352 85.4668C21.7943 85.9909 21.4492 86.3945 21 86.6777C20.554 86.9577 20.0397 87.0977 19.457 87.0977C18.8809 87.0977 18.3665 86.9577 17.9141 86.6777C17.4648 86.3945 17.1165 85.9925 16.8691 85.4717C16.625 84.9508 16.5013 84.3503 16.498 83.6699V83.2695C16.498 82.5762 16.6201 81.9642 16.8643 81.4336C17.1117 80.903 17.4583 80.4977 17.9043 80.2178C18.3535 79.9346 18.8678 79.793 19.4473 79.793C20.0267 79.793 20.5394 79.9329 20.9854 80.2129C21.4346 80.4896 21.7812 80.89 22.0254 81.4141C22.2695 81.9349 22.3932 82.542 22.3965 83.2354V83.6309ZM21.1611 83.2598C21.1611 82.472 21.0114 81.8682 20.7119 81.4482C20.4157 81.0283 19.9941 80.8184 19.4473 80.8184C18.9134 80.8184 18.4951 81.0283 18.1924 81.4482C17.8929 81.8649 17.7399 82.4557 17.7334 83.2207V83.6309C17.7334 84.4121 17.8848 85.016 18.1875 85.4424C18.4935 85.8688 18.9167 86.082 19.457 86.082C20.0039 86.082 20.4238 85.8737 20.7168 85.457C21.013 85.0404 21.1611 84.4316 21.1611 83.6309V83.2598ZM30.5518 84.6855C30.4801 85.444 30.2002 86.0365 29.7119 86.4629C29.2236 86.8861 28.5742 87.0977 27.7637 87.0977C27.1973 87.0977 26.6976 86.9642 26.2646 86.6973C25.835 86.4271 25.5029 86.0446 25.2686 85.5498C25.0342 85.055 24.9121 84.4805 24.9023 83.8262V83.1621C24.9023 82.4915 25.0212 81.9007 25.2588 81.3896C25.4964 80.8786 25.8366 80.4847 26.2793 80.208C26.7253 79.9313 27.2396 79.793 27.8223 79.793C28.6068 79.793 29.2383 80.0062 29.7168 80.4326C30.1953 80.859 30.4736 81.4613 30.5518 82.2393H29.3213C29.2627 81.7282 29.113 81.3604 28.8721 81.1357C28.6344 80.9079 28.2845 80.7939 27.8223 80.7939C27.2852 80.7939 26.8717 80.9909 26.582 81.3848C26.2956 81.7754 26.1491 82.3499 26.1426 83.1084V83.7383C26.1426 84.5065 26.2793 85.0924 26.5527 85.4961C26.8294 85.8997 27.2331 86.1016 27.7637 86.1016C28.2487 86.1016 28.6133 85.9925 28.8574 85.7744C29.1016 85.5563 29.2562 85.1934 29.3213 84.6855H30.5518ZM38.1504 80.8867H35.9336V87H34.708V80.8867H32.5107V79.8906H38.1504V80.8867ZM47.3076 87H46.126V81.292L44.3828 81.8877V80.8867L47.1562 79.8662H47.3076V87ZM56.0586 87H51.2783V86.1846L53.6465 83.6016C53.9883 83.2207 54.2308 82.9033 54.374 82.6494C54.5205 82.3923 54.5938 82.1351 54.5938 81.8779C54.5938 81.5394 54.4977 81.266 54.3057 81.0576C54.1169 80.8493 53.8613 80.7451 53.5391 80.7451C53.1549 80.7451 52.8571 80.8623 52.6455 81.0967C52.4339 81.3311 52.3281 81.6517 52.3281 82.0586H51.1416C51.1416 81.6257 51.2393 81.2367 51.4346 80.8916C51.6331 80.5433 51.9147 80.2731 52.2793 80.0811C52.6471 79.889 53.0703 79.793 53.5488 79.793C54.2389 79.793 54.7826 79.9671 55.1797 80.3154C55.5801 80.6605 55.7803 81.139 55.7803 81.751C55.7803 82.1058 55.6794 82.4785 55.4775 82.8691C55.279 83.2565 54.9518 83.6976 54.4961 84.1924L52.7578 86.0527H56.0586V87ZM58.7061 88.6016L58.0664 88.2207C58.2552 87.9245 58.3838 87.6657 58.4521 87.4443C58.5238 87.2262 58.5612 87.0033 58.5645 86.7754V85.8525H59.6338L59.6289 86.707C59.6257 87.0521 59.5378 87.3971 59.3652 87.7422C59.196 88.0905 58.9762 88.377 58.7061 88.6016ZM70.9297 87H66.1494V86.1846L68.5176 83.6016C68.8594 83.2207 69.1019 82.9033 69.2451 82.6494C69.3916 82.3923 69.4648 82.1351 69.4648 81.8779C69.4648 81.5394 69.3688 81.266 69.1768 81.0576C68.988 80.8493 68.7324 80.7451 68.4102 80.7451C68.026 80.7451 67.7282 80.8623 67.5166 81.0967C67.305 81.3311 67.1992 81.6517 67.1992 82.0586H66.0127C66.0127 81.6257 66.1104 81.2367 66.3057 80.8916C66.5042 80.5433 66.7858 80.2731 67.1504 80.0811C67.5182 79.889 67.9414 79.793 68.4199 79.793C69.11 79.793 69.6536 79.9671 70.0508 80.3154C70.4512 80.6605 70.6514 81.139 70.6514 81.751C70.6514 82.1058 70.5505 82.4785 70.3486 82.8691C70.1501 83.2565 69.8229 83.6976 69.3672 84.1924L67.6289 86.0527H70.9297V87ZM77.9668 84.0068C77.9668 85.029 77.7747 85.8005 77.3906 86.3213C77.0098 86.8389 76.4287 87.0977 75.6475 87.0977C74.8792 87.0977 74.2998 86.8454 73.9092 86.3408C73.5218 85.833 73.3232 85.0827 73.3135 84.0898V82.8594C73.3135 81.8372 73.5039 81.0706 73.8848 80.5596C74.2689 80.0485 74.8532 79.793 75.6377 79.793C76.4157 79.793 76.9951 80.042 77.376 80.54C77.7601 81.0381 77.957 81.7835 77.9668 82.7764V84.0068ZM76.7803 82.6787C76.7803 82.0114 76.6891 81.5231 76.5068 81.2139C76.3245 80.9014 76.0348 80.7451 75.6377 80.7451C75.2503 80.7451 74.9655 80.8932 74.7832 81.1895C74.6009 81.4824 74.5049 81.9414 74.4951 82.5664V84.1777C74.4951 84.8418 74.5879 85.3366 74.7734 85.6621C74.959 85.9876 75.2503 86.1504 75.6475 86.1504C76.0283 86.1504 76.3099 86.0007 76.4922 85.7012C76.6745 85.3984 76.7705 84.9264 76.7803 84.2852V82.6787ZM85.2969 87H80.5166V86.1846L82.8848 83.6016C83.2266 83.2207 83.4691 82.9033 83.6123 82.6494C83.7588 82.3923 83.832 82.1351 83.832 81.8779C83.832 81.5394 83.736 81.266 83.5439 81.0576C83.3551 80.8493 83.0996 80.7451 82.7773 80.7451C82.3932 80.7451 82.0954 80.8623 81.8838 81.0967C81.6722 81.3311 81.5664 81.6517 81.5664 82.0586H80.3799C80.3799 81.6257 80.4775 81.2367 80.6729 80.8916C80.8714 80.5433 81.153 80.2731 81.5176 80.0811C81.8854 79.889 82.3086 79.793 82.7871 79.793C83.4772 79.793 84.0208 79.9671 84.418 80.3154C84.8184 80.6605 85.0186 81.139 85.0186 81.751C85.0186 82.1058 84.9176 82.4785 84.7158 82.8691C84.5173 83.2565 84.1901 83.6976 83.7344 84.1924L81.9961 86.0527H85.2969V87ZM90.9131 87H89.7314V81.292L87.9883 81.8877V80.8867L90.7617 79.8662H90.9131V87Z" fill="black" fill-opacity="0.6"/>
<rect x="17.4222" y="153" width="374.578" height="1" fill="#212121" fill-opacity="0.08"/>
<path fill-rule="evenodd" clip-rule="evenodd" d="M380 106C381.1 106 382 105.1 382 104C382 102.9 381.1 102 380 102C378.9 102 378 102.9 378 104C378 105.1 378.9 106 380 106ZM380 108C378.9 108 378 108.9 378 110C378 111.1 378.9 112 380 112C381.1 112 382 111.1 382 110C382 108.9 381.1 108 380 108ZM380 114C378.9 114 378 114.9 378 116C378 117.1 378.9 118 380 118C381.1 118 382 117.1 382 116C382 114.9 381.1 114 380 114Z" fill="black" fill-opacity="0.6"/>
</g>
<g filter="url(#filter2_ddd_728:3654)">
<path d="M255 114C255 111.791 256.791 110 259 110H379C381.209 110 383 111.791 383 114V202C383 204.209 381.209 206 379 206H259C256.791 206 255 204.209 255 202V114Z" fill="white"/>
<path d="M265.45 129.257L268.294 121.047H269.729L266.038 131H264.876L261.191 121.047H262.62L265.45 129.257ZM272.495 131H271.23V123.604H272.495V131ZM271.128 121.642C271.128 121.437 271.189 121.263 271.312 121.122C271.44 120.981 271.627 120.91 271.873 120.91C272.119 120.91 272.306 120.981 272.434 121.122C272.561 121.263 272.625 121.437 272.625 121.642C272.625 121.847 272.561 122.018 272.434 122.154C272.306 122.291 272.119 122.359 271.873 122.359C271.627 122.359 271.44 122.291 271.312 122.154C271.189 122.018 271.128 121.847 271.128 121.642ZM277.845 131.137C276.842 131.137 276.026 130.809 275.397 130.152C274.769 129.492 274.454 128.61 274.454 127.507V127.274C274.454 126.541 274.593 125.887 274.871 125.312C275.154 124.734 275.546 124.283 276.047 123.959C276.553 123.631 277.1 123.467 277.688 123.467C278.649 123.467 279.396 123.784 279.93 124.417C280.463 125.05 280.729 125.957 280.729 127.138V127.664H275.719C275.737 128.393 275.949 128.983 276.354 129.435C276.765 129.881 277.284 130.104 277.913 130.104C278.36 130.104 278.738 130.013 279.048 129.831C279.358 129.649 279.629 129.407 279.861 129.106L280.634 129.708C280.014 130.66 279.084 131.137 277.845 131.137ZM277.688 124.506C277.177 124.506 276.749 124.693 276.402 125.066C276.056 125.436 275.842 125.955 275.76 126.625H279.465V126.529C279.428 125.887 279.255 125.39 278.945 125.039C278.635 124.684 278.216 124.506 277.688 124.506ZM288.998 129.257L290.42 123.604H291.685L289.531 131H288.506L286.708 125.395L284.958 131H283.933L281.786 123.604H283.044L284.5 129.141L286.223 123.604H287.241L288.998 129.257Z" fill="black"/>
<path d="M267.781 158.399H263.468V161.927H268.479V163H262.155V153.047H268.41V154.127H263.468V157.326H267.781V158.399ZM269.72 159.24C269.72 158.105 269.989 157.194 270.526 156.506C271.064 155.813 271.768 155.467 272.639 155.467C273.505 155.467 274.19 155.763 274.696 156.355V152.5H275.961V163H274.799L274.737 162.207C274.231 162.827 273.527 163.137 272.625 163.137C271.768 163.137 271.069 162.786 270.526 162.084C269.989 161.382 269.72 160.466 269.72 159.336V159.24ZM270.984 159.384C270.984 160.222 271.158 160.879 271.504 161.353C271.85 161.826 272.329 162.063 272.939 162.063C273.742 162.063 274.327 161.703 274.696 160.983V157.586C274.318 156.889 273.737 156.54 272.953 156.54C272.333 156.54 271.85 156.779 271.504 157.258C271.158 157.736 270.984 158.445 270.984 159.384ZM279.554 163H278.289V155.604H279.554V163ZM278.187 153.642C278.187 153.437 278.248 153.263 278.371 153.122C278.499 152.981 278.686 152.91 278.932 152.91C279.178 152.91 279.365 152.981 279.492 153.122C279.62 153.263 279.684 153.437 279.684 153.642C279.684 153.847 279.62 154.018 279.492 154.154C279.365 154.291 279.178 154.359 278.932 154.359C278.686 154.359 278.499 154.291 278.371 154.154C278.248 154.018 278.187 153.847 278.187 153.642ZM283.55 153.812V155.604H284.931V156.581H283.55V161.168C283.55 161.464 283.611 161.688 283.734 161.838C283.857 161.984 284.067 162.057 284.363 162.057C284.509 162.057 284.71 162.029 284.965 161.975V163C284.632 163.091 284.309 163.137 283.994 163.137C283.429 163.137 283.003 162.966 282.716 162.624C282.429 162.282 282.285 161.797 282.285 161.168V156.581H280.938V155.604H282.285V153.812H283.55Z" fill="black"/>
<path d="M262.155 195V185.047H264.965C265.831 185.047 266.596 185.238 267.262 185.621C267.927 186.004 268.44 186.549 268.8 187.255C269.164 187.961 269.349 188.772 269.354 189.688V190.324C269.354 191.263 269.171 192.086 268.807 192.792C268.447 193.498 267.929 194.041 267.255 194.419C266.585 194.797 265.803 194.991 264.91 195H262.155ZM263.468 186.127V193.927H264.849C265.86 193.927 266.646 193.612 267.207 192.983C267.772 192.354 268.055 191.459 268.055 190.297V189.716C268.055 188.586 267.788 187.708 267.255 187.084C266.726 186.455 265.974 186.136 264.999 186.127H263.468ZM274.464 195.137C273.461 195.137 272.646 194.809 272.017 194.152C271.388 193.492 271.073 192.61 271.073 191.507V191.274C271.073 190.541 271.212 189.887 271.49 189.312C271.773 188.734 272.165 188.283 272.666 187.959C273.172 187.631 273.719 187.467 274.307 187.467C275.268 187.467 276.016 187.784 276.549 188.417C277.082 189.05 277.349 189.957 277.349 191.138V191.664H272.338C272.356 192.393 272.568 192.983 272.974 193.435C273.384 193.881 273.903 194.104 274.532 194.104C274.979 194.104 275.357 194.013 275.667 193.831C275.977 193.649 276.248 193.407 276.48 193.106L277.253 193.708C276.633 194.66 275.703 195.137 274.464 195.137ZM274.307 188.506C273.796 188.506 273.368 188.693 273.021 189.066C272.675 189.436 272.461 189.955 272.379 190.625H276.084V190.529C276.048 189.887 275.874 189.39 275.564 189.039C275.255 188.684 274.835 188.506 274.307 188.506ZM280.442 195H279.178V184.5H280.442V195ZM285.792 195.137C284.789 195.137 283.974 194.809 283.345 194.152C282.716 193.492 282.401 192.61 282.401 191.507V191.274C282.401 190.541 282.54 189.887 282.818 189.312C283.101 188.734 283.493 188.283 283.994 187.959C284.5 187.631 285.047 187.467 285.635 187.467C286.596 187.467 287.344 187.784 287.877 188.417C288.41 189.05 288.677 189.957 288.677 191.138V191.664H283.666C283.684 192.393 283.896 192.983 284.302 193.435C284.712 193.881 285.231 194.104 285.86 194.104C286.307 194.104 286.685 194.013 286.995 193.831C287.305 193.649 287.576 193.407 287.809 193.106L288.581 193.708C287.961 194.66 287.032 195.137 285.792 195.137ZM285.635 188.506C285.124 188.506 284.696 188.693 284.35 189.066C284.003 189.436 283.789 189.955 283.707 190.625H287.412V190.529C287.376 189.887 287.202 189.39 286.893 189.039C286.583 188.684 286.163 188.506 285.635 188.506ZM292.112 185.812V187.604H293.493V188.581H292.112V193.168C292.112 193.464 292.174 193.688 292.297 193.838C292.42 193.984 292.63 194.057 292.926 194.057C293.072 194.057 293.272 194.029 293.527 193.975V195C293.195 195.091 292.871 195.137 292.557 195.137C291.992 195.137 291.565 194.966 291.278 194.624C290.991 194.282 290.848 193.797 290.848 193.168V188.581H289.501V187.604H290.848V185.812H292.112ZM298.296 195.137C297.293 195.137 296.478 194.809 295.849 194.152C295.22 193.492 294.905 192.61 294.905 191.507V191.274C294.905 190.541 295.044 189.887 295.322 189.312C295.605 188.734 295.997 188.283 296.498 187.959C297.004 187.631 297.551 187.467 298.139 187.467C299.1 187.467 299.848 187.784 300.381 188.417C300.914 189.05 301.181 189.957 301.181 191.138V191.664H296.17C296.188 192.393 296.4 192.983 296.806 193.435C297.216 193.881 297.735 194.104 298.364 194.104C298.811 194.104 299.189 194.013 299.499 193.831C299.809 193.649 300.08 193.407 300.312 193.106L301.085 193.708C300.465 194.66 299.535 195.137 298.296 195.137ZM298.139 188.506C297.628 188.506 297.2 188.693 296.854 189.066C296.507 189.436 296.293 189.955 296.211 190.625H299.916V190.529C299.88 189.887 299.706 189.39 299.396 189.039C299.087 188.684 298.667 188.506 298.139 188.506Z" fill="black"/>
</g>
</g>
<defs>
<filter id="filter0_ddd_728:3654" x="-8" y="652" width="427" height="88" filterUnits="userSpaceOnUse" color-interpolation-filters="sRGB">
<feFlood flood-opacity="0" result="BackgroundImageFix"/>
<feColorMatrix in="SourceAlpha" type="matrix" values="0 0 0 0 0 0 0 0 0 0 0 0 0 0 0 0 0 0 127 0" result="hardAlpha"/>
<feOffset dy="1"/>
<feGaussianBlur stdDeviation="4"/>
<feColorMatrix type="matrix" values="0 0 0 0 0 0 0 0 0 0 0 0 0 0 0 0 0 0 0.2 0"/>
<feBlend mode="normal" in2="BackgroundImageFix" result="effect1_dropShadow_728:3654"/>
<feColorMatrix in="SourceAlpha" type="matrix" values="0 0 0 0 0 0 0 0 0 0 0 0 0 0 0 0 0 0 127 0" result="hardAlpha"/>
<feOffset dy="3"/>
<feGaussianBlur stdDeviation="1.5"/>
<feColorMatrix type="matrix" values="0 0 0 0 0 0 0 0 0 0 0 0 0 0 0 0 0 0 0.12 0"/>
<feBlend mode="normal" in2="effect1_dropShadow_728:3654" result="effect2_dropShadow_728:3654"/>
<feColorMatrix in="SourceAlpha" type="matrix" values="0 0 0 0 0 0 0 0 0 0 0 0 0 0 0 0 0 0 127 0" result="hardAlpha"/>
<feOffset dy="3"/>
<feGaussianBlur stdDeviation="2"/>
<feColorMatrix type="matrix" values="0 0 0 0 0 0 0 0 0 0 0 0 0 0 0 0 0 0 0.14 0"/>
<feBlend mode="normal" in2="effect2_dropShadow_728:3654" result="effect3_dropShadow_728:3654"/>
<feBlend mode="normal" in="SourceGraphic" in2="effect3_dropShadow_728:3654" result="shape"/>
</filter>
<filter id="filter1_ddd_728:3654" x="-10" y="-9" width="431" height="76" filterUnits="userSpaceOnUse" color-interpolation-filters="sRGB">
<feFlood flood-opacity="0" result="BackgroundImageFix"/>
<feColorMatrix in="SourceAlpha" type="matrix" values="0 0 0 0 0 0 0 0 0 0 0 0 0 0 0 0 0 0 127 0" result="hardAlpha"/>
<feOffset dy="2"/>
<feGaussianBlur stdDeviation="2"/>
<feColorMatrix type="matrix" values="0 0 0 0 0 0 0 0 0 0 0 0 0 0 0 0 0 0 0.2 0"/>
<feBlend mode="normal" in2="BackgroundImageFix" result="effect1_dropShadow_728:3654"/>
<feColorMatrix in="SourceAlpha" type="matrix" values="0 0 0 0 0 0 0 0 0 0 0 0 0 0 0 0 0 0 127 0" result="hardAlpha"/>
<feOffset dy="1"/>
<feGaussianBlur stdDeviation="5"/>
<feColorMatrix type="matrix" values="0 0 0 0 0 0 0 0 0 0 0 0 0 0 0 0 0 0 0.12 0"/>
<feBlend mode="normal" in2="effect1_dropShadow_728:3654" result="effect2_dropShadow_728:3654"/>
<feColorMatrix in="SourceAlpha" type="matrix" values="0 0 0 0 0 0 0 0 0 0 0 0 0 0 0 0 0 0 127 0" result="hardAlpha"/>
<feOffset dy="4"/>
<feGaussianBlur stdDeviation="2.5"/>
<feColorMatrix type="matrix" values="0 0 0 0 0 0 0 0 0 0 0 0 0 0 0 0 0 0 0.14 0"/>
<feBlend mode="normal" in2="effect2_dropShadow_728:3654" result="effect3_dropShadow_728:3654"/>
<feBlend mode="normal" in="SourceGraphic" in2="effect3_dropShadow_728:3654" result="shape"/>
</filter>
<filter id="filter2_ddd_728:3654" x="241" y="99" width="156" height="125" filterUnits="userSpaceOnUse" color-interpolation-filters="sRGB">
<feFlood flood-opacity="0" result="BackgroundImageFix"/>
<feColorMatrix in="SourceAlpha" type="matrix" values="0 0 0 0 0 0 0 0 0 0 0 0 0 0 0 0 0 0 127 0" result="hardAlpha"/>
<feOffset dy="5"/>
<feGaussianBlur stdDeviation="2.5"/>
<feColorMatrix type="matrix" values="0 0 0 0 0 0 0 0 0 0 0 0 0 0 0 0 0 0 0.2 0"/>
<feBlend mode="normal" in2="BackgroundImageFix" result="effect1_dropShadow_728:3654"/>
<feColorMatrix in="SourceAlpha" type="matrix" values="0 0 0 0 0 0 0 0 0 0 0 0 0 0 0 0 0 0 127 0" result="hardAlpha"/>
<feOffset dy="3"/>
<feGaussianBlur stdDeviation="7"/>
<feColorMatrix type="matrix" values="0 0 0 0 0 0 0 0 0 0 0 0 0 0 0 0 0 0 0.12 0"/>
<feBlend mode="normal" in2="effect1_dropShadow_728:3654" result="effect2_dropShadow_728:3654"/>
<feColorMatrix in="SourceAlpha" type="matrix" values="0 0 0 0 0 0 0 0 0 0 0 0 0 0 0 0 0 0 127 0" result="hardAlpha"/>
<feOffset dy="8"/>
<feGaussianBlur stdDeviation="5"/>
<feColorMatrix type="matrix" values="0 0 0 0 0 0 0 0 0 0 0 0 0 0 0 0 0 0 0.14 0"/>
<feBlend mode="normal" in2="effect2_dropShadow_728:3654" result="effect3_dropShadow_728:3654"/>
<feBlend mode="normal" in="SourceGraphic" in2="effect3_dropShadow_728:3654" result="shape"/>
</filter>
<clipPath id="clip0_728:3654">
<rect width="411" height="731" fill="white"/>
</clipPath>
</defs>
</svg>
