<svg width="411" height="731" viewBox="0 0 411 731" fill="none" xmlns="http://www.w3.org/2000/svg">
<rect width="411" height="731" fill="#F1F1F1"/>
<g clip-path="url(#clip0_728:3906)">
<rect width="411" height="731" fill="white"/>
<g filter="url(#filter0_ddd_728:3906)">
<rect width="411" height="72" transform="translate(0 659)" fill="#6200EE"/>
<rect width="102.75" height="72" transform="translate(0 659)" fill="#6200EE"/>
<path d="M36.3008 706.441H33.1973V715H31.4814V706.441H28.4053V705.047H36.3008V706.441ZM46.6152 710.283C46.6152 711.258 46.4466 712.115 46.1094 712.854C45.7721 713.587 45.2891 714.152 44.6602 714.549C44.0358 714.941 43.3158 715.137 42.5 715.137C41.6934 715.137 40.9733 714.941 40.3398 714.549C39.7109 714.152 39.2233 713.59 38.877 712.86C38.5352 712.131 38.362 711.29 38.3574 710.338V709.777C38.3574 708.807 38.5283 707.95 38.8701 707.207C39.2165 706.464 39.7018 705.897 40.3262 705.505C40.9551 705.108 41.6751 704.91 42.4863 704.91C43.2975 704.91 44.0153 705.106 44.6396 705.498C45.2686 705.885 45.7539 706.446 46.0957 707.18C46.4375 707.909 46.6107 708.759 46.6152 709.729V710.283ZM44.8857 709.764C44.8857 708.661 44.6761 707.815 44.2568 707.228C43.8421 706.64 43.252 706.346 42.4863 706.346C41.7389 706.346 41.1533 706.64 40.7295 707.228C40.3102 707.811 40.096 708.638 40.0869 709.709V710.283C40.0869 711.377 40.2988 712.222 40.7227 712.819C41.151 713.416 41.7435 713.715 42.5 713.715C43.2656 713.715 43.8535 713.423 44.2637 712.84C44.6784 712.257 44.8857 711.404 44.8857 710.283V709.764ZM49.5879 715V705.047H52.5273C53.4069 705.047 54.1862 705.243 54.8652 705.635C55.5488 706.027 56.0775 706.583 56.4512 707.303C56.8249 708.023 57.0117 708.848 57.0117 709.777V710.276C57.0117 711.22 56.8226 712.049 56.4443 712.765C56.0706 713.48 55.5352 714.032 54.8379 714.419C54.1452 714.806 53.3499 715 52.4521 715H49.5879ZM51.3174 706.441V713.619H52.4453C53.3522 713.619 54.0472 713.337 54.5303 712.771C55.0179 712.202 55.2663 711.386 55.2754 710.324V709.771C55.2754 708.69 55.0407 707.866 54.5713 707.296C54.1019 706.726 53.4206 706.441 52.5273 706.441H51.3174ZM65.4053 712.683H61.5498L60.7432 715H58.9453L62.7051 705.047H64.2568L68.0234 715H66.2188L65.4053 712.683ZM62.0352 711.288H64.9199L63.4775 707.159L62.0352 711.288ZM72.6299 709.764L74.9199 705.047H76.834L73.498 711.336V715H71.7617V711.336L68.4189 705.047H70.3398L72.6299 709.764Z" fill="white" fill-opacity="0.74"/>
<path fill-rule="evenodd" clip-rule="evenodd" d="M51 693C52.1 693 53 692.1 53 691H49C49 692.1 49.89 693 51 693ZM57 687V682C57 678.93 55.36 676.36 52.5 675.68V675C52.5 674.17 51.83 673.5 51 673.5C50.17 673.5 49.5 674.17 49.5 675V675.68C46.63 676.36 45 678.92 45 682V687L43 689V690H59V689L57 687Z" fill="white" fill-opacity="0.74"/>
<rect width="102.75" height="72" transform="translate(102.75 659)" fill="#6200EE"/>
<path d="M138.012 710.557H133.924V713.619H138.702V715H132.194V705.047H138.654V706.441H133.924V709.189H138.012V710.557ZM144.867 712.833L147.396 705.047H149.297L145.715 715H144.04L140.472 705.047H142.365L144.867 712.833ZM157.492 710.557H153.404V713.619H158.183V715H151.675V705.047H158.135V706.441H153.404V709.189H157.492V710.557ZM168.736 715H167.007L162.57 707.938V715H160.841V705.047H162.57L167.021 712.136V705.047H168.736V715ZM179.017 706.441H175.913V715H174.197V706.441H171.121V705.047H179.017V706.441Z" fill="white" fill-opacity="0.74"/>
<path d="M150.75 682H148.75V684H150.75V682ZM154.75 682H152.75V684H154.75V682ZM158.75 682H156.75V684H158.75V682ZM160.75 675H159.75V673H157.75V675H149.75V673H147.75V675H146.75C145.64 675 144.76 675.9 144.76 677L144.75 691C144.75 691.53 144.961 692.039 145.336 692.414C145.711 692.789 146.22 693 146.75 693H160.75C161.85 693 162.75 692.1 162.75 691V677C162.75 675.9 161.85 675 160.75 675ZM160.75 691H146.75V680H160.75V691Z" fill="white" fill-opacity="0.74"/>
<rect width="102.75" height="72" transform="translate(205.5 659)" fill="#6200EE"/>
<path d="M243.673 715H241.95V710.577H237.5V715H235.771V705.047H237.5V709.189H241.95V705.047H243.673V715ZM252.668 712.683H248.812L248.006 715H246.208L249.968 705.047H251.52L255.286 715H253.481L252.668 712.683ZM249.298 711.288H252.183L250.74 707.159L249.298 711.288ZM257.671 715V705.047H261.082C262.208 705.047 263.064 705.272 263.652 705.724C264.24 706.175 264.534 706.847 264.534 707.74C264.534 708.196 264.411 708.606 264.165 708.971C263.919 709.335 263.559 709.618 263.085 709.818C263.623 709.964 264.037 710.24 264.329 710.646C264.625 711.047 264.773 711.53 264.773 712.095C264.773 713.029 264.473 713.747 263.871 714.248C263.274 714.749 262.417 715 261.301 715H257.671ZM259.4 710.509V713.619H261.321C261.864 713.619 262.287 713.485 262.593 713.216C262.898 712.947 263.051 712.573 263.051 712.095C263.051 711.06 262.522 710.532 261.465 710.509H259.4ZM259.4 709.237H261.096C261.633 709.237 262.053 709.117 262.354 708.875C262.659 708.629 262.812 708.283 262.812 707.836C262.812 707.344 262.67 706.988 262.388 706.77C262.11 706.551 261.674 706.441 261.082 706.441H259.4V709.237ZM269.578 715H267.855V705.047H269.578V715ZM279.94 706.441H276.837V715H275.121V706.441H272.045V705.047H279.94V706.441Z" fill="white" fill-opacity="0.74"/>
<path fill-rule="evenodd" clip-rule="evenodd" d="M256.5 692.35L255.05 691.03C249.9 686.36 246.5 683.28 246.5 679.5C246.5 676.42 248.92 674 252 674C253.74 674 255.41 674.81 256.5 676.09C257.59 674.81 259.26 674 261 674C264.08 674 266.5 676.42 266.5 679.5C266.5 683.28 263.1 686.36 257.95 691.04L256.5 692.35Z" fill="white" fill-opacity="0.74"/>
<rect width="102.75" height="72" transform="translate(308.25 659)" fill="#6200EE"/>
<rect width="102.75" height="2" transform="translate(308.25 729)" fill="#6200EE"/>
<rect x="308.25" y="729" width="103" height="2" fill="white"/>
<path d="M322.705 711.76C322.605 712.822 322.213 713.651 321.529 714.248C320.846 714.84 319.937 715.137 318.802 715.137C318.009 715.137 317.309 714.95 316.703 714.576C316.102 714.198 315.637 713.662 315.309 712.97C314.98 712.277 314.81 711.473 314.796 710.557V709.627C314.796 708.688 314.962 707.861 315.295 707.146C315.628 706.43 316.104 705.879 316.724 705.491C317.348 705.104 318.068 704.91 318.884 704.91C319.982 704.91 320.866 705.209 321.536 705.806C322.206 706.403 322.596 707.246 322.705 708.335H320.982C320.9 707.619 320.691 707.104 320.354 706.79C320.021 706.471 319.531 706.312 318.884 706.312C318.132 706.312 317.553 706.587 317.147 707.139C316.746 707.686 316.541 708.49 316.532 709.552V710.434C316.532 711.509 316.724 712.329 317.106 712.895C317.494 713.46 318.059 713.742 318.802 713.742C319.481 713.742 319.991 713.59 320.333 713.284C320.675 712.979 320.891 712.471 320.982 711.76H322.705ZM333.45 710.283C333.45 711.258 333.282 712.115 332.944 712.854C332.607 713.587 332.124 714.152 331.495 714.549C330.871 714.941 330.151 715.137 329.335 715.137C328.528 715.137 327.808 714.941 327.175 714.549C326.546 714.152 326.058 713.59 325.712 712.86C325.37 712.131 325.197 711.29 325.192 710.338V709.777C325.192 708.807 325.363 707.95 325.705 707.207C326.051 706.464 326.537 705.897 327.161 705.505C327.79 705.108 328.51 704.91 329.321 704.91C330.132 704.91 330.85 705.106 331.475 705.498C332.104 705.885 332.589 706.446 332.931 707.18C333.272 707.909 333.446 708.759 333.45 709.729V710.283ZM331.721 709.764C331.721 708.661 331.511 707.815 331.092 707.228C330.677 706.64 330.087 706.346 329.321 706.346C328.574 706.346 327.988 706.64 327.564 707.228C327.145 707.811 326.931 708.638 326.922 709.709V710.283C326.922 711.377 327.134 712.222 327.558 712.819C327.986 713.416 328.578 713.715 329.335 713.715C330.101 713.715 330.688 713.423 331.099 712.84C331.513 712.257 331.721 711.404 331.721 710.283V709.764ZM338.665 705.047L341.536 712.676L344.4 705.047H346.636V715H344.913V711.719L345.084 707.33L342.145 715H340.907L337.975 707.337L338.146 711.719V715H336.423V705.047H338.665ZM352.179 705.047L355.05 712.676L357.914 705.047H360.149V715H358.427V711.719L358.598 707.33L355.658 715H354.421L351.488 707.337L351.659 711.719V715H349.937V705.047H352.179ZM370.73 705.047V711.698C370.73 712.756 370.391 713.594 369.712 714.214C369.037 714.829 368.137 715.137 367.012 715.137C365.872 715.137 364.968 714.834 364.298 714.228C363.628 713.617 363.293 712.771 363.293 711.691V705.047H365.016V711.705C365.016 712.37 365.184 712.879 365.521 713.229C365.859 713.58 366.355 713.756 367.012 713.756C368.342 713.756 369.008 713.054 369.008 711.65V705.047H370.73ZM381.729 715H379.999L375.562 707.938V715H373.833V705.047H375.562L380.013 712.136V705.047H381.729V715ZM386.848 715H385.125V705.047H386.848V715ZM397.21 706.441H394.106V715H392.391V706.441H389.314V705.047H397.21V706.441ZM403.129 709.764L405.419 705.047H407.333L403.997 711.336V715H402.261V711.336L398.918 705.047H400.839L403.129 709.764Z" fill="white"/>
<path d="M363.25 682C364.91 682 366.24 680.66 366.24 679C366.24 677.34 364.91 676 363.25 676C361.59 676 360.25 677.34 360.25 679C360.25 680.66 361.59 682 363.25 682ZM355.25 682C356.91 682 358.24 680.66 358.24 679C358.24 677.34 356.91 676 355.25 676C353.59 676 352.25 677.34 352.25 679C352.25 680.66 353.59 682 355.25 682ZM355.25 684C352.92 684 348.25 685.17 348.25 687.5V690H362.25V687.5C362.25 685.17 357.58 684 355.25 684ZM363.25 684C362.96 684 362.63 684.02 362.28 684.05C363.44 684.89 364.25 686.02 364.25 687.5V690H370.25V687.5C370.25 685.17 365.58 684 363.25 684Z" fill="white"/>
</g>
<g filter="url(#filter1_ddd_728:3906)">
<rect width="411" height="56" fill="#6200EE"/>
<path fill-rule="evenodd" clip-rule="evenodd" d="M287 38C288.1 38 289 37.1 289 36H285C285 37.1 285.89 38 287 38ZM293 32V27C293 23.93 291.36 21.36 288.5 20.68V20C288.5 19.17 287.83 18.5 287 18.5C286.17 18.5 285.5 19.17 285.5 20V20.68C282.63 21.36 281 23.92 281 27V32L279 34V35H295V34L293 32Z" fill="white" fill-opacity="0.74"/>
<path fill-rule="evenodd" clip-rule="evenodd" d="M341 32.08C340.24 32.08 339.56 32.38 339.04 32.85L331.91 28.7C331.96 28.47 332 28.24 332 28C332 27.76 331.96 27.53 331.91 27.3L338.96 23.19C339.5 23.69 340.21 24 341 24C342.66 24 344 22.66 344 21C344 19.34 342.66 18 341 18C339.34 18 338 19.34 338 21C338 21.24 338.04 21.47 338.09 21.7L331.04 25.81C330.5 25.31 329.79 25 329 25C327.34 25 326 26.34 326 28C326 29.66 327.34 31 329 31C329.79 31 330.5 30.69 331.04 30.19L338.16 34.35C338.11 34.56 338.08 34.78 338.08 35C338.08 36.61 339.39 37.92 341 37.92C342.61 37.92 343.92 36.61 343.92 35C343.92 33.39 342.61 32.08 341 32.08Z" fill="white" fill-opacity="0.74"/>
<path fill-rule="evenodd" clip-rule="evenodd" d="M386.5 30H385.71L385.43 29.73C386.41 28.59 387 27.11 387 25.5C387 21.91 384.09 19 380.5 19C376.91 19 374 21.91 374 25.5C374 29.09 376.91 32 380.5 32C382.11 32 383.59 31.41 384.73 30.43L385 30.71V31.5L390 36.49L391.49 35L386.5 30ZM380.5 30C378.01 30 376 27.99 376 25.5C376 23.01 378.01 21 380.5 21C382.99 21 385 23.01 385 25.5C385 27.99 382.99 30 380.5 30Z" fill="white" fill-opacity="0.74"/>
<path fill-rule="evenodd" clip-rule="evenodd" d="M19 34H37V32H19V34ZM19 29H37V27H19V29ZM19 22V24H37V22H19Z" fill="white" fill-opacity="0.74"/>
</g>
<mask id="mask0_728:3906" style="mask-type:alpha" maskUnits="userSpaceOnUse" x="0" y="66" width="392" height="88">
<rect y="66" width="392" height="88" fill="white"/>
</mask>
<g mask="url(#mask0_728:3906)">
<path d="M18.5635 133H17.251V123.047H18.5635V133ZM22.2109 125.604L22.2451 126.424C22.7874 125.786 23.5189 125.467 24.4395 125.467C25.474 125.467 26.1781 125.863 26.5518 126.656C26.7979 126.301 27.1169 126.014 27.5088 125.795C27.9053 125.576 28.3724 125.467 28.9102 125.467C30.5326 125.467 31.3574 126.326 31.3848 128.044V133H30.1201V128.119C30.1201 127.59 29.9993 127.196 29.7578 126.937C29.5163 126.672 29.1107 126.54 28.541 126.54C28.0716 126.54 27.682 126.681 27.3721 126.964C27.0622 127.242 26.8822 127.618 26.832 128.092V133H25.5605V128.153C25.5605 127.078 25.0342 126.54 23.9814 126.54C23.152 126.54 22.5846 126.893 22.2793 127.6V133H21.0146V125.604H22.2109ZM39.7969 129.384C39.7969 130.509 39.5394 131.416 39.0244 132.104C38.5094 132.793 37.8122 133.137 36.9326 133.137C36.0348 133.137 35.3285 132.852 34.8135 132.282V135.844H33.5488V125.604H34.7041L34.7656 126.424C35.2806 125.786 35.9961 125.467 36.9121 125.467C37.8008 125.467 38.5026 125.802 39.0176 126.472C39.5371 127.142 39.7969 128.074 39.7969 129.268V129.384ZM38.5322 129.24C38.5322 128.406 38.3545 127.748 37.999 127.265C37.6436 126.782 37.1559 126.54 36.5361 126.54C35.7705 126.54 35.1963 126.88 34.8135 127.559V131.093C35.1917 131.767 35.7705 132.104 36.5498 132.104C37.1559 132.104 37.6367 131.865 37.9922 131.387C38.3522 130.904 38.5322 130.188 38.5322 129.24ZM45.2354 126.738C45.0439 126.706 44.8366 126.69 44.6133 126.69C43.7839 126.69 43.221 127.044 42.9248 127.75V133H41.6602V125.604H42.8906L42.9111 126.458C43.3258 125.797 43.9137 125.467 44.6748 125.467C44.9209 125.467 45.1077 125.499 45.2354 125.562V126.738ZM46.1826 129.233C46.1826 128.509 46.3239 127.857 46.6064 127.278C46.8936 126.7 47.29 126.253 47.7959 125.938C48.3063 125.624 48.8874 125.467 49.5391 125.467C50.5462 125.467 51.3597 125.815 51.9795 126.513C52.6038 127.21 52.916 128.137 52.916 129.295V129.384C52.916 130.104 52.777 130.751 52.499 131.325C52.2256 131.895 51.8314 132.339 51.3164 132.658C50.806 132.977 50.2181 133.137 49.5527 133.137C48.5501 133.137 47.7367 132.788 47.1123 132.091C46.4925 131.394 46.1826 130.471 46.1826 129.322V129.233ZM47.4541 129.384C47.4541 130.204 47.6432 130.863 48.0215 131.359C48.4043 131.856 48.9147 132.104 49.5527 132.104C50.1953 132.104 50.7057 131.854 51.084 131.353C51.4622 130.847 51.6514 130.14 51.6514 129.233C51.6514 128.422 51.4577 127.766 51.0703 127.265C50.6875 126.759 50.1771 126.506 49.5391 126.506C48.9147 126.506 48.4111 126.754 48.0283 127.251C47.6455 127.748 47.4541 128.459 47.4541 129.384ZM57.083 131.284L58.915 125.604H60.207L57.5547 133H56.5908L53.9111 125.604H55.2031L57.083 131.284ZM64.6475 133.137C63.6449 133.137 62.8291 132.809 62.2002 132.152C61.5713 131.492 61.2568 130.61 61.2568 129.507V129.274C61.2568 128.541 61.3958 127.887 61.6738 127.312C61.9564 126.734 62.3483 126.283 62.8496 125.959C63.3555 125.631 63.9023 125.467 64.4902 125.467C65.4518 125.467 66.1992 125.784 66.7324 126.417C67.2656 127.05 67.5322 127.957 67.5322 129.138V129.664H62.5215C62.5397 130.393 62.7516 130.983 63.1572 131.435C63.5674 131.881 64.0869 132.104 64.7158 132.104C65.1624 132.104 65.5407 132.013 65.8506 131.831C66.1605 131.649 66.4316 131.407 66.6641 131.106L67.4365 131.708C66.8167 132.66 65.887 133.137 64.6475 133.137ZM64.4902 126.506C63.9798 126.506 63.5514 126.693 63.2051 127.066C62.8587 127.436 62.6445 127.955 62.5625 128.625H66.2676V128.529C66.2311 127.887 66.0579 127.39 65.748 127.039C65.4382 126.684 65.0189 126.506 64.4902 126.506ZM73.5586 131.038C73.5586 130.696 73.4287 130.432 73.1689 130.245C72.9137 130.054 72.4648 129.89 71.8223 129.753C71.1842 129.616 70.6761 129.452 70.2979 129.261C69.9242 129.069 69.6462 128.841 69.4639 128.577C69.2861 128.313 69.1973 127.998 69.1973 127.634C69.1973 127.028 69.4525 126.515 69.9629 126.096C70.4779 125.676 71.1341 125.467 71.9316 125.467C72.7702 125.467 73.4492 125.683 73.9688 126.116C74.4928 126.549 74.7549 127.103 74.7549 127.777H73.4834C73.4834 127.431 73.3353 127.132 73.0391 126.882C72.7474 126.631 72.3783 126.506 71.9316 126.506C71.4714 126.506 71.1113 126.606 70.8516 126.807C70.5918 127.007 70.4619 127.269 70.4619 127.593C70.4619 127.898 70.5827 128.128 70.8242 128.283C71.0658 128.438 71.501 128.586 72.1299 128.728C72.7633 128.869 73.276 129.037 73.668 129.233C74.0599 129.429 74.3493 129.666 74.5361 129.944C74.7275 130.218 74.8232 130.553 74.8232 130.949C74.8232 131.61 74.5589 132.141 74.0303 132.542C73.5016 132.938 72.8158 133.137 71.9727 133.137C71.3802 133.137 70.8561 133.032 70.4004 132.822C69.9447 132.613 69.5869 132.321 69.3271 131.947C69.0719 131.569 68.9443 131.161 68.9443 130.724H70.209C70.2318 131.147 70.4004 131.485 70.7148 131.735C71.0339 131.981 71.4531 132.104 71.9727 132.104C72.4512 132.104 72.834 132.009 73.1211 131.817C73.4128 131.621 73.5586 131.362 73.5586 131.038ZM83.4102 132.104C83.8613 132.104 84.2555 131.968 84.5928 131.694C84.93 131.421 85.1169 131.079 85.1533 130.669H86.3496C86.3268 131.093 86.181 131.496 85.9121 131.879C85.6432 132.262 85.2832 132.567 84.832 132.795C84.3854 133.023 83.9115 133.137 83.4102 133.137C82.403 133.137 81.6009 132.802 81.0039 132.132C80.4115 131.457 80.1152 130.537 80.1152 129.37V129.158C80.1152 128.438 80.2474 127.798 80.5117 127.237C80.776 126.677 81.1543 126.242 81.6465 125.932C82.1432 125.622 82.7288 125.467 83.4033 125.467C84.2327 125.467 84.9209 125.715 85.4678 126.212C86.0192 126.709 86.3132 127.354 86.3496 128.146H85.1533C85.1169 127.668 84.9346 127.276 84.6064 126.971C84.2829 126.661 83.8818 126.506 83.4033 126.506C82.7607 126.506 82.2617 126.738 81.9062 127.203C81.5553 127.663 81.3799 128.331 81.3799 129.206V129.445C81.3799 130.298 81.5553 130.954 81.9062 131.414C82.2572 131.874 82.7585 132.104 83.4102 132.104ZM91.5967 126.738C91.4053 126.706 91.1979 126.69 90.9746 126.69C90.1452 126.69 89.5824 127.044 89.2861 127.75V133H88.0215V125.604H89.252L89.2725 126.458C89.6872 125.797 90.2751 125.467 91.0361 125.467C91.2822 125.467 91.4691 125.499 91.5967 125.562V126.738ZM92.5439 129.233C92.5439 128.509 92.6852 127.857 92.9678 127.278C93.2549 126.7 93.6514 126.253 94.1572 125.938C94.6676 125.624 95.2487 125.467 95.9004 125.467C96.9076 125.467 97.721 125.815 98.3408 126.513C98.9652 127.21 99.2773 128.137 99.2773 129.295V129.384C99.2773 130.104 99.1383 130.751 98.8604 131.325C98.5869 131.895 98.1927 132.339 97.6777 132.658C97.1673 132.977 96.5794 133.137 95.9141 133.137C94.9115 133.137 94.098 132.788 93.4736 132.091C92.8538 131.394 92.5439 130.471 92.5439 129.322V129.233ZM93.8154 129.384C93.8154 130.204 94.0046 130.863 94.3828 131.359C94.7656 131.856 95.276 132.104 95.9141 132.104C96.5566 132.104 97.0671 131.854 97.4453 131.353C97.8236 130.847 98.0127 130.14 98.0127 129.233C98.0127 128.422 97.819 127.766 97.4316 127.265C97.0488 126.759 96.5384 126.506 95.9004 126.506C95.276 126.506 94.7725 126.754 94.3896 127.251C94.0068 127.748 93.8154 128.459 93.8154 129.384ZM107.361 129.384C107.361 130.509 107.104 131.416 106.589 132.104C106.074 132.793 105.377 133.137 104.497 133.137C103.599 133.137 102.893 132.852 102.378 132.282V135.844H101.113V125.604H102.269L102.33 126.424C102.845 125.786 103.561 125.467 104.477 125.467C105.365 125.467 106.067 125.802 106.582 126.472C107.102 127.142 107.361 128.074 107.361 129.268V129.384ZM106.097 129.24C106.097 128.406 105.919 127.748 105.563 127.265C105.208 126.782 104.72 126.54 104.101 126.54C103.335 126.54 102.761 126.88 102.378 127.559V131.093C102.756 131.767 103.335 132.104 104.114 132.104C104.72 132.104 105.201 131.865 105.557 131.387C105.917 130.904 106.097 130.188 106.097 129.24ZM112.646 129.24C112.646 128.087 112.913 127.171 113.446 126.492C113.979 125.809 114.686 125.467 115.565 125.467C116.468 125.467 117.172 125.786 117.678 126.424L117.739 125.604H118.895V132.822C118.895 133.779 118.61 134.534 118.04 135.085C117.475 135.636 116.714 135.912 115.757 135.912C115.224 135.912 114.702 135.798 114.191 135.57C113.681 135.342 113.291 135.03 113.022 134.634L113.679 133.875C114.221 134.545 114.884 134.88 115.668 134.88C116.283 134.88 116.762 134.707 117.104 134.36C117.45 134.014 117.623 133.526 117.623 132.897V132.262C117.117 132.845 116.427 133.137 115.552 133.137C114.686 133.137 113.984 132.788 113.446 132.091C112.913 131.394 112.646 130.443 112.646 129.24ZM113.918 129.384C113.918 130.218 114.089 130.874 114.431 131.353C114.772 131.826 115.251 132.063 115.866 132.063C116.664 132.063 117.249 131.701 117.623 130.977V127.6C117.236 126.893 116.655 126.54 115.88 126.54C115.265 126.54 114.784 126.779 114.438 127.258C114.091 127.736 113.918 128.445 113.918 129.384ZM124.634 126.738C124.442 126.706 124.235 126.69 124.012 126.69C123.182 126.69 122.619 127.044 122.323 127.75V133H121.059V125.604H122.289L122.31 126.458C122.724 125.797 123.312 125.467 124.073 125.467C124.319 125.467 124.506 125.499 124.634 125.562V126.738ZM125.581 129.233C125.581 128.509 125.722 127.857 126.005 127.278C126.292 126.7 126.688 126.253 127.194 125.938C127.705 125.624 128.286 125.467 128.938 125.467C129.945 125.467 130.758 125.815 131.378 126.513C132.002 127.21 132.314 128.137 132.314 129.295V129.384C132.314 130.104 132.175 130.751 131.897 131.325C131.624 131.895 131.23 132.339 130.715 132.658C130.204 132.977 129.617 133.137 128.951 133.137C127.949 133.137 127.135 132.788 126.511 132.091C125.891 131.394 125.581 130.471 125.581 129.322V129.233ZM126.853 129.384C126.853 130.204 127.042 130.863 127.42 131.359C127.803 131.856 128.313 132.104 128.951 132.104C129.594 132.104 130.104 131.854 130.482 131.353C130.861 130.847 131.05 130.14 131.05 129.233C131.05 128.422 130.856 127.766 130.469 127.265C130.086 126.759 129.576 126.506 128.938 126.506C128.313 126.506 127.81 126.754 127.427 127.251C127.044 127.748 126.853 128.459 126.853 129.384ZM140.699 131.257L142.121 125.604H143.386L141.232 133H140.207L138.409 127.395L136.659 133H135.634L133.487 125.604H134.745L136.201 131.141L137.924 125.604H138.942L140.699 131.257ZM146.644 123.812V125.604H148.024V126.581H146.644V131.168C146.644 131.464 146.705 131.688 146.828 131.838C146.951 131.984 147.161 132.057 147.457 132.057C147.603 132.057 147.803 132.029 148.059 131.975V133C147.726 133.091 147.402 133.137 147.088 133.137C146.523 133.137 146.097 132.966 145.81 132.624C145.522 132.282 145.379 131.797 145.379 131.168V126.581H144.032V125.604H145.379V123.812H146.644ZM151.022 126.499C151.583 125.811 152.312 125.467 153.21 125.467C154.773 125.467 155.562 126.349 155.575 128.112V133H154.311V128.105C154.306 127.572 154.183 127.178 153.941 126.923C153.704 126.668 153.333 126.54 152.827 126.54C152.417 126.54 152.057 126.649 151.747 126.868C151.437 127.087 151.196 127.374 151.022 127.729V133H149.758V122.5H151.022V126.499Z" fill="black" fill-opacity="0.6"/>
<path d="M19.7734 105.414L19.9922 106.914L20.3125 105.562L22.5625 97.625H23.8281L26.0234 105.562L26.3359 106.938L26.5781 105.406L28.3438 97.625H29.8516L27.0938 109H25.7266L23.3828 100.711L23.2031 99.8438L23.0234 100.711L20.5938 109H19.2266L16.4766 97.625H17.9766L19.7734 105.414ZM36.4 109C36.3167 108.833 36.249 108.536 36.1969 108.109C35.525 108.807 34.7229 109.156 33.7906 109.156C32.9573 109.156 32.2724 108.922 31.7359 108.453C31.2047 107.979 30.9391 107.38 30.9391 106.656C30.9391 105.776 31.2724 105.094 31.9391 104.609C32.6109 104.12 33.5536 103.875 34.7672 103.875H36.1734V103.211C36.1734 102.706 36.0224 102.305 35.7203 102.008C35.4182 101.706 34.9729 101.555 34.3844 101.555C33.8687 101.555 33.4365 101.685 33.0875 101.945C32.7385 102.206 32.5641 102.521 32.5641 102.891H31.1109C31.1109 102.469 31.2594 102.062 31.5562 101.672C31.8583 101.276 32.2646 100.964 32.775 100.734C33.2906 100.505 33.8557 100.391 34.4703 100.391C35.4443 100.391 36.2073 100.635 36.7594 101.125C37.3115 101.609 37.5979 102.279 37.6187 103.133V107.023C37.6187 107.799 37.7177 108.417 37.9156 108.875V109H36.4ZM34.0016 107.898C34.4547 107.898 34.8844 107.781 35.2906 107.547C35.6969 107.312 35.9911 107.008 36.1734 106.633V104.898H35.0406C33.2698 104.898 32.3844 105.417 32.3844 106.453C32.3844 106.906 32.5354 107.26 32.8375 107.516C33.1396 107.771 33.5276 107.898 34.0016 107.898ZM41.9953 98.5V100.547H43.5734V101.664H41.9953V106.906C41.9953 107.245 42.0656 107.5 42.2062 107.672C42.3469 107.839 42.5865 107.922 42.925 107.922C43.0917 107.922 43.3208 107.891 43.6125 107.828V109C43.2323 109.104 42.8625 109.156 42.5031 109.156C41.8573 109.156 41.3703 108.961 41.0422 108.57C40.7141 108.18 40.55 107.625 40.55 106.906V101.664H39.0109V100.547H40.55V98.5H41.9953ZM48.9266 109.156C47.7807 109.156 46.8484 108.781 46.1297 108.031C45.4109 107.276 45.0516 106.268 45.0516 105.008V104.742C45.0516 103.904 45.2104 103.156 45.5281 102.5C45.851 101.839 46.299 101.323 46.8719 100.953C47.45 100.578 48.075 100.391 48.7469 100.391C49.8458 100.391 50.7 100.753 51.3094 101.477C51.9188 102.201 52.2234 103.237 52.2234 104.586V105.188H46.4969C46.5177 106.021 46.7599 106.695 47.2234 107.211C47.6922 107.721 48.2859 107.977 49.0047 107.977C49.5151 107.977 49.9474 107.872 50.3016 107.664C50.6557 107.456 50.9656 107.18 51.2313 106.836L52.1141 107.523C51.4057 108.612 50.3432 109.156 48.9266 109.156ZM48.7469 101.578C48.1635 101.578 47.674 101.792 47.2781 102.219C46.8823 102.641 46.6375 103.234 46.5438 104H50.7781V103.891C50.7365 103.156 50.5385 102.589 50.1844 102.188C49.8302 101.781 49.351 101.578 48.7469 101.578ZM58.1391 101.844C57.9203 101.807 57.6833 101.789 57.4281 101.789C56.4802 101.789 55.837 102.193 55.4984 103V109H54.0531V100.547H55.4594L55.4828 101.523C55.9568 100.768 56.6286 100.391 57.4984 100.391C57.7797 100.391 57.9932 100.427 58.1391 100.5V101.844ZM65.7047 98.5V100.547H67.2828V101.664H65.7047V106.906C65.7047 107.245 65.775 107.5 65.9156 107.672C66.0563 107.839 66.2958 107.922 66.6344 107.922C66.801 107.922 67.0302 107.891 67.3219 107.828V109C66.9417 109.104 66.5719 109.156 66.2125 109.156C65.5667 109.156 65.0797 108.961 64.7516 108.57C64.4234 108.18 64.2594 107.625 64.2594 106.906V101.664H62.7203V100.547H64.2594V98.5H65.7047ZM70.5734 101.57C71.2141 100.784 72.0474 100.391 73.0734 100.391C74.8599 100.391 75.7609 101.398 75.7766 103.414V109H74.3312V103.406C74.326 102.797 74.1854 102.346 73.9094 102.055C73.6385 101.763 73.2141 101.617 72.6359 101.617C72.1672 101.617 71.7557 101.742 71.4016 101.992C71.0474 102.242 70.7714 102.57 70.5734 102.977V109H69.1281V97H70.5734V101.57ZM81.5984 109.156C80.4526 109.156 79.5203 108.781 78.8016 108.031C78.0828 107.276 77.7234 106.268 77.7234 105.008V104.742C77.7234 103.904 77.8823 103.156 78.2 102.5C78.5229 101.839 78.9708 101.323 79.5438 100.953C80.1219 100.578 80.7469 100.391 81.4188 100.391C82.5177 100.391 83.3719 100.753 83.9813 101.477C84.5906 102.201 84.8953 103.237 84.8953 104.586V105.188H79.1688C79.1896 106.021 79.4318 106.695 79.8953 107.211C80.3641 107.721 80.9578 107.977 81.6766 107.977C82.187 107.977 82.6193 107.872 82.9734 107.664C83.3276 107.456 83.6375 107.18 83.9031 106.836L84.7859 107.523C84.0776 108.612 83.0151 109.156 81.5984 109.156ZM81.4188 101.578C80.8354 101.578 80.3458 101.792 79.95 102.219C79.5542 102.641 79.3094 103.234 79.2156 104H83.45V103.891C83.4083 103.156 83.2104 102.589 82.8563 102.188C82.5021 101.781 82.0229 101.578 81.4188 101.578ZM94.2344 107.977C94.75 107.977 95.2005 107.82 95.5859 107.508C95.9714 107.195 96.1849 106.805 96.2266 106.336H97.5938C97.5677 106.82 97.401 107.281 97.0938 107.719C96.7865 108.156 96.375 108.505 95.8594 108.766C95.349 109.026 94.8073 109.156 94.2344 109.156C93.0833 109.156 92.1667 108.773 91.4844 108.008C90.8073 107.237 90.4688 106.185 90.4688 104.852V104.609C90.4688 103.786 90.6198 103.055 90.9219 102.414C91.224 101.773 91.6562 101.276 92.2188 100.922C92.7865 100.568 93.4557 100.391 94.2266 100.391C95.1745 100.391 95.9609 100.674 96.5859 101.242C97.2161 101.81 97.5521 102.547 97.5938 103.453H96.2266C96.1849 102.906 95.9766 102.458 95.6016 102.109C95.2318 101.755 94.7734 101.578 94.2266 101.578C93.4922 101.578 92.9219 101.844 92.5156 102.375C92.1146 102.901 91.9141 103.664 91.9141 104.664V104.938C91.9141 105.911 92.1146 106.661 92.5156 107.188C92.9167 107.714 93.4896 107.977 94.2344 107.977ZM103.455 101.844C103.236 101.807 102.999 101.789 102.744 101.789C101.796 101.789 101.153 102.193 100.814 103V109H99.3688V100.547H100.775L100.798 101.523C101.272 100.768 101.944 100.391 102.814 100.391C103.095 100.391 103.309 100.427 103.455 100.5V101.844ZM104.402 104.695C104.402 103.867 104.563 103.122 104.886 102.461C105.214 101.799 105.667 101.289 106.245 100.93C106.829 100.57 107.493 100.391 108.238 100.391C109.389 100.391 110.318 100.789 111.027 101.586C111.74 102.383 112.097 103.443 112.097 104.766V104.867C112.097 105.69 111.938 106.43 111.62 107.086C111.308 107.737 110.857 108.245 110.269 108.609C109.685 108.974 109.014 109.156 108.253 109.156C107.107 109.156 106.178 108.758 105.464 107.961C104.756 107.164 104.402 106.109 104.402 104.797V104.695ZM105.855 104.867C105.855 105.805 106.071 106.557 106.503 107.125C106.941 107.693 107.524 107.977 108.253 107.977C108.988 107.977 109.571 107.69 110.003 107.117C110.435 106.539 110.652 105.732 110.652 104.695C110.652 103.768 110.43 103.018 109.988 102.445C109.55 101.867 108.967 101.578 108.238 101.578C107.524 101.578 106.948 101.862 106.511 102.43C106.073 102.997 105.855 103.81 105.855 104.867ZM121.2 104.867C121.2 106.154 120.906 107.19 120.317 107.977C119.729 108.763 118.932 109.156 117.927 109.156C116.901 109.156 116.093 108.831 115.505 108.18V112.25H114.059V100.547H115.38L115.45 101.484C116.039 100.755 116.856 100.391 117.903 100.391C118.919 100.391 119.721 100.773 120.309 101.539C120.903 102.305 121.2 103.37 121.2 104.734V104.867ZM119.755 104.703C119.755 103.75 119.552 102.997 119.145 102.445C118.739 101.893 118.182 101.617 117.473 101.617C116.598 101.617 115.942 102.005 115.505 102.781V106.82C115.937 107.591 116.598 107.977 117.489 107.977C118.182 107.977 118.731 107.703 119.137 107.156C119.549 106.604 119.755 105.786 119.755 104.703ZM128.116 106.758C128.116 106.367 127.967 106.065 127.67 105.852C127.379 105.633 126.866 105.445 126.131 105.289C125.402 105.133 124.821 104.945 124.389 104.727C123.962 104.508 123.644 104.247 123.436 103.945C123.233 103.643 123.131 103.284 123.131 102.867C123.131 102.174 123.423 101.589 124.006 101.109C124.595 100.63 125.345 100.391 126.256 100.391C127.215 100.391 127.991 100.638 128.584 101.133C129.183 101.628 129.483 102.26 129.483 103.031H128.03C128.03 102.635 127.86 102.294 127.522 102.008C127.189 101.721 126.767 101.578 126.256 101.578C125.73 101.578 125.319 101.693 125.022 101.922C124.725 102.151 124.577 102.451 124.577 102.82C124.577 103.169 124.715 103.432 124.991 103.609C125.267 103.786 125.764 103.956 126.483 104.117C127.207 104.279 127.793 104.471 128.241 104.695C128.689 104.919 129.019 105.19 129.233 105.508C129.452 105.82 129.561 106.203 129.561 106.656C129.561 107.411 129.259 108.018 128.655 108.477C128.051 108.93 127.267 109.156 126.303 109.156C125.626 109.156 125.027 109.036 124.506 108.797C123.985 108.557 123.577 108.224 123.28 107.797C122.988 107.365 122.842 106.898 122.842 106.398H124.287C124.314 106.883 124.506 107.268 124.866 107.555C125.23 107.836 125.709 107.977 126.303 107.977C126.85 107.977 127.287 107.867 127.616 107.648C127.949 107.424 128.116 107.128 128.116 106.758Z" fill="black" fill-opacity="0.87"/>
<path d="M21.9229 79.8906V84.6416C21.9229 85.3968 21.6803 85.9958 21.1953 86.4385C20.7135 86.8779 20.0706 87.0977 19.2666 87.0977C18.4528 87.0977 17.8066 86.8812 17.3281 86.4482C16.8496 86.012 16.6104 85.4082 16.6104 84.6367V79.8906H17.8408V84.6465C17.8408 85.1217 17.9613 85.4847 18.2021 85.7354C18.443 85.986 18.7979 86.1113 19.2666 86.1113C20.2171 86.1113 20.6924 85.61 20.6924 84.6074V79.8906H21.9229ZM28.4619 85.1689C28.4619 84.8564 28.3512 84.6156 28.1299 84.4463C27.9118 84.277 27.5163 84.1061 26.9434 83.9336C26.3704 83.7611 25.9147 83.569 25.5762 83.3574C24.9284 82.9505 24.6045 82.4199 24.6045 81.7656C24.6045 81.1927 24.8372 80.7207 25.3027 80.3496C25.7715 79.9785 26.3786 79.793 27.124 79.793C27.6188 79.793 28.0599 79.8841 28.4473 80.0664C28.8346 80.2487 29.139 80.5091 29.3604 80.8477C29.5817 81.1829 29.6924 81.5557 29.6924 81.9658H28.4619C28.4619 81.5947 28.3447 81.305 28.1104 81.0967C27.8792 80.8851 27.5472 80.7793 27.1143 80.7793C26.7106 80.7793 26.3965 80.8656 26.1719 81.0381C25.9505 81.2106 25.8398 81.4515 25.8398 81.7607C25.8398 82.0212 25.9603 82.2393 26.2012 82.415C26.4421 82.5876 26.8392 82.7568 27.3926 82.9229C27.946 83.0856 28.3903 83.2728 28.7256 83.4844C29.0609 83.6927 29.3066 83.9336 29.4629 84.207C29.6191 84.4772 29.6973 84.7946 29.6973 85.1592C29.6973 85.7516 29.4694 86.2236 29.0137 86.5752C28.5612 86.9235 27.946 87.0977 27.168 87.0977C26.6536 87.0977 26.18 87.0033 25.7471 86.8145C25.3174 86.6224 24.9821 86.3587 24.7412 86.0234C24.5036 85.6882 24.3848 85.2975 24.3848 84.8516H25.6201C25.6201 85.2552 25.7536 85.5677 26.0205 85.7891C26.2874 86.0104 26.6699 86.1211 27.168 86.1211C27.5977 86.1211 27.9199 86.0348 28.1348 85.8623C28.3529 85.6865 28.4619 85.4554 28.4619 85.1689ZM36.4365 83.8262H33.5166V86.0137H36.9297V87H32.2812V79.8906H36.8955V80.8867H33.5166V82.8496H36.4365V83.8262ZM42.0479 84.2607H40.6709V87H39.4355V79.8906H41.9355C42.7559 79.8906 43.389 80.0745 43.835 80.4424C44.2809 80.8102 44.5039 81.3424 44.5039 82.0391C44.5039 82.5143 44.3883 82.9131 44.1572 83.2354C43.9294 83.5544 43.6104 83.8001 43.2002 83.9727L44.7969 86.9365V87H43.4736L42.0479 84.2607ZM40.6709 83.2695H41.9404C42.3571 83.2695 42.6826 83.1654 42.917 82.957C43.1514 82.7454 43.2686 82.4574 43.2686 82.0928C43.2686 81.7119 43.1595 81.4173 42.9414 81.209C42.7266 81.0007 42.4043 80.8932 41.9746 80.8867H40.6709V83.2695ZM47.7764 85.75C47.9977 85.75 48.1686 85.8135 48.2891 85.9404C48.4095 86.0641 48.4697 86.2204 48.4697 86.4092C48.4697 86.5947 48.4095 86.7493 48.2891 86.873C48.1686 86.9935 47.9977 87.0537 47.7764 87.0537C47.5648 87.0537 47.3971 86.9935 47.2734 86.873C47.1497 86.7526 47.0879 86.598 47.0879 86.4092C47.0879 86.2204 47.1481 86.0641 47.2686 85.9404C47.389 85.8135 47.5583 85.75 47.7764 85.75ZM47.7764 81.6045C47.9977 81.6045 48.1686 81.668 48.2891 81.7949C48.4095 81.9186 48.4697 82.0749 48.4697 82.2637C48.4697 82.4492 48.4095 82.6038 48.2891 82.7275C48.1686 82.848 47.9977 82.9082 47.7764 82.9082C47.5648 82.9082 47.3971 82.848 47.2734 82.7275C47.1497 82.6071 47.0879 82.4525 47.0879 82.2637C47.0879 82.0749 47.1481 81.9186 47.2686 81.7949C47.389 81.668 47.5583 81.6045 47.7764 81.6045ZM57.3633 83.9287L56.5576 84.7832V87H55.3223V79.8906H56.5576V83.2256L57.2412 82.3809L59.3213 79.8906H60.8154L58.1738 83.04L60.9668 87H59.502L57.3633 83.9287ZM67.1104 85.3447H64.3564L63.7803 87H62.4961L65.1816 79.8906H66.29L68.9805 87H67.6914L67.1104 85.3447ZM64.7031 84.3486H66.7637L65.7334 81.3994L64.7031 84.3486ZM75.8418 80.8867H73.625V87H72.3994V80.8867H70.2021V79.8906H75.8418V80.8867ZM81.6729 85.3447H78.9189L78.3428 87H77.0586L79.7441 79.8906H80.8525L83.543 87H82.2539L81.6729 85.3447ZM79.2656 84.3486H81.3262L80.2959 81.3994L79.2656 84.3486ZM88.4658 84.2607H87.0889V87H85.8535V79.8906H88.3535C89.1738 79.8906 89.807 80.0745 90.2529 80.4424C90.6989 80.8102 90.9219 81.3424 90.9219 82.0391C90.9219 82.5143 90.8063 82.9131 90.5752 83.2354C90.3473 83.5544 90.0283 83.8001 89.6182 83.9727L91.2148 86.9365V87H89.8916L88.4658 84.2607ZM87.0889 83.2695H88.3584C88.7751 83.2695 89.1006 83.1654 89.335 82.957C89.5693 82.7454 89.6865 82.4574 89.6865 82.0928C89.6865 81.7119 89.5775 81.4173 89.3594 81.209C89.1445 81.0007 88.8223 80.8932 88.3926 80.8867H87.0889V83.2695ZM94.8975 87H93.667V79.8906H94.8975V87ZM103.556 87H102.32L99.1514 81.9561V87H97.916V79.8906H99.1514L102.33 84.9541V79.8906H103.556V87ZM110.583 85.3447H107.829L107.253 87H105.969L108.654 79.8906H109.763L112.453 87H111.164L110.583 85.3447ZM108.176 84.3486H110.236L109.206 81.3994L108.176 84.3486Z" fill="black" fill-opacity="0.6"/>
<rect x="17.4222" y="153" width="374.578" height="1" fill="#212121" fill-opacity="0.08"/>
<path fill-rule="evenodd" clip-rule="evenodd" d="M380 106C381.1 106 382 105.1 382 104C382 102.9 381.1 102 380 102C378.9 102 378 102.9 378 104C378 105.1 378.9 106 380 106ZM380 108C378.9 108 378 108.9 378 110C378 111.1 378.9 112 380 112C381.1 112 382 111.1 382 110C382 108.9 381.1 108 380 108ZM380 114C378.9 114 378 114.9 378 116C378 117.1 378.9 118 380 118C381.1 118 382 117.1 382 116C382 114.9 381.1 114 380 114Z" fill="black" fill-opacity="0.6"/>
</g>
<mask id="mask1_728:3906" style="mask-type:alpha" maskUnits="userSpaceOnUse" x="-1" y="164" width="392" height="88">
<rect x="-1" y="164" width="392" height="88" fill="white"/>
</mask>
<g mask="url(#mask1_728:3906)">
<path d="M16.1553 231V221.047H18.9648C19.8307 221.047 20.5964 221.238 21.2617 221.621C21.9271 222.004 22.4398 222.549 22.7998 223.255C23.1644 223.961 23.349 224.772 23.3535 225.688V226.324C23.3535 227.263 23.1712 228.086 22.8066 228.792C22.4466 229.498 21.9294 230.041 21.2549 230.419C20.585 230.797 19.8034 230.991 18.9102 231H16.1553ZM17.4678 222.127V229.927H18.8486C19.8604 229.927 20.6465 229.612 21.207 228.983C21.7721 228.354 22.0547 227.459 22.0547 226.297V225.716C22.0547 224.586 21.7881 223.708 21.2549 223.084C20.7262 222.455 19.9743 222.136 18.999 222.127H17.4678ZM26.7686 231H25.5039V223.604H26.7686V231ZM25.4014 221.642C25.4014 221.437 25.4629 221.263 25.5859 221.122C25.7135 220.981 25.9004 220.91 26.1465 220.91C26.3926 220.91 26.5794 220.981 26.707 221.122C26.8346 221.263 26.8984 221.437 26.8984 221.642C26.8984 221.847 26.8346 222.018 26.707 222.154C26.5794 222.291 26.3926 222.359 26.1465 222.359C25.9004 222.359 25.7135 222.291 25.5859 222.154C25.4629 222.018 25.4014 221.847 25.4014 221.642ZM33.3555 229.038C33.3555 228.696 33.2256 228.432 32.9658 228.245C32.7106 228.054 32.2617 227.89 31.6191 227.753C30.9811 227.616 30.473 227.452 30.0947 227.261C29.721 227.069 29.443 226.841 29.2607 226.577C29.083 226.313 28.9941 225.998 28.9941 225.634C28.9941 225.028 29.2493 224.515 29.7598 224.096C30.2747 223.676 30.931 223.467 31.7285 223.467C32.5671 223.467 33.2461 223.683 33.7656 224.116C34.2897 224.549 34.5518 225.103 34.5518 225.777H33.2803C33.2803 225.431 33.1322 225.132 32.8359 224.882C32.5443 224.631 32.1751 224.506 31.7285 224.506C31.2682 224.506 30.9082 224.606 30.6484 224.807C30.3887 225.007 30.2588 225.269 30.2588 225.593C30.2588 225.898 30.3796 226.128 30.6211 226.283C30.8626 226.438 31.2979 226.586 31.9268 226.728C32.5602 226.869 33.0729 227.037 33.4648 227.233C33.8568 227.429 34.1462 227.666 34.333 227.944C34.5244 228.218 34.6201 228.553 34.6201 228.949C34.6201 229.61 34.3558 230.141 33.8271 230.542C33.2985 230.938 32.6126 231.137 31.7695 231.137C31.1771 231.137 30.653 231.032 30.1973 230.822C29.7415 230.613 29.3838 230.321 29.124 229.947C28.8688 229.569 28.7412 229.161 28.7412 228.724H30.0059C30.0286 229.147 30.1973 229.485 30.5117 229.735C30.8307 229.981 31.25 230.104 31.7695 230.104C32.248 230.104 32.6309 230.009 32.918 229.817C33.2096 229.621 33.3555 229.362 33.3555 229.038ZM39.4844 230.104C39.9355 230.104 40.3298 229.968 40.667 229.694C41.0042 229.421 41.1911 229.079 41.2275 228.669H42.4238C42.401 229.093 42.2552 229.496 41.9863 229.879C41.7174 230.262 41.3574 230.567 40.9062 230.795C40.4596 231.023 39.9857 231.137 39.4844 231.137C38.4772 231.137 37.6751 230.802 37.0781 230.132C36.4857 229.457 36.1895 228.537 36.1895 227.37V227.158C36.1895 226.438 36.3216 225.798 36.5859 225.237C36.8503 224.677 37.2285 224.242 37.7207 223.932C38.2174 223.622 38.8031 223.467 39.4775 223.467C40.307 223.467 40.9951 223.715 41.542 224.212C42.0934 224.709 42.3874 225.354 42.4238 226.146H41.2275C41.1911 225.668 41.0088 225.276 40.6807 224.971C40.3571 224.661 39.9561 224.506 39.4775 224.506C38.835 224.506 38.3359 224.738 37.9805 225.203C37.6296 225.663 37.4541 226.331 37.4541 227.206V227.445C37.4541 228.298 37.6296 228.954 37.9805 229.414C38.3314 229.874 38.8327 230.104 39.4844 230.104ZM43.7607 227.233C43.7607 226.509 43.902 225.857 44.1846 225.278C44.4717 224.7 44.8682 224.253 45.374 223.938C45.8844 223.624 46.4655 223.467 47.1172 223.467C48.1243 223.467 48.9378 223.815 49.5576 224.513C50.182 225.21 50.4941 226.137 50.4941 227.295V227.384C50.4941 228.104 50.3551 228.751 50.0771 229.325C49.8037 229.895 49.4095 230.339 48.8945 230.658C48.3841 230.977 47.7962 231.137 47.1309 231.137C46.1283 231.137 45.3148 230.788 44.6904 230.091C44.0706 229.394 43.7607 228.471 43.7607 227.322V227.233ZM45.0322 227.384C45.0322 228.204 45.2214 228.863 45.5996 229.359C45.9824 229.856 46.4928 230.104 47.1309 230.104C47.7734 230.104 48.2839 229.854 48.6621 229.353C49.0404 228.847 49.2295 228.14 49.2295 227.233C49.2295 226.422 49.0358 225.766 48.6484 225.265C48.2656 224.759 47.7552 224.506 47.1172 224.506C46.4928 224.506 45.9893 224.754 45.6064 225.251C45.2236 225.748 45.0322 226.459 45.0322 227.384ZM54.6611 229.284L56.4932 223.604H57.7852L55.1328 231H54.1689L51.4893 223.604H52.7812L54.6611 229.284ZM62.2256 231.137C61.223 231.137 60.4072 230.809 59.7783 230.152C59.1494 229.492 58.835 228.61 58.835 227.507V227.274C58.835 226.541 58.974 225.887 59.252 225.312C59.5345 224.734 59.9264 224.283 60.4277 223.959C60.9336 223.631 61.4805 223.467 62.0684 223.467C63.0299 223.467 63.7773 223.784 64.3105 224.417C64.8438 225.05 65.1104 225.957 65.1104 227.138V227.664H60.0996C60.1178 228.393 60.3298 228.983 60.7354 229.435C61.1455 229.881 61.665 230.104 62.2939 230.104C62.7406 230.104 63.1188 230.013 63.4287 229.831C63.7386 229.649 64.0098 229.407 64.2422 229.106L65.0146 229.708C64.3949 230.66 63.4652 231.137 62.2256 231.137ZM62.0684 224.506C61.5579 224.506 61.1296 224.693 60.7832 225.066C60.4368 225.436 60.2227 225.955 60.1406 226.625H63.8457V226.529C63.8092 225.887 63.6361 225.39 63.3262 225.039C63.0163 224.684 62.597 224.506 62.0684 224.506ZM70.4053 224.738C70.2139 224.706 70.0065 224.69 69.7832 224.69C68.9538 224.69 68.391 225.044 68.0947 225.75V231H66.8301V223.604H68.0605L68.0811 224.458C68.4958 223.797 69.0837 223.467 69.8447 223.467C70.0908 223.467 70.2777 223.499 70.4053 223.562V224.738ZM73.1982 231H71.9336V223.604H73.1982V231ZM71.8311 221.642C71.8311 221.437 71.8926 221.263 72.0156 221.122C72.1432 220.981 72.3301 220.91 72.5762 220.91C72.8223 220.91 73.0091 220.981 73.1367 221.122C73.2643 221.263 73.3281 221.437 73.3281 221.642C73.3281 221.847 73.2643 222.018 73.1367 222.154C73.0091 222.291 72.8223 222.359 72.5762 222.359C72.3301 222.359 72.1432 222.291 72.0156 222.154C71.8926 222.018 71.8311 221.847 71.8311 221.642ZM76.6748 223.604L76.7158 224.533C77.2809 223.822 78.0192 223.467 78.9307 223.467C80.4938 223.467 81.2822 224.349 81.2959 226.112V231H80.0312V226.105C80.0267 225.572 79.9036 225.178 79.6621 224.923C79.4251 224.668 79.0537 224.54 78.5479 224.54C78.1377 224.54 77.7777 224.649 77.4678 224.868C77.1579 225.087 76.9163 225.374 76.7432 225.729V231H75.4785V223.604H76.6748ZM83.1523 227.24C83.1523 226.087 83.4189 225.171 83.9521 224.492C84.4854 223.809 85.1917 223.467 86.0713 223.467C86.9736 223.467 87.6777 223.786 88.1836 224.424L88.2451 223.604H89.4004V230.822C89.4004 231.779 89.1156 232.534 88.5459 233.085C87.9808 233.636 87.2197 233.912 86.2627 233.912C85.7295 233.912 85.2077 233.798 84.6973 233.57C84.1868 233.342 83.7972 233.03 83.5283 232.634L84.1846 231.875C84.7269 232.545 85.39 232.88 86.1738 232.88C86.7891 232.88 87.2676 232.707 87.6094 232.36C87.9557 232.014 88.1289 231.526 88.1289 230.897V230.262C87.623 230.845 86.9326 231.137 86.0576 231.137C85.1917 231.137 84.4899 230.788 83.9521 230.091C83.4189 229.394 83.1523 228.443 83.1523 227.24ZM84.4238 227.384C84.4238 228.218 84.5947 228.874 84.9365 229.353C85.2783 229.826 85.7568 230.063 86.3721 230.063C87.1696 230.063 87.7552 229.701 88.1289 228.977V225.6C87.7415 224.893 87.1605 224.54 86.3857 224.54C85.7705 224.54 85.2897 224.779 84.9434 225.258C84.597 225.736 84.4238 226.445 84.4238 227.384ZM96.4834 223.604L96.5244 224.533C97.0895 223.822 97.8278 223.467 98.7393 223.467C100.302 223.467 101.091 224.349 101.104 226.112V231H99.8398V226.105C99.8353 225.572 99.7122 225.178 99.4707 224.923C99.2337 224.668 98.8623 224.54 98.3564 224.54C97.9463 224.54 97.5863 224.649 97.2764 224.868C96.9665 225.087 96.7249 225.374 96.5518 225.729V231H95.2871V223.604H96.4834ZM106.331 231.137C105.328 231.137 104.513 230.809 103.884 230.152C103.255 229.492 102.94 228.61 102.94 227.507V227.274C102.94 226.541 103.079 225.887 103.357 225.312C103.64 224.734 104.032 224.283 104.533 223.959C105.039 223.631 105.586 223.467 106.174 223.467C107.135 223.467 107.883 223.784 108.416 224.417C108.949 225.05 109.216 225.957 109.216 227.138V227.664H104.205C104.223 228.393 104.435 228.983 104.841 229.435C105.251 229.881 105.771 230.104 106.399 230.104C106.846 230.104 107.224 230.013 107.534 229.831C107.844 229.649 108.115 229.407 108.348 229.106L109.12 229.708C108.5 230.66 107.571 231.137 106.331 231.137ZM106.174 224.506C105.663 224.506 105.235 224.693 104.889 225.066C104.542 225.436 104.328 225.955 104.246 226.625H107.951V226.529C107.915 225.887 107.742 225.39 107.432 225.039C107.122 224.684 106.702 224.506 106.174 224.506ZM117.484 229.257L118.906 223.604H120.171L118.018 231H116.992L115.194 225.395L113.444 231H112.419L110.272 223.604H111.53L112.986 229.141L114.709 223.604H115.728L117.484 229.257ZM131.984 229.257L133.406 223.604H134.671L132.518 231H131.492L129.694 225.395L127.944 231H126.919L124.772 223.604H126.03L127.486 229.141L129.209 223.604H130.228L131.984 229.257ZM135.878 227.233C135.878 226.509 136.019 225.857 136.302 225.278C136.589 224.7 136.985 224.253 137.491 223.938C138.002 223.624 138.583 223.467 139.234 223.467C140.242 223.467 141.055 223.815 141.675 224.513C142.299 225.21 142.611 226.137 142.611 227.295V227.384C142.611 228.104 142.472 228.751 142.194 229.325C141.921 229.895 141.527 230.339 141.012 230.658C140.501 230.977 139.913 231.137 139.248 231.137C138.245 231.137 137.432 230.788 136.808 230.091C136.188 229.394 135.878 228.471 135.878 227.322V227.233ZM137.149 227.384C137.149 228.204 137.339 228.863 137.717 229.359C138.1 229.856 138.61 230.104 139.248 230.104C139.891 230.104 140.401 229.854 140.779 229.353C141.158 228.847 141.347 228.14 141.347 227.233C141.347 226.422 141.153 225.766 140.766 225.265C140.383 224.759 139.872 224.506 139.234 224.506C138.61 224.506 138.106 224.754 137.724 225.251C137.341 225.748 137.149 226.459 137.149 227.384ZM148.022 224.738C147.831 224.706 147.624 224.69 147.4 224.69C146.571 224.69 146.008 225.044 145.712 225.75V231H144.447V223.604H145.678L145.698 224.458C146.113 223.797 146.701 223.467 147.462 223.467C147.708 223.467 147.895 223.499 148.022 223.562V224.738ZM151.506 227.575L150.713 228.402V231H149.448V220.5H150.713V226.851L151.39 226.037L153.693 223.604H155.231L152.354 226.693L155.566 231H154.083L151.506 227.575ZM161.094 229.038C161.094 228.696 160.964 228.432 160.704 228.245C160.449 228.054 160 227.89 159.357 227.753C158.719 227.616 158.211 227.452 157.833 227.261C157.459 227.069 157.181 226.841 156.999 226.577C156.821 226.313 156.732 225.998 156.732 225.634C156.732 225.028 156.988 224.515 157.498 224.096C158.013 223.676 158.669 223.467 159.467 223.467C160.305 223.467 160.984 223.683 161.504 224.116C162.028 224.549 162.29 225.103 162.29 225.777H161.019C161.019 225.431 160.87 225.132 160.574 224.882C160.283 224.631 159.913 224.506 159.467 224.506C159.007 224.506 158.646 224.606 158.387 224.807C158.127 225.007 157.997 225.269 157.997 225.593C157.997 225.898 158.118 226.128 158.359 226.283C158.601 226.438 159.036 226.586 159.665 226.728C160.299 226.869 160.811 227.037 161.203 227.233C161.595 227.429 161.884 227.666 162.071 227.944C162.263 228.218 162.358 228.553 162.358 228.949C162.358 229.61 162.094 230.141 161.565 230.542C161.037 230.938 160.351 231.137 159.508 231.137C158.915 231.137 158.391 231.032 157.936 230.822C157.48 230.613 157.122 230.321 156.862 229.947C156.607 229.569 156.479 229.161 156.479 228.724H157.744C157.767 229.147 157.936 229.485 158.25 229.735C158.569 229.981 158.988 230.104 159.508 230.104C159.986 230.104 160.369 230.009 160.656 229.817C160.948 229.621 161.094 229.362 161.094 229.038Z" fill="black" fill-opacity="0.6"/>
<path d="M20.4922 202.398H17.8203V207H16.3125V195.625H20.0781C21.3594 195.625 22.3438 195.917 23.0312 196.5C23.724 197.083 24.0703 197.932 24.0703 199.047C24.0703 199.755 23.8776 200.372 23.4922 200.898C23.112 201.424 22.5807 201.818 21.8984 202.078L24.5703 206.906V207H22.9609L20.4922 202.398ZM17.8203 201.172H20.125C20.8698 201.172 21.4609 200.979 21.8984 200.594C22.3411 200.208 22.5625 199.693 22.5625 199.047C22.5625 198.344 22.3516 197.805 21.9297 197.43C21.513 197.055 20.9089 196.865 20.1172 196.859H17.8203V201.172ZM29.6109 207.156C28.4651 207.156 27.5328 206.781 26.8141 206.031C26.0953 205.276 25.7359 204.268 25.7359 203.008V202.742C25.7359 201.904 25.8948 201.156 26.2125 200.5C26.5354 199.839 26.9833 199.323 27.5562 198.953C28.1344 198.578 28.7594 198.391 29.4312 198.391C30.5302 198.391 31.3844 198.753 31.9937 199.477C32.6031 200.201 32.9078 201.237 32.9078 202.586V203.188H27.1812C27.2021 204.021 27.4443 204.695 27.9078 205.211C28.3766 205.721 28.9703 205.977 29.6891 205.977C30.1995 205.977 30.6318 205.872 30.9859 205.664C31.3401 205.456 31.65 205.18 31.9156 204.836L32.7984 205.523C32.0901 206.612 31.0276 207.156 29.6109 207.156ZM29.4312 199.578C28.8479 199.578 28.3583 199.792 27.9625 200.219C27.5667 200.641 27.3219 201.234 27.2281 202H31.4625V201.891C31.4208 201.156 31.2229 200.589 30.8687 200.188C30.5146 199.781 30.0354 199.578 29.4312 199.578ZM39.9562 207C39.8729 206.833 39.8052 206.536 39.7531 206.109C39.0812 206.807 38.2792 207.156 37.3469 207.156C36.5135 207.156 35.8286 206.922 35.2922 206.453C34.7609 205.979 34.4953 205.38 34.4953 204.656C34.4953 203.776 34.8286 203.094 35.4953 202.609C36.1672 202.12 37.1099 201.875 38.3234 201.875H39.7297V201.211C39.7297 200.706 39.5786 200.305 39.2766 200.008C38.9745 199.706 38.5292 199.555 37.9406 199.555C37.425 199.555 36.9927 199.685 36.6437 199.945C36.2948 200.206 36.1203 200.521 36.1203 200.891H34.6672C34.6672 200.469 34.8156 200.062 35.1125 199.672C35.4146 199.276 35.8208 198.964 36.3312 198.734C36.8469 198.505 37.412 198.391 38.0266 198.391C39.0005 198.391 39.7635 198.635 40.3156 199.125C40.8677 199.609 41.1542 200.279 41.175 201.133V205.023C41.175 205.799 41.274 206.417 41.4719 206.875V207H39.9562ZM37.5578 205.898C38.0109 205.898 38.4406 205.781 38.8469 205.547C39.2531 205.312 39.5474 205.008 39.7297 204.633V202.898H38.5969C36.826 202.898 35.9406 203.417 35.9406 204.453C35.9406 204.906 36.0917 205.26 36.3937 205.516C36.6958 205.771 37.0839 205.898 37.5578 205.898ZM43.2391 202.703C43.2391 201.406 43.5464 200.365 44.1609 199.578C44.7755 198.786 45.5802 198.391 46.575 198.391C47.5646 198.391 48.3484 198.729 48.9266 199.406V195H50.3719V207H49.0438L48.9734 206.094C48.3953 206.802 47.5906 207.156 46.5594 207.156C45.5802 207.156 44.7807 206.755 44.1609 205.953C43.5464 205.151 43.2391 204.104 43.2391 202.812V202.703ZM44.6844 202.867C44.6844 203.826 44.8823 204.576 45.2781 205.117C45.674 205.659 46.2208 205.93 46.9188 205.93C47.8354 205.93 48.5047 205.518 48.9266 204.695V200.812C48.4943 200.016 47.8302 199.617 46.9344 199.617C46.226 199.617 45.674 199.891 45.2781 200.438C44.8823 200.984 44.6844 201.794 44.6844 202.867ZM58.2578 198.547L58.3047 199.609C58.9505 198.797 59.7943 198.391 60.8359 198.391C62.6224 198.391 63.5234 199.398 63.5391 201.414V207H62.0938V201.406C62.0885 200.797 61.9479 200.346 61.6719 200.055C61.401 199.763 60.9766 199.617 60.3984 199.617C59.9297 199.617 59.5182 199.742 59.1641 199.992C58.8099 200.242 58.5339 200.57 58.3359 200.977V207H56.8906V198.547H58.2578ZM65.4859 202.695C65.4859 201.867 65.6474 201.122 65.9703 200.461C66.2984 199.799 66.7516 199.289 67.3297 198.93C67.913 198.57 68.5771 198.391 69.3219 198.391C70.4729 198.391 71.4026 198.789 72.1109 199.586C72.8245 200.383 73.1813 201.443 73.1813 202.766V202.867C73.1813 203.69 73.0224 204.43 72.7047 205.086C72.3922 205.737 71.9417 206.245 71.3531 206.609C70.7698 206.974 70.0979 207.156 69.3375 207.156C68.1917 207.156 67.262 206.758 66.5484 205.961C65.8401 205.164 65.4859 204.109 65.4859 202.797V202.695ZM66.9391 202.867C66.9391 203.805 67.1552 204.557 67.5875 205.125C68.025 205.693 68.6083 205.977 69.3375 205.977C70.0719 205.977 70.6552 205.69 71.0875 205.117C71.5198 204.539 71.7359 203.732 71.7359 202.695C71.7359 201.768 71.5146 201.018 71.0719 200.445C70.6344 199.867 70.051 199.578 69.3219 199.578C68.6083 199.578 68.0328 199.862 67.5953 200.43C67.1578 200.997 66.9391 201.81 66.9391 202.867ZM77.8078 205.039L79.9016 198.547H81.3781L78.3469 207H77.2453L74.1828 198.547H75.6594L77.8078 205.039ZM86.3172 207.156C85.1714 207.156 84.2391 206.781 83.5203 206.031C82.8016 205.276 82.4422 204.268 82.4422 203.008V202.742C82.4422 201.904 82.601 201.156 82.9187 200.5C83.2417 199.839 83.6896 199.323 84.2625 198.953C84.8406 198.578 85.4656 198.391 86.1375 198.391C87.2365 198.391 88.0906 198.753 88.7 199.477C89.3094 200.201 89.6141 201.237 89.6141 202.586V203.188H83.8875C83.9083 204.021 84.1505 204.695 84.6141 205.211C85.0828 205.721 85.6766 205.977 86.3953 205.977C86.9057 205.977 87.338 205.872 87.6922 205.664C88.0464 205.456 88.3562 205.18 88.6219 204.836L89.5047 205.523C88.7964 206.612 87.7339 207.156 86.3172 207.156ZM86.1375 199.578C85.5542 199.578 85.0646 199.792 84.6687 200.219C84.2729 200.641 84.0281 201.234 83.9344 202H88.1687V201.891C88.1271 201.156 87.9292 200.589 87.575 200.188C87.2208 199.781 86.7417 199.578 86.1375 199.578ZM93.0141 207H91.5687V195H93.0141V207ZM100.406 204.758C100.406 204.367 100.258 204.065 99.9609 203.852C99.6693 203.633 99.1562 203.445 98.4219 203.289C97.6927 203.133 97.112 202.945 96.6797 202.727C96.2526 202.508 95.9349 202.247 95.7266 201.945C95.5234 201.643 95.4219 201.284 95.4219 200.867C95.4219 200.174 95.7135 199.589 96.2969 199.109C96.8854 198.63 97.6354 198.391 98.5469 198.391C99.5052 198.391 100.281 198.638 100.875 199.133C101.474 199.628 101.773 200.26 101.773 201.031H100.32C100.32 200.635 100.151 200.294 99.8125 200.008C99.4792 199.721 99.0573 199.578 98.5469 199.578C98.0208 199.578 97.6094 199.693 97.3125 199.922C97.0156 200.151 96.8672 200.451 96.8672 200.82C96.8672 201.169 97.0052 201.432 97.2812 201.609C97.5573 201.786 98.0547 201.956 98.7734 202.117C99.4974 202.279 100.083 202.471 100.531 202.695C100.979 202.919 101.31 203.19 101.523 203.508C101.742 203.82 101.852 204.203 101.852 204.656C101.852 205.411 101.549 206.018 100.945 206.477C100.341 206.93 99.5573 207.156 98.5938 207.156C97.9167 207.156 97.3177 207.036 96.7969 206.797C96.276 206.557 95.8672 206.224 95.5703 205.797C95.2786 205.365 95.1328 204.898 95.1328 204.398H96.5781C96.6042 204.883 96.7969 205.268 97.1562 205.555C97.5208 205.836 98 205.977 98.5938 205.977C99.1406 205.977 99.5781 205.867 99.9062 205.648C100.24 205.424 100.406 205.128 100.406 204.758Z" fill="black" fill-opacity="0.87"/>
<path d="M20.9229 177.891V182.642C20.9229 183.397 20.6803 183.996 20.1953 184.438C19.7135 184.878 19.0706 185.098 18.2666 185.098C17.4528 185.098 16.8066 184.881 16.3281 184.448C15.8496 184.012 15.6104 183.408 15.6104 182.637V177.891H16.8408V182.646C16.8408 183.122 16.9613 183.485 17.2021 183.735C17.443 183.986 17.7979 184.111 18.2666 184.111C19.2171 184.111 19.6924 183.61 19.6924 182.607V177.891H20.9229ZM27.4619 183.169C27.4619 182.856 27.3512 182.616 27.1299 182.446C26.9118 182.277 26.5163 182.106 25.9434 181.934C25.3704 181.761 24.9147 181.569 24.5762 181.357C23.9284 180.951 23.6045 180.42 23.6045 179.766C23.6045 179.193 23.8372 178.721 24.3027 178.35C24.7715 177.979 25.3786 177.793 26.124 177.793C26.6188 177.793 27.0599 177.884 27.4473 178.066C27.8346 178.249 28.139 178.509 28.3604 178.848C28.5817 179.183 28.6924 179.556 28.6924 179.966H27.4619C27.4619 179.595 27.3447 179.305 27.1104 179.097C26.8792 178.885 26.5472 178.779 26.1143 178.779C25.7106 178.779 25.3965 178.866 25.1719 179.038C24.9505 179.211 24.8398 179.451 24.8398 179.761C24.8398 180.021 24.9603 180.239 25.2012 180.415C25.4421 180.588 25.8392 180.757 26.3926 180.923C26.946 181.086 27.3903 181.273 27.7256 181.484C28.0609 181.693 28.3066 181.934 28.4629 182.207C28.6191 182.477 28.6973 182.795 28.6973 183.159C28.6973 183.752 28.4694 184.224 28.0137 184.575C27.5612 184.924 26.946 185.098 26.168 185.098C25.6536 185.098 25.18 185.003 24.7471 184.814C24.3174 184.622 23.9821 184.359 23.7412 184.023C23.5036 183.688 23.3848 183.298 23.3848 182.852H24.6201C24.6201 183.255 24.7536 183.568 25.0205 183.789C25.2874 184.01 25.6699 184.121 26.168 184.121C26.5977 184.121 26.9199 184.035 27.1348 183.862C27.3529 183.687 27.4619 183.455 27.4619 183.169ZM35.4365 181.826H32.5166V184.014H35.9297V185H31.2812V177.891H35.8955V178.887H32.5166V180.85H35.4365V181.826ZM41.0479 182.261H39.6709V185H38.4355V177.891H40.9355C41.7559 177.891 42.389 178.075 42.835 178.442C43.2809 178.81 43.5039 179.342 43.5039 180.039C43.5039 180.514 43.3883 180.913 43.1572 181.235C42.9294 181.554 42.6104 181.8 42.2002 181.973L43.7969 184.937V185H42.4736L41.0479 182.261ZM39.6709 181.27H40.9404C41.3571 181.27 41.6826 181.165 41.917 180.957C42.1514 180.745 42.2686 180.457 42.2686 180.093C42.2686 179.712 42.1595 179.417 41.9414 179.209C41.7266 179.001 41.4043 178.893 40.9746 178.887H39.6709V181.27ZM46.7764 183.75C46.9977 183.75 47.1686 183.813 47.2891 183.94C47.4095 184.064 47.4697 184.22 47.4697 184.409C47.4697 184.595 47.4095 184.749 47.2891 184.873C47.1686 184.993 46.9977 185.054 46.7764 185.054C46.5648 185.054 46.3971 184.993 46.2734 184.873C46.1497 184.753 46.0879 184.598 46.0879 184.409C46.0879 184.22 46.1481 184.064 46.2686 183.94C46.389 183.813 46.5583 183.75 46.7764 183.75ZM46.7764 179.604C46.9977 179.604 47.1686 179.668 47.2891 179.795C47.4095 179.919 47.4697 180.075 47.4697 180.264C47.4697 180.449 47.4095 180.604 47.2891 180.728C47.1686 180.848 46.9977 180.908 46.7764 180.908C46.5648 180.908 46.3971 180.848 46.2734 180.728C46.1497 180.607 46.0879 180.452 46.0879 180.264C46.0879 180.075 46.1481 179.919 46.2686 179.795C46.389 179.668 46.5583 179.604 46.7764 179.604ZM58.0381 183.169C58.0381 182.856 57.9274 182.616 57.7061 182.446C57.488 182.277 57.0924 182.106 56.5195 181.934C55.9466 181.761 55.4909 181.569 55.1523 181.357C54.5046 180.951 54.1807 180.42 54.1807 179.766C54.1807 179.193 54.4134 178.721 54.8789 178.35C55.3477 177.979 55.9548 177.793 56.7002 177.793C57.195 177.793 57.6361 177.884 58.0234 178.066C58.4108 178.249 58.7152 178.509 58.9365 178.848C59.1579 179.183 59.2686 179.556 59.2686 179.966H58.0381C58.0381 179.595 57.9209 179.305 57.6865 179.097C57.4554 178.885 57.1234 178.779 56.6904 178.779C56.2868 178.779 55.9727 178.866 55.748 179.038C55.5267 179.211 55.416 179.451 55.416 179.761C55.416 180.021 55.5365 180.239 55.7773 180.415C56.0182 180.588 56.4154 180.757 56.9688 180.923C57.5221 181.086 57.9665 181.273 58.3018 181.484C58.637 181.693 58.8828 181.934 59.0391 182.207C59.1953 182.477 59.2734 182.795 59.2734 183.159C59.2734 183.752 59.0456 184.224 58.5898 184.575C58.1374 184.924 57.5221 185.098 56.7441 185.098C56.2298 185.098 55.7562 185.003 55.3232 184.814C54.8936 184.622 54.5583 184.359 54.3174 184.023C54.0798 183.688 53.9609 183.298 53.9609 182.852H55.1963C55.1963 183.255 55.3298 183.568 55.5967 183.789C55.8636 184.01 56.2461 184.121 56.7441 184.121C57.1738 184.121 57.4961 184.035 57.7109 183.862C57.929 183.687 58.0381 183.455 58.0381 183.169ZM67.5312 181.631C67.5312 182.327 67.4108 182.939 67.1699 183.467C66.929 183.991 66.584 184.395 66.1348 184.678C65.6888 184.958 65.1745 185.098 64.5918 185.098C64.0156 185.098 63.5013 184.958 63.0488 184.678C62.5996 184.395 62.2513 183.993 62.0039 183.472C61.7598 182.951 61.6361 182.35 61.6328 181.67V181.27C61.6328 180.576 61.7549 179.964 61.999 179.434C62.2464 178.903 62.5931 178.498 63.0391 178.218C63.4883 177.935 64.0026 177.793 64.582 177.793C65.1615 177.793 65.6742 177.933 66.1201 178.213C66.5693 178.49 66.916 178.89 67.1602 179.414C67.4043 179.935 67.528 180.542 67.5312 181.235V181.631ZM66.2959 181.26C66.2959 180.472 66.1462 179.868 65.8467 179.448C65.5505 179.028 65.1289 178.818 64.582 178.818C64.0482 178.818 63.6299 179.028 63.3271 179.448C63.0277 179.865 62.8747 180.456 62.8682 181.221V181.631C62.8682 182.412 63.0195 183.016 63.3223 183.442C63.6283 183.869 64.0514 184.082 64.5918 184.082C65.1387 184.082 65.5586 183.874 65.8516 183.457C66.1478 183.04 66.2959 182.432 66.2959 181.631V181.26ZM71.4971 182.358V185H70.2617V177.891H72.9814C73.7757 177.891 74.4056 178.097 74.8711 178.511C75.3398 178.924 75.5742 179.471 75.5742 180.151C75.5742 180.848 75.3447 181.39 74.8857 181.777C74.43 182.165 73.7904 182.358 72.9668 182.358H71.4971ZM71.4971 181.367H72.9814C73.4209 181.367 73.7562 181.265 73.9873 181.06C74.2184 180.851 74.334 180.552 74.334 180.161C74.334 179.777 74.2168 179.471 73.9824 179.243C73.748 179.012 73.4258 178.893 73.0156 178.887H71.4971V181.367ZM83.8027 185H82.5723V181.841H79.3936V185H78.1582V177.891H79.3936V180.85H82.5723V177.891H83.8027V185ZM88.0713 185H86.8408V177.891H88.0713V185ZM95.1572 183.345H92.4033L91.8271 185H90.543L93.2285 177.891H94.3369L97.0273 185H95.7383L95.1572 183.345ZM92.75 182.349H94.8105L93.7803 179.399L92.75 182.349Z" fill="black" fill-opacity="0.6"/>
<rect x="16.4222" y="251" width="374.578" height="1" fill="#212121" fill-opacity="0.08"/>
<path fill-rule="evenodd" clip-rule="evenodd" d="M379 204C380.1 204 381 203.1 381 202C381 200.9 380.1 200 379 200C377.9 200 377 200.9 377 202C377 203.1 377.9 204 379 204ZM379 206C377.9 206 377 206.9 377 208C377 209.1 377.9 210 379 210C380.1 210 381 209.1 381 208C381 206.9 380.1 206 379 206ZM379 212C377.9 212 377 212.9 377 214C377 215.1 377.9 216 379 216C380.1 216 381 215.1 381 214C381 212.9 380.1 212 379 212Z" fill="black" fill-opacity="0.6"/>
</g>
<g filter="url(#filter2_ddd_728:3906)">
<path d="M255 219C255 216.791 256.791 215 259 215H379C381.209 215 383 216.791 383 219V275C383 277.209 381.209 279 379 279H259C256.791 279 255 277.209 255 275V219Z" fill="white"/>
<path d="M265.45 234.257L268.294 226.047H269.729L266.038 236H264.876L261.191 226.047H262.62L265.45 234.257ZM272.495 236H271.23V228.604H272.495V236ZM271.128 226.642C271.128 226.437 271.189 226.263 271.312 226.122C271.44 225.981 271.627 225.91 271.873 225.91C272.119 225.91 272.306 225.981 272.434 226.122C272.561 226.263 272.625 226.437 272.625 226.642C272.625 226.847 272.561 227.018 272.434 227.154C272.306 227.291 272.119 227.359 271.873 227.359C271.627 227.359 271.44 227.291 271.312 227.154C271.189 227.018 271.128 226.847 271.128 226.642ZM277.845 236.137C276.842 236.137 276.026 235.809 275.397 235.152C274.769 234.492 274.454 233.61 274.454 232.507V232.274C274.454 231.541 274.593 230.887 274.871 230.312C275.154 229.734 275.546 229.283 276.047 228.959C276.553 228.631 277.1 228.467 277.688 228.467C278.649 228.467 279.396 228.784 279.93 229.417C280.463 230.05 280.729 230.957 280.729 232.138V232.664H275.719C275.737 233.393 275.949 233.983 276.354 234.435C276.765 234.881 277.284 235.104 277.913 235.104C278.36 235.104 278.738 235.013 279.048 234.831C279.358 234.649 279.629 234.407 279.861 234.106L280.634 234.708C280.014 235.66 279.084 236.137 277.845 236.137ZM277.688 229.506C277.177 229.506 276.749 229.693 276.402 230.066C276.056 230.436 275.842 230.955 275.76 231.625H279.465V231.529C279.428 230.887 279.255 230.39 278.945 230.039C278.635 229.684 278.216 229.506 277.688 229.506ZM288.998 234.257L290.42 228.604H291.685L289.531 236H288.506L286.708 230.395L284.958 236H283.933L281.786 228.604H283.044L284.5 234.141L286.223 228.604H287.241L288.998 234.257Z" fill="black"/>
<path d="M269.162 258.047V264.814C269.158 265.753 268.861 266.521 268.273 267.118C267.69 267.715 266.897 268.05 265.895 268.123L265.546 268.137C264.457 268.137 263.589 267.843 262.941 267.255C262.294 266.667 261.966 265.858 261.957 264.828V258.047H263.256V264.787C263.256 265.507 263.454 266.068 263.851 266.469C264.247 266.865 264.812 267.063 265.546 267.063C266.289 267.063 266.856 266.865 267.248 266.469C267.645 266.072 267.843 265.514 267.843 264.794V258.047H269.162ZM272.481 260.604L272.522 261.533C273.088 260.822 273.826 260.467 274.737 260.467C276.3 260.467 277.089 261.349 277.103 263.112V268H275.838V263.105C275.833 262.572 275.71 262.178 275.469 261.923C275.232 261.668 274.86 261.54 274.354 261.54C273.944 261.54 273.584 261.649 273.274 261.868C272.965 262.087 272.723 262.374 272.55 262.729V268H271.285V260.604H272.481ZM279.882 268V261.581H278.713V260.604H279.882V259.845C279.882 259.052 280.094 258.439 280.518 258.006C280.941 257.573 281.541 257.356 282.315 257.356C282.607 257.356 282.896 257.395 283.184 257.473L283.115 258.498C282.901 258.457 282.673 258.437 282.432 258.437C282.021 258.437 281.705 258.557 281.481 258.799C281.258 259.036 281.146 259.378 281.146 259.824V260.604H282.726V261.581H281.146V268H279.882ZM284.042 264.233C284.042 263.509 284.183 262.857 284.466 262.278C284.753 261.7 285.149 261.253 285.655 260.938C286.166 260.624 286.747 260.467 287.398 260.467C288.406 260.467 289.219 260.815 289.839 261.513C290.463 262.21 290.775 263.137 290.775 264.295V264.384C290.775 265.104 290.636 265.751 290.358 266.325C290.085 266.895 289.691 267.339 289.176 267.658C288.665 267.977 288.077 268.137 287.412 268.137C286.41 268.137 285.596 267.788 284.972 267.091C284.352 266.394 284.042 265.471 284.042 264.322V264.233ZM285.313 264.384C285.313 265.204 285.503 265.863 285.881 266.359C286.264 266.856 286.774 267.104 287.412 267.104C288.055 267.104 288.565 266.854 288.943 266.353C289.322 265.847 289.511 265.14 289.511 264.233C289.511 263.422 289.317 262.766 288.93 262.265C288.547 261.759 288.036 261.506 287.398 261.506C286.774 261.506 286.271 261.754 285.888 262.251C285.505 262.748 285.313 263.459 285.313 264.384ZM293.985 268H292.721V257.5H293.985V268ZM297.64 268H296.375V257.5H297.64V268ZM299.585 264.233C299.585 263.509 299.726 262.857 300.009 262.278C300.296 261.7 300.692 261.253 301.198 260.938C301.709 260.624 302.29 260.467 302.941 260.467C303.949 260.467 304.762 260.815 305.382 261.513C306.006 262.21 306.318 263.137 306.318 264.295V264.384C306.318 265.104 306.179 265.751 305.901 266.325C305.628 266.895 305.234 267.339 304.719 267.658C304.208 267.977 303.62 268.137 302.955 268.137C301.952 268.137 301.139 267.788 300.515 267.091C299.895 266.394 299.585 265.471 299.585 264.322V264.233ZM300.856 264.384C300.856 265.204 301.046 265.863 301.424 266.359C301.807 266.856 302.317 267.104 302.955 267.104C303.598 267.104 304.108 266.854 304.486 266.353C304.865 265.847 305.054 265.14 305.054 264.233C305.054 263.422 304.86 262.766 304.473 262.265C304.09 261.759 303.579 261.506 302.941 261.506C302.317 261.506 301.813 261.754 301.431 262.251C301.048 262.748 300.856 263.459 300.856 264.384ZM314.703 266.257L316.125 260.604H317.39L315.236 268H314.211L312.413 262.395L310.663 268H309.638L307.491 260.604H308.749L310.205 266.141L311.928 260.604H312.946L314.703 266.257Z" fill="black"/>
</g>
</g>
<defs>
<filter id="filter0_ddd_728:3906" x="-8" y="652" width="427.25" height="88" filterUnits="userSpaceOnUse" color-interpolation-filters="sRGB">
<feFlood flood-opacity="0" result="BackgroundImageFix"/>
<feColorMatrix in="SourceAlpha" type="matrix" values="0 0 0 0 0 0 0 0 0 0 0 0 0 0 0 0 0 0 127 0" result="hardAlpha"/>
<feOffset dy="1"/>
<feGaussianBlur stdDeviation="4"/>
<feColorMatrix type="matrix" values="0 0 0 0 0 0 0 0 0 0 0 0 0 0 0 0 0 0 0.2 0"/>
<feBlend mode="normal" in2="BackgroundImageFix" result="effect1_dropShadow_728:3906"/>
<feColorMatrix in="SourceAlpha" type="matrix" values="0 0 0 0 0 0 0 0 0 0 0 0 0 0 0 0 0 0 127 0" result="hardAlpha"/>
<feOffset dy="3"/>
<feGaussianBlur stdDeviation="1.5"/>
<feColorMatrix type="matrix" values="0 0 0 0 0 0 0 0 0 0 0 0 0 0 0 0 0 0 0.12 0"/>
<feBlend mode="normal" in2="effect1_dropShadow_728:3906" result="effect2_dropShadow_728:3906"/>
<feColorMatrix in="SourceAlpha" type="matrix" values="0 0 0 0 0 0 0 0 0 0 0 0 0 0 0 0 0 0 127 0" result="hardAlpha"/>
<feOffset dy="3"/>
<feGaussianBlur stdDeviation="2"/>
<feColorMatrix type="matrix" values="0 0 0 0 0 0 0 0 0 0 0 0 0 0 0 0 0 0 0.14 0"/>
<feBlend mode="normal" in2="effect2_dropShadow_728:3906" result="effect3_dropShadow_728:3906"/>
<feBlend mode="normal" in="SourceGraphic" in2="effect3_dropShadow_728:3906" result="shape"/>
</filter>
<filter id="filter1_ddd_728:3906" x="-10" y="-9" width="431" height="76" filterUnits="userSpaceOnUse" color-interpolation-filters="sRGB">
<feFlood flood-opacity="0" result="BackgroundImageFix"/>
<feColorMatrix in="SourceAlpha" type="matrix" values="0 0 0 0 0 0 0 0 0 0 0 0 0 0 0 0 0 0 127 0" result="hardAlpha"/>
<feOffset dy="2"/>
<feGaussianBlur stdDeviation="2"/>
<feColorMatrix type="matrix" values="0 0 0 0 0 0 0 0 0 0 0 0 0 0 0 0 0 0 0.2 0"/>
<feBlend mode="normal" in2="BackgroundImageFix" result="effect1_dropShadow_728:3906"/>
<feColorMatrix in="SourceAlpha" type="matrix" values="0 0 0 0 0 0 0 0 0 0 0 0 0 0 0 0 0 0 127 0" result="hardAlpha"/>
<feOffset dy="1"/>
<feGaussianBlur stdDeviation="5"/>
<feColorMatrix type="matrix" values="0 0 0 0 0 0 0 0 0 0 0 0 0 0 0 0 0 0 0.12 0"/>
<feBlend mode="normal" in2="effect1_dropShadow_728:3906" result="effect2_dropShadow_728:3906"/>
<feColorMatrix in="SourceAlpha" type="matrix" values="0 0 0 0 0 0 0 0 0 0 0 0 0 0 0 0 0 0 127 0" result="hardAlpha"/>
<feOffset dy="4"/>
<feGaussianBlur stdDeviation="2.5"/>
<feColorMatrix type="matrix" values="0 0 0 0 0 0 0 0 0 0 0 0 0 0 0 0 0 0 0.14 0"/>
<feBlend mode="normal" in2="effect2_dropShadow_728:3906" result="effect3_dropShadow_728:3906"/>
<feBlend mode="normal" in="SourceGraphic" in2="effect3_dropShadow_728:3906" result="shape"/>
</filter>
<filter id="filter2_ddd_728:3906" x="241" y="204" width="156" height="93" filterUnits="userSpaceOnUse" color-interpolation-filters="sRGB">
<feFlood flood-opacity="0" result="BackgroundImageFix"/>
<feColorMatrix in="SourceAlpha" type="matrix" values="0 0 0 0 0 0 0 0 0 0 0 0 0 0 0 0 0 0 127 0" result="hardAlpha"/>
<feOffset dy="5"/>
<feGaussianBlur stdDeviation="2.5"/>
<feColorMatrix type="matrix" values="0 0 0 0 0 0 0 0 0 0 0 0 0 0 0 0 0 0 0.2 0"/>
<feBlend mode="normal" in2="BackgroundImageFix" result="effect1_dropShadow_728:3906"/>
<feColorMatrix in="SourceAlpha" type="matrix" values="0 0 0 0 0 0 0 0 0 0 0 0 0 0 0 0 0 0 127 0" result="hardAlpha"/>
<feOffset dy="3"/>
<feGaussianBlur stdDeviation="7"/>
<feColorMatrix type="matrix" values="0 0 0 0 0 0 0 0 0 0 0 0 0 0 0 0 0 0 0.12 0"/>
<feBlend mode="normal" in2="effect1_dropShadow_728:3906" result="effect2_dropShadow_728:3906"/>
<feColorMatrix in="SourceAlpha" type="matrix" values="0 0 0 0 0 0 0 0 0 0 0 0 0 0 0 0 0 0 127 0" result="hardAlpha"/>
<feOffset dy="8"/>
<feGaussianBlur stdDeviation="5"/>
<feColorMatrix type="matrix" values="0 0 0 0 0 0 0 0 0 0 0 0 0 0 0 0 0 0 0.14 0"/>
<feBlend mode="normal" in2="effect2_dropShadow_728:3906" result="effect3_dropShadow_728:3906"/>
<feBlend mode="normal" in="SourceGraphic" in2="effect3_dropShadow_728:3906" result="shape"/>
</filter>
<clipPath id="clip0_728:3906">
<rect width="411" height="731" fill="white"/>
</clipPath>
</defs>
</svg>
