<svg width="411" height="731" viewBox="0 0 411 731" fill="none" xmlns="http://www.w3.org/2000/svg">
<rect width="411" height="731" fill="#F1F1F1"/>
<g clip-path="url(#clip0)">
<rect width="411" height="731" fill="white"/>
<g filter="url(#filter0_ddd)">
<rect width="411" height="72" transform="translate(0 659)" fill="#6200EE"/>
<rect width="102.75" height="72" transform="translate(0 659)" fill="#6200EE"/>
<path d="M36.3008 706.441H33.1973V715H31.4814V706.441H28.4053V705.047H36.3008V706.441ZM46.6152 710.283C46.6152 711.258 46.4466 712.115 46.1094 712.854C45.7721 713.587 45.2891 714.152 44.6602 714.549C44.0358 714.941 43.3158 715.137 42.5 715.137C41.6934 715.137 40.9733 714.941 40.3398 714.549C39.7109 714.152 39.2233 713.59 38.877 712.86C38.5352 712.131 38.362 711.29 38.3574 710.338V709.777C38.3574 708.807 38.5283 707.95 38.8701 707.207C39.2165 706.464 39.7018 705.897 40.3262 705.505C40.9551 705.108 41.6751 704.91 42.4863 704.91C43.2975 704.91 44.0153 705.106 44.6396 705.498C45.2686 705.885 45.7539 706.446 46.0957 707.18C46.4375 707.909 46.6107 708.759 46.6152 709.729V710.283ZM44.8857 709.764C44.8857 708.661 44.6761 707.815 44.2568 707.228C43.8421 706.64 43.252 706.346 42.4863 706.346C41.7389 706.346 41.1533 706.64 40.7295 707.228C40.3102 707.811 40.096 708.638 40.0869 709.709V710.283C40.0869 711.377 40.2988 712.222 40.7227 712.819C41.151 713.416 41.7435 713.715 42.5 713.715C43.2656 713.715 43.8535 713.423 44.2637 712.84C44.6784 712.257 44.8857 711.404 44.8857 710.283V709.764ZM49.5879 715V705.047H52.5273C53.4069 705.047 54.1862 705.243 54.8652 705.635C55.5488 706.027 56.0775 706.583 56.4512 707.303C56.8249 708.023 57.0117 708.848 57.0117 709.777V710.276C57.0117 711.22 56.8226 712.049 56.4443 712.765C56.0706 713.48 55.5352 714.032 54.8379 714.419C54.1452 714.806 53.3499 715 52.4521 715H49.5879ZM51.3174 706.441V713.619H52.4453C53.3522 713.619 54.0472 713.337 54.5303 712.771C55.0179 712.202 55.2663 711.386 55.2754 710.324V709.771C55.2754 708.69 55.0407 707.866 54.5713 707.296C54.1019 706.726 53.4206 706.441 52.5273 706.441H51.3174ZM65.4053 712.683H61.5498L60.7432 715H58.9453L62.7051 705.047H64.2568L68.0234 715H66.2188L65.4053 712.683ZM62.0352 711.288H64.9199L63.4775 707.159L62.0352 711.288ZM72.6299 709.764L74.9199 705.047H76.834L73.498 711.336V715H71.7617V711.336L68.4189 705.047H70.3398L72.6299 709.764Z" fill="white" fill-opacity="0.74"/>
<path fill-rule="evenodd" clip-rule="evenodd" d="M51 693C52.1 693 53 692.1 53 691H49C49 692.1 49.89 693 51 693ZM57 687V682C57 678.93 55.36 676.36 52.5 675.68V675C52.5 674.17 51.83 673.5 51 673.5C50.17 673.5 49.5 674.17 49.5 675V675.68C46.63 676.36 45 678.92 45 682V687L43 689V690H59V689L57 687Z" fill="white" fill-opacity="0.74"/>
<rect width="102.75" height="72" transform="translate(102.75 659)" fill="#6200EE"/>
<path d="M138.012 710.557H133.924V713.619H138.702V715H132.194V705.047H138.654V706.441H133.924V709.189H138.012V710.557ZM144.867 712.833L147.396 705.047H149.297L145.715 715H144.04L140.472 705.047H142.365L144.867 712.833ZM157.492 710.557H153.404V713.619H158.183V715H151.675V705.047H158.135V706.441H153.404V709.189H157.492V710.557ZM168.736 715H167.007L162.57 707.938V715H160.841V705.047H162.57L167.021 712.136V705.047H168.736V715ZM179.017 706.441H175.913V715H174.197V706.441H171.121V705.047H179.017V706.441Z" fill="white" fill-opacity="0.74"/>
<path d="M150.75 682H148.75V684H150.75V682ZM154.75 682H152.75V684H154.75V682ZM158.75 682H156.75V684H158.75V682ZM160.75 675H159.75V673H157.75V675H149.75V673H147.75V675H146.75C145.64 675 144.76 675.9 144.76 677L144.75 691C144.75 691.53 144.961 692.039 145.336 692.414C145.711 692.789 146.22 693 146.75 693H160.75C161.85 693 162.75 692.1 162.75 691V677C162.75 675.9 161.85 675 160.75 675ZM160.75 691H146.75V680H160.75V691Z" fill="white" fill-opacity="0.74"/>
<rect width="102.75" height="72" transform="translate(205.5 659)" fill="#6200EE"/>
<path d="M243.673 715H241.95V710.577H237.5V715H235.771V705.047H237.5V709.189H241.95V705.047H243.673V715ZM252.668 712.683H248.812L248.006 715H246.208L249.968 705.047H251.52L255.286 715H253.481L252.668 712.683ZM249.298 711.288H252.183L250.74 707.159L249.298 711.288ZM257.671 715V705.047H261.082C262.208 705.047 263.064 705.272 263.652 705.724C264.24 706.175 264.534 706.847 264.534 707.74C264.534 708.196 264.411 708.606 264.165 708.971C263.919 709.335 263.559 709.618 263.085 709.818C263.623 709.964 264.037 710.24 264.329 710.646C264.625 711.047 264.773 711.53 264.773 712.095C264.773 713.029 264.473 713.747 263.871 714.248C263.274 714.749 262.417 715 261.301 715H257.671ZM259.4 710.509V713.619H261.321C261.864 713.619 262.287 713.485 262.593 713.216C262.898 712.947 263.051 712.573 263.051 712.095C263.051 711.06 262.522 710.532 261.465 710.509H259.4ZM259.4 709.237H261.096C261.633 709.237 262.053 709.117 262.354 708.875C262.659 708.629 262.812 708.283 262.812 707.836C262.812 707.344 262.67 706.988 262.388 706.77C262.11 706.551 261.674 706.441 261.082 706.441H259.4V709.237ZM269.578 715H267.855V705.047H269.578V715ZM279.94 706.441H276.837V715H275.121V706.441H272.045V705.047H279.94V706.441Z" fill="white" fill-opacity="0.74"/>
<path fill-rule="evenodd" clip-rule="evenodd" d="M256.5 692.35L255.05 691.03C249.9 686.36 246.5 683.28 246.5 679.5C246.5 676.42 248.92 674 252 674C253.74 674 255.41 674.81 256.5 676.09C257.59 674.81 259.26 674 261 674C264.08 674 266.5 676.42 266.5 679.5C266.5 683.28 263.1 686.36 257.95 691.04L256.5 692.35Z" fill="white" fill-opacity="0.74"/>
<rect width="102.75" height="72" transform="translate(308.25 659)" fill="#6200EE"/>
<rect width="102.75" height="2" transform="translate(308.25 729)" fill="#6200EE"/>
<rect x="308.25" y="729" width="103" height="2" fill="white"/>
<path d="M322.705 711.76C322.605 712.822 322.213 713.651 321.529 714.248C320.846 714.84 319.937 715.137 318.802 715.137C318.009 715.137 317.309 714.95 316.703 714.576C316.102 714.198 315.637 713.662 315.309 712.97C314.98 712.277 314.81 711.473 314.796 710.557V709.627C314.796 708.688 314.962 707.861 315.295 707.146C315.628 706.43 316.104 705.879 316.724 705.491C317.348 705.104 318.068 704.91 318.884 704.91C319.982 704.91 320.866 705.209 321.536 705.806C322.206 706.403 322.596 707.246 322.705 708.335H320.982C320.9 707.619 320.691 707.104 320.354 706.79C320.021 706.471 319.531 706.312 318.884 706.312C318.132 706.312 317.553 706.587 317.147 707.139C316.746 707.686 316.541 708.49 316.532 709.552V710.434C316.532 711.509 316.724 712.329 317.106 712.895C317.494 713.46 318.059 713.742 318.802 713.742C319.481 713.742 319.991 713.59 320.333 713.284C320.675 712.979 320.891 712.471 320.982 711.76H322.705ZM333.45 710.283C333.45 711.258 333.282 712.115 332.944 712.854C332.607 713.587 332.124 714.152 331.495 714.549C330.871 714.941 330.151 715.137 329.335 715.137C328.528 715.137 327.808 714.941 327.175 714.549C326.546 714.152 326.058 713.59 325.712 712.86C325.37 712.131 325.197 711.29 325.192 710.338V709.777C325.192 708.807 325.363 707.95 325.705 707.207C326.051 706.464 326.537 705.897 327.161 705.505C327.79 705.108 328.51 704.91 329.321 704.91C330.132 704.91 330.85 705.106 331.475 705.498C332.104 705.885 332.589 706.446 332.931 707.18C333.272 707.909 333.446 708.759 333.45 709.729V710.283ZM331.721 709.764C331.721 708.661 331.511 707.815 331.092 707.228C330.677 706.64 330.087 706.346 329.321 706.346C328.574 706.346 327.988 706.64 327.564 707.228C327.145 707.811 326.931 708.638 326.922 709.709V710.283C326.922 711.377 327.134 712.222 327.558 712.819C327.986 713.416 328.578 713.715 329.335 713.715C330.101 713.715 330.688 713.423 331.099 712.84C331.513 712.257 331.721 711.404 331.721 710.283V709.764ZM338.665 705.047L341.536 712.676L344.4 705.047H346.636V715H344.913V711.719L345.084 707.33L342.145 715H340.907L337.975 707.337L338.146 711.719V715H336.423V705.047H338.665ZM352.179 705.047L355.05 712.676L357.914 705.047H360.149V715H358.427V711.719L358.598 707.33L355.658 715H354.421L351.488 707.337L351.659 711.719V715H349.937V705.047H352.179ZM370.73 705.047V711.698C370.73 712.756 370.391 713.594 369.712 714.214C369.037 714.829 368.137 715.137 367.012 715.137C365.872 715.137 364.968 714.834 364.298 714.228C363.628 713.617 363.293 712.771 363.293 711.691V705.047H365.016V711.705C365.016 712.37 365.184 712.879 365.521 713.229C365.859 713.58 366.355 713.756 367.012 713.756C368.342 713.756 369.008 713.054 369.008 711.65V705.047H370.73ZM381.729 715H379.999L375.562 707.938V715H373.833V705.047H375.562L380.013 712.136V705.047H381.729V715ZM386.848 715H385.125V705.047H386.848V715ZM397.21 706.441H394.106V715H392.391V706.441H389.314V705.047H397.21V706.441ZM403.129 709.764L405.419 705.047H407.333L403.997 711.336V715H402.261V711.336L398.918 705.047H400.839L403.129 709.764Z" fill="white"/>
<path d="M363.25 682C364.91 682 366.24 680.66 366.24 679C366.24 677.34 364.91 676 363.25 676C361.59 676 360.25 677.34 360.25 679C360.25 680.66 361.59 682 363.25 682ZM355.25 682C356.91 682 358.24 680.66 358.24 679C358.24 677.34 356.91 676 355.25 676C353.59 676 352.25 677.34 352.25 679C352.25 680.66 353.59 682 355.25 682ZM355.25 684C352.92 684 348.25 685.17 348.25 687.5V690H362.25V687.5C362.25 685.17 357.58 684 355.25 684ZM363.25 684C362.96 684 362.63 684.02 362.28 684.05C363.44 684.89 364.25 686.02 364.25 687.5V690H370.25V687.5C370.25 685.17 365.58 684 363.25 684Z" fill="white"/>
</g>
<g filter="url(#filter1_ddd)">
<rect width="411" height="56" fill="#6200EE"/>
<path fill-rule="evenodd" clip-rule="evenodd" d="M287 38C288.1 38 289 37.1 289 36H285C285 37.1 285.89 38 287 38ZM293 32V27C293 23.93 291.36 21.36 288.5 20.68V20C288.5 19.17 287.83 18.5 287 18.5C286.17 18.5 285.5 19.17 285.5 20V20.68C282.63 21.36 281 23.92 281 27V32L279 34V35H295V34L293 32Z" fill="white" fill-opacity="0.74"/>
<path fill-rule="evenodd" clip-rule="evenodd" d="M341 32.08C340.24 32.08 339.56 32.38 339.04 32.85L331.91 28.7C331.96 28.47 332 28.24 332 28C332 27.76 331.96 27.53 331.91 27.3L338.96 23.19C339.5 23.69 340.21 24 341 24C342.66 24 344 22.66 344 21C344 19.34 342.66 18 341 18C339.34 18 338 19.34 338 21C338 21.24 338.04 21.47 338.09 21.7L331.04 25.81C330.5 25.31 329.79 25 329 25C327.34 25 326 26.34 326 28C326 29.66 327.34 31 329 31C329.79 31 330.5 30.69 331.04 30.19L338.16 34.35C338.11 34.56 338.08 34.78 338.08 35C338.08 36.61 339.39 37.92 341 37.92C342.61 37.92 343.92 36.61 343.92 35C343.92 33.39 342.61 32.08 341 32.08Z" fill="white" fill-opacity="0.74"/>
<path fill-rule="evenodd" clip-rule="evenodd" d="M386.5 30H385.71L385.43 29.73C386.41 28.59 387 27.11 387 25.5C387 21.91 384.09 19 380.5 19C376.91 19 374 21.91 374 25.5C374 29.09 376.91 32 380.5 32C382.11 32 383.59 31.41 384.73 30.43L385 30.71V31.5L390 36.49L391.49 35L386.5 30ZM380.5 30C378.01 30 376 27.99 376 25.5C376 23.01 378.01 21 380.5 21C382.99 21 385 23.01 385 25.5C385 27.99 382.99 30 380.5 30Z" fill="white" fill-opacity="0.74"/>
<path fill-rule="evenodd" clip-rule="evenodd" d="M19 34H37V32H19V34ZM19 29H37V27H19V29ZM19 22V24H37V22H19Z" fill="white" fill-opacity="0.74"/>
</g>
<mask id="mask0" style="mask-type:alpha" maskUnits="userSpaceOnUse" x="0" y="66" width="392" height="88">
<rect y="66" width="392" height="88" fill="white"/>
</mask>
<g mask="url(#mask0)">
<path d="M24.8047 133H23.4854V128.399H18.4678V133H17.1553V123.047H18.4678V127.326H23.4854V123.047H24.8047V133ZM31.7539 133C31.681 132.854 31.6217 132.594 31.5762 132.221C30.9883 132.831 30.2865 133.137 29.4707 133.137C28.7415 133.137 28.1423 132.932 27.6729 132.521C27.208 132.107 26.9756 131.583 26.9756 130.949C26.9756 130.179 27.2673 129.582 27.8506 129.158C28.4385 128.73 29.2633 128.516 30.3252 128.516H31.5557V127.935C31.5557 127.493 31.4235 127.142 31.1592 126.882C30.8949 126.618 30.5052 126.485 29.9902 126.485C29.5391 126.485 29.1608 126.599 28.8555 126.827C28.5501 127.055 28.3975 127.331 28.3975 127.654H27.126C27.126 127.285 27.2559 126.93 27.5156 126.588C27.7799 126.242 28.1354 125.968 28.582 125.768C29.0332 125.567 29.5277 125.467 30.0654 125.467C30.9176 125.467 31.5853 125.681 32.0684 126.109C32.5514 126.533 32.8021 127.119 32.8203 127.866V131.271C32.8203 131.95 32.9069 132.49 33.0801 132.891V133H31.7539ZM29.6553 132.036C30.0518 132.036 30.4277 131.934 30.7832 131.729C31.1387 131.523 31.3962 131.257 31.5557 130.929V129.411H30.5645C29.015 129.411 28.2402 129.865 28.2402 130.771C28.2402 131.168 28.3724 131.478 28.6367 131.701C28.901 131.924 29.2406 132.036 29.6553 132.036ZM41.3145 129.384C41.3145 130.514 41.0547 131.423 40.5352 132.111C40.0156 132.795 39.3184 133.137 38.4434 133.137C37.5091 133.137 36.7868 132.806 36.2764 132.146L36.2148 133H35.0527V122.5H36.3174V126.417C36.8278 125.784 37.5319 125.467 38.4297 125.467C39.3275 125.467 40.0316 125.806 40.542 126.485C41.057 127.164 41.3145 128.094 41.3145 129.274V129.384ZM40.0498 129.24C40.0498 128.379 39.8835 127.714 39.5508 127.244C39.2181 126.775 38.7396 126.54 38.1152 126.54C37.2812 126.54 36.682 126.927 36.3174 127.702V130.901C36.7048 131.676 37.3086 132.063 38.1289 132.063C38.735 132.063 39.2067 131.829 39.5439 131.359C39.8812 130.89 40.0498 130.184 40.0498 129.24ZM44.5381 133H43.2734V125.604H44.5381V133ZM43.1709 123.642C43.1709 123.437 43.2324 123.263 43.3555 123.122C43.4831 122.981 43.6699 122.91 43.916 122.91C44.1621 122.91 44.349 122.981 44.4766 123.122C44.6042 123.263 44.668 123.437 44.668 123.642C44.668 123.847 44.6042 124.018 44.4766 124.154C44.349 124.291 44.1621 124.359 43.916 124.359C43.6699 124.359 43.4831 124.291 43.3555 124.154C43.2324 124.018 43.1709 123.847 43.1709 123.642ZM48.5342 123.812V125.604H49.915V126.581H48.5342V131.168C48.5342 131.464 48.5957 131.688 48.7188 131.838C48.8418 131.984 49.0514 132.057 49.3477 132.057C49.4935 132.057 49.694 132.029 49.9492 131.975V133C49.6165 133.091 49.293 133.137 48.9785 133.137C48.4134 133.137 47.9873 132.966 47.7002 132.624C47.4131 132.282 47.2695 131.797 47.2695 131.168V126.581H45.9229V125.604H47.2695V123.812H48.5342ZM55.5693 133V123.047H58.3789C59.2448 123.047 60.0104 123.238 60.6758 123.621C61.3411 124.004 61.8538 124.549 62.2139 125.255C62.5785 125.961 62.763 126.772 62.7676 127.688V128.324C62.7676 129.263 62.5853 130.086 62.2207 130.792C61.8607 131.498 61.3434 132.041 60.6689 132.419C59.999 132.797 59.2174 132.991 58.3242 133H55.5693ZM56.8818 124.127V131.927H58.2627C59.2744 131.927 60.0605 131.612 60.6211 130.983C61.1862 130.354 61.4688 129.459 61.4688 128.297V127.716C61.4688 126.586 61.2021 125.708 60.6689 125.084C60.1403 124.455 59.3883 124.136 58.4131 124.127H56.8818ZM67.8779 133.137C66.8753 133.137 66.0596 132.809 65.4307 132.152C64.8018 131.492 64.4873 130.61 64.4873 129.507V129.274C64.4873 128.541 64.6263 127.887 64.9043 127.312C65.1868 126.734 65.5788 126.283 66.0801 125.959C66.5859 125.631 67.1328 125.467 67.7207 125.467C68.6823 125.467 69.4297 125.784 69.9629 126.417C70.4961 127.05 70.7627 127.957 70.7627 129.138V129.664H65.752C65.7702 130.393 65.9821 130.983 66.3877 131.435C66.7979 131.881 67.3174 132.104 67.9463 132.104C68.3929 132.104 68.7712 132.013 69.0811 131.831C69.391 131.649 69.6621 131.407 69.8945 131.106L70.667 131.708C70.0472 132.66 69.1175 133.137 67.8779 133.137ZM67.7207 126.506C67.2103 126.506 66.7819 126.693 66.4355 127.066C66.0892 127.436 65.875 127.955 65.793 128.625H69.498V128.529C69.4616 127.887 69.2884 127.39 68.9785 127.039C68.6686 126.684 68.2493 126.506 67.7207 126.506ZM76.7891 131.038C76.7891 130.696 76.6592 130.432 76.3994 130.245C76.1442 130.054 75.6953 129.89 75.0527 129.753C74.4147 129.616 73.9066 129.452 73.5283 129.261C73.1546 129.069 72.8766 128.841 72.6943 128.577C72.5166 128.313 72.4277 127.998 72.4277 127.634C72.4277 127.028 72.6829 126.515 73.1934 126.096C73.7083 125.676 74.3646 125.467 75.1621 125.467C76.0007 125.467 76.6797 125.683 77.1992 126.116C77.7233 126.549 77.9854 127.103 77.9854 127.777H76.7139C76.7139 127.431 76.5658 127.132 76.2695 126.882C75.9779 126.631 75.6087 126.506 75.1621 126.506C74.7018 126.506 74.3418 126.606 74.082 126.807C73.8223 127.007 73.6924 127.269 73.6924 127.593C73.6924 127.898 73.8132 128.128 74.0547 128.283C74.2962 128.438 74.7314 128.586 75.3604 128.728C75.9938 128.869 76.5065 129.037 76.8984 129.233C77.2904 129.429 77.5798 129.666 77.7666 129.944C77.958 130.218 78.0537 130.553 78.0537 130.949C78.0537 131.61 77.7894 132.141 77.2607 132.542C76.7321 132.938 76.0462 133.137 75.2031 133.137C74.6107 133.137 74.0866 133.032 73.6309 132.822C73.1751 132.613 72.8174 132.321 72.5576 131.947C72.3024 131.569 72.1748 131.161 72.1748 130.724H73.4395C73.4622 131.147 73.6309 131.485 73.9453 131.735C74.2643 131.981 74.6836 132.104 75.2031 132.104C75.6816 132.104 76.0645 132.009 76.3516 131.817C76.6432 131.621 76.7891 131.362 76.7891 131.038ZM82.918 132.104C83.3691 132.104 83.7633 131.968 84.1006 131.694C84.4378 131.421 84.6247 131.079 84.6611 130.669H85.8574C85.8346 131.093 85.6888 131.496 85.4199 131.879C85.151 132.262 84.791 132.567 84.3398 132.795C83.8932 133.023 83.4193 133.137 82.918 133.137C81.9108 133.137 81.1087 132.802 80.5117 132.132C79.9193 131.457 79.623 130.537 79.623 129.37V129.158C79.623 128.438 79.7552 127.798 80.0195 127.237C80.2839 126.677 80.6621 126.242 81.1543 125.932C81.651 125.622 82.2367 125.467 82.9111 125.467C83.7406 125.467 84.4287 125.715 84.9756 126.212C85.527 126.709 85.821 127.354 85.8574 128.146H84.6611C84.6247 127.668 84.4424 127.276 84.1143 126.971C83.7907 126.661 83.3896 126.506 82.9111 126.506C82.2686 126.506 81.7695 126.738 81.4141 127.203C81.0632 127.663 80.8877 128.331 80.8877 129.206V129.445C80.8877 130.298 81.0632 130.954 81.4141 131.414C81.765 131.874 82.2663 132.104 82.918 132.104ZM91.1045 126.738C90.9131 126.706 90.7057 126.69 90.4824 126.69C89.653 126.69 89.0902 127.044 88.7939 127.75V133H87.5293V125.604H88.7598L88.7803 126.458C89.195 125.797 89.7829 125.467 90.5439 125.467C90.79 125.467 90.9769 125.499 91.1045 125.562V126.738ZM93.8975 133H92.6328V125.604H93.8975V133ZM92.5303 123.642C92.5303 123.437 92.5918 123.263 92.7148 123.122C92.8424 122.981 93.0293 122.91 93.2754 122.91C93.5215 122.91 93.7083 122.981 93.8359 123.122C93.9635 123.263 94.0273 123.437 94.0273 123.642C94.0273 123.847 93.9635 124.018 93.8359 124.154C93.7083 124.291 93.5215 124.359 93.2754 124.359C93.0293 124.359 92.8424 124.291 92.7148 124.154C92.5918 124.018 92.5303 123.847 92.5303 123.642ZM102.426 129.384C102.426 130.509 102.168 131.416 101.653 132.104C101.138 132.793 100.441 133.137 99.5615 133.137C98.6637 133.137 97.9574 132.852 97.4424 132.282V135.844H96.1777V125.604H97.333L97.3945 126.424C97.9095 125.786 98.625 125.467 99.541 125.467C100.43 125.467 101.132 125.802 101.646 126.472C102.166 127.142 102.426 128.074 102.426 129.268V129.384ZM101.161 129.24C101.161 128.406 100.983 127.748 100.628 127.265C100.272 126.782 99.7848 126.54 99.165 126.54C98.3994 126.54 97.8252 126.88 97.4424 127.559V131.093C97.8206 131.767 98.3994 132.104 99.1787 132.104C99.7848 132.104 100.266 131.865 100.621 131.387C100.981 130.904 101.161 130.188 101.161 129.24ZM106.005 123.812V125.604H107.386V126.581H106.005V131.168C106.005 131.464 106.066 131.688 106.189 131.838C106.312 131.984 106.522 132.057 106.818 132.057C106.964 132.057 107.165 132.029 107.42 131.975V133C107.087 133.091 106.764 133.137 106.449 133.137C105.884 133.137 105.458 132.966 105.171 132.624C104.884 132.282 104.74 131.797 104.74 131.168V126.581H103.394V125.604H104.74V123.812H106.005ZM110.493 133H109.229V125.604H110.493V133ZM109.126 123.642C109.126 123.437 109.188 123.263 109.311 123.122C109.438 122.981 109.625 122.91 109.871 122.91C110.117 122.91 110.304 122.981 110.432 123.122C110.559 123.263 110.623 123.437 110.623 123.642C110.623 123.847 110.559 124.018 110.432 124.154C110.304 124.291 110.117 124.359 109.871 124.359C109.625 124.359 109.438 124.291 109.311 124.154C109.188 124.018 109.126 123.847 109.126 123.642ZM112.438 129.233C112.438 128.509 112.58 127.857 112.862 127.278C113.149 126.7 113.546 126.253 114.052 125.938C114.562 125.624 115.143 125.467 115.795 125.467C116.802 125.467 117.616 125.815 118.235 126.513C118.86 127.21 119.172 128.137 119.172 129.295V129.384C119.172 130.104 119.033 130.751 118.755 131.325C118.481 131.895 118.087 132.339 117.572 132.658C117.062 132.977 116.474 133.137 115.809 133.137C114.806 133.137 113.993 132.788 113.368 132.091C112.748 131.394 112.438 130.471 112.438 129.322V129.233ZM113.71 129.384C113.71 130.204 113.899 130.863 114.277 131.359C114.66 131.856 115.171 132.104 115.809 132.104C116.451 132.104 116.962 131.854 117.34 131.353C117.718 130.847 117.907 130.14 117.907 129.233C117.907 128.422 117.714 127.766 117.326 127.265C116.943 126.759 116.433 126.506 115.795 126.506C115.171 126.506 114.667 126.754 114.284 127.251C113.901 127.748 113.71 128.459 113.71 129.384ZM122.204 125.604L122.245 126.533C122.81 125.822 123.549 125.467 124.46 125.467C126.023 125.467 126.812 126.349 126.825 128.112V133H125.561V128.105C125.556 127.572 125.433 127.178 125.191 126.923C124.954 126.668 124.583 126.54 124.077 126.54C123.667 126.54 123.307 126.649 122.997 126.868C122.687 127.087 122.446 127.374 122.272 127.729V133H121.008V125.604H122.204Z" fill="black" fill-opacity="0.6"/>
<path d="M26.0625 109H24.5547V103.742H18.8203V109H17.3203V97.625H18.8203V102.516H24.5547V97.625H26.0625V109ZM33.8687 109C33.7854 108.833 33.7177 108.536 33.6656 108.109C32.9937 108.807 32.1917 109.156 31.2594 109.156C30.426 109.156 29.7411 108.922 29.2047 108.453C28.6734 107.979 28.4078 107.38 28.4078 106.656C28.4078 105.776 28.7411 105.094 29.4078 104.609C30.0797 104.12 31.0224 103.875 32.2359 103.875H33.6422V103.211C33.6422 102.706 33.4911 102.305 33.1891 102.008C32.887 101.706 32.4417 101.555 31.8531 101.555C31.3375 101.555 30.9052 101.685 30.5562 101.945C30.2073 102.206 30.0328 102.521 30.0328 102.891H28.5797C28.5797 102.469 28.7281 102.062 29.025 101.672C29.3271 101.276 29.7333 100.964 30.2437 100.734C30.7594 100.505 31.3245 100.391 31.9391 100.391C32.913 100.391 33.676 100.635 34.2281 101.125C34.7802 101.609 35.0667 102.279 35.0875 103.133V107.023C35.0875 107.799 35.1865 108.417 35.3844 108.875V109H33.8687ZM31.4703 107.898C31.9234 107.898 32.3531 107.781 32.7594 107.547C33.1656 107.312 33.4599 107.008 33.6422 106.633V104.898H32.5094C30.7385 104.898 29.8531 105.417 29.8531 106.453C29.8531 106.906 30.0042 107.26 30.3062 107.516C30.6083 107.771 30.9964 107.898 31.4703 107.898ZM44.6594 104.867C44.6594 106.159 44.3625 107.198 43.7687 107.984C43.175 108.766 42.3781 109.156 41.3781 109.156C40.3104 109.156 39.4849 108.779 38.9016 108.023L38.8312 109H37.5031V97H38.9484V101.477C39.5318 100.753 40.3365 100.391 41.3625 100.391C42.3885 100.391 43.1932 100.779 43.7766 101.555C44.3651 102.331 44.6594 103.393 44.6594 104.742V104.867ZM43.2141 104.703C43.2141 103.719 43.024 102.958 42.6437 102.422C42.2635 101.885 41.7167 101.617 41.0031 101.617C40.05 101.617 39.3651 102.06 38.9484 102.945V106.602C39.3911 107.487 40.0812 107.93 41.0187 107.93C41.7115 107.93 42.2505 107.661 42.6359 107.125C43.0214 106.589 43.2141 105.781 43.2141 104.703ZM48.2078 109H46.7625V100.547H48.2078V109ZM46.6453 98.3047C46.6453 98.0703 46.7156 97.8724 46.8563 97.7109C47.0021 97.5495 47.2156 97.4688 47.4969 97.4688C47.7781 97.4688 47.9917 97.5495 48.1375 97.7109C48.2833 97.8724 48.3563 98.0703 48.3563 98.3047C48.3563 98.5391 48.2833 98.7344 48.1375 98.8906C47.9917 99.0469 47.7781 99.125 47.4969 99.125C47.2156 99.125 47.0021 99.0469 46.8563 98.8906C46.7156 98.7344 46.6453 98.5391 46.6453 98.3047ZM52.6391 98.5V100.547H54.2172V101.664H52.6391V106.906C52.6391 107.245 52.7094 107.5 52.85 107.672C52.9906 107.839 53.2302 107.922 53.5687 107.922C53.7354 107.922 53.9646 107.891 54.2562 107.828V109C53.876 109.104 53.5062 109.156 53.1469 109.156C52.501 109.156 52.0141 108.961 51.6859 108.57C51.3578 108.18 51.1937 107.625 51.1937 106.906V101.664H49.6547V100.547H51.1937V98.5H52.6391ZM66.6891 106.031H61.9234L60.8531 109H59.3063L63.65 97.625H64.9625L69.3141 109H67.775L66.6891 106.031ZM62.3766 104.797H66.2438L64.3063 99.4766L62.3766 104.797Z" fill="black" fill-opacity="0.87"/>
<path d="M21.9229 79.8906V84.6416C21.9229 85.3968 21.6803 85.9958 21.1953 86.4385C20.7135 86.8779 20.0706 87.0977 19.2666 87.0977C18.4528 87.0977 17.8066 86.8812 17.3281 86.4482C16.8496 86.012 16.6104 85.4082 16.6104 84.6367V79.8906H17.8408V84.6465C17.8408 85.1217 17.9613 85.4847 18.2021 85.7354C18.443 85.986 18.7979 86.1113 19.2666 86.1113C20.2171 86.1113 20.6924 85.61 20.6924 84.6074V79.8906H21.9229ZM28.4619 85.1689C28.4619 84.8564 28.3512 84.6156 28.1299 84.4463C27.9118 84.277 27.5163 84.1061 26.9434 83.9336C26.3704 83.7611 25.9147 83.569 25.5762 83.3574C24.9284 82.9505 24.6045 82.4199 24.6045 81.7656C24.6045 81.1927 24.8372 80.7207 25.3027 80.3496C25.7715 79.9785 26.3786 79.793 27.124 79.793C27.6188 79.793 28.0599 79.8841 28.4473 80.0664C28.8346 80.2487 29.139 80.5091 29.3604 80.8477C29.5817 81.1829 29.6924 81.5557 29.6924 81.9658H28.4619C28.4619 81.5947 28.3447 81.305 28.1104 81.0967C27.8792 80.8851 27.5472 80.7793 27.1143 80.7793C26.7106 80.7793 26.3965 80.8656 26.1719 81.0381C25.9505 81.2106 25.8398 81.4515 25.8398 81.7607C25.8398 82.0212 25.9603 82.2393 26.2012 82.415C26.4421 82.5876 26.8392 82.7568 27.3926 82.9229C27.946 83.0856 28.3903 83.2728 28.7256 83.4844C29.0609 83.6927 29.3066 83.9336 29.4629 84.207C29.6191 84.4772 29.6973 84.7946 29.6973 85.1592C29.6973 85.7516 29.4694 86.2236 29.0137 86.5752C28.5612 86.9235 27.946 87.0977 27.168 87.0977C26.6536 87.0977 26.18 87.0033 25.7471 86.8145C25.3174 86.6224 24.9821 86.3587 24.7412 86.0234C24.5036 85.6882 24.3848 85.2975 24.3848 84.8516H25.6201C25.6201 85.2552 25.7536 85.5677 26.0205 85.7891C26.2874 86.0104 26.6699 86.1211 27.168 86.1211C27.5977 86.1211 27.9199 86.0348 28.1348 85.8623C28.3529 85.6865 28.4619 85.4554 28.4619 85.1689ZM36.4365 83.8262H33.5166V86.0137H36.9297V87H32.2812V79.8906H36.8955V80.8867H33.5166V82.8496H36.4365V83.8262ZM42.0479 84.2607H40.6709V87H39.4355V79.8906H41.9355C42.7559 79.8906 43.389 80.0745 43.835 80.4424C44.2809 80.8102 44.5039 81.3424 44.5039 82.0391C44.5039 82.5143 44.3883 82.9131 44.1572 83.2354C43.9294 83.5544 43.6104 83.8001 43.2002 83.9727L44.7969 86.9365V87H43.4736L42.0479 84.2607ZM40.6709 83.2695H41.9404C42.3571 83.2695 42.6826 83.1654 42.917 82.957C43.1514 82.7454 43.2686 82.4574 43.2686 82.0928C43.2686 81.7119 43.1595 81.4173 42.9414 81.209C42.7266 81.0007 42.4043 80.8932 41.9746 80.8867H40.6709V83.2695ZM54.1885 87H53.0068V81.292L51.2637 81.8877V80.8867L54.0371 79.8662H54.1885V87Z" fill="black" fill-opacity="0.6"/>
<rect x="17.4222" y="153" width="374.578" height="1" fill="#212121" fill-opacity="0.08"/>
<path fill-rule="evenodd" clip-rule="evenodd" d="M380 106C381.1 106 382 105.1 382 104C382 102.9 381.1 102 380 102C378.9 102 378 102.9 378 104C378 105.1 378.9 106 380 106ZM380 108C378.9 108 378 108.9 378 110C378 111.1 378.9 112 380 112C381.1 112 382 111.1 382 110C382 108.9 381.1 108 380 108ZM380 114C378.9 114 378 114.9 378 116C378 117.1 378.9 118 380 118C381.1 118 382 117.1 382 116C382 114.9 381.1 114 380 114Z" fill="black" fill-opacity="0.6"/>
</g>
<mask id="mask1" style="mask-type:alpha" maskUnits="userSpaceOnUse" x="-1" y="164" width="392" height="88">
<rect x="-1" y="164" width="392" height="88" fill="white"/>
</mask>
<g mask="url(#mask1)">
<path d="M23.8047 231H22.4854V226.399H17.4678V231H16.1553V221.047H17.4678V225.326H22.4854V221.047H23.8047V231ZM30.7539 231C30.681 230.854 30.6217 230.594 30.5762 230.221C29.9883 230.831 29.2865 231.137 28.4707 231.137C27.7415 231.137 27.1423 230.932 26.6729 230.521C26.208 230.107 25.9756 229.583 25.9756 228.949C25.9756 228.179 26.2673 227.582 26.8506 227.158C27.4385 226.73 28.2633 226.516 29.3252 226.516H30.5557V225.935C30.5557 225.493 30.4235 225.142 30.1592 224.882C29.8949 224.618 29.5052 224.485 28.9902 224.485C28.5391 224.485 28.1608 224.599 27.8555 224.827C27.5501 225.055 27.3975 225.331 27.3975 225.654H26.126C26.126 225.285 26.2559 224.93 26.5156 224.588C26.7799 224.242 27.1354 223.968 27.582 223.768C28.0332 223.567 28.5277 223.467 29.0654 223.467C29.9176 223.467 30.5853 223.681 31.0684 224.109C31.5514 224.533 31.8021 225.119 31.8203 225.866V229.271C31.8203 229.95 31.9069 230.49 32.0801 230.891V231H30.7539ZM28.6553 230.036C29.0518 230.036 29.4277 229.934 29.7832 229.729C30.1387 229.523 30.3962 229.257 30.5557 228.929V227.411H29.5645C28.015 227.411 27.2402 227.865 27.2402 228.771C27.2402 229.168 27.3724 229.478 27.6367 229.701C27.901 229.924 28.2406 230.036 28.6553 230.036ZM40.3145 227.384C40.3145 228.514 40.0547 229.423 39.5352 230.111C39.0156 230.795 38.3184 231.137 37.4434 231.137C36.5091 231.137 35.7868 230.806 35.2764 230.146L35.2148 231H34.0527V220.5H35.3174V224.417C35.8278 223.784 36.5319 223.467 37.4297 223.467C38.3275 223.467 39.0316 223.806 39.542 224.485C40.057 225.164 40.3145 226.094 40.3145 227.274V227.384ZM39.0498 227.24C39.0498 226.379 38.8835 225.714 38.5508 225.244C38.2181 224.775 37.7396 224.54 37.1152 224.54C36.2812 224.54 35.682 224.927 35.3174 225.702V228.901C35.7048 229.676 36.3086 230.063 37.1289 230.063C37.735 230.063 38.2067 229.829 38.5439 229.359C38.8812 228.89 39.0498 228.184 39.0498 227.24ZM43.5381 231H42.2734V223.604H43.5381V231ZM42.1709 221.642C42.1709 221.437 42.2324 221.263 42.3555 221.122C42.4831 220.981 42.6699 220.91 42.916 220.91C43.1621 220.91 43.349 220.981 43.4766 221.122C43.6042 221.263 43.668 221.437 43.668 221.642C43.668 221.847 43.6042 222.018 43.4766 222.154C43.349 222.291 43.1621 222.359 42.916 222.359C42.6699 222.359 42.4831 222.291 42.3555 222.154C42.2324 222.018 42.1709 221.847 42.1709 221.642ZM47.5342 221.812V223.604H48.915V224.581H47.5342V229.168C47.5342 229.464 47.5957 229.688 47.7188 229.838C47.8418 229.984 48.0514 230.057 48.3477 230.057C48.4935 230.057 48.694 230.029 48.9492 229.975V231C48.6165 231.091 48.293 231.137 47.9785 231.137C47.4134 231.137 46.9873 230.966 46.7002 230.624C46.4131 230.282 46.2695 229.797 46.2695 229.168V224.581H44.9229V223.604H46.2695V221.812H47.5342ZM54.5693 231V221.047H57.3789C58.2448 221.047 59.0104 221.238 59.6758 221.621C60.3411 222.004 60.8538 222.549 61.2139 223.255C61.5785 223.961 61.763 224.772 61.7676 225.688V226.324C61.7676 227.263 61.5853 228.086 61.2207 228.792C60.8607 229.498 60.3434 230.041 59.6689 230.419C58.999 230.797 58.2174 230.991 57.3242 231H54.5693ZM55.8818 222.127V229.927H57.2627C58.2744 229.927 59.0605 229.612 59.6211 228.983C60.1862 228.354 60.4688 227.459 60.4688 226.297V225.716C60.4688 224.586 60.2021 223.708 59.6689 223.084C59.1403 222.455 58.3883 222.136 57.4131 222.127H55.8818ZM66.8779 231.137C65.8753 231.137 65.0596 230.809 64.4307 230.152C63.8018 229.492 63.4873 228.61 63.4873 227.507V227.274C63.4873 226.541 63.6263 225.887 63.9043 225.312C64.1868 224.734 64.5788 224.283 65.0801 223.959C65.5859 223.631 66.1328 223.467 66.7207 223.467C67.6823 223.467 68.4297 223.784 68.9629 224.417C69.4961 225.05 69.7627 225.957 69.7627 227.138V227.664H64.752C64.7702 228.393 64.9821 228.983 65.3877 229.435C65.7979 229.881 66.3174 230.104 66.9463 230.104C67.3929 230.104 67.7712 230.013 68.0811 229.831C68.391 229.649 68.6621 229.407 68.8945 229.106L69.667 229.708C69.0472 230.66 68.1175 231.137 66.8779 231.137ZM66.7207 224.506C66.2103 224.506 65.7819 224.693 65.4355 225.066C65.0892 225.436 64.875 225.955 64.793 226.625H68.498V226.529C68.4616 225.887 68.2884 225.39 67.9785 225.039C67.6686 224.684 67.2493 224.506 66.7207 224.506ZM75.7891 229.038C75.7891 228.696 75.6592 228.432 75.3994 228.245C75.1442 228.054 74.6953 227.89 74.0527 227.753C73.4147 227.616 72.9066 227.452 72.5283 227.261C72.1546 227.069 71.8766 226.841 71.6943 226.577C71.5166 226.313 71.4277 225.998 71.4277 225.634C71.4277 225.028 71.6829 224.515 72.1934 224.096C72.7083 223.676 73.3646 223.467 74.1621 223.467C75.0007 223.467 75.6797 223.683 76.1992 224.116C76.7233 224.549 76.9854 225.103 76.9854 225.777H75.7139C75.7139 225.431 75.5658 225.132 75.2695 224.882C74.9779 224.631 74.6087 224.506 74.1621 224.506C73.7018 224.506 73.3418 224.606 73.082 224.807C72.8223 225.007 72.6924 225.269 72.6924 225.593C72.6924 225.898 72.8132 226.128 73.0547 226.283C73.2962 226.438 73.7314 226.586 74.3604 226.728C74.9938 226.869 75.5065 227.037 75.8984 227.233C76.2904 227.429 76.5798 227.666 76.7666 227.944C76.958 228.218 77.0537 228.553 77.0537 228.949C77.0537 229.61 76.7894 230.141 76.2607 230.542C75.7321 230.938 75.0462 231.137 74.2031 231.137C73.6107 231.137 73.0866 231.032 72.6309 230.822C72.1751 230.613 71.8174 230.321 71.5576 229.947C71.3024 229.569 71.1748 229.161 71.1748 228.724H72.4395C72.4622 229.147 72.6309 229.485 72.9453 229.735C73.2643 229.981 73.6836 230.104 74.2031 230.104C74.6816 230.104 75.0645 230.009 75.3516 229.817C75.6432 229.621 75.7891 229.362 75.7891 229.038ZM81.918 230.104C82.3691 230.104 82.7633 229.968 83.1006 229.694C83.4378 229.421 83.6247 229.079 83.6611 228.669H84.8574C84.8346 229.093 84.6888 229.496 84.4199 229.879C84.151 230.262 83.791 230.567 83.3398 230.795C82.8932 231.023 82.4193 231.137 81.918 231.137C80.9108 231.137 80.1087 230.802 79.5117 230.132C78.9193 229.457 78.623 228.537 78.623 227.37V227.158C78.623 226.438 78.7552 225.798 79.0195 225.237C79.2839 224.677 79.6621 224.242 80.1543 223.932C80.651 223.622 81.2367 223.467 81.9111 223.467C82.7406 223.467 83.4287 223.715 83.9756 224.212C84.527 224.709 84.821 225.354 84.8574 226.146H83.6611C83.6247 225.668 83.4424 225.276 83.1143 224.971C82.7907 224.661 82.3896 224.506 81.9111 224.506C81.2686 224.506 80.7695 224.738 80.4141 225.203C80.0632 225.663 79.8877 226.331 79.8877 227.206V227.445C79.8877 228.298 80.0632 228.954 80.4141 229.414C80.765 229.874 81.2663 230.104 81.918 230.104ZM90.1045 224.738C89.9131 224.706 89.7057 224.69 89.4824 224.69C88.653 224.69 88.0902 225.044 87.7939 225.75V231H86.5293V223.604H87.7598L87.7803 224.458C88.195 223.797 88.7829 223.467 89.5439 223.467C89.79 223.467 89.9769 223.499 90.1045 223.562V224.738ZM92.8975 231H91.6328V223.604H92.8975V231ZM91.5303 221.642C91.5303 221.437 91.5918 221.263 91.7148 221.122C91.8424 220.981 92.0293 220.91 92.2754 220.91C92.5215 220.91 92.7083 220.981 92.8359 221.122C92.9635 221.263 93.0273 221.437 93.0273 221.642C93.0273 221.847 92.9635 222.018 92.8359 222.154C92.7083 222.291 92.5215 222.359 92.2754 222.359C92.0293 222.359 91.8424 222.291 91.7148 222.154C91.5918 222.018 91.5303 221.847 91.5303 221.642ZM101.426 227.384C101.426 228.509 101.168 229.416 100.653 230.104C100.138 230.793 99.4411 231.137 98.5615 231.137C97.6637 231.137 96.9574 230.852 96.4424 230.282V233.844H95.1777V223.604H96.333L96.3945 224.424C96.9095 223.786 97.625 223.467 98.541 223.467C99.4297 223.467 100.132 223.802 100.646 224.472C101.166 225.142 101.426 226.074 101.426 227.268V227.384ZM100.161 227.24C100.161 226.406 99.9834 225.748 99.6279 225.265C99.2725 224.782 98.7848 224.54 98.165 224.54C97.3994 224.54 96.8252 224.88 96.4424 225.559V229.093C96.8206 229.767 97.3994 230.104 98.1787 230.104C98.7848 230.104 99.2656 229.865 99.6211 229.387C99.9811 228.904 100.161 228.188 100.161 227.24ZM105.005 221.812V223.604H106.386V224.581H105.005V229.168C105.005 229.464 105.066 229.688 105.189 229.838C105.312 229.984 105.522 230.057 105.818 230.057C105.964 230.057 106.165 230.029 106.42 229.975V231C106.087 231.091 105.764 231.137 105.449 231.137C104.884 231.137 104.458 230.966 104.171 230.624C103.884 230.282 103.74 229.797 103.74 229.168V224.581H102.394V223.604H103.74V221.812H105.005ZM109.493 231H108.229V223.604H109.493V231ZM108.126 221.642C108.126 221.437 108.188 221.263 108.311 221.122C108.438 220.981 108.625 220.91 108.871 220.91C109.117 220.91 109.304 220.981 109.432 221.122C109.559 221.263 109.623 221.437 109.623 221.642C109.623 221.847 109.559 222.018 109.432 222.154C109.304 222.291 109.117 222.359 108.871 222.359C108.625 222.359 108.438 222.291 108.311 222.154C108.188 222.018 108.126 221.847 108.126 221.642ZM111.438 227.233C111.438 226.509 111.58 225.857 111.862 225.278C112.149 224.7 112.546 224.253 113.052 223.938C113.562 223.624 114.143 223.467 114.795 223.467C115.802 223.467 116.616 223.815 117.235 224.513C117.86 225.21 118.172 226.137 118.172 227.295V227.384C118.172 228.104 118.033 228.751 117.755 229.325C117.481 229.895 117.087 230.339 116.572 230.658C116.062 230.977 115.474 231.137 114.809 231.137C113.806 231.137 112.993 230.788 112.368 230.091C111.748 229.394 111.438 228.471 111.438 227.322V227.233ZM112.71 227.384C112.71 228.204 112.899 228.863 113.277 229.359C113.66 229.856 114.171 230.104 114.809 230.104C115.451 230.104 115.962 229.854 116.34 229.353C116.718 228.847 116.907 228.14 116.907 227.233C116.907 226.422 116.714 225.766 116.326 225.265C115.943 224.759 115.433 224.506 114.795 224.506C114.171 224.506 113.667 224.754 113.284 225.251C112.901 225.748 112.71 226.459 112.71 227.384ZM121.204 223.604L121.245 224.533C121.81 223.822 122.549 223.467 123.46 223.467C125.023 223.467 125.812 224.349 125.825 226.112V231H124.561V226.105C124.556 225.572 124.433 225.178 124.191 224.923C123.954 224.668 123.583 224.54 123.077 224.54C122.667 224.54 122.307 224.649 121.997 224.868C121.687 225.087 121.446 225.374 121.272 225.729V231H120.008V223.604H121.204Z" fill="black" fill-opacity="0.6"/>
<path d="M25.0625 207H23.5547V201.742H17.8203V207H16.3203V195.625H17.8203V200.516H23.5547V195.625H25.0625V207ZM32.8687 207C32.7854 206.833 32.7177 206.536 32.6656 206.109C31.9937 206.807 31.1917 207.156 30.2594 207.156C29.426 207.156 28.7411 206.922 28.2047 206.453C27.6734 205.979 27.4078 205.38 27.4078 204.656C27.4078 203.776 27.7411 203.094 28.4078 202.609C29.0797 202.12 30.0224 201.875 31.2359 201.875H32.6422V201.211C32.6422 200.706 32.4911 200.305 32.1891 200.008C31.887 199.706 31.4417 199.555 30.8531 199.555C30.3375 199.555 29.9052 199.685 29.5562 199.945C29.2073 200.206 29.0328 200.521 29.0328 200.891H27.5797C27.5797 200.469 27.7281 200.062 28.025 199.672C28.3271 199.276 28.7333 198.964 29.2437 198.734C29.7594 198.505 30.3245 198.391 30.9391 198.391C31.913 198.391 32.676 198.635 33.2281 199.125C33.7802 199.609 34.0667 200.279 34.0875 201.133V205.023C34.0875 205.799 34.1865 206.417 34.3844 206.875V207H32.8687ZM30.4703 205.898C30.9234 205.898 31.3531 205.781 31.7594 205.547C32.1656 205.312 32.4599 205.008 32.6422 204.633V202.898H31.5094C29.7385 202.898 28.8531 203.417 28.8531 204.453C28.8531 204.906 29.0042 205.26 29.3062 205.516C29.6083 205.771 29.9964 205.898 30.4703 205.898ZM43.6594 202.867C43.6594 204.159 43.3625 205.198 42.7687 205.984C42.175 206.766 41.3781 207.156 40.3781 207.156C39.3104 207.156 38.4849 206.779 37.9016 206.023L37.8312 207H36.5031V195H37.9484V199.477C38.5318 198.753 39.3365 198.391 40.3625 198.391C41.3885 198.391 42.1932 198.779 42.7766 199.555C43.3651 200.331 43.6594 201.393 43.6594 202.742V202.867ZM42.2141 202.703C42.2141 201.719 42.024 200.958 41.6437 200.422C41.2635 199.885 40.7167 199.617 40.0031 199.617C39.05 199.617 38.3651 200.06 37.9484 200.945V204.602C38.3911 205.487 39.0812 205.93 40.0187 205.93C40.7115 205.93 41.2505 205.661 41.6359 205.125C42.0214 204.589 42.2141 203.781 42.2141 202.703ZM47.2078 207H45.7625V198.547H47.2078V207ZM45.6453 196.305C45.6453 196.07 45.7156 195.872 45.8563 195.711C46.0021 195.549 46.2156 195.469 46.4969 195.469C46.7781 195.469 46.9917 195.549 47.1375 195.711C47.2833 195.872 47.3563 196.07 47.3563 196.305C47.3563 196.539 47.2833 196.734 47.1375 196.891C46.9917 197.047 46.7781 197.125 46.4969 197.125C46.2156 197.125 46.0021 197.047 45.8563 196.891C45.7156 196.734 45.6453 196.539 45.6453 196.305ZM51.6391 196.5V198.547H53.2172V199.664H51.6391V204.906C51.6391 205.245 51.7094 205.5 51.85 205.672C51.9906 205.839 52.2302 205.922 52.5687 205.922C52.7354 205.922 52.9646 205.891 53.2562 205.828V207C52.876 207.104 52.5062 207.156 52.1469 207.156C51.501 207.156 51.0141 206.961 50.6859 206.57C50.3578 206.18 50.1937 205.625 50.1937 204.906V199.664H48.6547V198.547H50.1937V196.5H51.6391ZM59.4078 207V195.625H63.1266C64.3609 195.625 65.288 195.88 65.9078 196.391C66.5328 196.901 66.8453 197.656 66.8453 198.656C66.8453 199.188 66.6943 199.659 66.3922 200.07C66.0901 200.477 65.6786 200.792 65.1578 201.016C65.7724 201.188 66.2568 201.516 66.6109 202C66.9703 202.479 67.15 203.052 67.15 203.719C67.15 204.74 66.8193 205.542 66.1578 206.125C65.4964 206.708 64.5615 207 63.3531 207H59.4078ZM60.9078 201.68V205.773H63.3844C64.0823 205.773 64.6318 205.594 65.0328 205.234C65.4391 204.87 65.6422 204.37 65.6422 203.734C65.6422 202.365 64.8974 201.68 63.4078 201.68H60.9078ZM60.9078 200.477H63.1734C63.8297 200.477 64.3531 200.312 64.7438 199.984C65.1396 199.656 65.3375 199.211 65.3375 198.648C65.3375 198.023 65.1552 197.57 64.7906 197.289C64.426 197.003 63.8714 196.859 63.1266 196.859H60.9078V200.477Z" fill="black" fill-opacity="0.87"/>
<path d="M20.9229 177.891V182.642C20.9229 183.397 20.6803 183.996 20.1953 184.438C19.7135 184.878 19.0706 185.098 18.2666 185.098C17.4528 185.098 16.8066 184.881 16.3281 184.448C15.8496 184.012 15.6104 183.408 15.6104 182.637V177.891H16.8408V182.646C16.8408 183.122 16.9613 183.485 17.2021 183.735C17.443 183.986 17.7979 184.111 18.2666 184.111C19.2171 184.111 19.6924 183.61 19.6924 182.607V177.891H20.9229ZM27.4619 183.169C27.4619 182.856 27.3512 182.616 27.1299 182.446C26.9118 182.277 26.5163 182.106 25.9434 181.934C25.3704 181.761 24.9147 181.569 24.5762 181.357C23.9284 180.951 23.6045 180.42 23.6045 179.766C23.6045 179.193 23.8372 178.721 24.3027 178.35C24.7715 177.979 25.3786 177.793 26.124 177.793C26.6188 177.793 27.0599 177.884 27.4473 178.066C27.8346 178.249 28.139 178.509 28.3604 178.848C28.5817 179.183 28.6924 179.556 28.6924 179.966H27.4619C27.4619 179.595 27.3447 179.305 27.1104 179.097C26.8792 178.885 26.5472 178.779 26.1143 178.779C25.7106 178.779 25.3965 178.866 25.1719 179.038C24.9505 179.211 24.8398 179.451 24.8398 179.761C24.8398 180.021 24.9603 180.239 25.2012 180.415C25.4421 180.588 25.8392 180.757 26.3926 180.923C26.946 181.086 27.3903 181.273 27.7256 181.484C28.0609 181.693 28.3066 181.934 28.4629 182.207C28.6191 182.477 28.6973 182.795 28.6973 183.159C28.6973 183.752 28.4694 184.224 28.0137 184.575C27.5612 184.924 26.946 185.098 26.168 185.098C25.6536 185.098 25.18 185.003 24.7471 184.814C24.3174 184.622 23.9821 184.359 23.7412 184.023C23.5036 183.688 23.3848 183.298 23.3848 182.852H24.6201C24.6201 183.255 24.7536 183.568 25.0205 183.789C25.2874 184.01 25.6699 184.121 26.168 184.121C26.5977 184.121 26.9199 184.035 27.1348 183.862C27.3529 183.687 27.4619 183.455 27.4619 183.169ZM35.4365 181.826H32.5166V184.014H35.9297V185H31.2812V177.891H35.8955V178.887H32.5166V180.85H35.4365V181.826ZM41.0479 182.261H39.6709V185H38.4355V177.891H40.9355C41.7559 177.891 42.389 178.075 42.835 178.442C43.2809 178.81 43.5039 179.342 43.5039 180.039C43.5039 180.514 43.3883 180.913 43.1572 181.235C42.9294 181.554 42.6104 181.8 42.2002 181.973L43.7969 184.937V185H42.4736L41.0479 182.261ZM39.6709 181.27H40.9404C41.3571 181.27 41.6826 181.165 41.917 180.957C42.1514 180.745 42.2686 180.457 42.2686 180.093C42.2686 179.712 42.1595 179.417 41.9414 179.209C41.7266 179.001 41.4043 178.893 40.9746 178.887H39.6709V181.27ZM54.7559 185H49.9756V184.185L52.3438 181.602C52.6855 181.221 52.9281 180.903 53.0713 180.649C53.2178 180.392 53.291 180.135 53.291 179.878C53.291 179.539 53.195 179.266 53.0029 179.058C52.8141 178.849 52.5586 178.745 52.2363 178.745C51.8522 178.745 51.5544 178.862 51.3428 179.097C51.1312 179.331 51.0254 179.652 51.0254 180.059H49.8389C49.8389 179.626 49.9365 179.237 50.1318 178.892C50.3304 178.543 50.612 178.273 50.9766 178.081C51.3444 177.889 51.7676 177.793 52.2461 177.793C52.9362 177.793 53.4798 177.967 53.877 178.315C54.2773 178.66 54.4775 179.139 54.4775 179.751C54.4775 180.106 54.3766 180.479 54.1748 180.869C53.9762 181.257 53.6491 181.698 53.1934 182.192L51.4551 184.053H54.7559V185Z" fill="black" fill-opacity="0.6"/>
<rect x="16.4222" y="251" width="374.578" height="1" fill="#212121" fill-opacity="0.08"/>
<path fill-rule="evenodd" clip-rule="evenodd" d="M379 204C380.1 204 381 203.1 381 202C381 200.9 380.1 200 379 200C377.9 200 377 200.9 377 202C377 203.1 377.9 204 379 204ZM379 206C377.9 206 377 206.9 377 208C377 209.1 377.9 210 379 210C380.1 210 381 209.1 381 208C381 206.9 380.1 206 379 206ZM379 212C377.9 212 377 212.9 377 214C377 215.1 377.9 216 379 216C380.1 216 381 215.1 381 214C381 212.9 380.1 212 379 212Z" fill="black" fill-opacity="0.6"/>
</g>
</g>
<defs>
<filter id="filter0_ddd" x="-8" y="652" width="427.25" height="88" filterUnits="userSpaceOnUse" color-interpolation-filters="sRGB">
<feFlood flood-opacity="0" result="BackgroundImageFix"/>
<feColorMatrix in="SourceAlpha" type="matrix" values="0 0 0 0 0 0 0 0 0 0 0 0 0 0 0 0 0 0 127 0" result="hardAlpha"/>
<feOffset dy="1"/>
<feGaussianBlur stdDeviation="4"/>
<feColorMatrix type="matrix" values="0 0 0 0 0 0 0 0 0 0 0 0 0 0 0 0 0 0 0.2 0"/>
<feBlend mode="normal" in2="BackgroundImageFix" result="effect1_dropShadow"/>
<feColorMatrix in="SourceAlpha" type="matrix" values="0 0 0 0 0 0 0 0 0 0 0 0 0 0 0 0 0 0 127 0" result="hardAlpha"/>
<feOffset dy="3"/>
<feGaussianBlur stdDeviation="1.5"/>
<feColorMatrix type="matrix" values="0 0 0 0 0 0 0 0 0 0 0 0 0 0 0 0 0 0 0.12 0"/>
<feBlend mode="normal" in2="effect1_dropShadow" result="effect2_dropShadow"/>
<feColorMatrix in="SourceAlpha" type="matrix" values="0 0 0 0 0 0 0 0 0 0 0 0 0 0 0 0 0 0 127 0" result="hardAlpha"/>
<feOffset dy="3"/>
<feGaussianBlur stdDeviation="2"/>
<feColorMatrix type="matrix" values="0 0 0 0 0 0 0 0 0 0 0 0 0 0 0 0 0 0 0.14 0"/>
<feBlend mode="normal" in2="effect2_dropShadow" result="effect3_dropShadow"/>
<feBlend mode="normal" in="SourceGraphic" in2="effect3_dropShadow" result="shape"/>
</filter>
<filter id="filter1_ddd" x="-10" y="-9" width="431" height="76" filterUnits="userSpaceOnUse" color-interpolation-filters="sRGB">
<feFlood flood-opacity="0" result="BackgroundImageFix"/>
<feColorMatrix in="SourceAlpha" type="matrix" values="0 0 0 0 0 0 0 0 0 0 0 0 0 0 0 0 0 0 127 0" result="hardAlpha"/>
<feOffset dy="2"/>
<feGaussianBlur stdDeviation="2"/>
<feColorMatrix type="matrix" values="0 0 0 0 0 0 0 0 0 0 0 0 0 0 0 0 0 0 0.2 0"/>
<feBlend mode="normal" in2="BackgroundImageFix" result="effect1_dropShadow"/>
<feColorMatrix in="SourceAlpha" type="matrix" values="0 0 0 0 0 0 0 0 0 0 0 0 0 0 0 0 0 0 127 0" result="hardAlpha"/>
<feOffset dy="1"/>
<feGaussianBlur stdDeviation="5"/>
<feColorMatrix type="matrix" values="0 0 0 0 0 0 0 0 0 0 0 0 0 0 0 0 0 0 0.12 0"/>
<feBlend mode="normal" in2="effect1_dropShadow" result="effect2_dropShadow"/>
<feColorMatrix in="SourceAlpha" type="matrix" values="0 0 0 0 0 0 0 0 0 0 0 0 0 0 0 0 0 0 127 0" result="hardAlpha"/>
<feOffset dy="4"/>
<feGaussianBlur stdDeviation="2.5"/>
<feColorMatrix type="matrix" values="0 0 0 0 0 0 0 0 0 0 0 0 0 0 0 0 0 0 0.14 0"/>
<feBlend mode="normal" in2="effect2_dropShadow" result="effect3_dropShadow"/>
<feBlend mode="normal" in="SourceGraphic" in2="effect3_dropShadow" result="shape"/>
</filter>
<clipPath id="clip0">
<rect width="411" height="731" fill="white"/>
</clipPath>
</defs>
</svg>
