<svg width="411" height="731" viewBox="0 0 411 731" fill="none" xmlns="http://www.w3.org/2000/svg">
<rect width="411" height="731" fill="#F1F1F1"/>
<rect width="411" height="731" fill="white"/>
<rect width="411" height="56" fill="#6200EE"/>
<path fill-rule="evenodd" clip-rule="evenodd" d="M31.41 23.41L30 22L24 28L30 34L31.41 32.59L26.83 28L31.41 23.41Z" fill="white"/>
<path d="M82.7559 28.6523H76.916V33.0273H83.7422V35H74.4453V20.7812H83.6738V22.7734H76.916V26.6992H82.7559V28.6523ZM85.0348 29.6387C85.0348 28.0111 85.4124 26.7057 86.1676 25.7227C86.9228 24.7331 87.9352 24.2383 89.2047 24.2383C90.3245 24.2383 91.2294 24.6289 91.9195 25.4102V20H94.2926V35H92.1441L92.027 33.9062C91.3173 34.7656 90.3701 35.1953 89.1852 35.1953C87.9482 35.1953 86.9456 34.6973 86.1773 33.7012C85.4156 32.7051 85.0348 31.3509 85.0348 29.6387ZM87.4078 29.8438C87.4078 30.918 87.6129 31.7578 88.023 32.3633C88.4397 32.9622 89.0289 33.2617 89.7906 33.2617C90.7607 33.2617 91.4703 32.8288 91.9195 31.9629V27.4512C91.4833 26.6048 90.7802 26.1816 89.8102 26.1816C89.0419 26.1816 88.4495 26.4876 88.0328 27.0996C87.6161 27.7051 87.4078 28.6198 87.4078 29.8438ZM99.4426 35H97.0695V24.4336H99.4426V35ZM96.923 21.6895C96.923 21.3249 97.037 21.0221 97.2648 20.7812C97.4992 20.5404 97.8312 20.4199 98.2609 20.4199C98.6906 20.4199 99.0227 20.5404 99.257 20.7812C99.4914 21.0221 99.6086 21.3249 99.6086 21.6895C99.6086 22.0475 99.4914 22.347 99.257 22.5879C99.0227 22.8223 98.6906 22.9395 98.2609 22.9395C97.8312 22.9395 97.4992 22.8223 97.2648 22.5879C97.037 22.347 96.923 22.0475 96.923 21.6895ZM105.159 21.8652V24.4336H107.024V26.1914H105.159V32.0898C105.159 32.4935 105.237 32.7865 105.393 32.9688C105.556 33.1445 105.843 33.2324 106.253 33.2324C106.526 33.2324 106.803 33.1999 107.083 33.1348V34.9707C106.542 35.1204 106.022 35.1953 105.52 35.1953C103.697 35.1953 102.786 34.1895 102.786 32.1777V26.1914H101.048V24.4336H102.786V21.8652H105.159ZM125.645 35H123.184V28.6816H116.826V35H114.355V20.7812H116.826V26.6992H123.184V20.7812H125.645V35ZM134.808 35C134.704 34.7982 134.613 34.4694 134.535 34.0137C133.78 34.8014 132.855 35.1953 131.761 35.1953C130.7 35.1953 129.834 34.8926 129.164 34.2871C128.493 33.6816 128.158 32.9329 128.158 32.041C128.158 30.9147 128.574 30.0521 129.408 29.4531C130.248 28.8477 131.446 28.5449 133.002 28.5449H134.457V27.8516C134.457 27.3047 134.304 26.8685 133.998 26.543C133.692 26.2109 133.226 26.0449 132.601 26.0449C132.061 26.0449 131.618 26.1816 131.273 26.4551C130.928 26.722 130.755 27.0638 130.755 27.4805H128.382C128.382 26.901 128.574 26.3607 128.959 25.8594C129.343 25.3516 129.864 24.9544 130.521 24.668C131.185 24.3815 131.924 24.2383 132.738 24.2383C133.975 24.2383 134.961 24.5508 135.697 25.1758C136.433 25.7943 136.81 26.6667 136.83 27.793V32.5586C136.83 33.5091 136.963 34.2676 137.23 34.834V35H134.808ZM132.201 33.291C132.67 33.291 133.109 33.1771 133.519 32.9492C133.936 32.7214 134.248 32.4154 134.457 32.0312V30.0391H133.177C132.298 30.0391 131.638 30.1921 131.195 30.498C130.752 30.804 130.531 31.237 130.531 31.7969C130.531 32.2526 130.681 32.6172 130.98 32.8906C131.286 33.1576 131.693 33.291 132.201 33.291ZM148.738 29.8242C148.738 31.4648 148.37 32.7702 147.634 33.7402C146.905 34.7103 145.899 35.1953 144.616 35.1953C143.379 35.1953 142.416 34.7493 141.726 33.8574L141.609 35H139.46V20H141.833V25.4492C142.517 24.6419 143.438 24.2383 144.597 24.2383C145.886 24.2383 146.898 24.7168 147.634 25.6738C148.37 26.6309 148.738 27.9688 148.738 29.6875V29.8242ZM146.364 29.6191C146.364 28.4733 146.163 27.6139 145.759 27.041C145.355 26.4681 144.769 26.1816 144.001 26.1816C142.973 26.1816 142.25 26.6309 141.833 27.5293V31.8848C142.256 32.8027 142.986 33.2617 144.021 33.2617C144.763 33.2617 145.336 32.985 145.739 32.4316C146.143 31.8783 146.351 31.0417 146.364 29.9219V29.6191ZM153.409 35H151.036V24.4336H153.409V35ZM150.889 21.6895C150.889 21.3249 151.003 21.0221 151.231 20.7812C151.466 20.5404 151.798 20.4199 152.227 20.4199C152.657 20.4199 152.989 20.5404 153.223 20.7812C153.458 21.0221 153.575 21.3249 153.575 21.6895C153.575 22.0475 153.458 22.347 153.223 22.5879C152.989 22.8223 152.657 22.9395 152.227 22.9395C151.798 22.9395 151.466 22.8223 151.231 22.5879C151.003 22.347 150.889 22.0475 150.889 21.6895ZM159.125 21.8652V24.4336H160.991V26.1914H159.125V32.0898C159.125 32.4935 159.204 32.7865 159.36 32.9688C159.523 33.1445 159.809 33.2324 160.219 33.2324C160.493 33.2324 160.769 33.1999 161.049 33.1348V34.9707C160.509 35.1204 159.988 35.1953 159.487 35.1953C157.664 35.1953 156.752 34.1895 156.752 32.1777V26.1914H155.014V24.4336H156.752V21.8652H159.125Z" fill="white"/>
<path d="M382.938 18C377.389 18 372.886 22.48 372.886 28C372.886 33.52 377.389 38 382.938 38C388.486 38 392.99 33.52 392.99 28C392.99 22.48 388.486 18 382.938 18ZM383.943 35H381.933V33H383.943V35ZM386.024 27.25L385.119 28.17C384.395 28.9 383.943 29.5 383.943 31H381.933V30.5C381.933 29.4 382.385 28.4 383.109 27.67L384.355 26.41C384.727 26.05 384.948 25.55 384.948 25C384.948 23.9 384.044 23 382.938 23C381.832 23 380.927 23.9 380.927 25H378.917C378.917 22.79 380.716 21 382.938 21C385.159 21 386.959 22.79 386.959 25C386.959 25.88 386.597 26.68 386.024 27.25Z" fill="white" fill-opacity="0.74"/>
<path d="M14 90C14 87.7909 15.7909 86 18 86H389C391.209 86 393 87.7909 393 90V140H14V90Z" fill="#212121" fill-opacity="0.08"/>
<path fill-rule="evenodd" clip-rule="evenodd" d="M50 110H34V112H50V110ZM34 116H50V114H34V116Z" fill="black" fill-opacity="0.87"/>
<path d="M74.8848 98.3945H72.1426V106H71.0234V98.3945H68.2871V97.4688H74.8848V98.3945ZM77.5582 106H76.4742V99.6602H77.5582V106ZM76.3863 97.9785C76.3863 97.8027 76.4391 97.6543 76.5445 97.5332C76.6539 97.4121 76.8141 97.3516 77.025 97.3516C77.2359 97.3516 77.3961 97.4121 77.5055 97.5332C77.6148 97.6543 77.6695 97.8027 77.6695 97.9785C77.6695 98.1543 77.6148 98.3008 77.5055 98.418C77.3961 98.5352 77.2359 98.5938 77.025 98.5938C76.8141 98.5938 76.6539 98.5352 76.5445 98.418C76.4391 98.3008 76.3863 98.1543 76.3863 97.9785ZM81.1691 98.125V99.6602H82.3527V100.498H81.1691V104.43C81.1691 104.684 81.2219 104.875 81.3273 105.004C81.4328 105.129 81.6125 105.191 81.8664 105.191C81.9914 105.191 82.1633 105.168 82.382 105.121V106C82.0969 106.078 81.8195 106.117 81.55 106.117C81.0656 106.117 80.7004 105.971 80.4543 105.678C80.2082 105.385 80.0852 104.969 80.0852 104.43V100.498H78.9309V99.6602H80.0852V98.125H81.1691ZM85.202 106H84.118V97H85.202V106ZM89.973 106.117C89.1137 106.117 88.4145 105.836 87.8754 105.273C87.3363 104.707 87.0668 103.951 87.0668 103.006V102.807C87.0668 102.178 87.1859 101.617 87.4242 101.125C87.6664 100.629 88.0023 100.242 88.432 99.9648C88.8656 99.6836 89.3344 99.543 89.8383 99.543C90.6625 99.543 91.3031 99.8145 91.7602 100.357C92.2172 100.9 92.4457 101.678 92.4457 102.689V103.141H88.1508C88.1664 103.766 88.348 104.271 88.6957 104.658C89.0473 105.041 89.4926 105.232 90.0316 105.232C90.4145 105.232 90.7387 105.154 91.0043 104.998C91.2699 104.842 91.5023 104.635 91.7016 104.377L92.3637 104.893C91.8324 105.709 91.0355 106.117 89.973 106.117ZM89.8383 100.434C89.4008 100.434 89.0336 100.594 88.7367 100.914C88.4398 101.23 88.2563 101.676 88.1859 102.25H91.3617V102.168C91.3305 101.617 91.182 101.191 90.9164 100.891C90.6508 100.586 90.2914 100.434 89.8383 100.434Z" fill="black" fill-opacity="0.6"/>
<path d="M78.0625 125H76.5547L70.8281 116.234V125H69.3203V113.625H70.8281L76.5703 122.43V113.625H78.0625V125ZM84.1578 125.156C83.012 125.156 82.0797 124.781 81.3609 124.031C80.6422 123.276 80.2828 122.268 80.2828 121.008V120.742C80.2828 119.904 80.4417 119.156 80.7594 118.5C81.0823 117.839 81.5302 117.323 82.1031 116.953C82.6812 116.578 83.3062 116.391 83.9781 116.391C85.0771 116.391 85.9312 116.753 86.5406 117.477C87.15 118.201 87.4547 119.237 87.4547 120.586V121.188H81.7281C81.749 122.021 81.9911 122.695 82.4547 123.211C82.9234 123.721 83.5172 123.977 84.2359 123.977C84.7464 123.977 85.1786 123.872 85.5328 123.664C85.887 123.456 86.1969 123.18 86.4625 122.836L87.3453 123.523C86.637 124.612 85.5745 125.156 84.1578 125.156ZM83.9781 117.578C83.3948 117.578 82.9052 117.792 82.5094 118.219C82.1135 118.641 81.8687 119.234 81.775 120H86.0094V119.891C85.9677 119.156 85.7698 118.589 85.4156 118.188C85.0615 117.781 84.5823 117.578 83.9781 117.578ZM96.7687 123.008L98.3937 116.547H99.8391L97.3781 125H96.2062L94.1516 118.594L92.1516 125H90.9797L88.5266 116.547H89.9641L91.6281 122.875L93.5969 116.547H94.7609L96.7687 123.008ZM114.553 125H113.045V119.742H107.311V125H105.811V113.625H107.311V118.516H113.045V113.625H114.553V125ZM122.359 125C122.276 124.833 122.208 124.536 122.156 124.109C121.484 124.807 120.682 125.156 119.75 125.156C118.917 125.156 118.232 124.922 117.695 124.453C117.164 123.979 116.898 123.38 116.898 122.656C116.898 121.776 117.232 121.094 117.898 120.609C118.57 120.12 119.513 119.875 120.727 119.875H122.133V119.211C122.133 118.706 121.982 118.305 121.68 118.008C121.378 117.706 120.932 117.555 120.344 117.555C119.828 117.555 119.396 117.685 119.047 117.945C118.698 118.206 118.523 118.521 118.523 118.891H117.07C117.07 118.469 117.219 118.062 117.516 117.672C117.818 117.276 118.224 116.964 118.734 116.734C119.25 116.505 119.815 116.391 120.43 116.391C121.404 116.391 122.167 116.635 122.719 117.125C123.271 117.609 123.557 118.279 123.578 119.133V123.023C123.578 123.799 123.677 124.417 123.875 124.875V125H122.359ZM119.961 123.898C120.414 123.898 120.844 123.781 121.25 123.547C121.656 123.312 121.951 123.008 122.133 122.633V120.898H121C119.229 120.898 118.344 121.417 118.344 122.453C118.344 122.906 118.495 123.26 118.797 123.516C119.099 123.771 119.487 123.898 119.961 123.898ZM133.15 120.867C133.15 122.159 132.853 123.198 132.259 123.984C131.666 124.766 130.869 125.156 129.869 125.156C128.801 125.156 127.976 124.779 127.392 124.023L127.322 125H125.994V113H127.439V117.477C128.022 116.753 128.827 116.391 129.853 116.391C130.879 116.391 131.684 116.779 132.267 117.555C132.856 118.331 133.15 119.393 133.15 120.742V120.867ZM131.705 120.703C131.705 119.719 131.515 118.958 131.134 118.422C130.754 117.885 130.207 117.617 129.494 117.617C128.541 117.617 127.856 118.06 127.439 118.945V122.602C127.882 123.487 128.572 123.93 129.509 123.93C130.202 123.93 130.741 123.661 131.127 123.125C131.512 122.589 131.705 121.781 131.705 120.703ZM136.698 125H135.253V116.547H136.698V125ZM135.136 114.305C135.136 114.07 135.206 113.872 135.347 113.711C135.493 113.549 135.706 113.469 135.988 113.469C136.269 113.469 136.482 113.549 136.628 113.711C136.774 113.872 136.847 114.07 136.847 114.305C136.847 114.539 136.774 114.734 136.628 114.891C136.482 115.047 136.269 115.125 135.988 115.125C135.706 115.125 135.493 115.047 135.347 114.891C135.206 114.734 135.136 114.539 135.136 114.305ZM141.13 114.5V116.547H142.708V117.664H141.13V122.906C141.13 123.245 141.2 123.5 141.341 123.672C141.481 123.839 141.721 123.922 142.059 123.922C142.226 123.922 142.455 123.891 142.747 123.828V125C142.367 125.104 141.997 125.156 141.637 125.156C140.992 125.156 140.505 124.961 140.177 124.57C139.848 124.18 139.684 123.625 139.684 122.906V117.664H138.145V116.547H139.684V114.5H141.13Z" fill="black" fill-opacity="0.87"/>
<rect x="14" y="140" width="379" height="1" fill="black" fill-opacity="0.6"/>
<path d="M14 175C14 172.791 15.7909 171 18 171H390C392.209 171 394 172.791 394 175V227H14V175Z" fill="#212121" fill-opacity="0.08"/>
<path fill-rule="evenodd" clip-rule="evenodd" d="M39 203.2L34.8 199L33.4 200.4L39 206L51 194L49.6 192.6L39 203.2Z" fill="black" fill-opacity="0.87"/>
<path d="M72.1191 187.549H70.1152V191H68.9844V182.469H71.8086C72.7695 182.469 73.5078 182.688 74.0234 183.125C74.543 183.562 74.8027 184.199 74.8027 185.035C74.8027 185.566 74.6582 186.029 74.3691 186.424C74.084 186.818 73.6855 187.113 73.1738 187.309L75.1777 190.93V191H73.9707L72.1191 187.549ZM70.1152 186.629H71.8438C72.4023 186.629 72.8457 186.484 73.1738 186.195C73.5059 185.906 73.6719 185.52 73.6719 185.035C73.6719 184.508 73.5137 184.104 73.1973 183.822C72.8848 183.541 72.4316 183.398 71.8379 183.395H70.1152V186.629ZM79.2457 191.117C78.3863 191.117 77.6871 190.836 77.148 190.273C76.609 189.707 76.3395 188.951 76.3395 188.006V187.807C76.3395 187.178 76.4586 186.617 76.6969 186.125C76.9391 185.629 77.275 185.242 77.7047 184.965C78.1383 184.684 78.607 184.543 79.1109 184.543C79.9352 184.543 80.5758 184.814 81.0328 185.357C81.4898 185.9 81.7184 186.678 81.7184 187.689V188.141H77.4234C77.4391 188.766 77.6207 189.271 77.9684 189.658C78.3199 190.041 78.7652 190.232 79.3043 190.232C79.6871 190.232 80.0113 190.154 80.277 189.998C80.5426 189.842 80.775 189.635 80.9742 189.377L81.6363 189.893C81.1051 190.709 80.3082 191.117 79.2457 191.117ZM79.1109 185.434C78.6734 185.434 78.3063 185.594 78.0094 185.914C77.7125 186.23 77.5289 186.676 77.4586 187.25H80.6344V187.168C80.6031 186.617 80.4547 186.191 80.1891 185.891C79.9234 185.586 79.5641 185.434 79.1109 185.434ZM87.2922 191C87.2297 190.875 87.1789 190.652 87.1398 190.332C86.6359 190.855 86.0344 191.117 85.3352 191.117C84.7102 191.117 84.1965 190.941 83.7941 190.59C83.3957 190.234 83.1965 189.785 83.1965 189.242C83.1965 188.582 83.4465 188.07 83.9465 187.707C84.4504 187.34 85.1574 187.156 86.0676 187.156H87.1223V186.658C87.1223 186.279 87.009 185.979 86.7824 185.756C86.5559 185.529 86.2219 185.416 85.7805 185.416C85.3938 185.416 85.0695 185.514 84.8078 185.709C84.5461 185.904 84.4152 186.141 84.4152 186.418H83.3254C83.3254 186.102 83.4367 185.797 83.6594 185.504C83.8859 185.207 84.1906 184.973 84.5734 184.801C84.9602 184.629 85.384 184.543 85.8449 184.543C86.5754 184.543 87.1477 184.727 87.5617 185.094C87.9758 185.457 88.1906 185.959 88.2063 186.6V189.518C88.2063 190.1 88.2805 190.562 88.4289 190.906V191H87.2922ZM85.4934 190.174C85.8332 190.174 86.1555 190.086 86.4602 189.91C86.7648 189.734 86.9855 189.506 87.1223 189.225V187.924H86.2727C84.9445 187.924 84.2805 188.312 84.2805 189.09C84.2805 189.43 84.3938 189.695 84.6203 189.887C84.8469 190.078 85.1379 190.174 85.4934 190.174ZM93.9969 189.318C93.9969 189.025 93.8855 188.799 93.6629 188.639C93.4441 188.475 93.0594 188.334 92.5086 188.217C91.9617 188.1 91.5262 187.959 91.202 187.795C90.8816 187.631 90.6434 187.436 90.4871 187.209C90.3348 186.982 90.2586 186.713 90.2586 186.4C90.2586 185.881 90.4773 185.441 90.9148 185.082C91.3563 184.723 91.9188 184.543 92.6023 184.543C93.3211 184.543 93.9031 184.729 94.3484 185.1C94.7977 185.471 95.0223 185.945 95.0223 186.523H93.9324C93.9324 186.227 93.8055 185.971 93.5516 185.756C93.3016 185.541 92.9852 185.434 92.6023 185.434C92.2078 185.434 91.8992 185.52 91.6766 185.691C91.4539 185.863 91.3426 186.088 91.3426 186.365C91.3426 186.627 91.4461 186.824 91.6531 186.957C91.8602 187.09 92.2332 187.217 92.7723 187.338C93.3152 187.459 93.7547 187.604 94.0906 187.771C94.4266 187.939 94.6746 188.143 94.8348 188.381C94.9988 188.615 95.0809 188.902 95.0809 189.242C95.0809 189.809 94.8543 190.264 94.4012 190.607C93.948 190.947 93.3602 191.117 92.6375 191.117C92.1297 191.117 91.6805 191.027 91.2898 190.848C90.8992 190.668 90.5926 190.418 90.3699 190.098C90.1512 189.773 90.0418 189.424 90.0418 189.049H91.1258C91.1453 189.412 91.2898 189.701 91.5594 189.916C91.8328 190.127 92.1922 190.232 92.6375 190.232C93.0477 190.232 93.3758 190.15 93.6219 189.986C93.8719 189.818 93.9969 189.596 93.9969 189.318ZM96.6059 187.771C96.6059 187.15 96.727 186.592 96.9691 186.096C97.2152 185.6 97.5551 185.217 97.9887 184.947C98.4262 184.678 98.9242 184.543 99.4828 184.543C100.346 184.543 101.043 184.842 101.575 185.439C102.11 186.037 102.377 186.832 102.377 187.824V187.9C102.377 188.518 102.258 189.072 102.02 189.564C101.786 190.053 101.448 190.434 101.006 190.707C100.569 190.98 100.065 191.117 99.4945 191.117C98.6352 191.117 97.9379 190.818 97.4027 190.221C96.8715 189.623 96.6059 188.832 96.6059 187.848V187.771ZM97.6957 187.9C97.6957 188.604 97.8578 189.168 98.182 189.594C98.5102 190.02 98.9477 190.232 99.4945 190.232C100.045 190.232 100.483 190.018 100.807 189.588C101.131 189.154 101.293 188.549 101.293 187.771C101.293 187.076 101.127 186.514 100.795 186.084C100.467 185.65 100.03 185.434 99.4828 185.434C98.9477 185.434 98.516 185.646 98.1879 186.072C97.8598 186.498 97.6957 187.107 97.6957 187.9ZM105.162 184.66L105.197 185.457C105.682 184.848 106.314 184.543 107.096 184.543C108.436 184.543 109.111 185.299 109.123 186.811V191H108.039V186.805C108.035 186.348 107.93 186.01 107.723 185.791C107.52 185.572 107.201 185.463 106.768 185.463C106.416 185.463 106.107 185.557 105.842 185.744C105.576 185.932 105.369 186.178 105.221 186.482V191H104.137V184.66H105.162Z" fill="black" fill-opacity="0.6"/>
<path d="M72.6719 206.93C71.3854 206.56 70.4479 206.107 69.8594 205.57C69.276 205.029 68.9844 204.362 68.9844 203.57C68.9844 202.674 69.3411 201.935 70.0547 201.352C70.7734 200.763 71.7057 200.469 72.8516 200.469C73.6328 200.469 74.3281 200.62 74.9375 200.922C75.5521 201.224 76.026 201.641 76.3594 202.172C76.6979 202.703 76.8672 203.284 76.8672 203.914H75.3594C75.3594 203.227 75.1406 202.688 74.7031 202.297C74.2656 201.901 73.6484 201.703 72.8516 201.703C72.112 201.703 71.5339 201.867 71.1172 202.195C70.7057 202.518 70.5 202.969 70.5 203.547C70.5 204.01 70.6953 204.404 71.0859 204.727C71.4818 205.044 72.151 205.336 73.0938 205.602C74.0417 205.867 74.7812 206.161 75.3125 206.484C75.849 206.802 76.2448 207.174 76.5 207.602C76.7604 208.029 76.8906 208.531 76.8906 209.109C76.8906 210.031 76.5312 210.771 75.8125 211.328C75.0938 211.88 74.1328 212.156 72.9297 212.156C72.1484 212.156 71.4193 212.008 70.7422 211.711C70.0651 211.409 69.5417 210.997 69.1719 210.477C68.8073 209.956 68.625 209.365 68.625 208.703H70.1328C70.1328 209.391 70.3854 209.935 70.8906 210.336C71.401 210.732 72.0807 210.93 72.9297 210.93C73.7214 210.93 74.3281 210.768 74.75 210.445C75.1719 210.122 75.3828 209.682 75.3828 209.125C75.3828 208.568 75.1875 208.138 74.7969 207.836C74.4062 207.529 73.6979 207.227 72.6719 206.93ZM78.3609 207.695C78.3609 206.867 78.5224 206.122 78.8453 205.461C79.1734 204.799 79.6266 204.289 80.2047 203.93C80.788 203.57 81.4521 203.391 82.1969 203.391C83.3479 203.391 84.2776 203.789 84.9859 204.586C85.6995 205.383 86.0562 206.443 86.0562 207.766V207.867C86.0562 208.69 85.8974 209.43 85.5797 210.086C85.2672 210.737 84.8167 211.245 84.2281 211.609C83.6448 211.974 82.9729 212.156 82.2125 212.156C81.0667 212.156 80.137 211.758 79.4234 210.961C78.7151 210.164 78.3609 209.109 78.3609 207.797V207.695ZM79.8141 207.867C79.8141 208.805 80.0302 209.557 80.4625 210.125C80.9 210.693 81.4833 210.977 82.2125 210.977C82.9469 210.977 83.5302 210.69 83.9625 210.117C84.3948 209.539 84.6109 208.732 84.6109 207.695C84.6109 206.768 84.3896 206.018 83.9469 205.445C83.5094 204.867 82.926 204.578 82.1969 204.578C81.4833 204.578 80.9078 204.862 80.4703 205.43C80.0328 205.997 79.8141 206.81 79.8141 207.867ZM89.3781 203.547L89.4172 204.484C90.037 203.755 90.8729 203.391 91.925 203.391C93.1073 203.391 93.912 203.844 94.3391 204.75C94.6203 204.344 94.9849 204.016 95.4328 203.766C95.8859 203.516 96.4198 203.391 97.0344 203.391C98.8885 203.391 99.8312 204.372 99.8625 206.336V212H98.4172V206.422C98.4172 205.818 98.2792 205.367 98.0031 205.07C97.7271 204.768 97.2635 204.617 96.6125 204.617C96.076 204.617 95.6307 204.779 95.2766 205.102C94.9224 205.419 94.7167 205.849 94.6594 206.391V212H93.2062V206.461C93.2062 205.232 92.6047 204.617 91.4016 204.617C90.4536 204.617 89.8052 205.021 89.4562 205.828V212H88.0109V203.547H89.3781ZM105.708 212.156C104.562 212.156 103.63 211.781 102.911 211.031C102.192 210.276 101.833 209.268 101.833 208.008V207.742C101.833 206.904 101.992 206.156 102.309 205.5C102.632 204.839 103.08 204.323 103.653 203.953C104.231 203.578 104.856 203.391 105.528 203.391C106.627 203.391 107.481 203.753 108.091 204.477C108.7 205.201 109.005 206.237 109.005 207.586V208.188H103.278C103.299 209.021 103.541 209.695 104.005 210.211C104.473 210.721 105.067 210.977 105.786 210.977C106.296 210.977 106.729 210.872 107.083 210.664C107.437 210.456 107.747 210.18 108.013 209.836L108.895 210.523C108.187 211.612 107.124 212.156 105.708 212.156ZM105.528 204.578C104.945 204.578 104.455 204.792 104.059 205.219C103.664 205.641 103.419 206.234 103.325 207H107.559V206.891C107.518 206.156 107.32 205.589 106.966 205.188C106.611 204.781 106.132 204.578 105.528 204.578ZM119.352 207.398H116.68V212H115.172V200.625H118.938C120.219 200.625 121.203 200.917 121.891 201.5C122.583 202.083 122.93 202.932 122.93 204.047C122.93 204.755 122.737 205.372 122.352 205.898C121.971 206.424 121.44 206.818 120.758 207.078L123.43 211.906V212H121.82L119.352 207.398ZM116.68 206.172H118.984C119.729 206.172 120.32 205.979 120.758 205.594C121.201 205.208 121.422 204.693 121.422 204.047C121.422 203.344 121.211 202.805 120.789 202.43C120.372 202.055 119.768 201.865 118.977 201.859H116.68V206.172ZM128.47 212.156C127.324 212.156 126.392 211.781 125.673 211.031C124.955 210.276 124.595 209.268 124.595 208.008V207.742C124.595 206.904 124.754 206.156 125.072 205.5C125.395 204.839 125.843 204.323 126.416 203.953C126.994 203.578 127.619 203.391 128.291 203.391C129.39 203.391 130.244 203.753 130.853 204.477C131.463 205.201 131.767 206.237 131.767 207.586V208.188H126.041C126.061 209.021 126.304 209.695 126.767 210.211C127.236 210.721 127.83 210.977 128.548 210.977C129.059 210.977 129.491 210.872 129.845 210.664C130.199 210.456 130.509 210.18 130.775 209.836L131.658 210.523C130.949 211.612 129.887 212.156 128.47 212.156ZM128.291 204.578C127.707 204.578 127.218 204.792 126.822 205.219C126.426 205.641 126.181 206.234 126.088 207H130.322V206.891C130.28 206.156 130.082 205.589 129.728 205.188C129.374 204.781 128.895 204.578 128.291 204.578ZM138.816 212C138.732 211.833 138.665 211.536 138.613 211.109C137.941 211.807 137.139 212.156 136.206 212.156C135.373 212.156 134.688 211.922 134.152 211.453C133.62 210.979 133.355 210.38 133.355 209.656C133.355 208.776 133.688 208.094 134.355 207.609C135.027 207.12 135.969 206.875 137.183 206.875H138.589V206.211C138.589 205.706 138.438 205.305 138.136 205.008C137.834 204.706 137.389 204.555 136.8 204.555C136.284 204.555 135.852 204.685 135.503 204.945C135.154 205.206 134.98 205.521 134.98 205.891H133.527C133.527 205.469 133.675 205.062 133.972 204.672C134.274 204.276 134.68 203.964 135.191 203.734C135.706 203.505 136.271 203.391 136.886 203.391C137.86 203.391 138.623 203.635 139.175 204.125C139.727 204.609 140.014 205.279 140.034 206.133V210.023C140.034 210.799 140.133 211.417 140.331 211.875V212H138.816ZM136.417 210.898C136.87 210.898 137.3 210.781 137.706 210.547C138.113 210.312 138.407 210.008 138.589 209.633V207.898H137.456C135.685 207.898 134.8 208.417 134.8 209.453C134.8 209.906 134.951 210.26 135.253 210.516C135.555 210.771 135.943 210.898 136.417 210.898ZM147.372 209.758C147.372 209.367 147.223 209.065 146.927 208.852C146.635 208.633 146.122 208.445 145.387 208.289C144.658 208.133 144.078 207.945 143.645 207.727C143.218 207.508 142.901 207.247 142.692 206.945C142.489 206.643 142.387 206.284 142.387 205.867C142.387 205.174 142.679 204.589 143.262 204.109C143.851 203.63 144.601 203.391 145.512 203.391C146.471 203.391 147.247 203.638 147.841 204.133C148.44 204.628 148.739 205.26 148.739 206.031H147.286C147.286 205.635 147.117 205.294 146.778 205.008C146.445 204.721 146.023 204.578 145.512 204.578C144.986 204.578 144.575 204.693 144.278 204.922C143.981 205.151 143.833 205.451 143.833 205.82C143.833 206.169 143.971 206.432 144.247 206.609C144.523 206.786 145.02 206.956 145.739 207.117C146.463 207.279 147.049 207.471 147.497 207.695C147.945 207.919 148.276 208.19 148.489 208.508C148.708 208.82 148.817 209.203 148.817 209.656C148.817 210.411 148.515 211.018 147.911 211.477C147.307 211.93 146.523 212.156 145.559 212.156C144.882 212.156 144.283 212.036 143.762 211.797C143.242 211.557 142.833 211.224 142.536 210.797C142.244 210.365 142.098 209.898 142.098 209.398H143.544C143.57 209.883 143.762 210.268 144.122 210.555C144.486 210.836 144.966 210.977 145.559 210.977C146.106 210.977 146.544 210.867 146.872 210.648C147.205 210.424 147.372 210.128 147.372 209.758ZM150.467 207.695C150.467 206.867 150.629 206.122 150.952 205.461C151.28 204.799 151.733 204.289 152.311 203.93C152.894 203.57 153.558 203.391 154.303 203.391C155.454 203.391 156.384 203.789 157.092 204.586C157.806 205.383 158.162 206.443 158.162 207.766V207.867C158.162 208.69 158.004 209.43 157.686 210.086C157.373 210.737 156.923 211.245 156.334 211.609C155.751 211.974 155.079 212.156 154.319 212.156C153.173 212.156 152.243 211.758 151.53 210.961C150.821 210.164 150.467 209.109 150.467 207.797V207.695ZM151.92 207.867C151.92 208.805 152.136 209.557 152.569 210.125C153.006 210.693 153.59 210.977 154.319 210.977C155.053 210.977 155.636 210.69 156.069 210.117C156.501 209.539 156.717 208.732 156.717 207.695C156.717 206.768 156.496 206.018 156.053 205.445C155.616 204.867 155.032 204.578 154.303 204.578C153.59 204.578 153.014 204.862 152.577 205.43C152.139 205.997 151.92 206.81 151.92 207.867ZM161.492 203.547L161.539 204.609C162.185 203.797 163.029 203.391 164.07 203.391C165.857 203.391 166.758 204.398 166.773 206.414V212H165.328V206.406C165.323 205.797 165.182 205.346 164.906 205.055C164.635 204.763 164.211 204.617 163.633 204.617C163.164 204.617 162.753 204.742 162.398 204.992C162.044 205.242 161.768 205.57 161.57 205.977V212H160.125V203.547H161.492Z" fill="black" fill-opacity="0.87"/>
<rect x="14" y="227" width="380" height="1" fill="black" fill-opacity="0.6"/>
<g filter="url(#filter0_ddd)">
<rect width="380" height="48" transform="translate(15 342)" fill="white"/>
<path d="M46.2051 361.469L48.9941 368.43L51.7832 361.469H53.2422V370H52.1172V366.678L52.2227 363.092L49.4219 370H48.5605L45.7656 363.109L45.877 366.678V370H44.752V361.469H46.2051Z" fill="black" fill-opacity="0.6"/>
<path d="M104.305 362.395H101.562V370H100.443V362.395H97.707V361.469H104.305V362.395Z" fill="black" fill-opacity="0.6"/>
<path d="M150.504 367.311L150.668 368.436L150.908 367.422L152.596 361.469H153.545L155.191 367.422L155.426 368.453L155.607 367.305L156.932 361.469H158.062L155.994 370H154.969L153.211 363.783L153.076 363.133L152.941 363.783L151.119 370H150.094L148.031 361.469H149.156L150.504 367.311Z" fill="black" fill-opacity="0.6"/>
<path d="M208.305 362.395H205.562V370H204.443V362.395H201.707V361.469H208.305V362.395Z" fill="black" fill-opacity="0.6"/>
<path d="M259.379 366.232H255.799V370H254.674V361.469H259.959V362.395H255.799V365.312H259.379V366.232Z" fill="black" fill-opacity="0.6"/>
<path d="M308.941 366.197C307.977 365.92 307.273 365.58 306.832 365.178C306.395 364.771 306.176 364.271 306.176 363.678C306.176 363.006 306.443 362.451 306.979 362.014C307.518 361.572 308.217 361.352 309.076 361.352C309.662 361.352 310.184 361.465 310.641 361.691C311.102 361.918 311.457 362.23 311.707 362.629C311.961 363.027 312.088 363.463 312.088 363.936H310.957C310.957 363.42 310.793 363.016 310.465 362.723C310.137 362.426 309.674 362.277 309.076 362.277C308.521 362.277 308.088 362.4 307.775 362.646C307.467 362.889 307.312 363.227 307.312 363.66C307.312 364.008 307.459 364.303 307.752 364.545C308.049 364.783 308.551 365.002 309.258 365.201C309.969 365.4 310.523 365.621 310.922 365.863C311.324 366.102 311.621 366.381 311.812 366.701C312.008 367.021 312.105 367.398 312.105 367.832C312.105 368.523 311.836 369.078 311.297 369.496C310.758 369.91 310.037 370.117 309.135 370.117C308.549 370.117 308.002 370.006 307.494 369.783C306.986 369.557 306.594 369.248 306.316 368.857C306.043 368.467 305.906 368.023 305.906 367.527H307.037C307.037 368.043 307.227 368.451 307.605 368.752C307.988 369.049 308.498 369.197 309.135 369.197C309.729 369.197 310.184 369.076 310.5 368.834C310.816 368.592 310.975 368.262 310.975 367.844C310.975 367.426 310.828 367.104 310.535 366.877C310.242 366.646 309.711 366.42 308.941 366.197Z" fill="black" fill-opacity="0.6"/>
<path d="M360.941 366.197C359.977 365.92 359.273 365.58 358.832 365.178C358.395 364.771 358.176 364.271 358.176 363.678C358.176 363.006 358.443 362.451 358.979 362.014C359.518 361.572 360.217 361.352 361.076 361.352C361.662 361.352 362.184 361.465 362.641 361.691C363.102 361.918 363.457 362.23 363.707 362.629C363.961 363.027 364.088 363.463 364.088 363.936H362.957C362.957 363.42 362.793 363.016 362.465 362.723C362.137 362.426 361.674 362.277 361.076 362.277C360.521 362.277 360.088 362.4 359.775 362.646C359.467 362.889 359.312 363.227 359.312 363.66C359.312 364.008 359.459 364.303 359.752 364.545C360.049 364.783 360.551 365.002 361.258 365.201C361.969 365.4 362.523 365.621 362.922 365.863C363.324 366.102 363.621 366.381 363.812 366.701C364.008 367.021 364.105 367.398 364.105 367.832C364.105 368.523 363.836 369.078 363.297 369.496C362.758 369.91 362.037 370.117 361.135 370.117C360.549 370.117 360.002 370.006 359.494 369.783C358.986 369.557 358.594 369.248 358.316 368.857C358.043 368.467 357.906 368.023 357.906 367.527H359.037C359.037 368.043 359.227 368.451 359.605 368.752C359.988 369.049 360.498 369.197 361.135 369.197C361.729 369.197 362.184 369.076 362.5 368.834C362.816 368.592 362.975 368.262 362.975 367.844C362.975 367.426 362.828 367.104 362.535 366.877C362.242 366.646 361.711 366.42 360.941 366.197Z" fill="black" fill-opacity="0.6"/>
</g>
<path d="M15 261C15 258.791 16.7909 257 19 257H391C393.209 257 395 258.791 395 261V312H15V261Z" fill="#212121" fill-opacity="0.08"/>
<path d="M40 283H38V285H40V283ZM44 283H42V285H44V283ZM48 283H46V285H48V283ZM50 276H49V274H47V276H39V274H37V276H36C34.89 276 34.01 276.9 34.01 278L34 292C34 292.53 34.2107 293.039 34.5858 293.414C34.9609 293.789 35.4696 294 36 294H50C51.1 294 52 293.1 52 292V278C52 276.9 51.1 276 50 276ZM50 292H36V281H50V292Z" fill="black"/>
<path d="M72.5039 273.197C71.5391 272.92 70.8359 272.58 70.3945 272.178C69.957 271.771 69.7383 271.271 69.7383 270.678C69.7383 270.006 70.0059 269.451 70.541 269.014C71.0801 268.572 71.7793 268.352 72.6387 268.352C73.2246 268.352 73.7461 268.465 74.2031 268.691C74.6641 268.918 75.0195 269.23 75.2695 269.629C75.5234 270.027 75.6504 270.463 75.6504 270.936H74.5195C74.5195 270.42 74.3555 270.016 74.0273 269.723C73.6992 269.426 73.2363 269.277 72.6387 269.277C72.084 269.277 71.6504 269.4 71.3379 269.646C71.0293 269.889 70.875 270.227 70.875 270.66C70.875 271.008 71.0215 271.303 71.3145 271.545C71.6113 271.783 72.1133 272.002 72.8203 272.201C73.5312 272.4 74.0859 272.621 74.4844 272.863C74.8867 273.102 75.1836 273.381 75.375 273.701C75.5703 274.021 75.668 274.398 75.668 274.832C75.668 275.523 75.3984 276.078 74.8594 276.496C74.3203 276.91 73.5996 277.117 72.6973 277.117C72.1113 277.117 71.5645 277.006 71.0566 276.783C70.5488 276.557 70.1562 276.248 69.8789 275.857C69.6055 275.467 69.4688 275.023 69.4688 274.527H70.5996C70.5996 275.043 70.7891 275.451 71.168 275.752C71.5508 276.049 72.0605 276.197 72.6973 276.197C73.291 276.197 73.7461 276.076 74.0625 275.834C74.3789 275.592 74.5371 275.262 74.5371 274.844C74.5371 274.426 74.3906 274.104 74.0977 273.877C73.8047 273.646 73.2734 273.42 72.5039 273.197ZM78.816 269.125V270.66H79.9996V271.498H78.816V275.43C78.816 275.684 78.8688 275.875 78.9742 276.004C79.0797 276.129 79.2594 276.191 79.5133 276.191C79.6383 276.191 79.8102 276.168 80.0289 276.121V277C79.7438 277.078 79.4664 277.117 79.1969 277.117C78.7125 277.117 78.3473 276.971 78.1012 276.678C77.8551 276.385 77.732 275.969 77.732 275.43V271.498H76.5777V270.66H77.732V269.125H78.816ZM85.5852 277C85.5227 276.875 85.4719 276.652 85.4328 276.332C84.9289 276.855 84.3273 277.117 83.6281 277.117C83.0031 277.117 82.4895 276.941 82.0871 276.59C81.6887 276.234 81.4895 275.785 81.4895 275.242C81.4895 274.582 81.7395 274.07 82.2395 273.707C82.7434 273.34 83.4504 273.156 84.3605 273.156H85.4152V272.658C85.4152 272.279 85.302 271.979 85.0754 271.756C84.8488 271.529 84.5148 271.416 84.0734 271.416C83.6867 271.416 83.3625 271.514 83.1008 271.709C82.8391 271.904 82.7082 272.141 82.7082 272.418H81.6184C81.6184 272.102 81.7297 271.797 81.9523 271.504C82.1789 271.207 82.4836 270.973 82.8664 270.801C83.2531 270.629 83.677 270.543 84.1379 270.543C84.8684 270.543 85.4406 270.727 85.8547 271.094C86.2688 271.457 86.4836 271.959 86.4992 272.6V275.518C86.4992 276.1 86.5734 276.562 86.7219 276.906V277H85.5852ZM83.7863 276.174C84.1262 276.174 84.4484 276.086 84.7531 275.91C85.0578 275.734 85.2785 275.506 85.4152 275.225V273.924H84.5656C83.2375 273.924 82.5734 274.312 82.5734 275.09C82.5734 275.43 82.6867 275.695 82.9133 275.887C83.1398 276.078 83.4309 276.174 83.7863 276.174ZM91.6629 271.633C91.4988 271.605 91.3211 271.592 91.1297 271.592C90.4188 271.592 89.9363 271.895 89.6824 272.5V277H88.5984V270.66H89.6531L89.6707 271.393C90.0262 270.826 90.5301 270.543 91.1824 270.543C91.3934 270.543 91.5535 270.57 91.6629 270.625V271.633ZM94.8285 269.125V270.66H96.0121V271.498H94.8285V275.43C94.8285 275.684 94.8813 275.875 94.9867 276.004C95.0922 276.129 95.2719 276.191 95.5258 276.191C95.6508 276.191 95.8227 276.168 96.0414 276.121V277C95.7563 277.078 95.4789 277.117 95.2094 277.117C94.725 277.117 94.3598 276.971 94.1137 276.678C93.8676 276.385 93.7445 275.969 93.7445 275.43V271.498H92.5902V270.66H93.7445V269.125H94.8285ZM101.23 277V268.469H103.638C104.38 268.469 105.037 268.633 105.607 268.961C106.177 269.289 106.617 269.756 106.925 270.361C107.238 270.967 107.396 271.662 107.4 272.447V272.992C107.4 273.797 107.244 274.502 106.931 275.107C106.623 275.713 106.179 276.178 105.601 276.502C105.027 276.826 104.357 276.992 103.591 277H101.23ZM102.355 269.395V276.08H103.539C104.406 276.08 105.08 275.811 105.56 275.271C106.045 274.732 106.287 273.965 106.287 272.969V272.471C106.287 271.502 106.058 270.75 105.601 270.215C105.148 269.676 104.504 269.402 103.668 269.395H102.355ZM113.249 277C113.187 276.875 113.136 276.652 113.097 276.332C112.593 276.855 111.991 277.117 111.292 277.117C110.667 277.117 110.154 276.941 109.751 276.59C109.353 276.234 109.154 275.785 109.154 275.242C109.154 274.582 109.404 274.07 109.904 273.707C110.407 273.34 111.114 273.156 112.025 273.156H113.079V272.658C113.079 272.279 112.966 271.979 112.739 271.756C112.513 271.529 112.179 271.416 111.737 271.416C111.351 271.416 111.027 271.514 110.765 271.709C110.503 271.904 110.372 272.141 110.372 272.418H109.282C109.282 272.102 109.394 271.797 109.616 271.504C109.843 271.207 110.148 270.973 110.53 270.801C110.917 270.629 111.341 270.543 111.802 270.543C112.532 270.543 113.105 270.727 113.519 271.094C113.933 271.457 114.148 271.959 114.163 272.6V275.518C114.163 276.1 114.237 276.562 114.386 276.906V277H113.249ZM111.45 276.174C111.79 276.174 112.112 276.086 112.417 275.91C112.722 275.734 112.943 275.506 113.079 275.225V273.924H112.23C110.902 273.924 110.237 274.312 110.237 275.09C110.237 275.43 110.351 275.695 110.577 275.887C110.804 276.078 111.095 276.174 111.45 276.174ZM117.733 269.125V270.66H118.917V271.498H117.733V275.43C117.733 275.684 117.786 275.875 117.891 276.004C117.997 276.129 118.177 276.191 118.43 276.191C118.555 276.191 118.727 276.168 118.946 276.121V277C118.661 277.078 118.384 277.117 118.114 277.117C117.63 277.117 117.264 276.971 117.018 276.678C116.772 276.385 116.649 275.969 116.649 275.43V271.498H115.495V270.66H116.649V269.125H117.733ZM123.219 277.117C122.36 277.117 121.661 276.836 121.121 276.273C120.582 275.707 120.313 274.951 120.313 274.006V273.807C120.313 273.178 120.432 272.617 120.67 272.125C120.912 271.629 121.248 271.242 121.678 270.965C122.112 270.684 122.58 270.543 123.084 270.543C123.909 270.543 124.549 270.814 125.006 271.357C125.463 271.9 125.692 272.678 125.692 273.689V274.141H121.397C121.412 274.766 121.594 275.271 121.942 275.658C122.293 276.041 122.739 276.232 123.278 276.232C123.661 276.232 123.985 276.154 124.25 275.998C124.516 275.842 124.748 275.635 124.948 275.377L125.61 275.893C125.079 276.709 124.282 277.117 123.219 277.117ZM123.084 271.434C122.647 271.434 122.28 271.594 121.983 271.914C121.686 272.23 121.502 272.676 121.432 273.25H124.608V273.168C124.577 272.617 124.428 272.191 124.162 271.891C123.897 271.586 123.537 271.434 123.084 271.434Z" fill="black" fill-opacity="0.6"/>
<path d="M79.0703 290.68C79.0703 291.794 78.8828 292.768 78.5078 293.602C78.1328 294.43 77.6016 295.062 76.9141 295.5C76.2266 295.938 75.4245 296.156 74.5078 296.156C73.612 296.156 72.8177 295.938 72.125 295.5C71.4323 295.057 70.8932 294.43 70.5078 293.617C70.1276 292.799 69.9323 291.854 69.9219 290.781V289.961C69.9219 288.867 70.112 287.901 70.4922 287.062C70.8724 286.224 71.4089 285.583 72.1016 285.141C72.7995 284.693 73.5964 284.469 74.4922 284.469C75.4036 284.469 76.2057 284.69 76.8984 285.133C77.5964 285.57 78.1328 286.208 78.5078 287.047C78.8828 287.88 79.0703 288.852 79.0703 289.961V290.68ZM77.5781 289.945C77.5781 288.596 77.3073 287.562 76.7656 286.844C76.224 286.12 75.4661 285.758 74.4922 285.758C73.5443 285.758 72.7969 286.12 72.25 286.844C71.7083 287.562 71.4297 288.562 71.4141 289.844V290.68C71.4141 291.987 71.6875 293.016 72.2344 293.766C72.7865 294.51 73.5443 294.883 74.5078 294.883C75.4766 294.883 76.2266 294.531 76.7578 293.828C77.2891 293.12 77.5625 292.107 77.5781 290.789V289.945ZM84.6344 294.977C85.15 294.977 85.6005 294.82 85.9859 294.508C86.3714 294.195 86.5849 293.805 86.6266 293.336H87.9937C87.9677 293.82 87.801 294.281 87.4937 294.719C87.1865 295.156 86.775 295.505 86.2594 295.766C85.749 296.026 85.2073 296.156 84.6344 296.156C83.4833 296.156 82.5667 295.773 81.8844 295.008C81.2073 294.237 80.8687 293.185 80.8687 291.852V291.609C80.8687 290.786 81.0198 290.055 81.3219 289.414C81.624 288.773 82.0562 288.276 82.6187 287.922C83.1865 287.568 83.8557 287.391 84.6266 287.391C85.5745 287.391 86.3609 287.674 86.9859 288.242C87.6161 288.81 87.9521 289.547 87.9937 290.453H86.6266C86.5849 289.906 86.3766 289.458 86.0016 289.109C85.6318 288.755 85.1734 288.578 84.6266 288.578C83.8922 288.578 83.3219 288.844 82.9156 289.375C82.5146 289.901 82.3141 290.664 82.3141 291.664V291.938C82.3141 292.911 82.5146 293.661 82.9156 294.188C83.3167 294.714 83.8896 294.977 84.6344 294.977ZM91.7297 285.5V287.547H93.3078V288.664H91.7297V293.906C91.7297 294.245 91.8 294.5 91.9406 294.672C92.0812 294.839 92.3208 294.922 92.6594 294.922C92.826 294.922 93.0552 294.891 93.3469 294.828V296C92.9667 296.104 92.5969 296.156 92.2375 296.156C91.5917 296.156 91.1047 295.961 90.7766 295.57C90.4484 295.18 90.2844 294.625 90.2844 293.906V288.664H88.7453V287.547H90.2844V285.5H91.7297ZM103.873 296H102.42V286.367L99.5063 287.438V286.125L103.647 284.57H103.873V296ZM115.711 296H108.258V294.961L112.195 290.586C112.779 289.924 113.18 289.388 113.398 288.977C113.622 288.56 113.734 288.13 113.734 287.688C113.734 287.094 113.555 286.607 113.195 286.227C112.836 285.846 112.357 285.656 111.758 285.656C111.039 285.656 110.479 285.862 110.078 286.273C109.682 286.68 109.484 287.247 109.484 287.977H108.039C108.039 286.93 108.375 286.083 109.047 285.438C109.724 284.792 110.628 284.469 111.758 284.469C112.815 284.469 113.651 284.747 114.266 285.305C114.88 285.857 115.188 286.594 115.188 287.516C115.188 288.635 114.474 289.969 113.047 291.516L110 294.82H115.711V296ZM117.494 298.266L116.673 297.703C117.163 297.021 117.418 296.318 117.439 295.594V294.289H118.853V295.422C118.853 295.948 118.723 296.474 118.463 297C118.207 297.526 117.884 297.948 117.494 298.266ZM132.255 296H124.802V294.961L128.739 290.586C129.322 289.924 129.723 289.388 129.942 288.977C130.166 288.56 130.278 288.13 130.278 287.688C130.278 287.094 130.098 286.607 129.739 286.227C129.38 285.846 128.901 285.656 128.302 285.656C127.583 285.656 127.023 285.862 126.622 286.273C126.226 286.68 126.028 287.247 126.028 287.977H124.583C124.583 286.93 124.919 286.083 125.591 285.438C126.268 284.792 127.171 284.469 128.302 284.469C129.359 284.469 130.195 284.747 130.809 285.305C131.424 285.857 131.731 286.594 131.731 287.516C131.731 288.635 131.018 289.969 129.591 291.516L126.544 294.82H132.255V296ZM141.069 291.148C141.069 292.841 140.78 294.099 140.202 294.922C139.623 295.745 138.72 296.156 137.491 296.156C136.277 296.156 135.379 295.755 134.795 294.953C134.212 294.146 133.91 292.943 133.889 291.344V289.414C133.889 287.742 134.178 286.5 134.756 285.688C135.334 284.875 136.241 284.469 137.475 284.469C138.699 284.469 139.6 284.862 140.178 285.648C140.756 286.43 141.053 287.638 141.069 289.273V291.148ZM139.623 289.172C139.623 287.948 139.452 287.057 139.108 286.5C138.764 285.938 138.22 285.656 137.475 285.656C136.735 285.656 136.196 285.935 135.858 286.492C135.519 287.049 135.345 287.906 135.334 289.062V291.375C135.334 292.604 135.511 293.513 135.866 294.102C136.225 294.685 136.767 294.977 137.491 294.977C138.204 294.977 138.733 294.701 139.077 294.148C139.426 293.596 139.608 292.727 139.623 291.539V289.172ZM150.523 296H143.07V294.961L147.008 290.586C147.591 289.924 147.992 289.388 148.211 288.977C148.435 288.56 148.547 288.13 148.547 287.688C148.547 287.094 148.367 286.607 148.008 286.227C147.648 285.846 147.169 285.656 146.57 285.656C145.852 285.656 145.292 285.862 144.891 286.273C144.495 286.68 144.297 287.247 144.297 287.977H142.852C142.852 286.93 143.188 286.083 143.859 285.438C144.536 284.792 145.44 284.469 146.57 284.469C147.628 284.469 148.464 284.747 149.078 285.305C149.693 285.857 150 286.594 150 287.516C150 288.635 149.286 289.969 147.859 291.516L144.812 294.82H150.523V296ZM156.955 296H155.502V286.367L152.588 287.438V286.125L156.728 284.57H156.955V296Z" fill="black" fill-opacity="0.87"/>
<rect x="15" y="311" width="380" height="1" fill="black" fill-opacity="0.6"/>
<path d="M298 424C298 421.791 299.791 420 302 420H391C393.209 420 395 421.791 395 424V452C395 454.209 393.209 456 391 456H302C299.791 456 298 454.209 298 452V424Z" fill="#6200EE"/>
<path d="M320.606 439.76C320.506 440.822 320.114 441.651 319.431 442.248C318.747 442.84 317.838 443.137 316.703 443.137C315.91 443.137 315.211 442.95 314.604 442.576C314.003 442.198 313.538 441.662 313.21 440.97C312.882 440.277 312.711 439.473 312.697 438.557V437.627C312.697 436.688 312.864 435.861 313.196 435.146C313.529 434.43 314.005 433.879 314.625 433.491C315.249 433.104 315.969 432.91 316.785 432.91C317.883 432.91 318.768 433.209 319.438 433.806C320.107 434.403 320.497 435.246 320.606 436.335H318.884C318.802 435.619 318.592 435.104 318.255 434.79C317.922 434.471 317.432 434.312 316.785 434.312C316.033 434.312 315.454 434.587 315.049 435.139C314.648 435.686 314.443 436.49 314.434 437.552V438.434C314.434 439.509 314.625 440.329 315.008 440.895C315.395 441.46 315.96 441.742 316.703 441.742C317.382 441.742 317.893 441.59 318.234 441.284C318.576 440.979 318.793 440.471 318.884 439.76H320.606ZM331.352 438.283C331.352 439.258 331.183 440.115 330.846 440.854C330.508 441.587 330.025 442.152 329.396 442.549C328.772 442.941 328.052 443.137 327.236 443.137C326.43 443.137 325.71 442.941 325.076 442.549C324.447 442.152 323.96 441.59 323.613 440.86C323.271 440.131 323.098 439.29 323.094 438.338V437.777C323.094 436.807 323.265 435.95 323.606 435.207C323.953 434.464 324.438 433.897 325.062 433.505C325.691 433.108 326.411 432.91 327.223 432.91C328.034 432.91 328.752 433.106 329.376 433.498C330.005 433.885 330.49 434.446 330.832 435.18C331.174 435.909 331.347 436.759 331.352 437.729V438.283ZM329.622 437.764C329.622 436.661 329.412 435.815 328.993 435.228C328.578 434.64 327.988 434.346 327.223 434.346C326.475 434.346 325.89 434.64 325.466 435.228C325.047 435.811 324.832 436.638 324.823 437.709V438.283C324.823 439.377 325.035 440.222 325.459 440.819C325.887 441.416 326.48 441.715 327.236 441.715C328.002 441.715 328.59 441.423 329 440.84C329.415 440.257 329.622 439.404 329.622 438.283V437.764ZM342.22 443H340.49L336.054 435.938V443H334.324V433.047H336.054L340.504 440.136V433.047H342.22V443ZM351.249 438.782H347.243V443H345.514V433.047H351.837V434.441H347.243V437.401H351.249V438.782ZM356.286 443H354.563V433.047H356.286V443ZM363.319 439.165H361.392V443H359.662V433.047H363.162C364.311 433.047 365.197 433.304 365.821 433.819C366.446 434.334 366.758 435.079 366.758 436.055C366.758 436.72 366.596 437.278 366.272 437.729C365.953 438.176 365.507 438.52 364.933 438.762L367.168 442.911V443H365.315L363.319 439.165ZM361.392 437.777H363.169C363.752 437.777 364.208 437.632 364.536 437.34C364.864 437.044 365.028 436.64 365.028 436.13C365.028 435.597 364.876 435.184 364.57 434.893C364.27 434.601 363.818 434.451 363.217 434.441H361.392V437.777ZM371.891 433.047L374.762 440.676L377.626 433.047H379.861V443H378.139V439.719L378.31 435.33L375.37 443H374.133L371.2 435.337L371.371 439.719V443H369.648V433.047H371.891Z" fill="white"/>
<defs>
<filter id="filter0_ddd" x="5" y="333" width="400" height="68" filterUnits="userSpaceOnUse" color-interpolation-filters="sRGB">
<feFlood flood-opacity="0" result="BackgroundImageFix"/>
<feColorMatrix in="SourceAlpha" type="matrix" values="0 0 0 0 0 0 0 0 0 0 0 0 0 0 0 0 0 0 127 0" result="hardAlpha"/>
<feOffset dy="2"/>
<feGaussianBlur stdDeviation="2"/>
<feColorMatrix type="matrix" values="0 0 0 0 0 0 0 0 0 0 0 0 0 0 0 0 0 0 0.2 0"/>
<feBlend mode="normal" in2="BackgroundImageFix" result="effect1_dropShadow"/>
<feColorMatrix in="SourceAlpha" type="matrix" values="0 0 0 0 0 0 0 0 0 0 0 0 0 0 0 0 0 0 127 0" result="hardAlpha"/>
<feOffset dy="1"/>
<feGaussianBlur stdDeviation="5"/>
<feColorMatrix type="matrix" values="0 0 0 0 0 0 0 0 0 0 0 0 0 0 0 0 0 0 0.12 0"/>
<feBlend mode="normal" in2="effect1_dropShadow" result="effect2_dropShadow"/>
<feColorMatrix in="SourceAlpha" type="matrix" values="0 0 0 0 0 0 0 0 0 0 0 0 0 0 0 0 0 0 127 0" result="hardAlpha"/>
<feOffset dy="4"/>
<feGaussianBlur stdDeviation="2.5"/>
<feColorMatrix type="matrix" values="0 0 0 0 0 0 0 0 0 0 0 0 0 0 0 0 0 0 0.14 0"/>
<feBlend mode="normal" in2="effect2_dropShadow" result="effect3_dropShadow"/>
<feBlend mode="normal" in="SourceGraphic" in2="effect3_dropShadow" result="shape"/>
</filter>
</defs>
</svg>
