<svg width="411" height="731" viewBox="0 0 411 731" fill="none" xmlns="http://www.w3.org/2000/svg">
<rect width="411" height="731" fill="#F1F1F1"/>
<g clip-path="url(#clip0_728:3528)">
<rect width="411" height="731" fill="white"/>
<g filter="url(#filter0_ddd_728:3528)">
<rect width="411" height="72" transform="translate(0 659)" fill="#6200EE"/>
<rect width="102.75" height="72" transform="translate(0 659)" fill="#6200EE"/>
<rect width="102.75" height="2" transform="translate(0 729)" fill="#6200EE"/>
<rect y="729" width="103" height="2" fill="white"/>
<path d="M36.8008 706.441H33.6973V715H31.9814V706.441H28.9053V705.047H36.8008V706.441ZM47.1152 710.283C47.1152 711.258 46.9466 712.115 46.6094 712.854C46.2721 713.587 45.7891 714.152 45.1602 714.549C44.5358 714.941 43.8158 715.137 43 715.137C42.1934 715.137 41.4733 714.941 40.8398 714.549C40.2109 714.152 39.7233 713.59 39.377 712.86C39.0352 712.131 38.862 711.29 38.8574 710.338V709.777C38.8574 708.807 39.0283 707.95 39.3701 707.207C39.7165 706.464 40.2018 705.897 40.8262 705.505C41.4551 705.108 42.1751 704.91 42.9863 704.91C43.7975 704.91 44.5153 705.106 45.1396 705.498C45.7686 705.885 46.2539 706.446 46.5957 707.18C46.9375 707.909 47.1107 708.759 47.1152 709.729V710.283ZM45.3857 709.764C45.3857 708.661 45.1761 707.815 44.7568 707.228C44.3421 706.64 43.752 706.346 42.9863 706.346C42.2389 706.346 41.6533 706.64 41.2295 707.228C40.8102 707.811 40.596 708.638 40.5869 709.709V710.283C40.5869 711.377 40.7988 712.222 41.2227 712.819C41.651 713.416 42.2435 713.715 43 713.715C43.7656 713.715 44.3535 713.423 44.7637 712.84C45.1784 712.257 45.3857 711.404 45.3857 710.283V709.764ZM50.0879 715V705.047H53.0273C53.9069 705.047 54.6862 705.243 55.3652 705.635C56.0488 706.027 56.5775 706.583 56.9512 707.303C57.3249 708.023 57.5117 708.848 57.5117 709.777V710.276C57.5117 711.22 57.3226 712.049 56.9443 712.765C56.5706 713.48 56.0352 714.032 55.3379 714.419C54.6452 714.806 53.8499 715 52.9521 715H50.0879ZM51.8174 706.441V713.619H52.9453C53.8522 713.619 54.5472 713.337 55.0303 712.771C55.5179 712.202 55.7663 711.386 55.7754 710.324V709.771C55.7754 708.69 55.5407 707.866 55.0713 707.296C54.6019 706.726 53.9206 706.441 53.0273 706.441H51.8174ZM65.9053 712.683H62.0498L61.2432 715H59.4453L63.2051 705.047H64.7568L68.5234 715H66.7188L65.9053 712.683ZM62.5352 711.288H65.4199L63.9775 707.159L62.5352 711.288ZM73.1299 709.764L75.4199 705.047H77.334L73.998 711.336V715H72.2617V711.336L68.9189 705.047H70.8398L73.1299 709.764Z" fill="white"/>
<path fill-rule="evenodd" clip-rule="evenodd" d="M51 693C52.1 693 53 692.1 53 691H49C49 692.1 49.89 693 51 693ZM57 687V682C57 678.93 55.36 676.36 52.5 675.68V675C52.5 674.17 51.83 673.5 51 673.5C50.17 673.5 49.5 674.17 49.5 675V675.68C46.63 676.36 45 678.92 45 682V687L43 689V690H59V689L57 687Z" fill="white"/>
<rect width="102.75" height="72" transform="translate(102.75 659)" fill="#6200EE"/>
<path d="M138.012 710.557H133.924V713.619H138.702V715H132.194V705.047H138.654V706.441H133.924V709.189H138.012V710.557ZM144.867 712.833L147.396 705.047H149.297L145.715 715H144.04L140.472 705.047H142.365L144.867 712.833ZM157.492 710.557H153.404V713.619H158.183V715H151.675V705.047H158.135V706.441H153.404V709.189H157.492V710.557ZM168.736 715H167.007L162.57 707.938V715H160.841V705.047H162.57L167.021 712.136V705.047H168.736V715ZM179.017 706.441H175.913V715H174.197V706.441H171.121V705.047H179.017V706.441Z" fill="white" fill-opacity="0.74"/>
<path d="M150.75 682H148.75V684H150.75V682ZM154.75 682H152.75V684H154.75V682ZM158.75 682H156.75V684H158.75V682ZM160.75 675H159.75V673H157.75V675H149.75V673H147.75V675H146.75C145.64 675 144.76 675.9 144.76 677L144.75 691C144.75 691.53 144.961 692.039 145.336 692.414C145.711 692.789 146.22 693 146.75 693H160.75C161.85 693 162.75 692.1 162.75 691V677C162.75 675.9 161.85 675 160.75 675ZM160.75 691H146.75V680H160.75V691Z" fill="white" fill-opacity="0.74"/>
<rect width="102.75" height="72" transform="translate(205.5 659)" fill="#6200EE"/>
<path d="M243.673 715H241.95V710.577H237.5V715H235.771V705.047H237.5V709.189H241.95V705.047H243.673V715ZM252.668 712.683H248.812L248.006 715H246.208L249.968 705.047H251.52L255.286 715H253.481L252.668 712.683ZM249.298 711.288H252.183L250.74 707.159L249.298 711.288ZM257.671 715V705.047H261.082C262.208 705.047 263.064 705.272 263.652 705.724C264.24 706.175 264.534 706.847 264.534 707.74C264.534 708.196 264.411 708.606 264.165 708.971C263.919 709.335 263.559 709.618 263.085 709.818C263.623 709.964 264.037 710.24 264.329 710.646C264.625 711.047 264.773 711.53 264.773 712.095C264.773 713.029 264.473 713.747 263.871 714.248C263.274 714.749 262.417 715 261.301 715H257.671ZM259.4 710.509V713.619H261.321C261.864 713.619 262.287 713.485 262.593 713.216C262.898 712.947 263.051 712.573 263.051 712.095C263.051 711.06 262.522 710.532 261.465 710.509H259.4ZM259.4 709.237H261.096C261.633 709.237 262.053 709.117 262.354 708.875C262.659 708.629 262.812 708.283 262.812 707.836C262.812 707.344 262.67 706.988 262.388 706.77C262.11 706.551 261.674 706.441 261.082 706.441H259.4V709.237ZM269.578 715H267.855V705.047H269.578V715ZM279.94 706.441H276.837V715H275.121V706.441H272.045V705.047H279.94V706.441Z" fill="white" fill-opacity="0.74"/>
<path fill-rule="evenodd" clip-rule="evenodd" d="M256.5 692.35L255.05 691.03C249.9 686.36 246.5 683.28 246.5 679.5C246.5 676.42 248.92 674 252 674C253.74 674 255.41 674.81 256.5 676.09C257.59 674.81 259.26 674 261 674C264.08 674 266.5 676.42 266.5 679.5C266.5 683.28 263.1 686.36 257.95 691.04L256.5 692.35Z" fill="white" fill-opacity="0.74"/>
<rect width="102.75" height="72" transform="translate(308.25 659)" fill="#6200EE"/>
<path d="M322.205 711.76C322.105 712.822 321.713 713.651 321.029 714.248C320.346 714.84 319.437 715.137 318.302 715.137C317.509 715.137 316.809 714.95 316.203 714.576C315.602 714.198 315.137 713.662 314.809 712.97C314.48 712.277 314.31 711.473 314.296 710.557V709.627C314.296 708.688 314.462 707.861 314.795 707.146C315.128 706.43 315.604 705.879 316.224 705.491C316.848 705.104 317.568 704.91 318.384 704.91C319.482 704.91 320.366 705.209 321.036 705.806C321.706 706.403 322.096 707.246 322.205 708.335H320.482C320.4 707.619 320.191 707.104 319.854 706.79C319.521 706.471 319.031 706.312 318.384 706.312C317.632 706.312 317.053 706.587 316.647 707.139C316.246 707.686 316.041 708.49 316.032 709.552V710.434C316.032 711.509 316.224 712.329 316.606 712.895C316.994 713.46 317.559 713.742 318.302 713.742C318.981 713.742 319.491 713.59 319.833 713.284C320.175 712.979 320.391 712.471 320.482 711.76H322.205ZM332.95 710.283C332.95 711.258 332.782 712.115 332.444 712.854C332.107 713.587 331.624 714.152 330.995 714.549C330.371 714.941 329.651 715.137 328.835 715.137C328.028 715.137 327.308 714.941 326.675 714.549C326.046 714.152 325.558 713.59 325.212 712.86C324.87 712.131 324.697 711.29 324.692 710.338V709.777C324.692 708.807 324.863 707.95 325.205 707.207C325.551 706.464 326.037 705.897 326.661 705.505C327.29 705.108 328.01 704.91 328.821 704.91C329.632 704.91 330.35 705.106 330.975 705.498C331.604 705.885 332.089 706.446 332.431 707.18C332.772 707.909 332.946 708.759 332.95 709.729V710.283ZM331.221 709.764C331.221 708.661 331.011 707.815 330.592 707.228C330.177 706.64 329.587 706.346 328.821 706.346C328.074 706.346 327.488 706.64 327.064 707.228C326.645 707.811 326.431 708.638 326.422 709.709V710.283C326.422 711.377 326.634 712.222 327.058 712.819C327.486 713.416 328.078 713.715 328.835 713.715C329.601 713.715 330.188 713.423 330.599 712.84C331.013 712.257 331.221 711.404 331.221 710.283V709.764ZM338.165 705.047L341.036 712.676L343.9 705.047H346.136V715H344.413V711.719L344.584 707.33L341.645 715H340.407L337.475 707.337L337.646 711.719V715H335.923V705.047H338.165ZM351.679 705.047L354.55 712.676L357.414 705.047H359.649V715H357.927V711.719L358.098 707.33L355.158 715H353.921L350.988 707.337L351.159 711.719V715H349.437V705.047H351.679ZM370.23 705.047V711.698C370.23 712.756 369.891 713.594 369.212 714.214C368.537 714.829 367.637 715.137 366.512 715.137C365.372 715.137 364.468 714.834 363.798 714.228C363.128 713.617 362.793 712.771 362.793 711.691V705.047H364.516V711.705C364.516 712.37 364.684 712.879 365.021 713.229C365.359 713.58 365.855 713.756 366.512 713.756C367.842 713.756 368.508 713.054 368.508 711.65V705.047H370.23ZM381.229 715H379.499L375.062 707.938V715H373.333V705.047H375.062L379.513 712.136V705.047H381.229V715ZM386.348 715H384.625V705.047H386.348V715ZM396.71 706.441H393.606V715H391.891V706.441H388.814V705.047H396.71V706.441ZM402.629 709.764L404.919 705.047H406.833L403.497 711.336V715H401.761V711.336L398.418 705.047H400.339L402.629 709.764Z" fill="white" fill-opacity="0.74"/>
<path d="M363.25 682C364.91 682 366.24 680.66 366.24 679C366.24 677.34 364.91 676 363.25 676C361.59 676 360.25 677.34 360.25 679C360.25 680.66 361.59 682 363.25 682ZM355.25 682C356.91 682 358.24 680.66 358.24 679C358.24 677.34 356.91 676 355.25 676C353.59 676 352.25 677.34 352.25 679C352.25 680.66 353.59 682 355.25 682ZM355.25 684C352.92 684 348.25 685.17 348.25 687.5V690H362.25V687.5C362.25 685.17 357.58 684 355.25 684ZM363.25 684C362.96 684 362.63 684.02 362.28 684.05C363.44 684.89 364.25 686.02 364.25 687.5V690H370.25V687.5C370.25 685.17 365.58 684 363.25 684Z" fill="white" fill-opacity="0.74"/>
</g>
<mask id="mask0_728:3528" style="mask-type:alpha" maskUnits="userSpaceOnUse" x="0" y="66" width="411" height="64">
<rect y="66" width="411" height="64" fill="white"/>
</mask>
<g mask="url(#mask0_728:3528)">
<path d="M19.7734 88.4141L19.9922 89.9141L20.3125 88.5625L22.5625 80.625H23.8281L26.0234 88.5625L26.3359 89.9375L26.5781 88.4062L28.3438 80.625H29.8516L27.0938 92H25.7266L23.3828 83.7109L23.2031 82.8438L23.0234 83.7109L20.5938 92H19.2266L16.4766 80.625H17.9766L19.7734 88.4141ZM35.3609 84.8438C35.1422 84.8073 34.9052 84.7891 34.65 84.7891C33.7021 84.7891 33.0589 85.1927 32.7203 86V92H31.275V83.5469H32.6812L32.7047 84.5234C33.1786 83.7682 33.8505 83.3906 34.7203 83.3906C35.0016 83.3906 35.2151 83.4271 35.3609 83.5V84.8438ZM38.4172 92H36.9719V83.5469H38.4172V92ZM36.8547 81.3047C36.8547 81.0703 36.925 80.8724 37.0656 80.7109C37.2115 80.5495 37.425 80.4688 37.7062 80.4688C37.9875 80.4688 38.201 80.5495 38.3469 80.7109C38.4927 80.8724 38.5656 81.0703 38.5656 81.3047C38.5656 81.5391 38.4927 81.7344 38.3469 81.8906C38.201 82.0469 37.9875 82.125 37.7062 82.125C37.425 82.125 37.2115 82.0469 37.0656 81.8906C36.925 81.7344 36.8547 81.5391 36.8547 81.3047ZM42.8484 81.5V83.5469H44.4266V84.6641H42.8484V89.9062C42.8484 90.2448 42.9188 90.5 43.0594 90.6719C43.2 90.8385 43.4396 90.9219 43.7781 90.9219C43.9448 90.9219 44.174 90.8906 44.4656 90.8281V92C44.0854 92.1042 43.7156 92.1562 43.3563 92.1562C42.7104 92.1562 42.2234 91.9609 41.8953 91.5703C41.5672 91.1797 41.4031 90.625 41.4031 89.9062V84.6641H39.8641V83.5469H41.4031V81.5H42.8484ZM49.7797 92.1562C48.6339 92.1562 47.7016 91.7812 46.9828 91.0312C46.2641 90.276 45.9047 89.2682 45.9047 88.0078V87.7422C45.9047 86.9036 46.0635 86.1562 46.3813 85.5C46.7042 84.8385 47.1521 84.3229 47.725 83.9531C48.3031 83.5781 48.9281 83.3906 49.6 83.3906C50.699 83.3906 51.5531 83.7526 52.1625 84.4766C52.7719 85.2005 53.0766 86.237 53.0766 87.5859V88.1875H47.35C47.3708 89.0208 47.613 89.6953 48.0766 90.2109C48.5453 90.7214 49.1391 90.9766 49.8578 90.9766C50.3682 90.9766 50.8005 90.8724 51.1547 90.6641C51.5089 90.4557 51.8188 90.1797 52.0844 89.8359L52.9672 90.5234C52.2589 91.612 51.1964 92.1562 49.7797 92.1562ZM49.6 84.5781C49.0167 84.5781 48.5271 84.7917 48.1313 85.2188C47.7354 85.6406 47.4906 86.2344 47.3969 87H51.6313V86.8906C51.5896 86.1562 51.3917 85.5885 51.0375 85.1875C50.6833 84.7812 50.2042 84.5781 49.6 84.5781ZM64.2438 92C64.1604 91.8333 64.0927 91.5365 64.0406 91.1094C63.3688 91.8073 62.5667 92.1562 61.6344 92.1562C60.801 92.1562 60.1161 91.9219 59.5797 91.4531C59.0484 90.9792 58.7828 90.3802 58.7828 89.6562C58.7828 88.776 59.1161 88.0938 59.7828 87.6094C60.4547 87.1198 61.3974 86.875 62.6109 86.875H64.0172V86.2109C64.0172 85.7057 63.8661 85.3047 63.5641 85.0078C63.262 84.7057 62.8167 84.5547 62.2281 84.5547C61.7125 84.5547 61.2802 84.6849 60.9313 84.9453C60.5823 85.2057 60.4078 85.5208 60.4078 85.8906H58.9547C58.9547 85.4688 59.1031 85.0625 59.4 84.6719C59.7021 84.276 60.1083 83.9635 60.6188 83.7344C61.1344 83.5052 61.6995 83.3906 62.3141 83.3906C63.288 83.3906 64.051 83.6354 64.6031 84.125C65.1552 84.6094 65.4417 85.2786 65.4625 86.1328V90.0234C65.4625 90.7995 65.5615 91.4167 65.7594 91.875V92H64.2438ZM61.8453 90.8984C62.2984 90.8984 62.7281 90.7812 63.1344 90.5469C63.5406 90.3125 63.8349 90.0078 64.0172 89.6328V87.8984H62.8844C61.1135 87.8984 60.2281 88.4167 60.2281 89.4531C60.2281 89.9062 60.3792 90.2604 60.6813 90.5156C60.9833 90.7708 61.3714 90.8984 61.8453 90.8984ZM73.4891 83.5469V92.9766C73.4891 94.6016 72.7521 95.4141 71.2781 95.4141C70.9604 95.4141 70.6661 95.3672 70.3953 95.2734V94.1172C70.562 94.1589 70.7807 94.1797 71.0516 94.1797C71.3745 94.1797 71.6193 94.0911 71.7859 93.9141C71.9578 93.7422 72.0438 93.4401 72.0438 93.0078V83.5469H73.4891ZM71.8953 81.3047C71.8953 81.0755 71.9656 80.8802 72.1063 80.7188C72.2521 80.5521 72.463 80.4688 72.7391 80.4688C73.0203 80.4688 73.2339 80.5495 73.3797 80.7109C73.5255 80.8724 73.5984 81.0703 73.5984 81.3047C73.5984 81.5391 73.5255 81.7344 73.3797 81.8906C73.2339 82.0469 73.0203 82.125 72.7391 82.125C72.4578 82.125 72.2469 82.0469 72.1063 81.8906C71.9656 81.7344 71.8953 81.5391 71.8953 81.3047ZM75.5922 87.6953C75.5922 86.8672 75.7536 86.1224 76.0766 85.4609C76.4047 84.7995 76.8578 84.2891 77.4359 83.9297C78.0193 83.5703 78.6833 83.3906 79.4281 83.3906C80.5792 83.3906 81.5089 83.7891 82.2172 84.5859C82.9307 85.3828 83.2875 86.4427 83.2875 87.7656V87.8672C83.2875 88.6901 83.1286 89.4297 82.8109 90.0859C82.4984 90.737 82.0479 91.2448 81.4594 91.6094C80.876 91.974 80.2042 92.1562 79.4437 92.1562C78.2979 92.1562 77.3682 91.7578 76.6547 90.9609C75.9464 90.1641 75.5922 89.1094 75.5922 87.7969V87.6953ZM77.0453 87.8672C77.0453 88.8047 77.2615 89.5573 77.6937 90.125C78.1312 90.6927 78.7146 90.9766 79.4437 90.9766C80.1781 90.9766 80.7615 90.6901 81.1937 90.1172C81.626 89.5391 81.8422 88.7318 81.8422 87.6953C81.8422 86.7682 81.6208 86.0182 81.1781 85.4453C80.7406 84.8672 80.1573 84.5781 79.4281 84.5781C78.7146 84.5781 78.1391 84.862 77.7016 85.4297C77.2641 85.9974 77.0453 86.8099 77.0453 87.8672ZM87.6094 88.0859L86.7031 89.0312V92H85.2578V80H86.7031V87.2578L87.4766 86.3281L90.1094 83.5469H91.8672L88.5781 87.0781L92.25 92H90.5547L87.6094 88.0859ZM96.8609 92.1562C95.7151 92.1562 94.7828 91.7812 94.0641 91.0312C93.3453 90.276 92.9859 89.2682 92.9859 88.0078V87.7422C92.9859 86.9036 93.1448 86.1562 93.4625 85.5C93.7854 84.8385 94.2333 84.3229 94.8063 83.9531C95.3844 83.5781 96.0094 83.3906 96.6813 83.3906C97.7802 83.3906 98.6344 83.7526 99.2438 84.4766C99.8531 85.2005 100.158 86.237 100.158 87.5859V88.1875H94.4313C94.4521 89.0208 94.6943 89.6953 95.1578 90.2109C95.6266 90.7214 96.2203 90.9766 96.9391 90.9766C97.4495 90.9766 97.8818 90.8724 98.2359 90.6641C98.5901 90.4557 98.9 90.1797 99.1656 89.8359L100.048 90.5234C99.3401 91.612 98.2776 92.1562 96.8609 92.1562ZM96.6813 84.5781C96.0979 84.5781 95.6083 84.7917 95.2125 85.2188C94.8167 85.6406 94.5719 86.2344 94.4781 87H98.7125V86.8906C98.6708 86.1562 98.4729 85.5885 98.1188 85.1875C97.7646 84.7812 97.2854 84.5781 96.6813 84.5781Z" fill="black" fill-opacity="0.87"/>
<path d="M18.5635 113H17.251V103.047H18.5635V113ZM22.2109 105.604L22.2451 106.424C22.7874 105.786 23.5189 105.467 24.4395 105.467C25.474 105.467 26.1781 105.863 26.5518 106.656C26.7979 106.301 27.1169 106.014 27.5088 105.795C27.9053 105.576 28.3724 105.467 28.9102 105.467C30.5326 105.467 31.3574 106.326 31.3848 108.044V113H30.1201V108.119C30.1201 107.59 29.9993 107.196 29.7578 106.937C29.5163 106.672 29.1107 106.54 28.541 106.54C28.0716 106.54 27.682 106.681 27.3721 106.964C27.0622 107.242 26.8822 107.618 26.832 108.092V113H25.5605V108.153C25.5605 107.078 25.0342 106.54 23.9814 106.54C23.152 106.54 22.5846 106.893 22.2793 107.6V113H21.0146V105.604H22.2109ZM39.7969 109.384C39.7969 110.509 39.5394 111.416 39.0244 112.104C38.5094 112.793 37.8122 113.137 36.9326 113.137C36.0348 113.137 35.3285 112.852 34.8135 112.282V115.844H33.5488V105.604H34.7041L34.7656 106.424C35.2806 105.786 35.9961 105.467 36.9121 105.467C37.8008 105.467 38.5026 105.802 39.0176 106.472C39.5371 107.142 39.7969 108.074 39.7969 109.268V109.384ZM38.5322 109.24C38.5322 108.406 38.3545 107.748 37.999 107.265C37.6436 106.782 37.1559 106.54 36.5361 106.54C35.7705 106.54 35.1963 106.88 34.8135 107.559V111.093C35.1917 111.767 35.7705 112.104 36.5498 112.104C37.1559 112.104 37.6367 111.865 37.9922 111.387C38.3522 110.904 38.5322 110.188 38.5322 109.24ZM45.2354 106.738C45.0439 106.706 44.8366 106.69 44.6133 106.69C43.7839 106.69 43.221 107.044 42.9248 107.75V113H41.6602V105.604H42.8906L42.9111 106.458C43.3258 105.797 43.9137 105.467 44.6748 105.467C44.9209 105.467 45.1077 105.499 45.2354 105.562V106.738ZM46.1826 109.233C46.1826 108.509 46.3239 107.857 46.6064 107.278C46.8936 106.7 47.29 106.253 47.7959 105.938C48.3063 105.624 48.8874 105.467 49.5391 105.467C50.5462 105.467 51.3597 105.815 51.9795 106.513C52.6038 107.21 52.916 108.137 52.916 109.295V109.384C52.916 110.104 52.777 110.751 52.499 111.325C52.2256 111.895 51.8314 112.339 51.3164 112.658C50.806 112.977 50.2181 113.137 49.5527 113.137C48.5501 113.137 47.7367 112.788 47.1123 112.091C46.4925 111.394 46.1826 110.471 46.1826 109.322V109.233ZM47.4541 109.384C47.4541 110.204 47.6432 110.863 48.0215 111.359C48.4043 111.856 48.9147 112.104 49.5527 112.104C50.1953 112.104 50.7057 111.854 51.084 111.353C51.4622 110.847 51.6514 110.14 51.6514 109.233C51.6514 108.422 51.4577 107.766 51.0703 107.265C50.6875 106.759 50.1771 106.506 49.5391 106.506C48.9147 106.506 48.4111 106.754 48.0283 107.251C47.6455 107.748 47.4541 108.459 47.4541 109.384ZM57.083 111.284L58.915 105.604H60.207L57.5547 113H56.5908L53.9111 105.604H55.2031L57.083 111.284ZM64.6475 113.137C63.6449 113.137 62.8291 112.809 62.2002 112.152C61.5713 111.492 61.2568 110.61 61.2568 109.507V109.274C61.2568 108.541 61.3958 107.887 61.6738 107.312C61.9564 106.734 62.3483 106.283 62.8496 105.959C63.3555 105.631 63.9023 105.467 64.4902 105.467C65.4518 105.467 66.1992 105.784 66.7324 106.417C67.2656 107.05 67.5322 107.957 67.5322 109.138V109.664H62.5215C62.5397 110.393 62.7516 110.983 63.1572 111.435C63.5674 111.881 64.0869 112.104 64.7158 112.104C65.1624 112.104 65.5407 112.013 65.8506 111.831C66.1605 111.649 66.4316 111.407 66.6641 111.106L67.4365 111.708C66.8167 112.66 65.887 113.137 64.6475 113.137ZM64.4902 106.506C63.9798 106.506 63.5514 106.693 63.2051 107.066C62.8587 107.436 62.6445 107.955 62.5625 108.625H66.2676V108.529C66.2311 107.887 66.0579 107.39 65.748 107.039C65.4382 106.684 65.0189 106.506 64.4902 106.506ZM74.1641 105.604L74.1982 106.424C74.7406 105.786 75.472 105.467 76.3926 105.467C77.4271 105.467 78.1312 105.863 78.5049 106.656C78.751 106.301 79.07 106.014 79.4619 105.795C79.8584 105.576 80.3255 105.467 80.8633 105.467C82.4857 105.467 83.3105 106.326 83.3379 108.044V113H82.0732V108.119C82.0732 107.59 81.9525 107.196 81.7109 106.937C81.4694 106.672 81.0638 106.54 80.4941 106.54C80.0247 106.54 79.6351 106.681 79.3252 106.964C79.0153 107.242 78.8353 107.618 78.7852 108.092V113H77.5137V108.153C77.5137 107.078 76.9873 106.54 75.9346 106.54C75.1051 106.54 74.5378 106.893 74.2324 107.6V113H72.9678V105.604H74.1641ZM87.9219 111.147L89.6445 105.604H90.998L88.0244 114.142C87.5641 115.372 86.8327 115.987 85.8301 115.987L85.5908 115.967L85.1191 115.878V114.853L85.4609 114.88C85.8893 114.88 86.222 114.793 86.459 114.62C86.7005 114.447 86.8988 114.13 87.0537 113.67L87.334 112.918L84.6953 105.604H86.0762L87.9219 111.147ZM100.412 111.038C100.412 110.696 100.282 110.432 100.022 110.245C99.7673 110.054 99.3184 109.89 98.6758 109.753C98.0378 109.616 97.5296 109.452 97.1514 109.261C96.7777 109.069 96.4997 108.841 96.3174 108.577C96.1396 108.313 96.0508 107.998 96.0508 107.634C96.0508 107.028 96.306 106.515 96.8164 106.096C97.3314 105.676 97.9876 105.467 98.7852 105.467C99.6237 105.467 100.303 105.683 100.822 106.116C101.346 106.549 101.608 107.103 101.608 107.777H100.337C100.337 107.431 100.189 107.132 99.8926 106.882C99.6009 106.631 99.2318 106.506 98.7852 106.506C98.3249 106.506 97.9648 106.606 97.7051 106.807C97.4453 107.007 97.3154 107.269 97.3154 107.593C97.3154 107.898 97.4362 108.128 97.6777 108.283C97.9193 108.438 98.3545 108.586 98.9834 108.728C99.6169 108.869 100.13 109.037 100.521 109.233C100.913 109.429 101.203 109.666 101.39 109.944C101.581 110.218 101.677 110.553 101.677 110.949C101.677 111.61 101.412 112.141 100.884 112.542C100.355 112.938 99.6693 113.137 98.8262 113.137C98.2337 113.137 97.7096 113.032 97.2539 112.822C96.7982 112.613 96.4404 112.321 96.1807 111.947C95.9255 111.569 95.7979 111.161 95.7979 110.724H97.0625C97.0853 111.147 97.2539 111.485 97.5684 111.735C97.8874 111.981 98.3066 112.104 98.8262 112.104C99.3047 112.104 99.6875 112.009 99.9746 111.817C100.266 111.621 100.412 111.362 100.412 111.038ZM106.644 113.137C105.641 113.137 104.825 112.809 104.196 112.152C103.567 111.492 103.253 110.61 103.253 109.507V109.274C103.253 108.541 103.392 107.887 103.67 107.312C103.952 106.734 104.344 106.283 104.846 105.959C105.352 105.631 105.898 105.467 106.486 105.467C107.448 105.467 108.195 105.784 108.729 106.417C109.262 107.05 109.528 107.957 109.528 109.138V109.664H104.518C104.536 110.393 104.748 110.983 105.153 111.435C105.563 111.881 106.083 112.104 106.712 112.104C107.159 112.104 107.537 112.013 107.847 111.831C108.157 111.649 108.428 111.407 108.66 111.106L109.433 111.708C108.813 112.66 107.883 113.137 106.644 113.137ZM106.486 106.506C105.976 106.506 105.548 106.693 105.201 107.066C104.855 107.436 104.641 107.955 104.559 108.625H108.264V108.529C108.227 107.887 108.054 107.39 107.744 107.039C107.434 106.684 107.015 106.506 106.486 106.506ZM112.444 105.604L112.485 106.533C113.05 105.822 113.789 105.467 114.7 105.467C116.263 105.467 117.052 106.349 117.065 108.112V113H115.801V108.105C115.796 107.572 115.673 107.178 115.432 106.923C115.195 106.668 114.823 106.54 114.317 106.54C113.907 106.54 113.547 106.649 113.237 106.868C112.927 107.087 112.686 107.374 112.513 107.729V113H111.248V105.604H112.444ZM123.529 111.038C123.529 110.696 123.399 110.432 123.14 110.245C122.884 110.054 122.436 109.89 121.793 109.753C121.155 109.616 120.647 109.452 120.269 109.261C119.895 109.069 119.617 108.841 119.435 108.577C119.257 108.313 119.168 107.998 119.168 107.634C119.168 107.028 119.423 106.515 119.934 106.096C120.449 105.676 121.105 105.467 121.902 105.467C122.741 105.467 123.42 105.683 123.939 106.116C124.464 106.549 124.726 107.103 124.726 107.777H123.454C123.454 107.431 123.306 107.132 123.01 106.882C122.718 106.631 122.349 106.506 121.902 106.506C121.442 106.506 121.082 106.606 120.822 106.807C120.562 107.007 120.433 107.269 120.433 107.593C120.433 107.898 120.553 108.128 120.795 108.283C121.036 108.438 121.472 108.586 122.101 108.728C122.734 108.869 123.247 109.037 123.639 109.233C124.031 109.429 124.32 109.666 124.507 109.944C124.698 110.218 124.794 110.553 124.794 110.949C124.794 111.61 124.53 112.141 124.001 112.542C123.472 112.938 122.786 113.137 121.943 113.137C121.351 113.137 120.827 113.032 120.371 112.822C119.915 112.613 119.558 112.321 119.298 111.947C119.043 111.569 118.915 111.161 118.915 110.724H120.18C120.202 111.147 120.371 111.485 120.686 111.735C121.005 111.981 121.424 112.104 121.943 112.104C122.422 112.104 122.805 112.009 123.092 111.817C123.383 111.621 123.529 111.362 123.529 111.038ZM129.761 113.137C128.758 113.137 127.942 112.809 127.313 112.152C126.685 111.492 126.37 110.61 126.37 109.507V109.274C126.37 108.541 126.509 107.887 126.787 107.312C127.07 106.734 127.462 106.283 127.963 105.959C128.469 105.631 129.016 105.467 129.604 105.467C130.565 105.467 131.312 105.784 131.846 106.417C132.379 107.05 132.646 107.957 132.646 109.138V109.664H127.635C127.653 110.393 127.865 110.983 128.271 111.435C128.681 111.881 129.2 112.104 129.829 112.104C130.276 112.104 130.654 112.013 130.964 111.831C131.274 111.649 131.545 111.407 131.777 111.106L132.55 111.708C131.93 112.66 131 113.137 129.761 113.137ZM129.604 106.506C129.093 106.506 128.665 106.693 128.318 107.066C127.972 107.436 127.758 107.955 127.676 108.625H131.381V108.529C131.344 107.887 131.171 107.39 130.861 107.039C130.551 106.684 130.132 106.506 129.604 106.506ZM137.753 109.233C137.753 108.509 137.894 107.857 138.177 107.278C138.464 106.7 138.86 106.253 139.366 105.938C139.877 105.624 140.458 105.467 141.109 105.467C142.117 105.467 142.93 105.815 143.55 106.513C144.174 107.21 144.486 108.137 144.486 109.295V109.384C144.486 110.104 144.347 110.751 144.069 111.325C143.796 111.895 143.402 112.339 142.887 112.658C142.376 112.977 141.788 113.137 141.123 113.137C140.12 113.137 139.307 112.788 138.683 112.091C138.063 111.394 137.753 110.471 137.753 109.322V109.233ZM139.024 109.384C139.024 110.204 139.214 110.863 139.592 111.359C139.975 111.856 140.485 112.104 141.123 112.104C141.766 112.104 142.276 111.854 142.654 111.353C143.033 110.847 143.222 110.14 143.222 109.233C143.222 108.422 143.028 107.766 142.641 107.265C142.258 106.759 141.747 106.506 141.109 106.506C140.485 106.506 139.981 106.754 139.599 107.251C139.216 107.748 139.024 108.459 139.024 109.384ZM146.944 113V106.581H145.775V105.604H146.944V104.845C146.944 104.052 147.156 103.439 147.58 103.006C148.004 102.573 148.603 102.356 149.378 102.356C149.67 102.356 149.959 102.395 150.246 102.473L150.178 103.498C149.964 103.457 149.736 103.437 149.494 103.437C149.084 103.437 148.767 103.557 148.544 103.799C148.321 104.036 148.209 104.378 148.209 104.824V105.604H149.788V106.581H148.209V113H146.944ZM156.427 106.499C156.987 105.811 157.716 105.467 158.614 105.467C160.177 105.467 160.966 106.349 160.979 108.112V113H159.715V108.105C159.71 107.572 159.587 107.178 159.346 106.923C159.109 106.668 158.737 106.54 158.231 106.54C157.821 106.54 157.461 106.649 157.151 106.868C156.841 107.087 156.6 107.374 156.427 107.729V113H155.162V102.5H156.427V106.499ZM167.689 112.269C167.197 112.847 166.475 113.137 165.522 113.137C164.734 113.137 164.132 112.909 163.718 112.453C163.308 111.993 163.1 111.314 163.096 110.416V105.604H164.36V110.382C164.36 111.503 164.816 112.063 165.728 112.063C166.694 112.063 167.336 111.703 167.655 110.983V105.604H168.92V113H167.717L167.689 112.269ZM172.287 105.604L172.321 106.424C172.864 105.786 173.595 105.467 174.516 105.467C175.55 105.467 176.254 105.863 176.628 106.656C176.874 106.301 177.193 106.014 177.585 105.795C177.981 105.576 178.449 105.467 178.986 105.467C180.609 105.467 181.434 106.326 181.461 108.044V113H180.196V108.119C180.196 107.59 180.076 107.196 179.834 106.937C179.592 106.672 179.187 106.54 178.617 106.54C178.148 106.54 177.758 106.681 177.448 106.964C177.138 107.242 176.958 107.618 176.908 108.092V113H175.637V108.153C175.637 107.078 175.11 106.54 174.058 106.54C173.228 106.54 172.661 106.893 172.355 107.6V113H171.091V105.604H172.287ZM183.29 109.233C183.29 108.509 183.431 107.857 183.714 107.278C184.001 106.7 184.397 106.253 184.903 105.938C185.414 105.624 185.995 105.467 186.646 105.467C187.654 105.467 188.467 105.815 189.087 106.513C189.711 107.21 190.023 108.137 190.023 109.295V109.384C190.023 110.104 189.884 110.751 189.606 111.325C189.333 111.895 188.939 112.339 188.424 112.658C187.913 112.977 187.326 113.137 186.66 113.137C185.658 113.137 184.844 112.788 184.22 112.091C183.6 111.394 183.29 110.471 183.29 109.322V109.233ZM184.562 109.384C184.562 110.204 184.751 110.863 185.129 111.359C185.512 111.856 186.022 112.104 186.66 112.104C187.303 112.104 187.813 111.854 188.191 111.353C188.57 110.847 188.759 110.14 188.759 109.233C188.759 108.422 188.565 107.766 188.178 107.265C187.795 106.759 187.285 106.506 186.646 106.506C186.022 106.506 185.519 106.754 185.136 107.251C184.753 107.748 184.562 108.459 184.562 109.384ZM195.435 106.738C195.243 106.706 195.036 106.69 194.812 106.69C193.983 106.69 193.42 107.044 193.124 107.75V113H191.859V105.604H193.09L193.11 106.458C193.525 105.797 194.113 105.467 194.874 105.467C195.12 105.467 195.307 105.499 195.435 105.562V106.738Z" fill="black" fill-opacity="0.6"/>
<path fill-rule="evenodd" clip-rule="evenodd" d="M383 94C384.1 94 385 93.1 385 92C385 90.9 384.1 90 383 90C381.9 90 381 90.9 381 92C381 93.1 381.9 94 383 94ZM383 96C381.9 96 381 96.9 381 98C381 99.1 381.9 100 383 100C384.1 100 385 99.1 385 98C385 96.9 384.1 96 383 96ZM383 102C381.9 102 381 102.9 381 104C381 105.1 381.9 106 383 106C384.1 106 385 105.1 385 104C385 102.9 384.1 102 383 102Z" fill="black" fill-opacity="0.6"/>
<rect x="18.2667" y="129" width="392.733" height="1" fill="#212121" fill-opacity="0.08"/>
</g>
<mask id="mask1_728:3528" style="mask-type:alpha" maskUnits="userSpaceOnUse" x="0" y="140" width="411" height="64">
<rect y="140" width="411" height="64" fill="white"/>
</mask>
<g mask="url(#mask1_728:3528)">
<path d="M23.75 160.742H18.8203V164.773H24.5469V166H17.3203V154.625H24.4688V155.859H18.8203V159.516H23.75V160.742ZM31.5562 166C31.4729 165.833 31.4052 165.536 31.3531 165.109C30.6812 165.807 29.8792 166.156 28.9469 166.156C28.1135 166.156 27.4286 165.922 26.8922 165.453C26.3609 164.979 26.0953 164.38 26.0953 163.656C26.0953 162.776 26.4286 162.094 27.0953 161.609C27.7672 161.12 28.7099 160.875 29.9234 160.875H31.3297V160.211C31.3297 159.706 31.1786 159.305 30.8766 159.008C30.5745 158.706 30.1292 158.555 29.5406 158.555C29.025 158.555 28.5927 158.685 28.2437 158.945C27.8948 159.206 27.7203 159.521 27.7203 159.891H26.2672C26.2672 159.469 26.4156 159.062 26.7125 158.672C27.0146 158.276 27.4208 157.964 27.9312 157.734C28.4469 157.505 29.012 157.391 29.6266 157.391C30.6005 157.391 31.3635 157.635 31.9156 158.125C32.4677 158.609 32.7542 159.279 32.775 160.133V164.023C32.775 164.799 32.874 165.417 33.0719 165.875V166H31.5562ZM29.1578 164.898C29.6109 164.898 30.0406 164.781 30.4469 164.547C30.8531 164.312 31.1474 164.008 31.3297 163.633V161.898H30.1969C28.426 161.898 27.5406 162.417 27.5406 163.453C27.5406 163.906 27.6917 164.26 27.9937 164.516C28.2958 164.771 28.6839 164.898 29.1578 164.898ZM37.1516 155.5V157.547H38.7297V158.664H37.1516V163.906C37.1516 164.245 37.2219 164.5 37.3625 164.672C37.5031 164.839 37.7427 164.922 38.0812 164.922C38.2479 164.922 38.4771 164.891 38.7687 164.828V166C38.3885 166.104 38.0187 166.156 37.6594 166.156C37.0135 166.156 36.5266 165.961 36.1984 165.57C35.8703 165.18 35.7062 164.625 35.7062 163.906V158.664H34.1672V157.547H35.7062V155.5H37.1516ZM51.85 161.867C51.85 163.159 51.5531 164.198 50.9594 164.984C50.3656 165.766 49.5688 166.156 48.5688 166.156C47.501 166.156 46.6755 165.779 46.0922 165.023L46.0219 166H44.6938V154H46.1391V158.477C46.7224 157.753 47.5271 157.391 48.5531 157.391C49.5792 157.391 50.3839 157.779 50.9672 158.555C51.5557 159.331 51.85 160.393 51.85 161.742V161.867ZM50.4047 161.703C50.4047 160.719 50.2146 159.958 49.8344 159.422C49.4542 158.885 48.9073 158.617 48.1938 158.617C47.2406 158.617 46.5557 159.06 46.1391 159.945V163.602C46.5818 164.487 47.2719 164.93 48.2094 164.93C48.9021 164.93 49.4411 164.661 49.8266 164.125C50.212 163.589 50.4047 162.781 50.4047 161.703ZM57.9141 158.844C57.6953 158.807 57.4583 158.789 57.2031 158.789C56.2552 158.789 55.612 159.193 55.2734 160V166H53.8281V157.547H55.2344L55.2578 158.523C55.7318 157.768 56.4036 157.391 57.2734 157.391C57.5547 157.391 57.7682 157.427 57.9141 157.5V158.844ZM62.7516 166.156C61.6057 166.156 60.6734 165.781 59.9547 165.031C59.2359 164.276 58.8766 163.268 58.8766 162.008V161.742C58.8766 160.904 59.0354 160.156 59.3531 159.5C59.676 158.839 60.124 158.323 60.6969 157.953C61.275 157.578 61.9 157.391 62.5719 157.391C63.6708 157.391 64.525 157.753 65.1344 158.477C65.7438 159.201 66.0484 160.237 66.0484 161.586V162.188H60.3219C60.3427 163.021 60.5849 163.695 61.0484 164.211C61.5172 164.721 62.1109 164.977 62.8297 164.977C63.3401 164.977 63.7724 164.872 64.1266 164.664C64.4807 164.456 64.7906 164.18 65.0563 163.836L65.9391 164.523C65.2307 165.612 64.1682 166.156 62.7516 166.156ZM62.5719 158.578C61.9885 158.578 61.499 158.792 61.1031 159.219C60.7073 159.641 60.4625 160.234 60.3688 161H64.6031V160.891C64.5615 160.156 64.3635 159.589 64.0094 159.188C63.6552 158.781 63.176 158.578 62.5719 158.578ZM73.0969 166C73.0135 165.833 72.9458 165.536 72.8937 165.109C72.2219 165.807 71.4198 166.156 70.4875 166.156C69.6542 166.156 68.9693 165.922 68.4328 165.453C67.9016 164.979 67.6359 164.38 67.6359 163.656C67.6359 162.776 67.9693 162.094 68.6359 161.609C69.3078 161.12 70.2505 160.875 71.4641 160.875H72.8703V160.211C72.8703 159.706 72.7193 159.305 72.4172 159.008C72.1151 158.706 71.6698 158.555 71.0812 158.555C70.5656 158.555 70.1333 158.685 69.7844 158.945C69.4354 159.206 69.2609 159.521 69.2609 159.891H67.8078C67.8078 159.469 67.9562 159.062 68.2531 158.672C68.5552 158.276 68.9615 157.964 69.4719 157.734C69.9875 157.505 70.5526 157.391 71.1672 157.391C72.1411 157.391 72.9042 157.635 73.4562 158.125C74.0083 158.609 74.2948 159.279 74.3156 160.133V164.023C74.3156 164.799 74.4146 165.417 74.6125 165.875V166H73.0969ZM70.6984 164.898C71.1516 164.898 71.5812 164.781 71.9875 164.547C72.3937 164.312 72.688 164.008 72.8703 163.633V161.898H71.7375C69.9667 161.898 69.0812 162.417 69.0812 163.453C69.0812 163.906 69.2323 164.26 69.5344 164.516C69.8365 164.771 70.2245 164.898 70.6984 164.898ZM79.0906 162.086L78.1844 163.031V166H76.7391V154H78.1844V161.258L78.9578 160.328L81.5906 157.547H83.3484L80.0594 161.078L83.7313 166H82.0359L79.0906 162.086ZM85.7016 166V158.664H84.3656V157.547H85.7016V156.68C85.7016 155.773 85.9437 155.073 86.4281 154.578C86.9125 154.083 87.5974 153.836 88.4828 153.836C88.8161 153.836 89.1469 153.88 89.475 153.969L89.3969 155.141C89.1521 155.094 88.8917 155.07 88.6156 155.07C88.1469 155.07 87.7849 155.208 87.5297 155.484C87.2745 155.755 87.1469 156.146 87.1469 156.656V157.547H88.9516V158.664H87.1469V166H85.7016ZM95.9219 166C95.8385 165.833 95.7708 165.536 95.7188 165.109C95.0469 165.807 94.2448 166.156 93.3125 166.156C92.4792 166.156 91.7943 165.922 91.2578 165.453C90.7266 164.979 90.4609 164.38 90.4609 163.656C90.4609 162.776 90.7943 162.094 91.4609 161.609C92.1328 161.12 93.0755 160.875 94.2891 160.875H95.6953V160.211C95.6953 159.706 95.5443 159.305 95.2422 159.008C94.9401 158.706 94.4948 158.555 93.9062 158.555C93.3906 158.555 92.9583 158.685 92.6094 158.945C92.2604 159.206 92.0859 159.521 92.0859 159.891H90.6328C90.6328 159.469 90.7812 159.062 91.0781 158.672C91.3802 158.276 91.7865 157.964 92.2969 157.734C92.8125 157.505 93.3776 157.391 93.9922 157.391C94.9661 157.391 95.7292 157.635 96.2812 158.125C96.8333 158.609 97.1198 159.279 97.1406 160.133V164.023C97.1406 164.799 97.2396 165.417 97.4375 165.875V166H95.9219ZM93.5234 164.898C93.9766 164.898 94.4062 164.781 94.8125 164.547C95.2188 164.312 95.513 164.008 95.6953 163.633V161.898H94.5625C92.7917 161.898 91.9062 162.417 91.9062 163.453C91.9062 163.906 92.0573 164.26 92.3594 164.516C92.6615 164.771 93.0495 164.898 93.5234 164.898ZM104.478 163.758C104.478 163.367 104.33 163.065 104.033 162.852C103.741 162.633 103.228 162.445 102.494 162.289C101.765 162.133 101.184 161.945 100.752 161.727C100.324 161.508 100.007 161.247 99.7984 160.945C99.5953 160.643 99.4938 160.284 99.4938 159.867C99.4938 159.174 99.7854 158.589 100.369 158.109C100.957 157.63 101.707 157.391 102.619 157.391C103.577 157.391 104.353 157.638 104.947 158.133C105.546 158.628 105.845 159.26 105.845 160.031H104.392C104.392 159.635 104.223 159.294 103.884 159.008C103.551 158.721 103.129 158.578 102.619 158.578C102.093 158.578 101.681 158.693 101.384 158.922C101.088 159.151 100.939 159.451 100.939 159.82C100.939 160.169 101.077 160.432 101.353 160.609C101.629 160.786 102.127 160.956 102.845 161.117C103.569 161.279 104.155 161.471 104.603 161.695C105.051 161.919 105.382 162.19 105.595 162.508C105.814 162.82 105.923 163.203 105.923 163.656C105.923 164.411 105.621 165.018 105.017 165.477C104.413 165.93 103.629 166.156 102.666 166.156C101.989 166.156 101.39 166.036 100.869 165.797C100.348 165.557 99.9391 165.224 99.6422 164.797C99.3505 164.365 99.2047 163.898 99.2047 163.398H100.65C100.676 163.883 100.869 164.268 101.228 164.555C101.593 164.836 102.072 164.977 102.666 164.977C103.213 164.977 103.65 164.867 103.978 164.648C104.311 164.424 104.478 164.128 104.478 163.758ZM109.917 155.5V157.547H111.495V158.664H109.917V163.906C109.917 164.245 109.988 164.5 110.128 164.672C110.269 164.839 110.508 164.922 110.847 164.922C111.014 164.922 111.243 164.891 111.534 164.828V166C111.154 166.104 110.784 166.156 110.425 166.156C109.779 166.156 109.292 165.961 108.964 165.57C108.636 165.18 108.472 164.625 108.472 163.906V158.664H106.933V157.547H108.472V155.5H109.917Z" fill="black" fill-opacity="0.87"/>
<path d="M17.1553 187V177.047H20.4092C21.4893 177.047 22.3005 177.27 22.8428 177.717C23.3896 178.163 23.6631 178.824 23.6631 179.699C23.6631 180.164 23.5309 180.576 23.2666 180.937C23.0023 181.292 22.6423 181.568 22.1865 181.764C22.7243 181.914 23.1481 182.201 23.458 182.625C23.7725 183.044 23.9297 183.546 23.9297 184.129C23.9297 185.022 23.6403 185.724 23.0615 186.234C22.4827 186.745 21.6647 187 20.6074 187H17.1553ZM18.4678 182.345V185.927H20.6348C21.2454 185.927 21.7262 185.77 22.0771 185.455C22.4326 185.136 22.6104 184.699 22.6104 184.143C22.6104 182.944 21.9587 182.345 20.6553 182.345H18.4678ZM18.4678 181.292H20.4502C21.0244 181.292 21.4824 181.148 21.8242 180.861C22.1706 180.574 22.3438 180.185 22.3438 179.692C22.3438 179.146 22.1842 178.749 21.8652 178.503C21.5462 178.252 21.0609 178.127 20.4092 178.127H18.4678V181.292ZM28.999 187.137C27.9964 187.137 27.1807 186.809 26.5518 186.152C25.9229 185.492 25.6084 184.61 25.6084 183.507V183.274C25.6084 182.541 25.7474 181.887 26.0254 181.312C26.3079 180.734 26.6999 180.283 27.2012 179.959C27.707 179.631 28.2539 179.467 28.8418 179.467C29.8034 179.467 30.5508 179.784 31.084 180.417C31.6172 181.05 31.8838 181.957 31.8838 183.138V183.664H26.873C26.8913 184.393 27.1032 184.983 27.5088 185.435C27.9189 185.881 28.4385 186.104 29.0674 186.104C29.514 186.104 29.8923 186.013 30.2021 185.831C30.512 185.649 30.7832 185.407 31.0156 185.106L31.7881 185.708C31.1683 186.66 30.2386 187.137 28.999 187.137ZM28.8418 180.506C28.3314 180.506 27.903 180.693 27.5566 181.066C27.2103 181.436 26.9961 181.955 26.9141 182.625H30.6191V182.529C30.5827 181.887 30.4095 181.39 30.0996 181.039C29.7897 180.684 29.3704 180.506 28.8418 180.506ZM38.5908 180.499C39.1514 179.811 39.8805 179.467 40.7783 179.467C42.3415 179.467 43.1299 180.349 43.1436 182.112V187H41.8789V182.105C41.8743 181.572 41.7513 181.178 41.5098 180.923C41.2728 180.668 40.9014 180.54 40.3955 180.54C39.9854 180.54 39.6253 180.649 39.3154 180.868C39.0055 181.087 38.764 181.374 38.5908 181.729V187H37.3262V176.5H38.5908V180.499ZM48.3564 187.137C47.3538 187.137 46.5381 186.809 45.9092 186.152C45.2803 185.492 44.9658 184.61 44.9658 183.507V183.274C44.9658 182.541 45.1048 181.887 45.3828 181.312C45.6654 180.734 46.0573 180.283 46.5586 179.959C47.0645 179.631 47.6113 179.467 48.1992 179.467C49.1608 179.467 49.9082 179.784 50.4414 180.417C50.9746 181.05 51.2412 181.957 51.2412 183.138V183.664H46.2305C46.2487 184.393 46.4606 184.983 46.8662 185.435C47.2764 185.881 47.7959 186.104 48.4248 186.104C48.8714 186.104 49.2497 186.013 49.5596 185.831C49.8695 185.649 50.1406 185.407 50.373 185.106L51.1455 185.708C50.5257 186.66 49.596 187.137 48.3564 187.137ZM48.1992 180.506C47.6888 180.506 47.2604 180.693 46.9141 181.066C46.5677 181.436 46.3535 181.955 46.2715 182.625H49.9766V182.529C49.9401 181.887 49.7669 181.39 49.457 181.039C49.1471 180.684 48.7279 180.506 48.1992 180.506ZM57.5273 187C57.4544 186.854 57.3952 186.594 57.3496 186.221C56.7617 186.831 56.0599 187.137 55.2441 187.137C54.515 187.137 53.9157 186.932 53.4463 186.521C52.9814 186.107 52.749 185.583 52.749 184.949C52.749 184.179 53.0407 183.582 53.624 183.158C54.2119 182.73 55.0368 182.516 56.0986 182.516H57.3291V181.935C57.3291 181.493 57.1969 181.142 56.9326 180.882C56.6683 180.618 56.2786 180.485 55.7637 180.485C55.3125 180.485 54.9342 180.599 54.6289 180.827C54.3236 181.055 54.1709 181.331 54.1709 181.654H52.8994C52.8994 181.285 53.0293 180.93 53.2891 180.588C53.5534 180.242 53.9089 179.968 54.3555 179.768C54.8066 179.567 55.3011 179.467 55.8389 179.467C56.6911 179.467 57.3587 179.681 57.8418 180.109C58.3249 180.533 58.5755 181.119 58.5938 181.866V185.271C58.5938 185.95 58.6803 186.49 58.8535 186.891V187H57.5273ZM55.4287 186.036C55.8252 186.036 56.2012 185.934 56.5566 185.729C56.9121 185.523 57.1696 185.257 57.3291 184.929V183.411H56.3379C54.7884 183.411 54.0137 183.865 54.0137 184.771C54.0137 185.168 54.1458 185.478 54.4102 185.701C54.6745 185.924 55.014 186.036 55.4287 186.036ZM62.2002 187H60.9355V176.5H62.2002V187ZM66.1963 177.812V179.604H67.5771V180.581H66.1963V185.168C66.1963 185.464 66.2578 185.688 66.3809 185.838C66.5039 185.984 66.7135 186.057 67.0098 186.057C67.1556 186.057 67.3561 186.029 67.6113 185.975V187C67.2786 187.091 66.9551 187.137 66.6406 187.137C66.0755 187.137 65.6494 186.966 65.3623 186.624C65.0752 186.282 64.9316 185.797 64.9316 185.168V180.581H63.585V179.604H64.9316V177.812H66.1963ZM70.5752 180.499C71.1357 179.811 71.8649 179.467 72.7627 179.467C74.3258 179.467 75.1143 180.349 75.1279 182.112V187H73.8633V182.105C73.8587 181.572 73.7357 181.178 73.4941 180.923C73.2572 180.668 72.8857 180.54 72.3799 180.54C71.9697 180.54 71.6097 180.649 71.2998 180.868C70.9899 181.087 70.7484 181.374 70.5752 181.729V187H69.3105V176.5H70.5752V180.499ZM79.6914 185.147L81.4141 179.604H82.7676L79.7939 188.142C79.3337 189.372 78.6022 189.987 77.5996 189.987L77.3604 189.967L76.8887 189.878V188.853L77.2305 188.88C77.6589 188.88 77.9915 188.793 78.2285 188.62C78.4701 188.447 78.6683 188.13 78.8232 187.67L79.1035 186.918L76.4648 179.604H77.8457L79.6914 185.147Z" fill="black" fill-opacity="0.6"/>
<path fill-rule="evenodd" clip-rule="evenodd" d="M383 168C384.1 168 385 167.1 385 166C385 164.9 384.1 164 383 164C381.9 164 381 164.9 381 166C381 167.1 381.9 168 383 168ZM383 170C381.9 170 381 170.9 381 172C381 173.1 381.9 174 383 174C384.1 174 385 173.1 385 172C385 170.9 384.1 170 383 170ZM383 176C381.9 176 381 176.9 381 178C381 179.1 381.9 180 383 180C384.1 180 385 179.1 385 178C385 176.9 384.1 176 383 176Z" fill="black" fill-opacity="0.6"/>
<rect x="18.2667" y="203" width="392.733" height="1" fill="#212121" fill-opacity="0.08"/>
</g>
<g filter="url(#filter1_ddd_728:3528)">
<rect width="411" height="56" fill="#6200EE"/>
<path fill-rule="evenodd" clip-rule="evenodd" d="M287 38C288.1 38 289 37.1 289 36H285C285 37.1 285.89 38 287 38ZM293 32V27C293 23.93 291.36 21.36 288.5 20.68V20C288.5 19.17 287.83 18.5 287 18.5C286.17 18.5 285.5 19.17 285.5 20V20.68C282.63 21.36 281 23.92 281 27V32L279 34V35H295V34L293 32Z" fill="white" fill-opacity="0.74"/>
<path fill-rule="evenodd" clip-rule="evenodd" d="M341 32.08C340.24 32.08 339.56 32.38 339.04 32.85L331.91 28.7C331.96 28.47 332 28.24 332 28C332 27.76 331.96 27.53 331.91 27.3L338.96 23.19C339.5 23.69 340.21 24 341 24C342.66 24 344 22.66 344 21C344 19.34 342.66 18 341 18C339.34 18 338 19.34 338 21C338 21.24 338.04 21.47 338.09 21.7L331.04 25.81C330.5 25.31 329.79 25 329 25C327.34 25 326 26.34 326 28C326 29.66 327.34 31 329 31C329.79 31 330.5 30.69 331.04 30.19L338.16 34.35C338.11 34.56 338.08 34.78 338.08 35C338.08 36.61 339.39 37.92 341 37.92C342.61 37.92 343.92 36.61 343.92 35C343.92 33.39 342.61 32.08 341 32.08Z" fill="white" fill-opacity="0.74"/>
<path fill-rule="evenodd" clip-rule="evenodd" d="M386.5 30H385.71L385.43 29.73C386.41 28.59 387 27.11 387 25.5C387 21.91 384.09 19 380.5 19C376.91 19 374 21.91 374 25.5C374 29.09 376.91 32 380.5 32C382.11 32 383.59 31.41 384.73 30.43L385 30.71V31.5L390 36.49L391.49 35L386.5 30ZM380.5 30C378.01 30 376 27.99 376 25.5C376 23.01 378.01 21 380.5 21C382.99 21 385 23.01 385 25.5C385 27.99 382.99 30 380.5 30Z" fill="white" fill-opacity="0.74"/>
<path fill-rule="evenodd" clip-rule="evenodd" d="M19 34H37V32H19V34ZM19 29H37V27H19V29ZM19 22V24H37V22H19Z" fill="white" fill-opacity="0.74"/>
</g>
</g>
<defs>
<filter id="filter0_ddd_728:3528" x="-8" y="652" width="427" height="88" filterUnits="userSpaceOnUse" color-interpolation-filters="sRGB">
<feFlood flood-opacity="0" result="BackgroundImageFix"/>
<feColorMatrix in="SourceAlpha" type="matrix" values="0 0 0 0 0 0 0 0 0 0 0 0 0 0 0 0 0 0 127 0" result="hardAlpha"/>
<feOffset dy="1"/>
<feGaussianBlur stdDeviation="4"/>
<feColorMatrix type="matrix" values="0 0 0 0 0 0 0 0 0 0 0 0 0 0 0 0 0 0 0.2 0"/>
<feBlend mode="normal" in2="BackgroundImageFix" result="effect1_dropShadow_728:3528"/>
<feColorMatrix in="SourceAlpha" type="matrix" values="0 0 0 0 0 0 0 0 0 0 0 0 0 0 0 0 0 0 127 0" result="hardAlpha"/>
<feOffset dy="3"/>
<feGaussianBlur stdDeviation="1.5"/>
<feColorMatrix type="matrix" values="0 0 0 0 0 0 0 0 0 0 0 0 0 0 0 0 0 0 0.12 0"/>
<feBlend mode="normal" in2="effect1_dropShadow_728:3528" result="effect2_dropShadow_728:3528"/>
<feColorMatrix in="SourceAlpha" type="matrix" values="0 0 0 0 0 0 0 0 0 0 0 0 0 0 0 0 0 0 127 0" result="hardAlpha"/>
<feOffset dy="3"/>
<feGaussianBlur stdDeviation="2"/>
<feColorMatrix type="matrix" values="0 0 0 0 0 0 0 0 0 0 0 0 0 0 0 0 0 0 0.14 0"/>
<feBlend mode="normal" in2="effect2_dropShadow_728:3528" result="effect3_dropShadow_728:3528"/>
<feBlend mode="normal" in="SourceGraphic" in2="effect3_dropShadow_728:3528" result="shape"/>
</filter>
<filter id="filter1_ddd_728:3528" x="-10" y="-9" width="431" height="76" filterUnits="userSpaceOnUse" color-interpolation-filters="sRGB">
<feFlood flood-opacity="0" result="BackgroundImageFix"/>
<feColorMatrix in="SourceAlpha" type="matrix" values="0 0 0 0 0 0 0 0 0 0 0 0 0 0 0 0 0 0 127 0" result="hardAlpha"/>
<feOffset dy="2"/>
<feGaussianBlur stdDeviation="2"/>
<feColorMatrix type="matrix" values="0 0 0 0 0 0 0 0 0 0 0 0 0 0 0 0 0 0 0.2 0"/>
<feBlend mode="normal" in2="BackgroundImageFix" result="effect1_dropShadow_728:3528"/>
<feColorMatrix in="SourceAlpha" type="matrix" values="0 0 0 0 0 0 0 0 0 0 0 0 0 0 0 0 0 0 127 0" result="hardAlpha"/>
<feOffset dy="1"/>
<feGaussianBlur stdDeviation="5"/>
<feColorMatrix type="matrix" values="0 0 0 0 0 0 0 0 0 0 0 0 0 0 0 0 0 0 0.12 0"/>
<feBlend mode="normal" in2="effect1_dropShadow_728:3528" result="effect2_dropShadow_728:3528"/>
<feColorMatrix in="SourceAlpha" type="matrix" values="0 0 0 0 0 0 0 0 0 0 0 0 0 0 0 0 0 0 127 0" result="hardAlpha"/>
<feOffset dy="4"/>
<feGaussianBlur stdDeviation="2.5"/>
<feColorMatrix type="matrix" values="0 0 0 0 0 0 0 0 0 0 0 0 0 0 0 0 0 0 0.14 0"/>
<feBlend mode="normal" in2="effect2_dropShadow_728:3528" result="effect3_dropShadow_728:3528"/>
<feBlend mode="normal" in="SourceGraphic" in2="effect3_dropShadow_728:3528" result="shape"/>
</filter>
<clipPath id="clip0_728:3528">
<rect width="411" height="731" fill="white"/>
</clipPath>
</defs>
</svg>
