<svg width="411" height="731" viewBox="0 0 411 731" fill="none" xmlns="http://www.w3.org/2000/svg">
<rect width="411" height="731" fill="#F1F1F1"/>
<g clip-path="url(#clip0)">
<rect width="411" height="731" fill="white"/>
<g filter="url(#filter0_ddd)">
<rect width="411" height="72" transform="translate(0 659)" fill="#6200EE"/>
<rect width="102.75" height="72" transform="translate(0 659)" fill="#6200EE"/>
<rect width="102.75" height="2" transform="translate(0 729)" fill="#6200EE"/>
<rect y="729" width="103" height="2" fill="white"/>
<path d="M36.8008 706.441H33.6973V715H31.9814V706.441H28.9053V705.047H36.8008V706.441ZM47.1152 710.283C47.1152 711.258 46.9466 712.115 46.6094 712.854C46.2721 713.587 45.7891 714.152 45.1602 714.549C44.5358 714.941 43.8158 715.137 43 715.137C42.1934 715.137 41.4733 714.941 40.8398 714.549C40.2109 714.152 39.7233 713.59 39.377 712.86C39.0352 712.131 38.862 711.29 38.8574 710.338V709.777C38.8574 708.807 39.0283 707.95 39.3701 707.207C39.7165 706.464 40.2018 705.897 40.8262 705.505C41.4551 705.108 42.1751 704.91 42.9863 704.91C43.7975 704.91 44.5153 705.106 45.1396 705.498C45.7686 705.885 46.2539 706.446 46.5957 707.18C46.9375 707.909 47.1107 708.759 47.1152 709.729V710.283ZM45.3857 709.764C45.3857 708.661 45.1761 707.815 44.7568 707.228C44.3421 706.64 43.752 706.346 42.9863 706.346C42.2389 706.346 41.6533 706.64 41.2295 707.228C40.8102 707.811 40.596 708.638 40.5869 709.709V710.283C40.5869 711.377 40.7988 712.222 41.2227 712.819C41.651 713.416 42.2435 713.715 43 713.715C43.7656 713.715 44.3535 713.423 44.7637 712.84C45.1784 712.257 45.3857 711.404 45.3857 710.283V709.764ZM50.0879 715V705.047H53.0273C53.9069 705.047 54.6862 705.243 55.3652 705.635C56.0488 706.027 56.5775 706.583 56.9512 707.303C57.3249 708.023 57.5117 708.848 57.5117 709.777V710.276C57.5117 711.22 57.3226 712.049 56.9443 712.765C56.5706 713.48 56.0352 714.032 55.3379 714.419C54.6452 714.806 53.8499 715 52.9521 715H50.0879ZM51.8174 706.441V713.619H52.9453C53.8522 713.619 54.5472 713.337 55.0303 712.771C55.5179 712.202 55.7663 711.386 55.7754 710.324V709.771C55.7754 708.69 55.5407 707.866 55.0713 707.296C54.6019 706.726 53.9206 706.441 53.0273 706.441H51.8174ZM65.9053 712.683H62.0498L61.2432 715H59.4453L63.2051 705.047H64.7568L68.5234 715H66.7188L65.9053 712.683ZM62.5352 711.288H65.4199L63.9775 707.159L62.5352 711.288ZM73.1299 709.764L75.4199 705.047H77.334L73.998 711.336V715H72.2617V711.336L68.9189 705.047H70.8398L73.1299 709.764Z" fill="white"/>
<path fill-rule="evenodd" clip-rule="evenodd" d="M51 693C52.1 693 53 692.1 53 691H49C49 692.1 49.89 693 51 693ZM57 687V682C57 678.93 55.36 676.36 52.5 675.68V675C52.5 674.17 51.83 673.5 51 673.5C50.17 673.5 49.5 674.17 49.5 675V675.68C46.63 676.36 45 678.92 45 682V687L43 689V690H59V689L57 687Z" fill="white"/>
<rect width="102.75" height="72" transform="translate(102.75 659)" fill="#6200EE"/>
<path d="M138.012 710.557H133.924V713.619H138.702V715H132.194V705.047H138.654V706.441H133.924V709.189H138.012V710.557ZM144.867 712.833L147.396 705.047H149.297L145.715 715H144.04L140.472 705.047H142.365L144.867 712.833ZM157.492 710.557H153.404V713.619H158.183V715H151.675V705.047H158.135V706.441H153.404V709.189H157.492V710.557ZM168.736 715H167.007L162.57 707.938V715H160.841V705.047H162.57L167.021 712.136V705.047H168.736V715ZM179.017 706.441H175.913V715H174.197V706.441H171.121V705.047H179.017V706.441Z" fill="white" fill-opacity="0.74"/>
<path d="M150.75 682H148.75V684H150.75V682ZM154.75 682H152.75V684H154.75V682ZM158.75 682H156.75V684H158.75V682ZM160.75 675H159.75V673H157.75V675H149.75V673H147.75V675H146.75C145.64 675 144.76 675.9 144.76 677L144.75 691C144.75 691.53 144.961 692.039 145.336 692.414C145.711 692.789 146.22 693 146.75 693H160.75C161.85 693 162.75 692.1 162.75 691V677C162.75 675.9 161.85 675 160.75 675ZM160.75 691H146.75V680H160.75V691Z" fill="white" fill-opacity="0.74"/>
<rect width="102.75" height="72" transform="translate(205.5 659)" fill="#6200EE"/>
<path d="M243.673 715H241.95V710.577H237.5V715H235.771V705.047H237.5V709.189H241.95V705.047H243.673V715ZM252.668 712.683H248.812L248.006 715H246.208L249.968 705.047H251.52L255.286 715H253.481L252.668 712.683ZM249.298 711.288H252.183L250.74 707.159L249.298 711.288ZM257.671 715V705.047H261.082C262.208 705.047 263.064 705.272 263.652 705.724C264.24 706.175 264.534 706.847 264.534 707.74C264.534 708.196 264.411 708.606 264.165 708.971C263.919 709.335 263.559 709.618 263.085 709.818C263.623 709.964 264.037 710.24 264.329 710.646C264.625 711.047 264.773 711.53 264.773 712.095C264.773 713.029 264.473 713.747 263.871 714.248C263.274 714.749 262.417 715 261.301 715H257.671ZM259.4 710.509V713.619H261.321C261.864 713.619 262.287 713.485 262.593 713.216C262.898 712.947 263.051 712.573 263.051 712.095C263.051 711.06 262.522 710.532 261.465 710.509H259.4ZM259.4 709.237H261.096C261.633 709.237 262.053 709.117 262.354 708.875C262.659 708.629 262.812 708.283 262.812 707.836C262.812 707.344 262.67 706.988 262.388 706.77C262.11 706.551 261.674 706.441 261.082 706.441H259.4V709.237ZM269.578 715H267.855V705.047H269.578V715ZM279.94 706.441H276.837V715H275.121V706.441H272.045V705.047H279.94V706.441Z" fill="white" fill-opacity="0.74"/>
<path fill-rule="evenodd" clip-rule="evenodd" d="M256.5 692.35L255.05 691.03C249.9 686.36 246.5 683.28 246.5 679.5C246.5 676.42 248.92 674 252 674C253.74 674 255.41 674.81 256.5 676.09C257.59 674.81 259.26 674 261 674C264.08 674 266.5 676.42 266.5 679.5C266.5 683.28 263.1 686.36 257.95 691.04L256.5 692.35Z" fill="white" fill-opacity="0.74"/>
<rect width="102.75" height="72" transform="translate(308.25 659)" fill="#6200EE"/>
<path d="M322.205 711.76C322.105 712.822 321.713 713.651 321.029 714.248C320.346 714.84 319.437 715.137 318.302 715.137C317.509 715.137 316.809 714.95 316.203 714.576C315.602 714.198 315.137 713.662 314.809 712.97C314.48 712.277 314.31 711.473 314.296 710.557V709.627C314.296 708.688 314.462 707.861 314.795 707.146C315.128 706.43 315.604 705.879 316.224 705.491C316.848 705.104 317.568 704.91 318.384 704.91C319.482 704.91 320.366 705.209 321.036 705.806C321.706 706.403 322.096 707.246 322.205 708.335H320.482C320.4 707.619 320.191 707.104 319.854 706.79C319.521 706.471 319.031 706.312 318.384 706.312C317.632 706.312 317.053 706.587 316.647 707.139C316.246 707.686 316.041 708.49 316.032 709.552V710.434C316.032 711.509 316.224 712.329 316.606 712.895C316.994 713.46 317.559 713.742 318.302 713.742C318.981 713.742 319.491 713.59 319.833 713.284C320.175 712.979 320.391 712.471 320.482 711.76H322.205ZM332.95 710.283C332.95 711.258 332.782 712.115 332.444 712.854C332.107 713.587 331.624 714.152 330.995 714.549C330.371 714.941 329.651 715.137 328.835 715.137C328.028 715.137 327.308 714.941 326.675 714.549C326.046 714.152 325.558 713.59 325.212 712.86C324.87 712.131 324.697 711.29 324.692 710.338V709.777C324.692 708.807 324.863 707.95 325.205 707.207C325.551 706.464 326.037 705.897 326.661 705.505C327.29 705.108 328.01 704.91 328.821 704.91C329.632 704.91 330.35 705.106 330.975 705.498C331.604 705.885 332.089 706.446 332.431 707.18C332.772 707.909 332.946 708.759 332.95 709.729V710.283ZM331.221 709.764C331.221 708.661 331.011 707.815 330.592 707.228C330.177 706.64 329.587 706.346 328.821 706.346C328.074 706.346 327.488 706.64 327.064 707.228C326.645 707.811 326.431 708.638 326.422 709.709V710.283C326.422 711.377 326.634 712.222 327.058 712.819C327.486 713.416 328.078 713.715 328.835 713.715C329.601 713.715 330.188 713.423 330.599 712.84C331.013 712.257 331.221 711.404 331.221 710.283V709.764ZM338.165 705.047L341.036 712.676L343.9 705.047H346.136V715H344.413V711.719L344.584 707.33L341.645 715H340.407L337.475 707.337L337.646 711.719V715H335.923V705.047H338.165ZM351.679 705.047L354.55 712.676L357.414 705.047H359.649V715H357.927V711.719L358.098 707.33L355.158 715H353.921L350.988 707.337L351.159 711.719V715H349.437V705.047H351.679ZM370.23 705.047V711.698C370.23 712.756 369.891 713.594 369.212 714.214C368.537 714.829 367.637 715.137 366.512 715.137C365.372 715.137 364.468 714.834 363.798 714.228C363.128 713.617 362.793 712.771 362.793 711.691V705.047H364.516V711.705C364.516 712.37 364.684 712.879 365.021 713.229C365.359 713.58 365.855 713.756 366.512 713.756C367.842 713.756 368.508 713.054 368.508 711.65V705.047H370.23ZM381.229 715H379.499L375.062 707.938V715H373.333V705.047H375.062L379.513 712.136V705.047H381.229V715ZM386.348 715H384.625V705.047H386.348V715ZM396.71 706.441H393.606V715H391.891V706.441H388.814V705.047H396.71V706.441ZM402.629 709.764L404.919 705.047H406.833L403.497 711.336V715H401.761V711.336L398.418 705.047H400.339L402.629 709.764Z" fill="white" fill-opacity="0.74"/>
<path d="M363.25 682C364.91 682 366.24 680.66 366.24 679C366.24 677.34 364.91 676 363.25 676C361.59 676 360.25 677.34 360.25 679C360.25 680.66 361.59 682 363.25 682ZM355.25 682C356.91 682 358.24 680.66 358.24 679C358.24 677.34 356.91 676 355.25 676C353.59 676 352.25 677.34 352.25 679C352.25 680.66 353.59 682 355.25 682ZM355.25 684C352.92 684 348.25 685.17 348.25 687.5V690H362.25V687.5C362.25 685.17 357.58 684 355.25 684ZM363.25 684C362.96 684 362.63 684.02 362.28 684.05C363.44 684.89 364.25 686.02 364.25 687.5V690H370.25V687.5C370.25 685.17 365.58 684 363.25 684Z" fill="white" fill-opacity="0.74"/>
</g>
<mask id="mask0" style="mask-type:alpha" maskUnits="userSpaceOnUse" x="0" y="66" width="411" height="64">
<rect y="66" width="411" height="64" fill="white"/>
</mask>
<g mask="url(#mask0)">
<path d="M26.0625 92H24.5547V86.7422H18.8203V92H17.3203V80.625H18.8203V85.5156H24.5547V80.625H26.0625V92ZM33.8687 92C33.7854 91.8333 33.7177 91.5365 33.6656 91.1094C32.9937 91.8073 32.1917 92.1562 31.2594 92.1562C30.426 92.1562 29.7411 91.9219 29.2047 91.4531C28.6734 90.9792 28.4078 90.3802 28.4078 89.6562C28.4078 88.776 28.7411 88.0938 29.4078 87.6094C30.0797 87.1198 31.0224 86.875 32.2359 86.875H33.6422V86.2109C33.6422 85.7057 33.4911 85.3047 33.1891 85.0078C32.887 84.7057 32.4417 84.5547 31.8531 84.5547C31.3375 84.5547 30.9052 84.6849 30.5562 84.9453C30.2073 85.2057 30.0328 85.5208 30.0328 85.8906H28.5797C28.5797 85.4688 28.7281 85.0625 29.025 84.6719C29.3271 84.276 29.7333 83.9635 30.2437 83.7344C30.7594 83.5052 31.3245 83.3906 31.9391 83.3906C32.913 83.3906 33.676 83.6354 34.2281 84.125C34.7802 84.6094 35.0667 85.2786 35.0875 86.1328V90.0234C35.0875 90.7995 35.1865 91.4167 35.3844 91.875V92H33.8687ZM31.4703 90.8984C31.9234 90.8984 32.3531 90.7812 32.7594 90.5469C33.1656 90.3125 33.4599 90.0078 33.6422 89.6328V87.8984H32.5094C30.7385 87.8984 29.8531 88.4167 29.8531 89.4531C29.8531 89.9062 30.0042 90.2604 30.3062 90.5156C30.6083 90.7708 30.9964 90.8984 31.4703 90.8984ZM44.6594 87.8672C44.6594 89.1589 44.3625 90.1979 43.7687 90.9844C43.175 91.7656 42.3781 92.1562 41.3781 92.1562C40.3104 92.1562 39.4849 91.7786 38.9016 91.0234L38.8312 92H37.5031V80H38.9484V84.4766C39.5318 83.7526 40.3365 83.3906 41.3625 83.3906C42.3885 83.3906 43.1932 83.7786 43.7766 84.5547C44.3651 85.3307 44.6594 86.3932 44.6594 87.7422V87.8672ZM43.2141 87.7031C43.2141 86.7188 43.024 85.9583 42.6437 85.4219C42.2635 84.8854 41.7167 84.6172 41.0031 84.6172C40.05 84.6172 39.3651 85.0599 38.9484 85.9453V89.6016C39.3911 90.487 40.0812 90.9297 41.0187 90.9297C41.7115 90.9297 42.2505 90.6615 42.6359 90.125C43.0214 89.5885 43.2141 88.7812 43.2141 87.7031ZM48.2078 92H46.7625V83.5469H48.2078V92ZM46.6453 81.3047C46.6453 81.0703 46.7156 80.8724 46.8563 80.7109C47.0021 80.5495 47.2156 80.4688 47.4969 80.4688C47.7781 80.4688 47.9917 80.5495 48.1375 80.7109C48.2833 80.8724 48.3563 81.0703 48.3563 81.3047C48.3563 81.5391 48.2833 81.7344 48.1375 81.8906C47.9917 82.0469 47.7781 82.125 47.4969 82.125C47.2156 82.125 47.0021 82.0469 46.8563 81.8906C46.7156 81.7344 46.6453 81.5391 46.6453 81.3047ZM52.6391 81.5V83.5469H54.2172V84.6641H52.6391V89.9062C52.6391 90.2448 52.7094 90.5 52.85 90.6719C52.9906 90.8385 53.2302 90.9219 53.5687 90.9219C53.7354 90.9219 53.9646 90.8906 54.2562 90.8281V92C53.876 92.1042 53.5062 92.1562 53.1469 92.1562C52.501 92.1562 52.0141 91.9609 51.6859 91.5703C51.3578 91.1797 51.1937 90.625 51.1937 89.9062V84.6641H49.6547V83.5469H51.1937V81.5H52.6391ZM64.7828 92H63.3297V82.3672L60.4156 83.4375V82.125L64.5563 80.5703H64.7828V92Z" fill="black" fill-opacity="0.87"/>
<path d="M17.1553 113V103.047H19.9648C20.8307 103.047 21.5964 103.238 22.2617 103.621C22.9271 104.004 23.4398 104.549 23.7998 105.255C24.1644 105.961 24.349 106.772 24.3535 107.688V108.324C24.3535 109.263 24.1712 110.086 23.8066 110.792C23.4466 111.498 22.9294 112.041 22.2549 112.419C21.585 112.797 20.8034 112.991 19.9102 113H17.1553ZM18.4678 104.127V111.927H19.8486C20.8604 111.927 21.6465 111.612 22.207 110.983C22.7721 110.354 23.0547 109.459 23.0547 108.297V107.716C23.0547 106.586 22.7881 105.708 22.2549 105.084C21.7262 104.455 20.9743 104.136 19.999 104.127H18.4678ZM29.4639 113.137C28.4613 113.137 27.6455 112.809 27.0166 112.152C26.3877 111.492 26.0732 110.61 26.0732 109.507V109.274C26.0732 108.541 26.2122 107.887 26.4902 107.312C26.7728 106.734 27.1647 106.283 27.666 105.959C28.1719 105.631 28.7188 105.467 29.3066 105.467C30.2682 105.467 31.0156 105.784 31.5488 106.417C32.082 107.05 32.3486 107.957 32.3486 109.138V109.664H27.3379C27.3561 110.393 27.568 110.983 27.9736 111.435C28.3838 111.881 28.9033 112.104 29.5322 112.104C29.9788 112.104 30.3571 112.013 30.667 111.831C30.9769 111.649 31.248 111.407 31.4805 111.106L32.2529 111.708C31.6331 112.66 30.7035 113.137 29.4639 113.137ZM29.3066 106.506C28.7962 106.506 28.3678 106.693 28.0215 107.066C27.6751 107.436 27.4609 107.955 27.3789 108.625H31.084V108.529C31.0475 107.887 30.8743 107.39 30.5645 107.039C30.2546 106.684 29.8353 106.506 29.3066 106.506ZM38.375 111.038C38.375 110.696 38.2451 110.432 37.9854 110.245C37.7301 110.054 37.2812 109.89 36.6387 109.753C36.0007 109.616 35.4925 109.452 35.1143 109.261C34.7406 109.069 34.4626 108.841 34.2803 108.577C34.1025 108.313 34.0137 107.998 34.0137 107.634C34.0137 107.028 34.2689 106.515 34.7793 106.096C35.2943 105.676 35.9505 105.467 36.748 105.467C37.5866 105.467 38.2656 105.683 38.7852 106.116C39.3092 106.549 39.5713 107.103 39.5713 107.777H38.2998C38.2998 107.431 38.1517 107.132 37.8555 106.882C37.5638 106.631 37.1947 106.506 36.748 106.506C36.2878 106.506 35.9277 106.606 35.668 106.807C35.4082 107.007 35.2783 107.269 35.2783 107.593C35.2783 107.898 35.3991 108.128 35.6406 108.283C35.8822 108.438 36.3174 108.586 36.9463 108.728C37.5798 108.869 38.0924 109.037 38.4844 109.233C38.8763 109.429 39.1657 109.666 39.3525 109.944C39.5439 110.218 39.6396 110.553 39.6396 110.949C39.6396 111.61 39.3753 112.141 38.8467 112.542C38.318 112.938 37.6322 113.137 36.7891 113.137C36.1966 113.137 35.6725 113.032 35.2168 112.822C34.7611 112.613 34.4033 112.321 34.1436 111.947C33.8883 111.569 33.7607 111.161 33.7607 110.724H35.0254C35.0482 111.147 35.2168 111.485 35.5312 111.735C35.8503 111.981 36.2695 112.104 36.7891 112.104C37.2676 112.104 37.6504 112.009 37.9375 111.817C38.2292 111.621 38.375 111.362 38.375 111.038ZM44.5039 112.104C44.9551 112.104 45.3493 111.968 45.6865 111.694C46.0238 111.421 46.2106 111.079 46.2471 110.669H47.4434C47.4206 111.093 47.2747 111.496 47.0059 111.879C46.737 112.262 46.377 112.567 45.9258 112.795C45.4792 113.023 45.0052 113.137 44.5039 113.137C43.4967 113.137 42.6947 112.802 42.0977 112.132C41.5052 111.457 41.209 110.537 41.209 109.37V109.158C41.209 108.438 41.3411 107.798 41.6055 107.237C41.8698 106.677 42.248 106.242 42.7402 105.932C43.237 105.622 43.8226 105.467 44.4971 105.467C45.3265 105.467 46.0146 105.715 46.5615 106.212C47.113 106.709 47.4069 107.354 47.4434 108.146H46.2471C46.2106 107.668 46.0283 107.276 45.7002 106.971C45.3766 106.661 44.9756 106.506 44.4971 106.506C43.8545 106.506 43.3555 106.738 43 107.203C42.6491 107.663 42.4736 108.331 42.4736 109.206V109.445C42.4736 110.298 42.6491 110.954 43 111.414C43.3509 111.874 43.8522 112.104 44.5039 112.104ZM52.6904 106.738C52.499 106.706 52.2917 106.69 52.0684 106.69C51.2389 106.69 50.6761 107.044 50.3799 107.75V113H49.1152V105.604H50.3457L50.3662 106.458C50.7809 105.797 51.3688 105.467 52.1299 105.467C52.376 105.467 52.5628 105.499 52.6904 105.562V106.738ZM55.4834 113H54.2188V105.604H55.4834V113ZM54.1162 103.642C54.1162 103.437 54.1777 103.263 54.3008 103.122C54.4284 102.981 54.6152 102.91 54.8613 102.91C55.1074 102.91 55.2943 102.981 55.4219 103.122C55.5495 103.263 55.6133 103.437 55.6133 103.642C55.6133 103.847 55.5495 104.018 55.4219 104.154C55.2943 104.291 55.1074 104.359 54.8613 104.359C54.6152 104.359 54.4284 104.291 54.3008 104.154C54.1777 104.018 54.1162 103.847 54.1162 103.642ZM64.0117 109.384C64.0117 110.509 63.7542 111.416 63.2393 112.104C62.7243 112.793 62.027 113.137 61.1475 113.137C60.2497 113.137 59.5433 112.852 59.0283 112.282V115.844H57.7637V105.604H58.9189L58.9805 106.424C59.4954 105.786 60.2109 105.467 61.127 105.467C62.0156 105.467 62.7174 105.802 63.2324 106.472C63.752 107.142 64.0117 108.074 64.0117 109.268V109.384ZM62.7471 109.24C62.7471 108.406 62.5693 107.748 62.2139 107.265C61.8584 106.782 61.3708 106.54 60.751 106.54C59.9854 106.54 59.4111 106.88 59.0283 107.559V111.093C59.4066 111.767 59.9854 112.104 60.7646 112.104C61.3708 112.104 61.8516 111.865 62.207 111.387C62.5671 110.904 62.7471 110.188 62.7471 109.24ZM67.5908 103.812V105.604H68.9717V106.581H67.5908V111.168C67.5908 111.464 67.6523 111.688 67.7754 111.838C67.8984 111.984 68.1081 112.057 68.4043 112.057C68.5501 112.057 68.7507 112.029 69.0059 111.975V113C68.6732 113.091 68.3496 113.137 68.0352 113.137C67.4701 113.137 67.0439 112.966 66.7568 112.624C66.4697 112.282 66.3262 111.797 66.3262 111.168V106.581H64.9795V105.604H66.3262V103.812H67.5908ZM72.0791 113H70.8145V105.604H72.0791V113ZM70.7119 103.642C70.7119 103.437 70.7734 103.263 70.8965 103.122C71.0241 102.981 71.2109 102.91 71.457 102.91C71.7031 102.91 71.89 102.981 72.0176 103.122C72.1452 103.263 72.209 103.437 72.209 103.642C72.209 103.847 72.1452 104.018 72.0176 104.154C71.89 104.291 71.7031 104.359 71.457 104.359C71.2109 104.359 71.0241 104.291 70.8965 104.154C70.7734 104.018 70.7119 103.847 70.7119 103.642ZM74.0244 109.233C74.0244 108.509 74.1657 107.857 74.4482 107.278C74.7354 106.7 75.1318 106.253 75.6377 105.938C76.1481 105.624 76.7292 105.467 77.3809 105.467C78.388 105.467 79.2015 105.815 79.8213 106.513C80.4456 107.21 80.7578 108.137 80.7578 109.295V109.384C80.7578 110.104 80.6188 110.751 80.3408 111.325C80.0674 111.895 79.6732 112.339 79.1582 112.658C78.6478 112.977 78.0599 113.137 77.3945 113.137C76.3919 113.137 75.5785 112.788 74.9541 112.091C74.3343 111.394 74.0244 110.471 74.0244 109.322V109.233ZM75.2959 109.384C75.2959 110.204 75.485 110.863 75.8633 111.359C76.2461 111.856 76.7565 112.104 77.3945 112.104C78.0371 112.104 78.5475 111.854 78.9258 111.353C79.304 110.847 79.4932 110.14 79.4932 109.233C79.4932 108.422 79.2995 107.766 78.9121 107.265C78.5293 106.759 78.0189 106.506 77.3809 106.506C76.7565 106.506 76.2529 106.754 75.8701 107.251C75.4873 107.748 75.2959 108.459 75.2959 109.384ZM83.79 105.604L83.8311 106.533C84.3962 105.822 85.1344 105.467 86.0459 105.467C87.609 105.467 88.3975 106.349 88.4111 108.112V113H87.1465V108.105C87.1419 107.572 87.0189 107.178 86.7773 106.923C86.5404 106.668 86.1689 106.54 85.6631 106.54C85.2529 106.54 84.8929 106.649 84.583 106.868C84.2731 107.087 84.0316 107.374 83.8584 107.729V113H82.5938V105.604H83.79ZM94.9131 113V106.581H93.7441V105.604H94.9131V104.845C94.9131 104.052 95.125 103.439 95.5488 103.006C95.9727 102.573 96.5719 102.356 97.3467 102.356C97.6383 102.356 97.9277 102.395 98.2148 102.473L98.1465 103.498C97.9323 103.457 97.7044 103.437 97.4629 103.437C97.0527 103.437 96.736 103.557 96.5127 103.799C96.2894 104.036 96.1777 104.378 96.1777 104.824V105.604H97.7568V106.581H96.1777V113H94.9131ZM99.0732 109.233C99.0732 108.509 99.2145 107.857 99.4971 107.278C99.7842 106.7 100.181 106.253 100.687 105.938C101.197 105.624 101.778 105.467 102.43 105.467C103.437 105.467 104.25 105.815 104.87 106.513C105.494 107.21 105.807 108.137 105.807 109.295V109.384C105.807 110.104 105.668 110.751 105.39 111.325C105.116 111.895 104.722 112.339 104.207 112.658C103.697 112.977 103.109 113.137 102.443 113.137C101.441 113.137 100.627 112.788 100.003 112.091C99.3831 111.394 99.0732 110.471 99.0732 109.322V109.233ZM100.345 109.384C100.345 110.204 100.534 110.863 100.912 111.359C101.295 111.856 101.805 112.104 102.443 112.104C103.086 112.104 103.596 111.854 103.975 111.353C104.353 110.847 104.542 110.14 104.542 109.233C104.542 108.422 104.348 107.766 103.961 107.265C103.578 106.759 103.068 106.506 102.43 106.506C101.805 106.506 101.302 106.754 100.919 107.251C100.536 107.748 100.345 108.459 100.345 109.384ZM111.218 106.738C111.026 106.706 110.819 106.69 110.596 106.69C109.766 106.69 109.203 107.044 108.907 107.75V113H107.643V105.604H108.873L108.894 106.458C109.308 105.797 109.896 105.467 110.657 105.467C110.903 105.467 111.09 105.499 111.218 105.562V106.738ZM124.207 113H122.888V108.399H117.87V113H116.558V103.047H117.87V107.326H122.888V103.047H124.207V113ZM131.156 113C131.083 112.854 131.024 112.594 130.979 112.221C130.391 112.831 129.689 113.137 128.873 113.137C128.144 113.137 127.545 112.932 127.075 112.521C126.61 112.107 126.378 111.583 126.378 110.949C126.378 110.179 126.67 109.582 127.253 109.158C127.841 108.73 128.666 108.516 129.728 108.516H130.958V107.935C130.958 107.493 130.826 107.142 130.562 106.882C130.297 106.618 129.908 106.485 129.393 106.485C128.941 106.485 128.563 106.599 128.258 106.827C127.952 107.055 127.8 107.331 127.8 107.654H126.528C126.528 107.285 126.658 106.93 126.918 106.588C127.182 106.242 127.538 105.968 127.984 105.768C128.436 105.567 128.93 105.467 129.468 105.467C130.32 105.467 130.988 105.681 131.471 106.109C131.954 106.533 132.204 107.119 132.223 107.866V111.271C132.223 111.95 132.309 112.49 132.482 112.891V113H131.156ZM129.058 112.036C129.454 112.036 129.83 111.934 130.186 111.729C130.541 111.523 130.799 111.257 130.958 110.929V109.411H129.967C128.417 109.411 127.643 109.865 127.643 110.771C127.643 111.168 127.775 111.478 128.039 111.701C128.303 111.924 128.643 112.036 129.058 112.036ZM140.717 109.384C140.717 110.514 140.457 111.423 139.938 112.111C139.418 112.795 138.721 113.137 137.846 113.137C136.911 113.137 136.189 112.806 135.679 112.146L135.617 113H134.455V102.5H135.72V106.417C136.23 105.784 136.934 105.467 137.832 105.467C138.73 105.467 139.434 105.806 139.944 106.485C140.459 107.164 140.717 108.094 140.717 109.274V109.384ZM139.452 109.24C139.452 108.379 139.286 107.714 138.953 107.244C138.62 106.775 138.142 106.54 137.518 106.54C136.684 106.54 136.084 106.927 135.72 107.702V110.901C136.107 111.676 136.711 112.063 137.531 112.063C138.137 112.063 138.609 111.829 138.946 111.359C139.284 110.89 139.452 110.184 139.452 109.24ZM143.94 113H142.676V105.604H143.94V113ZM142.573 103.642C142.573 103.437 142.635 103.263 142.758 103.122C142.885 102.981 143.072 102.91 143.318 102.91C143.564 102.91 143.751 102.981 143.879 103.122C144.007 103.263 144.07 103.437 144.07 103.642C144.07 103.847 144.007 104.018 143.879 104.154C143.751 104.291 143.564 104.359 143.318 104.359C143.072 104.359 142.885 104.291 142.758 104.154C142.635 104.018 142.573 103.847 142.573 103.642ZM147.937 103.812V105.604H149.317V106.581H147.937V111.168C147.937 111.464 147.998 111.688 148.121 111.838C148.244 111.984 148.454 112.057 148.75 112.057C148.896 112.057 149.096 112.029 149.352 111.975V113C149.019 113.091 148.695 113.137 148.381 113.137C147.816 113.137 147.39 112.966 147.103 112.624C146.815 112.282 146.672 111.797 146.672 111.168V106.581H145.325V105.604H146.672V103.812H147.937ZM158.8 113H157.528V104.571L154.979 105.508V104.359L158.602 102.999H158.8V113Z" fill="black" fill-opacity="0.6"/>
<path fill-rule="evenodd" clip-rule="evenodd" d="M383 94C384.1 94 385 93.1 385 92C385 90.9 384.1 90 383 90C381.9 90 381 90.9 381 92C381 93.1 381.9 94 383 94ZM383 96C381.9 96 381 96.9 381 98C381 99.1 381.9 100 383 100C384.1 100 385 99.1 385 98C385 96.9 384.1 96 383 96ZM383 102C381.9 102 381 102.9 381 104C381 105.1 381.9 106 383 106C384.1 106 385 105.1 385 104C385 102.9 384.1 102 383 102Z" fill="black" fill-opacity="0.6"/>
<rect x="18.2667" y="129" width="392.733" height="1" fill="#212121" fill-opacity="0.08"/>
</g>
<mask id="mask1" style="mask-type:alpha" maskUnits="userSpaceOnUse" x="0" y="140" width="411" height="64">
<rect y="140" width="411" height="64" fill="white"/>
</mask>
<g mask="url(#mask1)">
<path d="M26.0625 166H24.5547V160.742H18.8203V166H17.3203V154.625H18.8203V159.516H24.5547V154.625H26.0625V166ZM33.8687 166C33.7854 165.833 33.7177 165.536 33.6656 165.109C32.9937 165.807 32.1917 166.156 31.2594 166.156C30.426 166.156 29.7411 165.922 29.2047 165.453C28.6734 164.979 28.4078 164.38 28.4078 163.656C28.4078 162.776 28.7411 162.094 29.4078 161.609C30.0797 161.12 31.0224 160.875 32.2359 160.875H33.6422V160.211C33.6422 159.706 33.4911 159.305 33.1891 159.008C32.887 158.706 32.4417 158.555 31.8531 158.555C31.3375 158.555 30.9052 158.685 30.5562 158.945C30.2073 159.206 30.0328 159.521 30.0328 159.891H28.5797C28.5797 159.469 28.7281 159.062 29.025 158.672C29.3271 158.276 29.7333 157.964 30.2437 157.734C30.7594 157.505 31.3245 157.391 31.9391 157.391C32.913 157.391 33.676 157.635 34.2281 158.125C34.7802 158.609 35.0667 159.279 35.0875 160.133V164.023C35.0875 164.799 35.1865 165.417 35.3844 165.875V166H33.8687ZM31.4703 164.898C31.9234 164.898 32.3531 164.781 32.7594 164.547C33.1656 164.312 33.4599 164.008 33.6422 163.633V161.898H32.5094C30.7385 161.898 29.8531 162.417 29.8531 163.453C29.8531 163.906 30.0042 164.26 30.3062 164.516C30.6083 164.771 30.9964 164.898 31.4703 164.898ZM44.6594 161.867C44.6594 163.159 44.3625 164.198 43.7687 164.984C43.175 165.766 42.3781 166.156 41.3781 166.156C40.3104 166.156 39.4849 165.779 38.9016 165.023L38.8312 166H37.5031V154H38.9484V158.477C39.5318 157.753 40.3365 157.391 41.3625 157.391C42.3885 157.391 43.1932 157.779 43.7766 158.555C44.3651 159.331 44.6594 160.393 44.6594 161.742V161.867ZM43.2141 161.703C43.2141 160.719 43.024 159.958 42.6437 159.422C42.2635 158.885 41.7167 158.617 41.0031 158.617C40.05 158.617 39.3651 159.06 38.9484 159.945V163.602C39.3911 164.487 40.0812 164.93 41.0187 164.93C41.7115 164.93 42.2505 164.661 42.6359 164.125C43.0214 163.589 43.2141 162.781 43.2141 161.703ZM48.2078 166H46.7625V157.547H48.2078V166ZM46.6453 155.305C46.6453 155.07 46.7156 154.872 46.8563 154.711C47.0021 154.549 47.2156 154.469 47.4969 154.469C47.7781 154.469 47.9917 154.549 48.1375 154.711C48.2833 154.872 48.3563 155.07 48.3563 155.305C48.3563 155.539 48.2833 155.734 48.1375 155.891C47.9917 156.047 47.7781 156.125 47.4969 156.125C47.2156 156.125 47.0021 156.047 46.8563 155.891C46.7156 155.734 46.6453 155.539 46.6453 155.305ZM52.6391 155.5V157.547H54.2172V158.664H52.6391V163.906C52.6391 164.245 52.7094 164.5 52.85 164.672C52.9906 164.839 53.2302 164.922 53.5687 164.922C53.7354 164.922 53.9646 164.891 54.2562 164.828V166C53.876 166.104 53.5062 166.156 53.1469 166.156C52.501 166.156 52.0141 165.961 51.6859 165.57C51.3578 165.18 51.1937 164.625 51.1937 163.906V158.664H49.6547V157.547H51.1937V155.5H52.6391ZM67.4859 166H60.0328V164.961L63.9703 160.586C64.5536 159.924 64.9547 159.388 65.1734 158.977C65.3974 158.56 65.5094 158.13 65.5094 157.688C65.5094 157.094 65.3297 156.607 64.9703 156.227C64.6109 155.846 64.1318 155.656 63.5328 155.656C62.8141 155.656 62.2542 155.862 61.8531 156.273C61.4573 156.68 61.2594 157.247 61.2594 157.977H59.8141C59.8141 156.93 60.15 156.083 60.8219 155.438C61.499 154.792 62.4026 154.469 63.5328 154.469C64.5901 154.469 65.426 154.747 66.0406 155.305C66.6552 155.857 66.9625 156.594 66.9625 157.516C66.9625 158.635 66.249 159.969 64.8219 161.516L61.775 164.82H67.4859V166Z" fill="black" fill-opacity="0.87"/>
<path d="M17.1553 187V177.047H19.9648C20.8307 177.047 21.5964 177.238 22.2617 177.621C22.9271 178.004 23.4398 178.549 23.7998 179.255C24.1644 179.961 24.349 180.772 24.3535 181.688V182.324C24.3535 183.263 24.1712 184.086 23.8066 184.792C23.4466 185.498 22.9294 186.041 22.2549 186.419C21.585 186.797 20.8034 186.991 19.9102 187H17.1553ZM18.4678 178.127V185.927H19.8486C20.8604 185.927 21.6465 185.612 22.207 184.983C22.7721 184.354 23.0547 183.459 23.0547 182.297V181.716C23.0547 180.586 22.7881 179.708 22.2549 179.084C21.7262 178.455 20.9743 178.136 19.999 178.127H18.4678ZM29.4639 187.137C28.4613 187.137 27.6455 186.809 27.0166 186.152C26.3877 185.492 26.0732 184.61 26.0732 183.507V183.274C26.0732 182.541 26.2122 181.887 26.4902 181.312C26.7728 180.734 27.1647 180.283 27.666 179.959C28.1719 179.631 28.7188 179.467 29.3066 179.467C30.2682 179.467 31.0156 179.784 31.5488 180.417C32.082 181.05 32.3486 181.957 32.3486 183.138V183.664H27.3379C27.3561 184.393 27.568 184.983 27.9736 185.435C28.3838 185.881 28.9033 186.104 29.5322 186.104C29.9788 186.104 30.3571 186.013 30.667 185.831C30.9769 185.649 31.248 185.407 31.4805 185.106L32.2529 185.708C31.6331 186.66 30.7035 187.137 29.4639 187.137ZM29.3066 180.506C28.7962 180.506 28.3678 180.693 28.0215 181.066C27.6751 181.436 27.4609 181.955 27.3789 182.625H31.084V182.529C31.0475 181.887 30.8743 181.39 30.5645 181.039C30.2546 180.684 29.8353 180.506 29.3066 180.506ZM38.375 185.038C38.375 184.696 38.2451 184.432 37.9854 184.245C37.7301 184.054 37.2812 183.89 36.6387 183.753C36.0007 183.616 35.4925 183.452 35.1143 183.261C34.7406 183.069 34.4626 182.841 34.2803 182.577C34.1025 182.313 34.0137 181.998 34.0137 181.634C34.0137 181.028 34.2689 180.515 34.7793 180.096C35.2943 179.676 35.9505 179.467 36.748 179.467C37.5866 179.467 38.2656 179.683 38.7852 180.116C39.3092 180.549 39.5713 181.103 39.5713 181.777H38.2998C38.2998 181.431 38.1517 181.132 37.8555 180.882C37.5638 180.631 37.1947 180.506 36.748 180.506C36.2878 180.506 35.9277 180.606 35.668 180.807C35.4082 181.007 35.2783 181.269 35.2783 181.593C35.2783 181.898 35.3991 182.128 35.6406 182.283C35.8822 182.438 36.3174 182.586 36.9463 182.728C37.5798 182.869 38.0924 183.037 38.4844 183.233C38.8763 183.429 39.1657 183.666 39.3525 183.944C39.5439 184.218 39.6396 184.553 39.6396 184.949C39.6396 185.61 39.3753 186.141 38.8467 186.542C38.318 186.938 37.6322 187.137 36.7891 187.137C36.1966 187.137 35.6725 187.032 35.2168 186.822C34.7611 186.613 34.4033 186.321 34.1436 185.947C33.8883 185.569 33.7607 185.161 33.7607 184.724H35.0254C35.0482 185.147 35.2168 185.485 35.5312 185.735C35.8503 185.981 36.2695 186.104 36.7891 186.104C37.2676 186.104 37.6504 186.009 37.9375 185.817C38.2292 185.621 38.375 185.362 38.375 185.038ZM44.5039 186.104C44.9551 186.104 45.3493 185.968 45.6865 185.694C46.0238 185.421 46.2106 185.079 46.2471 184.669H47.4434C47.4206 185.093 47.2747 185.496 47.0059 185.879C46.737 186.262 46.377 186.567 45.9258 186.795C45.4792 187.023 45.0052 187.137 44.5039 187.137C43.4967 187.137 42.6947 186.802 42.0977 186.132C41.5052 185.457 41.209 184.537 41.209 183.37V183.158C41.209 182.438 41.3411 181.798 41.6055 181.237C41.8698 180.677 42.248 180.242 42.7402 179.932C43.237 179.622 43.8226 179.467 44.4971 179.467C45.3265 179.467 46.0146 179.715 46.5615 180.212C47.113 180.709 47.4069 181.354 47.4434 182.146H46.2471C46.2106 181.668 46.0283 181.276 45.7002 180.971C45.3766 180.661 44.9756 180.506 44.4971 180.506C43.8545 180.506 43.3555 180.738 43 181.203C42.6491 181.663 42.4736 182.331 42.4736 183.206V183.445C42.4736 184.298 42.6491 184.954 43 185.414C43.3509 185.874 43.8522 186.104 44.5039 186.104ZM52.6904 180.738C52.499 180.706 52.2917 180.69 52.0684 180.69C51.2389 180.69 50.6761 181.044 50.3799 181.75V187H49.1152V179.604H50.3457L50.3662 180.458C50.7809 179.797 51.3688 179.467 52.1299 179.467C52.376 179.467 52.5628 179.499 52.6904 179.562V180.738ZM55.4834 187H54.2188V179.604H55.4834V187ZM54.1162 177.642C54.1162 177.437 54.1777 177.263 54.3008 177.122C54.4284 176.981 54.6152 176.91 54.8613 176.91C55.1074 176.91 55.2943 176.981 55.4219 177.122C55.5495 177.263 55.6133 177.437 55.6133 177.642C55.6133 177.847 55.5495 178.018 55.4219 178.154C55.2943 178.291 55.1074 178.359 54.8613 178.359C54.6152 178.359 54.4284 178.291 54.3008 178.154C54.1777 178.018 54.1162 177.847 54.1162 177.642ZM64.0117 183.384C64.0117 184.509 63.7542 185.416 63.2393 186.104C62.7243 186.793 62.027 187.137 61.1475 187.137C60.2497 187.137 59.5433 186.852 59.0283 186.282V189.844H57.7637V179.604H58.9189L58.9805 180.424C59.4954 179.786 60.2109 179.467 61.127 179.467C62.0156 179.467 62.7174 179.802 63.2324 180.472C63.752 181.142 64.0117 182.074 64.0117 183.268V183.384ZM62.7471 183.24C62.7471 182.406 62.5693 181.748 62.2139 181.265C61.8584 180.782 61.3708 180.54 60.751 180.54C59.9854 180.54 59.4111 180.88 59.0283 181.559V185.093C59.4066 185.767 59.9854 186.104 60.7646 186.104C61.3708 186.104 61.8516 185.865 62.207 185.387C62.5671 184.904 62.7471 184.188 62.7471 183.24ZM67.5908 177.812V179.604H68.9717V180.581H67.5908V185.168C67.5908 185.464 67.6523 185.688 67.7754 185.838C67.8984 185.984 68.1081 186.057 68.4043 186.057C68.5501 186.057 68.7507 186.029 69.0059 185.975V187C68.6732 187.091 68.3496 187.137 68.0352 187.137C67.4701 187.137 67.0439 186.966 66.7568 186.624C66.4697 186.282 66.3262 185.797 66.3262 185.168V180.581H64.9795V179.604H66.3262V177.812H67.5908ZM72.0791 187H70.8145V179.604H72.0791V187ZM70.7119 177.642C70.7119 177.437 70.7734 177.263 70.8965 177.122C71.0241 176.981 71.2109 176.91 71.457 176.91C71.7031 176.91 71.89 176.981 72.0176 177.122C72.1452 177.263 72.209 177.437 72.209 177.642C72.209 177.847 72.1452 178.018 72.0176 178.154C71.89 178.291 71.7031 178.359 71.457 178.359C71.2109 178.359 71.0241 178.291 70.8965 178.154C70.7734 178.018 70.7119 177.847 70.7119 177.642ZM74.0244 183.233C74.0244 182.509 74.1657 181.857 74.4482 181.278C74.7354 180.7 75.1318 180.253 75.6377 179.938C76.1481 179.624 76.7292 179.467 77.3809 179.467C78.388 179.467 79.2015 179.815 79.8213 180.513C80.4456 181.21 80.7578 182.137 80.7578 183.295V183.384C80.7578 184.104 80.6188 184.751 80.3408 185.325C80.0674 185.895 79.6732 186.339 79.1582 186.658C78.6478 186.977 78.0599 187.137 77.3945 187.137C76.3919 187.137 75.5785 186.788 74.9541 186.091C74.3343 185.394 74.0244 184.471 74.0244 183.322V183.233ZM75.2959 183.384C75.2959 184.204 75.485 184.863 75.8633 185.359C76.2461 185.856 76.7565 186.104 77.3945 186.104C78.0371 186.104 78.5475 185.854 78.9258 185.353C79.304 184.847 79.4932 184.14 79.4932 183.233C79.4932 182.422 79.2995 181.766 78.9121 181.265C78.5293 180.759 78.0189 180.506 77.3809 180.506C76.7565 180.506 76.2529 180.754 75.8701 181.251C75.4873 181.748 75.2959 182.459 75.2959 183.384ZM83.79 179.604L83.8311 180.533C84.3962 179.822 85.1344 179.467 86.0459 179.467C87.609 179.467 88.3975 180.349 88.4111 182.112V187H87.1465V182.105C87.1419 181.572 87.0189 181.178 86.7773 180.923C86.5404 180.668 86.1689 180.54 85.6631 180.54C85.2529 180.54 84.8929 180.649 84.583 180.868C84.2731 181.087 84.0316 181.374 83.8584 181.729V187H82.5938V179.604H83.79ZM94.9131 187V180.581H93.7441V179.604H94.9131V178.845C94.9131 178.052 95.125 177.439 95.5488 177.006C95.9727 176.573 96.5719 176.356 97.3467 176.356C97.6383 176.356 97.9277 176.395 98.2148 176.473L98.1465 177.498C97.9323 177.457 97.7044 177.437 97.4629 177.437C97.0527 177.437 96.736 177.557 96.5127 177.799C96.2894 178.036 96.1777 178.378 96.1777 178.824V179.604H97.7568V180.581H96.1777V187H94.9131ZM99.0732 183.233C99.0732 182.509 99.2145 181.857 99.4971 181.278C99.7842 180.7 100.181 180.253 100.687 179.938C101.197 179.624 101.778 179.467 102.43 179.467C103.437 179.467 104.25 179.815 104.87 180.513C105.494 181.21 105.807 182.137 105.807 183.295V183.384C105.807 184.104 105.668 184.751 105.39 185.325C105.116 185.895 104.722 186.339 104.207 186.658C103.697 186.977 103.109 187.137 102.443 187.137C101.441 187.137 100.627 186.788 100.003 186.091C99.3831 185.394 99.0732 184.471 99.0732 183.322V183.233ZM100.345 183.384C100.345 184.204 100.534 184.863 100.912 185.359C101.295 185.856 101.805 186.104 102.443 186.104C103.086 186.104 103.596 185.854 103.975 185.353C104.353 184.847 104.542 184.14 104.542 183.233C104.542 182.422 104.348 181.766 103.961 181.265C103.578 180.759 103.068 180.506 102.43 180.506C101.805 180.506 101.302 180.754 100.919 181.251C100.536 181.748 100.345 182.459 100.345 183.384ZM111.218 180.738C111.026 180.706 110.819 180.69 110.596 180.69C109.766 180.69 109.203 181.044 108.907 181.75V187H107.643V179.604H108.873L108.894 180.458C109.308 179.797 109.896 179.467 110.657 179.467C110.903 179.467 111.09 179.499 111.218 179.562V180.738ZM124.207 187H122.888V182.399H117.87V187H116.558V177.047H117.87V181.326H122.888V177.047H124.207V187ZM131.156 187C131.083 186.854 131.024 186.594 130.979 186.221C130.391 186.831 129.689 187.137 128.873 187.137C128.144 187.137 127.545 186.932 127.075 186.521C126.61 186.107 126.378 185.583 126.378 184.949C126.378 184.179 126.67 183.582 127.253 183.158C127.841 182.73 128.666 182.516 129.728 182.516H130.958V181.935C130.958 181.493 130.826 181.142 130.562 180.882C130.297 180.618 129.908 180.485 129.393 180.485C128.941 180.485 128.563 180.599 128.258 180.827C127.952 181.055 127.8 181.331 127.8 181.654H126.528C126.528 181.285 126.658 180.93 126.918 180.588C127.182 180.242 127.538 179.968 127.984 179.768C128.436 179.567 128.93 179.467 129.468 179.467C130.32 179.467 130.988 179.681 131.471 180.109C131.954 180.533 132.204 181.119 132.223 181.866V185.271C132.223 185.95 132.309 186.49 132.482 186.891V187H131.156ZM129.058 186.036C129.454 186.036 129.83 185.934 130.186 185.729C130.541 185.523 130.799 185.257 130.958 184.929V183.411H129.967C128.417 183.411 127.643 183.865 127.643 184.771C127.643 185.168 127.775 185.478 128.039 185.701C128.303 185.924 128.643 186.036 129.058 186.036ZM140.717 183.384C140.717 184.514 140.457 185.423 139.938 186.111C139.418 186.795 138.721 187.137 137.846 187.137C136.911 187.137 136.189 186.806 135.679 186.146L135.617 187H134.455V176.5H135.72V180.417C136.23 179.784 136.934 179.467 137.832 179.467C138.73 179.467 139.434 179.806 139.944 180.485C140.459 181.164 140.717 182.094 140.717 183.274V183.384ZM139.452 183.24C139.452 182.379 139.286 181.714 138.953 181.244C138.62 180.775 138.142 180.54 137.518 180.54C136.684 180.54 136.084 180.927 135.72 181.702V184.901C136.107 185.676 136.711 186.063 137.531 186.063C138.137 186.063 138.609 185.829 138.946 185.359C139.284 184.89 139.452 184.184 139.452 183.24ZM143.94 187H142.676V179.604H143.94V187ZM142.573 177.642C142.573 177.437 142.635 177.263 142.758 177.122C142.885 176.981 143.072 176.91 143.318 176.91C143.564 176.91 143.751 176.981 143.879 177.122C144.007 177.263 144.07 177.437 144.07 177.642C144.07 177.847 144.007 178.018 143.879 178.154C143.751 178.291 143.564 178.359 143.318 178.359C143.072 178.359 142.885 178.291 142.758 178.154C142.635 178.018 142.573 177.847 142.573 177.642ZM147.937 177.812V179.604H149.317V180.581H147.937V185.168C147.937 185.464 147.998 185.688 148.121 185.838C148.244 185.984 148.454 186.057 148.75 186.057C148.896 186.057 149.096 186.029 149.352 185.975V187C149.019 187.091 148.695 187.137 148.381 187.137C147.816 187.137 147.39 186.966 147.103 186.624C146.815 186.282 146.672 185.797 146.672 185.168V180.581H145.325V179.604H146.672V177.812H147.937ZM161.165 187H154.644V186.091L158.089 182.263C158.599 181.684 158.95 181.215 159.142 180.854C159.338 180.49 159.436 180.114 159.436 179.727C159.436 179.207 159.278 178.781 158.964 178.448C158.649 178.116 158.23 177.949 157.706 177.949C157.077 177.949 156.587 178.129 156.236 178.489C155.89 178.845 155.717 179.341 155.717 179.979H154.452C154.452 179.063 154.746 178.323 155.334 177.758C155.926 177.193 156.717 176.91 157.706 176.91C158.631 176.91 159.363 177.154 159.9 177.642C160.438 178.125 160.707 178.77 160.707 179.576C160.707 180.556 160.083 181.723 158.834 183.076L156.168 185.968H161.165V187Z" fill="black" fill-opacity="0.6"/>
<path fill-rule="evenodd" clip-rule="evenodd" d="M383 168C384.1 168 385 167.1 385 166C385 164.9 384.1 164 383 164C381.9 164 381 164.9 381 166C381 167.1 381.9 168 383 168ZM383 170C381.9 170 381 170.9 381 172C381 173.1 381.9 174 383 174C384.1 174 385 173.1 385 172C385 170.9 384.1 170 383 170ZM383 176C381.9 176 381 176.9 381 178C381 179.1 381.9 180 383 180C384.1 180 385 179.1 385 178C385 176.9 384.1 176 383 176Z" fill="black" fill-opacity="0.6"/>
<rect x="18.2667" y="203" width="392.733" height="1" fill="#212121" fill-opacity="0.08"/>
</g>
<g filter="url(#filter1_ddd)">
<rect width="411" height="56" fill="#6200EE"/>
<path fill-rule="evenodd" clip-rule="evenodd" d="M287 38C288.1 38 289 37.1 289 36H285C285 37.1 285.89 38 287 38ZM293 32V27C293 23.93 291.36 21.36 288.5 20.68V20C288.5 19.17 287.83 18.5 287 18.5C286.17 18.5 285.5 19.17 285.5 20V20.68C282.63 21.36 281 23.92 281 27V32L279 34V35H295V34L293 32Z" fill="white" fill-opacity="0.74"/>
<path fill-rule="evenodd" clip-rule="evenodd" d="M341 32.08C340.24 32.08 339.56 32.38 339.04 32.85L331.91 28.7C331.96 28.47 332 28.24 332 28C332 27.76 331.96 27.53 331.91 27.3L338.96 23.19C339.5 23.69 340.21 24 341 24C342.66 24 344 22.66 344 21C344 19.34 342.66 18 341 18C339.34 18 338 19.34 338 21C338 21.24 338.04 21.47 338.09 21.7L331.04 25.81C330.5 25.31 329.79 25 329 25C327.34 25 326 26.34 326 28C326 29.66 327.34 31 329 31C329.79 31 330.5 30.69 331.04 30.19L338.16 34.35C338.11 34.56 338.08 34.78 338.08 35C338.08 36.61 339.39 37.92 341 37.92C342.61 37.92 343.92 36.61 343.92 35C343.92 33.39 342.61 32.08 341 32.08Z" fill="white" fill-opacity="0.74"/>
<path fill-rule="evenodd" clip-rule="evenodd" d="M386.5 30H385.71L385.43 29.73C386.41 28.59 387 27.11 387 25.5C387 21.91 384.09 19 380.5 19C376.91 19 374 21.91 374 25.5C374 29.09 376.91 32 380.5 32C382.11 32 383.59 31.41 384.73 30.43L385 30.71V31.5L390 36.49L391.49 35L386.5 30ZM380.5 30C378.01 30 376 27.99 376 25.5C376 23.01 378.01 21 380.5 21C382.99 21 385 23.01 385 25.5C385 27.99 382.99 30 380.5 30Z" fill="white" fill-opacity="0.74"/>
<path fill-rule="evenodd" clip-rule="evenodd" d="M19 34H37V32H19V34ZM19 29H37V27H19V29ZM19 22V24H37V22H19Z" fill="white" fill-opacity="0.74"/>
</g>
</g>
<defs>
<filter id="filter0_ddd" x="-8" y="652" width="427" height="88" filterUnits="userSpaceOnUse" color-interpolation-filters="sRGB">
<feFlood flood-opacity="0" result="BackgroundImageFix"/>
<feColorMatrix in="SourceAlpha" type="matrix" values="0 0 0 0 0 0 0 0 0 0 0 0 0 0 0 0 0 0 127 0" result="hardAlpha"/>
<feOffset dy="1"/>
<feGaussianBlur stdDeviation="4"/>
<feColorMatrix type="matrix" values="0 0 0 0 0 0 0 0 0 0 0 0 0 0 0 0 0 0 0.2 0"/>
<feBlend mode="normal" in2="BackgroundImageFix" result="effect1_dropShadow"/>
<feColorMatrix in="SourceAlpha" type="matrix" values="0 0 0 0 0 0 0 0 0 0 0 0 0 0 0 0 0 0 127 0" result="hardAlpha"/>
<feOffset dy="3"/>
<feGaussianBlur stdDeviation="1.5"/>
<feColorMatrix type="matrix" values="0 0 0 0 0 0 0 0 0 0 0 0 0 0 0 0 0 0 0.12 0"/>
<feBlend mode="normal" in2="effect1_dropShadow" result="effect2_dropShadow"/>
<feColorMatrix in="SourceAlpha" type="matrix" values="0 0 0 0 0 0 0 0 0 0 0 0 0 0 0 0 0 0 127 0" result="hardAlpha"/>
<feOffset dy="3"/>
<feGaussianBlur stdDeviation="2"/>
<feColorMatrix type="matrix" values="0 0 0 0 0 0 0 0 0 0 0 0 0 0 0 0 0 0 0.14 0"/>
<feBlend mode="normal" in2="effect2_dropShadow" result="effect3_dropShadow"/>
<feBlend mode="normal" in="SourceGraphic" in2="effect3_dropShadow" result="shape"/>
</filter>
<filter id="filter1_ddd" x="-10" y="-9" width="431" height="76" filterUnits="userSpaceOnUse" color-interpolation-filters="sRGB">
<feFlood flood-opacity="0" result="BackgroundImageFix"/>
<feColorMatrix in="SourceAlpha" type="matrix" values="0 0 0 0 0 0 0 0 0 0 0 0 0 0 0 0 0 0 127 0" result="hardAlpha"/>
<feOffset dy="2"/>
<feGaussianBlur stdDeviation="2"/>
<feColorMatrix type="matrix" values="0 0 0 0 0 0 0 0 0 0 0 0 0 0 0 0 0 0 0.2 0"/>
<feBlend mode="normal" in2="BackgroundImageFix" result="effect1_dropShadow"/>
<feColorMatrix in="SourceAlpha" type="matrix" values="0 0 0 0 0 0 0 0 0 0 0 0 0 0 0 0 0 0 127 0" result="hardAlpha"/>
<feOffset dy="1"/>
<feGaussianBlur stdDeviation="5"/>
<feColorMatrix type="matrix" values="0 0 0 0 0 0 0 0 0 0 0 0 0 0 0 0 0 0 0.12 0"/>
<feBlend mode="normal" in2="effect1_dropShadow" result="effect2_dropShadow"/>
<feColorMatrix in="SourceAlpha" type="matrix" values="0 0 0 0 0 0 0 0 0 0 0 0 0 0 0 0 0 0 127 0" result="hardAlpha"/>
<feOffset dy="4"/>
<feGaussianBlur stdDeviation="2.5"/>
<feColorMatrix type="matrix" values="0 0 0 0 0 0 0 0 0 0 0 0 0 0 0 0 0 0 0.14 0"/>
<feBlend mode="normal" in2="effect2_dropShadow" result="effect3_dropShadow"/>
<feBlend mode="normal" in="SourceGraphic" in2="effect3_dropShadow" result="shape"/>
</filter>
<clipPath id="clip0">
<rect width="411" height="731" fill="white"/>
</clipPath>
</defs>
</svg>
