<svg width="411" height="731" viewBox="0 0 411 731" fill="none" xmlns="http://www.w3.org/2000/svg">
<rect width="411" height="731" fill="#F1F1F1"/>
<rect width="411" height="731" fill="white"/>
<rect width="411" height="56" fill="#6200EE"/>
<path fill-rule="evenodd" clip-rule="evenodd" d="M31.41 23.41L30 22L24 28L30 34L31.41 32.59L26.83 28L31.41 23.41Z" fill="white"/>
<path d="M82.4043 31.6895H76.8965L75.7441 35H73.1758L78.5469 20.7812H80.7637L86.1445 35H83.5664L82.4043 31.6895ZM77.5898 29.6973H81.7109L79.6504 23.7988L77.5898 29.6973ZM87.2418 29.6387C87.2418 28.0111 87.6194 26.7057 88.3746 25.7227C89.1298 24.7331 90.1422 24.2383 91.4117 24.2383C92.5315 24.2383 93.4365 24.6289 94.1266 25.4102V20H96.4996V35H94.3512L94.234 33.9062C93.5243 34.7656 92.5771 35.1953 91.3922 35.1953C90.1552 35.1953 89.1526 34.6973 88.3844 33.7012C87.6227 32.7051 87.2418 31.3509 87.2418 29.6387ZM89.6148 29.8438C89.6148 30.918 89.8199 31.7578 90.2301 32.3633C90.6467 32.9622 91.2359 33.2617 91.9977 33.2617C92.9677 33.2617 93.6773 32.8288 94.1266 31.9629V27.4512C93.6904 26.6048 92.9872 26.1816 92.0172 26.1816C91.249 26.1816 90.6565 26.4876 90.2398 27.0996C89.8232 27.7051 89.6148 28.6198 89.6148 29.8438ZM98.6809 29.6387C98.6809 28.0111 99.0585 26.7057 99.8137 25.7227C100.569 24.7331 101.581 24.2383 102.851 24.2383C103.971 24.2383 104.876 24.6289 105.566 25.4102V20H107.939V35H105.79L105.673 33.9062C104.963 34.7656 104.016 35.1953 102.831 35.1953C101.594 35.1953 100.592 34.6973 99.8234 33.7012C99.0617 32.7051 98.6809 31.3509 98.6809 29.6387ZM101.054 29.8438C101.054 30.918 101.259 31.7578 101.669 32.3633C102.086 32.9622 102.675 33.2617 103.437 33.2617C104.407 33.2617 105.116 32.8288 105.566 31.9629V27.4512C105.129 26.6048 104.426 26.1816 103.456 26.1816C102.688 26.1816 102.096 26.4876 101.679 27.0996C101.262 27.7051 101.054 28.6198 101.054 29.8438ZM127.213 35H124.752V28.6816H118.395V35H115.924V20.7812H118.395V26.6992H124.752V20.7812H127.213V35ZM136.377 35C136.273 34.7982 136.182 34.4694 136.104 34.0137C135.348 34.8014 134.424 35.1953 133.33 35.1953C132.269 35.1953 131.403 34.8926 130.732 34.2871C130.062 33.6816 129.727 32.9329 129.727 32.041C129.727 30.9147 130.143 30.0521 130.977 29.4531C131.816 28.8477 133.014 28.5449 134.57 28.5449H136.025V27.8516C136.025 27.3047 135.872 26.8685 135.566 26.543C135.26 26.2109 134.795 26.0449 134.17 26.0449C133.63 26.0449 133.187 26.1816 132.842 26.4551C132.497 26.722 132.324 27.0638 132.324 27.4805H129.951C129.951 26.901 130.143 26.3607 130.527 25.8594C130.911 25.3516 131.432 24.9544 132.09 24.668C132.754 24.3815 133.493 24.2383 134.307 24.2383C135.544 24.2383 136.53 24.5508 137.266 25.1758C138.001 25.7943 138.379 26.6667 138.398 27.793V32.5586C138.398 33.5091 138.532 34.2676 138.799 34.834V35H136.377ZM133.77 33.291C134.238 33.291 134.678 33.1771 135.088 32.9492C135.505 32.7214 135.817 32.4154 136.025 32.0312V30.0391H134.746C133.867 30.0391 133.206 30.1921 132.764 30.498C132.321 30.804 132.1 31.237 132.1 31.7969C132.1 32.2526 132.249 32.6172 132.549 32.8906C132.855 33.1576 133.262 33.291 133.77 33.291ZM150.306 29.8242C150.306 31.4648 149.938 32.7702 149.203 33.7402C148.474 34.7103 147.468 35.1953 146.185 35.1953C144.948 35.1953 143.985 34.7493 143.295 33.8574L143.177 35H141.029V20H143.402V25.4492C144.086 24.6419 145.007 24.2383 146.166 24.2383C147.455 24.2383 148.467 24.7168 149.203 25.6738C149.938 26.6309 150.306 27.9688 150.306 29.6875V29.8242ZM147.933 29.6191C147.933 28.4733 147.731 27.6139 147.328 27.041C146.924 26.4681 146.338 26.1816 145.57 26.1816C144.541 26.1816 143.819 26.6309 143.402 27.5293V31.8848C143.825 32.8027 144.554 33.2617 145.589 33.2617C146.332 33.2617 146.905 32.985 147.308 32.4316C147.712 31.8783 147.92 31.0417 147.933 29.9219V29.6191ZM154.978 35H152.605V24.4336H154.978V35ZM152.458 21.6895C152.458 21.3249 152.572 21.0221 152.8 20.7812C153.034 20.5404 153.366 20.4199 153.796 20.4199C154.226 20.4199 154.558 20.5404 154.792 20.7812C155.027 21.0221 155.144 21.3249 155.144 21.6895C155.144 22.0475 155.027 22.347 154.792 22.5879C154.558 22.8223 154.226 22.9395 153.796 22.9395C153.366 22.9395 153.034 22.8223 152.8 22.5879C152.572 22.347 152.458 22.0475 152.458 21.6895ZM160.694 21.8652V24.4336H162.559V26.1914H160.694V32.0898C160.694 32.4935 160.772 32.7865 160.929 32.9688C161.091 33.1445 161.378 33.2324 161.788 33.2324C162.061 33.2324 162.338 33.1999 162.618 33.1348V34.9707C162.078 35.1204 161.557 35.1953 161.055 35.1953C159.233 35.1953 158.321 34.1895 158.321 32.1777V26.1914H156.583V24.4336H158.321V21.8652H160.694Z" fill="white"/>
<path d="M382.938 18C377.389 18 372.886 22.48 372.886 28C372.886 33.52 377.389 38 382.938 38C388.486 38 392.99 33.52 392.99 28C392.99 22.48 388.486 18 382.938 18ZM383.943 35H381.933V33H383.943V35ZM386.024 27.25L385.119 28.17C384.395 28.9 383.943 29.5 383.943 31H381.933V30.5C381.933 29.4 382.385 28.4 383.109 27.67L384.355 26.41C384.727 26.05 384.948 25.55 384.948 25C384.948 23.9 384.044 23 382.938 23C381.832 23 380.927 23.9 380.927 25H378.917C378.917 22.79 380.716 21 382.938 21C385.159 21 386.959 22.79 386.959 25C386.959 25.88 386.597 26.68 386.024 27.25Z" fill="white" fill-opacity="0.74"/>
<path d="M14 90C14 87.7909 15.7909 86 18 86H389C391.209 86 393 87.7909 393 90V140H14V90Z" fill="#212121" fill-opacity="0.08"/>
<path fill-rule="evenodd" clip-rule="evenodd" d="M50 110H34V112H50V110ZM34 116H50V114H34V116Z" fill="black" fill-opacity="0.87"/>
<path d="M74.8848 98.3945H72.1426V106H71.0234V98.3945H68.2871V97.4688H74.8848V98.3945ZM77.5582 106H76.4742V99.6602H77.5582V106ZM76.3863 97.9785C76.3863 97.8027 76.4391 97.6543 76.5445 97.5332C76.6539 97.4121 76.8141 97.3516 77.025 97.3516C77.2359 97.3516 77.3961 97.4121 77.5055 97.5332C77.6148 97.6543 77.6695 97.8027 77.6695 97.9785C77.6695 98.1543 77.6148 98.3008 77.5055 98.418C77.3961 98.5352 77.2359 98.5938 77.025 98.5938C76.8141 98.5938 76.6539 98.5352 76.5445 98.418C76.4391 98.3008 76.3863 98.1543 76.3863 97.9785ZM81.1691 98.125V99.6602H82.3527V100.498H81.1691V104.43C81.1691 104.684 81.2219 104.875 81.3273 105.004C81.4328 105.129 81.6125 105.191 81.8664 105.191C81.9914 105.191 82.1633 105.168 82.382 105.121V106C82.0969 106.078 81.8195 106.117 81.55 106.117C81.0656 106.117 80.7004 105.971 80.4543 105.678C80.2082 105.385 80.0852 104.969 80.0852 104.43V100.498H78.9309V99.6602H80.0852V98.125H81.1691ZM85.202 106H84.118V97H85.202V106ZM89.973 106.117C89.1137 106.117 88.4145 105.836 87.8754 105.273C87.3363 104.707 87.0668 103.951 87.0668 103.006V102.807C87.0668 102.178 87.1859 101.617 87.4242 101.125C87.6664 100.629 88.0023 100.242 88.432 99.9648C88.8656 99.6836 89.3344 99.543 89.8383 99.543C90.6625 99.543 91.3031 99.8145 91.7602 100.357C92.2172 100.9 92.4457 101.678 92.4457 102.689V103.141H88.1508C88.1664 103.766 88.348 104.271 88.6957 104.658C89.0473 105.041 89.4926 105.232 90.0316 105.232C90.4145 105.232 90.7387 105.154 91.0043 104.998C91.2699 104.842 91.5023 104.635 91.7016 104.377L92.3637 104.893C91.8324 105.709 91.0355 106.117 89.973 106.117ZM89.8383 100.434C89.4008 100.434 89.0336 100.594 88.7367 100.914C88.4398 101.23 88.2563 101.676 88.1859 102.25H91.3617V102.168C91.3305 101.617 91.182 101.191 90.9164 100.891C90.6508 100.586 90.2914 100.434 89.8383 100.434Z" fill="black" fill-opacity="0.6"/>
<path d="M71.7734 121.414L71.9922 122.914L72.3125 121.562L74.5625 113.625H75.8281L78.0234 121.562L78.3359 122.938L78.5781 121.406L80.3438 113.625H81.8516L79.0938 125H77.7266L75.3828 116.711L75.2031 115.844L75.0234 116.711L72.5938 125H71.2266L68.4766 113.625H69.9766L71.7734 121.414ZM87.3609 117.844C87.1422 117.807 86.9052 117.789 86.65 117.789C85.7021 117.789 85.0589 118.193 84.7203 119V125H83.275V116.547H84.6812L84.7047 117.523C85.1786 116.768 85.8505 116.391 86.7203 116.391C87.0016 116.391 87.2151 116.427 87.3609 116.5V117.844ZM90.4172 125H88.9719V116.547H90.4172V125ZM88.8547 114.305C88.8547 114.07 88.925 113.872 89.0656 113.711C89.2115 113.549 89.425 113.469 89.7062 113.469C89.9875 113.469 90.201 113.549 90.3469 113.711C90.4927 113.872 90.5656 114.07 90.5656 114.305C90.5656 114.539 90.4927 114.734 90.3469 114.891C90.201 115.047 89.9875 115.125 89.7062 115.125C89.425 115.125 89.2115 115.047 89.0656 114.891C88.925 114.734 88.8547 114.539 88.8547 114.305ZM94.8484 114.5V116.547H96.4266V117.664H94.8484V122.906C94.8484 123.245 94.9188 123.5 95.0594 123.672C95.2 123.839 95.4396 123.922 95.7781 123.922C95.9448 123.922 96.174 123.891 96.4656 123.828V125C96.0854 125.104 95.7156 125.156 95.3563 125.156C94.7104 125.156 94.2234 124.961 93.8953 124.57C93.5672 124.18 93.4031 123.625 93.4031 122.906V117.664H91.8641V116.547H93.4031V114.5H94.8484ZM101.78 125.156C100.634 125.156 99.7016 124.781 98.9828 124.031C98.2641 123.276 97.9047 122.268 97.9047 121.008V120.742C97.9047 119.904 98.0635 119.156 98.3813 118.5C98.7042 117.839 99.1521 117.323 99.725 116.953C100.303 116.578 100.928 116.391 101.6 116.391C102.699 116.391 103.553 116.753 104.163 117.477C104.772 118.201 105.077 119.237 105.077 120.586V121.188H99.35C99.3708 122.021 99.613 122.695 100.077 123.211C100.545 123.721 101.139 123.977 101.858 123.977C102.368 123.977 102.801 123.872 103.155 123.664C103.509 123.456 103.819 123.18 104.084 122.836L104.967 123.523C104.259 124.612 103.196 125.156 101.78 125.156ZM101.6 117.578C101.017 117.578 100.527 117.792 100.131 118.219C99.7354 118.641 99.4906 119.234 99.3969 120H103.631V119.891C103.59 119.156 103.392 118.589 103.038 118.188C102.683 117.781 102.204 117.578 101.6 117.578ZM116.244 125C116.16 124.833 116.093 124.536 116.041 124.109C115.369 124.807 114.567 125.156 113.634 125.156C112.801 125.156 112.116 124.922 111.58 124.453C111.048 123.979 110.783 123.38 110.783 122.656C110.783 121.776 111.116 121.094 111.783 120.609C112.455 120.12 113.397 119.875 114.611 119.875H116.017V119.211C116.017 118.706 115.866 118.305 115.564 118.008C115.262 117.706 114.817 117.555 114.228 117.555C113.713 117.555 113.28 117.685 112.931 117.945C112.582 118.206 112.408 118.521 112.408 118.891H110.955C110.955 118.469 111.103 118.062 111.4 117.672C111.702 117.276 112.108 116.964 112.619 116.734C113.134 116.505 113.699 116.391 114.314 116.391C115.288 116.391 116.051 116.635 116.603 117.125C117.155 117.609 117.442 118.279 117.463 119.133V123.023C117.463 123.799 117.561 124.417 117.759 124.875V125H116.244ZM113.845 123.898C114.298 123.898 114.728 123.781 115.134 123.547C115.541 123.312 115.835 123.008 116.017 122.633V120.898H114.884C113.114 120.898 112.228 121.417 112.228 122.453C112.228 122.906 112.379 123.26 112.681 123.516C112.983 123.771 113.371 123.898 113.845 123.898ZM125.489 116.547V125.977C125.489 127.602 124.752 128.414 123.278 128.414C122.96 128.414 122.666 128.367 122.395 128.273V127.117C122.562 127.159 122.781 127.18 123.052 127.18C123.374 127.18 123.619 127.091 123.786 126.914C123.958 126.742 124.044 126.44 124.044 126.008V116.547H125.489ZM123.895 114.305C123.895 114.076 123.966 113.88 124.106 113.719C124.252 113.552 124.463 113.469 124.739 113.469C125.02 113.469 125.234 113.549 125.38 113.711C125.526 113.872 125.598 114.07 125.598 114.305C125.598 114.539 125.526 114.734 125.38 114.891C125.234 115.047 125.02 115.125 124.739 115.125C124.458 115.125 124.247 115.047 124.106 114.891C123.966 114.734 123.895 114.539 123.895 114.305ZM127.592 120.695C127.592 119.867 127.754 119.122 128.077 118.461C128.405 117.799 128.858 117.289 129.436 116.93C130.019 116.57 130.683 116.391 131.428 116.391C132.579 116.391 133.509 116.789 134.217 117.586C134.931 118.383 135.287 119.443 135.287 120.766V120.867C135.287 121.69 135.129 122.43 134.811 123.086C134.498 123.737 134.048 124.245 133.459 124.609C132.876 124.974 132.204 125.156 131.444 125.156C130.298 125.156 129.368 124.758 128.655 123.961C127.946 123.164 127.592 122.109 127.592 120.797V120.695ZM129.045 120.867C129.045 121.805 129.261 122.557 129.694 123.125C130.131 123.693 130.715 123.977 131.444 123.977C132.178 123.977 132.761 123.69 133.194 123.117C133.626 122.539 133.842 121.732 133.842 120.695C133.842 119.768 133.621 119.018 133.178 118.445C132.741 117.867 132.157 117.578 131.428 117.578C130.715 117.578 130.139 117.862 129.702 118.43C129.264 118.997 129.045 119.81 129.045 120.867ZM139.609 121.086L138.703 122.031V125H137.258V113H138.703V120.258L139.477 119.328L142.109 116.547H143.867L140.578 120.078L144.25 125H142.555L139.609 121.086ZM148.861 125.156C147.715 125.156 146.783 124.781 146.064 124.031C145.345 123.276 144.986 122.268 144.986 121.008V120.742C144.986 119.904 145.145 119.156 145.463 118.5C145.785 117.839 146.233 117.323 146.806 116.953C147.384 116.578 148.009 116.391 148.681 116.391C149.78 116.391 150.634 116.753 151.244 117.477C151.853 118.201 152.158 119.237 152.158 120.586V121.188H146.431C146.452 122.021 146.694 122.695 147.158 123.211C147.627 123.721 148.22 123.977 148.939 123.977C149.449 123.977 149.882 123.872 150.236 123.664C150.59 123.456 150.9 123.18 151.166 122.836L152.048 123.523C151.34 124.612 150.278 125.156 148.861 125.156ZM148.681 117.578C148.098 117.578 147.608 117.792 147.213 118.219C146.817 118.641 146.572 119.234 146.478 120H150.713V119.891C150.671 119.156 150.473 118.589 150.119 118.188C149.765 117.781 149.285 117.578 148.681 117.578Z" fill="black" fill-opacity="0.87"/>
<rect x="14" y="140" width="379" height="1" fill="black" fill-opacity="0.6"/>
<path d="M14 175C14 172.791 15.7909 171 18 171H390C392.209 171 394 172.791 394 175V227H14V175Z" fill="#212121" fill-opacity="0.08"/>
<path fill-rule="evenodd" clip-rule="evenodd" d="M39 203.2L34.8 199L33.4 200.4L39 206L51 194L49.6 192.6L39 203.2Z" fill="black" fill-opacity="0.87"/>
<path d="M72.1191 187.549H70.1152V191H68.9844V182.469H71.8086C72.7695 182.469 73.5078 182.688 74.0234 183.125C74.543 183.562 74.8027 184.199 74.8027 185.035C74.8027 185.566 74.6582 186.029 74.3691 186.424C74.084 186.818 73.6855 187.113 73.1738 187.309L75.1777 190.93V191H73.9707L72.1191 187.549ZM70.1152 186.629H71.8438C72.4023 186.629 72.8457 186.484 73.1738 186.195C73.5059 185.906 73.6719 185.52 73.6719 185.035C73.6719 184.508 73.5137 184.104 73.1973 183.822C72.8848 183.541 72.4316 183.398 71.8379 183.395H70.1152V186.629ZM79.2457 191.117C78.3863 191.117 77.6871 190.836 77.148 190.273C76.609 189.707 76.3395 188.951 76.3395 188.006V187.807C76.3395 187.178 76.4586 186.617 76.6969 186.125C76.9391 185.629 77.275 185.242 77.7047 184.965C78.1383 184.684 78.607 184.543 79.1109 184.543C79.9352 184.543 80.5758 184.814 81.0328 185.357C81.4898 185.9 81.7184 186.678 81.7184 187.689V188.141H77.4234C77.4391 188.766 77.6207 189.271 77.9684 189.658C78.3199 190.041 78.7652 190.232 79.3043 190.232C79.6871 190.232 80.0113 190.154 80.277 189.998C80.5426 189.842 80.775 189.635 80.9742 189.377L81.6363 189.893C81.1051 190.709 80.3082 191.117 79.2457 191.117ZM79.1109 185.434C78.6734 185.434 78.3063 185.594 78.0094 185.914C77.7125 186.23 77.5289 186.676 77.4586 187.25H80.6344V187.168C80.6031 186.617 80.4547 186.191 80.1891 185.891C79.9234 185.586 79.5641 185.434 79.1109 185.434ZM87.2922 191C87.2297 190.875 87.1789 190.652 87.1398 190.332C86.6359 190.855 86.0344 191.117 85.3352 191.117C84.7102 191.117 84.1965 190.941 83.7941 190.59C83.3957 190.234 83.1965 189.785 83.1965 189.242C83.1965 188.582 83.4465 188.07 83.9465 187.707C84.4504 187.34 85.1574 187.156 86.0676 187.156H87.1223V186.658C87.1223 186.279 87.009 185.979 86.7824 185.756C86.5559 185.529 86.2219 185.416 85.7805 185.416C85.3938 185.416 85.0695 185.514 84.8078 185.709C84.5461 185.904 84.4152 186.141 84.4152 186.418H83.3254C83.3254 186.102 83.4367 185.797 83.6594 185.504C83.8859 185.207 84.1906 184.973 84.5734 184.801C84.9602 184.629 85.384 184.543 85.8449 184.543C86.5754 184.543 87.1477 184.727 87.5617 185.094C87.9758 185.457 88.1906 185.959 88.2063 186.6V189.518C88.2063 190.1 88.2805 190.562 88.4289 190.906V191H87.2922ZM85.4934 190.174C85.8332 190.174 86.1555 190.086 86.4602 189.91C86.7648 189.734 86.9855 189.506 87.1223 189.225V187.924H86.2727C84.9445 187.924 84.2805 188.312 84.2805 189.09C84.2805 189.43 84.3938 189.695 84.6203 189.887C84.8469 190.078 85.1379 190.174 85.4934 190.174ZM93.9969 189.318C93.9969 189.025 93.8855 188.799 93.6629 188.639C93.4441 188.475 93.0594 188.334 92.5086 188.217C91.9617 188.1 91.5262 187.959 91.202 187.795C90.8816 187.631 90.6434 187.436 90.4871 187.209C90.3348 186.982 90.2586 186.713 90.2586 186.4C90.2586 185.881 90.4773 185.441 90.9148 185.082C91.3563 184.723 91.9188 184.543 92.6023 184.543C93.3211 184.543 93.9031 184.729 94.3484 185.1C94.7977 185.471 95.0223 185.945 95.0223 186.523H93.9324C93.9324 186.227 93.8055 185.971 93.5516 185.756C93.3016 185.541 92.9852 185.434 92.6023 185.434C92.2078 185.434 91.8992 185.52 91.6766 185.691C91.4539 185.863 91.3426 186.088 91.3426 186.365C91.3426 186.627 91.4461 186.824 91.6531 186.957C91.8602 187.09 92.2332 187.217 92.7723 187.338C93.3152 187.459 93.7547 187.604 94.0906 187.771C94.4266 187.939 94.6746 188.143 94.8348 188.381C94.9988 188.615 95.0809 188.902 95.0809 189.242C95.0809 189.809 94.8543 190.264 94.4012 190.607C93.948 190.947 93.3602 191.117 92.6375 191.117C92.1297 191.117 91.6805 191.027 91.2898 190.848C90.8992 190.668 90.5926 190.418 90.3699 190.098C90.1512 189.773 90.0418 189.424 90.0418 189.049H91.1258C91.1453 189.412 91.2898 189.701 91.5594 189.916C91.8328 190.127 92.1922 190.232 92.6375 190.232C93.0477 190.232 93.3758 190.15 93.6219 189.986C93.8719 189.818 93.9969 189.596 93.9969 189.318ZM96.6059 187.771C96.6059 187.15 96.727 186.592 96.9691 186.096C97.2152 185.6 97.5551 185.217 97.9887 184.947C98.4262 184.678 98.9242 184.543 99.4828 184.543C100.346 184.543 101.043 184.842 101.575 185.439C102.11 186.037 102.377 186.832 102.377 187.824V187.9C102.377 188.518 102.258 189.072 102.02 189.564C101.786 190.053 101.448 190.434 101.006 190.707C100.569 190.98 100.065 191.117 99.4945 191.117C98.6352 191.117 97.9379 190.818 97.4027 190.221C96.8715 189.623 96.6059 188.832 96.6059 187.848V187.771ZM97.6957 187.9C97.6957 188.604 97.8578 189.168 98.182 189.594C98.5102 190.02 98.9477 190.232 99.4945 190.232C100.045 190.232 100.483 190.018 100.807 189.588C101.131 189.154 101.293 188.549 101.293 187.771C101.293 187.076 101.127 186.514 100.795 186.084C100.467 185.65 100.03 185.434 99.4828 185.434C98.9477 185.434 98.516 185.646 98.1879 186.072C97.8598 186.498 97.6957 187.107 97.6957 187.9ZM105.162 184.66L105.197 185.457C105.682 184.848 106.314 184.543 107.096 184.543C108.436 184.543 109.111 185.299 109.123 186.811V191H108.039V186.805C108.035 186.348 107.93 186.01 107.723 185.791C107.52 185.572 107.201 185.463 106.768 185.463C106.416 185.463 106.107 185.557 105.842 185.744C105.576 185.932 105.369 186.178 105.221 186.482V191H104.137V184.66H105.162Z" fill="black" fill-opacity="0.6"/>
<path d="M70.9297 212H69.4297V200.625H70.9297V212ZM74.9625 203.547L75.0016 204.484C75.6214 203.755 76.4573 203.391 77.5094 203.391C78.6917 203.391 79.4964 203.844 79.9234 204.75C80.2047 204.344 80.5693 204.016 81.0172 203.766C81.4703 203.516 82.0042 203.391 82.6188 203.391C84.4729 203.391 85.4156 204.372 85.4469 206.336V212H84.0016V206.422C84.0016 205.818 83.8635 205.367 83.5875 205.07C83.3115 204.768 82.8479 204.617 82.1969 204.617C81.6604 204.617 81.2151 204.779 80.8609 205.102C80.5068 205.419 80.301 205.849 80.2438 206.391V212H78.7906V206.461C78.7906 205.232 78.1891 204.617 76.9859 204.617C76.038 204.617 75.3896 205.021 75.0406 205.828V212H73.5953V203.547H74.9625ZM94.925 207.867C94.925 209.154 94.6307 210.19 94.0422 210.977C93.4536 211.763 92.6568 212.156 91.6516 212.156C90.6255 212.156 89.8182 211.831 89.2297 211.18V215.25H87.7844V203.547H89.1047L89.175 204.484C89.7635 203.755 90.5812 203.391 91.6281 203.391C92.6437 203.391 93.4458 203.773 94.0344 204.539C94.6281 205.305 94.925 206.37 94.925 207.734V207.867ZM93.4797 207.703C93.4797 206.75 93.2766 205.997 92.8703 205.445C92.4641 204.893 91.9068 204.617 91.1984 204.617C90.3234 204.617 89.6672 205.005 89.2297 205.781V209.82C89.662 210.591 90.3234 210.977 91.2141 210.977C91.9068 210.977 92.4562 210.703 92.8625 210.156C93.274 209.604 93.4797 208.786 93.4797 207.703ZM101.005 204.844C100.786 204.807 100.549 204.789 100.294 204.789C99.3458 204.789 98.7026 205.193 98.3641 206V212H96.9188V203.547H98.325L98.3484 204.523C98.8224 203.768 99.4943 203.391 100.364 203.391C100.645 203.391 100.859 203.427 101.005 203.5V204.844ZM101.952 207.695C101.952 206.867 102.113 206.122 102.436 205.461C102.764 204.799 103.217 204.289 103.795 203.93C104.379 203.57 105.043 203.391 105.787 203.391C106.939 203.391 107.868 203.789 108.577 204.586C109.29 205.383 109.647 206.443 109.647 207.766V207.867C109.647 208.69 109.488 209.43 109.17 210.086C108.858 210.737 108.407 211.245 107.819 211.609C107.235 211.974 106.564 212.156 105.803 212.156C104.657 212.156 103.728 211.758 103.014 210.961C102.306 210.164 101.952 209.109 101.952 207.797V207.695ZM103.405 207.867C103.405 208.805 103.621 209.557 104.053 210.125C104.491 210.693 105.074 210.977 105.803 210.977C106.537 210.977 107.121 210.69 107.553 210.117C107.985 209.539 108.202 208.732 108.202 207.695C108.202 206.768 107.98 206.018 107.537 205.445C107.1 204.867 106.517 204.578 105.787 204.578C105.074 204.578 104.498 204.862 104.061 205.43C103.623 205.997 103.405 206.81 103.405 207.867ZM114.273 210.039L116.367 203.547H117.844L114.812 212H113.711L110.648 203.547H112.125L114.273 210.039ZM122.783 212.156C121.637 212.156 120.705 211.781 119.986 211.031C119.267 210.276 118.908 209.268 118.908 208.008V207.742C118.908 206.904 119.067 206.156 119.384 205.5C119.707 204.839 120.155 204.323 120.728 203.953C121.306 203.578 121.931 203.391 122.603 203.391C123.702 203.391 124.556 203.753 125.166 204.477C125.775 205.201 126.08 206.237 126.08 207.586V208.188H120.353C120.374 209.021 120.616 209.695 121.08 210.211C121.548 210.721 122.142 210.977 122.861 210.977C123.371 210.977 123.804 210.872 124.158 210.664C124.512 210.456 124.822 210.18 125.088 209.836L125.97 210.523C125.262 211.612 124.199 212.156 122.783 212.156ZM122.603 204.578C122.02 204.578 121.53 204.792 121.134 205.219C120.739 205.641 120.494 206.234 120.4 207H124.634V206.891C124.593 206.156 124.395 205.589 124.041 205.188C123.686 204.781 123.207 204.578 122.603 204.578ZM133.388 203.547L133.427 204.484C134.046 203.755 134.882 203.391 135.934 203.391C137.117 203.391 137.921 203.844 138.348 204.75C138.63 204.344 138.994 204.016 139.442 203.766C139.895 203.516 140.429 203.391 141.044 203.391C142.898 203.391 143.841 204.372 143.872 206.336V212H142.427V206.422C142.427 205.818 142.289 205.367 142.013 205.07C141.736 204.768 141.273 204.617 140.622 204.617C140.085 204.617 139.64 204.779 139.286 205.102C138.932 205.419 138.726 205.849 138.669 206.391V212H137.216V206.461C137.216 205.232 136.614 204.617 135.411 204.617C134.463 204.617 133.815 205.021 133.466 205.828V212H132.02V203.547H133.388ZM148.975 209.883L150.944 203.547H152.491L149.092 213.305C148.566 214.711 147.73 215.414 146.584 215.414L146.311 215.391L145.772 215.289V214.117L146.162 214.148C146.652 214.148 147.032 214.049 147.303 213.852C147.579 213.654 147.806 213.292 147.983 212.766L148.303 211.906L145.287 203.547H146.866L148.975 209.883ZM162.978 209.758C162.978 209.367 162.83 209.065 162.533 208.852C162.241 208.633 161.728 208.445 160.994 208.289C160.265 208.133 159.684 207.945 159.252 207.727C158.824 207.508 158.507 207.247 158.298 206.945C158.095 206.643 157.994 206.284 157.994 205.867C157.994 205.174 158.285 204.589 158.869 204.109C159.457 203.63 160.207 203.391 161.119 203.391C162.077 203.391 162.853 203.638 163.447 204.133C164.046 204.628 164.345 205.26 164.345 206.031H162.892C162.892 205.635 162.723 205.294 162.384 205.008C162.051 204.721 161.629 204.578 161.119 204.578C160.593 204.578 160.181 204.693 159.884 204.922C159.588 205.151 159.439 205.451 159.439 205.82C159.439 206.169 159.577 206.432 159.853 206.609C160.129 206.786 160.627 206.956 161.345 207.117C162.069 207.279 162.655 207.471 163.103 207.695C163.551 207.919 163.882 208.19 164.095 208.508C164.314 208.82 164.423 209.203 164.423 209.656C164.423 210.411 164.121 211.018 163.517 211.477C162.913 211.93 162.129 212.156 161.166 212.156C160.489 212.156 159.89 212.036 159.369 211.797C158.848 211.557 158.439 211.224 158.142 210.797C157.851 210.365 157.705 209.898 157.705 209.398H159.15C159.176 209.883 159.369 210.268 159.728 210.555C160.093 210.836 160.572 210.977 161.166 210.977C161.713 210.977 162.15 210.867 162.478 210.648C162.811 210.424 162.978 210.128 162.978 209.758ZM169.964 212.156C168.818 212.156 167.886 211.781 167.167 211.031C166.448 210.276 166.089 209.268 166.089 208.008V207.742C166.089 206.904 166.248 206.156 166.566 205.5C166.889 204.839 167.336 204.323 167.909 203.953C168.488 203.578 169.113 203.391 169.784 203.391C170.883 203.391 171.738 203.753 172.347 204.477C172.956 205.201 173.261 206.237 173.261 207.586V208.188H167.534C167.555 209.021 167.797 209.695 168.261 210.211C168.73 210.721 169.323 210.977 170.042 210.977C170.553 210.977 170.985 210.872 171.339 210.664C171.693 210.456 172.003 210.18 172.269 209.836L173.152 210.523C172.443 211.612 171.381 212.156 169.964 212.156ZM169.784 204.578C169.201 204.578 168.711 204.792 168.316 205.219C167.92 205.641 167.675 206.234 167.581 207H171.816V206.891C171.774 206.156 171.576 205.589 171.222 205.188C170.868 204.781 170.389 204.578 169.784 204.578ZM176.458 203.547L176.505 204.609C177.151 203.797 177.994 203.391 179.036 203.391C180.822 203.391 181.723 204.398 181.739 206.414V212H180.294V206.406C180.289 205.797 180.148 205.346 179.872 205.055C179.601 204.763 179.177 204.617 178.598 204.617C178.13 204.617 177.718 204.742 177.364 204.992C177.01 205.242 176.734 205.57 176.536 205.977V212H175.091V203.547H176.458ZM188.991 209.758C188.991 209.367 188.842 209.065 188.545 208.852C188.254 208.633 187.741 208.445 187.006 208.289C186.277 208.133 185.696 207.945 185.264 207.727C184.837 207.508 184.519 207.247 184.311 206.945C184.108 206.643 184.006 206.284 184.006 205.867C184.006 205.174 184.298 204.589 184.881 204.109C185.47 203.63 186.22 203.391 187.131 203.391C188.09 203.391 188.866 203.638 189.459 204.133C190.058 204.628 190.358 205.26 190.358 206.031H188.905C188.905 205.635 188.735 205.294 188.397 205.008C188.064 204.721 187.642 204.578 187.131 204.578C186.605 204.578 186.194 204.693 185.897 204.922C185.6 205.151 185.452 205.451 185.452 205.82C185.452 206.169 185.59 206.432 185.866 206.609C186.142 206.786 186.639 206.956 187.358 207.117C188.082 207.279 188.668 207.471 189.116 207.695C189.564 207.919 189.894 208.19 190.108 208.508C190.327 208.82 190.436 209.203 190.436 209.656C190.436 210.411 190.134 211.018 189.53 211.477C188.926 211.93 188.142 212.156 187.178 212.156C186.501 212.156 185.902 212.036 185.381 211.797C184.86 211.557 184.452 211.224 184.155 210.797C183.863 210.365 183.717 209.898 183.717 209.398H185.162C185.189 209.883 185.381 210.268 185.741 210.555C186.105 210.836 186.584 210.977 187.178 210.977C187.725 210.977 188.162 210.867 188.491 210.648C188.824 210.424 188.991 210.128 188.991 209.758ZM195.977 212.156C194.831 212.156 193.898 211.781 193.18 211.031C192.461 210.276 192.102 209.268 192.102 208.008V207.742C192.102 206.904 192.26 206.156 192.578 205.5C192.901 204.839 193.349 204.323 193.922 203.953C194.5 203.578 195.125 203.391 195.797 203.391C196.896 203.391 197.75 203.753 198.359 204.477C198.969 205.201 199.273 206.237 199.273 207.586V208.188H193.547C193.568 209.021 193.81 209.695 194.273 210.211C194.742 210.721 195.336 210.977 196.055 210.977C196.565 210.977 196.997 210.872 197.352 210.664C197.706 210.456 198.016 210.18 198.281 209.836L199.164 210.523C198.456 211.612 197.393 212.156 195.977 212.156ZM195.797 204.578C195.214 204.578 194.724 204.792 194.328 205.219C193.932 205.641 193.688 206.234 193.594 207H197.828V206.891C197.786 206.156 197.589 205.589 197.234 205.188C196.88 204.781 196.401 204.578 195.797 204.578ZM204.839 207.695C204.839 206.867 205.001 206.122 205.323 205.461C205.652 204.799 206.105 204.289 206.683 203.93C207.266 203.57 207.93 203.391 208.675 203.391C209.826 203.391 210.756 203.789 211.464 204.586C212.178 205.383 212.534 206.443 212.534 207.766V207.867C212.534 208.69 212.376 209.43 212.058 210.086C211.745 210.737 211.295 211.245 210.706 211.609C210.123 211.974 209.451 212.156 208.691 212.156C207.545 212.156 206.615 211.758 205.902 210.961C205.193 210.164 204.839 209.109 204.839 207.797V207.695ZM206.292 207.867C206.292 208.805 206.508 209.557 206.941 210.125C207.378 210.693 207.961 210.977 208.691 210.977C209.425 210.977 210.008 210.69 210.441 210.117C210.873 209.539 211.089 208.732 211.089 207.695C211.089 206.768 210.868 206.018 210.425 205.445C209.988 204.867 209.404 204.578 208.675 204.578C207.961 204.578 207.386 204.862 206.948 205.43C206.511 205.997 206.292 206.81 206.292 207.867ZM215.208 212V204.664H213.872V203.547H215.208V202.68C215.208 201.773 215.45 201.073 215.934 200.578C216.419 200.083 217.104 199.836 217.989 199.836C218.322 199.836 218.653 199.88 218.981 199.969L218.903 201.141C218.658 201.094 218.398 201.07 218.122 201.07C217.653 201.07 217.291 201.208 217.036 201.484C216.781 201.755 216.653 202.146 216.653 202.656V203.547H218.458V204.664H216.653V212H215.208ZM225.773 204.57C226.414 203.784 227.247 203.391 228.273 203.391C230.06 203.391 230.961 204.398 230.977 206.414V212H229.531V206.406C229.526 205.797 229.385 205.346 229.109 205.055C228.839 204.763 228.414 204.617 227.836 204.617C227.367 204.617 226.956 204.742 226.602 204.992C226.247 205.242 225.971 205.57 225.773 205.977V212H224.328V200H225.773V204.57ZM238.509 211.164C237.947 211.826 237.121 212.156 236.033 212.156C235.132 212.156 234.444 211.896 233.97 211.375C233.502 210.849 233.265 210.073 233.259 209.047V203.547H234.705V209.008C234.705 210.289 235.226 210.93 236.267 210.93C237.371 210.93 238.106 210.518 238.47 209.695V203.547H239.916V212H238.541L238.509 211.164ZM243.628 203.547L243.667 204.484C244.287 203.755 245.123 203.391 246.175 203.391C247.357 203.391 248.162 203.844 248.589 204.75C248.87 204.344 249.235 204.016 249.683 203.766C250.136 203.516 250.67 203.391 251.284 203.391C253.139 203.391 254.081 204.372 254.113 206.336V212H252.667V206.422C252.667 205.818 252.529 205.367 252.253 205.07C251.977 204.768 251.514 204.617 250.863 204.617C250.326 204.617 249.881 204.779 249.527 205.102C249.172 205.419 248.967 205.849 248.909 206.391V212H247.456V206.461C247.456 205.232 246.855 204.617 245.652 204.617C244.704 204.617 244.055 205.021 243.706 205.828V212H242.261V203.547H243.628ZM256.067 207.695C256.067 206.867 256.229 206.122 256.552 205.461C256.88 204.799 257.333 204.289 257.911 203.93C258.494 203.57 259.158 203.391 259.903 203.391C261.054 203.391 261.984 203.789 262.692 204.586C263.406 205.383 263.762 206.443 263.762 207.766V207.867C263.762 208.69 263.604 209.43 263.286 210.086C262.973 210.737 262.523 211.245 261.934 211.609C261.351 211.974 260.679 212.156 259.919 212.156C258.773 212.156 257.843 211.758 257.13 210.961C256.421 210.164 256.067 209.109 256.067 207.797V207.695ZM257.52 207.867C257.52 208.805 257.736 209.557 258.169 210.125C258.606 210.693 259.19 210.977 259.919 210.977C260.653 210.977 261.236 210.69 261.669 210.117C262.101 209.539 262.317 208.732 262.317 207.695C262.317 206.768 262.096 206.018 261.653 205.445C261.216 204.867 260.632 204.578 259.903 204.578C259.19 204.578 258.614 204.862 258.177 205.43C257.739 205.997 257.52 206.81 257.52 207.867ZM269.811 204.844C269.592 204.807 269.355 204.789 269.1 204.789C268.152 204.789 267.509 205.193 267.17 206V212H265.725V203.547H267.131L267.155 204.523C267.629 203.768 268.301 203.391 269.17 203.391C269.452 203.391 269.665 203.427 269.811 203.5V204.844Z" fill="black" fill-opacity="0.87"/>
<rect x="14" y="227" width="380" height="1" fill="black" fill-opacity="0.6"/>
<g filter="url(#filter0_ddd_714:3346)">
<rect width="380" height="48" transform="translate(15 342)" fill="white"/>
<path d="M46.2051 361.469L48.9941 368.43L51.7832 361.469H53.2422V370H52.1172V366.678L52.2227 363.092L49.4219 370H48.5605L45.7656 363.109L45.877 366.678V370H44.752V361.469H46.2051Z" fill="black" fill-opacity="0.6"/>
<path d="M104.305 362.395H101.562V370H100.443V362.395H97.707V361.469H104.305V362.395Z" fill="black" fill-opacity="0.6"/>
<path d="M150.504 367.311L150.668 368.436L150.908 367.422L152.596 361.469H153.545L155.191 367.422L155.426 368.453L155.607 367.305L156.932 361.469H158.062L155.994 370H154.969L153.211 363.783L153.076 363.133L152.941 363.783L151.119 370H150.094L148.031 361.469H149.156L150.504 367.311Z" fill="black" fill-opacity="0.6"/>
<path d="M208.305 362.395H205.562V370H204.443V362.395H201.707V361.469H208.305V362.395Z" fill="black" fill-opacity="0.6"/>
<path d="M259.379 366.232H255.799V370H254.674V361.469H259.959V362.395H255.799V365.312H259.379V366.232Z" fill="black" fill-opacity="0.6"/>
<path d="M308.941 366.197C307.977 365.92 307.273 365.58 306.832 365.178C306.395 364.771 306.176 364.271 306.176 363.678C306.176 363.006 306.443 362.451 306.979 362.014C307.518 361.572 308.217 361.352 309.076 361.352C309.662 361.352 310.184 361.465 310.641 361.691C311.102 361.918 311.457 362.23 311.707 362.629C311.961 363.027 312.088 363.463 312.088 363.936H310.957C310.957 363.42 310.793 363.016 310.465 362.723C310.137 362.426 309.674 362.277 309.076 362.277C308.521 362.277 308.088 362.4 307.775 362.646C307.467 362.889 307.312 363.227 307.312 363.66C307.312 364.008 307.459 364.303 307.752 364.545C308.049 364.783 308.551 365.002 309.258 365.201C309.969 365.4 310.523 365.621 310.922 365.863C311.324 366.102 311.621 366.381 311.812 366.701C312.008 367.021 312.105 367.398 312.105 367.832C312.105 368.523 311.836 369.078 311.297 369.496C310.758 369.91 310.037 370.117 309.135 370.117C308.549 370.117 308.002 370.006 307.494 369.783C306.986 369.557 306.594 369.248 306.316 368.857C306.043 368.467 305.906 368.023 305.906 367.527H307.037C307.037 368.043 307.227 368.451 307.605 368.752C307.988 369.049 308.498 369.197 309.135 369.197C309.729 369.197 310.184 369.076 310.5 368.834C310.816 368.592 310.975 368.262 310.975 367.844C310.975 367.426 310.828 367.104 310.535 366.877C310.242 366.646 309.711 366.42 308.941 366.197Z" fill="black" fill-opacity="0.6"/>
<path d="M360.941 366.197C359.977 365.92 359.273 365.58 358.832 365.178C358.395 364.771 358.176 364.271 358.176 363.678C358.176 363.006 358.443 362.451 358.979 362.014C359.518 361.572 360.217 361.352 361.076 361.352C361.662 361.352 362.184 361.465 362.641 361.691C363.102 361.918 363.457 362.23 363.707 362.629C363.961 363.027 364.088 363.463 364.088 363.936H362.957C362.957 363.42 362.793 363.016 362.465 362.723C362.137 362.426 361.674 362.277 361.076 362.277C360.521 362.277 360.088 362.4 359.775 362.646C359.467 362.889 359.312 363.227 359.312 363.66C359.312 364.008 359.459 364.303 359.752 364.545C360.049 364.783 360.551 365.002 361.258 365.201C361.969 365.4 362.523 365.621 362.922 365.863C363.324 366.102 363.621 366.381 363.812 366.701C364.008 367.021 364.105 367.398 364.105 367.832C364.105 368.523 363.836 369.078 363.297 369.496C362.758 369.91 362.037 370.117 361.135 370.117C360.549 370.117 360.002 370.006 359.494 369.783C358.986 369.557 358.594 369.248 358.316 368.857C358.043 368.467 357.906 368.023 357.906 367.527H359.037C359.037 368.043 359.227 368.451 359.605 368.752C359.988 369.049 360.498 369.197 361.135 369.197C361.729 369.197 362.184 369.076 362.5 368.834C362.816 368.592 362.975 368.262 362.975 367.844C362.975 367.426 362.828 367.104 362.535 366.877C362.242 366.646 361.711 366.42 360.941 366.197Z" fill="black" fill-opacity="0.6"/>
</g>
<path d="M15 261C15 258.791 16.7909 257 19 257H391C393.209 257 395 258.791 395 261V312H15V261Z" fill="#212121" fill-opacity="0.08"/>
<path d="M40 283H38V285H40V283ZM44 283H42V285H44V283ZM48 283H46V285H48V283ZM50 276H49V274H47V276H39V274H37V276H36C34.89 276 34.01 276.9 34.01 278L34 292C34 292.53 34.2107 293.039 34.5858 293.414C34.9609 293.789 35.4696 294 36 294H50C51.1 294 52 293.1 52 292V278C52 276.9 51.1 276 50 276ZM50 292H36V281H50V292Z" fill="black"/>
<path d="M72.5039 273.197C71.5391 272.92 70.8359 272.58 70.3945 272.178C69.957 271.771 69.7383 271.271 69.7383 270.678C69.7383 270.006 70.0059 269.451 70.541 269.014C71.0801 268.572 71.7793 268.352 72.6387 268.352C73.2246 268.352 73.7461 268.465 74.2031 268.691C74.6641 268.918 75.0195 269.23 75.2695 269.629C75.5234 270.027 75.6504 270.463 75.6504 270.936H74.5195C74.5195 270.42 74.3555 270.016 74.0273 269.723C73.6992 269.426 73.2363 269.277 72.6387 269.277C72.084 269.277 71.6504 269.4 71.3379 269.646C71.0293 269.889 70.875 270.227 70.875 270.66C70.875 271.008 71.0215 271.303 71.3145 271.545C71.6113 271.783 72.1133 272.002 72.8203 272.201C73.5312 272.4 74.0859 272.621 74.4844 272.863C74.8867 273.102 75.1836 273.381 75.375 273.701C75.5703 274.021 75.668 274.398 75.668 274.832C75.668 275.523 75.3984 276.078 74.8594 276.496C74.3203 276.91 73.5996 277.117 72.6973 277.117C72.1113 277.117 71.5645 277.006 71.0566 276.783C70.5488 276.557 70.1562 276.248 69.8789 275.857C69.6055 275.467 69.4688 275.023 69.4688 274.527H70.5996C70.5996 275.043 70.7891 275.451 71.168 275.752C71.5508 276.049 72.0605 276.197 72.6973 276.197C73.291 276.197 73.7461 276.076 74.0625 275.834C74.3789 275.592 74.5371 275.262 74.5371 274.844C74.5371 274.426 74.3906 274.104 74.0977 273.877C73.8047 273.646 73.2734 273.42 72.5039 273.197ZM78.816 269.125V270.66H79.9996V271.498H78.816V275.43C78.816 275.684 78.8688 275.875 78.9742 276.004C79.0797 276.129 79.2594 276.191 79.5133 276.191C79.6383 276.191 79.8102 276.168 80.0289 276.121V277C79.7438 277.078 79.4664 277.117 79.1969 277.117C78.7125 277.117 78.3473 276.971 78.1012 276.678C77.8551 276.385 77.732 275.969 77.732 275.43V271.498H76.5777V270.66H77.732V269.125H78.816ZM85.5852 277C85.5227 276.875 85.4719 276.652 85.4328 276.332C84.9289 276.855 84.3273 277.117 83.6281 277.117C83.0031 277.117 82.4895 276.941 82.0871 276.59C81.6887 276.234 81.4895 275.785 81.4895 275.242C81.4895 274.582 81.7395 274.07 82.2395 273.707C82.7434 273.34 83.4504 273.156 84.3605 273.156H85.4152V272.658C85.4152 272.279 85.302 271.979 85.0754 271.756C84.8488 271.529 84.5148 271.416 84.0734 271.416C83.6867 271.416 83.3625 271.514 83.1008 271.709C82.8391 271.904 82.7082 272.141 82.7082 272.418H81.6184C81.6184 272.102 81.7297 271.797 81.9523 271.504C82.1789 271.207 82.4836 270.973 82.8664 270.801C83.2531 270.629 83.677 270.543 84.1379 270.543C84.8684 270.543 85.4406 270.727 85.8547 271.094C86.2688 271.457 86.4836 271.959 86.4992 272.6V275.518C86.4992 276.1 86.5734 276.562 86.7219 276.906V277H85.5852ZM83.7863 276.174C84.1262 276.174 84.4484 276.086 84.7531 275.91C85.0578 275.734 85.2785 275.506 85.4152 275.225V273.924H84.5656C83.2375 273.924 82.5734 274.312 82.5734 275.09C82.5734 275.43 82.6867 275.695 82.9133 275.887C83.1398 276.078 83.4309 276.174 83.7863 276.174ZM91.6629 271.633C91.4988 271.605 91.3211 271.592 91.1297 271.592C90.4188 271.592 89.9363 271.895 89.6824 272.5V277H88.5984V270.66H89.6531L89.6707 271.393C90.0262 270.826 90.5301 270.543 91.1824 270.543C91.3934 270.543 91.5535 270.57 91.6629 270.625V271.633ZM94.8285 269.125V270.66H96.0121V271.498H94.8285V275.43C94.8285 275.684 94.8813 275.875 94.9867 276.004C95.0922 276.129 95.2719 276.191 95.5258 276.191C95.6508 276.191 95.8227 276.168 96.0414 276.121V277C95.7563 277.078 95.4789 277.117 95.2094 277.117C94.725 277.117 94.3598 276.971 94.1137 276.678C93.8676 276.385 93.7445 275.969 93.7445 275.43V271.498H92.5902V270.66H93.7445V269.125H94.8285ZM101.23 277V268.469H103.638C104.38 268.469 105.037 268.633 105.607 268.961C106.177 269.289 106.617 269.756 106.925 270.361C107.238 270.967 107.396 271.662 107.4 272.447V272.992C107.4 273.797 107.244 274.502 106.931 275.107C106.623 275.713 106.179 276.178 105.601 276.502C105.027 276.826 104.357 276.992 103.591 277H101.23ZM102.355 269.395V276.08H103.539C104.406 276.08 105.08 275.811 105.56 275.271C106.045 274.732 106.287 273.965 106.287 272.969V272.471C106.287 271.502 106.058 270.75 105.601 270.215C105.148 269.676 104.504 269.402 103.668 269.395H102.355ZM113.249 277C113.187 276.875 113.136 276.652 113.097 276.332C112.593 276.855 111.991 277.117 111.292 277.117C110.667 277.117 110.154 276.941 109.751 276.59C109.353 276.234 109.154 275.785 109.154 275.242C109.154 274.582 109.404 274.07 109.904 273.707C110.407 273.34 111.114 273.156 112.025 273.156H113.079V272.658C113.079 272.279 112.966 271.979 112.739 271.756C112.513 271.529 112.179 271.416 111.737 271.416C111.351 271.416 111.027 271.514 110.765 271.709C110.503 271.904 110.372 272.141 110.372 272.418H109.282C109.282 272.102 109.394 271.797 109.616 271.504C109.843 271.207 110.148 270.973 110.53 270.801C110.917 270.629 111.341 270.543 111.802 270.543C112.532 270.543 113.105 270.727 113.519 271.094C113.933 271.457 114.148 271.959 114.163 272.6V275.518C114.163 276.1 114.237 276.562 114.386 276.906V277H113.249ZM111.45 276.174C111.79 276.174 112.112 276.086 112.417 275.91C112.722 275.734 112.943 275.506 113.079 275.225V273.924H112.23C110.902 273.924 110.237 274.312 110.237 275.09C110.237 275.43 110.351 275.695 110.577 275.887C110.804 276.078 111.095 276.174 111.45 276.174ZM117.733 269.125V270.66H118.917V271.498H117.733V275.43C117.733 275.684 117.786 275.875 117.891 276.004C117.997 276.129 118.177 276.191 118.43 276.191C118.555 276.191 118.727 276.168 118.946 276.121V277C118.661 277.078 118.384 277.117 118.114 277.117C117.63 277.117 117.264 276.971 117.018 276.678C116.772 276.385 116.649 275.969 116.649 275.43V271.498H115.495V270.66H116.649V269.125H117.733ZM123.219 277.117C122.36 277.117 121.661 276.836 121.121 276.273C120.582 275.707 120.313 274.951 120.313 274.006V273.807C120.313 273.178 120.432 272.617 120.67 272.125C120.912 271.629 121.248 271.242 121.678 270.965C122.112 270.684 122.58 270.543 123.084 270.543C123.909 270.543 124.549 270.814 125.006 271.357C125.463 271.9 125.692 272.678 125.692 273.689V274.141H121.397C121.412 274.766 121.594 275.271 121.942 275.658C122.293 276.041 122.739 276.232 123.278 276.232C123.661 276.232 123.985 276.154 124.25 275.998C124.516 275.842 124.748 275.635 124.948 275.377L125.61 275.893C125.079 276.709 124.282 277.117 123.219 277.117ZM123.084 271.434C122.647 271.434 122.28 271.594 121.983 271.914C121.686 272.23 121.502 272.676 121.432 273.25H124.608V273.168C124.577 272.617 124.428 272.191 124.162 271.891C123.897 271.586 123.537 271.434 123.084 271.434Z" fill="black" fill-opacity="0.6"/>
<path d="M79.0703 290.68C79.0703 291.794 78.8828 292.768 78.5078 293.602C78.1328 294.43 77.6016 295.062 76.9141 295.5C76.2266 295.938 75.4245 296.156 74.5078 296.156C73.612 296.156 72.8177 295.938 72.125 295.5C71.4323 295.057 70.8932 294.43 70.5078 293.617C70.1276 292.799 69.9323 291.854 69.9219 290.781V289.961C69.9219 288.867 70.112 287.901 70.4922 287.062C70.8724 286.224 71.4089 285.583 72.1016 285.141C72.7995 284.693 73.5964 284.469 74.4922 284.469C75.4036 284.469 76.2057 284.69 76.8984 285.133C77.5964 285.57 78.1328 286.208 78.5078 287.047C78.8828 287.88 79.0703 288.852 79.0703 289.961V290.68ZM77.5781 289.945C77.5781 288.596 77.3073 287.562 76.7656 286.844C76.224 286.12 75.4661 285.758 74.4922 285.758C73.5443 285.758 72.7969 286.12 72.25 286.844C71.7083 287.562 71.4297 288.562 71.4141 289.844V290.68C71.4141 291.987 71.6875 293.016 72.2344 293.766C72.7865 294.51 73.5443 294.883 74.5078 294.883C75.4766 294.883 76.2266 294.531 76.7578 293.828C77.2891 293.12 77.5625 292.107 77.5781 290.789V289.945ZM84.6344 294.977C85.15 294.977 85.6005 294.82 85.9859 294.508C86.3714 294.195 86.5849 293.805 86.6266 293.336H87.9937C87.9677 293.82 87.801 294.281 87.4937 294.719C87.1865 295.156 86.775 295.505 86.2594 295.766C85.749 296.026 85.2073 296.156 84.6344 296.156C83.4833 296.156 82.5667 295.773 81.8844 295.008C81.2073 294.237 80.8687 293.185 80.8687 291.852V291.609C80.8687 290.786 81.0198 290.055 81.3219 289.414C81.624 288.773 82.0562 288.276 82.6187 287.922C83.1865 287.568 83.8557 287.391 84.6266 287.391C85.5745 287.391 86.3609 287.674 86.9859 288.242C87.6161 288.81 87.9521 289.547 87.9937 290.453H86.6266C86.5849 289.906 86.3766 289.458 86.0016 289.109C85.6318 288.755 85.1734 288.578 84.6266 288.578C83.8922 288.578 83.3219 288.844 82.9156 289.375C82.5146 289.901 82.3141 290.664 82.3141 291.664V291.938C82.3141 292.911 82.5146 293.661 82.9156 294.188C83.3167 294.714 83.8896 294.977 84.6344 294.977ZM91.7297 285.5V287.547H93.3078V288.664H91.7297V293.906C91.7297 294.245 91.8 294.5 91.9406 294.672C92.0812 294.839 92.3208 294.922 92.6594 294.922C92.826 294.922 93.0552 294.891 93.3469 294.828V296C92.9667 296.104 92.5969 296.156 92.2375 296.156C91.5917 296.156 91.1047 295.961 90.7766 295.57C90.4484 295.18 90.2844 294.625 90.2844 293.906V288.664H88.7453V287.547H90.2844V285.5H91.7297ZM103.873 296H102.42V286.367L99.5063 287.438V286.125L103.647 284.57H103.873V296ZM115.711 296H108.258V294.961L112.195 290.586C112.779 289.924 113.18 289.388 113.398 288.977C113.622 288.56 113.734 288.13 113.734 287.688C113.734 287.094 113.555 286.607 113.195 286.227C112.836 285.846 112.357 285.656 111.758 285.656C111.039 285.656 110.479 285.862 110.078 286.273C109.682 286.68 109.484 287.247 109.484 287.977H108.039C108.039 286.93 108.375 286.083 109.047 285.438C109.724 284.792 110.628 284.469 111.758 284.469C112.815 284.469 113.651 284.747 114.266 285.305C114.88 285.857 115.188 286.594 115.188 287.516C115.188 288.635 114.474 289.969 113.047 291.516L110 294.82H115.711V296ZM117.494 298.266L116.673 297.703C117.163 297.021 117.418 296.318 117.439 295.594V294.289H118.853V295.422C118.853 295.948 118.723 296.474 118.463 297C118.207 297.526 117.884 297.948 117.494 298.266ZM132.255 296H124.802V294.961L128.739 290.586C129.322 289.924 129.723 289.388 129.942 288.977C130.166 288.56 130.278 288.13 130.278 287.688C130.278 287.094 130.098 286.607 129.739 286.227C129.38 285.846 128.901 285.656 128.302 285.656C127.583 285.656 127.023 285.862 126.622 286.273C126.226 286.68 126.028 287.247 126.028 287.977H124.583C124.583 286.93 124.919 286.083 125.591 285.438C126.268 284.792 127.171 284.469 128.302 284.469C129.359 284.469 130.195 284.747 130.809 285.305C131.424 285.857 131.731 286.594 131.731 287.516C131.731 288.635 131.018 289.969 129.591 291.516L126.544 294.82H132.255V296ZM141.069 291.148C141.069 292.841 140.78 294.099 140.202 294.922C139.623 295.745 138.72 296.156 137.491 296.156C136.277 296.156 135.379 295.755 134.795 294.953C134.212 294.146 133.91 292.943 133.889 291.344V289.414C133.889 287.742 134.178 286.5 134.756 285.688C135.334 284.875 136.241 284.469 137.475 284.469C138.699 284.469 139.6 284.862 140.178 285.648C140.756 286.43 141.053 287.638 141.069 289.273V291.148ZM139.623 289.172C139.623 287.948 139.452 287.057 139.108 286.5C138.764 285.938 138.22 285.656 137.475 285.656C136.735 285.656 136.196 285.935 135.858 286.492C135.519 287.049 135.345 287.906 135.334 289.062V291.375C135.334 292.604 135.511 293.513 135.866 294.102C136.225 294.685 136.767 294.977 137.491 294.977C138.204 294.977 138.733 294.701 139.077 294.148C139.426 293.596 139.608 292.727 139.623 291.539V289.172ZM150.523 296H143.07V294.961L147.008 290.586C147.591 289.924 147.992 289.388 148.211 288.977C148.435 288.56 148.547 288.13 148.547 287.688C148.547 287.094 148.367 286.607 148.008 286.227C147.648 285.846 147.169 285.656 146.57 285.656C145.852 285.656 145.292 285.862 144.891 286.273C144.495 286.68 144.297 287.247 144.297 287.977H142.852C142.852 286.93 143.188 286.083 143.859 285.438C144.536 284.792 145.44 284.469 146.57 284.469C147.628 284.469 148.464 284.747 149.078 285.305C149.693 285.857 150 286.594 150 287.516C150 288.635 149.286 289.969 147.859 291.516L144.812 294.82H150.523V296ZM156.955 296H155.502V286.367L152.588 287.438V286.125L156.728 284.57H156.955V296Z" fill="black" fill-opacity="0.87"/>
<rect x="15" y="311" width="380" height="1" fill="black" fill-opacity="0.6"/>
<path d="M311 424C311 421.791 312.791 420 315 420H390C392.209 420 394 421.791 394 424V452C394 454.209 392.209 456 390 456H315C312.791 456 311 454.209 311 452V424Z" fill="#6200EE"/>
<path fill-rule="evenodd" clip-rule="evenodd" d="M338 439H332V445H330V439H324V437H330V431H332V437H338V439Z" fill="white"/>
<path d="M355.583 440.683H351.728L350.921 443H349.123L352.883 433.047H354.435L358.201 443H356.396L355.583 440.683ZM352.213 439.288H355.098L353.655 435.159L352.213 439.288ZM360.586 443V433.047H363.525C364.405 433.047 365.184 433.243 365.863 433.635C366.547 434.027 367.076 434.583 367.449 435.303C367.823 436.023 368.01 436.848 368.01 437.777V438.276C368.01 439.22 367.821 440.049 367.442 440.765C367.069 441.48 366.533 442.032 365.836 442.419C365.143 442.806 364.348 443 363.45 443H360.586ZM362.315 434.441V441.619H363.443C364.35 441.619 365.045 441.337 365.528 440.771C366.016 440.202 366.264 439.386 366.273 438.324V437.771C366.273 436.69 366.039 435.866 365.569 435.296C365.1 434.726 364.419 434.441 363.525 434.441H362.315ZM370.982 443V433.047H373.922C374.801 433.047 375.581 433.243 376.26 433.635C376.943 434.027 377.472 434.583 377.846 435.303C378.219 436.023 378.406 436.848 378.406 437.777V438.276C378.406 439.22 378.217 440.049 377.839 440.765C377.465 441.48 376.93 442.032 376.232 442.419C375.54 442.806 374.744 443 373.847 443H370.982ZM372.712 434.441V441.619H373.84C374.747 441.619 375.442 441.337 375.925 440.771C376.412 440.202 376.661 439.386 376.67 438.324V437.771C376.67 436.69 376.435 435.866 375.966 435.296C375.496 434.726 374.815 434.441 373.922 434.441H372.712Z" fill="white"/>
<defs>
<filter id="filter0_ddd_714:3346" x="5" y="333" width="400" height="68" filterUnits="userSpaceOnUse" color-interpolation-filters="sRGB">
<feFlood flood-opacity="0" result="BackgroundImageFix"/>
<feColorMatrix in="SourceAlpha" type="matrix" values="0 0 0 0 0 0 0 0 0 0 0 0 0 0 0 0 0 0 127 0" result="hardAlpha"/>
<feOffset dy="2"/>
<feGaussianBlur stdDeviation="2"/>
<feColorMatrix type="matrix" values="0 0 0 0 0 0 0 0 0 0 0 0 0 0 0 0 0 0 0.2 0"/>
<feBlend mode="normal" in2="BackgroundImageFix" result="effect1_dropShadow_714:3346"/>
<feColorMatrix in="SourceAlpha" type="matrix" values="0 0 0 0 0 0 0 0 0 0 0 0 0 0 0 0 0 0 127 0" result="hardAlpha"/>
<feOffset dy="1"/>
<feGaussianBlur stdDeviation="5"/>
<feColorMatrix type="matrix" values="0 0 0 0 0 0 0 0 0 0 0 0 0 0 0 0 0 0 0.12 0"/>
<feBlend mode="normal" in2="effect1_dropShadow_714:3346" result="effect2_dropShadow_714:3346"/>
<feColorMatrix in="SourceAlpha" type="matrix" values="0 0 0 0 0 0 0 0 0 0 0 0 0 0 0 0 0 0 127 0" result="hardAlpha"/>
<feOffset dy="4"/>
<feGaussianBlur stdDeviation="2.5"/>
<feColorMatrix type="matrix" values="0 0 0 0 0 0 0 0 0 0 0 0 0 0 0 0 0 0 0.14 0"/>
<feBlend mode="normal" in2="effect2_dropShadow_714:3346" result="effect3_dropShadow_714:3346"/>
<feBlend mode="normal" in="SourceGraphic" in2="effect3_dropShadow_714:3346" result="shape"/>
</filter>
</defs>
</svg>
