<svg width="411" height="731" viewBox="0 0 411 731" fill="none" xmlns="http://www.w3.org/2000/svg">
<rect width="411" height="731" fill="#F1F1F1"/>
<rect width="411" height="731" fill="white"/>
<rect width="411" height="56" fill="#6200EE"/>
<path fill-rule="evenodd" clip-rule="evenodd" d="M31.41 23.41L30 22L24 28L30 34L31.41 32.59L26.83 28L31.41 23.41Z" fill="white"/>
<path d="M79.4551 31.9043L83.0684 20.7812H85.7832L80.666 35H78.2734L73.1758 20.7812H75.8809L79.4551 31.9043ZM89.8395 35H87.4664V24.4336H89.8395V35ZM87.3199 21.6895C87.3199 21.3249 87.4339 21.0221 87.6617 20.7812C87.8961 20.5404 88.2281 20.4199 88.6578 20.4199C89.0875 20.4199 89.4195 20.5404 89.6539 20.7812C89.8883 21.0221 90.0055 21.3249 90.0055 21.6895C90.0055 22.0475 89.8883 22.347 89.6539 22.5879C89.4195 22.8223 89.0875 22.9395 88.6578 22.9395C88.2281 22.9395 87.8961 22.8223 87.6617 22.5879C87.4339 22.347 87.3199 22.0475 87.3199 21.6895ZM97.2355 35.1953C95.7316 35.1953 94.5109 34.7233 93.5734 33.7793C92.6424 32.8288 92.177 31.5658 92.177 29.9902V29.6973C92.177 28.6426 92.3788 27.7018 92.7824 26.875C93.1926 26.0417 93.7655 25.3939 94.5012 24.9316C95.2368 24.4694 96.0572 24.2383 96.9621 24.2383C98.4009 24.2383 99.5109 24.6973 100.292 25.6152C101.08 26.5332 101.474 27.832 101.474 29.5117V30.4688H94.5695C94.6411 31.3411 94.9309 32.0312 95.4387 32.5391C95.953 33.0469 96.5975 33.3008 97.3723 33.3008C98.4595 33.3008 99.3449 32.8613 100.029 31.9824L101.308 33.2031C100.885 33.8346 100.318 34.3262 99.6086 34.6777C98.9055 35.0228 98.1145 35.1953 97.2355 35.1953ZM96.9523 26.1426C96.3013 26.1426 95.774 26.3704 95.3703 26.8262C94.9732 27.2819 94.7193 27.9167 94.6086 28.7305H99.1301V28.5547C99.078 27.7604 98.8664 27.1615 98.4953 26.7578C98.1242 26.3477 97.6099 26.1426 96.9523 26.1426ZM112.757 31.7285L114.436 24.4336H116.751L113.87 35H111.917L109.651 27.7441L107.425 35H105.471L102.581 24.4336H104.895L106.604 31.6504L108.772 24.4336H110.559L112.757 31.7285ZM135.137 35H132.676V28.6816H126.318V35H123.848V20.7812H126.318V26.6992H132.676V20.7812H135.137V35ZM144.3 35C144.196 34.7982 144.105 34.4694 144.027 34.0137C143.272 34.8014 142.347 35.1953 141.254 35.1953C140.192 35.1953 139.326 34.8926 138.656 34.2871C137.985 33.6816 137.65 32.9329 137.65 32.041C137.65 30.9147 138.067 30.0521 138.9 29.4531C139.74 28.8477 140.938 28.5449 142.494 28.5449H143.949V27.8516C143.949 27.3047 143.796 26.8685 143.49 26.543C143.184 26.2109 142.718 26.0449 142.093 26.0449C141.553 26.0449 141.11 26.1816 140.765 26.4551C140.42 26.722 140.248 27.0638 140.248 27.4805H137.875C137.875 26.901 138.067 26.3607 138.451 25.8594C138.835 25.3516 139.356 24.9544 140.013 24.668C140.677 24.3815 141.416 24.2383 142.23 24.2383C143.467 24.2383 144.453 24.5508 145.189 25.1758C145.925 25.7943 146.302 26.6667 146.322 27.793V32.5586C146.322 33.5091 146.455 34.2676 146.722 34.834V35H144.3ZM141.693 33.291C142.162 33.291 142.601 33.1771 143.011 32.9492C143.428 32.7214 143.74 32.4154 143.949 32.0312V30.0391H142.67C141.791 30.0391 141.13 30.1921 140.687 30.498C140.244 30.804 140.023 31.237 140.023 31.7969C140.023 32.2526 140.173 32.6172 140.472 32.8906C140.778 33.1576 141.185 33.291 141.693 33.291ZM158.23 29.8242C158.23 31.4648 157.862 32.7702 157.126 33.7402C156.397 34.7103 155.391 35.1953 154.109 35.1953C152.872 35.1953 151.908 34.7493 151.218 33.8574L151.101 35H148.952V20H151.325V25.4492C152.009 24.6419 152.93 24.2383 154.089 24.2383C155.378 24.2383 156.39 24.7168 157.126 25.6738C157.862 26.6309 158.23 27.9688 158.23 29.6875V29.8242ZM155.857 29.6191C155.857 28.4733 155.655 27.6139 155.251 27.041C154.848 26.4681 154.262 26.1816 153.493 26.1816C152.465 26.1816 151.742 26.6309 151.325 27.5293V31.8848C151.749 32.8027 152.478 33.2617 153.513 33.2617C154.255 33.2617 154.828 32.985 155.232 32.4316C155.635 31.8783 155.844 31.0417 155.857 29.9219V29.6191ZM162.901 35H160.528V24.4336H162.901V35ZM160.382 21.6895C160.382 21.3249 160.496 21.0221 160.723 20.7812C160.958 20.5404 161.29 20.4199 161.72 20.4199C162.149 20.4199 162.481 20.5404 162.716 20.7812C162.95 21.0221 163.067 21.3249 163.067 21.6895C163.067 22.0475 162.95 22.347 162.716 22.5879C162.481 22.8223 162.149 22.9395 161.72 22.9395C161.29 22.9395 160.958 22.8223 160.723 22.5879C160.496 22.347 160.382 22.0475 160.382 21.6895ZM168.618 21.8652V24.4336H170.483V26.1914H168.618V32.0898C168.618 32.4935 168.696 32.7865 168.852 32.9688C169.015 33.1445 169.301 33.2324 169.711 33.2324C169.985 33.2324 170.261 33.1999 170.541 33.1348V34.9707C170.001 35.1204 169.48 35.1953 168.979 35.1953C167.156 35.1953 166.245 34.1895 166.245 32.1777V26.1914H164.506V24.4336H166.245V21.8652H168.618ZM186.125 28.6523H180.285V33.0273H187.111V35H177.814V20.7812H187.043V22.7734H180.285V26.6992H186.125V28.6523ZM192.515 31.9922L194.751 24.4336H197.202L193.54 35H191.48L187.788 24.4336H190.249L192.515 31.9922ZM203.358 35.1953C201.854 35.1953 200.634 34.7233 199.696 33.7793C198.765 32.8288 198.3 31.5658 198.3 29.9902V29.6973C198.3 28.6426 198.501 27.7018 198.905 26.875C199.315 26.0417 199.888 25.3939 200.624 24.9316C201.36 24.4694 202.18 24.2383 203.085 24.2383C204.524 24.2383 205.634 24.6973 206.415 25.6152C207.203 26.5332 207.596 27.832 207.596 29.5117V30.4688H200.692C200.764 31.3411 201.054 32.0312 201.561 32.5391C202.076 33.0469 202.72 33.3008 203.495 33.3008C204.582 33.3008 205.468 32.8613 206.151 31.9824L207.43 33.2031C207.007 33.8346 206.441 34.3262 205.731 34.6777C205.028 35.0228 204.237 35.1953 203.358 35.1953ZM203.075 26.1426C202.424 26.1426 201.897 26.3704 201.493 26.8262C201.096 27.2819 200.842 27.9167 200.731 28.7305H205.253V28.5547C205.201 27.7604 204.989 27.1615 204.618 26.7578C204.247 26.3477 203.733 26.1426 203.075 26.1426ZM211.799 24.4336L211.868 25.6543C212.649 24.7103 213.674 24.2383 214.944 24.2383C217.144 24.2383 218.264 25.498 218.303 28.0176V35H215.93V28.1543C215.93 27.4837 215.784 26.9889 215.491 26.6699C215.204 26.3444 214.732 26.1816 214.075 26.1816C213.118 26.1816 212.405 26.6146 211.936 27.4805V35H209.563V24.4336H211.799ZM223.854 21.8652V24.4336H225.719V26.1914H223.854V32.0898C223.854 32.4935 223.932 32.7865 224.088 32.9688C224.251 33.1445 224.537 33.2324 224.947 33.2324C225.221 33.2324 225.497 33.1999 225.777 33.1348V34.9707C225.237 35.1204 224.716 35.1953 224.215 35.1953C222.392 35.1953 221.48 34.1895 221.48 32.1777V26.1914H219.742V24.4336H221.48V21.8652H223.854Z" fill="white"/>
<path d="M382.938 18C377.389 18 372.886 22.48 372.886 28C372.886 33.52 377.389 38 382.938 38C388.486 38 392.99 33.52 392.99 28C392.99 22.48 388.486 18 382.938 18ZM383.943 35H381.933V33H383.943V35ZM386.024 27.25L385.119 28.17C384.395 28.9 383.943 29.5 383.943 31H381.933V30.5C381.933 29.4 382.385 28.4 383.109 27.67L384.355 26.41C384.727 26.05 384.948 25.55 384.948 25C384.948 23.9 384.044 23 382.938 23C381.832 23 380.927 23.9 380.927 25H378.917C378.917 22.79 380.716 21 382.938 21C385.159 21 386.959 22.79 386.959 25C386.959 25.88 386.597 26.68 386.024 27.25Z" fill="white" fill-opacity="0.74"/>
<rect x="11" y="108" width="388" height="1" fill="#212121" fill-opacity="0.08"/>
<path d="M27.6709 92.2217H21.9932V102H18.7891V77.8281H26.791C29.5137 77.8281 31.6055 78.4479 33.0664 79.6875C34.5384 80.9271 35.2744 82.7311 35.2744 85.0996C35.2744 86.6048 34.8649 87.9163 34.0459 89.0342C33.238 90.152 32.109 90.9876 30.6592 91.541L36.3369 101.801V102H32.917L27.6709 92.2217ZM21.9932 89.6152H26.8906C28.4733 89.6152 29.7295 89.2057 30.6592 88.3867C31.5999 87.5677 32.0703 86.472 32.0703 85.0996C32.0703 83.6055 31.6221 82.46 30.7256 81.6631C29.8402 80.8662 28.5563 80.4622 26.874 80.4512H21.9932V89.6152ZM46.7295 102.332C44.2946 102.332 42.3135 101.535 40.7861 99.9414C39.2588 98.3366 38.4951 96.195 38.4951 93.5166V92.9521C38.4951 91.1702 38.8327 89.582 39.5078 88.1875C40.194 86.7819 41.1458 85.6862 42.3633 84.9004C43.5918 84.1035 44.9199 83.7051 46.3477 83.7051C48.6829 83.7051 50.498 84.4743 51.793 86.0127C53.0879 87.5511 53.7354 89.7536 53.7354 92.6201V93.8984H41.5664C41.6107 95.6693 42.1253 97.1025 43.1104 98.1982C44.1064 99.2829 45.3682 99.8252 46.8955 99.8252C47.9801 99.8252 48.8988 99.6038 49.6514 99.1611C50.404 98.7184 51.0625 98.1318 51.627 97.4014L53.5029 98.8623C51.9977 101.175 49.7399 102.332 46.7295 102.332ZM46.3477 86.2285C45.1081 86.2285 44.0677 86.6823 43.2266 87.5898C42.3854 88.4863 41.8652 89.748 41.666 91.375H50.6641V91.1426C50.5755 89.582 50.1549 88.3757 49.4023 87.5234C48.6497 86.6602 47.6315 86.2285 46.3477 86.2285ZM68.3945 102C68.2174 101.646 68.0736 101.015 67.9629 100.107C66.5352 101.59 64.8307 102.332 62.8496 102.332C61.0788 102.332 59.6234 101.834 58.4834 100.838C57.3545 99.8307 56.79 98.5579 56.79 97.0195C56.79 95.1491 57.4984 93.6992 58.915 92.6699C60.3428 91.6296 62.346 91.1094 64.9248 91.1094H67.9131V89.6982C67.9131 88.6247 67.5921 87.7725 66.9502 87.1416C66.3083 86.4997 65.362 86.1787 64.1113 86.1787C63.0156 86.1787 62.097 86.4554 61.3555 87.0088C60.6139 87.5622 60.2432 88.2318 60.2432 89.0176H57.1553C57.1553 88.1211 57.4707 87.2578 58.1016 86.4277C58.7435 85.5866 59.6068 84.9225 60.6914 84.4355C61.7871 83.9486 62.988 83.7051 64.2939 83.7051C66.3636 83.7051 67.985 84.2253 69.1582 85.2656C70.3314 86.2949 70.9401 87.7171 70.9844 89.5322V97.7998C70.9844 99.4489 71.1947 100.76 71.6152 101.734V102H68.3945ZM63.2979 99.6592C64.2607 99.6592 65.1738 99.4102 66.0371 98.9121C66.9004 98.4141 67.5257 97.7666 67.9131 96.9697V93.2842H65.5059C61.7428 93.2842 59.8613 94.3854 59.8613 96.5879C59.8613 97.5508 60.1823 98.3034 60.8242 98.8457C61.4661 99.388 62.2907 99.6592 63.2979 99.6592ZM75.0518 92.8691C75.0518 90.1133 75.7048 87.8997 77.0107 86.2285C78.3167 84.5462 80.0267 83.7051 82.1406 83.7051C84.2435 83.7051 85.9092 84.4245 87.1377 85.8633V76.5H90.209V102H87.3867L87.2373 100.074C86.0088 101.579 84.2988 102.332 82.1074 102.332C80.0267 102.332 78.3278 101.48 77.0107 99.7754C75.7048 98.071 75.0518 95.8464 75.0518 93.1016V92.8691ZM78.123 93.2178C78.123 95.2542 78.5436 96.848 79.3848 97.999C80.2259 99.1501 81.388 99.7256 82.8711 99.7256C84.819 99.7256 86.2412 98.8512 87.1377 97.1025V88.8516C86.2191 87.1582 84.8079 86.3115 82.9043 86.3115C81.3991 86.3115 80.2259 86.8926 79.3848 88.0547C78.5436 89.2168 78.123 90.9378 78.123 93.2178ZM114.514 102C114.337 101.646 114.193 101.015 114.082 100.107C112.654 101.59 110.95 102.332 108.969 102.332C107.198 102.332 105.743 101.834 104.603 100.838C103.474 99.8307 102.909 98.5579 102.909 97.0195C102.909 95.1491 103.618 93.6992 105.034 92.6699C106.462 91.6296 108.465 91.1094 111.044 91.1094H114.032V89.6982C114.032 88.6247 113.711 87.7725 113.069 87.1416C112.427 86.4997 111.481 86.1787 110.23 86.1787C109.135 86.1787 108.216 86.4554 107.475 87.0088C106.733 87.5622 106.362 88.2318 106.362 89.0176H103.274C103.274 88.1211 103.59 87.2578 104.221 86.4277C104.863 85.5866 105.726 84.9225 106.811 84.4355C107.906 83.9486 109.107 83.7051 110.413 83.7051C112.483 83.7051 114.104 84.2253 115.277 85.2656C116.451 86.2949 117.059 87.7171 117.104 89.5322V97.7998C117.104 99.4489 117.314 100.76 117.734 101.734V102H114.514ZM109.417 99.6592C110.38 99.6592 111.293 99.4102 112.156 98.9121C113.02 98.4141 113.645 97.7666 114.032 96.9697V93.2842H111.625C107.862 93.2842 105.98 94.3854 105.98 96.5879C105.98 97.5508 106.301 98.3034 106.943 98.8457C107.585 99.388 108.41 99.6592 109.417 99.6592ZM145.559 93.2178C145.559 95.9626 144.928 98.1706 143.666 99.8418C142.404 101.502 140.711 102.332 138.586 102.332C136.317 102.332 134.563 101.53 133.323 99.9248L133.174 102H130.352V76.5H133.423V86.0127C134.662 84.4743 136.372 83.7051 138.553 83.7051C140.733 83.7051 142.443 84.5296 143.683 86.1787C144.933 87.8278 145.559 90.0856 145.559 92.9521V93.2178ZM142.487 92.8691C142.487 90.7773 142.083 89.1615 141.275 88.0215C140.467 86.8815 139.305 86.3115 137.789 86.3115C135.764 86.3115 134.308 87.2523 133.423 89.1338V96.9033C134.364 98.7848 135.83 99.7256 137.822 99.7256C139.294 99.7256 140.44 99.1556 141.259 98.0156C142.078 96.8757 142.487 95.1602 142.487 92.8691ZM148.63 92.8525C148.63 91.0928 148.973 89.5101 149.659 88.1045C150.356 86.6989 151.319 85.6143 152.548 84.8506C153.787 84.0869 155.199 83.7051 156.781 83.7051C159.227 83.7051 161.203 84.5518 162.708 86.2451C164.224 87.9385 164.982 90.1908 164.982 93.002V93.2178C164.982 94.9665 164.645 96.5381 163.97 97.9326C163.306 99.3161 162.348 100.395 161.098 101.17C159.858 101.945 158.43 102.332 156.814 102.332C154.38 102.332 152.404 101.485 150.888 99.792C149.382 98.0986 148.63 95.8574 148.63 93.0684V92.8525ZM151.718 93.2178C151.718 95.21 152.177 96.8092 153.096 98.0156C154.025 99.222 155.265 99.8252 156.814 99.8252C158.375 99.8252 159.615 99.2165 160.533 97.999C161.452 96.7705 161.911 95.055 161.911 92.8525C161.911 90.8825 161.441 89.2887 160.5 88.0713C159.57 86.8428 158.331 86.2285 156.781 86.2285C155.265 86.2285 154.042 86.8317 153.112 88.0381C152.183 89.2445 151.718 90.971 151.718 93.2178ZM168.021 92.8525C168.021 91.0928 168.364 89.5101 169.05 88.1045C169.747 86.6989 170.71 85.6143 171.938 84.8506C173.178 84.0869 174.589 83.7051 176.172 83.7051C178.618 83.7051 180.593 84.5518 182.099 86.2451C183.615 87.9385 184.373 90.1908 184.373 93.002V93.2178C184.373 94.9665 184.035 96.5381 183.36 97.9326C182.696 99.3161 181.739 100.395 180.488 101.17C179.249 101.945 177.821 102.332 176.205 102.332C173.77 102.332 171.795 101.485 170.278 99.792C168.773 98.0986 168.021 95.8574 168.021 93.0684V92.8525ZM171.108 93.2178C171.108 95.21 171.568 96.8092 172.486 98.0156C173.416 99.222 174.656 99.8252 176.205 99.8252C177.766 99.8252 179.005 99.2165 179.924 97.999C180.842 96.7705 181.302 95.055 181.302 92.8525C181.302 90.8825 180.831 89.2887 179.891 88.0713C178.961 86.8428 177.721 86.2285 176.172 86.2285C174.656 86.2285 173.433 86.8317 172.503 88.0381C171.573 89.2445 171.108 90.971 171.108 93.2178ZM193.238 93.6826L191.312 95.6914V102H188.241V76.5H191.312V91.9229L192.956 89.9473L198.551 84.0371H202.286L195.297 91.541L203.1 102H199.497L193.238 93.6826Z" fill="black" fill-opacity="0.87"/>
<path d="M28.2949 157.371C28.1517 158.888 27.5918 160.073 26.6152 160.926C25.6387 161.772 24.3398 162.195 22.7188 162.195C21.5859 162.195 20.5866 161.928 19.7207 161.395C18.8613 160.854 18.1973 160.089 17.7285 159.1C17.2598 158.11 17.0156 156.961 16.9961 155.652V154.324C16.9961 152.983 17.2337 151.801 17.709 150.779C18.1842 149.757 18.8646 148.969 19.75 148.416C20.6419 147.863 21.6706 147.586 22.8359 147.586C24.4049 147.586 25.668 148.012 26.625 148.865C27.582 149.718 28.1387 150.923 28.2949 152.479H25.834C25.7168 151.456 25.4173 150.721 24.9355 150.271C24.4603 149.816 23.7604 149.588 22.8359 149.588C21.7617 149.588 20.9349 149.982 20.3555 150.77C19.7826 151.551 19.4896 152.7 19.4766 154.217V155.477C19.4766 157.013 19.75 158.185 20.2969 158.992C20.8503 159.799 21.6576 160.203 22.7188 160.203C23.6888 160.203 24.418 159.985 24.9062 159.549C25.3945 159.113 25.7038 158.387 25.834 157.371H28.2949ZM29.9879 156.619C29.9879 155.584 30.193 154.653 30.6031 153.826C31.0133 152.993 31.5895 152.355 32.3316 151.912C33.0738 151.463 33.9267 151.238 34.8902 151.238C36.316 151.238 37.4716 151.697 38.357 152.615C39.249 153.533 39.7307 154.751 39.8023 156.268L39.8121 156.824C39.8121 157.866 39.6103 158.797 39.2066 159.617C38.8095 160.438 38.2366 161.072 37.4879 161.521C36.7457 161.971 35.8863 162.195 34.9098 162.195C33.4189 162.195 32.2242 161.701 31.3258 160.711C30.4339 159.715 29.9879 158.39 29.9879 156.736V156.619ZM32.3609 156.824C32.3609 157.911 32.5855 158.764 33.0348 159.383C33.484 159.995 34.109 160.301 34.9098 160.301C35.7105 160.301 36.3323 159.988 36.775 159.363C37.2242 158.738 37.4488 157.824 37.4488 156.619C37.4488 155.551 37.2177 154.705 36.7555 154.08C36.2997 153.455 35.678 153.143 34.8902 153.143C34.1155 153.143 33.5003 153.452 33.0445 154.07C32.5888 154.682 32.3609 155.6 32.3609 156.824ZM44.2004 151.434L44.2687 152.537C45.0109 151.671 46.0266 151.238 47.3156 151.238C48.7284 151.238 49.6952 151.779 50.216 152.859C50.9842 151.779 52.065 151.238 53.4582 151.238C54.6236 151.238 55.4895 151.561 56.0559 152.205C56.6288 152.85 56.9217 153.8 56.9348 155.057V162H54.5617V155.125C54.5617 154.454 54.4152 153.963 54.1223 153.65C53.8293 153.338 53.3443 153.182 52.6672 153.182C52.1268 153.182 51.6841 153.328 51.3391 153.621C51.0005 153.908 50.7629 154.285 50.6262 154.754L50.6359 162H48.2629V155.047C48.2303 153.803 47.5956 153.182 46.3586 153.182C45.4081 153.182 44.7342 153.569 44.3371 154.344V162H41.9641V151.434H44.2004ZM61.7527 151.434L61.8211 152.537C62.5633 151.671 63.5789 151.238 64.868 151.238C66.2807 151.238 67.2475 151.779 67.7684 152.859C68.5366 151.779 69.6173 151.238 71.0105 151.238C72.1759 151.238 73.0418 151.561 73.6082 152.205C74.1811 152.85 74.4741 153.8 74.4871 155.057V162H72.1141V155.125C72.1141 154.454 71.9676 153.963 71.6746 153.65C71.3816 153.338 70.8966 153.182 70.2195 153.182C69.6792 153.182 69.2365 153.328 68.8914 153.621C68.5529 153.908 68.3152 154.285 68.1785 154.754L68.1883 162H65.8152V155.047C65.7827 153.803 65.1479 153.182 63.9109 153.182C62.9604 153.182 62.2866 153.569 61.8895 154.344V162H59.5164V151.434H61.7527ZM81.727 162.195C80.223 162.195 79.0023 161.723 78.0648 160.779C77.1339 159.829 76.6684 158.566 76.6684 156.99V156.697C76.6684 155.643 76.8702 154.702 77.2738 153.875C77.684 153.042 78.2569 152.394 78.9926 151.932C79.7283 151.469 80.5486 151.238 81.4535 151.238C82.8923 151.238 84.0023 151.697 84.7836 152.615C85.5714 153.533 85.9652 154.832 85.9652 156.512V157.469H79.0609C79.1326 158.341 79.4223 159.031 79.9301 159.539C80.4444 160.047 81.0889 160.301 81.8637 160.301C82.9509 160.301 83.8363 159.861 84.5199 158.982L85.7992 160.203C85.376 160.835 84.8096 161.326 84.1 161.678C83.3969 162.023 82.6059 162.195 81.727 162.195ZM81.4437 153.143C80.7927 153.143 80.2654 153.37 79.8617 153.826C79.4646 154.282 79.2107 154.917 79.1 155.73H83.6215V155.555C83.5694 154.76 83.3578 154.161 82.9867 153.758C82.6156 153.348 82.1013 153.143 81.4437 153.143ZM90.168 151.434L90.2363 152.654C91.0176 151.71 92.043 151.238 93.3125 151.238C95.513 151.238 96.6328 152.498 96.6719 155.018V162H94.2988V155.154C94.2988 154.484 94.1523 153.989 93.8594 153.67C93.5729 153.344 93.1009 153.182 92.4434 153.182C91.4863 153.182 90.7734 153.615 90.3047 154.48V162H87.9316V151.434H90.168ZM102.222 148.865V151.434H104.088V153.191H102.222V159.09C102.222 159.493 102.3 159.786 102.457 159.969C102.619 160.145 102.906 160.232 103.316 160.232C103.589 160.232 103.866 160.2 104.146 160.135V161.971C103.606 162.12 103.085 162.195 102.584 162.195C100.761 162.195 99.8492 161.189 99.8492 159.178V153.191H98.1109V151.434H99.8492V148.865H102.222Z" fill="black" fill-opacity="0.87"/>
<path d="M25.6875 180.391C25.5469 181.594 25.1016 182.523 24.3516 183.18C23.6068 183.831 22.6146 184.156 21.375 184.156C20.0312 184.156 18.9531 183.674 18.1406 182.711C17.3333 181.747 16.9297 180.458 16.9297 178.844V177.75C16.9297 176.693 17.1172 175.763 17.4922 174.961C17.8724 174.159 18.4089 173.544 19.1016 173.117C19.7943 172.685 20.5964 172.469 21.5078 172.469C22.7161 172.469 23.6849 172.807 24.4141 173.484C25.1432 174.156 25.5677 175.089 25.6875 176.281H24.1797C24.0495 175.375 23.7656 174.719 23.3281 174.312C22.8958 173.906 22.2891 173.703 21.5078 173.703C20.5495 173.703 19.7969 174.057 19.25 174.766C18.7083 175.474 18.4375 176.482 18.4375 177.789V178.891C18.4375 180.125 18.6953 181.107 19.2109 181.836C19.7266 182.565 20.4479 182.93 21.375 182.93C22.2083 182.93 22.8464 182.742 23.2891 182.367C23.737 181.987 24.0339 181.328 24.1797 180.391H25.6875ZM32.8844 183.164C32.3219 183.826 31.4964 184.156 30.4078 184.156C29.5068 184.156 28.8193 183.896 28.3453 183.375C27.8766 182.849 27.6396 182.073 27.6344 181.047V175.547H29.0797V181.008C29.0797 182.289 29.6005 182.93 30.6422 182.93C31.7464 182.93 32.4807 182.518 32.8453 181.695V175.547H34.2906V184H32.9156L32.8844 183.164ZM40.7297 176.844C40.5109 176.807 40.274 176.789 40.0187 176.789C39.0708 176.789 38.4276 177.193 38.0891 178V184H36.6437V175.547H38.05L38.0734 176.523C38.5474 175.768 39.2193 175.391 40.0891 175.391C40.3703 175.391 40.5839 175.427 40.7297 175.5V176.844ZM46.3016 176.844C46.0828 176.807 45.8458 176.789 45.5906 176.789C44.6427 176.789 43.9995 177.193 43.6609 178V184H42.2156V175.547H43.6219L43.6453 176.523C44.1193 175.768 44.7911 175.391 45.6609 175.391C45.9422 175.391 46.1557 175.427 46.3016 175.5V176.844ZM51.1391 184.156C49.9932 184.156 49.0609 183.781 48.3422 183.031C47.6234 182.276 47.2641 181.268 47.2641 180.008V179.742C47.2641 178.904 47.4229 178.156 47.7406 177.5C48.0635 176.839 48.5115 176.323 49.0844 175.953C49.6625 175.578 50.2875 175.391 50.9594 175.391C52.0583 175.391 52.9125 175.753 53.5219 176.477C54.1313 177.201 54.4359 178.237 54.4359 179.586V180.188H48.7094C48.7302 181.021 48.9724 181.695 49.4359 182.211C49.9047 182.721 50.4984 182.977 51.2172 182.977C51.7276 182.977 52.1599 182.872 52.5141 182.664C52.8682 182.456 53.1781 182.18 53.4438 181.836L54.3266 182.523C53.6182 183.612 52.5557 184.156 51.1391 184.156ZM50.9594 176.578C50.376 176.578 49.8865 176.792 49.4906 177.219C49.0948 177.641 48.85 178.234 48.7563 179H52.9906V178.891C52.949 178.156 52.751 177.589 52.3969 177.188C52.0427 176.781 51.5635 176.578 50.9594 176.578ZM57.6328 175.547L57.6797 176.609C58.3255 175.797 59.1693 175.391 60.2109 175.391C61.9974 175.391 62.8984 176.398 62.9141 178.414V184H61.4688V178.406C61.4635 177.797 61.3229 177.346 61.0469 177.055C60.776 176.763 60.3516 176.617 59.7734 176.617C59.3047 176.617 58.8932 176.742 58.5391 176.992C58.1849 177.242 57.9089 177.57 57.7109 177.977V184H56.2656V175.547H57.6328ZM67.2047 173.5V175.547H68.7828V176.664H67.2047V181.906C67.2047 182.245 67.275 182.5 67.4156 182.672C67.5563 182.839 67.7958 182.922 68.1344 182.922C68.301 182.922 68.5302 182.891 68.8219 182.828V184C68.4417 184.104 68.0719 184.156 67.7125 184.156C67.0667 184.156 66.5797 183.961 66.2516 183.57C65.9234 183.18 65.7594 182.625 65.7594 181.906V176.664H64.2203V175.547H65.7594V173.5H67.2047ZM72.1984 184H70.7531V172H72.1984V184ZM77.4344 181.883L79.4031 175.547H80.95L77.5516 185.305C77.0255 186.711 76.1896 187.414 75.0438 187.414L74.7703 187.391L74.2313 187.289V186.117L74.6219 186.148C75.1115 186.148 75.4917 186.049 75.7625 185.852C76.0385 185.654 76.2651 185.292 76.4422 184.766L76.7625 183.906L73.7469 175.547H75.325L77.4344 181.883ZM90.6016 176.844C90.3828 176.807 90.1458 176.789 89.8906 176.789C88.9427 176.789 88.2995 177.193 87.9609 178V184H86.5156V175.547H87.9219L87.9453 176.523C88.4193 175.768 89.0911 175.391 89.9609 175.391C90.2422 175.391 90.4557 175.427 90.6016 175.5V176.844ZM95.4391 184.156C94.2932 184.156 93.3609 183.781 92.6422 183.031C91.9234 182.276 91.5641 181.268 91.5641 180.008V179.742C91.5641 178.904 91.7229 178.156 92.0406 177.5C92.3635 176.839 92.8115 176.323 93.3844 175.953C93.9625 175.578 94.5875 175.391 95.2594 175.391C96.3583 175.391 97.2125 175.753 97.8219 176.477C98.4313 177.201 98.7359 178.237 98.7359 179.586V180.188H93.0094C93.0302 181.021 93.2724 181.695 93.7359 182.211C94.2047 182.721 94.7984 182.977 95.5172 182.977C96.0276 182.977 96.4599 182.872 96.8141 182.664C97.1682 182.456 97.4781 182.18 97.7438 181.836L98.6266 182.523C97.9182 183.612 96.8557 184.156 95.4391 184.156ZM95.2594 176.578C94.676 176.578 94.1865 176.792 93.7906 177.219C93.3948 177.641 93.15 178.234 93.0563 179H97.2906V178.891C97.249 178.156 97.051 177.589 96.6969 177.188C96.3427 176.781 95.8635 176.578 95.2594 176.578ZM105.784 184C105.701 183.833 105.633 183.536 105.581 183.109C104.909 183.807 104.107 184.156 103.175 184.156C102.342 184.156 101.657 183.922 101.12 183.453C100.589 182.979 100.323 182.38 100.323 181.656C100.323 180.776 100.657 180.094 101.323 179.609C101.995 179.12 102.938 178.875 104.152 178.875H105.558V178.211C105.558 177.706 105.407 177.305 105.105 177.008C104.803 176.706 104.357 176.555 103.769 176.555C103.253 176.555 102.821 176.685 102.472 176.945C102.123 177.206 101.948 177.521 101.948 177.891H100.495C100.495 177.469 100.644 177.062 100.941 176.672C101.243 176.276 101.649 175.964 102.159 175.734C102.675 175.505 103.24 175.391 103.855 175.391C104.829 175.391 105.592 175.635 106.144 176.125C106.696 176.609 106.982 177.279 107.003 178.133V182.023C107.003 182.799 107.102 183.417 107.3 183.875V184H105.784ZM103.386 182.898C103.839 182.898 104.269 182.781 104.675 182.547C105.081 182.312 105.376 182.008 105.558 181.633V179.898H104.425C102.654 179.898 101.769 180.417 101.769 181.453C101.769 181.906 101.92 182.26 102.222 182.516C102.524 182.771 102.912 182.898 103.386 182.898ZM109.067 179.703C109.067 178.406 109.374 177.365 109.989 176.578C110.604 175.786 111.408 175.391 112.403 175.391C113.393 175.391 114.177 175.729 114.755 176.406V172H116.2V184H114.872L114.802 183.094C114.223 183.802 113.419 184.156 112.387 184.156C111.408 184.156 110.609 183.755 109.989 182.953C109.374 182.151 109.067 181.104 109.067 179.812V179.703ZM110.512 179.867C110.512 180.826 110.71 181.576 111.106 182.117C111.502 182.659 112.049 182.93 112.747 182.93C113.664 182.93 114.333 182.518 114.755 181.695V177.812C114.322 177.016 113.658 176.617 112.762 176.617C112.054 176.617 111.502 176.891 111.106 177.438C110.71 177.984 110.512 178.794 110.512 179.867ZM120.17 184H118.725V175.547H120.17V184ZM118.608 173.305C118.608 173.07 118.678 172.872 118.819 172.711C118.965 172.549 119.178 172.469 119.459 172.469C119.741 172.469 119.954 172.549 120.1 172.711C120.246 172.872 120.319 173.07 120.319 173.305C120.319 173.539 120.246 173.734 120.1 173.891C119.954 174.047 119.741 174.125 119.459 174.125C119.178 174.125 118.965 174.047 118.819 173.891C118.678 173.734 118.608 173.539 118.608 173.305ZM124.008 175.547L124.055 176.609C124.701 175.797 125.544 175.391 126.586 175.391C128.372 175.391 129.273 176.398 129.289 178.414V184H127.844V178.406C127.839 177.797 127.698 177.346 127.422 177.055C127.151 176.763 126.727 176.617 126.148 176.617C125.68 176.617 125.268 176.742 124.914 176.992C124.56 177.242 124.284 177.57 124.086 177.977V184H122.641V175.547H124.008ZM131.275 179.703C131.275 178.385 131.58 177.339 132.189 176.562C132.798 175.781 133.606 175.391 134.611 175.391C135.642 175.391 136.447 175.755 137.025 176.484L137.095 175.547H138.416V183.797C138.416 184.891 138.09 185.753 137.439 186.383C136.793 187.013 135.923 187.328 134.83 187.328C134.22 187.328 133.624 187.198 133.041 186.938C132.457 186.677 132.012 186.32 131.705 185.867L132.455 185C133.074 185.766 133.832 186.148 134.728 186.148C135.431 186.148 135.978 185.951 136.369 185.555C136.765 185.159 136.963 184.602 136.963 183.883V183.156C136.384 183.823 135.595 184.156 134.595 184.156C133.606 184.156 132.804 183.758 132.189 182.961C131.58 182.164 131.275 181.078 131.275 179.703ZM132.728 179.867C132.728 180.82 132.923 181.57 133.314 182.117C133.705 182.659 134.252 182.93 134.955 182.93C135.866 182.93 136.535 182.516 136.963 181.688V177.828C136.52 177.021 135.856 176.617 134.97 176.617C134.267 176.617 133.718 176.891 133.322 177.438C132.926 177.984 132.728 178.794 132.728 179.867ZM152.645 173.859H148.989V184H147.497V173.859H143.848V172.625H152.645V173.859ZM155.702 176.57C156.342 175.784 157.176 175.391 158.202 175.391C159.988 175.391 160.889 176.398 160.905 178.414V184H159.459V178.406C159.454 177.797 159.314 177.346 159.038 177.055C158.767 176.763 158.342 176.617 157.764 176.617C157.295 176.617 156.884 176.742 156.53 176.992C156.176 177.242 155.899 177.57 155.702 177.977V184H154.256V172H155.702V176.57ZM166.727 184.156C165.581 184.156 164.648 183.781 163.93 183.031C163.211 182.276 162.852 181.268 162.852 180.008V179.742C162.852 178.904 163.01 178.156 163.328 177.5C163.651 176.839 164.099 176.323 164.672 175.953C165.25 175.578 165.875 175.391 166.547 175.391C167.646 175.391 168.5 175.753 169.109 176.477C169.719 177.201 170.023 178.237 170.023 179.586V180.188H164.297C164.318 181.021 164.56 181.695 165.023 182.211C165.492 182.721 166.086 182.977 166.805 182.977C167.315 182.977 167.747 182.872 168.102 182.664C168.456 182.456 168.766 182.18 169.031 181.836L169.914 182.523C169.206 183.612 168.143 184.156 166.727 184.156ZM166.547 176.578C165.964 176.578 165.474 176.792 165.078 177.219C164.682 177.641 164.438 178.234 164.344 179H168.578V178.891C168.536 178.156 168.339 177.589 167.984 177.188C167.63 176.781 167.151 176.578 166.547 176.578ZM182.628 178.742H177.698V182.773H183.425V184H176.198V172.625H183.347V173.859H177.698V177.516H182.628V178.742ZM186.575 175.547L186.614 176.484C187.234 175.755 188.07 175.391 189.122 175.391C190.304 175.391 191.109 175.844 191.536 176.75C191.817 176.344 192.182 176.016 192.63 175.766C193.083 175.516 193.617 175.391 194.231 175.391C196.085 175.391 197.028 176.372 197.059 178.336V184H195.614V178.422C195.614 177.818 195.476 177.367 195.2 177.07C194.924 176.768 194.46 176.617 193.809 176.617C193.273 176.617 192.828 176.779 192.473 177.102C192.119 177.419 191.914 177.849 191.856 178.391V184H190.403V178.461C190.403 177.232 189.802 176.617 188.598 176.617C187.651 176.617 187.002 177.021 186.653 177.828V184H185.208V175.547H186.575ZM202.905 184.156C201.759 184.156 200.827 183.781 200.108 183.031C199.389 182.276 199.03 181.268 199.03 180.008V179.742C199.03 178.904 199.189 178.156 199.506 177.5C199.829 176.839 200.277 176.323 200.85 175.953C201.428 175.578 202.053 175.391 202.725 175.391C203.824 175.391 204.678 175.753 205.288 176.477C205.897 177.201 206.202 178.237 206.202 179.586V180.188H200.475C200.496 181.021 200.738 181.695 201.202 182.211C201.67 182.721 202.264 182.977 202.983 182.977C203.493 182.977 203.926 182.872 204.28 182.664C204.634 182.456 204.944 182.18 205.209 181.836L206.092 182.523C205.384 183.612 204.321 184.156 202.905 184.156ZM202.725 176.578C202.142 176.578 201.652 176.792 201.256 177.219C200.86 177.641 200.616 178.234 200.522 179H204.756V178.891C204.715 178.156 204.517 177.589 204.163 177.188C203.808 176.781 203.329 176.578 202.725 176.578ZM212.117 176.844C211.898 176.807 211.661 176.789 211.406 176.789C210.458 176.789 209.815 177.193 209.477 178V184H208.031V175.547H209.438L209.461 176.523C209.935 175.768 210.607 175.391 211.477 175.391C211.758 175.391 211.971 175.427 212.117 175.5V176.844ZM218.509 184C218.426 183.833 218.358 183.536 218.306 183.109C217.634 183.807 216.832 184.156 215.9 184.156C215.067 184.156 214.382 183.922 213.845 183.453C213.314 182.979 213.048 182.38 213.048 181.656C213.048 180.776 213.382 180.094 214.048 179.609C214.72 179.12 215.663 178.875 216.877 178.875H218.283V178.211C218.283 177.706 218.132 177.305 217.83 177.008C217.528 176.706 217.082 176.555 216.494 176.555C215.978 176.555 215.546 176.685 215.197 176.945C214.848 177.206 214.673 177.521 214.673 177.891H213.22C213.22 177.469 213.369 177.062 213.666 176.672C213.968 176.276 214.374 175.964 214.884 175.734C215.4 175.505 215.965 175.391 216.58 175.391C217.554 175.391 218.317 175.635 218.869 176.125C219.421 176.609 219.707 177.279 219.728 178.133V182.023C219.728 182.799 219.827 183.417 220.025 183.875V184H218.509ZM216.111 182.898C216.564 182.898 216.994 182.781 217.4 182.547C217.806 182.312 218.101 182.008 218.283 181.633V179.898H217.15C215.379 179.898 214.494 180.417 214.494 181.453C214.494 181.906 214.645 182.26 214.947 182.516C215.249 182.771 215.637 182.898 216.111 182.898ZM223.714 184H222.269V172H223.714V184ZM225.833 179.703C225.833 178.406 226.14 177.365 226.755 176.578C227.369 175.786 228.174 175.391 229.169 175.391C230.158 175.391 230.942 175.729 231.52 176.406V172H232.966V184H231.637L231.567 183.094C230.989 183.802 230.184 184.156 229.153 184.156C228.174 184.156 227.374 183.755 226.755 182.953C226.14 182.151 225.833 181.104 225.833 179.812V179.703ZM227.278 179.867C227.278 180.826 227.476 181.576 227.872 182.117C228.268 182.659 228.815 182.93 229.512 182.93C230.429 182.93 231.098 182.518 231.52 181.695V177.812C231.088 177.016 230.424 176.617 229.528 176.617C228.82 176.617 228.268 176.891 227.872 177.438C227.476 177.984 227.278 178.794 227.278 179.867ZM241.211 179.547V184H239.711V172.625H243.906C245.151 172.625 246.125 172.943 246.828 173.578C247.536 174.214 247.891 175.055 247.891 176.102C247.891 177.206 247.544 178.057 246.852 178.656C246.164 179.25 245.177 179.547 243.891 179.547H241.211ZM241.211 178.32H243.906C244.708 178.32 245.323 178.133 245.75 177.758C246.177 177.378 246.391 176.831 246.391 176.117C246.391 175.44 246.177 174.898 245.75 174.492C245.323 174.086 244.737 173.875 243.992 173.859H241.211V178.32ZM253.814 176.844C253.595 176.807 253.358 176.789 253.103 176.789C252.155 176.789 251.512 177.193 251.173 178V184H249.728V175.547H251.134L251.158 176.523C251.632 175.768 252.304 175.391 253.173 175.391C253.455 175.391 253.668 175.427 253.814 175.5V176.844ZM256.87 184H255.425V175.547H256.87V184ZM255.308 173.305C255.308 173.07 255.378 172.872 255.519 172.711C255.665 172.549 255.878 172.469 256.159 172.469C256.441 172.469 256.654 172.549 256.8 172.711C256.946 172.872 257.019 173.07 257.019 173.305C257.019 173.539 256.946 173.734 256.8 173.891C256.654 174.047 256.441 174.125 256.159 174.125C255.878 174.125 255.665 174.047 255.519 173.891C255.378 173.734 255.308 173.539 255.308 173.305ZM260.708 175.547L260.755 176.609C261.401 175.797 262.244 175.391 263.286 175.391C265.072 175.391 265.973 176.398 265.989 178.414V184H264.544V178.406C264.539 177.797 264.398 177.346 264.122 177.055C263.851 176.763 263.427 176.617 262.848 176.617C262.38 176.617 261.968 176.742 261.614 176.992C261.26 177.242 260.984 177.57 260.786 177.977V184H259.341V175.547H260.708ZM271.709 182.977C272.225 182.977 272.676 182.82 273.061 182.508C273.446 182.195 273.66 181.805 273.702 181.336H275.069C275.043 181.82 274.876 182.281 274.569 182.719C274.261 183.156 273.85 183.505 273.334 183.766C272.824 184.026 272.282 184.156 271.709 184.156C270.558 184.156 269.642 183.773 268.959 183.008C268.282 182.237 267.944 181.185 267.944 179.852V179.609C267.944 178.786 268.095 178.055 268.397 177.414C268.699 176.773 269.131 176.276 269.694 175.922C270.261 175.568 270.931 175.391 271.702 175.391C272.649 175.391 273.436 175.674 274.061 176.242C274.691 176.81 275.027 177.547 275.069 178.453H273.702C273.66 177.906 273.452 177.458 273.077 177.109C272.707 176.755 272.248 176.578 271.702 176.578C270.967 176.578 270.397 176.844 269.991 177.375C269.59 177.901 269.389 178.664 269.389 179.664V179.938C269.389 180.911 269.59 181.661 269.991 182.188C270.392 182.714 270.965 182.977 271.709 182.977ZM280.352 184.156C279.206 184.156 278.273 183.781 277.555 183.031C276.836 182.276 276.477 181.268 276.477 180.008V179.742C276.477 178.904 276.635 178.156 276.953 177.5C277.276 176.839 277.724 176.323 278.297 175.953C278.875 175.578 279.5 175.391 280.172 175.391C281.271 175.391 282.125 175.753 282.734 176.477C283.344 177.201 283.648 178.237 283.648 179.586V180.188H277.922C277.943 181.021 278.185 181.695 278.648 182.211C279.117 182.721 279.711 182.977 280.43 182.977C280.94 182.977 281.372 182.872 281.727 182.664C282.081 182.456 282.391 182.18 282.656 181.836L283.539 182.523C282.831 183.612 281.768 184.156 280.352 184.156ZM280.172 176.578C279.589 176.578 279.099 176.792 278.703 177.219C278.307 177.641 278.062 178.234 277.969 179H282.203V178.891C282.161 178.156 281.964 177.589 281.609 177.188C281.255 176.781 280.776 176.578 280.172 176.578ZM290.4 181.758C290.4 181.367 290.252 181.065 289.955 180.852C289.663 180.633 289.15 180.445 288.416 180.289C287.686 180.133 287.106 179.945 286.673 179.727C286.246 179.508 285.929 179.247 285.72 178.945C285.517 178.643 285.416 178.284 285.416 177.867C285.416 177.174 285.707 176.589 286.291 176.109C286.879 175.63 287.629 175.391 288.541 175.391C289.499 175.391 290.275 175.638 290.869 176.133C291.468 176.628 291.767 177.26 291.767 178.031H290.314C290.314 177.635 290.145 177.294 289.806 177.008C289.473 176.721 289.051 176.578 288.541 176.578C288.015 176.578 287.603 176.693 287.306 176.922C287.009 177.151 286.861 177.451 286.861 177.82C286.861 178.169 286.999 178.432 287.275 178.609C287.551 178.786 288.048 178.956 288.767 179.117C289.491 179.279 290.077 179.471 290.525 179.695C290.973 179.919 291.304 180.19 291.517 180.508C291.736 180.82 291.845 181.203 291.845 181.656C291.845 182.411 291.543 183.018 290.939 183.477C290.335 183.93 289.551 184.156 288.587 184.156C287.91 184.156 287.311 184.036 286.791 183.797C286.27 183.557 285.861 183.224 285.564 182.797C285.272 182.365 285.127 181.898 285.127 181.398H286.572C286.598 181.883 286.791 182.268 287.15 182.555C287.515 182.836 287.994 182.977 288.587 182.977C289.134 182.977 289.572 182.867 289.9 182.648C290.233 182.424 290.4 182.128 290.4 181.758ZM298.8 181.758C298.8 181.367 298.652 181.065 298.355 180.852C298.063 180.633 297.55 180.445 296.816 180.289C296.086 180.133 295.506 179.945 295.073 179.727C294.646 179.508 294.329 179.247 294.12 178.945C293.917 178.643 293.816 178.284 293.816 177.867C293.816 177.174 294.107 176.589 294.691 176.109C295.279 175.63 296.029 175.391 296.941 175.391C297.899 175.391 298.675 175.638 299.269 176.133C299.868 176.628 300.167 177.26 300.167 178.031H298.714C298.714 177.635 298.545 177.294 298.206 177.008C297.873 176.721 297.451 176.578 296.941 176.578C296.415 176.578 296.003 176.693 295.706 176.922C295.409 177.151 295.261 177.451 295.261 177.82C295.261 178.169 295.399 178.432 295.675 178.609C295.951 178.786 296.448 178.956 297.167 179.117C297.891 179.279 298.477 179.471 298.925 179.695C299.373 179.919 299.704 180.19 299.917 180.508C300.136 180.82 300.245 181.203 300.245 181.656C300.245 182.411 299.943 183.018 299.339 183.477C298.735 183.93 297.951 184.156 296.987 184.156C296.31 184.156 295.711 184.036 295.191 183.797C294.67 183.557 294.261 183.224 293.964 182.797C293.672 182.365 293.527 181.898 293.527 181.398H294.972C294.998 181.883 295.191 182.268 295.55 182.555C295.915 182.836 296.394 182.977 296.987 182.977C297.534 182.977 297.972 182.867 298.3 182.648C298.633 182.424 298.8 182.128 298.8 181.758Z" fill="black" fill-opacity="0.87"/>
<path d="M19.5039 119.197C18.5391 118.92 17.8359 118.58 17.3945 118.178C16.957 117.771 16.7383 117.271 16.7383 116.678C16.7383 116.006 17.0059 115.451 17.541 115.014C18.0801 114.572 18.7793 114.352 19.6387 114.352C20.2246 114.352 20.7461 114.465 21.2031 114.691C21.6641 114.918 22.0195 115.23 22.2695 115.629C22.5234 116.027 22.6504 116.463 22.6504 116.936H21.5195C21.5195 116.42 21.3555 116.016 21.0273 115.723C20.6992 115.426 20.2363 115.277 19.6387 115.277C19.084 115.277 18.6504 115.4 18.3379 115.646C18.0293 115.889 17.875 116.227 17.875 116.66C17.875 117.008 18.0215 117.303 18.3145 117.545C18.6113 117.783 19.1133 118.002 19.8203 118.201C20.5312 118.4 21.0859 118.621 21.4844 118.863C21.8867 119.102 22.1836 119.381 22.375 119.701C22.5703 120.021 22.668 120.398 22.668 120.832C22.668 121.523 22.3984 122.078 21.8594 122.496C21.3203 122.91 20.5996 123.117 19.6973 123.117C19.1113 123.117 18.5645 123.006 18.0566 122.783C17.5488 122.557 17.1562 122.248 16.8789 121.857C16.6055 121.467 16.4688 121.023 16.4688 120.527H17.5996C17.5996 121.043 17.7891 121.451 18.168 121.752C18.5508 122.049 19.0605 122.197 19.6973 122.197C20.291 122.197 20.7461 122.076 21.0625 121.834C21.3789 121.592 21.5371 121.262 21.5371 120.844C21.5371 120.426 21.3906 120.104 21.0977 119.877C20.8047 119.646 20.2734 119.42 19.5039 119.197ZM24.0582 119.771C24.0582 119.15 24.1793 118.592 24.4215 118.096C24.6676 117.6 25.0074 117.217 25.441 116.947C25.8785 116.678 26.3766 116.543 26.9352 116.543C27.7984 116.543 28.4957 116.842 29.027 117.439C29.5621 118.037 29.8297 118.832 29.8297 119.824V119.9C29.8297 120.518 29.7105 121.072 29.4723 121.564C29.2379 122.053 28.9 122.434 28.4586 122.707C28.0211 122.98 27.5172 123.117 26.9469 123.117C26.0875 123.117 25.3902 122.818 24.8551 122.221C24.3238 121.623 24.0582 120.832 24.0582 119.848V119.771ZM25.148 119.9C25.148 120.604 25.3102 121.168 25.6344 121.594C25.9625 122.02 26.4 122.232 26.9469 122.232C27.4977 122.232 27.9352 122.018 28.2594 121.588C28.5836 121.154 28.7457 120.549 28.7457 119.771C28.7457 119.076 28.5797 118.514 28.2477 118.084C27.9195 117.65 27.482 117.434 26.9352 117.434C26.4 117.434 25.9684 117.646 25.6402 118.072C25.3121 118.498 25.148 119.107 25.148 119.9ZM36.9445 119.9C36.9445 120.865 36.7238 121.643 36.2824 122.232C35.841 122.822 35.2434 123.117 34.4895 123.117C33.7199 123.117 33.1145 122.873 32.673 122.385V125.438H31.5891V116.66H32.5793L32.632 117.363C33.0734 116.816 33.6867 116.543 34.4719 116.543C35.2336 116.543 35.8352 116.83 36.2766 117.404C36.7219 117.979 36.9445 118.777 36.9445 119.801V119.9ZM35.8605 119.777C35.8605 119.062 35.7082 118.498 35.4035 118.084C35.0988 117.67 34.6809 117.463 34.1496 117.463C33.4934 117.463 33.0012 117.754 32.673 118.336V121.365C32.9973 121.943 33.4934 122.232 34.1613 122.232C34.6809 122.232 35.093 122.027 35.3977 121.617C35.7063 121.203 35.8605 120.59 35.8605 119.777ZM39.8113 117.428C40.2918 116.838 40.9168 116.543 41.6863 116.543C43.0262 116.543 43.702 117.299 43.7137 118.811V123H42.6297V118.805C42.6258 118.348 42.5203 118.01 42.3133 117.791C42.1102 117.572 41.7918 117.463 41.3582 117.463C41.0066 117.463 40.698 117.557 40.4324 117.744C40.1668 117.932 39.9598 118.178 39.8113 118.482V123H38.7273V114H39.8113V117.428ZM46.9145 123H45.8305V116.66H46.9145V123ZM45.7426 114.979C45.7426 114.803 45.7953 114.654 45.9008 114.533C46.0102 114.412 46.1703 114.352 46.3813 114.352C46.5922 114.352 46.7523 114.412 46.8617 114.533C46.9711 114.654 47.0258 114.803 47.0258 114.979C47.0258 115.154 46.9711 115.301 46.8617 115.418C46.7523 115.535 46.5922 115.594 46.3813 115.594C46.1703 115.594 46.0102 115.535 45.9008 115.418C45.7953 115.301 45.7426 115.154 45.7426 114.979ZM52.9688 123C52.9062 122.875 52.8555 122.652 52.8164 122.332C52.3125 122.855 51.7109 123.117 51.0117 123.117C50.3867 123.117 49.873 122.941 49.4707 122.59C49.0723 122.234 48.873 121.785 48.873 121.242C48.873 120.582 49.123 120.07 49.623 119.707C50.127 119.34 50.834 119.156 51.7441 119.156H52.7988V118.658C52.7988 118.279 52.6855 117.979 52.459 117.756C52.2324 117.529 51.8984 117.416 51.457 117.416C51.0703 117.416 50.7461 117.514 50.4844 117.709C50.2227 117.904 50.0918 118.141 50.0918 118.418H49.002C49.002 118.102 49.1133 117.797 49.3359 117.504C49.5625 117.207 49.8672 116.973 50.25 116.801C50.6367 116.629 51.0605 116.543 51.5215 116.543C52.252 116.543 52.8242 116.727 53.2383 117.094C53.6523 117.457 53.8672 117.959 53.8828 118.6V121.518C53.8828 122.1 53.957 122.562 54.1055 122.906V123H52.9688ZM51.1699 122.174C51.5098 122.174 51.832 122.086 52.1367 121.91C52.4414 121.734 52.6621 121.506 52.7988 121.225V119.924H51.9492C50.6211 119.924 49.957 120.312 49.957 121.09C49.957 121.43 50.0703 121.695 50.2969 121.887C50.5234 122.078 50.8145 122.174 51.1699 122.174ZM63.2727 123C63.2102 122.875 63.1594 122.652 63.1203 122.332C62.6164 122.855 62.0148 123.117 61.3156 123.117C60.6906 123.117 60.177 122.941 59.7746 122.59C59.3762 122.234 59.177 121.785 59.177 121.242C59.177 120.582 59.427 120.07 59.927 119.707C60.4309 119.34 61.1379 119.156 62.048 119.156H63.1027V118.658C63.1027 118.279 62.9895 117.979 62.7629 117.756C62.5363 117.529 62.2023 117.416 61.7609 117.416C61.3742 117.416 61.05 117.514 60.7883 117.709C60.5266 117.904 60.3957 118.141 60.3957 118.418H59.3059C59.3059 118.102 59.4172 117.797 59.6398 117.504C59.8664 117.207 60.1711 116.973 60.5539 116.801C60.9406 116.629 61.3645 116.543 61.8254 116.543C62.5559 116.543 63.1281 116.727 63.5422 117.094C63.9562 117.457 64.1711 117.959 64.1867 118.6V121.518C64.1867 122.1 64.2609 122.562 64.4094 122.906V123H63.2727ZM61.4738 122.174C61.8137 122.174 62.1359 122.086 62.4406 121.91C62.7453 121.734 62.966 121.506 63.1027 121.225V119.924H62.2531C60.925 119.924 60.2609 120.312 60.2609 121.09C60.2609 121.43 60.3742 121.695 60.6008 121.887C60.8273 122.078 61.1184 122.174 61.4738 122.174ZM66.0223 119.777C66.0223 118.805 66.2527 118.023 66.7137 117.434C67.1746 116.84 67.7781 116.543 68.5242 116.543C69.2664 116.543 69.8543 116.797 70.2879 117.305V114H71.3719V123H70.3758L70.323 122.32C69.8895 122.852 69.2859 123.117 68.5125 123.117C67.7781 123.117 67.1785 122.816 66.7137 122.215C66.2527 121.613 66.0223 120.828 66.0223 119.859V119.777ZM67.1063 119.9C67.1063 120.619 67.2547 121.182 67.5516 121.588C67.8484 121.994 68.2586 122.197 68.782 122.197C69.4695 122.197 69.9715 121.889 70.2879 121.271V118.359C69.9637 117.762 69.4656 117.463 68.7938 117.463C68.2625 117.463 67.8484 117.668 67.5516 118.078C67.2547 118.488 67.1063 119.096 67.1063 119.9ZM73.1957 119.777C73.1957 118.805 73.4262 118.023 73.8871 117.434C74.348 116.84 74.9516 116.543 75.6977 116.543C76.4398 116.543 77.0277 116.797 77.4613 117.305V114H78.5453V123H77.5492L77.4965 122.32C77.0629 122.852 76.4594 123.117 75.6859 123.117C74.9516 123.117 74.352 122.816 73.8871 122.215C73.4262 121.613 73.1957 120.828 73.1957 119.859V119.777ZM74.2797 119.9C74.2797 120.619 74.4281 121.182 74.725 121.588C75.0219 121.994 75.432 122.197 75.9555 122.197C76.643 122.197 77.1449 121.889 77.4613 121.271V118.359C77.1371 117.762 76.6391 117.463 75.9672 117.463C75.4359 117.463 75.0219 117.668 74.725 118.078C74.4281 118.488 74.2797 119.096 74.2797 119.9ZM83.2637 123.117C82.4043 123.117 81.7051 122.836 81.166 122.273C80.627 121.707 80.3574 120.951 80.3574 120.006V119.807C80.3574 119.178 80.4766 118.617 80.7148 118.125C80.957 117.629 81.293 117.242 81.7227 116.965C82.1562 116.684 82.625 116.543 83.1289 116.543C83.9531 116.543 84.5938 116.814 85.0508 117.357C85.5078 117.9 85.7363 118.678 85.7363 119.689V120.141H81.4414C81.457 120.766 81.6387 121.271 81.9863 121.658C82.3379 122.041 82.7832 122.232 83.3223 122.232C83.7051 122.232 84.0293 122.154 84.2949 121.998C84.5605 121.842 84.793 121.635 84.9922 121.377L85.6543 121.893C85.123 122.709 84.3262 123.117 83.2637 123.117ZM83.1289 117.434C82.6914 117.434 82.3242 117.594 82.0273 117.914C81.7305 118.23 81.5469 118.676 81.4766 119.25H84.6523V119.168C84.6211 118.617 84.4727 118.191 84.207 117.891C83.9414 117.586 83.582 117.434 83.1289 117.434ZM87.1324 119.777C87.1324 118.805 87.3629 118.023 87.8238 117.434C88.2848 116.84 88.8883 116.543 89.6344 116.543C90.3766 116.543 90.9645 116.797 91.398 117.305V114H92.482V123H91.4859L91.4332 122.32C90.9996 122.852 90.3961 123.117 89.6227 123.117C88.8883 123.117 88.2887 122.816 87.8238 122.215C87.3629 121.613 87.1324 120.828 87.1324 119.859V119.777ZM88.2164 119.9C88.2164 120.619 88.3648 121.182 88.6617 121.588C88.9586 121.994 89.3688 122.197 89.8922 122.197C90.5797 122.197 91.0816 121.889 91.398 121.271V118.359C91.0738 117.762 90.5758 117.463 89.9039 117.463C89.3727 117.463 88.9586 117.668 88.6617 118.078C88.3648 118.488 88.2164 119.096 88.2164 119.9ZM97.659 119.771C97.659 119.15 97.7801 118.592 98.0223 118.096C98.2684 117.6 98.6082 117.217 99.0418 116.947C99.4793 116.678 99.9773 116.543 100.536 116.543C101.399 116.543 102.096 116.842 102.628 117.439C103.163 118.037 103.43 118.832 103.43 119.824V119.9C103.43 120.518 103.311 121.072 103.073 121.564C102.839 122.053 102.501 122.434 102.059 122.707C101.622 122.98 101.118 123.117 100.548 123.117C99.6883 123.117 98.991 122.818 98.4559 122.221C97.9246 121.623 97.659 120.832 97.659 119.848V119.771ZM98.7488 119.9C98.7488 120.604 98.9109 121.168 99.2352 121.594C99.5633 122.02 100.001 122.232 100.548 122.232C101.098 122.232 101.536 122.018 101.86 121.588C102.184 121.154 102.346 120.549 102.346 119.771C102.346 119.076 102.18 118.514 101.848 118.084C101.52 117.65 101.083 117.434 100.536 117.434C100.001 117.434 99.5691 117.646 99.241 118.072C98.9129 118.498 98.7488 119.107 98.7488 119.9ZM106.215 116.66L106.25 117.457C106.735 116.848 107.368 116.543 108.149 116.543C109.489 116.543 110.164 117.299 110.176 118.811V123H109.092V118.805C109.088 118.348 108.983 118.01 108.776 117.791C108.573 117.572 108.254 117.463 107.821 117.463C107.469 117.463 107.161 117.557 106.895 117.744C106.629 117.932 106.422 118.178 106.274 118.482V123H105.19V116.66H106.215ZM120.463 119.232H116.882V123H115.757V114.469H121.043V115.395H116.882V118.312H120.463V119.232ZM125.122 123.117C124.263 123.117 123.564 122.836 123.025 122.273C122.486 121.707 122.216 120.951 122.216 120.006V119.807C122.216 119.178 122.335 118.617 122.573 118.125C122.816 117.629 123.152 117.242 123.581 116.965C124.015 116.684 124.484 116.543 124.988 116.543C125.812 116.543 126.452 116.814 126.909 117.357C127.366 117.9 127.595 118.678 127.595 119.689V120.141H123.3C123.316 120.766 123.497 121.271 123.845 121.658C124.196 122.041 124.642 122.232 125.181 122.232C125.564 122.232 125.888 122.154 126.154 121.998C126.419 121.842 126.652 121.635 126.851 121.377L127.513 121.893C126.982 122.709 126.185 123.117 125.122 123.117ZM124.988 117.434C124.55 117.434 124.183 117.594 123.886 117.914C123.589 118.23 123.405 118.676 123.335 119.25H126.511V119.168C126.48 118.617 126.331 118.191 126.066 117.891C125.8 117.586 125.441 117.434 124.988 117.434ZM134.622 119.9C134.622 120.869 134.399 121.648 133.954 122.238C133.509 122.824 132.911 123.117 132.161 123.117C131.36 123.117 130.741 122.834 130.304 122.268L130.251 123H129.255V114H130.339V117.357C130.776 116.814 131.38 116.543 132.149 116.543C132.919 116.543 133.522 116.834 133.96 117.416C134.401 117.998 134.622 118.795 134.622 119.807V119.9ZM133.538 119.777C133.538 119.039 133.395 118.469 133.11 118.066C132.825 117.664 132.415 117.463 131.88 117.463C131.165 117.463 130.651 117.795 130.339 118.459V121.201C130.671 121.865 131.188 122.197 131.891 122.197C132.411 122.197 132.815 121.996 133.104 121.594C133.393 121.191 133.538 120.586 133.538 119.777ZM145.248 123H139.658V122.221L142.611 118.939C143.049 118.443 143.35 118.041 143.514 117.732C143.682 117.42 143.766 117.098 143.766 116.766C143.766 116.32 143.631 115.955 143.361 115.67C143.092 115.385 142.732 115.242 142.283 115.242C141.744 115.242 141.324 115.396 141.023 115.705C140.727 116.01 140.578 116.436 140.578 116.982H139.494C139.494 116.197 139.746 115.562 140.25 115.078C140.758 114.594 141.436 114.352 142.283 114.352C143.076 114.352 143.703 114.561 144.164 114.979C144.625 115.393 144.855 115.945 144.855 116.637C144.855 117.477 144.32 118.477 143.25 119.637L140.965 122.115H145.248V123ZM151.05 114.463V115.383H150.851C150.007 115.398 149.336 115.648 148.836 116.133C148.336 116.617 148.046 117.299 147.968 118.178C148.418 117.662 149.031 117.404 149.808 117.404C150.55 117.404 151.142 117.666 151.584 118.189C152.029 118.713 152.252 119.389 152.252 120.217C152.252 121.096 152.011 121.799 151.531 122.326C151.054 122.854 150.414 123.117 149.609 123.117C148.793 123.117 148.13 122.805 147.623 122.18C147.115 121.551 146.861 120.742 146.861 119.754V119.338C146.861 117.768 147.195 116.568 147.863 115.74C148.535 114.908 149.533 114.482 150.857 114.463H151.05ZM149.627 118.307C149.255 118.307 148.914 118.418 148.601 118.641C148.289 118.863 148.072 119.143 147.951 119.479V119.877C147.951 120.58 148.109 121.146 148.425 121.576C148.742 122.006 149.136 122.221 149.609 122.221C150.097 122.221 150.48 122.041 150.757 121.682C151.039 121.322 151.179 120.852 151.179 120.27C151.179 119.684 151.037 119.211 150.752 118.852C150.47 118.488 150.095 118.307 149.627 118.307ZM154.011 124.699L153.396 124.277C153.763 123.766 153.954 123.238 153.97 122.695V121.717H155.03V122.566C155.03 122.961 154.933 123.355 154.738 123.75C154.546 124.145 154.304 124.461 154.011 124.699ZM165.657 123H160.067V122.221L163.02 118.939C163.457 118.443 163.758 118.041 163.922 117.732C164.09 117.42 164.174 117.098 164.174 116.766C164.174 116.32 164.039 115.955 163.77 115.67C163.5 115.385 163.141 115.242 162.692 115.242C162.153 115.242 161.733 115.396 161.432 115.705C161.135 116.01 160.987 116.436 160.987 116.982H159.903C159.903 116.197 160.155 115.562 160.659 115.078C161.166 114.594 161.844 114.352 162.692 114.352C163.485 114.352 164.112 114.561 164.573 114.979C165.034 115.393 165.264 115.945 165.264 116.637C165.264 117.477 164.729 118.477 163.659 119.637L161.373 122.115H165.657V123ZM172.555 119.361C172.555 120.631 172.338 121.574 171.904 122.191C171.471 122.809 170.793 123.117 169.871 123.117C168.961 123.117 168.287 122.816 167.85 122.215C167.412 121.609 167.186 120.707 167.17 119.508V118.061C167.17 116.807 167.387 115.875 167.82 115.266C168.254 114.656 168.934 114.352 169.859 114.352C170.777 114.352 171.453 114.646 171.887 115.236C172.32 115.822 172.543 116.729 172.555 117.955V119.361ZM171.471 117.879C171.471 116.961 171.342 116.293 171.084 115.875C170.826 115.453 170.418 115.242 169.859 115.242C169.305 115.242 168.9 115.451 168.646 115.869C168.393 116.287 168.262 116.93 168.254 117.797V119.531C168.254 120.453 168.387 121.135 168.652 121.576C168.922 122.014 169.328 122.232 169.871 122.232C170.406 122.232 170.803 122.025 171.061 121.611C171.322 121.197 171.459 120.545 171.471 119.654V117.879ZM179.933 123H174.343V122.221L177.296 118.939C177.734 118.443 178.035 118.041 178.199 117.732C178.367 117.42 178.451 117.098 178.451 116.766C178.451 116.32 178.316 115.955 178.046 115.67C177.777 115.385 177.418 115.242 176.968 115.242C176.429 115.242 176.009 115.396 175.709 115.705C175.412 116.01 175.263 116.436 175.263 116.982H174.179C174.179 116.197 174.431 115.562 174.935 115.078C175.443 114.594 176.121 114.352 176.968 114.352C177.761 114.352 178.388 114.561 178.849 114.979C179.31 115.393 179.541 115.945 179.541 116.637C179.541 117.477 179.005 118.477 177.935 119.637L175.65 122.115H179.933V123ZM185.044 123H183.954V115.775L181.769 116.578V115.594L184.874 114.428H185.044V123Z" fill="black" fill-opacity="0.6"/>
</svg>
