<svg width="411" height="731" viewBox="0 0 411 731" fill="none" xmlns="http://www.w3.org/2000/svg">
<rect width="411" height="731" fill="#F1F1F1"/>
<g clip-path="url(#clip0)">
<rect width="411" height="731" fill="white"/>
<g filter="url(#filter0_ddd)">
<rect width="411" height="72" transform="translate(0 659)" fill="#6200EE"/>
<rect width="102.75" height="72" transform="translate(0 659)" fill="#6200EE"/>
<rect width="102.75" height="2" transform="translate(0 729)" fill="#6200EE"/>
<rect y="729" width="103" height="2" fill="white"/>
<path d="M36.8008 706.441H33.6973V715H31.9814V706.441H28.9053V705.047H36.8008V706.441ZM47.1152 710.283C47.1152 711.258 46.9466 712.115 46.6094 712.854C46.2721 713.587 45.7891 714.152 45.1602 714.549C44.5358 714.941 43.8158 715.137 43 715.137C42.1934 715.137 41.4733 714.941 40.8398 714.549C40.2109 714.152 39.7233 713.59 39.377 712.86C39.0352 712.131 38.862 711.29 38.8574 710.338V709.777C38.8574 708.807 39.0283 707.95 39.3701 707.207C39.7165 706.464 40.2018 705.897 40.8262 705.505C41.4551 705.108 42.1751 704.91 42.9863 704.91C43.7975 704.91 44.5153 705.106 45.1396 705.498C45.7686 705.885 46.2539 706.446 46.5957 707.18C46.9375 707.909 47.1107 708.759 47.1152 709.729V710.283ZM45.3857 709.764C45.3857 708.661 45.1761 707.815 44.7568 707.228C44.3421 706.64 43.752 706.346 42.9863 706.346C42.2389 706.346 41.6533 706.64 41.2295 707.228C40.8102 707.811 40.596 708.638 40.5869 709.709V710.283C40.5869 711.377 40.7988 712.222 41.2227 712.819C41.651 713.416 42.2435 713.715 43 713.715C43.7656 713.715 44.3535 713.423 44.7637 712.84C45.1784 712.257 45.3857 711.404 45.3857 710.283V709.764ZM50.0879 715V705.047H53.0273C53.9069 705.047 54.6862 705.243 55.3652 705.635C56.0488 706.027 56.5775 706.583 56.9512 707.303C57.3249 708.023 57.5117 708.848 57.5117 709.777V710.276C57.5117 711.22 57.3226 712.049 56.9443 712.765C56.5706 713.48 56.0352 714.032 55.3379 714.419C54.6452 714.806 53.8499 715 52.9521 715H50.0879ZM51.8174 706.441V713.619H52.9453C53.8522 713.619 54.5472 713.337 55.0303 712.771C55.5179 712.202 55.7663 711.386 55.7754 710.324V709.771C55.7754 708.69 55.5407 707.866 55.0713 707.296C54.6019 706.726 53.9206 706.441 53.0273 706.441H51.8174ZM65.9053 712.683H62.0498L61.2432 715H59.4453L63.2051 705.047H64.7568L68.5234 715H66.7188L65.9053 712.683ZM62.5352 711.288H65.4199L63.9775 707.159L62.5352 711.288ZM73.1299 709.764L75.4199 705.047H77.334L73.998 711.336V715H72.2617V711.336L68.9189 705.047H70.8398L73.1299 709.764Z" fill="white"/>
<path fill-rule="evenodd" clip-rule="evenodd" d="M51 693C52.1 693 53 692.1 53 691H49C49 692.1 49.89 693 51 693ZM57 687V682C57 678.93 55.36 676.36 52.5 675.68V675C52.5 674.17 51.83 673.5 51 673.5C50.17 673.5 49.5 674.17 49.5 675V675.68C46.63 676.36 45 678.92 45 682V687L43 689V690H59V689L57 687Z" fill="white"/>
<rect width="102.75" height="72" transform="translate(102.75 659)" fill="#6200EE"/>
<path d="M138.012 710.557H133.924V713.619H138.702V715H132.194V705.047H138.654V706.441H133.924V709.189H138.012V710.557ZM144.867 712.833L147.396 705.047H149.297L145.715 715H144.04L140.472 705.047H142.365L144.867 712.833ZM157.492 710.557H153.404V713.619H158.183V715H151.675V705.047H158.135V706.441H153.404V709.189H157.492V710.557ZM168.736 715H167.007L162.57 707.938V715H160.841V705.047H162.57L167.021 712.136V705.047H168.736V715ZM179.017 706.441H175.913V715H174.197V706.441H171.121V705.047H179.017V706.441Z" fill="white" fill-opacity="0.74"/>
<path d="M150.75 682H148.75V684H150.75V682ZM154.75 682H152.75V684H154.75V682ZM158.75 682H156.75V684H158.75V682ZM160.75 675H159.75V673H157.75V675H149.75V673H147.75V675H146.75C145.64 675 144.76 675.9 144.76 677L144.75 691C144.75 691.53 144.961 692.039 145.336 692.414C145.711 692.789 146.22 693 146.75 693H160.75C161.85 693 162.75 692.1 162.75 691V677C162.75 675.9 161.85 675 160.75 675ZM160.75 691H146.75V680H160.75V691Z" fill="white" fill-opacity="0.74"/>
<rect width="102.75" height="72" transform="translate(205.5 659)" fill="#6200EE"/>
<path d="M243.673 715H241.95V710.577H237.5V715H235.771V705.047H237.5V709.189H241.95V705.047H243.673V715ZM252.668 712.683H248.812L248.006 715H246.208L249.968 705.047H251.52L255.286 715H253.481L252.668 712.683ZM249.298 711.288H252.183L250.74 707.159L249.298 711.288ZM257.671 715V705.047H261.082C262.208 705.047 263.064 705.272 263.652 705.724C264.24 706.175 264.534 706.847 264.534 707.74C264.534 708.196 264.411 708.606 264.165 708.971C263.919 709.335 263.559 709.618 263.085 709.818C263.623 709.964 264.037 710.24 264.329 710.646C264.625 711.047 264.773 711.53 264.773 712.095C264.773 713.029 264.473 713.747 263.871 714.248C263.274 714.749 262.417 715 261.301 715H257.671ZM259.4 710.509V713.619H261.321C261.864 713.619 262.287 713.485 262.593 713.216C262.898 712.947 263.051 712.573 263.051 712.095C263.051 711.06 262.522 710.532 261.465 710.509H259.4ZM259.4 709.237H261.096C261.633 709.237 262.053 709.117 262.354 708.875C262.659 708.629 262.812 708.283 262.812 707.836C262.812 707.344 262.67 706.988 262.388 706.77C262.11 706.551 261.674 706.441 261.082 706.441H259.4V709.237ZM269.578 715H267.855V705.047H269.578V715ZM279.94 706.441H276.837V715H275.121V706.441H272.045V705.047H279.94V706.441Z" fill="white" fill-opacity="0.74"/>
<path fill-rule="evenodd" clip-rule="evenodd" d="M256.5 692.35L255.05 691.03C249.9 686.36 246.5 683.28 246.5 679.5C246.5 676.42 248.92 674 252 674C253.74 674 255.41 674.81 256.5 676.09C257.59 674.81 259.26 674 261 674C264.08 674 266.5 676.42 266.5 679.5C266.5 683.28 263.1 686.36 257.95 691.04L256.5 692.35Z" fill="white" fill-opacity="0.74"/>
<rect width="102.75" height="72" transform="translate(308.25 659)" fill="#6200EE"/>
<path d="M322.205 711.76C322.105 712.822 321.713 713.651 321.029 714.248C320.346 714.84 319.437 715.137 318.302 715.137C317.509 715.137 316.809 714.95 316.203 714.576C315.602 714.198 315.137 713.662 314.809 712.97C314.48 712.277 314.31 711.473 314.296 710.557V709.627C314.296 708.688 314.462 707.861 314.795 707.146C315.128 706.43 315.604 705.879 316.224 705.491C316.848 705.104 317.568 704.91 318.384 704.91C319.482 704.91 320.366 705.209 321.036 705.806C321.706 706.403 322.096 707.246 322.205 708.335H320.482C320.4 707.619 320.191 707.104 319.854 706.79C319.521 706.471 319.031 706.312 318.384 706.312C317.632 706.312 317.053 706.587 316.647 707.139C316.246 707.686 316.041 708.49 316.032 709.552V710.434C316.032 711.509 316.224 712.329 316.606 712.895C316.994 713.46 317.559 713.742 318.302 713.742C318.981 713.742 319.491 713.59 319.833 713.284C320.175 712.979 320.391 712.471 320.482 711.76H322.205ZM332.95 710.283C332.95 711.258 332.782 712.115 332.444 712.854C332.107 713.587 331.624 714.152 330.995 714.549C330.371 714.941 329.651 715.137 328.835 715.137C328.028 715.137 327.308 714.941 326.675 714.549C326.046 714.152 325.558 713.59 325.212 712.86C324.87 712.131 324.697 711.29 324.692 710.338V709.777C324.692 708.807 324.863 707.95 325.205 707.207C325.551 706.464 326.037 705.897 326.661 705.505C327.29 705.108 328.01 704.91 328.821 704.91C329.632 704.91 330.35 705.106 330.975 705.498C331.604 705.885 332.089 706.446 332.431 707.18C332.772 707.909 332.946 708.759 332.95 709.729V710.283ZM331.221 709.764C331.221 708.661 331.011 707.815 330.592 707.228C330.177 706.64 329.587 706.346 328.821 706.346C328.074 706.346 327.488 706.64 327.064 707.228C326.645 707.811 326.431 708.638 326.422 709.709V710.283C326.422 711.377 326.634 712.222 327.058 712.819C327.486 713.416 328.078 713.715 328.835 713.715C329.601 713.715 330.188 713.423 330.599 712.84C331.013 712.257 331.221 711.404 331.221 710.283V709.764ZM338.165 705.047L341.036 712.676L343.9 705.047H346.136V715H344.413V711.719L344.584 707.33L341.645 715H340.407L337.475 707.337L337.646 711.719V715H335.923V705.047H338.165ZM351.679 705.047L354.55 712.676L357.414 705.047H359.649V715H357.927V711.719L358.098 707.33L355.158 715H353.921L350.988 707.337L351.159 711.719V715H349.437V705.047H351.679ZM370.23 705.047V711.698C370.23 712.756 369.891 713.594 369.212 714.214C368.537 714.829 367.637 715.137 366.512 715.137C365.372 715.137 364.468 714.834 363.798 714.228C363.128 713.617 362.793 712.771 362.793 711.691V705.047H364.516V711.705C364.516 712.37 364.684 712.879 365.021 713.229C365.359 713.58 365.855 713.756 366.512 713.756C367.842 713.756 368.508 713.054 368.508 711.65V705.047H370.23ZM381.229 715H379.499L375.062 707.938V715H373.333V705.047H375.062L379.513 712.136V705.047H381.229V715ZM386.348 715H384.625V705.047H386.348V715ZM396.71 706.441H393.606V715H391.891V706.441H388.814V705.047H396.71V706.441ZM402.629 709.764L404.919 705.047H406.833L403.497 711.336V715H401.761V711.336L398.418 705.047H400.339L402.629 709.764Z" fill="white" fill-opacity="0.74"/>
<path d="M363.25 682C364.91 682 366.24 680.66 366.24 679C366.24 677.34 364.91 676 363.25 676C361.59 676 360.25 677.34 360.25 679C360.25 680.66 361.59 682 363.25 682ZM355.25 682C356.91 682 358.24 680.66 358.24 679C358.24 677.34 356.91 676 355.25 676C353.59 676 352.25 677.34 352.25 679C352.25 680.66 353.59 682 355.25 682ZM355.25 684C352.92 684 348.25 685.17 348.25 687.5V690H362.25V687.5C362.25 685.17 357.58 684 355.25 684ZM363.25 684C362.96 684 362.63 684.02 362.28 684.05C363.44 684.89 364.25 686.02 364.25 687.5V690H370.25V687.5C370.25 685.17 365.58 684 363.25 684Z" fill="white" fill-opacity="0.74"/>
</g>
<mask id="mask0" style="mask-type:alpha" maskUnits="userSpaceOnUse" x="0" y="66" width="411" height="64">
<rect y="66" width="411" height="64" fill="white"/>
</mask>
<g mask="url(#mask0)">
<path d="M26.0625 92H24.5547V86.7422H18.8203V92H17.3203V80.625H18.8203V85.5156H24.5547V80.625H26.0625V92ZM33.8687 92C33.7854 91.8333 33.7177 91.5365 33.6656 91.1094C32.9937 91.8073 32.1917 92.1562 31.2594 92.1562C30.426 92.1562 29.7411 91.9219 29.2047 91.4531C28.6734 90.9792 28.4078 90.3802 28.4078 89.6562C28.4078 88.776 28.7411 88.0938 29.4078 87.6094C30.0797 87.1198 31.0224 86.875 32.2359 86.875H33.6422V86.2109C33.6422 85.7057 33.4911 85.3047 33.1891 85.0078C32.887 84.7057 32.4417 84.5547 31.8531 84.5547C31.3375 84.5547 30.9052 84.6849 30.5562 84.9453C30.2073 85.2057 30.0328 85.5208 30.0328 85.8906H28.5797C28.5797 85.4688 28.7281 85.0625 29.025 84.6719C29.3271 84.276 29.7333 83.9635 30.2437 83.7344C30.7594 83.5052 31.3245 83.3906 31.9391 83.3906C32.913 83.3906 33.676 83.6354 34.2281 84.125C34.7802 84.6094 35.0667 85.2786 35.0875 86.1328V90.0234C35.0875 90.7995 35.1865 91.4167 35.3844 91.875V92H33.8687ZM31.4703 90.8984C31.9234 90.8984 32.3531 90.7812 32.7594 90.5469C33.1656 90.3125 33.4599 90.0078 33.6422 89.6328V87.8984H32.5094C30.7385 87.8984 29.8531 88.4167 29.8531 89.4531C29.8531 89.9062 30.0042 90.2604 30.3062 90.5156C30.6083 90.7708 30.9964 90.8984 31.4703 90.8984ZM44.6594 87.8672C44.6594 89.1589 44.3625 90.1979 43.7687 90.9844C43.175 91.7656 42.3781 92.1562 41.3781 92.1562C40.3104 92.1562 39.4849 91.7786 38.9016 91.0234L38.8312 92H37.5031V80H38.9484V84.4766C39.5318 83.7526 40.3365 83.3906 41.3625 83.3906C42.3885 83.3906 43.1932 83.7786 43.7766 84.5547C44.3651 85.3307 44.6594 86.3932 44.6594 87.7422V87.8672ZM43.2141 87.7031C43.2141 86.7188 43.024 85.9583 42.6437 85.4219C42.2635 84.8854 41.7167 84.6172 41.0031 84.6172C40.05 84.6172 39.3651 85.0599 38.9484 85.9453V89.6016C39.3911 90.487 40.0812 90.9297 41.0187 90.9297C41.7115 90.9297 42.2505 90.6615 42.6359 90.125C43.0214 89.5885 43.2141 88.7812 43.2141 87.7031ZM48.2078 92H46.7625V83.5469H48.2078V92ZM46.6453 81.3047C46.6453 81.0703 46.7156 80.8724 46.8563 80.7109C47.0021 80.5495 47.2156 80.4688 47.4969 80.4688C47.7781 80.4688 47.9917 80.5495 48.1375 80.7109C48.2833 80.8724 48.3563 81.0703 48.3563 81.3047C48.3563 81.5391 48.2833 81.7344 48.1375 81.8906C47.9917 82.0469 47.7781 82.125 47.4969 82.125C47.2156 82.125 47.0021 82.0469 46.8563 81.8906C46.7156 81.7344 46.6453 81.5391 46.6453 81.3047ZM52.6391 81.5V83.5469H54.2172V84.6641H52.6391V89.9062C52.6391 90.2448 52.7094 90.5 52.85 90.6719C52.9906 90.8385 53.2302 90.9219 53.5687 90.9219C53.7354 90.9219 53.9646 90.8906 54.2562 90.8281V92C53.876 92.1042 53.5062 92.1562 53.1469 92.1562C52.501 92.1562 52.0141 91.9609 51.6859 91.5703C51.3578 91.1797 51.1937 90.625 51.1937 89.9062V84.6641H49.6547V83.5469H51.1937V81.5H52.6391ZM64.7828 92H63.3297V82.3672L60.4156 83.4375V82.125L64.5563 80.5703H64.7828V92Z" fill="black" fill-opacity="0.87"/>
<path d="M17.1553 113V103.047H19.9648C20.8307 103.047 21.5964 103.238 22.2617 103.621C22.9271 104.004 23.4398 104.549 23.7998 105.255C24.1644 105.961 24.349 106.772 24.3535 107.688V108.324C24.3535 109.263 24.1712 110.086 23.8066 110.792C23.4466 111.498 22.9294 112.041 22.2549 112.419C21.585 112.797 20.8034 112.991 19.9102 113H17.1553ZM18.4678 104.127V111.927H19.8486C20.8604 111.927 21.6465 111.612 22.207 110.983C22.7721 110.354 23.0547 109.459 23.0547 108.297V107.716C23.0547 106.586 22.7881 105.708 22.2549 105.084C21.7262 104.455 20.9743 104.136 19.999 104.127H18.4678ZM29.4639 113.137C28.4613 113.137 27.6455 112.809 27.0166 112.152C26.3877 111.492 26.0732 110.61 26.0732 109.507V109.274C26.0732 108.541 26.2122 107.887 26.4902 107.312C26.7728 106.734 27.1647 106.283 27.666 105.959C28.1719 105.631 28.7188 105.467 29.3066 105.467C30.2682 105.467 31.0156 105.784 31.5488 106.417C32.082 107.05 32.3486 107.957 32.3486 109.138V109.664H27.3379C27.3561 110.393 27.568 110.983 27.9736 111.435C28.3838 111.881 28.9033 112.104 29.5322 112.104C29.9788 112.104 30.3571 112.013 30.667 111.831C30.9769 111.649 31.248 111.407 31.4805 111.106L32.2529 111.708C31.6331 112.66 30.7035 113.137 29.4639 113.137ZM29.3066 106.506C28.7962 106.506 28.3678 106.693 28.0215 107.066C27.6751 107.436 27.4609 107.955 27.3789 108.625H31.084V108.529C31.0475 107.887 30.8743 107.39 30.5645 107.039C30.2546 106.684 29.8353 106.506 29.3066 106.506ZM38.375 111.038C38.375 110.696 38.2451 110.432 37.9854 110.245C37.7301 110.054 37.2812 109.89 36.6387 109.753C36.0007 109.616 35.4925 109.452 35.1143 109.261C34.7406 109.069 34.4626 108.841 34.2803 108.577C34.1025 108.313 34.0137 107.998 34.0137 107.634C34.0137 107.028 34.2689 106.515 34.7793 106.096C35.2943 105.676 35.9505 105.467 36.748 105.467C37.5866 105.467 38.2656 105.683 38.7852 106.116C39.3092 106.549 39.5713 107.103 39.5713 107.777H38.2998C38.2998 107.431 38.1517 107.132 37.8555 106.882C37.5638 106.631 37.1947 106.506 36.748 106.506C36.2878 106.506 35.9277 106.606 35.668 106.807C35.4082 107.007 35.2783 107.269 35.2783 107.593C35.2783 107.898 35.3991 108.128 35.6406 108.283C35.8822 108.438 36.3174 108.586 36.9463 108.728C37.5798 108.869 38.0924 109.037 38.4844 109.233C38.8763 109.429 39.1657 109.666 39.3525 109.944C39.5439 110.218 39.6396 110.553 39.6396 110.949C39.6396 111.61 39.3753 112.141 38.8467 112.542C38.318 112.938 37.6322 113.137 36.7891 113.137C36.1966 113.137 35.6725 113.032 35.2168 112.822C34.7611 112.613 34.4033 112.321 34.1436 111.947C33.8883 111.569 33.7607 111.161 33.7607 110.724H35.0254C35.0482 111.147 35.2168 111.485 35.5312 111.735C35.8503 111.981 36.2695 112.104 36.7891 112.104C37.2676 112.104 37.6504 112.009 37.9375 111.817C38.2292 111.621 38.375 111.362 38.375 111.038ZM44.5039 112.104C44.9551 112.104 45.3493 111.968 45.6865 111.694C46.0238 111.421 46.2106 111.079 46.2471 110.669H47.4434C47.4206 111.093 47.2747 111.496 47.0059 111.879C46.737 112.262 46.377 112.567 45.9258 112.795C45.4792 113.023 45.0052 113.137 44.5039 113.137C43.4967 113.137 42.6947 112.802 42.0977 112.132C41.5052 111.457 41.209 110.537 41.209 109.37V109.158C41.209 108.438 41.3411 107.798 41.6055 107.237C41.8698 106.677 42.248 106.242 42.7402 105.932C43.237 105.622 43.8226 105.467 44.4971 105.467C45.3265 105.467 46.0146 105.715 46.5615 106.212C47.113 106.709 47.4069 107.354 47.4434 108.146H46.2471C46.2106 107.668 46.0283 107.276 45.7002 106.971C45.3766 106.661 44.9756 106.506 44.4971 106.506C43.8545 106.506 43.3555 106.738 43 107.203C42.6491 107.663 42.4736 108.331 42.4736 109.206V109.445C42.4736 110.298 42.6491 110.954 43 111.414C43.3509 111.874 43.8522 112.104 44.5039 112.104ZM52.6904 106.738C52.499 106.706 52.2917 106.69 52.0684 106.69C51.2389 106.69 50.6761 107.044 50.3799 107.75V113H49.1152V105.604H50.3457L50.3662 106.458C50.7809 105.797 51.3688 105.467 52.1299 105.467C52.376 105.467 52.5628 105.499 52.6904 105.562V106.738ZM55.4834 113H54.2188V105.604H55.4834V113ZM54.1162 103.642C54.1162 103.437 54.1777 103.263 54.3008 103.122C54.4284 102.981 54.6152 102.91 54.8613 102.91C55.1074 102.91 55.2943 102.981 55.4219 103.122C55.5495 103.263 55.6133 103.437 55.6133 103.642C55.6133 103.847 55.5495 104.018 55.4219 104.154C55.2943 104.291 55.1074 104.359 54.8613 104.359C54.6152 104.359 54.4284 104.291 54.3008 104.154C54.1777 104.018 54.1162 103.847 54.1162 103.642ZM64.0117 109.384C64.0117 110.509 63.7542 111.416 63.2393 112.104C62.7243 112.793 62.027 113.137 61.1475 113.137C60.2497 113.137 59.5433 112.852 59.0283 112.282V115.844H57.7637V105.604H58.9189L58.9805 106.424C59.4954 105.786 60.2109 105.467 61.127 105.467C62.0156 105.467 62.7174 105.802 63.2324 106.472C63.752 107.142 64.0117 108.074 64.0117 109.268V109.384ZM62.7471 109.24C62.7471 108.406 62.5693 107.748 62.2139 107.265C61.8584 106.782 61.3708 106.54 60.751 106.54C59.9854 106.54 59.4111 106.88 59.0283 107.559V111.093C59.4066 111.767 59.9854 112.104 60.7646 112.104C61.3708 112.104 61.8516 111.865 62.207 111.387C62.5671 110.904 62.7471 110.188 62.7471 109.24ZM67.5908 103.812V105.604H68.9717V106.581H67.5908V111.168C67.5908 111.464 67.6523 111.688 67.7754 111.838C67.8984 111.984 68.1081 112.057 68.4043 112.057C68.5501 112.057 68.7507 112.029 69.0059 111.975V113C68.6732 113.091 68.3496 113.137 68.0352 113.137C67.4701 113.137 67.0439 112.966 66.7568 112.624C66.4697 112.282 66.3262 111.797 66.3262 111.168V106.581H64.9795V105.604H66.3262V103.812H67.5908ZM72.0791 113H70.8145V105.604H72.0791V113ZM70.7119 103.642C70.7119 103.437 70.7734 103.263 70.8965 103.122C71.0241 102.981 71.2109 102.91 71.457 102.91C71.7031 102.91 71.89 102.981 72.0176 103.122C72.1452 103.263 72.209 103.437 72.209 103.642C72.209 103.847 72.1452 104.018 72.0176 104.154C71.89 104.291 71.7031 104.359 71.457 104.359C71.2109 104.359 71.0241 104.291 70.8965 104.154C70.7734 104.018 70.7119 103.847 70.7119 103.642ZM74.0244 109.233C74.0244 108.509 74.1657 107.857 74.4482 107.278C74.7354 106.7 75.1318 106.253 75.6377 105.938C76.1481 105.624 76.7292 105.467 77.3809 105.467C78.388 105.467 79.2015 105.815 79.8213 106.513C80.4456 107.21 80.7578 108.137 80.7578 109.295V109.384C80.7578 110.104 80.6188 110.751 80.3408 111.325C80.0674 111.895 79.6732 112.339 79.1582 112.658C78.6478 112.977 78.0599 113.137 77.3945 113.137C76.3919 113.137 75.5785 112.788 74.9541 112.091C74.3343 111.394 74.0244 110.471 74.0244 109.322V109.233ZM75.2959 109.384C75.2959 110.204 75.485 110.863 75.8633 111.359C76.2461 111.856 76.7565 112.104 77.3945 112.104C78.0371 112.104 78.5475 111.854 78.9258 111.353C79.304 110.847 79.4932 110.14 79.4932 109.233C79.4932 108.422 79.2995 107.766 78.9121 107.265C78.5293 106.759 78.0189 106.506 77.3809 106.506C76.7565 106.506 76.2529 106.754 75.8701 107.251C75.4873 107.748 75.2959 108.459 75.2959 109.384ZM83.79 105.604L83.8311 106.533C84.3962 105.822 85.1344 105.467 86.0459 105.467C87.609 105.467 88.3975 106.349 88.4111 108.112V113H87.1465V108.105C87.1419 107.572 87.0189 107.178 86.7773 106.923C86.5404 106.668 86.1689 106.54 85.6631 106.54C85.2529 106.54 84.8929 106.649 84.583 106.868C84.2731 107.087 84.0316 107.374 83.8584 107.729V113H82.5938V105.604H83.79ZM94.9131 113V106.581H93.7441V105.604H94.9131V104.845C94.9131 104.052 95.125 103.439 95.5488 103.006C95.9727 102.573 96.5719 102.356 97.3467 102.356C97.6383 102.356 97.9277 102.395 98.2148 102.473L98.1465 103.498C97.9323 103.457 97.7044 103.437 97.4629 103.437C97.0527 103.437 96.736 103.557 96.5127 103.799C96.2894 104.036 96.1777 104.378 96.1777 104.824V105.604H97.7568V106.581H96.1777V113H94.9131ZM99.0732 109.233C99.0732 108.509 99.2145 107.857 99.4971 107.278C99.7842 106.7 100.181 106.253 100.687 105.938C101.197 105.624 101.778 105.467 102.43 105.467C103.437 105.467 104.25 105.815 104.87 106.513C105.494 107.21 105.807 108.137 105.807 109.295V109.384C105.807 110.104 105.668 110.751 105.39 111.325C105.116 111.895 104.722 112.339 104.207 112.658C103.697 112.977 103.109 113.137 102.443 113.137C101.441 113.137 100.627 112.788 100.003 112.091C99.3831 111.394 99.0732 110.471 99.0732 109.322V109.233ZM100.345 109.384C100.345 110.204 100.534 110.863 100.912 111.359C101.295 111.856 101.805 112.104 102.443 112.104C103.086 112.104 103.596 111.854 103.975 111.353C104.353 110.847 104.542 110.14 104.542 109.233C104.542 108.422 104.348 107.766 103.961 107.265C103.578 106.759 103.068 106.506 102.43 106.506C101.805 106.506 101.302 106.754 100.919 107.251C100.536 107.748 100.345 108.459 100.345 109.384ZM111.218 106.738C111.026 106.706 110.819 106.69 110.596 106.69C109.766 106.69 109.203 107.044 108.907 107.75V113H107.643V105.604H108.873L108.894 106.458C109.308 105.797 109.896 105.467 110.657 105.467C110.903 105.467 111.09 105.499 111.218 105.562V106.738ZM124.207 113H122.888V108.399H117.87V113H116.558V103.047H117.87V107.326H122.888V103.047H124.207V113ZM131.156 113C131.083 112.854 131.024 112.594 130.979 112.221C130.391 112.831 129.689 113.137 128.873 113.137C128.144 113.137 127.545 112.932 127.075 112.521C126.61 112.107 126.378 111.583 126.378 110.949C126.378 110.179 126.67 109.582 127.253 109.158C127.841 108.73 128.666 108.516 129.728 108.516H130.958V107.935C130.958 107.493 130.826 107.142 130.562 106.882C130.297 106.618 129.908 106.485 129.393 106.485C128.941 106.485 128.563 106.599 128.258 106.827C127.952 107.055 127.8 107.331 127.8 107.654H126.528C126.528 107.285 126.658 106.93 126.918 106.588C127.182 106.242 127.538 105.968 127.984 105.768C128.436 105.567 128.93 105.467 129.468 105.467C130.32 105.467 130.988 105.681 131.471 106.109C131.954 106.533 132.204 107.119 132.223 107.866V111.271C132.223 111.95 132.309 112.49 132.482 112.891V113H131.156ZM129.058 112.036C129.454 112.036 129.83 111.934 130.186 111.729C130.541 111.523 130.799 111.257 130.958 110.929V109.411H129.967C128.417 109.411 127.643 109.865 127.643 110.771C127.643 111.168 127.775 111.478 128.039 111.701C128.303 111.924 128.643 112.036 129.058 112.036ZM140.717 109.384C140.717 110.514 140.457 111.423 139.938 112.111C139.418 112.795 138.721 113.137 137.846 113.137C136.911 113.137 136.189 112.806 135.679 112.146L135.617 113H134.455V102.5H135.72V106.417C136.23 105.784 136.934 105.467 137.832 105.467C138.73 105.467 139.434 105.806 139.944 106.485C140.459 107.164 140.717 108.094 140.717 109.274V109.384ZM139.452 109.24C139.452 108.379 139.286 107.714 138.953 107.244C138.62 106.775 138.142 106.54 137.518 106.54C136.684 106.54 136.084 106.927 135.72 107.702V110.901C136.107 111.676 136.711 112.063 137.531 112.063C138.137 112.063 138.609 111.829 138.946 111.359C139.284 110.89 139.452 110.184 139.452 109.24ZM143.94 113H142.676V105.604H143.94V113ZM142.573 103.642C142.573 103.437 142.635 103.263 142.758 103.122C142.885 102.981 143.072 102.91 143.318 102.91C143.564 102.91 143.751 102.981 143.879 103.122C144.007 103.263 144.07 103.437 144.07 103.642C144.07 103.847 144.007 104.018 143.879 104.154C143.751 104.291 143.564 104.359 143.318 104.359C143.072 104.359 142.885 104.291 142.758 104.154C142.635 104.018 142.573 103.847 142.573 103.642ZM147.937 103.812V105.604H149.317V106.581H147.937V111.168C147.937 111.464 147.998 111.688 148.121 111.838C148.244 111.984 148.454 112.057 148.75 112.057C148.896 112.057 149.096 112.029 149.352 111.975V113C149.019 113.091 148.695 113.137 148.381 113.137C147.816 113.137 147.39 112.966 147.103 112.624C146.815 112.282 146.672 111.797 146.672 111.168V106.581H145.325V105.604H146.672V103.812H147.937ZM158.8 113H157.528V104.571L154.979 105.508V104.359L158.602 102.999H158.8V113Z" fill="black" fill-opacity="0.6"/>
<path fill-rule="evenodd" clip-rule="evenodd" d="M383 94C384.1 94 385 93.1 385 92C385 90.9 384.1 90 383 90C381.9 90 381 90.9 381 92C381 93.1 381.9 94 383 94ZM383 96C381.9 96 381 96.9 381 98C381 99.1 381.9 100 383 100C384.1 100 385 99.1 385 98C385 96.9 384.1 96 383 96ZM383 102C381.9 102 381 102.9 381 104C381 105.1 381.9 106 383 106C384.1 106 385 105.1 385 104C385 102.9 384.1 102 383 102Z" fill="black" fill-opacity="0.6"/>
<rect x="18.2667" y="129" width="392.733" height="1" fill="#212121" fill-opacity="0.08"/>
</g>
<mask id="mask1" style="mask-type:alpha" maskUnits="userSpaceOnUse" x="0" y="140" width="411" height="64">
<rect y="140" width="411" height="64" fill="white"/>
</mask>
<g mask="url(#mask1)">
<path d="M26.0625 166H24.5547V160.742H18.8203V166H17.3203V154.625H18.8203V159.516H24.5547V154.625H26.0625V166ZM33.8687 166C33.7854 165.833 33.7177 165.536 33.6656 165.109C32.9937 165.807 32.1917 166.156 31.2594 166.156C30.426 166.156 29.7411 165.922 29.2047 165.453C28.6734 164.979 28.4078 164.38 28.4078 163.656C28.4078 162.776 28.7411 162.094 29.4078 161.609C30.0797 161.12 31.0224 160.875 32.2359 160.875H33.6422V160.211C33.6422 159.706 33.4911 159.305 33.1891 159.008C32.887 158.706 32.4417 158.555 31.8531 158.555C31.3375 158.555 30.9052 158.685 30.5562 158.945C30.2073 159.206 30.0328 159.521 30.0328 159.891H28.5797C28.5797 159.469 28.7281 159.062 29.025 158.672C29.3271 158.276 29.7333 157.964 30.2437 157.734C30.7594 157.505 31.3245 157.391 31.9391 157.391C32.913 157.391 33.676 157.635 34.2281 158.125C34.7802 158.609 35.0667 159.279 35.0875 160.133V164.023C35.0875 164.799 35.1865 165.417 35.3844 165.875V166H33.8687ZM31.4703 164.898C31.9234 164.898 32.3531 164.781 32.7594 164.547C33.1656 164.312 33.4599 164.008 33.6422 163.633V161.898H32.5094C30.7385 161.898 29.8531 162.417 29.8531 163.453C29.8531 163.906 30.0042 164.26 30.3062 164.516C30.6083 164.771 30.9964 164.898 31.4703 164.898ZM44.6594 161.867C44.6594 163.159 44.3625 164.198 43.7687 164.984C43.175 165.766 42.3781 166.156 41.3781 166.156C40.3104 166.156 39.4849 165.779 38.9016 165.023L38.8312 166H37.5031V154H38.9484V158.477C39.5318 157.753 40.3365 157.391 41.3625 157.391C42.3885 157.391 43.1932 157.779 43.7766 158.555C44.3651 159.331 44.6594 160.393 44.6594 161.742V161.867ZM43.2141 161.703C43.2141 160.719 43.024 159.958 42.6437 159.422C42.2635 158.885 41.7167 158.617 41.0031 158.617C40.05 158.617 39.3651 159.06 38.9484 159.945V163.602C39.3911 164.487 40.0812 164.93 41.0187 164.93C41.7115 164.93 42.2505 164.661 42.6359 164.125C43.0214 163.589 43.2141 162.781 43.2141 161.703ZM48.2078 166H46.7625V157.547H48.2078V166ZM46.6453 155.305C46.6453 155.07 46.7156 154.872 46.8563 154.711C47.0021 154.549 47.2156 154.469 47.4969 154.469C47.7781 154.469 47.9917 154.549 48.1375 154.711C48.2833 154.872 48.3563 155.07 48.3563 155.305C48.3563 155.539 48.2833 155.734 48.1375 155.891C47.9917 156.047 47.7781 156.125 47.4969 156.125C47.2156 156.125 47.0021 156.047 46.8563 155.891C46.7156 155.734 46.6453 155.539 46.6453 155.305ZM52.6391 155.5V157.547H54.2172V158.664H52.6391V163.906C52.6391 164.245 52.7094 164.5 52.85 164.672C52.9906 164.839 53.2302 164.922 53.5687 164.922C53.7354 164.922 53.9646 164.891 54.2562 164.828V166C53.876 166.104 53.5062 166.156 53.1469 166.156C52.501 166.156 52.0141 165.961 51.6859 165.57C51.3578 165.18 51.1937 164.625 51.1937 163.906V158.664H49.6547V157.547H51.1937V155.5H52.6391ZM67.4859 166H60.0328V164.961L63.9703 160.586C64.5536 159.924 64.9547 159.388 65.1734 158.977C65.3974 158.56 65.5094 158.13 65.5094 157.688C65.5094 157.094 65.3297 156.607 64.9703 156.227C64.6109 155.846 64.1318 155.656 63.5328 155.656C62.8141 155.656 62.2542 155.862 61.8531 156.273C61.4573 156.68 61.2594 157.247 61.2594 157.977H59.8141C59.8141 156.93 60.15 156.083 60.8219 155.438C61.499 154.792 62.4026 154.469 63.5328 154.469C64.5901 154.469 65.426 154.747 66.0406 155.305C66.6552 155.857 66.9625 156.594 66.9625 157.516C66.9625 158.635 66.249 159.969 64.8219 161.516L61.775 164.82H67.4859V166Z" fill="black" fill-opacity="0.87"/>
<path d="M17.1553 187V177.047H19.9648C20.8307 177.047 21.5964 177.238 22.2617 177.621C22.9271 178.004 23.4398 178.549 23.7998 179.255C24.1644 179.961 24.349 180.772 24.3535 181.688V182.324C24.3535 183.263 24.1712 184.086 23.8066 184.792C23.4466 185.498 22.9294 186.041 22.2549 186.419C21.585 186.797 20.8034 186.991 19.9102 187H17.1553ZM18.4678 178.127V185.927H19.8486C20.8604 185.927 21.6465 185.612 22.207 184.983C22.7721 184.354 23.0547 183.459 23.0547 182.297V181.716C23.0547 180.586 22.7881 179.708 22.2549 179.084C21.7262 178.455 20.9743 178.136 19.999 178.127H18.4678ZM29.4639 187.137C28.4613 187.137 27.6455 186.809 27.0166 186.152C26.3877 185.492 26.0732 184.61 26.0732 183.507V183.274C26.0732 182.541 26.2122 181.887 26.4902 181.312C26.7728 180.734 27.1647 180.283 27.666 179.959C28.1719 179.631 28.7188 179.467 29.3066 179.467C30.2682 179.467 31.0156 179.784 31.5488 180.417C32.082 181.05 32.3486 181.957 32.3486 183.138V183.664H27.3379C27.3561 184.393 27.568 184.983 27.9736 185.435C28.3838 185.881 28.9033 186.104 29.5322 186.104C29.9788 186.104 30.3571 186.013 30.667 185.831C30.9769 185.649 31.248 185.407 31.4805 185.106L32.2529 185.708C31.6331 186.66 30.7035 187.137 29.4639 187.137ZM29.3066 180.506C28.7962 180.506 28.3678 180.693 28.0215 181.066C27.6751 181.436 27.4609 181.955 27.3789 182.625H31.084V182.529C31.0475 181.887 30.8743 181.39 30.5645 181.039C30.2546 180.684 29.8353 180.506 29.3066 180.506ZM38.375 185.038C38.375 184.696 38.2451 184.432 37.9854 184.245C37.7301 184.054 37.2812 183.89 36.6387 183.753C36.0007 183.616 35.4925 183.452 35.1143 183.261C34.7406 183.069 34.4626 182.841 34.2803 182.577C34.1025 182.313 34.0137 181.998 34.0137 181.634C34.0137 181.028 34.2689 180.515 34.7793 180.096C35.2943 179.676 35.9505 179.467 36.748 179.467C37.5866 179.467 38.2656 179.683 38.7852 180.116C39.3092 180.549 39.5713 181.103 39.5713 181.777H38.2998C38.2998 181.431 38.1517 181.132 37.8555 180.882C37.5638 180.631 37.1947 180.506 36.748 180.506C36.2878 180.506 35.9277 180.606 35.668 180.807C35.4082 181.007 35.2783 181.269 35.2783 181.593C35.2783 181.898 35.3991 182.128 35.6406 182.283C35.8822 182.438 36.3174 182.586 36.9463 182.728C37.5798 182.869 38.0924 183.037 38.4844 183.233C38.8763 183.429 39.1657 183.666 39.3525 183.944C39.5439 184.218 39.6396 184.553 39.6396 184.949C39.6396 185.61 39.3753 186.141 38.8467 186.542C38.318 186.938 37.6322 187.137 36.7891 187.137C36.1966 187.137 35.6725 187.032 35.2168 186.822C34.7611 186.613 34.4033 186.321 34.1436 185.947C33.8883 185.569 33.7607 185.161 33.7607 184.724H35.0254C35.0482 185.147 35.2168 185.485 35.5312 185.735C35.8503 185.981 36.2695 186.104 36.7891 186.104C37.2676 186.104 37.6504 186.009 37.9375 185.817C38.2292 185.621 38.375 185.362 38.375 185.038ZM44.5039 186.104C44.9551 186.104 45.3493 185.968 45.6865 185.694C46.0238 185.421 46.2106 185.079 46.2471 184.669H47.4434C47.4206 185.093 47.2747 185.496 47.0059 185.879C46.737 186.262 46.377 186.567 45.9258 186.795C45.4792 187.023 45.0052 187.137 44.5039 187.137C43.4967 187.137 42.6947 186.802 42.0977 186.132C41.5052 185.457 41.209 184.537 41.209 183.37V183.158C41.209 182.438 41.3411 181.798 41.6055 181.237C41.8698 180.677 42.248 180.242 42.7402 179.932C43.237 179.622 43.8226 179.467 44.4971 179.467C45.3265 179.467 46.0146 179.715 46.5615 180.212C47.113 180.709 47.4069 181.354 47.4434 182.146H46.2471C46.2106 181.668 46.0283 181.276 45.7002 180.971C45.3766 180.661 44.9756 180.506 44.4971 180.506C43.8545 180.506 43.3555 180.738 43 181.203C42.6491 181.663 42.4736 182.331 42.4736 183.206V183.445C42.4736 184.298 42.6491 184.954 43 185.414C43.3509 185.874 43.8522 186.104 44.5039 186.104ZM52.6904 180.738C52.499 180.706 52.2917 180.69 52.0684 180.69C51.2389 180.69 50.6761 181.044 50.3799 181.75V187H49.1152V179.604H50.3457L50.3662 180.458C50.7809 179.797 51.3688 179.467 52.1299 179.467C52.376 179.467 52.5628 179.499 52.6904 179.562V180.738ZM55.4834 187H54.2188V179.604H55.4834V187ZM54.1162 177.642C54.1162 177.437 54.1777 177.263 54.3008 177.122C54.4284 176.981 54.6152 176.91 54.8613 176.91C55.1074 176.91 55.2943 176.981 55.4219 177.122C55.5495 177.263 55.6133 177.437 55.6133 177.642C55.6133 177.847 55.5495 178.018 55.4219 178.154C55.2943 178.291 55.1074 178.359 54.8613 178.359C54.6152 178.359 54.4284 178.291 54.3008 178.154C54.1777 178.018 54.1162 177.847 54.1162 177.642ZM64.0117 183.384C64.0117 184.509 63.7542 185.416 63.2393 186.104C62.7243 186.793 62.027 187.137 61.1475 187.137C60.2497 187.137 59.5433 186.852 59.0283 186.282V189.844H57.7637V179.604H58.9189L58.9805 180.424C59.4954 179.786 60.2109 179.467 61.127 179.467C62.0156 179.467 62.7174 179.802 63.2324 180.472C63.752 181.142 64.0117 182.074 64.0117 183.268V183.384ZM62.7471 183.24C62.7471 182.406 62.5693 181.748 62.2139 181.265C61.8584 180.782 61.3708 180.54 60.751 180.54C59.9854 180.54 59.4111 180.88 59.0283 181.559V185.093C59.4066 185.767 59.9854 186.104 60.7646 186.104C61.3708 186.104 61.8516 185.865 62.207 185.387C62.5671 184.904 62.7471 184.188 62.7471 183.24ZM67.5908 177.812V179.604H68.9717V180.581H67.5908V185.168C67.5908 185.464 67.6523 185.688 67.7754 185.838C67.8984 185.984 68.1081 186.057 68.4043 186.057C68.5501 186.057 68.7507 186.029 69.0059 185.975V187C68.6732 187.091 68.3496 187.137 68.0352 187.137C67.4701 187.137 67.0439 186.966 66.7568 186.624C66.4697 186.282 66.3262 185.797 66.3262 185.168V180.581H64.9795V179.604H66.3262V177.812H67.5908ZM72.0791 187H70.8145V179.604H72.0791V187ZM70.7119 177.642C70.7119 177.437 70.7734 177.263 70.8965 177.122C71.0241 176.981 71.2109 176.91 71.457 176.91C71.7031 176.91 71.89 176.981 72.0176 177.122C72.1452 177.263 72.209 177.437 72.209 177.642C72.209 177.847 72.1452 178.018 72.0176 178.154C71.89 178.291 71.7031 178.359 71.457 178.359C71.2109 178.359 71.0241 178.291 70.8965 178.154C70.7734 178.018 70.7119 177.847 70.7119 177.642ZM74.0244 183.233C74.0244 182.509 74.1657 181.857 74.4482 181.278C74.7354 180.7 75.1318 180.253 75.6377 179.938C76.1481 179.624 76.7292 179.467 77.3809 179.467C78.388 179.467 79.2015 179.815 79.8213 180.513C80.4456 181.21 80.7578 182.137 80.7578 183.295V183.384C80.7578 184.104 80.6188 184.751 80.3408 185.325C80.0674 185.895 79.6732 186.339 79.1582 186.658C78.6478 186.977 78.0599 187.137 77.3945 187.137C76.3919 187.137 75.5785 186.788 74.9541 186.091C74.3343 185.394 74.0244 184.471 74.0244 183.322V183.233ZM75.2959 183.384C75.2959 184.204 75.485 184.863 75.8633 185.359C76.2461 185.856 76.7565 186.104 77.3945 186.104C78.0371 186.104 78.5475 185.854 78.9258 185.353C79.304 184.847 79.4932 184.14 79.4932 183.233C79.4932 182.422 79.2995 181.766 78.9121 181.265C78.5293 180.759 78.0189 180.506 77.3809 180.506C76.7565 180.506 76.2529 180.754 75.8701 181.251C75.4873 181.748 75.2959 182.459 75.2959 183.384ZM83.79 179.604L83.8311 180.533C84.3962 179.822 85.1344 179.467 86.0459 179.467C87.609 179.467 88.3975 180.349 88.4111 182.112V187H87.1465V182.105C87.1419 181.572 87.0189 181.178 86.7773 180.923C86.5404 180.668 86.1689 180.54 85.6631 180.54C85.2529 180.54 84.8929 180.649 84.583 180.868C84.2731 181.087 84.0316 181.374 83.8584 181.729V187H82.5938V179.604H83.79ZM94.9131 187V180.581H93.7441V179.604H94.9131V178.845C94.9131 178.052 95.125 177.439 95.5488 177.006C95.9727 176.573 96.5719 176.356 97.3467 176.356C97.6383 176.356 97.9277 176.395 98.2148 176.473L98.1465 177.498C97.9323 177.457 97.7044 177.437 97.4629 177.437C97.0527 177.437 96.736 177.557 96.5127 177.799C96.2894 178.036 96.1777 178.378 96.1777 178.824V179.604H97.7568V180.581H96.1777V187H94.9131ZM99.0732 183.233C99.0732 182.509 99.2145 181.857 99.4971 181.278C99.7842 180.7 100.181 180.253 100.687 179.938C101.197 179.624 101.778 179.467 102.43 179.467C103.437 179.467 104.25 179.815 104.87 180.513C105.494 181.21 105.807 182.137 105.807 183.295V183.384C105.807 184.104 105.668 184.751 105.39 185.325C105.116 185.895 104.722 186.339 104.207 186.658C103.697 186.977 103.109 187.137 102.443 187.137C101.441 187.137 100.627 186.788 100.003 186.091C99.3831 185.394 99.0732 184.471 99.0732 183.322V183.233ZM100.345 183.384C100.345 184.204 100.534 184.863 100.912 185.359C101.295 185.856 101.805 186.104 102.443 186.104C103.086 186.104 103.596 185.854 103.975 185.353C104.353 184.847 104.542 184.14 104.542 183.233C104.542 182.422 104.348 181.766 103.961 181.265C103.578 180.759 103.068 180.506 102.43 180.506C101.805 180.506 101.302 180.754 100.919 181.251C100.536 181.748 100.345 182.459 100.345 183.384ZM111.218 180.738C111.026 180.706 110.819 180.69 110.596 180.69C109.766 180.69 109.203 181.044 108.907 181.75V187H107.643V179.604H108.873L108.894 180.458C109.308 179.797 109.896 179.467 110.657 179.467C110.903 179.467 111.09 179.499 111.218 179.562V180.738ZM124.207 187H122.888V182.399H117.87V187H116.558V177.047H117.87V181.326H122.888V177.047H124.207V187ZM131.156 187C131.083 186.854 131.024 186.594 130.979 186.221C130.391 186.831 129.689 187.137 128.873 187.137C128.144 187.137 127.545 186.932 127.075 186.521C126.61 186.107 126.378 185.583 126.378 184.949C126.378 184.179 126.67 183.582 127.253 183.158C127.841 182.73 128.666 182.516 129.728 182.516H130.958V181.935C130.958 181.493 130.826 181.142 130.562 180.882C130.297 180.618 129.908 180.485 129.393 180.485C128.941 180.485 128.563 180.599 128.258 180.827C127.952 181.055 127.8 181.331 127.8 181.654H126.528C126.528 181.285 126.658 180.93 126.918 180.588C127.182 180.242 127.538 179.968 127.984 179.768C128.436 179.567 128.93 179.467 129.468 179.467C130.32 179.467 130.988 179.681 131.471 180.109C131.954 180.533 132.204 181.119 132.223 181.866V185.271C132.223 185.95 132.309 186.49 132.482 186.891V187H131.156ZM129.058 186.036C129.454 186.036 129.83 185.934 130.186 185.729C130.541 185.523 130.799 185.257 130.958 184.929V183.411H129.967C128.417 183.411 127.643 183.865 127.643 184.771C127.643 185.168 127.775 185.478 128.039 185.701C128.303 185.924 128.643 186.036 129.058 186.036ZM140.717 183.384C140.717 184.514 140.457 185.423 139.938 186.111C139.418 186.795 138.721 187.137 137.846 187.137C136.911 187.137 136.189 186.806 135.679 186.146L135.617 187H134.455V176.5H135.72V180.417C136.23 179.784 136.934 179.467 137.832 179.467C138.73 179.467 139.434 179.806 139.944 180.485C140.459 181.164 140.717 182.094 140.717 183.274V183.384ZM139.452 183.24C139.452 182.379 139.286 181.714 138.953 181.244C138.62 180.775 138.142 180.54 137.518 180.54C136.684 180.54 136.084 180.927 135.72 181.702V184.901C136.107 185.676 136.711 186.063 137.531 186.063C138.137 186.063 138.609 185.829 138.946 185.359C139.284 184.89 139.452 184.184 139.452 183.24ZM143.94 187H142.676V179.604H143.94V187ZM142.573 177.642C142.573 177.437 142.635 177.263 142.758 177.122C142.885 176.981 143.072 176.91 143.318 176.91C143.564 176.91 143.751 176.981 143.879 177.122C144.007 177.263 144.07 177.437 144.07 177.642C144.07 177.847 144.007 178.018 143.879 178.154C143.751 178.291 143.564 178.359 143.318 178.359C143.072 178.359 142.885 178.291 142.758 178.154C142.635 178.018 142.573 177.847 142.573 177.642ZM147.937 177.812V179.604H149.317V180.581H147.937V185.168C147.937 185.464 147.998 185.688 148.121 185.838C148.244 185.984 148.454 186.057 148.75 186.057C148.896 186.057 149.096 186.029 149.352 185.975V187C149.019 187.091 148.695 187.137 148.381 187.137C147.816 187.137 147.39 186.966 147.103 186.624C146.815 186.282 146.672 185.797 146.672 185.168V180.581H145.325V179.604H146.672V177.812H147.937ZM161.165 187H154.644V186.091L158.089 182.263C158.599 181.684 158.95 181.215 159.142 180.854C159.338 180.49 159.436 180.114 159.436 179.727C159.436 179.207 159.278 178.781 158.964 178.448C158.649 178.116 158.23 177.949 157.706 177.949C157.077 177.949 156.587 178.129 156.236 178.489C155.89 178.845 155.717 179.341 155.717 179.979H154.452C154.452 179.063 154.746 178.323 155.334 177.758C155.926 177.193 156.717 176.91 157.706 176.91C158.631 176.91 159.363 177.154 159.9 177.642C160.438 178.125 160.707 178.77 160.707 179.576C160.707 180.556 160.083 181.723 158.834 183.076L156.168 185.968H161.165V187Z" fill="black" fill-opacity="0.6"/>
<path fill-rule="evenodd" clip-rule="evenodd" d="M383 168C384.1 168 385 167.1 385 166C385 164.9 384.1 164 383 164C381.9 164 381 164.9 381 166C381 167.1 381.9 168 383 168ZM383 170C381.9 170 381 170.9 381 172C381 173.1 381.9 174 383 174C384.1 174 385 173.1 385 172C385 170.9 384.1 170 383 170ZM383 176C381.9 176 381 176.9 381 178C381 179.1 381.9 180 383 180C384.1 180 385 179.1 385 178C385 176.9 384.1 176 383 176Z" fill="black" fill-opacity="0.6"/>
<rect x="18.2667" y="203" width="392.733" height="1" fill="#212121" fill-opacity="0.08"/>
</g>
<g filter="url(#filter1_ddd)">
<rect width="411" height="56" fill="#6200EE"/>
<path fill-rule="evenodd" clip-rule="evenodd" d="M287 38C288.1 38 289 37.1 289 36H285C285 37.1 285.89 38 287 38ZM293 32V27C293 23.93 291.36 21.36 288.5 20.68V20C288.5 19.17 287.83 18.5 287 18.5C286.17 18.5 285.5 19.17 285.5 20V20.68C282.63 21.36 281 23.92 281 27V32L279 34V35H295V34L293 32Z" fill="white" fill-opacity="0.74"/>
<path fill-rule="evenodd" clip-rule="evenodd" d="M341 32.08C340.24 32.08 339.56 32.38 339.04 32.85L331.91 28.7C331.96 28.47 332 28.24 332 28C332 27.76 331.96 27.53 331.91 27.3L338.96 23.19C339.5 23.69 340.21 24 341 24C342.66 24 344 22.66 344 21C344 19.34 342.66 18 341 18C339.34 18 338 19.34 338 21C338 21.24 338.04 21.47 338.09 21.7L331.04 25.81C330.5 25.31 329.79 25 329 25C327.34 25 326 26.34 326 28C326 29.66 327.34 31 329 31C329.79 31 330.5 30.69 331.04 30.19L338.16 34.35C338.11 34.56 338.08 34.78 338.08 35C338.08 36.61 339.39 37.92 341 37.92C342.61 37.92 343.92 36.61 343.92 35C343.92 33.39 342.61 32.08 341 32.08Z" fill="white" fill-opacity="0.74"/>
<path fill-rule="evenodd" clip-rule="evenodd" d="M386.5 30H385.71L385.43 29.73C386.41 28.59 387 27.11 387 25.5C387 21.91 384.09 19 380.5 19C376.91 19 374 21.91 374 25.5C374 29.09 376.91 32 380.5 32C382.11 32 383.59 31.41 384.73 30.43L385 30.71V31.5L390 36.49L391.49 35L386.5 30ZM380.5 30C378.01 30 376 27.99 376 25.5C376 23.01 378.01 21 380.5 21C382.99 21 385 23.01 385 25.5C385 27.99 382.99 30 380.5 30Z" fill="white" fill-opacity="0.74"/>
<path fill-rule="evenodd" clip-rule="evenodd" d="M19 34H37V32H19V34ZM19 29H37V27H19V29ZM19 22V24H37V22H19Z" fill="white" fill-opacity="0.74"/>
</g>
<g filter="url(#filter2_d)">
<mask id="mask2" style="mask-type:alpha" maskUnits="userSpaceOnUse" x="287" y="12" width="16" height="16">
<path fill-rule="evenodd" clip-rule="evenodd" d="M295 28C299.418 28 303 24.4183 303 20C303 15.5817 299.418 12 295 12C290.582 12 287 15.5817 287 20C287 24.4183 290.582 28 295 28Z" fill="white"/>
</mask>
<g mask="url(#mask2)">
<rect x="287" y="12" width="40" height="40" fill="#B00020"/>
<path d="M296.255 23H295.192V17.8628L293.623 18.3989V17.498L296.119 16.5796H296.255V23Z" fill="white"/>
</g>
</g>
<g filter="url(#filter3_ddd)">
<rect width="274" height="154" transform="translate(13 40)" fill="white"/>
<path d="M38.3281 61.625V69.3594C38.3229 70.4323 37.9844 71.3099 37.3125 71.9922C36.6458 72.6745 35.7396 73.0573 34.5938 73.1406L34.1953 73.1562C32.9505 73.1562 31.9583 72.8203 31.2188 72.1484C30.4792 71.4766 30.1042 70.5521 30.0938 69.375V61.625H31.5781V69.3281C31.5781 70.151 31.8047 70.7917 32.2578 71.25C32.7109 71.7031 33.3568 71.9297 34.1953 71.9297C35.0443 71.9297 35.6927 71.7031 36.1406 71.25C36.5938 70.7969 36.8203 70.1589 36.8203 69.3359V61.625H38.3281ZM45.5406 70.7578C45.5406 70.3672 45.3922 70.0651 45.0953 69.8516C44.8036 69.6328 44.2906 69.4453 43.5562 69.2891C42.8271 69.1328 42.2464 68.9453 41.8141 68.7266C41.387 68.5078 41.0693 68.2474 40.8609 67.9453C40.6578 67.6432 40.5562 67.2839 40.5562 66.8672C40.5562 66.1745 40.8479 65.5885 41.4312 65.1094C42.0198 64.6302 42.7698 64.3906 43.6812 64.3906C44.6396 64.3906 45.4156 64.638 46.0094 65.1328C46.6083 65.6276 46.9078 66.2604 46.9078 67.0312H45.4547C45.4547 66.6354 45.2854 66.2943 44.9469 66.0078C44.6135 65.7214 44.1917 65.5781 43.6812 65.5781C43.1552 65.5781 42.7437 65.6927 42.4469 65.9219C42.15 66.151 42.0016 66.4505 42.0016 66.8203C42.0016 67.1693 42.1396 67.4323 42.4156 67.6094C42.6917 67.7865 43.1891 67.9557 43.9078 68.1172C44.6318 68.2786 45.2177 68.4714 45.6656 68.6953C46.1135 68.9193 46.4443 69.1901 46.6578 69.5078C46.8766 69.8203 46.9859 70.2031 46.9859 70.6562C46.9859 71.4115 46.6839 72.0182 46.0797 72.4766C45.4755 72.9297 44.6917 73.1562 43.7281 73.1562C43.051 73.1562 42.4521 73.0365 41.9312 72.7969C41.4104 72.5573 41.0016 72.224 40.7047 71.7969C40.413 71.3646 40.2672 70.8984 40.2672 70.3984H41.7125C41.7385 70.8828 41.9312 71.2682 42.2906 71.5547C42.6552 71.8359 43.1344 71.9766 43.7281 71.9766C44.275 71.9766 44.7125 71.8672 45.0406 71.6484C45.374 71.4245 45.5406 71.1276 45.5406 70.7578ZM52.5266 73.1562C51.3807 73.1562 50.4484 72.7812 49.7297 72.0312C49.0109 71.276 48.6516 70.2682 48.6516 69.0078V68.7422C48.6516 67.9036 48.8104 67.1562 49.1281 66.5C49.451 65.8385 49.899 65.3229 50.4719 64.9531C51.05 64.5781 51.675 64.3906 52.3469 64.3906C53.4458 64.3906 54.3 64.7526 54.9094 65.4766C55.5187 66.2005 55.8234 67.237 55.8234 68.5859V69.1875H50.0969C50.1177 70.0208 50.3599 70.6953 50.8234 71.2109C51.2922 71.7214 51.8859 71.9766 52.6047 71.9766C53.1151 71.9766 53.5474 71.8724 53.9016 71.6641C54.2557 71.4557 54.5656 71.1797 54.8312 70.8359L55.7141 71.5234C55.0057 72.612 53.9432 73.1562 52.5266 73.1562ZM52.3469 65.5781C51.7635 65.5781 51.274 65.7917 50.8781 66.2188C50.4823 66.6406 50.2375 67.2344 50.1437 68H54.3781V67.8906C54.3365 67.1562 54.1385 66.5885 53.7844 66.1875C53.4302 65.7812 52.951 65.5781 52.3469 65.5781ZM61.7391 65.8438C61.5203 65.8073 61.2833 65.7891 61.0281 65.7891C60.0802 65.7891 59.437 66.1927 59.0984 67V73H57.6531V64.5469H59.0594L59.0828 65.5234C59.5568 64.7682 60.2286 64.3906 61.0984 64.3906C61.3797 64.3906 61.5932 64.4271 61.7391 64.5V65.8438ZM71.9453 73H70.4922V63.3672L67.5781 64.4375V63.125L71.7188 61.5703H71.9453V73Z" fill="black" fill-opacity="0.87"/>
<path d="M34.8301 87.8906V92.7246C34.8268 93.3952 34.6152 93.9437 34.1953 94.3701C33.7786 94.7965 33.2122 95.0358 32.4961 95.0879L32.2471 95.0977C31.4691 95.0977 30.849 94.8877 30.3867 94.4678C29.9245 94.0479 29.6901 93.4701 29.6836 92.7344V87.8906H30.6113V92.7051C30.6113 93.2194 30.7529 93.6198 31.0361 93.9062C31.3193 94.1895 31.723 94.3311 32.2471 94.3311C32.7777 94.3311 33.1829 94.1895 33.4629 93.9062C33.7461 93.623 33.8877 93.2243 33.8877 92.71V87.8906H34.8301ZM39.3941 93.5986C39.3941 93.3545 39.3014 93.1657 39.1158 93.0322C38.9335 92.8955 38.6129 92.7783 38.1539 92.6807C37.6982 92.583 37.3352 92.4658 37.065 92.3291C36.7981 92.1924 36.5995 92.0296 36.4693 91.8408C36.3424 91.652 36.2789 91.4274 36.2789 91.167C36.2789 90.734 36.4612 90.3678 36.8258 90.0684C37.1936 89.7689 37.6624 89.6191 38.232 89.6191C38.831 89.6191 39.316 89.7738 39.6871 90.083C40.0615 90.3923 40.2486 90.7878 40.2486 91.2695H39.3404C39.3404 91.0221 39.2346 90.8089 39.023 90.6299C38.8147 90.4508 38.551 90.3613 38.232 90.3613C37.9033 90.3613 37.6461 90.4329 37.4605 90.5762C37.275 90.7194 37.1822 90.9066 37.1822 91.1377C37.1822 91.3558 37.2685 91.5202 37.441 91.6309C37.6135 91.7415 37.9244 91.8473 38.3736 91.9482C38.8261 92.0492 39.1923 92.1696 39.4723 92.3096C39.7522 92.4495 39.9589 92.6188 40.0924 92.8174C40.2291 93.0127 40.2975 93.252 40.2975 93.5352C40.2975 94.0072 40.1087 94.3864 39.7311 94.6729C39.3535 94.9561 38.8635 95.0977 38.2613 95.0977C37.8382 95.0977 37.4638 95.0228 37.1383 94.873C36.8128 94.7233 36.5572 94.515 36.3717 94.248C36.1894 93.9779 36.0982 93.6865 36.0982 93.374H37.0016C37.0178 93.6768 37.1383 93.9176 37.3629 94.0967C37.5908 94.2725 37.8902 94.3604 38.2613 94.3604C38.6031 94.3604 38.8766 94.292 39.0816 94.1553C39.29 94.0153 39.3941 93.8298 39.3941 93.5986ZM43.8166 95.0977C43.1005 95.0977 42.5178 94.8633 42.0686 94.3945C41.6193 93.9225 41.3947 93.2926 41.3947 92.5049V92.3389C41.3947 91.8148 41.494 91.3477 41.6926 90.9375C41.8944 90.5241 42.1743 90.2018 42.5324 89.9707C42.8938 89.7363 43.2844 89.6191 43.7043 89.6191C44.3911 89.6191 44.925 89.8454 45.3059 90.2979C45.6867 90.7503 45.8771 91.3981 45.8771 92.2412V92.6172H42.298C42.3111 93.138 42.4624 93.5596 42.7521 93.8818C43.0451 94.2008 43.4162 94.3604 43.8654 94.3604C44.1844 94.3604 44.4546 94.2952 44.676 94.165C44.8973 94.0348 45.091 93.8623 45.257 93.6475L45.8088 94.0771C45.3661 94.7575 44.702 95.0977 43.8166 95.0977ZM43.7043 90.3613C43.3397 90.3613 43.0337 90.4948 42.7863 90.7617C42.5389 91.0254 42.3859 91.3965 42.3273 91.875H44.9738V91.8066C44.9478 91.3477 44.8241 90.9928 44.6027 90.7422C44.3814 90.4883 44.0819 90.3613 43.7043 90.3613ZM49.6307 90.5273C49.4939 90.5046 49.3458 90.4932 49.1863 90.4932C48.5939 90.4932 48.1919 90.7454 47.9803 91.25V95H47.077V89.7168H47.9559L47.9705 90.3271C48.2667 89.8551 48.6867 89.6191 49.2303 89.6191C49.4061 89.6191 49.5395 89.6419 49.6307 89.6875V90.5273ZM56.1221 95H55.2139V88.9795L53.3926 89.6484V88.8281L55.9805 87.8564H56.1221V95ZM66.3195 93.7549L67.3352 89.7168H68.2385L66.7004 95H65.968L64.6838 90.9961L63.4338 95H62.7014L61.1682 89.7168H62.0666L63.1066 93.6719L64.3371 89.7168H65.0646L66.3195 93.7549ZM72.573 95C72.521 94.8958 72.4786 94.7103 72.4461 94.4434C72.0262 94.8796 71.5249 95.0977 70.9422 95.0977C70.4214 95.0977 69.9933 94.9512 69.658 94.6582C69.326 94.362 69.16 93.9876 69.16 93.5352C69.16 92.985 69.3683 92.5586 69.785 92.2559C70.2049 91.9499 70.7941 91.7969 71.5525 91.7969H72.4314V91.3818C72.4314 91.0661 72.337 90.8154 72.1482 90.6299C71.9594 90.4411 71.6811 90.3467 71.3133 90.3467C70.991 90.3467 70.7208 90.4281 70.5027 90.5908C70.2846 90.7536 70.1756 90.9505 70.1756 91.1816H69.2674C69.2674 90.918 69.3602 90.6641 69.5457 90.4199C69.7345 90.1725 69.9884 89.9772 70.3074 89.834C70.6297 89.6908 70.9829 89.6191 71.367 89.6191C71.9757 89.6191 72.4526 89.7721 72.7977 90.0781C73.1427 90.3809 73.3217 90.7992 73.3348 91.333V93.7646C73.3348 94.2497 73.3966 94.6354 73.5203 94.9219V95H72.573ZM71.074 94.3115C71.3572 94.3115 71.6258 94.2383 71.8797 94.0918C72.1336 93.9453 72.3175 93.7549 72.4314 93.5205V92.4365H71.7234C70.6167 92.4365 70.0633 92.7604 70.0633 93.4082C70.0633 93.6914 70.1577 93.9128 70.3465 94.0723C70.5353 94.2318 70.7778 94.3115 71.074 94.3115ZM75.7553 89.7168L75.7846 90.3809C76.1882 89.873 76.7156 89.6191 77.3666 89.6191C78.4831 89.6191 79.0463 90.249 79.0561 91.5088V95H78.1527V91.5039C78.1495 91.123 78.0616 90.8415 77.8891 90.6592C77.7198 90.4769 77.4545 90.3857 77.0932 90.3857C76.8002 90.3857 76.543 90.4639 76.3217 90.6201C76.1003 90.7764 75.9278 90.9814 75.8041 91.2354V95H74.9008V89.7168H75.7553ZM81.7939 88.4375V89.7168H82.7803V90.415H81.7939V93.6914C81.7939 93.903 81.8379 94.0625 81.9258 94.1699C82.0137 94.2741 82.1634 94.3262 82.375 94.3262C82.4792 94.3262 82.6224 94.3066 82.8047 94.2676V95C82.5671 95.0651 82.3359 95.0977 82.1113 95.0977C81.7077 95.0977 81.4033 94.9756 81.1982 94.7314C80.9932 94.4873 80.8906 94.1406 80.8906 93.6914V90.415H79.9287V89.7168H80.8906V88.4375H81.7939ZM87.066 93.5986C87.066 93.3545 86.9732 93.1657 86.7877 93.0322C86.6054 92.8955 86.2848 92.7783 85.8258 92.6807C85.3701 92.583 85.0071 92.4658 84.7369 92.3291C84.47 92.1924 84.2714 92.0296 84.1412 91.8408C84.0143 91.652 83.9508 91.4274 83.9508 91.167C83.9508 90.734 84.1331 90.3678 84.4977 90.0684C84.8655 89.7689 85.3342 89.6191 85.9039 89.6191C86.5029 89.6191 86.9879 89.7738 87.359 90.083C87.7333 90.3923 87.9205 90.7878 87.9205 91.2695H87.0123C87.0123 91.0221 86.9065 90.8089 86.6949 90.6299C86.4866 90.4508 86.2229 90.3613 85.9039 90.3613C85.5751 90.3613 85.318 90.4329 85.1324 90.5762C84.9469 90.7194 84.8541 90.9066 84.8541 91.1377C84.8541 91.3558 84.9404 91.5202 85.1129 91.6309C85.2854 91.7415 85.5963 91.8473 86.0455 91.9482C86.498 92.0492 86.8642 92.1696 87.1441 92.3096C87.4241 92.4495 87.6308 92.6188 87.7643 92.8174C87.901 93.0127 87.9693 93.252 87.9693 93.5352C87.9693 94.0072 87.7805 94.3864 87.4029 94.6729C87.0253 94.9561 86.5354 95.0977 85.9332 95.0977C85.51 95.0977 85.1357 95.0228 84.8102 94.873C84.4846 94.7233 84.2291 94.515 84.0436 94.248C83.8613 93.9779 83.7701 93.6865 83.7701 93.374H84.6734C84.6897 93.6768 84.8102 93.9176 85.0348 94.0967C85.2626 94.2725 85.5621 94.3604 85.9332 94.3604C86.275 94.3604 86.5484 94.292 86.7535 94.1553C86.9619 94.0153 87.066 93.8298 87.066 93.5986ZM93.1521 88.4375V89.7168H94.1385V90.415H93.1521V93.6914C93.1521 93.903 93.1961 94.0625 93.284 94.1699C93.3719 94.2741 93.5216 94.3262 93.7332 94.3262C93.8374 94.3262 93.9806 94.3066 94.1629 94.2676V95C93.9253 95.0651 93.6941 95.0977 93.4695 95.0977C93.0659 95.0977 92.7615 94.9756 92.5564 94.7314C92.3514 94.4873 92.2488 94.1406 92.2488 93.6914V90.415H91.2869V89.7168H92.2488V88.4375H93.1521ZM95.0111 92.3096C95.0111 91.792 95.112 91.3265 95.3139 90.9131C95.5189 90.4997 95.8021 90.1807 96.1635 89.9561C96.5281 89.7314 96.9431 89.6191 97.4086 89.6191C98.128 89.6191 98.709 89.8682 99.1518 90.3662C99.5977 90.8643 99.8207 91.5267 99.8207 92.3535V92.417C99.8207 92.9313 99.7214 93.3936 99.5229 93.8037C99.3275 94.2106 99.046 94.528 98.6781 94.7559C98.3135 94.9837 97.8936 95.0977 97.4184 95.0977C96.7022 95.0977 96.1212 94.8486 95.6752 94.3506C95.2325 93.8525 95.0111 93.1934 95.0111 92.373V92.3096ZM95.9193 92.417C95.9193 93.0029 96.0544 93.4733 96.3246 93.8281C96.598 94.1829 96.9626 94.3604 97.4184 94.3604C97.8773 94.3604 98.2419 94.1813 98.5121 93.8232C98.7823 93.4619 98.9174 92.9574 98.9174 92.3096C98.9174 91.7301 98.779 91.2614 98.5023 90.9033C98.2289 90.542 97.8643 90.3613 97.4086 90.3613C96.9626 90.3613 96.6029 90.5387 96.3295 90.8936C96.0561 91.2484 95.9193 91.7562 95.9193 92.417ZM104.178 95V90.415H103.343V89.7168H104.178V89.1748C104.178 88.6084 104.33 88.1706 104.632 87.8613C104.935 87.5521 105.363 87.3975 105.917 87.3975C106.125 87.3975 106.332 87.4251 106.537 87.4805L106.488 88.2129C106.335 88.1836 106.172 88.1689 106 88.1689C105.707 88.1689 105.48 88.2552 105.321 88.4277C105.161 88.597 105.082 88.8411 105.082 89.1602V89.7168H106.21V90.415H105.082V95H104.178ZM107.121 92.3096C107.121 91.792 107.222 91.3265 107.424 90.9131C107.629 90.4997 107.912 90.1807 108.274 89.9561C108.638 89.7314 109.053 89.6191 109.519 89.6191C110.238 89.6191 110.819 89.8682 111.262 90.3662C111.708 90.8643 111.931 91.5267 111.931 92.3535V92.417C111.931 92.9313 111.832 93.3936 111.633 93.8037C111.438 94.2106 111.156 94.528 110.788 94.7559C110.424 94.9837 110.004 95.0977 109.529 95.0977C108.812 95.0977 108.231 94.8486 107.785 94.3506C107.343 93.8525 107.121 93.1934 107.121 92.373V92.3096ZM108.029 92.417C108.029 93.0029 108.165 93.4733 108.435 93.8281C108.708 94.1829 109.073 94.3604 109.529 94.3604C109.988 94.3604 110.352 94.1813 110.622 93.8232C110.892 93.4619 111.028 92.9574 111.028 92.3096C111.028 91.7301 110.889 91.2614 110.613 90.9033C110.339 90.542 109.974 90.3613 109.519 90.3613C109.073 90.3613 108.713 90.5387 108.44 90.8936C108.166 91.2484 108.029 91.7562 108.029 92.417ZM114.195 95H113.292V87.5H114.195V95ZM116.777 95H115.873V87.5H116.777V95ZM118.138 92.3096C118.138 91.792 118.239 91.3265 118.44 90.9131C118.646 90.4997 118.929 90.1807 119.29 89.9561C119.655 89.7314 120.07 89.6191 120.535 89.6191C121.255 89.6191 121.836 89.8682 122.278 90.3662C122.724 90.8643 122.947 91.5267 122.947 92.3535V92.417C122.947 92.9313 122.848 93.3936 122.649 93.8037C122.454 94.2106 122.173 94.528 121.805 94.7559C121.44 94.9837 121.02 95.0977 120.545 95.0977C119.829 95.0977 119.248 94.8486 118.802 94.3506C118.359 93.8525 118.138 93.1934 118.138 92.373V92.3096ZM119.046 92.417C119.046 93.0029 119.181 93.4733 119.451 93.8281C119.725 94.1829 120.089 94.3604 120.545 94.3604C121.004 94.3604 121.368 94.1813 121.639 93.8232C121.909 93.4619 122.044 92.9574 122.044 92.3096C122.044 91.7301 121.906 91.2614 121.629 90.9033C121.355 90.542 120.991 90.3613 120.535 90.3613C120.089 90.3613 119.729 90.5387 119.456 90.8936C119.183 91.2484 119.046 91.7562 119.046 92.417ZM128.908 93.7549L129.923 89.7168H130.827L129.289 95H128.556L127.272 90.9961L126.022 95H125.29L123.756 89.7168H124.655L125.695 93.6719L126.925 89.7168H127.653L128.908 93.7549ZM136.259 93.6768L137.489 89.7168H138.456L136.332 95.8154C136.003 96.6943 135.481 97.1338 134.764 97.1338L134.594 97.1191L134.257 97.0557V96.3232L134.501 96.3428C134.807 96.3428 135.044 96.2809 135.214 96.1572C135.386 96.0335 135.528 95.8073 135.638 95.4785L135.839 94.9414L133.954 89.7168H134.94L136.259 93.6768ZM139.099 92.3096C139.099 91.792 139.2 91.3265 139.402 90.9131C139.607 90.4997 139.89 90.1807 140.251 89.9561C140.616 89.7314 141.031 89.6191 141.496 89.6191C142.216 89.6191 142.797 89.8682 143.24 90.3662C143.686 90.8643 143.909 91.5267 143.909 92.3535V92.417C143.909 92.9313 143.809 93.3936 143.611 93.8037C143.415 94.2106 143.134 94.528 142.766 94.7559C142.401 94.9837 141.982 95.0977 141.506 95.0977C140.79 95.0977 140.209 94.8486 139.763 94.3506C139.32 93.8525 139.099 93.1934 139.099 92.373V92.3096ZM140.007 92.417C140.007 93.0029 140.142 93.4733 140.412 93.8281C140.686 94.1829 141.051 94.3604 141.506 94.3604C141.965 94.3604 142.33 94.1813 142.6 93.8232C142.87 93.4619 143.005 92.9574 143.005 92.3096C143.005 91.7301 142.867 91.2614 142.59 90.9033C142.317 90.542 141.952 90.3613 141.496 90.3613C141.051 90.3613 140.691 90.5387 140.417 90.8936C140.144 91.2484 140.007 91.7562 140.007 92.417ZM148.453 94.4775C148.102 94.891 147.586 95.0977 146.905 95.0977C146.342 95.0977 145.912 94.9349 145.616 94.6094C145.323 94.2806 145.175 93.7956 145.172 93.1543V89.7168H146.075V93.1299C146.075 93.9307 146.401 94.3311 147.052 94.3311C147.742 94.3311 148.201 94.0739 148.429 93.5596V89.7168H149.332V95H148.473L148.453 94.4775ZM153.413 90.5273C153.276 90.5046 153.128 90.4932 152.968 90.4932C152.376 90.4932 151.974 90.7454 151.762 91.25V95H150.859V89.7168H151.738L151.753 90.3271C152.049 89.8551 152.469 89.6191 153.012 89.6191C153.188 89.6191 153.322 89.6419 153.413 89.6875V90.5273ZM157.931 90.3564C158.332 89.8649 158.853 89.6191 159.494 89.6191C160.61 89.6191 161.174 90.249 161.183 91.5088V95H160.28V91.5039C160.277 91.123 160.189 90.8415 160.016 90.6592C159.847 90.4769 159.582 90.3857 159.221 90.3857C158.928 90.3857 158.67 90.4639 158.449 90.6201C158.228 90.7764 158.055 90.9814 157.931 91.2354V95H157.028V87.5H157.931V90.3564ZM165.948 95C165.896 94.8958 165.853 94.7103 165.821 94.4434C165.401 94.8796 164.899 95.0977 164.317 95.0977C163.796 95.0977 163.368 94.9512 163.033 94.6582C162.701 94.362 162.535 93.9876 162.535 93.5352C162.535 92.985 162.743 92.5586 163.16 92.2559C163.579 91.9499 164.169 91.7969 164.927 91.7969H165.806V91.3818C165.806 91.0661 165.712 90.8154 165.523 90.6299C165.334 90.4411 165.056 90.3467 164.688 90.3467C164.366 90.3467 164.095 90.4281 163.877 90.5908C163.659 90.7536 163.55 90.9505 163.55 91.1816H162.642C162.642 90.918 162.735 90.6641 162.92 90.4199C163.109 90.1725 163.363 89.9772 163.682 89.834C164.004 89.6908 164.357 89.6191 164.742 89.6191C165.35 89.6191 165.827 89.7721 166.172 90.0781C166.517 90.3809 166.696 90.7992 166.709 91.333V93.7646C166.709 94.2497 166.771 94.6354 166.895 94.9219V95H165.948ZM164.449 94.3115C164.732 94.3115 165 94.2383 165.254 94.0918C165.508 93.9453 165.692 93.7549 165.806 93.5205V92.4365H165.098C163.991 92.4365 163.438 92.7604 163.438 93.4082C163.438 93.6914 163.532 93.9128 163.721 94.0723C163.91 94.2318 164.152 94.3115 164.449 94.3115ZM172.748 92.417C172.748 93.2243 172.562 93.8737 172.191 94.3652C171.82 94.8535 171.322 95.0977 170.697 95.0977C170.03 95.0977 169.514 94.8617 169.149 94.3896L169.105 95H168.275V87.5H169.179V90.2979C169.543 89.8454 170.046 89.6191 170.688 89.6191C171.329 89.6191 171.832 89.8617 172.196 90.3467C172.564 90.8317 172.748 91.4958 172.748 92.3389V92.417ZM171.845 92.3145C171.845 91.6992 171.726 91.224 171.488 90.8887C171.251 90.5534 170.909 90.3857 170.463 90.3857C169.867 90.3857 169.439 90.6624 169.179 91.2158V93.501C169.455 94.0544 169.887 94.3311 170.473 94.3311C170.906 94.3311 171.243 94.1634 171.483 93.8281C171.724 93.4928 171.845 92.9883 171.845 92.3145ZM175.022 95H174.119V89.7168H175.022V95ZM174.046 88.3154C174.046 88.1689 174.089 88.0452 174.177 87.9443C174.268 87.8434 174.402 87.793 174.578 87.793C174.754 87.793 174.887 87.8434 174.978 87.9443C175.069 88.0452 175.115 88.1689 175.115 88.3154C175.115 88.4619 175.069 88.584 174.978 88.6816C174.887 88.7793 174.754 88.8281 174.578 88.8281C174.402 88.8281 174.268 88.7793 174.177 88.6816C174.089 88.584 174.046 88.4619 174.046 88.3154ZM177.848 88.4375V89.7168H178.834V90.415H177.848V93.6914C177.848 93.903 177.892 94.0625 177.98 94.1699C178.068 94.2741 178.217 94.3262 178.429 94.3262C178.533 94.3262 178.676 94.3066 178.859 94.2676V95C178.621 95.0651 178.39 95.0977 178.165 95.0977C177.762 95.0977 177.457 94.9756 177.252 94.7314C177.047 94.4873 176.945 94.1406 176.945 93.6914V90.415H175.983V89.7168H176.945V88.4375H177.848Z" fill="black" fill-opacity="0.6"/>
<path fill-rule="evenodd" clip-rule="evenodd" d="M214.5 84.2L210.3 80L208.9 81.4L214.5 87L226.5 75L225.1 73.6L214.5 84.2Z" fill="black" fill-opacity="0.87"/>
<path fill-rule="evenodd" clip-rule="evenodd" d="M274 74.41L272.59 73L267 78.59L261.41 73L260 74.41L265.59 80L260 85.59L261.41 87L267 81.41L272.59 87L274 85.59L268.41 80L274 74.41Z" fill="black" fill-opacity="0.87"/>
<path d="M38.3281 135.625V143.359C38.3229 144.432 37.9844 145.31 37.3125 145.992C36.6458 146.674 35.7396 147.057 34.5938 147.141L34.1953 147.156C32.9505 147.156 31.9583 146.82 31.2188 146.148C30.4792 145.477 30.1042 144.552 30.0938 143.375V135.625H31.5781V143.328C31.5781 144.151 31.8047 144.792 32.2578 145.25C32.7109 145.703 33.3568 145.93 34.1953 145.93C35.0443 145.93 35.6927 145.703 36.1406 145.25C36.5938 144.797 36.8203 144.159 36.8203 143.336V135.625H38.3281ZM45.5406 144.758C45.5406 144.367 45.3922 144.065 45.0953 143.852C44.8036 143.633 44.2906 143.445 43.5562 143.289C42.8271 143.133 42.2464 142.945 41.8141 142.727C41.387 142.508 41.0693 142.247 40.8609 141.945C40.6578 141.643 40.5562 141.284 40.5562 140.867C40.5562 140.174 40.8479 139.589 41.4312 139.109C42.0198 138.63 42.7698 138.391 43.6812 138.391C44.6396 138.391 45.4156 138.638 46.0094 139.133C46.6083 139.628 46.9078 140.26 46.9078 141.031H45.4547C45.4547 140.635 45.2854 140.294 44.9469 140.008C44.6135 139.721 44.1917 139.578 43.6812 139.578C43.1552 139.578 42.7437 139.693 42.4469 139.922C42.15 140.151 42.0016 140.451 42.0016 140.82C42.0016 141.169 42.1396 141.432 42.4156 141.609C42.6917 141.786 43.1891 141.956 43.9078 142.117C44.6318 142.279 45.2177 142.471 45.6656 142.695C46.1135 142.919 46.4443 143.19 46.6578 143.508C46.8766 143.82 46.9859 144.203 46.9859 144.656C46.9859 145.411 46.6839 146.018 46.0797 146.477C45.4755 146.93 44.6917 147.156 43.7281 147.156C43.051 147.156 42.4521 147.036 41.9312 146.797C41.4104 146.557 41.0016 146.224 40.7047 145.797C40.413 145.365 40.2672 144.898 40.2672 144.398H41.7125C41.7385 144.883 41.9312 145.268 42.2906 145.555C42.6552 145.836 43.1344 145.977 43.7281 145.977C44.275 145.977 44.7125 145.867 45.0406 145.648C45.374 145.424 45.5406 145.128 45.5406 144.758ZM52.5266 147.156C51.3807 147.156 50.4484 146.781 49.7297 146.031C49.0109 145.276 48.6516 144.268 48.6516 143.008V142.742C48.6516 141.904 48.8104 141.156 49.1281 140.5C49.451 139.839 49.899 139.323 50.4719 138.953C51.05 138.578 51.675 138.391 52.3469 138.391C53.4458 138.391 54.3 138.753 54.9094 139.477C55.5187 140.201 55.8234 141.237 55.8234 142.586V143.188H50.0969C50.1177 144.021 50.3599 144.695 50.8234 145.211C51.2922 145.721 51.8859 145.977 52.6047 145.977C53.1151 145.977 53.5474 145.872 53.9016 145.664C54.2557 145.456 54.5656 145.18 54.8312 144.836L55.7141 145.523C55.0057 146.612 53.9432 147.156 52.5266 147.156ZM52.3469 139.578C51.7635 139.578 51.274 139.792 50.8781 140.219C50.4823 140.641 50.2375 141.234 50.1437 142H54.3781V141.891C54.3365 141.156 54.1385 140.589 53.7844 140.188C53.4302 139.781 52.951 139.578 52.3469 139.578ZM61.7391 139.844C61.5203 139.807 61.2833 139.789 61.0281 139.789C60.0802 139.789 59.437 140.193 59.0984 141V147H57.6531V138.547H59.0594L59.0828 139.523C59.5568 138.768 60.2286 138.391 61.0984 138.391C61.3797 138.391 61.5932 138.427 61.7391 138.5V139.844ZM69.2969 140.609H70.3828C71.0651 140.599 71.6016 140.419 71.9922 140.07C72.3828 139.721 72.5781 139.25 72.5781 138.656C72.5781 137.323 71.9141 136.656 70.5859 136.656C69.9609 136.656 69.4609 136.836 69.0859 137.195C68.7161 137.549 68.5312 138.021 68.5312 138.609H67.0859C67.0859 137.708 67.4141 136.961 68.0703 136.367C68.7318 135.768 69.5703 135.469 70.5859 135.469C71.6589 135.469 72.5 135.753 73.1094 136.32C73.7188 136.888 74.0234 137.677 74.0234 138.688C74.0234 139.182 73.862 139.661 73.5391 140.125C73.2214 140.589 72.7865 140.935 72.2344 141.164C72.8594 141.362 73.3411 141.69 73.6797 142.148C74.0234 142.607 74.1953 143.167 74.1953 143.828C74.1953 144.849 73.862 145.659 73.1953 146.258C72.5286 146.857 71.6615 147.156 70.5938 147.156C69.526 147.156 68.6562 146.867 67.9844 146.289C67.3177 145.711 66.9844 144.948 66.9844 144H68.4375C68.4375 144.599 68.6328 145.078 69.0234 145.438C69.4141 145.797 69.9375 145.977 70.5938 145.977C71.2917 145.977 71.8255 145.794 72.1953 145.43C72.5651 145.065 72.75 144.542 72.75 143.859C72.75 143.198 72.5469 142.69 72.1406 142.336C71.7344 141.982 71.1484 141.799 70.3828 141.789H69.2969V140.609Z" fill="black" fill-opacity="0.87"/>
<path d="M34.8301 161.891V166.725C34.8268 167.395 34.6152 167.944 34.1953 168.37C33.7786 168.797 33.2122 169.036 32.4961 169.088L32.2471 169.098C31.4691 169.098 30.849 168.888 30.3867 168.468C29.9245 168.048 29.6901 167.47 29.6836 166.734V161.891H30.6113V166.705C30.6113 167.219 30.7529 167.62 31.0361 167.906C31.3193 168.189 31.723 168.331 32.2471 168.331C32.7777 168.331 33.1829 168.189 33.4629 167.906C33.7461 167.623 33.8877 167.224 33.8877 166.71V161.891H34.8301ZM39.3941 167.599C39.3941 167.354 39.3014 167.166 39.1158 167.032C38.9335 166.896 38.6129 166.778 38.1539 166.681C37.6982 166.583 37.3352 166.466 37.065 166.329C36.7981 166.192 36.5995 166.03 36.4693 165.841C36.3424 165.652 36.2789 165.427 36.2789 165.167C36.2789 164.734 36.4612 164.368 36.8258 164.068C37.1936 163.769 37.6624 163.619 38.232 163.619C38.831 163.619 39.316 163.774 39.6871 164.083C40.0615 164.392 40.2486 164.788 40.2486 165.27H39.3404C39.3404 165.022 39.2346 164.809 39.023 164.63C38.8147 164.451 38.551 164.361 38.232 164.361C37.9033 164.361 37.6461 164.433 37.4605 164.576C37.275 164.719 37.1822 164.907 37.1822 165.138C37.1822 165.356 37.2685 165.52 37.441 165.631C37.6135 165.742 37.9244 165.847 38.3736 165.948C38.8261 166.049 39.1923 166.17 39.4723 166.31C39.7522 166.45 39.9589 166.619 40.0924 166.817C40.2291 167.013 40.2975 167.252 40.2975 167.535C40.2975 168.007 40.1087 168.386 39.7311 168.673C39.3535 168.956 38.8635 169.098 38.2613 169.098C37.8382 169.098 37.4638 169.023 37.1383 168.873C36.8128 168.723 36.5572 168.515 36.3717 168.248C36.1894 167.978 36.0982 167.687 36.0982 167.374H37.0016C37.0178 167.677 37.1383 167.918 37.3629 168.097C37.5908 168.272 37.8902 168.36 38.2613 168.36C38.6031 168.36 38.8766 168.292 39.0816 168.155C39.29 168.015 39.3941 167.83 39.3941 167.599ZM43.8166 169.098C43.1005 169.098 42.5178 168.863 42.0686 168.395C41.6193 167.923 41.3947 167.293 41.3947 166.505V166.339C41.3947 165.815 41.494 165.348 41.6926 164.938C41.8944 164.524 42.1743 164.202 42.5324 163.971C42.8938 163.736 43.2844 163.619 43.7043 163.619C44.3911 163.619 44.925 163.845 45.3059 164.298C45.6867 164.75 45.8771 165.398 45.8771 166.241V166.617H42.298C42.3111 167.138 42.4624 167.56 42.7521 167.882C43.0451 168.201 43.4162 168.36 43.8654 168.36C44.1844 168.36 44.4546 168.295 44.676 168.165C44.8973 168.035 45.091 167.862 45.257 167.647L45.8088 168.077C45.3661 168.757 44.702 169.098 43.8166 169.098ZM43.7043 164.361C43.3397 164.361 43.0337 164.495 42.7863 164.762C42.5389 165.025 42.3859 165.396 42.3273 165.875H44.9738V165.807C44.9478 165.348 44.8241 164.993 44.6027 164.742C44.3814 164.488 44.0819 164.361 43.7043 164.361ZM49.6307 164.527C49.4939 164.505 49.3458 164.493 49.1863 164.493C48.5939 164.493 48.1919 164.745 47.9803 165.25V169H47.077V163.717H47.9559L47.9705 164.327C48.2667 163.855 48.6867 163.619 49.2303 163.619C49.4061 163.619 49.5395 163.642 49.6307 163.688V164.527ZM54.4668 165.006H55.1455C55.5719 164.999 55.9072 164.887 56.1514 164.669C56.3955 164.451 56.5176 164.156 56.5176 163.785C56.5176 162.952 56.1025 162.535 55.2725 162.535C54.8818 162.535 54.5693 162.647 54.335 162.872C54.1038 163.093 53.9883 163.388 53.9883 163.756H53.085C53.085 163.193 53.29 162.726 53.7002 162.354C54.1136 161.98 54.6377 161.793 55.2725 161.793C55.943 161.793 56.4688 161.97 56.8496 162.325C57.2305 162.68 57.4209 163.173 57.4209 163.805C57.4209 164.114 57.32 164.413 57.1182 164.703C56.9196 164.993 56.6478 165.209 56.3027 165.353C56.6934 165.476 56.9945 165.681 57.2061 165.968C57.4209 166.254 57.5283 166.604 57.5283 167.018C57.5283 167.656 57.32 168.162 56.9033 168.536C56.4867 168.91 55.9447 169.098 55.2773 169.098C54.61 169.098 54.0664 168.917 53.6465 168.556C53.2298 168.194 53.0215 167.717 53.0215 167.125H53.9297C53.9297 167.499 54.0518 167.799 54.2959 168.023C54.54 168.248 54.8672 168.36 55.2773 168.36C55.7135 168.36 56.0472 168.246 56.2783 168.019C56.5094 167.791 56.625 167.464 56.625 167.037C56.625 166.624 56.498 166.306 56.2441 166.085C55.9902 165.864 55.624 165.75 55.1455 165.743H54.4668V165.006ZM66.3195 167.755L67.3352 163.717H68.2385L66.7004 169H65.968L64.6838 164.996L63.4338 169H62.7014L61.1682 163.717H62.0666L63.1066 167.672L64.3371 163.717H65.0646L66.3195 167.755ZM72.573 169C72.521 168.896 72.4786 168.71 72.4461 168.443C72.0262 168.88 71.5249 169.098 70.9422 169.098C70.4214 169.098 69.9933 168.951 69.658 168.658C69.326 168.362 69.16 167.988 69.16 167.535C69.16 166.985 69.3683 166.559 69.785 166.256C70.2049 165.95 70.7941 165.797 71.5525 165.797H72.4314V165.382C72.4314 165.066 72.337 164.815 72.1482 164.63C71.9594 164.441 71.6811 164.347 71.3133 164.347C70.991 164.347 70.7208 164.428 70.5027 164.591C70.2846 164.754 70.1756 164.951 70.1756 165.182H69.2674C69.2674 164.918 69.3602 164.664 69.5457 164.42C69.7345 164.173 69.9884 163.977 70.3074 163.834C70.6297 163.691 70.9829 163.619 71.367 163.619C71.9757 163.619 72.4526 163.772 72.7977 164.078C73.1427 164.381 73.3217 164.799 73.3348 165.333V167.765C73.3348 168.25 73.3966 168.635 73.5203 168.922V169H72.573ZM71.074 168.312C71.3572 168.312 71.6258 168.238 71.8797 168.092C72.1336 167.945 72.3175 167.755 72.4314 167.521V166.437H71.7234C70.6167 166.437 70.0633 166.76 70.0633 167.408C70.0633 167.691 70.1577 167.913 70.3465 168.072C70.5353 168.232 70.7778 168.312 71.074 168.312ZM75.7553 163.717L75.7846 164.381C76.1882 163.873 76.7156 163.619 77.3666 163.619C78.4831 163.619 79.0463 164.249 79.0561 165.509V169H78.1527V165.504C78.1495 165.123 78.0616 164.841 77.8891 164.659C77.7198 164.477 77.4545 164.386 77.0932 164.386C76.8002 164.386 76.543 164.464 76.3217 164.62C76.1003 164.776 75.9278 164.981 75.8041 165.235V169H74.9008V163.717H75.7553ZM81.7939 162.438V163.717H82.7803V164.415H81.7939V167.691C81.7939 167.903 81.8379 168.062 81.9258 168.17C82.0137 168.274 82.1634 168.326 82.375 168.326C82.4792 168.326 82.6224 168.307 82.8047 168.268V169C82.5671 169.065 82.3359 169.098 82.1113 169.098C81.7077 169.098 81.4033 168.976 81.1982 168.731C80.9932 168.487 80.8906 168.141 80.8906 167.691V164.415H79.9287V163.717H80.8906V162.438H81.7939ZM87.066 167.599C87.066 167.354 86.9732 167.166 86.7877 167.032C86.6054 166.896 86.2848 166.778 85.8258 166.681C85.3701 166.583 85.0071 166.466 84.7369 166.329C84.47 166.192 84.2714 166.03 84.1412 165.841C84.0143 165.652 83.9508 165.427 83.9508 165.167C83.9508 164.734 84.1331 164.368 84.4977 164.068C84.8655 163.769 85.3342 163.619 85.9039 163.619C86.5029 163.619 86.9879 163.774 87.359 164.083C87.7333 164.392 87.9205 164.788 87.9205 165.27H87.0123C87.0123 165.022 86.9065 164.809 86.6949 164.63C86.4866 164.451 86.2229 164.361 85.9039 164.361C85.5751 164.361 85.318 164.433 85.1324 164.576C84.9469 164.719 84.8541 164.907 84.8541 165.138C84.8541 165.356 84.9404 165.52 85.1129 165.631C85.2854 165.742 85.5963 165.847 86.0455 165.948C86.498 166.049 86.8642 166.17 87.1441 166.31C87.4241 166.45 87.6308 166.619 87.7643 166.817C87.901 167.013 87.9693 167.252 87.9693 167.535C87.9693 168.007 87.7805 168.386 87.4029 168.673C87.0253 168.956 86.5354 169.098 85.9332 169.098C85.51 169.098 85.1357 169.023 84.8102 168.873C84.4846 168.723 84.2291 168.515 84.0436 168.248C83.8613 167.978 83.7701 167.687 83.7701 167.374H84.6734C84.6897 167.677 84.8102 167.918 85.0348 168.097C85.2626 168.272 85.5621 168.36 85.9332 168.36C86.275 168.36 86.5484 168.292 86.7535 168.155C86.9619 168.015 87.066 167.83 87.066 167.599ZM93.1521 162.438V163.717H94.1385V164.415H93.1521V167.691C93.1521 167.903 93.1961 168.062 93.284 168.17C93.3719 168.274 93.5216 168.326 93.7332 168.326C93.8374 168.326 93.9806 168.307 94.1629 168.268V169C93.9253 169.065 93.6941 169.098 93.4695 169.098C93.0659 169.098 92.7615 168.976 92.5564 168.731C92.3514 168.487 92.2488 168.141 92.2488 167.691V164.415H91.2869V163.717H92.2488V162.438H93.1521ZM95.0111 166.31C95.0111 165.792 95.112 165.326 95.3139 164.913C95.5189 164.5 95.8021 164.181 96.1635 163.956C96.5281 163.731 96.9431 163.619 97.4086 163.619C98.128 163.619 98.709 163.868 99.1518 164.366C99.5977 164.864 99.8207 165.527 99.8207 166.354V166.417C99.8207 166.931 99.7214 167.394 99.5229 167.804C99.3275 168.211 99.046 168.528 98.6781 168.756C98.3135 168.984 97.8936 169.098 97.4184 169.098C96.7022 169.098 96.1212 168.849 95.6752 168.351C95.2325 167.853 95.0111 167.193 95.0111 166.373V166.31ZM95.9193 166.417C95.9193 167.003 96.0544 167.473 96.3246 167.828C96.598 168.183 96.9626 168.36 97.4184 168.36C97.8773 168.36 98.2419 168.181 98.5121 167.823C98.7823 167.462 98.9174 166.957 98.9174 166.31C98.9174 165.73 98.779 165.261 98.5023 164.903C98.2289 164.542 97.8643 164.361 97.4086 164.361C96.9626 164.361 96.6029 164.539 96.3295 164.894C96.0561 165.248 95.9193 165.756 95.9193 166.417ZM104.178 169V164.415H103.343V163.717H104.178V163.175C104.178 162.608 104.33 162.171 104.632 161.861C104.935 161.552 105.363 161.397 105.917 161.397C106.125 161.397 106.332 161.425 106.537 161.48L106.488 162.213C106.335 162.184 106.172 162.169 106 162.169C105.707 162.169 105.48 162.255 105.321 162.428C105.161 162.597 105.082 162.841 105.082 163.16V163.717H106.21V164.415H105.082V169H104.178ZM107.121 166.31C107.121 165.792 107.222 165.326 107.424 164.913C107.629 164.5 107.912 164.181 108.274 163.956C108.638 163.731 109.053 163.619 109.519 163.619C110.238 163.619 110.819 163.868 111.262 164.366C111.708 164.864 111.931 165.527 111.931 166.354V166.417C111.931 166.931 111.832 167.394 111.633 167.804C111.438 168.211 111.156 168.528 110.788 168.756C110.424 168.984 110.004 169.098 109.529 169.098C108.812 169.098 108.231 168.849 107.785 168.351C107.343 167.853 107.121 167.193 107.121 166.373V166.31ZM108.029 166.417C108.029 167.003 108.165 167.473 108.435 167.828C108.708 168.183 109.073 168.36 109.529 168.36C109.988 168.36 110.352 168.181 110.622 167.823C110.892 167.462 111.028 166.957 111.028 166.31C111.028 165.73 110.889 165.261 110.613 164.903C110.339 164.542 109.974 164.361 109.519 164.361C109.073 164.361 108.713 164.539 108.44 164.894C108.166 165.248 108.029 165.756 108.029 166.417ZM114.195 169H113.292V161.5H114.195V169ZM116.777 169H115.873V161.5H116.777V169ZM118.138 166.31C118.138 165.792 118.239 165.326 118.44 164.913C118.646 164.5 118.929 164.181 119.29 163.956C119.655 163.731 120.07 163.619 120.535 163.619C121.255 163.619 121.836 163.868 122.278 164.366C122.724 164.864 122.947 165.527 122.947 166.354V166.417C122.947 166.931 122.848 167.394 122.649 167.804C122.454 168.211 122.173 168.528 121.805 168.756C121.44 168.984 121.02 169.098 120.545 169.098C119.829 169.098 119.248 168.849 118.802 168.351C118.359 167.853 118.138 167.193 118.138 166.373V166.31ZM119.046 166.417C119.046 167.003 119.181 167.473 119.451 167.828C119.725 168.183 120.089 168.36 120.545 168.36C121.004 168.36 121.368 168.181 121.639 167.823C121.909 167.462 122.044 166.957 122.044 166.31C122.044 165.73 121.906 165.261 121.629 164.903C121.355 164.542 120.991 164.361 120.535 164.361C120.089 164.361 119.729 164.539 119.456 164.894C119.183 165.248 119.046 165.756 119.046 166.417ZM128.908 167.755L129.923 163.717H130.827L129.289 169H128.556L127.272 164.996L126.022 169H125.29L123.756 163.717H124.655L125.695 167.672L126.925 163.717H127.653L128.908 167.755ZM136.259 167.677L137.489 163.717H138.456L136.332 169.815C136.003 170.694 135.481 171.134 134.764 171.134L134.594 171.119L134.257 171.056V170.323L134.501 170.343C134.807 170.343 135.044 170.281 135.214 170.157C135.386 170.034 135.528 169.807 135.638 169.479L135.839 168.941L133.954 163.717H134.94L136.259 167.677ZM139.099 166.31C139.099 165.792 139.2 165.326 139.402 164.913C139.607 164.5 139.89 164.181 140.251 163.956C140.616 163.731 141.031 163.619 141.496 163.619C142.216 163.619 142.797 163.868 143.24 164.366C143.686 164.864 143.909 165.527 143.909 166.354V166.417C143.909 166.931 143.809 167.394 143.611 167.804C143.415 168.211 143.134 168.528 142.766 168.756C142.401 168.984 141.982 169.098 141.506 169.098C140.79 169.098 140.209 168.849 139.763 168.351C139.32 167.853 139.099 167.193 139.099 166.373V166.31ZM140.007 166.417C140.007 167.003 140.142 167.473 140.412 167.828C140.686 168.183 141.051 168.36 141.506 168.36C141.965 168.36 142.33 168.181 142.6 167.823C142.87 167.462 143.005 166.957 143.005 166.31C143.005 165.73 142.867 165.261 142.59 164.903C142.317 164.542 141.952 164.361 141.496 164.361C141.051 164.361 140.691 164.539 140.417 164.894C140.144 165.248 140.007 165.756 140.007 166.417ZM148.453 168.478C148.102 168.891 147.586 169.098 146.905 169.098C146.342 169.098 145.912 168.935 145.616 168.609C145.323 168.281 145.175 167.796 145.172 167.154V163.717H146.075V167.13C146.075 167.931 146.401 168.331 147.052 168.331C147.742 168.331 148.201 168.074 148.429 167.56V163.717H149.332V169H148.473L148.453 168.478ZM153.413 164.527C153.276 164.505 153.128 164.493 152.968 164.493C152.376 164.493 151.974 164.745 151.762 165.25V169H150.859V163.717H151.738L151.753 164.327C152.049 163.855 152.469 163.619 153.012 163.619C153.188 163.619 153.322 163.642 153.413 163.688V164.527ZM157.931 164.356C158.332 163.865 158.853 163.619 159.494 163.619C160.61 163.619 161.174 164.249 161.183 165.509V169H160.28V165.504C160.277 165.123 160.189 164.841 160.016 164.659C159.847 164.477 159.582 164.386 159.221 164.386C158.928 164.386 158.67 164.464 158.449 164.62C158.228 164.776 158.055 164.981 157.931 165.235V169H157.028V161.5H157.931V164.356ZM165.948 169C165.896 168.896 165.853 168.71 165.821 168.443C165.401 168.88 164.899 169.098 164.317 169.098C163.796 169.098 163.368 168.951 163.033 168.658C162.701 168.362 162.535 167.988 162.535 167.535C162.535 166.985 162.743 166.559 163.16 166.256C163.579 165.95 164.169 165.797 164.927 165.797H165.806V165.382C165.806 165.066 165.712 164.815 165.523 164.63C165.334 164.441 165.056 164.347 164.688 164.347C164.366 164.347 164.095 164.428 163.877 164.591C163.659 164.754 163.55 164.951 163.55 165.182H162.642C162.642 164.918 162.735 164.664 162.92 164.42C163.109 164.173 163.363 163.977 163.682 163.834C164.004 163.691 164.357 163.619 164.742 163.619C165.35 163.619 165.827 163.772 166.172 164.078C166.517 164.381 166.696 164.799 166.709 165.333V167.765C166.709 168.25 166.771 168.635 166.895 168.922V169H165.948ZM164.449 168.312C164.732 168.312 165 168.238 165.254 168.092C165.508 167.945 165.692 167.755 165.806 167.521V166.437H165.098C163.991 166.437 163.438 166.76 163.438 167.408C163.438 167.691 163.532 167.913 163.721 168.072C163.91 168.232 164.152 168.312 164.449 168.312ZM172.748 166.417C172.748 167.224 172.562 167.874 172.191 168.365C171.82 168.854 171.322 169.098 170.697 169.098C170.03 169.098 169.514 168.862 169.149 168.39L169.105 169H168.275V161.5H169.179V164.298C169.543 163.845 170.046 163.619 170.688 163.619C171.329 163.619 171.832 163.862 172.196 164.347C172.564 164.832 172.748 165.496 172.748 166.339V166.417ZM171.845 166.314C171.845 165.699 171.726 165.224 171.488 164.889C171.251 164.553 170.909 164.386 170.463 164.386C169.867 164.386 169.439 164.662 169.179 165.216V167.501C169.455 168.054 169.887 168.331 170.473 168.331C170.906 168.331 171.243 168.163 171.483 167.828C171.724 167.493 171.845 166.988 171.845 166.314ZM175.022 169H174.119V163.717H175.022V169ZM174.046 162.315C174.046 162.169 174.089 162.045 174.177 161.944C174.268 161.843 174.402 161.793 174.578 161.793C174.754 161.793 174.887 161.843 174.978 161.944C175.069 162.045 175.115 162.169 175.115 162.315C175.115 162.462 175.069 162.584 174.978 162.682C174.887 162.779 174.754 162.828 174.578 162.828C174.402 162.828 174.268 162.779 174.177 162.682C174.089 162.584 174.046 162.462 174.046 162.315ZM177.848 162.438V163.717H178.834V164.415H177.848V167.691C177.848 167.903 177.892 168.062 177.98 168.17C178.068 168.274 178.217 168.326 178.429 168.326C178.533 168.326 178.676 168.307 178.859 168.268V169C178.621 169.065 178.39 169.098 178.165 169.098C177.762 169.098 177.457 168.976 177.252 168.731C177.047 168.487 176.945 168.141 176.945 167.691V164.415H175.983V163.717H176.945V162.438H177.848Z" fill="black" fill-opacity="0.6"/>
<path fill-rule="evenodd" clip-rule="evenodd" d="M214.5 158.2L210.3 154L208.9 155.4L214.5 161L226.5 149L225.1 147.6L214.5 158.2Z" fill="black" fill-opacity="0.87"/>
<path fill-rule="evenodd" clip-rule="evenodd" d="M274 148.41L272.59 147L267 152.59L261.41 147L260 148.41L265.59 154L260 159.59L261.41 161L267 155.41L272.59 161L274 159.59L268.41 154L274 148.41Z" fill="black" fill-opacity="0.87"/>
</g>
</g>
<defs>
<filter id="filter0_ddd" x="-8" y="652" width="427" height="88" filterUnits="userSpaceOnUse" color-interpolation-filters="sRGB">
<feFlood flood-opacity="0" result="BackgroundImageFix"/>
<feColorMatrix in="SourceAlpha" type="matrix" values="0 0 0 0 0 0 0 0 0 0 0 0 0 0 0 0 0 0 127 0" result="hardAlpha"/>
<feOffset dy="1"/>
<feGaussianBlur stdDeviation="4"/>
<feColorMatrix type="matrix" values="0 0 0 0 0 0 0 0 0 0 0 0 0 0 0 0 0 0 0.2 0"/>
<feBlend mode="normal" in2="BackgroundImageFix" result="effect1_dropShadow"/>
<feColorMatrix in="SourceAlpha" type="matrix" values="0 0 0 0 0 0 0 0 0 0 0 0 0 0 0 0 0 0 127 0" result="hardAlpha"/>
<feOffset dy="3"/>
<feGaussianBlur stdDeviation="1.5"/>
<feColorMatrix type="matrix" values="0 0 0 0 0 0 0 0 0 0 0 0 0 0 0 0 0 0 0.12 0"/>
<feBlend mode="normal" in2="effect1_dropShadow" result="effect2_dropShadow"/>
<feColorMatrix in="SourceAlpha" type="matrix" values="0 0 0 0 0 0 0 0 0 0 0 0 0 0 0 0 0 0 127 0" result="hardAlpha"/>
<feOffset dy="3"/>
<feGaussianBlur stdDeviation="2"/>
<feColorMatrix type="matrix" values="0 0 0 0 0 0 0 0 0 0 0 0 0 0 0 0 0 0 0.14 0"/>
<feBlend mode="normal" in2="effect2_dropShadow" result="effect3_dropShadow"/>
<feBlend mode="normal" in="SourceGraphic" in2="effect3_dropShadow" result="shape"/>
</filter>
<filter id="filter1_ddd" x="-10" y="-9" width="431" height="76" filterUnits="userSpaceOnUse" color-interpolation-filters="sRGB">
<feFlood flood-opacity="0" result="BackgroundImageFix"/>
<feColorMatrix in="SourceAlpha" type="matrix" values="0 0 0 0 0 0 0 0 0 0 0 0 0 0 0 0 0 0 127 0" result="hardAlpha"/>
<feOffset dy="2"/>
<feGaussianBlur stdDeviation="2"/>
<feColorMatrix type="matrix" values="0 0 0 0 0 0 0 0 0 0 0 0 0 0 0 0 0 0 0.2 0"/>
<feBlend mode="normal" in2="BackgroundImageFix" result="effect1_dropShadow"/>
<feColorMatrix in="SourceAlpha" type="matrix" values="0 0 0 0 0 0 0 0 0 0 0 0 0 0 0 0 0 0 127 0" result="hardAlpha"/>
<feOffset dy="1"/>
<feGaussianBlur stdDeviation="5"/>
<feColorMatrix type="matrix" values="0 0 0 0 0 0 0 0 0 0 0 0 0 0 0 0 0 0 0.12 0"/>
<feBlend mode="normal" in2="effect1_dropShadow" result="effect2_dropShadow"/>
<feColorMatrix in="SourceAlpha" type="matrix" values="0 0 0 0 0 0 0 0 0 0 0 0 0 0 0 0 0 0 127 0" result="hardAlpha"/>
<feOffset dy="4"/>
<feGaussianBlur stdDeviation="2.5"/>
<feColorMatrix type="matrix" values="0 0 0 0 0 0 0 0 0 0 0 0 0 0 0 0 0 0 0.14 0"/>
<feBlend mode="normal" in2="effect2_dropShadow" result="effect3_dropShadow"/>
<feBlend mode="normal" in="SourceGraphic" in2="effect3_dropShadow" result="shape"/>
</filter>
<filter id="filter2_d" x="283" y="10" width="24" height="24" filterUnits="userSpaceOnUse" color-interpolation-filters="sRGB">
<feFlood flood-opacity="0" result="BackgroundImageFix"/>
<feColorMatrix in="SourceAlpha" type="matrix" values="0 0 0 0 0 0 0 0 0 0 0 0 0 0 0 0 0 0 127 0" result="hardAlpha"/>
<feOffset dy="2"/>
<feGaussianBlur stdDeviation="2"/>
<feComposite in2="hardAlpha" operator="out"/>
<feColorMatrix type="matrix" values="0 0 0 0 0 0 0 0 0 0 0 0 0 0 0 0 0 0 0.25 0"/>
<feBlend mode="normal" in2="BackgroundImageFix" result="effect1_dropShadow"/>
<feBlend mode="normal" in="SourceGraphic" in2="effect1_dropShadow" result="shape"/>
</filter>
<filter id="filter3_ddd" x="3" y="31" width="294" height="174" filterUnits="userSpaceOnUse" color-interpolation-filters="sRGB">
<feFlood flood-opacity="0" result="BackgroundImageFix"/>
<feColorMatrix in="SourceAlpha" type="matrix" values="0 0 0 0 0 0 0 0 0 0 0 0 0 0 0 0 0 0 127 0" result="hardAlpha"/>
<feOffset dy="2"/>
<feGaussianBlur stdDeviation="2"/>
<feColorMatrix type="matrix" values="0 0 0 0 0 0 0 0 0 0 0 0 0 0 0 0 0 0 0.2 0"/>
<feBlend mode="normal" in2="BackgroundImageFix" result="effect1_dropShadow"/>
<feColorMatrix in="SourceAlpha" type="matrix" values="0 0 0 0 0 0 0 0 0 0 0 0 0 0 0 0 0 0 127 0" result="hardAlpha"/>
<feOffset dy="1"/>
<feGaussianBlur stdDeviation="5"/>
<feColorMatrix type="matrix" values="0 0 0 0 0 0 0 0 0 0 0 0 0 0 0 0 0 0 0.12 0"/>
<feBlend mode="normal" in2="effect1_dropShadow" result="effect2_dropShadow"/>
<feColorMatrix in="SourceAlpha" type="matrix" values="0 0 0 0 0 0 0 0 0 0 0 0 0 0 0 0 0 0 127 0" result="hardAlpha"/>
<feOffset dy="4"/>
<feGaussianBlur stdDeviation="2.5"/>
<feColorMatrix type="matrix" values="0 0 0 0 0 0 0 0 0 0 0 0 0 0 0 0 0 0 0.14 0"/>
<feBlend mode="normal" in2="effect2_dropShadow" result="effect3_dropShadow"/>
<feBlend mode="normal" in="SourceGraphic" in2="effect3_dropShadow" result="shape"/>
</filter>
<clipPath id="clip0">
<rect width="411" height="731" fill="white"/>
</clipPath>
</defs>
</svg>
