<svg width="411" height="731" viewBox="0 0 411 731" fill="none" xmlns="http://www.w3.org/2000/svg">
<rect width="411" height="731" fill="#F1F1F1"/>
<g clip-path="url(#clip0_730:5841)">
<rect width="411" height="731" fill="white"/>
<g filter="url(#filter0_ddd_730:5841)">
<rect width="411" height="72" transform="translate(0 659)" fill="#6200EE"/>
<rect width="102.75" height="72" transform="translate(0 659)" fill="#6200EE"/>
<rect width="102.75" height="2" transform="translate(0 729)" fill="#6200EE"/>
<rect y="729" width="103" height="2" fill="white"/>
<path d="M36.8008 706.441H33.6973V715H31.9814V706.441H28.9053V705.047H36.8008V706.441ZM47.1152 710.283C47.1152 711.258 46.9466 712.115 46.6094 712.854C46.2721 713.587 45.7891 714.152 45.1602 714.549C44.5358 714.941 43.8158 715.137 43 715.137C42.1934 715.137 41.4733 714.941 40.8398 714.549C40.2109 714.152 39.7233 713.59 39.377 712.86C39.0352 712.131 38.862 711.29 38.8574 710.338V709.777C38.8574 708.807 39.0283 707.95 39.3701 707.207C39.7165 706.464 40.2018 705.897 40.8262 705.505C41.4551 705.108 42.1751 704.91 42.9863 704.91C43.7975 704.91 44.5153 705.106 45.1396 705.498C45.7686 705.885 46.2539 706.446 46.5957 707.18C46.9375 707.909 47.1107 708.759 47.1152 709.729V710.283ZM45.3857 709.764C45.3857 708.661 45.1761 707.815 44.7568 707.228C44.3421 706.64 43.752 706.346 42.9863 706.346C42.2389 706.346 41.6533 706.64 41.2295 707.228C40.8102 707.811 40.596 708.638 40.5869 709.709V710.283C40.5869 711.377 40.7988 712.222 41.2227 712.819C41.651 713.416 42.2435 713.715 43 713.715C43.7656 713.715 44.3535 713.423 44.7637 712.84C45.1784 712.257 45.3857 711.404 45.3857 710.283V709.764ZM50.0879 715V705.047H53.0273C53.9069 705.047 54.6862 705.243 55.3652 705.635C56.0488 706.027 56.5775 706.583 56.9512 707.303C57.3249 708.023 57.5117 708.848 57.5117 709.777V710.276C57.5117 711.22 57.3226 712.049 56.9443 712.765C56.5706 713.48 56.0352 714.032 55.3379 714.419C54.6452 714.806 53.8499 715 52.9521 715H50.0879ZM51.8174 706.441V713.619H52.9453C53.8522 713.619 54.5472 713.337 55.0303 712.771C55.5179 712.202 55.7663 711.386 55.7754 710.324V709.771C55.7754 708.69 55.5407 707.866 55.0713 707.296C54.6019 706.726 53.9206 706.441 53.0273 706.441H51.8174ZM65.9053 712.683H62.0498L61.2432 715H59.4453L63.2051 705.047H64.7568L68.5234 715H66.7188L65.9053 712.683ZM62.5352 711.288H65.4199L63.9775 707.159L62.5352 711.288ZM73.1299 709.764L75.4199 705.047H77.334L73.998 711.336V715H72.2617V711.336L68.9189 705.047H70.8398L73.1299 709.764Z" fill="white"/>
<path fill-rule="evenodd" clip-rule="evenodd" d="M51 693C52.1 693 53 692.1 53 691H49C49 692.1 49.89 693 51 693ZM57 687V682C57 678.93 55.36 676.36 52.5 675.68V675C52.5 674.17 51.83 673.5 51 673.5C50.17 673.5 49.5 674.17 49.5 675V675.68C46.63 676.36 45 678.92 45 682V687L43 689V690H59V689L57 687Z" fill="white"/>
<rect width="102.75" height="72" transform="translate(102.75 659)" fill="#6200EE"/>
<path d="M138.012 710.557H133.924V713.619H138.702V715H132.194V705.047H138.654V706.441H133.924V709.189H138.012V710.557ZM144.867 712.833L147.396 705.047H149.297L145.715 715H144.04L140.472 705.047H142.365L144.867 712.833ZM157.492 710.557H153.404V713.619H158.183V715H151.675V705.047H158.135V706.441H153.404V709.189H157.492V710.557ZM168.736 715H167.007L162.57 707.938V715H160.841V705.047H162.57L167.021 712.136V705.047H168.736V715ZM179.017 706.441H175.913V715H174.197V706.441H171.121V705.047H179.017V706.441Z" fill="white" fill-opacity="0.74"/>
<path d="M150.75 682H148.75V684H150.75V682ZM154.75 682H152.75V684H154.75V682ZM158.75 682H156.75V684H158.75V682ZM160.75 675H159.75V673H157.75V675H149.75V673H147.75V675H146.75C145.64 675 144.76 675.9 144.76 677L144.75 691C144.75 691.53 144.961 692.039 145.336 692.414C145.711 692.789 146.22 693 146.75 693H160.75C161.85 693 162.75 692.1 162.75 691V677C162.75 675.9 161.85 675 160.75 675ZM160.75 691H146.75V680H160.75V691Z" fill="white" fill-opacity="0.74"/>
<rect width="102.75" height="72" transform="translate(205.5 659)" fill="#6200EE"/>
<path d="M243.673 715H241.95V710.577H237.5V715H235.771V705.047H237.5V709.189H241.95V705.047H243.673V715ZM252.668 712.683H248.812L248.006 715H246.208L249.968 705.047H251.52L255.286 715H253.481L252.668 712.683ZM249.298 711.288H252.183L250.74 707.159L249.298 711.288ZM257.671 715V705.047H261.082C262.208 705.047 263.064 705.272 263.652 705.724C264.24 706.175 264.534 706.847 264.534 707.74C264.534 708.196 264.411 708.606 264.165 708.971C263.919 709.335 263.559 709.618 263.085 709.818C263.623 709.964 264.037 710.24 264.329 710.646C264.625 711.047 264.773 711.53 264.773 712.095C264.773 713.029 264.473 713.747 263.871 714.248C263.274 714.749 262.417 715 261.301 715H257.671ZM259.4 710.509V713.619H261.321C261.864 713.619 262.287 713.485 262.593 713.216C262.898 712.947 263.051 712.573 263.051 712.095C263.051 711.06 262.522 710.532 261.465 710.509H259.4ZM259.4 709.237H261.096C261.633 709.237 262.053 709.117 262.354 708.875C262.659 708.629 262.812 708.283 262.812 707.836C262.812 707.344 262.67 706.988 262.388 706.77C262.11 706.551 261.674 706.441 261.082 706.441H259.4V709.237ZM269.578 715H267.855V705.047H269.578V715ZM279.94 706.441H276.837V715H275.121V706.441H272.045V705.047H279.94V706.441Z" fill="white" fill-opacity="0.74"/>
<path fill-rule="evenodd" clip-rule="evenodd" d="M256.5 692.35L255.05 691.03C249.9 686.36 246.5 683.28 246.5 679.5C246.5 676.42 248.92 674 252 674C253.74 674 255.41 674.81 256.5 676.09C257.59 674.81 259.26 674 261 674C264.08 674 266.5 676.42 266.5 679.5C266.5 683.28 263.1 686.36 257.95 691.04L256.5 692.35Z" fill="white" fill-opacity="0.74"/>
<rect width="102.75" height="72" transform="translate(308.25 659)" fill="#6200EE"/>
<path d="M322.205 711.76C322.105 712.822 321.713 713.651 321.029 714.248C320.346 714.84 319.437 715.137 318.302 715.137C317.509 715.137 316.809 714.95 316.203 714.576C315.602 714.198 315.137 713.662 314.809 712.97C314.48 712.277 314.31 711.473 314.296 710.557V709.627C314.296 708.688 314.462 707.861 314.795 707.146C315.128 706.43 315.604 705.879 316.224 705.491C316.848 705.104 317.568 704.91 318.384 704.91C319.482 704.91 320.366 705.209 321.036 705.806C321.706 706.403 322.096 707.246 322.205 708.335H320.482C320.4 707.619 320.191 707.104 319.854 706.79C319.521 706.471 319.031 706.312 318.384 706.312C317.632 706.312 317.053 706.587 316.647 707.139C316.246 707.686 316.041 708.49 316.032 709.552V710.434C316.032 711.509 316.224 712.329 316.606 712.895C316.994 713.46 317.559 713.742 318.302 713.742C318.981 713.742 319.491 713.59 319.833 713.284C320.175 712.979 320.391 712.471 320.482 711.76H322.205ZM332.95 710.283C332.95 711.258 332.782 712.115 332.444 712.854C332.107 713.587 331.624 714.152 330.995 714.549C330.371 714.941 329.651 715.137 328.835 715.137C328.028 715.137 327.308 714.941 326.675 714.549C326.046 714.152 325.558 713.59 325.212 712.86C324.87 712.131 324.697 711.29 324.692 710.338V709.777C324.692 708.807 324.863 707.95 325.205 707.207C325.551 706.464 326.037 705.897 326.661 705.505C327.29 705.108 328.01 704.91 328.821 704.91C329.632 704.91 330.35 705.106 330.975 705.498C331.604 705.885 332.089 706.446 332.431 707.18C332.772 707.909 332.946 708.759 332.95 709.729V710.283ZM331.221 709.764C331.221 708.661 331.011 707.815 330.592 707.228C330.177 706.64 329.587 706.346 328.821 706.346C328.074 706.346 327.488 706.64 327.064 707.228C326.645 707.811 326.431 708.638 326.422 709.709V710.283C326.422 711.377 326.634 712.222 327.058 712.819C327.486 713.416 328.078 713.715 328.835 713.715C329.601 713.715 330.188 713.423 330.599 712.84C331.013 712.257 331.221 711.404 331.221 710.283V709.764ZM338.165 705.047L341.036 712.676L343.9 705.047H346.136V715H344.413V711.719L344.584 707.33L341.645 715H340.407L337.475 707.337L337.646 711.719V715H335.923V705.047H338.165ZM351.679 705.047L354.55 712.676L357.414 705.047H359.649V715H357.927V711.719L358.098 707.33L355.158 715H353.921L350.988 707.337L351.159 711.719V715H349.437V705.047H351.679ZM370.23 705.047V711.698C370.23 712.756 369.891 713.594 369.212 714.214C368.537 714.829 367.637 715.137 366.512 715.137C365.372 715.137 364.468 714.834 363.798 714.228C363.128 713.617 362.793 712.771 362.793 711.691V705.047H364.516V711.705C364.516 712.37 364.684 712.879 365.021 713.229C365.359 713.58 365.855 713.756 366.512 713.756C367.842 713.756 368.508 713.054 368.508 711.65V705.047H370.23ZM381.229 715H379.499L375.062 707.938V715H373.333V705.047H375.062L379.513 712.136V705.047H381.229V715ZM386.348 715H384.625V705.047H386.348V715ZM396.71 706.441H393.606V715H391.891V706.441H388.814V705.047H396.71V706.441ZM402.629 709.764L404.919 705.047H406.833L403.497 711.336V715H401.761V711.336L398.418 705.047H400.339L402.629 709.764Z" fill="white" fill-opacity="0.74"/>
<path d="M363.25 682C364.91 682 366.24 680.66 366.24 679C366.24 677.34 364.91 676 363.25 676C361.59 676 360.25 677.34 360.25 679C360.25 680.66 361.59 682 363.25 682ZM355.25 682C356.91 682 358.24 680.66 358.24 679C358.24 677.34 356.91 676 355.25 676C353.59 676 352.25 677.34 352.25 679C352.25 680.66 353.59 682 355.25 682ZM355.25 684C352.92 684 348.25 685.17 348.25 687.5V690H362.25V687.5C362.25 685.17 357.58 684 355.25 684ZM363.25 684C362.96 684 362.63 684.02 362.28 684.05C363.44 684.89 364.25 686.02 364.25 687.5V690H370.25V687.5C370.25 685.17 365.58 684 363.25 684Z" fill="white" fill-opacity="0.74"/>
</g>
<mask id="mask0_730:5841" style="mask-type:alpha" maskUnits="userSpaceOnUse" x="0" y="66" width="411" height="64">
<rect y="66" width="411" height="64" fill="white"/>
</mask>
<g mask="url(#mask0_730:5841)">
<path d="M26.0625 92H24.5547V86.7422H18.8203V92H17.3203V80.625H18.8203V85.5156H24.5547V80.625H26.0625V92ZM33.8687 92C33.7854 91.8333 33.7177 91.5365 33.6656 91.1094C32.9937 91.8073 32.1917 92.1562 31.2594 92.1562C30.426 92.1562 29.7411 91.9219 29.2047 91.4531C28.6734 90.9792 28.4078 90.3802 28.4078 89.6562C28.4078 88.776 28.7411 88.0938 29.4078 87.6094C30.0797 87.1198 31.0224 86.875 32.2359 86.875H33.6422V86.2109C33.6422 85.7057 33.4911 85.3047 33.1891 85.0078C32.887 84.7057 32.4417 84.5547 31.8531 84.5547C31.3375 84.5547 30.9052 84.6849 30.5562 84.9453C30.2073 85.2057 30.0328 85.5208 30.0328 85.8906H28.5797C28.5797 85.4688 28.7281 85.0625 29.025 84.6719C29.3271 84.276 29.7333 83.9635 30.2437 83.7344C30.7594 83.5052 31.3245 83.3906 31.9391 83.3906C32.913 83.3906 33.676 83.6354 34.2281 84.125C34.7802 84.6094 35.0667 85.2786 35.0875 86.1328V90.0234C35.0875 90.7995 35.1865 91.4167 35.3844 91.875V92H33.8687ZM31.4703 90.8984C31.9234 90.8984 32.3531 90.7812 32.7594 90.5469C33.1656 90.3125 33.4599 90.0078 33.6422 89.6328V87.8984H32.5094C30.7385 87.8984 29.8531 88.4167 29.8531 89.4531C29.8531 89.9062 30.0042 90.2604 30.3062 90.5156C30.6083 90.7708 30.9964 90.8984 31.4703 90.8984ZM44.6594 87.8672C44.6594 89.1589 44.3625 90.1979 43.7687 90.9844C43.175 91.7656 42.3781 92.1562 41.3781 92.1562C40.3104 92.1562 39.4849 91.7786 38.9016 91.0234L38.8312 92H37.5031V80H38.9484V84.4766C39.5318 83.7526 40.3365 83.3906 41.3625 83.3906C42.3885 83.3906 43.1932 83.7786 43.7766 84.5547C44.3651 85.3307 44.6594 86.3932 44.6594 87.7422V87.8672ZM43.2141 87.7031C43.2141 86.7188 43.024 85.9583 42.6437 85.4219C42.2635 84.8854 41.7167 84.6172 41.0031 84.6172C40.05 84.6172 39.3651 85.0599 38.9484 85.9453V89.6016C39.3911 90.487 40.0812 90.9297 41.0187 90.9297C41.7115 90.9297 42.2505 90.6615 42.6359 90.125C43.0214 89.5885 43.2141 88.7812 43.2141 87.7031ZM48.2078 92H46.7625V83.5469H48.2078V92ZM46.6453 81.3047C46.6453 81.0703 46.7156 80.8724 46.8563 80.7109C47.0021 80.5495 47.2156 80.4688 47.4969 80.4688C47.7781 80.4688 47.9917 80.5495 48.1375 80.7109C48.2833 80.8724 48.3563 81.0703 48.3563 81.3047C48.3563 81.5391 48.2833 81.7344 48.1375 81.8906C47.9917 82.0469 47.7781 82.125 47.4969 82.125C47.2156 82.125 47.0021 82.0469 46.8563 81.8906C46.7156 81.7344 46.6453 81.5391 46.6453 81.3047ZM52.6391 81.5V83.5469H54.2172V84.6641H52.6391V89.9062C52.6391 90.2448 52.7094 90.5 52.85 90.6719C52.9906 90.8385 53.2302 90.9219 53.5687 90.9219C53.7354 90.9219 53.9646 90.8906 54.2562 90.8281V92C53.876 92.1042 53.5062 92.1562 53.1469 92.1562C52.501 92.1562 52.0141 91.9609 51.6859 91.5703C51.3578 91.1797 51.1937 90.625 51.1937 89.9062V84.6641H49.6547V83.5469H51.1937V81.5H52.6391ZM64.7828 92H63.3297V82.3672L60.4156 83.4375V82.125L64.5563 80.5703H64.7828V92Z" fill="black" fill-opacity="0.87"/>
<path d="M17.1553 113V103.047H19.9648C20.8307 103.047 21.5964 103.238 22.2617 103.621C22.9271 104.004 23.4398 104.549 23.7998 105.255C24.1644 105.961 24.349 106.772 24.3535 107.688V108.324C24.3535 109.263 24.1712 110.086 23.8066 110.792C23.4466 111.498 22.9294 112.041 22.2549 112.419C21.585 112.797 20.8034 112.991 19.9102 113H17.1553ZM18.4678 104.127V111.927H19.8486C20.8604 111.927 21.6465 111.612 22.207 110.983C22.7721 110.354 23.0547 109.459 23.0547 108.297V107.716C23.0547 106.586 22.7881 105.708 22.2549 105.084C21.7262 104.455 20.9743 104.136 19.999 104.127H18.4678ZM29.4639 113.137C28.4613 113.137 27.6455 112.809 27.0166 112.152C26.3877 111.492 26.0732 110.61 26.0732 109.507V109.274C26.0732 108.541 26.2122 107.887 26.4902 107.312C26.7728 106.734 27.1647 106.283 27.666 105.959C28.1719 105.631 28.7188 105.467 29.3066 105.467C30.2682 105.467 31.0156 105.784 31.5488 106.417C32.082 107.05 32.3486 107.957 32.3486 109.138V109.664H27.3379C27.3561 110.393 27.568 110.983 27.9736 111.435C28.3838 111.881 28.9033 112.104 29.5322 112.104C29.9788 112.104 30.3571 112.013 30.667 111.831C30.9769 111.649 31.248 111.407 31.4805 111.106L32.2529 111.708C31.6331 112.66 30.7035 113.137 29.4639 113.137ZM29.3066 106.506C28.7962 106.506 28.3678 106.693 28.0215 107.066C27.6751 107.436 27.4609 107.955 27.3789 108.625H31.084V108.529C31.0475 107.887 30.8743 107.39 30.5645 107.039C30.2546 106.684 29.8353 106.506 29.3066 106.506ZM38.375 111.038C38.375 110.696 38.2451 110.432 37.9854 110.245C37.7301 110.054 37.2812 109.89 36.6387 109.753C36.0007 109.616 35.4925 109.452 35.1143 109.261C34.7406 109.069 34.4626 108.841 34.2803 108.577C34.1025 108.313 34.0137 107.998 34.0137 107.634C34.0137 107.028 34.2689 106.515 34.7793 106.096C35.2943 105.676 35.9505 105.467 36.748 105.467C37.5866 105.467 38.2656 105.683 38.7852 106.116C39.3092 106.549 39.5713 107.103 39.5713 107.777H38.2998C38.2998 107.431 38.1517 107.132 37.8555 106.882C37.5638 106.631 37.1947 106.506 36.748 106.506C36.2878 106.506 35.9277 106.606 35.668 106.807C35.4082 107.007 35.2783 107.269 35.2783 107.593C35.2783 107.898 35.3991 108.128 35.6406 108.283C35.8822 108.438 36.3174 108.586 36.9463 108.728C37.5798 108.869 38.0924 109.037 38.4844 109.233C38.8763 109.429 39.1657 109.666 39.3525 109.944C39.5439 110.218 39.6396 110.553 39.6396 110.949C39.6396 111.61 39.3753 112.141 38.8467 112.542C38.318 112.938 37.6322 113.137 36.7891 113.137C36.1966 113.137 35.6725 113.032 35.2168 112.822C34.7611 112.613 34.4033 112.321 34.1436 111.947C33.8883 111.569 33.7607 111.161 33.7607 110.724H35.0254C35.0482 111.147 35.2168 111.485 35.5312 111.735C35.8503 111.981 36.2695 112.104 36.7891 112.104C37.2676 112.104 37.6504 112.009 37.9375 111.817C38.2292 111.621 38.375 111.362 38.375 111.038ZM44.5039 112.104C44.9551 112.104 45.3493 111.968 45.6865 111.694C46.0238 111.421 46.2106 111.079 46.2471 110.669H47.4434C47.4206 111.093 47.2747 111.496 47.0059 111.879C46.737 112.262 46.377 112.567 45.9258 112.795C45.4792 113.023 45.0052 113.137 44.5039 113.137C43.4967 113.137 42.6947 112.802 42.0977 112.132C41.5052 111.457 41.209 110.537 41.209 109.37V109.158C41.209 108.438 41.3411 107.798 41.6055 107.237C41.8698 106.677 42.248 106.242 42.7402 105.932C43.237 105.622 43.8226 105.467 44.4971 105.467C45.3265 105.467 46.0146 105.715 46.5615 106.212C47.113 106.709 47.4069 107.354 47.4434 108.146H46.2471C46.2106 107.668 46.0283 107.276 45.7002 106.971C45.3766 106.661 44.9756 106.506 44.4971 106.506C43.8545 106.506 43.3555 106.738 43 107.203C42.6491 107.663 42.4736 108.331 42.4736 109.206V109.445C42.4736 110.298 42.6491 110.954 43 111.414C43.3509 111.874 43.8522 112.104 44.5039 112.104ZM52.6904 106.738C52.499 106.706 52.2917 106.69 52.0684 106.69C51.2389 106.69 50.6761 107.044 50.3799 107.75V113H49.1152V105.604H50.3457L50.3662 106.458C50.7809 105.797 51.3688 105.467 52.1299 105.467C52.376 105.467 52.5628 105.499 52.6904 105.562V106.738ZM55.4834 113H54.2188V105.604H55.4834V113ZM54.1162 103.642C54.1162 103.437 54.1777 103.263 54.3008 103.122C54.4284 102.981 54.6152 102.91 54.8613 102.91C55.1074 102.91 55.2943 102.981 55.4219 103.122C55.5495 103.263 55.6133 103.437 55.6133 103.642C55.6133 103.847 55.5495 104.018 55.4219 104.154C55.2943 104.291 55.1074 104.359 54.8613 104.359C54.6152 104.359 54.4284 104.291 54.3008 104.154C54.1777 104.018 54.1162 103.847 54.1162 103.642ZM64.0117 109.384C64.0117 110.509 63.7542 111.416 63.2393 112.104C62.7243 112.793 62.027 113.137 61.1475 113.137C60.2497 113.137 59.5433 112.852 59.0283 112.282V115.844H57.7637V105.604H58.9189L58.9805 106.424C59.4954 105.786 60.2109 105.467 61.127 105.467C62.0156 105.467 62.7174 105.802 63.2324 106.472C63.752 107.142 64.0117 108.074 64.0117 109.268V109.384ZM62.7471 109.24C62.7471 108.406 62.5693 107.748 62.2139 107.265C61.8584 106.782 61.3708 106.54 60.751 106.54C59.9854 106.54 59.4111 106.88 59.0283 107.559V111.093C59.4066 111.767 59.9854 112.104 60.7646 112.104C61.3708 112.104 61.8516 111.865 62.207 111.387C62.5671 110.904 62.7471 110.188 62.7471 109.24ZM67.5908 103.812V105.604H68.9717V106.581H67.5908V111.168C67.5908 111.464 67.6523 111.688 67.7754 111.838C67.8984 111.984 68.1081 112.057 68.4043 112.057C68.5501 112.057 68.7507 112.029 69.0059 111.975V113C68.6732 113.091 68.3496 113.137 68.0352 113.137C67.4701 113.137 67.0439 112.966 66.7568 112.624C66.4697 112.282 66.3262 111.797 66.3262 111.168V106.581H64.9795V105.604H66.3262V103.812H67.5908ZM72.0791 113H70.8145V105.604H72.0791V113ZM70.7119 103.642C70.7119 103.437 70.7734 103.263 70.8965 103.122C71.0241 102.981 71.2109 102.91 71.457 102.91C71.7031 102.91 71.89 102.981 72.0176 103.122C72.1452 103.263 72.209 103.437 72.209 103.642C72.209 103.847 72.1452 104.018 72.0176 104.154C71.89 104.291 71.7031 104.359 71.457 104.359C71.2109 104.359 71.0241 104.291 70.8965 104.154C70.7734 104.018 70.7119 103.847 70.7119 103.642ZM74.0244 109.233C74.0244 108.509 74.1657 107.857 74.4482 107.278C74.7354 106.7 75.1318 106.253 75.6377 105.938C76.1481 105.624 76.7292 105.467 77.3809 105.467C78.388 105.467 79.2015 105.815 79.8213 106.513C80.4456 107.21 80.7578 108.137 80.7578 109.295V109.384C80.7578 110.104 80.6188 110.751 80.3408 111.325C80.0674 111.895 79.6732 112.339 79.1582 112.658C78.6478 112.977 78.0599 113.137 77.3945 113.137C76.3919 113.137 75.5785 112.788 74.9541 112.091C74.3343 111.394 74.0244 110.471 74.0244 109.322V109.233ZM75.2959 109.384C75.2959 110.204 75.485 110.863 75.8633 111.359C76.2461 111.856 76.7565 112.104 77.3945 112.104C78.0371 112.104 78.5475 111.854 78.9258 111.353C79.304 110.847 79.4932 110.14 79.4932 109.233C79.4932 108.422 79.2995 107.766 78.9121 107.265C78.5293 106.759 78.0189 106.506 77.3809 106.506C76.7565 106.506 76.2529 106.754 75.8701 107.251C75.4873 107.748 75.2959 108.459 75.2959 109.384ZM83.79 105.604L83.8311 106.533C84.3962 105.822 85.1344 105.467 86.0459 105.467C87.609 105.467 88.3975 106.349 88.4111 108.112V113H87.1465V108.105C87.1419 107.572 87.0189 107.178 86.7773 106.923C86.5404 106.668 86.1689 106.54 85.6631 106.54C85.2529 106.54 84.8929 106.649 84.583 106.868C84.2731 107.087 84.0316 107.374 83.8584 107.729V113H82.5938V105.604H83.79ZM94.9131 113V106.581H93.7441V105.604H94.9131V104.845C94.9131 104.052 95.125 103.439 95.5488 103.006C95.9727 102.573 96.5719 102.356 97.3467 102.356C97.6383 102.356 97.9277 102.395 98.2148 102.473L98.1465 103.498C97.9323 103.457 97.7044 103.437 97.4629 103.437C97.0527 103.437 96.736 103.557 96.5127 103.799C96.2894 104.036 96.1777 104.378 96.1777 104.824V105.604H97.7568V106.581H96.1777V113H94.9131ZM99.0732 109.233C99.0732 108.509 99.2145 107.857 99.4971 107.278C99.7842 106.7 100.181 106.253 100.687 105.938C101.197 105.624 101.778 105.467 102.43 105.467C103.437 105.467 104.25 105.815 104.87 106.513C105.494 107.21 105.807 108.137 105.807 109.295V109.384C105.807 110.104 105.668 110.751 105.39 111.325C105.116 111.895 104.722 112.339 104.207 112.658C103.697 112.977 103.109 113.137 102.443 113.137C101.441 113.137 100.627 112.788 100.003 112.091C99.3831 111.394 99.0732 110.471 99.0732 109.322V109.233ZM100.345 109.384C100.345 110.204 100.534 110.863 100.912 111.359C101.295 111.856 101.805 112.104 102.443 112.104C103.086 112.104 103.596 111.854 103.975 111.353C104.353 110.847 104.542 110.14 104.542 109.233C104.542 108.422 104.348 107.766 103.961 107.265C103.578 106.759 103.068 106.506 102.43 106.506C101.805 106.506 101.302 106.754 100.919 107.251C100.536 107.748 100.345 108.459 100.345 109.384ZM111.218 106.738C111.026 106.706 110.819 106.69 110.596 106.69C109.766 106.69 109.203 107.044 108.907 107.75V113H107.643V105.604H108.873L108.894 106.458C109.308 105.797 109.896 105.467 110.657 105.467C110.903 105.467 111.09 105.499 111.218 105.562V106.738ZM124.207 113H122.888V108.399H117.87V113H116.558V103.047H117.87V107.326H122.888V103.047H124.207V113ZM131.156 113C131.083 112.854 131.024 112.594 130.979 112.221C130.391 112.831 129.689 113.137 128.873 113.137C128.144 113.137 127.545 112.932 127.075 112.521C126.61 112.107 126.378 111.583 126.378 110.949C126.378 110.179 126.67 109.582 127.253 109.158C127.841 108.73 128.666 108.516 129.728 108.516H130.958V107.935C130.958 107.493 130.826 107.142 130.562 106.882C130.297 106.618 129.908 106.485 129.393 106.485C128.941 106.485 128.563 106.599 128.258 106.827C127.952 107.055 127.8 107.331 127.8 107.654H126.528C126.528 107.285 126.658 106.93 126.918 106.588C127.182 106.242 127.538 105.968 127.984 105.768C128.436 105.567 128.93 105.467 129.468 105.467C130.32 105.467 130.988 105.681 131.471 106.109C131.954 106.533 132.204 107.119 132.223 107.866V111.271C132.223 111.95 132.309 112.49 132.482 112.891V113H131.156ZM129.058 112.036C129.454 112.036 129.83 111.934 130.186 111.729C130.541 111.523 130.799 111.257 130.958 110.929V109.411H129.967C128.417 109.411 127.643 109.865 127.643 110.771C127.643 111.168 127.775 111.478 128.039 111.701C128.303 111.924 128.643 112.036 129.058 112.036ZM140.717 109.384C140.717 110.514 140.457 111.423 139.938 112.111C139.418 112.795 138.721 113.137 137.846 113.137C136.911 113.137 136.189 112.806 135.679 112.146L135.617 113H134.455V102.5H135.72V106.417C136.23 105.784 136.934 105.467 137.832 105.467C138.73 105.467 139.434 105.806 139.944 106.485C140.459 107.164 140.717 108.094 140.717 109.274V109.384ZM139.452 109.24C139.452 108.379 139.286 107.714 138.953 107.244C138.62 106.775 138.142 106.54 137.518 106.54C136.684 106.54 136.084 106.927 135.72 107.702V110.901C136.107 111.676 136.711 112.063 137.531 112.063C138.137 112.063 138.609 111.829 138.946 111.359C139.284 110.89 139.452 110.184 139.452 109.24ZM143.94 113H142.676V105.604H143.94V113ZM142.573 103.642C142.573 103.437 142.635 103.263 142.758 103.122C142.885 102.981 143.072 102.91 143.318 102.91C143.564 102.91 143.751 102.981 143.879 103.122C144.007 103.263 144.07 103.437 144.07 103.642C144.07 103.847 144.007 104.018 143.879 104.154C143.751 104.291 143.564 104.359 143.318 104.359C143.072 104.359 142.885 104.291 142.758 104.154C142.635 104.018 142.573 103.847 142.573 103.642ZM147.937 103.812V105.604H149.317V106.581H147.937V111.168C147.937 111.464 147.998 111.688 148.121 111.838C148.244 111.984 148.454 112.057 148.75 112.057C148.896 112.057 149.096 112.029 149.352 111.975V113C149.019 113.091 148.695 113.137 148.381 113.137C147.816 113.137 147.39 112.966 147.103 112.624C146.815 112.282 146.672 111.797 146.672 111.168V106.581H145.325V105.604H146.672V103.812H147.937ZM158.8 113H157.528V104.571L154.979 105.508V104.359L158.602 102.999H158.8V113Z" fill="black" fill-opacity="0.6"/>
<path fill-rule="evenodd" clip-rule="evenodd" d="M383 94C384.1 94 385 93.1 385 92C385 90.9 384.1 90 383 90C381.9 90 381 90.9 381 92C381 93.1 381.9 94 383 94ZM383 96C381.9 96 381 96.9 381 98C381 99.1 381.9 100 383 100C384.1 100 385 99.1 385 98C385 96.9 384.1 96 383 96ZM383 102C381.9 102 381 102.9 381 104C381 105.1 381.9 106 383 106C384.1 106 385 105.1 385 104C385 102.9 384.1 102 383 102Z" fill="black" fill-opacity="0.6"/>
<rect x="18.2667" y="129" width="392.733" height="1" fill="#212121" fill-opacity="0.08"/>
</g>
<mask id="mask1_730:5841" style="mask-type:alpha" maskUnits="userSpaceOnUse" x="0" y="140" width="411" height="64">
<rect y="140" width="411" height="64" fill="white"/>
</mask>
<g mask="url(#mask1_730:5841)">
<path d="M26.0625 166H24.5547V160.742H18.8203V166H17.3203V154.625H18.8203V159.516H24.5547V154.625H26.0625V166ZM33.8687 166C33.7854 165.833 33.7177 165.536 33.6656 165.109C32.9937 165.807 32.1917 166.156 31.2594 166.156C30.426 166.156 29.7411 165.922 29.2047 165.453C28.6734 164.979 28.4078 164.38 28.4078 163.656C28.4078 162.776 28.7411 162.094 29.4078 161.609C30.0797 161.12 31.0224 160.875 32.2359 160.875H33.6422V160.211C33.6422 159.706 33.4911 159.305 33.1891 159.008C32.887 158.706 32.4417 158.555 31.8531 158.555C31.3375 158.555 30.9052 158.685 30.5562 158.945C30.2073 159.206 30.0328 159.521 30.0328 159.891H28.5797C28.5797 159.469 28.7281 159.062 29.025 158.672C29.3271 158.276 29.7333 157.964 30.2437 157.734C30.7594 157.505 31.3245 157.391 31.9391 157.391C32.913 157.391 33.676 157.635 34.2281 158.125C34.7802 158.609 35.0667 159.279 35.0875 160.133V164.023C35.0875 164.799 35.1865 165.417 35.3844 165.875V166H33.8687ZM31.4703 164.898C31.9234 164.898 32.3531 164.781 32.7594 164.547C33.1656 164.312 33.4599 164.008 33.6422 163.633V161.898H32.5094C30.7385 161.898 29.8531 162.417 29.8531 163.453C29.8531 163.906 30.0042 164.26 30.3062 164.516C30.6083 164.771 30.9964 164.898 31.4703 164.898ZM44.6594 161.867C44.6594 163.159 44.3625 164.198 43.7687 164.984C43.175 165.766 42.3781 166.156 41.3781 166.156C40.3104 166.156 39.4849 165.779 38.9016 165.023L38.8312 166H37.5031V154H38.9484V158.477C39.5318 157.753 40.3365 157.391 41.3625 157.391C42.3885 157.391 43.1932 157.779 43.7766 158.555C44.3651 159.331 44.6594 160.393 44.6594 161.742V161.867ZM43.2141 161.703C43.2141 160.719 43.024 159.958 42.6437 159.422C42.2635 158.885 41.7167 158.617 41.0031 158.617C40.05 158.617 39.3651 159.06 38.9484 159.945V163.602C39.3911 164.487 40.0812 164.93 41.0187 164.93C41.7115 164.93 42.2505 164.661 42.6359 164.125C43.0214 163.589 43.2141 162.781 43.2141 161.703ZM48.2078 166H46.7625V157.547H48.2078V166ZM46.6453 155.305C46.6453 155.07 46.7156 154.872 46.8563 154.711C47.0021 154.549 47.2156 154.469 47.4969 154.469C47.7781 154.469 47.9917 154.549 48.1375 154.711C48.2833 154.872 48.3563 155.07 48.3563 155.305C48.3563 155.539 48.2833 155.734 48.1375 155.891C47.9917 156.047 47.7781 156.125 47.4969 156.125C47.2156 156.125 47.0021 156.047 46.8563 155.891C46.7156 155.734 46.6453 155.539 46.6453 155.305ZM52.6391 155.5V157.547H54.2172V158.664H52.6391V163.906C52.6391 164.245 52.7094 164.5 52.85 164.672C52.9906 164.839 53.2302 164.922 53.5687 164.922C53.7354 164.922 53.9646 164.891 54.2562 164.828V166C53.876 166.104 53.5062 166.156 53.1469 166.156C52.501 166.156 52.0141 165.961 51.6859 165.57C51.3578 165.18 51.1937 164.625 51.1937 163.906V158.664H49.6547V157.547H51.1937V155.5H52.6391ZM67.4859 166H60.0328V164.961L63.9703 160.586C64.5536 159.924 64.9547 159.388 65.1734 158.977C65.3974 158.56 65.5094 158.13 65.5094 157.688C65.5094 157.094 65.3297 156.607 64.9703 156.227C64.6109 155.846 64.1318 155.656 63.5328 155.656C62.8141 155.656 62.2542 155.862 61.8531 156.273C61.4573 156.68 61.2594 157.247 61.2594 157.977H59.8141C59.8141 156.93 60.15 156.083 60.8219 155.438C61.499 154.792 62.4026 154.469 63.5328 154.469C64.5901 154.469 65.426 154.747 66.0406 155.305C66.6552 155.857 66.9625 156.594 66.9625 157.516C66.9625 158.635 66.249 159.969 64.8219 161.516L61.775 164.82H67.4859V166Z" fill="black" fill-opacity="0.87"/>
<path d="M17.1553 187V177.047H19.9648C20.8307 177.047 21.5964 177.238 22.2617 177.621C22.9271 178.004 23.4398 178.549 23.7998 179.255C24.1644 179.961 24.349 180.772 24.3535 181.688V182.324C24.3535 183.263 24.1712 184.086 23.8066 184.792C23.4466 185.498 22.9294 186.041 22.2549 186.419C21.585 186.797 20.8034 186.991 19.9102 187H17.1553ZM18.4678 178.127V185.927H19.8486C20.8604 185.927 21.6465 185.612 22.207 184.983C22.7721 184.354 23.0547 183.459 23.0547 182.297V181.716C23.0547 180.586 22.7881 179.708 22.2549 179.084C21.7262 178.455 20.9743 178.136 19.999 178.127H18.4678ZM29.4639 187.137C28.4613 187.137 27.6455 186.809 27.0166 186.152C26.3877 185.492 26.0732 184.61 26.0732 183.507V183.274C26.0732 182.541 26.2122 181.887 26.4902 181.312C26.7728 180.734 27.1647 180.283 27.666 179.959C28.1719 179.631 28.7188 179.467 29.3066 179.467C30.2682 179.467 31.0156 179.784 31.5488 180.417C32.082 181.05 32.3486 181.957 32.3486 183.138V183.664H27.3379C27.3561 184.393 27.568 184.983 27.9736 185.435C28.3838 185.881 28.9033 186.104 29.5322 186.104C29.9788 186.104 30.3571 186.013 30.667 185.831C30.9769 185.649 31.248 185.407 31.4805 185.106L32.2529 185.708C31.6331 186.66 30.7035 187.137 29.4639 187.137ZM29.3066 180.506C28.7962 180.506 28.3678 180.693 28.0215 181.066C27.6751 181.436 27.4609 181.955 27.3789 182.625H31.084V182.529C31.0475 181.887 30.8743 181.39 30.5645 181.039C30.2546 180.684 29.8353 180.506 29.3066 180.506ZM38.375 185.038C38.375 184.696 38.2451 184.432 37.9854 184.245C37.7301 184.054 37.2812 183.89 36.6387 183.753C36.0007 183.616 35.4925 183.452 35.1143 183.261C34.7406 183.069 34.4626 182.841 34.2803 182.577C34.1025 182.313 34.0137 181.998 34.0137 181.634C34.0137 181.028 34.2689 180.515 34.7793 180.096C35.2943 179.676 35.9505 179.467 36.748 179.467C37.5866 179.467 38.2656 179.683 38.7852 180.116C39.3092 180.549 39.5713 181.103 39.5713 181.777H38.2998C38.2998 181.431 38.1517 181.132 37.8555 180.882C37.5638 180.631 37.1947 180.506 36.748 180.506C36.2878 180.506 35.9277 180.606 35.668 180.807C35.4082 181.007 35.2783 181.269 35.2783 181.593C35.2783 181.898 35.3991 182.128 35.6406 182.283C35.8822 182.438 36.3174 182.586 36.9463 182.728C37.5798 182.869 38.0924 183.037 38.4844 183.233C38.8763 183.429 39.1657 183.666 39.3525 183.944C39.5439 184.218 39.6396 184.553 39.6396 184.949C39.6396 185.61 39.3753 186.141 38.8467 186.542C38.318 186.938 37.6322 187.137 36.7891 187.137C36.1966 187.137 35.6725 187.032 35.2168 186.822C34.7611 186.613 34.4033 186.321 34.1436 185.947C33.8883 185.569 33.7607 185.161 33.7607 184.724H35.0254C35.0482 185.147 35.2168 185.485 35.5312 185.735C35.8503 185.981 36.2695 186.104 36.7891 186.104C37.2676 186.104 37.6504 186.009 37.9375 185.817C38.2292 185.621 38.375 185.362 38.375 185.038ZM44.5039 186.104C44.9551 186.104 45.3493 185.968 45.6865 185.694C46.0238 185.421 46.2106 185.079 46.2471 184.669H47.4434C47.4206 185.093 47.2747 185.496 47.0059 185.879C46.737 186.262 46.377 186.567 45.9258 186.795C45.4792 187.023 45.0052 187.137 44.5039 187.137C43.4967 187.137 42.6947 186.802 42.0977 186.132C41.5052 185.457 41.209 184.537 41.209 183.37V183.158C41.209 182.438 41.3411 181.798 41.6055 181.237C41.8698 180.677 42.248 180.242 42.7402 179.932C43.237 179.622 43.8226 179.467 44.4971 179.467C45.3265 179.467 46.0146 179.715 46.5615 180.212C47.113 180.709 47.4069 181.354 47.4434 182.146H46.2471C46.2106 181.668 46.0283 181.276 45.7002 180.971C45.3766 180.661 44.9756 180.506 44.4971 180.506C43.8545 180.506 43.3555 180.738 43 181.203C42.6491 181.663 42.4736 182.331 42.4736 183.206V183.445C42.4736 184.298 42.6491 184.954 43 185.414C43.3509 185.874 43.8522 186.104 44.5039 186.104ZM52.6904 180.738C52.499 180.706 52.2917 180.69 52.0684 180.69C51.2389 180.69 50.6761 181.044 50.3799 181.75V187H49.1152V179.604H50.3457L50.3662 180.458C50.7809 179.797 51.3688 179.467 52.1299 179.467C52.376 179.467 52.5628 179.499 52.6904 179.562V180.738ZM55.4834 187H54.2188V179.604H55.4834V187ZM54.1162 177.642C54.1162 177.437 54.1777 177.263 54.3008 177.122C54.4284 176.981 54.6152 176.91 54.8613 176.91C55.1074 176.91 55.2943 176.981 55.4219 177.122C55.5495 177.263 55.6133 177.437 55.6133 177.642C55.6133 177.847 55.5495 178.018 55.4219 178.154C55.2943 178.291 55.1074 178.359 54.8613 178.359C54.6152 178.359 54.4284 178.291 54.3008 178.154C54.1777 178.018 54.1162 177.847 54.1162 177.642ZM64.0117 183.384C64.0117 184.509 63.7542 185.416 63.2393 186.104C62.7243 186.793 62.027 187.137 61.1475 187.137C60.2497 187.137 59.5433 186.852 59.0283 186.282V189.844H57.7637V179.604H58.9189L58.9805 180.424C59.4954 179.786 60.2109 179.467 61.127 179.467C62.0156 179.467 62.7174 179.802 63.2324 180.472C63.752 181.142 64.0117 182.074 64.0117 183.268V183.384ZM62.7471 183.24C62.7471 182.406 62.5693 181.748 62.2139 181.265C61.8584 180.782 61.3708 180.54 60.751 180.54C59.9854 180.54 59.4111 180.88 59.0283 181.559V185.093C59.4066 185.767 59.9854 186.104 60.7646 186.104C61.3708 186.104 61.8516 185.865 62.207 185.387C62.5671 184.904 62.7471 184.188 62.7471 183.24ZM67.5908 177.812V179.604H68.9717V180.581H67.5908V185.168C67.5908 185.464 67.6523 185.688 67.7754 185.838C67.8984 185.984 68.1081 186.057 68.4043 186.057C68.5501 186.057 68.7507 186.029 69.0059 185.975V187C68.6732 187.091 68.3496 187.137 68.0352 187.137C67.4701 187.137 67.0439 186.966 66.7568 186.624C66.4697 186.282 66.3262 185.797 66.3262 185.168V180.581H64.9795V179.604H66.3262V177.812H67.5908ZM72.0791 187H70.8145V179.604H72.0791V187ZM70.7119 177.642C70.7119 177.437 70.7734 177.263 70.8965 177.122C71.0241 176.981 71.2109 176.91 71.457 176.91C71.7031 176.91 71.89 176.981 72.0176 177.122C72.1452 177.263 72.209 177.437 72.209 177.642C72.209 177.847 72.1452 178.018 72.0176 178.154C71.89 178.291 71.7031 178.359 71.457 178.359C71.2109 178.359 71.0241 178.291 70.8965 178.154C70.7734 178.018 70.7119 177.847 70.7119 177.642ZM74.0244 183.233C74.0244 182.509 74.1657 181.857 74.4482 181.278C74.7354 180.7 75.1318 180.253 75.6377 179.938C76.1481 179.624 76.7292 179.467 77.3809 179.467C78.388 179.467 79.2015 179.815 79.8213 180.513C80.4456 181.21 80.7578 182.137 80.7578 183.295V183.384C80.7578 184.104 80.6188 184.751 80.3408 185.325C80.0674 185.895 79.6732 186.339 79.1582 186.658C78.6478 186.977 78.0599 187.137 77.3945 187.137C76.3919 187.137 75.5785 186.788 74.9541 186.091C74.3343 185.394 74.0244 184.471 74.0244 183.322V183.233ZM75.2959 183.384C75.2959 184.204 75.485 184.863 75.8633 185.359C76.2461 185.856 76.7565 186.104 77.3945 186.104C78.0371 186.104 78.5475 185.854 78.9258 185.353C79.304 184.847 79.4932 184.14 79.4932 183.233C79.4932 182.422 79.2995 181.766 78.9121 181.265C78.5293 180.759 78.0189 180.506 77.3809 180.506C76.7565 180.506 76.2529 180.754 75.8701 181.251C75.4873 181.748 75.2959 182.459 75.2959 183.384ZM83.79 179.604L83.8311 180.533C84.3962 179.822 85.1344 179.467 86.0459 179.467C87.609 179.467 88.3975 180.349 88.4111 182.112V187H87.1465V182.105C87.1419 181.572 87.0189 181.178 86.7773 180.923C86.5404 180.668 86.1689 180.54 85.6631 180.54C85.2529 180.54 84.8929 180.649 84.583 180.868C84.2731 181.087 84.0316 181.374 83.8584 181.729V187H82.5938V179.604H83.79ZM94.9131 187V180.581H93.7441V179.604H94.9131V178.845C94.9131 178.052 95.125 177.439 95.5488 177.006C95.9727 176.573 96.5719 176.356 97.3467 176.356C97.6383 176.356 97.9277 176.395 98.2148 176.473L98.1465 177.498C97.9323 177.457 97.7044 177.437 97.4629 177.437C97.0527 177.437 96.736 177.557 96.5127 177.799C96.2894 178.036 96.1777 178.378 96.1777 178.824V179.604H97.7568V180.581H96.1777V187H94.9131ZM99.0732 183.233C99.0732 182.509 99.2145 181.857 99.4971 181.278C99.7842 180.7 100.181 180.253 100.687 179.938C101.197 179.624 101.778 179.467 102.43 179.467C103.437 179.467 104.25 179.815 104.87 180.513C105.494 181.21 105.807 182.137 105.807 183.295V183.384C105.807 184.104 105.668 184.751 105.39 185.325C105.116 185.895 104.722 186.339 104.207 186.658C103.697 186.977 103.109 187.137 102.443 187.137C101.441 187.137 100.627 186.788 100.003 186.091C99.3831 185.394 99.0732 184.471 99.0732 183.322V183.233ZM100.345 183.384C100.345 184.204 100.534 184.863 100.912 185.359C101.295 185.856 101.805 186.104 102.443 186.104C103.086 186.104 103.596 185.854 103.975 185.353C104.353 184.847 104.542 184.14 104.542 183.233C104.542 182.422 104.348 181.766 103.961 181.265C103.578 180.759 103.068 180.506 102.43 180.506C101.805 180.506 101.302 180.754 100.919 181.251C100.536 181.748 100.345 182.459 100.345 183.384ZM111.218 180.738C111.026 180.706 110.819 180.69 110.596 180.69C109.766 180.69 109.203 181.044 108.907 181.75V187H107.643V179.604H108.873L108.894 180.458C109.308 179.797 109.896 179.467 110.657 179.467C110.903 179.467 111.09 179.499 111.218 179.562V180.738ZM124.207 187H122.888V182.399H117.87V187H116.558V177.047H117.87V181.326H122.888V177.047H124.207V187ZM131.156 187C131.083 186.854 131.024 186.594 130.979 186.221C130.391 186.831 129.689 187.137 128.873 187.137C128.144 187.137 127.545 186.932 127.075 186.521C126.61 186.107 126.378 185.583 126.378 184.949C126.378 184.179 126.67 183.582 127.253 183.158C127.841 182.73 128.666 182.516 129.728 182.516H130.958V181.935C130.958 181.493 130.826 181.142 130.562 180.882C130.297 180.618 129.908 180.485 129.393 180.485C128.941 180.485 128.563 180.599 128.258 180.827C127.952 181.055 127.8 181.331 127.8 181.654H126.528C126.528 181.285 126.658 180.93 126.918 180.588C127.182 180.242 127.538 179.968 127.984 179.768C128.436 179.567 128.93 179.467 129.468 179.467C130.32 179.467 130.988 179.681 131.471 180.109C131.954 180.533 132.204 181.119 132.223 181.866V185.271C132.223 185.95 132.309 186.49 132.482 186.891V187H131.156ZM129.058 186.036C129.454 186.036 129.83 185.934 130.186 185.729C130.541 185.523 130.799 185.257 130.958 184.929V183.411H129.967C128.417 183.411 127.643 183.865 127.643 184.771C127.643 185.168 127.775 185.478 128.039 185.701C128.303 185.924 128.643 186.036 129.058 186.036ZM140.717 183.384C140.717 184.514 140.457 185.423 139.938 186.111C139.418 186.795 138.721 187.137 137.846 187.137C136.911 187.137 136.189 186.806 135.679 186.146L135.617 187H134.455V176.5H135.72V180.417C136.23 179.784 136.934 179.467 137.832 179.467C138.73 179.467 139.434 179.806 139.944 180.485C140.459 181.164 140.717 182.094 140.717 183.274V183.384ZM139.452 183.24C139.452 182.379 139.286 181.714 138.953 181.244C138.62 180.775 138.142 180.54 137.518 180.54C136.684 180.54 136.084 180.927 135.72 181.702V184.901C136.107 185.676 136.711 186.063 137.531 186.063C138.137 186.063 138.609 185.829 138.946 185.359C139.284 184.89 139.452 184.184 139.452 183.24ZM143.94 187H142.676V179.604H143.94V187ZM142.573 177.642C142.573 177.437 142.635 177.263 142.758 177.122C142.885 176.981 143.072 176.91 143.318 176.91C143.564 176.91 143.751 176.981 143.879 177.122C144.007 177.263 144.07 177.437 144.07 177.642C144.07 177.847 144.007 178.018 143.879 178.154C143.751 178.291 143.564 178.359 143.318 178.359C143.072 178.359 142.885 178.291 142.758 178.154C142.635 178.018 142.573 177.847 142.573 177.642ZM147.937 177.812V179.604H149.317V180.581H147.937V185.168C147.937 185.464 147.998 185.688 148.121 185.838C148.244 185.984 148.454 186.057 148.75 186.057C148.896 186.057 149.096 186.029 149.352 185.975V187C149.019 187.091 148.695 187.137 148.381 187.137C147.816 187.137 147.39 186.966 147.103 186.624C146.815 186.282 146.672 185.797 146.672 185.168V180.581H145.325V179.604H146.672V177.812H147.937ZM161.165 187H154.644V186.091L158.089 182.263C158.599 181.684 158.95 181.215 159.142 180.854C159.338 180.49 159.436 180.114 159.436 179.727C159.436 179.207 159.278 178.781 158.964 178.448C158.649 178.116 158.23 177.949 157.706 177.949C157.077 177.949 156.587 178.129 156.236 178.489C155.89 178.845 155.717 179.341 155.717 179.979H154.452C154.452 179.063 154.746 178.323 155.334 177.758C155.926 177.193 156.717 176.91 157.706 176.91C158.631 176.91 159.363 177.154 159.9 177.642C160.438 178.125 160.707 178.77 160.707 179.576C160.707 180.556 160.083 181.723 158.834 183.076L156.168 185.968H161.165V187Z" fill="black" fill-opacity="0.6"/>
<path fill-rule="evenodd" clip-rule="evenodd" d="M383 168C384.1 168 385 167.1 385 166C385 164.9 384.1 164 383 164C381.9 164 381 164.9 381 166C381 167.1 381.9 168 383 168ZM383 170C381.9 170 381 170.9 381 172C381 173.1 381.9 174 383 174C384.1 174 385 173.1 385 172C385 170.9 384.1 170 383 170ZM383 176C381.9 176 381 176.9 381 178C381 179.1 381.9 180 383 180C384.1 180 385 179.1 385 178C385 176.9 384.1 176 383 176Z" fill="black" fill-opacity="0.6"/>
<rect x="18.2667" y="203" width="392.733" height="1" fill="#212121" fill-opacity="0.08"/>
</g>
<g filter="url(#filter1_ddd_730:5841)">
<rect width="411" height="56" fill="#6200EE"/>
<path fill-rule="evenodd" clip-rule="evenodd" d="M287 38C288.1 38 289 37.1 289 36H285C285 37.1 285.89 38 287 38ZM293 32V27C293 23.93 291.36 21.36 288.5 20.68V20C288.5 19.17 287.83 18.5 287 18.5C286.17 18.5 285.5 19.17 285.5 20V20.68C282.63 21.36 281 23.92 281 27V32L279 34V35H295V34L293 32Z" fill="white" fill-opacity="0.74"/>
<path fill-rule="evenodd" clip-rule="evenodd" d="M341 32.08C340.24 32.08 339.56 32.38 339.04 32.85L331.91 28.7C331.96 28.47 332 28.24 332 28C332 27.76 331.96 27.53 331.91 27.3L338.96 23.19C339.5 23.69 340.21 24 341 24C342.66 24 344 22.66 344 21C344 19.34 342.66 18 341 18C339.34 18 338 19.34 338 21C338 21.24 338.04 21.47 338.09 21.7L331.04 25.81C330.5 25.31 329.79 25 329 25C327.34 25 326 26.34 326 28C326 29.66 327.34 31 329 31C329.79 31 330.5 30.69 331.04 30.19L338.16 34.35C338.11 34.56 338.08 34.78 338.08 35C338.08 36.61 339.39 37.92 341 37.92C342.61 37.92 343.92 36.61 343.92 35C343.92 33.39 342.61 32.08 341 32.08Z" fill="white" fill-opacity="0.74"/>
<path fill-rule="evenodd" clip-rule="evenodd" d="M386.5 30H385.71L385.43 29.73C386.41 28.59 387 27.11 387 25.5C387 21.91 384.09 19 380.5 19C376.91 19 374 21.91 374 25.5C374 29.09 376.91 32 380.5 32C382.11 32 383.59 31.41 384.73 30.43L385 30.71V31.5L390 36.49L391.49 35L386.5 30ZM380.5 30C378.01 30 376 27.99 376 25.5C376 23.01 378.01 21 380.5 21C382.99 21 385 23.01 385 25.5C385 27.99 382.99 30 380.5 30Z" fill="white" fill-opacity="0.74"/>
<path fill-rule="evenodd" clip-rule="evenodd" d="M19 34H37V32H19V34ZM19 29H37V27H19V29ZM19 22V24H37V22H19Z" fill="white" fill-opacity="0.74"/>
</g>
<g filter="url(#filter2_d_730:5841)">
<mask id="mask2_730:5841" style="mask-type:alpha" maskUnits="userSpaceOnUse" x="287" y="12" width="16" height="16">
<path fill-rule="evenodd" clip-rule="evenodd" d="M295 28C299.418 28 303 24.4183 303 20C303 15.5817 299.418 12 295 12C290.582 12 287 15.5817 287 20C287 24.4183 290.582 28 295 28Z" fill="white"/>
</mask>
<g mask="url(#mask2_730:5841)">
<rect x="287" y="12" width="40" height="40" fill="#B00020"/>
<path d="M296.255 23H295.192V17.8628L293.623 18.3989V17.498L296.119 16.5796H296.255V23Z" fill="white"/>
</g>
</g>
<g filter="url(#filter3_ddd_730:5841)">
<rect width="274" height="154" transform="translate(13 40)" fill="white"/>
<path d="M38.7188 71.5078C38.3333 72.0599 37.7943 72.474 37.1016 72.75C36.4141 73.0208 35.612 73.1562 34.6953 73.1562C33.7682 73.1562 32.9453 72.9401 32.2266 72.5078C31.5078 72.0703 30.9505 71.4505 30.5547 70.6484C30.1641 69.8464 29.9635 68.9167 29.9531 67.8594V66.8672C29.9531 65.1536 30.3516 63.8255 31.1484 62.8828C31.9505 61.9401 33.0755 61.4688 34.5234 61.4688C35.7109 61.4688 36.6667 61.7734 37.3906 62.3828C38.1146 62.987 38.5573 63.8464 38.7188 64.9609H37.2188C36.9375 63.4557 36.0417 62.7031 34.5312 62.7031C33.526 62.7031 32.763 63.0573 32.2422 63.7656C31.7266 64.4688 31.4661 65.4896 31.4609 66.8281V67.7578C31.4609 69.0339 31.7526 70.0495 32.3359 70.8047C32.9193 71.5547 33.7083 71.9297 34.7031 71.9297C35.2656 71.9297 35.7578 71.8672 36.1797 71.7422C36.6016 71.6172 36.9505 71.4062 37.2266 71.1094V68.5547H34.5938V67.3359H38.7188V71.5078ZM44.6578 73.1562C43.512 73.1562 42.5797 72.7812 41.8609 72.0312C41.1422 71.276 40.7828 70.2682 40.7828 69.0078V68.7422C40.7828 67.9036 40.9417 67.1562 41.2594 66.5C41.5823 65.8385 42.0302 65.3229 42.6031 64.9531C43.1812 64.5781 43.8062 64.3906 44.4781 64.3906C45.5771 64.3906 46.4312 64.7526 47.0406 65.4766C47.65 66.2005 47.9547 67.237 47.9547 68.5859V69.1875H42.2281C42.249 70.0208 42.4911 70.6953 42.9547 71.2109C43.4234 71.7214 44.0172 71.9766 44.7359 71.9766C45.2464 71.9766 45.6786 71.8724 46.0328 71.6641C46.387 71.4557 46.6969 71.1797 46.9625 70.8359L47.8453 71.5234C47.137 72.612 46.0745 73.1562 44.6578 73.1562ZM44.4781 65.5781C43.8948 65.5781 43.4052 65.7917 43.0094 66.2188C42.6135 66.6406 42.3687 67.2344 42.275 68H46.5094V67.8906C46.4677 67.1562 46.2698 66.5885 45.9156 66.1875C45.5615 65.7812 45.0823 65.5781 44.4781 65.5781ZM53.8703 65.8438C53.6516 65.8073 53.4146 65.7891 53.1594 65.7891C52.2115 65.7891 51.5682 66.1927 51.2297 67V73H49.7844V64.5469H51.1906L51.2141 65.5234C51.688 64.7682 52.3599 64.3906 53.2297 64.3906C53.5109 64.3906 53.7245 64.4271 53.8703 64.5V65.8438ZM60.2625 73C60.1792 72.8333 60.1115 72.5365 60.0594 72.1094C59.3875 72.8073 58.5854 73.1562 57.6531 73.1562C56.8198 73.1562 56.1349 72.9219 55.5984 72.4531C55.0672 71.9792 54.8016 71.3802 54.8016 70.6562C54.8016 69.776 55.1349 69.0938 55.8016 68.6094C56.4734 68.1198 57.4161 67.875 58.6297 67.875H60.0359V67.2109C60.0359 66.7057 59.8849 66.3047 59.5828 66.0078C59.2807 65.7057 58.8354 65.5547 58.2469 65.5547C57.7313 65.5547 57.299 65.6849 56.95 65.9453C56.601 66.2057 56.4266 66.5208 56.4266 66.8906H54.9734C54.9734 66.4688 55.1219 66.0625 55.4188 65.6719C55.7208 65.276 56.1271 64.9635 56.6375 64.7344C57.1531 64.5052 57.7182 64.3906 58.3328 64.3906C59.3068 64.3906 60.0698 64.6354 60.6219 65.125C61.174 65.6094 61.4604 66.2786 61.4813 67.1328V71.0234C61.4813 71.7995 61.5802 72.4167 61.7781 72.875V73H60.2625ZM57.8641 71.8984C58.3172 71.8984 58.7469 71.7812 59.1531 71.5469C59.5594 71.3125 59.8536 71.0078 60.0359 70.6328V68.8984H58.9031C57.1323 68.8984 56.2469 69.4167 56.2469 70.4531C56.2469 70.9062 56.3979 71.2604 56.7 71.5156C57.0021 71.7708 57.3901 71.8984 57.8641 71.8984ZM65.4672 73H64.0219V61H65.4672V73ZM67.5859 68.7031C67.5859 67.4062 67.8932 66.3646 68.5078 65.5781C69.1224 64.7865 69.9271 64.3906 70.9219 64.3906C71.9115 64.3906 72.6953 64.7292 73.2734 65.4062V61H74.7188V73H73.3906L73.3203 72.0938C72.7422 72.8021 71.9375 73.1562 70.9062 73.1562C69.9271 73.1562 69.1276 72.7552 68.5078 71.9531C67.8932 71.151 67.5859 70.1042 67.5859 68.8125V68.7031ZM69.0312 68.8672C69.0312 69.8255 69.2292 70.5755 69.625 71.1172C70.0208 71.6589 70.5677 71.9297 71.2656 71.9297C72.1823 71.9297 72.8516 71.5182 73.2734 70.6953V66.8125C72.8411 66.0156 72.1771 65.6172 71.2812 65.6172C70.5729 65.6172 70.0208 65.8906 69.625 66.4375C69.2292 66.9844 69.0312 67.7943 69.0312 68.8672Z" fill="black" fill-opacity="0.87"/>
<path d="M35.0742 94.0674C34.8333 94.4124 34.4964 94.6712 34.0635 94.8438C33.6338 95.013 33.1325 95.0977 32.5596 95.0977C31.9801 95.0977 31.4658 94.9626 31.0166 94.6924C30.5674 94.4189 30.2191 94.0316 29.9717 93.5303C29.7275 93.029 29.6022 92.4479 29.5957 91.7871V91.167C29.5957 90.096 29.8447 89.266 30.3428 88.6768C30.8441 88.0876 31.5472 87.793 32.4521 87.793C33.1943 87.793 33.7917 87.9834 34.2441 88.3643C34.6966 88.7419 34.9733 89.279 35.0742 89.9756H34.1367C33.9609 89.0348 33.401 88.5645 32.457 88.5645C31.8288 88.5645 31.3519 88.7858 31.0264 89.2285C30.7041 89.668 30.5413 90.306 30.5381 91.1426V91.7236C30.5381 92.5212 30.7204 93.1559 31.085 93.6279C31.4495 94.0967 31.9427 94.3311 32.5645 94.3311C32.916 94.3311 33.2236 94.292 33.4873 94.2139C33.751 94.1357 33.9691 94.0039 34.1416 93.8184V92.2217H32.4961V91.46H35.0742V94.0674ZM38.8424 95.0977C38.1262 95.0977 37.5436 94.8633 37.0943 94.3945C36.6451 93.9225 36.4205 93.2926 36.4205 92.5049V92.3389C36.4205 91.8148 36.5198 91.3477 36.7184 90.9375C36.9202 90.5241 37.2001 90.2018 37.5582 89.9707C37.9195 89.7363 38.3102 89.6191 38.7301 89.6191C39.4169 89.6191 39.9508 89.8454 40.3316 90.2979C40.7125 90.7503 40.9029 91.3981 40.9029 92.2412V92.6172H37.3238C37.3368 93.138 37.4882 93.5596 37.7779 93.8818C38.0709 94.2008 38.442 94.3604 38.8912 94.3604C39.2102 94.3604 39.4804 94.2952 39.7018 94.165C39.9231 94.0348 40.1168 93.8623 40.2828 93.6475L40.8346 94.0771C40.3919 94.7575 39.7278 95.0977 38.8424 95.0977ZM38.7301 90.3613C38.3655 90.3613 38.0595 90.4948 37.8121 90.7617C37.5647 91.0254 37.4117 91.3965 37.3531 91.875H39.9996V91.8066C39.9736 91.3477 39.8499 90.9928 39.6285 90.7422C39.4072 90.4883 39.1077 90.3613 38.7301 90.3613ZM44.6564 90.5273C44.5197 90.5046 44.3716 90.4932 44.2121 90.4932C43.6197 90.4932 43.2176 90.7454 43.0061 91.25V95H42.1027V89.7168H42.9816L42.9963 90.3271C43.2925 89.8551 43.7124 89.6191 44.2561 89.6191C44.4318 89.6191 44.5653 89.6419 44.6564 89.6875V90.5273ZM48.7078 95C48.6557 94.8958 48.6134 94.7103 48.5809 94.4434C48.1609 94.8796 47.6596 95.0977 47.077 95.0977C46.5561 95.0977 46.1281 94.9512 45.7928 94.6582C45.4607 94.362 45.2947 93.9876 45.2947 93.5352C45.2947 92.985 45.5031 92.5586 45.9197 92.2559C46.3396 91.9499 46.9288 91.7969 47.6873 91.7969H48.5662V91.3818C48.5662 91.0661 48.4718 90.8154 48.283 90.6299C48.0942 90.4411 47.8159 90.3467 47.448 90.3467C47.1258 90.3467 46.8556 90.4281 46.6375 90.5908C46.4194 90.7536 46.3104 90.9505 46.3104 91.1816H45.4021C45.4021 90.918 45.4949 90.6641 45.6805 90.4199C45.8693 90.1725 46.1232 89.9772 46.4422 89.834C46.7645 89.6908 47.1176 89.6191 47.5018 89.6191C48.1105 89.6191 48.5874 89.7721 48.9324 90.0781C49.2775 90.3809 49.4565 90.7992 49.4695 91.333V93.7646C49.4695 94.2497 49.5314 94.6354 49.6551 94.9219V95H48.7078ZM47.2088 94.3115C47.492 94.3115 47.7605 94.2383 48.0145 94.0918C48.2684 93.9453 48.4523 93.7549 48.5662 93.5205V92.4365H47.8582C46.7514 92.4365 46.198 92.7604 46.198 93.4082C46.198 93.6914 46.2924 93.9128 46.4812 94.0723C46.6701 94.2318 46.9126 94.3115 47.2088 94.3115ZM52.017 95H51.1137V87.5H52.017V95ZM53.3975 92.3145C53.3975 91.5039 53.5895 90.8529 53.9736 90.3613C54.3577 89.8665 54.8607 89.6191 55.4824 89.6191C56.1009 89.6191 56.5908 89.8307 56.9521 90.2539V87.5H57.8555V95H57.0254L56.9814 94.4336C56.6201 94.8763 56.1172 95.0977 55.4727 95.0977C54.8607 95.0977 54.361 94.847 53.9736 94.3457C53.5895 93.8444 53.3975 93.1901 53.3975 92.3828V92.3145ZM54.3008 92.417C54.3008 93.016 54.4245 93.4847 54.6719 93.8232C54.9193 94.1618 55.2611 94.3311 55.6973 94.3311C56.2702 94.3311 56.6885 94.0739 56.9521 93.5596V91.1328C56.682 90.6348 56.2669 90.3857 55.707 90.3857C55.2643 90.3857 54.9193 90.5566 54.6719 90.8984C54.4245 91.2402 54.3008 91.7464 54.3008 92.417ZM66.7199 93.7549L67.7355 89.7168H68.6389L67.1008 95H66.3684L65.0842 90.9961L63.8342 95H63.1018L61.5686 89.7168H62.467L63.507 93.6719L64.7375 89.7168H65.465L66.7199 93.7549ZM72.9734 95C72.9214 94.8958 72.879 94.7103 72.8465 94.4434C72.4266 94.8796 71.9253 95.0977 71.3426 95.0977C70.8217 95.0977 70.3937 94.9512 70.0584 94.6582C69.7264 94.362 69.5604 93.9876 69.5604 93.5352C69.5604 92.985 69.7687 92.5586 70.1854 92.2559C70.6053 91.9499 71.1945 91.7969 71.9529 91.7969H72.8318V91.3818C72.8318 91.0661 72.7374 90.8154 72.5486 90.6299C72.3598 90.4411 72.0815 90.3467 71.7137 90.3467C71.3914 90.3467 71.1212 90.4281 70.9031 90.5908C70.685 90.7536 70.576 90.9505 70.576 91.1816H69.6678C69.6678 90.918 69.7605 90.6641 69.9461 90.4199C70.1349 90.1725 70.3888 89.9772 70.7078 89.834C71.0301 89.6908 71.3833 89.6191 71.7674 89.6191C72.3761 89.6191 72.853 89.7721 73.198 90.0781C73.5431 90.3809 73.7221 90.7992 73.7352 91.333V93.7646C73.7352 94.2497 73.797 94.6354 73.9207 94.9219V95H72.9734ZM71.4744 94.3115C71.7576 94.3115 72.0262 94.2383 72.2801 94.0918C72.534 93.9453 72.7179 93.7549 72.8318 93.5205V92.4365H72.1238C71.0171 92.4365 70.4637 92.7604 70.4637 93.4082C70.4637 93.6914 70.5581 93.9128 70.7469 94.0723C70.9357 94.2318 71.1782 94.3115 71.4744 94.3115ZM76.1557 89.7168L76.185 90.3809C76.5886 89.873 77.1159 89.6191 77.767 89.6191C78.8835 89.6191 79.4467 90.249 79.4564 91.5088V95H78.5531V91.5039C78.5499 91.123 78.462 90.8415 78.2895 90.6592C78.1202 90.4769 77.8549 90.3857 77.4936 90.3857C77.2006 90.3857 76.9434 90.4639 76.7221 90.6201C76.5007 90.7764 76.3282 90.9814 76.2045 91.2354V95H75.3012V89.7168H76.1557ZM82.1943 88.4375V89.7168H83.1807V90.415H82.1943V93.6914C82.1943 93.903 82.2383 94.0625 82.3262 94.1699C82.4141 94.2741 82.5638 94.3262 82.7754 94.3262C82.8796 94.3262 83.0228 94.3066 83.2051 94.2676V95C82.9674 95.0651 82.7363 95.0977 82.5117 95.0977C82.1081 95.0977 81.8037 94.9756 81.5986 94.7314C81.3936 94.4873 81.291 94.1406 81.291 93.6914V90.415H80.3291V89.7168H81.291V88.4375H82.1943ZM87.4664 93.5986C87.4664 93.3545 87.3736 93.1657 87.1881 93.0322C87.0058 92.8955 86.6852 92.7783 86.2262 92.6807C85.7704 92.583 85.4075 92.4658 85.1373 92.3291C84.8704 92.1924 84.6718 92.0296 84.5416 91.8408C84.4146 91.652 84.3512 91.4274 84.3512 91.167C84.3512 90.734 84.5335 90.3678 84.898 90.0684C85.2659 89.7689 85.7346 89.6191 86.3043 89.6191C86.9033 89.6191 87.3883 89.7738 87.7594 90.083C88.1337 90.3923 88.3209 90.7878 88.3209 91.2695H87.4127C87.4127 91.0221 87.3069 90.8089 87.0953 90.6299C86.887 90.4508 86.6233 90.3613 86.3043 90.3613C85.9755 90.3613 85.7184 90.4329 85.5328 90.5762C85.3473 90.7194 85.2545 90.9066 85.2545 91.1377C85.2545 91.3558 85.3408 91.5202 85.5133 91.6309C85.6858 91.7415 85.9967 91.8473 86.4459 91.9482C86.8984 92.0492 87.2646 92.1696 87.5445 92.3096C87.8245 92.4495 88.0312 92.6188 88.1646 92.8174C88.3014 93.0127 88.3697 93.252 88.3697 93.5352C88.3697 94.0072 88.1809 94.3864 87.8033 94.6729C87.4257 94.9561 86.9358 95.0977 86.3336 95.0977C85.9104 95.0977 85.5361 95.0228 85.2105 94.873C84.885 94.7233 84.6295 94.515 84.4439 94.248C84.2617 93.9779 84.1705 93.6865 84.1705 93.374H85.0738C85.0901 93.6768 85.2105 93.9176 85.4352 94.0967C85.663 94.2725 85.9625 94.3604 86.3336 94.3604C86.6754 94.3604 86.9488 94.292 87.1539 94.1553C87.3622 94.0153 87.4664 93.8298 87.4664 93.5986ZM93.5525 88.4375V89.7168H94.5389V90.415H93.5525V93.6914C93.5525 93.903 93.5965 94.0625 93.6844 94.1699C93.7723 94.2741 93.922 94.3262 94.1336 94.3262C94.2378 94.3262 94.381 94.3066 94.5633 94.2676V95C94.3257 95.0651 94.0945 95.0977 93.8699 95.0977C93.4663 95.0977 93.1619 94.9756 92.9568 94.7314C92.7518 94.4873 92.6492 94.1406 92.6492 93.6914V90.415H91.6873V89.7168H92.6492V88.4375H93.5525ZM95.4115 92.3096C95.4115 91.792 95.5124 91.3265 95.7143 90.9131C95.9193 90.4997 96.2025 90.1807 96.5639 89.9561C96.9284 89.7314 97.3435 89.6191 97.809 89.6191C98.5284 89.6191 99.1094 89.8682 99.5521 90.3662C99.9981 90.8643 100.221 91.5267 100.221 92.3535V92.417C100.221 92.9313 100.122 93.3936 99.9232 93.8037C99.7279 94.2106 99.4464 94.528 99.0785 94.7559C98.7139 94.9837 98.294 95.0977 97.8187 95.0977C97.1026 95.0977 96.5215 94.8486 96.0756 94.3506C95.6329 93.8525 95.4115 93.1934 95.4115 92.373V92.3096ZM96.3197 92.417C96.3197 93.0029 96.4548 93.4733 96.725 93.8281C96.9984 94.1829 97.363 94.3604 97.8187 94.3604C98.2777 94.3604 98.6423 94.1813 98.9125 93.8232C99.1827 93.4619 99.3178 92.9574 99.3178 92.3096C99.3178 91.7301 99.1794 91.2614 98.9027 90.9033C98.6293 90.542 98.2647 90.3613 97.809 90.3613C97.363 90.3613 97.0033 90.5387 96.7299 90.8936C96.4564 91.2484 96.3197 91.7562 96.3197 92.417ZM104.579 95V90.415H103.744V89.7168H104.579V89.1748C104.579 88.6084 104.73 88.1706 105.033 87.8613C105.336 87.5521 105.764 87.3975 106.317 87.3975C106.525 87.3975 106.732 87.4251 106.937 87.4805L106.888 88.2129C106.735 88.1836 106.573 88.1689 106.4 88.1689C106.107 88.1689 105.881 88.2552 105.721 88.4277C105.562 88.597 105.482 88.8411 105.482 89.1602V89.7168H106.61V90.415H105.482V95H104.579ZM107.522 92.3096C107.522 91.792 107.623 91.3265 107.824 90.9131C108.029 90.4997 108.313 90.1807 108.674 89.9561C109.039 89.7314 109.454 89.6191 109.919 89.6191C110.639 89.6191 111.22 89.8682 111.662 90.3662C112.108 90.8643 112.331 91.5267 112.331 92.3535V92.417C112.331 92.9313 112.232 93.3936 112.033 93.8037C111.838 94.2106 111.557 94.528 111.189 94.7559C110.824 94.9837 110.404 95.0977 109.929 95.0977C109.213 95.0977 108.632 94.8486 108.186 94.3506C107.743 93.8525 107.522 93.1934 107.522 92.373V92.3096ZM108.43 92.417C108.43 93.0029 108.565 93.4733 108.835 93.8281C109.109 94.1829 109.473 94.3604 109.929 94.3604C110.388 94.3604 110.752 94.1813 111.023 93.8232C111.293 93.4619 111.428 92.9574 111.428 92.3096C111.428 91.7301 111.29 91.2614 111.013 90.9033C110.739 90.542 110.375 90.3613 109.919 90.3613C109.473 90.3613 109.113 90.5387 108.84 90.8936C108.567 91.2484 108.43 91.7562 108.43 92.417ZM114.596 95H113.692V87.5H114.596V95ZM117.177 95H116.274V87.5H117.177V95ZM118.538 92.3096C118.538 91.792 118.639 91.3265 118.841 90.9131C119.046 90.4997 119.329 90.1807 119.69 89.9561C120.055 89.7314 120.47 89.6191 120.936 89.6191C121.655 89.6191 122.236 89.8682 122.679 90.3662C123.125 90.8643 123.348 91.5267 123.348 92.3535V92.417C123.348 92.9313 123.248 93.3936 123.05 93.8037C122.854 94.2106 122.573 94.528 122.205 94.7559C121.84 94.9837 121.421 95.0977 120.945 95.0977C120.229 95.0977 119.648 94.8486 119.202 94.3506C118.759 93.8525 118.538 93.1934 118.538 92.373V92.3096ZM119.446 92.417C119.446 93.0029 119.581 93.4733 119.852 93.8281C120.125 94.1829 120.49 94.3604 120.945 94.3604C121.404 94.3604 121.769 94.1813 122.039 93.8232C122.309 93.4619 122.444 92.9574 122.444 92.3096C122.444 91.7301 122.306 91.2614 122.029 90.9033C121.756 90.542 121.391 90.3613 120.936 90.3613C120.49 90.3613 120.13 90.5387 119.856 90.8936C119.583 91.2484 119.446 91.7562 119.446 92.417ZM129.308 93.7549L130.324 89.7168H131.227L129.689 95H128.957L127.672 90.9961L126.422 95H125.69L124.157 89.7168H125.055L126.095 93.6719L127.326 89.7168H128.053L129.308 93.7549ZM136.659 93.6768L137.889 89.7168H138.856L136.732 95.8154C136.403 96.6943 135.881 97.1338 135.165 97.1338L134.994 97.1191L134.657 97.0557V96.3232L134.901 96.3428C135.207 96.3428 135.445 96.2809 135.614 96.1572C135.787 96.0335 135.928 95.8073 136.039 95.4785L136.239 94.9414L134.354 89.7168H135.341L136.659 93.6768ZM139.499 92.3096C139.499 91.792 139.6 91.3265 139.802 90.9131C140.007 90.4997 140.29 90.1807 140.652 89.9561C141.016 89.7314 141.431 89.6191 141.897 89.6191C142.616 89.6191 143.197 89.8682 143.64 90.3662C144.086 90.8643 144.309 91.5267 144.309 92.3535V92.417C144.309 92.9313 144.21 93.3936 144.011 93.8037C143.816 94.2106 143.534 94.528 143.166 94.7559C142.802 94.9837 142.382 95.0977 141.907 95.0977C141.19 95.0977 140.609 94.8486 140.163 94.3506C139.721 93.8525 139.499 93.1934 139.499 92.373V92.3096ZM140.408 92.417C140.408 93.0029 140.543 93.4733 140.813 93.8281C141.086 94.1829 141.451 94.3604 141.907 94.3604C142.366 94.3604 142.73 94.1813 143 93.8232C143.271 93.4619 143.406 92.9574 143.406 92.3096C143.406 91.7301 143.267 91.2614 142.991 90.9033C142.717 90.542 142.353 90.3613 141.897 90.3613C141.451 90.3613 141.091 90.5387 140.818 90.8936C140.544 91.2484 140.408 91.7562 140.408 92.417ZM148.854 94.4775C148.502 94.891 147.986 95.0977 147.306 95.0977C146.743 95.0977 146.313 94.9349 146.017 94.6094C145.724 94.2806 145.576 93.7956 145.572 93.1543V89.7168H146.476V93.1299C146.476 93.9307 146.801 94.3311 147.452 94.3311C148.142 94.3311 148.601 94.0739 148.829 93.5596V89.7168H149.732V95H148.873L148.854 94.4775ZM153.813 90.5273C153.676 90.5046 153.528 90.4932 153.369 90.4932C152.776 90.4932 152.374 90.7454 152.163 91.25V95H151.259V89.7168H152.138L152.153 90.3271C152.449 89.8551 152.869 89.6191 153.413 89.6191C153.588 89.6191 153.722 89.6419 153.813 89.6875V90.5273ZM158.332 90.3564C158.732 89.8649 159.253 89.6191 159.894 89.6191C161.011 89.6191 161.574 90.249 161.584 91.5088V95H160.68V91.5039C160.677 91.123 160.589 90.8415 160.417 90.6592C160.248 90.4769 159.982 90.3857 159.621 90.3857C159.328 90.3857 159.071 90.4639 158.849 90.6201C158.628 90.7764 158.456 90.9814 158.332 91.2354V95H157.429V87.5H158.332V90.3564ZM166.348 95C166.296 94.8958 166.254 94.7103 166.221 94.4434C165.801 94.8796 165.3 95.0977 164.717 95.0977C164.196 95.0977 163.768 94.9512 163.433 94.6582C163.101 94.362 162.935 93.9876 162.935 93.5352C162.935 92.985 163.143 92.5586 163.56 92.2559C163.98 91.9499 164.569 91.7969 165.328 91.7969H166.206V91.3818C166.206 91.0661 166.112 90.8154 165.923 90.6299C165.734 90.4411 165.456 90.3467 165.088 90.3467C164.766 90.3467 164.496 90.4281 164.278 90.5908C164.06 90.7536 163.951 90.9505 163.951 91.1816H163.042C163.042 90.918 163.135 90.6641 163.321 90.4199C163.51 90.1725 163.763 89.9772 164.082 89.834C164.405 89.6908 164.758 89.6191 165.142 89.6191C165.751 89.6191 166.228 89.7721 166.573 90.0781C166.918 90.3809 167.097 90.7992 167.11 91.333V93.7646C167.11 94.2497 167.172 94.6354 167.295 94.9219V95H166.348ZM164.849 94.3115C165.132 94.3115 165.401 94.2383 165.655 94.0918C165.909 93.9453 166.093 93.7549 166.206 93.5205V92.4365H165.498C164.392 92.4365 163.838 92.7604 163.838 93.4082C163.838 93.6914 163.933 93.9128 164.121 94.0723C164.31 94.2318 164.553 94.3115 164.849 94.3115ZM173.148 92.417C173.148 93.2243 172.963 93.8737 172.592 94.3652C172.221 94.8535 171.723 95.0977 171.098 95.0977C170.43 95.0977 169.914 94.8617 169.55 94.3896L169.506 95H168.676V87.5H169.579V90.2979C169.944 89.8454 170.447 89.6191 171.088 89.6191C171.729 89.6191 172.232 89.8617 172.597 90.3467C172.965 90.8317 173.148 91.4958 173.148 92.3389V92.417ZM172.245 92.3145C172.245 91.6992 172.126 91.224 171.889 90.8887C171.651 90.5534 171.309 90.3857 170.863 90.3857C170.268 90.3857 169.84 90.6624 169.579 91.2158V93.501C169.856 94.0544 170.287 94.3311 170.873 94.3311C171.306 94.3311 171.643 94.1634 171.884 93.8281C172.125 93.4928 172.245 92.9883 172.245 92.3145ZM175.422 95H174.519V89.7168H175.422V95ZM174.446 88.3154C174.446 88.1689 174.49 88.0452 174.578 87.9443C174.669 87.8434 174.802 87.793 174.978 87.793C175.154 87.793 175.287 87.8434 175.379 87.9443C175.47 88.0452 175.515 88.1689 175.515 88.3154C175.515 88.4619 175.47 88.584 175.379 88.6816C175.287 88.7793 175.154 88.8281 174.978 88.8281C174.802 88.8281 174.669 88.7793 174.578 88.6816C174.49 88.584 174.446 88.4619 174.446 88.3154ZM178.248 88.4375V89.7168H179.235V90.415H178.248V93.6914C178.248 93.903 178.292 94.0625 178.38 94.1699C178.468 94.2741 178.618 94.3262 178.829 94.3262C178.933 94.3262 179.077 94.3066 179.259 94.2676V95C179.021 95.0651 178.79 95.0977 178.566 95.0977C178.162 95.0977 177.858 94.9756 177.653 94.7314C177.447 94.4873 177.345 94.1406 177.345 93.6914V90.415H176.383V89.7168H177.345V88.4375H178.248Z" fill="black" fill-opacity="0.6"/>
<path fill-rule="evenodd" clip-rule="evenodd" d="M214.5 84.2L210.3 80L208.9 81.4L214.5 87L226.5 75L225.1 73.6L214.5 84.2Z" fill="black" fill-opacity="0.87"/>
<path fill-rule="evenodd" clip-rule="evenodd" d="M274 74.41L272.59 73L267 78.59L261.41 73L260 74.41L265.59 80L260 85.59L261.41 87L267 81.41L272.59 87L274 85.59L268.41 80L274 74.41Z" fill="black" fill-opacity="0.87"/>
<path d="M33.2109 141.711L31.8203 143.156V147H30.3203V135.625H31.8203V141.25L36.875 135.625H38.6875L34.2109 140.648L39.0391 147H37.2422L33.2109 141.711ZM43.5797 147.156C42.4339 147.156 41.5016 146.781 40.7828 146.031C40.0641 145.276 39.7047 144.268 39.7047 143.008V142.742C39.7047 141.904 39.8635 141.156 40.1812 140.5C40.5042 139.839 40.9521 139.323 41.525 138.953C42.1031 138.578 42.7281 138.391 43.4 138.391C44.499 138.391 45.3531 138.753 45.9625 139.477C46.5719 140.201 46.8766 141.237 46.8766 142.586V143.188H41.15C41.1708 144.021 41.413 144.695 41.8766 145.211C42.3453 145.721 42.9391 145.977 43.6578 145.977C44.1682 145.977 44.6005 145.872 44.9547 145.664C45.3089 145.456 45.6187 145.18 45.8844 144.836L46.7672 145.523C46.0589 146.612 44.9964 147.156 43.5797 147.156ZM43.4 139.578C42.8167 139.578 42.3271 139.792 41.9312 140.219C41.5354 140.641 41.2906 141.234 41.1969 142H45.4312V141.891C45.3896 141.156 45.1917 140.589 44.8375 140.188C44.4833 139.781 44.0042 139.578 43.4 139.578ZM50.2766 147H48.8312V138.547H50.2766V147ZM48.7141 136.305C48.7141 136.07 48.7844 135.872 48.925 135.711C49.0708 135.549 49.2844 135.469 49.5656 135.469C49.8469 135.469 50.0604 135.549 50.2062 135.711C50.3521 135.872 50.425 136.07 50.425 136.305C50.425 136.539 50.3521 136.734 50.2062 136.891C50.0604 137.047 49.8469 137.125 49.5656 137.125C49.2844 137.125 49.0708 137.047 48.925 136.891C48.7844 136.734 48.7141 136.539 48.7141 136.305ZM54.7078 136.5V138.547H56.2859V139.664H54.7078V144.906C54.7078 145.245 54.7781 145.5 54.9188 145.672C55.0594 145.839 55.299 145.922 55.6375 145.922C55.8042 145.922 56.0333 145.891 56.325 145.828V147C55.9448 147.104 55.575 147.156 55.2156 147.156C54.5698 147.156 54.0828 146.961 53.7547 146.57C53.4266 146.18 53.2625 145.625 53.2625 144.906V139.664H51.7234V138.547H53.2625V136.5H54.7078ZM59.5766 139.57C60.2172 138.784 61.0505 138.391 62.0766 138.391C63.863 138.391 64.7641 139.398 64.7797 141.414V147H63.3344V141.406C63.3292 140.797 63.1885 140.346 62.9125 140.055C62.6417 139.763 62.2172 139.617 61.6391 139.617C61.1703 139.617 60.7589 139.742 60.4047 139.992C60.0505 140.242 59.7745 140.57 59.5766 140.977V147H58.1313V135H59.5766V139.57Z" fill="black" fill-opacity="0.87"/>
<path d="M31.6318 165.694L30.7627 166.598V169H29.8252V161.891H30.7627V165.406L33.9219 161.891H35.0547L32.2568 165.03L35.2744 169H34.1514L31.6318 165.694ZM38.1686 169.098C37.4524 169.098 36.8697 168.863 36.4205 168.395C35.9713 167.923 35.7467 167.293 35.7467 166.505V166.339C35.7467 165.815 35.846 165.348 36.0445 164.938C36.2464 164.524 36.5263 164.202 36.8844 163.971C37.2457 163.736 37.6363 163.619 38.0563 163.619C38.7431 163.619 39.277 163.845 39.6578 164.298C40.0387 164.75 40.2291 165.398 40.2291 166.241V166.617H36.65C36.663 167.138 36.8144 167.56 37.1041 167.882C37.3971 168.201 37.7682 168.36 38.2174 168.36C38.5364 168.36 38.8066 168.295 39.0279 168.165C39.2493 168.035 39.443 167.862 39.609 167.647L40.1607 168.077C39.718 168.757 39.054 169.098 38.1686 169.098ZM38.0563 164.361C37.6917 164.361 37.3857 164.495 37.1383 164.762C36.8909 165.025 36.7379 165.396 36.6793 165.875H39.3258V165.807C39.2997 165.348 39.176 164.993 38.9547 164.742C38.7333 164.488 38.4339 164.361 38.0563 164.361ZM42.4104 169H41.507V163.717H42.4104V169ZM41.4338 162.315C41.4338 162.169 41.4777 162.045 41.5656 161.944C41.6568 161.843 41.7902 161.793 41.966 161.793C42.1418 161.793 42.2753 161.843 42.3664 161.944C42.4576 162.045 42.5031 162.169 42.5031 162.315C42.5031 162.462 42.4576 162.584 42.3664 162.682C42.2753 162.779 42.1418 162.828 41.966 162.828C41.7902 162.828 41.6568 162.779 41.5656 162.682C41.4777 162.584 41.4338 162.462 41.4338 162.315ZM45.2361 162.438V163.717H46.2225V164.415H45.2361V167.691C45.2361 167.903 45.2801 168.062 45.368 168.17C45.4559 168.274 45.6056 168.326 45.8172 168.326C45.9214 168.326 46.0646 168.307 46.2469 168.268V169C46.0092 169.065 45.7781 169.098 45.5535 169.098C45.1499 169.098 44.8455 168.976 44.6404 168.731C44.4354 168.487 44.3328 168.141 44.3328 167.691V164.415H43.3709V163.717H44.3328V162.438H45.2361ZM48.3354 164.356C48.7357 163.865 49.2566 163.619 49.8979 163.619C51.0144 163.619 51.5775 164.249 51.5873 165.509V169H50.684V165.504C50.6807 165.123 50.5928 164.841 50.4203 164.659C50.251 164.477 49.9857 164.386 49.6244 164.386C49.3314 164.386 49.0743 164.464 48.8529 164.62C48.6316 164.776 48.459 164.981 48.3354 165.235V169H47.432V161.5H48.3354V164.356ZM60.398 167.755L61.4137 163.717H62.317L60.7789 169H60.0465L58.7623 164.996L57.5123 169H56.7799L55.2467 163.717H56.1451L57.1852 167.672L58.4156 163.717H59.1432L60.398 167.755ZM66.6516 169C66.5995 168.896 66.5572 168.71 66.5246 168.443C66.1047 168.88 65.6034 169.098 65.0207 169.098C64.4999 169.098 64.0718 168.951 63.7365 168.658C63.4045 168.362 63.2385 167.988 63.2385 167.535C63.2385 166.985 63.4468 166.559 63.8635 166.256C64.2834 165.95 64.8726 165.797 65.6311 165.797H66.51V165.382C66.51 165.066 66.4156 164.815 66.2268 164.63C66.038 164.441 65.7596 164.347 65.3918 164.347C65.0695 164.347 64.7993 164.428 64.5812 164.591C64.3632 164.754 64.2541 164.951 64.2541 165.182H63.3459C63.3459 164.918 63.4387 164.664 63.6242 164.42C63.813 164.173 64.0669 163.977 64.3859 163.834C64.7082 163.691 65.0614 163.619 65.4455 163.619C66.0542 163.619 66.5311 163.772 66.8762 164.078C67.2212 164.381 67.4003 164.799 67.4133 165.333V167.765C67.4133 168.25 67.4751 168.635 67.5988 168.922V169H66.6516ZM65.1525 168.312C65.4357 168.312 65.7043 168.238 65.9582 168.092C66.2121 167.945 66.396 167.755 66.51 167.521V166.437H65.802C64.6952 166.437 64.1418 166.76 64.1418 167.408C64.1418 167.691 64.2362 167.913 64.425 168.072C64.6138 168.232 64.8563 168.312 65.1525 168.312ZM69.8338 163.717L69.8631 164.381C70.2667 163.873 70.7941 163.619 71.4451 163.619C72.5617 163.619 73.1248 164.249 73.1346 165.509V169H72.2313V165.504C72.228 165.123 72.1401 164.841 71.9676 164.659C71.7983 164.477 71.533 164.386 71.1717 164.386C70.8787 164.386 70.6216 164.464 70.4002 164.62C70.1788 164.776 70.0063 164.981 69.8826 165.235V169H68.9793V163.717H69.8338ZM75.8725 162.438V163.717H76.8588V164.415H75.8725V167.691C75.8725 167.903 75.9164 168.062 76.0043 168.17C76.0922 168.274 76.2419 168.326 76.4535 168.326C76.5577 168.326 76.7009 168.307 76.8832 168.268V169C76.6456 169.065 76.4145 169.098 76.1898 169.098C75.7862 169.098 75.4818 168.976 75.2768 168.731C75.0717 168.487 74.9691 168.141 74.9691 167.691V164.415H74.0072V163.717H74.9691V162.438H75.8725ZM81.1445 167.599C81.1445 167.354 81.0518 167.166 80.8662 167.032C80.6839 166.896 80.3633 166.778 79.9043 166.681C79.4486 166.583 79.0856 166.466 78.8154 166.329C78.5485 166.192 78.3499 166.03 78.2197 165.841C78.0928 165.652 78.0293 165.427 78.0293 165.167C78.0293 164.734 78.2116 164.368 78.5762 164.068C78.944 163.769 79.4128 163.619 79.9824 163.619C80.5814 163.619 81.0664 163.774 81.4375 164.083C81.8118 164.392 81.999 164.788 81.999 165.27H81.0908C81.0908 165.022 80.985 164.809 80.7734 164.63C80.5651 164.451 80.3014 164.361 79.9824 164.361C79.6536 164.361 79.3965 164.433 79.2109 164.576C79.0254 164.719 78.9326 164.907 78.9326 165.138C78.9326 165.356 79.0189 165.52 79.1914 165.631C79.3639 165.742 79.6748 165.847 80.124 165.948C80.5765 166.049 80.9427 166.17 81.2227 166.31C81.5026 166.45 81.7093 166.619 81.8428 166.817C81.9795 167.013 82.0479 167.252 82.0479 167.535C82.0479 168.007 81.859 168.386 81.4814 168.673C81.1038 168.956 80.6139 169.098 80.0117 169.098C79.5885 169.098 79.2142 169.023 78.8887 168.873C78.5632 168.723 78.3076 168.515 78.1221 168.248C77.9398 167.978 77.8486 167.687 77.8486 167.374H78.752C78.7682 167.677 78.8887 167.918 79.1133 168.097C79.3411 168.272 79.6406 168.36 80.0117 168.36C80.3535 168.36 80.627 168.292 80.832 168.155C81.0404 168.015 81.1445 167.83 81.1445 167.599ZM87.2307 162.438V163.717H88.217V164.415H87.2307V167.691C87.2307 167.903 87.2746 168.062 87.3625 168.17C87.4504 168.274 87.6001 168.326 87.8117 168.326C87.9159 168.326 88.0591 168.307 88.2414 168.268V169C88.0038 169.065 87.7727 169.098 87.548 169.098C87.1444 169.098 86.84 168.976 86.635 168.731C86.4299 168.487 86.3273 168.141 86.3273 167.691V164.415H85.3654V163.717H86.3273V162.438H87.2307ZM89.0896 166.31C89.0896 165.792 89.1906 165.326 89.3924 164.913C89.5975 164.5 89.8807 164.181 90.242 163.956C90.6066 163.731 91.0216 163.619 91.4871 163.619C92.2065 163.619 92.7876 163.868 93.2303 164.366C93.6762 164.864 93.8992 165.527 93.8992 166.354V166.417C93.8992 166.931 93.7999 167.394 93.6014 167.804C93.4061 168.211 93.1245 168.528 92.7566 168.756C92.3921 168.984 91.9721 169.098 91.4969 169.098C90.7807 169.098 90.1997 168.849 89.7537 168.351C89.311 167.853 89.0896 167.193 89.0896 166.373V166.31ZM89.9979 166.417C89.9979 167.003 90.1329 167.473 90.4031 167.828C90.6766 168.183 91.0411 168.36 91.4969 168.36C91.9559 168.36 92.3204 168.181 92.5906 167.823C92.8608 167.462 92.9959 166.957 92.9959 166.31C92.9959 165.73 92.8576 165.261 92.5809 164.903C92.3074 164.542 91.9428 164.361 91.4871 164.361C91.0411 164.361 90.6814 164.539 90.408 164.894C90.1346 165.248 89.9979 165.756 89.9979 166.417ZM98.2568 169V164.415H97.4219V163.717H98.2568V163.175C98.2568 162.608 98.4082 162.171 98.7109 161.861C99.0137 161.552 99.4417 161.397 99.9951 161.397C100.203 161.397 100.41 161.425 100.615 161.48L100.566 162.213C100.413 162.184 100.251 162.169 100.078 162.169C99.7852 162.169 99.5589 162.255 99.3994 162.428C99.2399 162.597 99.1602 162.841 99.1602 163.16V163.717H100.288V164.415H99.1602V169H98.2568ZM101.2 166.31C101.2 165.792 101.301 165.326 101.503 164.913C101.708 164.5 101.991 164.181 102.352 163.956C102.717 163.731 103.132 163.619 103.597 163.619C104.317 163.619 104.898 163.868 105.34 164.366C105.786 164.864 106.009 165.527 106.009 166.354V166.417C106.009 166.931 105.91 167.394 105.712 167.804C105.516 168.211 105.235 168.528 104.867 168.756C104.502 168.984 104.082 169.098 103.607 169.098C102.891 169.098 102.31 168.849 101.864 168.351C101.421 167.853 101.2 167.193 101.2 166.373V166.31ZM102.108 166.417C102.108 167.003 102.243 167.473 102.513 167.828C102.787 168.183 103.151 168.36 103.607 168.36C104.066 168.36 104.431 168.181 104.701 167.823C104.971 167.462 105.106 166.957 105.106 166.31C105.106 165.73 104.968 165.261 104.691 164.903C104.418 164.542 104.053 164.361 103.597 164.361C103.151 164.361 102.792 164.539 102.518 164.894C102.245 165.248 102.108 165.756 102.108 166.417ZM108.274 169H107.37V161.5H108.274V169ZM110.855 169H109.952V161.5H110.855V169ZM112.216 166.31C112.216 165.792 112.317 165.326 112.519 164.913C112.724 164.5 113.007 164.181 113.369 163.956C113.733 163.731 114.148 163.619 114.614 163.619C115.333 163.619 115.914 163.868 116.357 164.366C116.803 164.864 117.026 165.527 117.026 166.354V166.417C117.026 166.931 116.926 167.394 116.728 167.804C116.533 168.211 116.251 168.528 115.883 168.756C115.519 168.984 115.099 169.098 114.623 169.098C113.907 169.098 113.326 168.849 112.88 168.351C112.438 167.853 112.216 167.193 112.216 166.373V166.31ZM113.124 166.417C113.124 167.003 113.26 167.473 113.53 167.828C113.803 168.183 114.168 168.36 114.623 168.36C115.082 168.36 115.447 168.181 115.717 167.823C115.987 167.462 116.122 166.957 116.122 166.31C116.122 165.73 115.984 165.261 115.707 164.903C115.434 164.542 115.069 164.361 114.614 164.361C114.168 164.361 113.808 164.539 113.535 164.894C113.261 165.248 113.124 165.756 113.124 166.417ZM122.986 167.755L124.002 163.717H124.905L123.367 169H122.635L121.351 164.996L120.101 169H119.368L117.835 163.717H118.733L119.773 167.672L121.004 163.717H121.731L122.986 167.755ZM130.337 167.677L131.568 163.717H132.534L130.41 169.815C130.082 170.694 129.559 171.134 128.843 171.134L128.672 171.119L128.335 171.056V170.323L128.579 170.343C128.885 170.343 129.123 170.281 129.292 170.157C129.465 170.034 129.606 169.807 129.717 169.479L129.917 168.941L128.032 163.717H129.019L130.337 167.677ZM133.178 166.31C133.178 165.792 133.278 165.326 133.48 164.913C133.685 164.5 133.969 164.181 134.33 163.956C134.694 163.731 135.11 163.619 135.575 163.619C136.294 163.619 136.875 163.868 137.318 164.366C137.764 164.864 137.987 165.527 137.987 166.354V166.417C137.987 166.931 137.888 167.394 137.689 167.804C137.494 168.211 137.212 168.528 136.845 168.756C136.48 168.984 136.06 169.098 135.585 169.098C134.869 169.098 134.288 168.849 133.842 168.351C133.399 167.853 133.178 167.193 133.178 166.373V166.31ZM134.086 166.417C134.086 167.003 134.221 167.473 134.491 167.828C134.764 168.183 135.129 168.36 135.585 168.36C136.044 168.36 136.408 168.181 136.679 167.823C136.949 167.462 137.084 166.957 137.084 166.31C137.084 165.73 136.945 165.261 136.669 164.903C136.395 164.542 136.031 164.361 135.575 164.361C135.129 164.361 134.769 164.539 134.496 164.894C134.222 165.248 134.086 165.756 134.086 166.417ZM142.532 168.478C142.18 168.891 141.664 169.098 140.984 169.098C140.421 169.098 139.991 168.935 139.695 168.609C139.402 168.281 139.254 167.796 139.25 167.154V163.717H140.154V167.13C140.154 167.931 140.479 168.331 141.13 168.331C141.82 168.331 142.279 168.074 142.507 167.56V163.717H143.411V169H142.551L142.532 168.478ZM147.491 164.527C147.354 164.505 147.206 164.493 147.047 164.493C146.454 164.493 146.052 164.745 145.841 165.25V169H144.938V163.717H145.816L145.831 164.327C146.127 163.855 146.547 163.619 147.091 163.619C147.267 163.619 147.4 163.642 147.491 163.688V164.527ZM152.01 164.356C152.41 163.865 152.931 163.619 153.572 163.619C154.689 163.619 155.252 164.249 155.262 165.509V169H154.359V165.504C154.355 165.123 154.267 164.841 154.095 164.659C153.926 164.477 153.66 164.386 153.299 164.386C153.006 164.386 152.749 164.464 152.528 164.62C152.306 164.776 152.134 164.981 152.01 165.235V169H151.107V161.5H152.01V164.356ZM160.026 169C159.974 168.896 159.932 168.71 159.899 168.443C159.479 168.88 158.978 169.098 158.395 169.098C157.874 169.098 157.446 168.951 157.111 168.658C156.779 168.362 156.613 167.988 156.613 167.535C156.613 166.985 156.821 166.559 157.238 166.256C157.658 165.95 158.247 165.797 159.006 165.797H159.885V165.382C159.885 165.066 159.79 164.815 159.601 164.63C159.413 164.441 159.134 164.347 158.766 164.347C158.444 164.347 158.174 164.428 157.956 164.591C157.738 164.754 157.629 164.951 157.629 165.182H156.721C156.721 164.918 156.813 164.664 156.999 164.42C157.188 164.173 157.442 163.977 157.761 163.834C158.083 163.691 158.436 163.619 158.82 163.619C159.429 163.619 159.906 163.772 160.251 164.078C160.596 164.381 160.775 164.799 160.788 165.333V167.765C160.788 168.25 160.85 168.635 160.973 168.922V169H160.026ZM158.527 168.312C158.81 168.312 159.079 168.238 159.333 168.092C159.587 167.945 159.771 167.755 159.885 167.521V166.437H159.177C158.07 166.437 157.516 166.76 157.516 167.408C157.516 167.691 157.611 167.913 157.8 168.072C157.988 168.232 158.231 168.312 158.527 168.312ZM166.827 166.417C166.827 167.224 166.641 167.874 166.27 168.365C165.899 168.854 165.401 169.098 164.776 169.098C164.108 169.098 163.593 168.862 163.228 168.39L163.184 169H162.354V161.5H163.257V164.298C163.622 163.845 164.125 163.619 164.766 163.619C165.407 163.619 165.91 163.862 166.275 164.347C166.643 164.832 166.827 165.496 166.827 166.339V166.417ZM165.923 166.314C165.923 165.699 165.804 165.224 165.567 164.889C165.329 164.553 164.987 164.386 164.541 164.386C163.946 164.386 163.518 164.662 163.257 165.216V167.501C163.534 168.054 163.965 168.331 164.551 168.331C164.984 168.331 165.321 168.163 165.562 167.828C165.803 167.493 165.923 166.988 165.923 166.314ZM169.101 169H168.197V163.717H169.101V169ZM168.124 162.315C168.124 162.169 168.168 162.045 168.256 161.944C168.347 161.843 168.48 161.793 168.656 161.793C168.832 161.793 168.965 161.843 169.057 161.944C169.148 162.045 169.193 162.169 169.193 162.315C169.193 162.462 169.148 162.584 169.057 162.682C168.965 162.779 168.832 162.828 168.656 162.828C168.48 162.828 168.347 162.779 168.256 162.682C168.168 162.584 168.124 162.462 168.124 162.315ZM171.926 162.438V163.717H172.913V164.415H171.926V167.691C171.926 167.903 171.97 168.062 172.058 168.17C172.146 168.274 172.296 168.326 172.507 168.326C172.612 168.326 172.755 168.307 172.937 168.268V169C172.699 169.065 172.468 169.098 172.244 169.098C171.84 169.098 171.536 168.976 171.331 168.731C171.126 168.487 171.023 168.141 171.023 167.691V164.415H170.061V163.717H171.023V162.438H171.926Z" fill="black" fill-opacity="0.6"/>
<path fill-rule="evenodd" clip-rule="evenodd" d="M211.5 158.2L207.3 154L205.9 155.4L211.5 161L223.5 149L222.1 147.6L211.5 158.2Z" fill="black" fill-opacity="0.87"/>
<path fill-rule="evenodd" clip-rule="evenodd" d="M274 148.41L272.59 147L267 152.59L261.41 147L260 148.41L265.59 154L260 159.59L261.41 161L267 155.41L272.59 161L274 159.59L268.41 154L274 148.41Z" fill="black" fill-opacity="0.87"/>
</g>
</g>
<defs>
<filter id="filter0_ddd_730:5841" x="-8" y="652" width="427" height="88" filterUnits="userSpaceOnUse" color-interpolation-filters="sRGB">
<feFlood flood-opacity="0" result="BackgroundImageFix"/>
<feColorMatrix in="SourceAlpha" type="matrix" values="0 0 0 0 0 0 0 0 0 0 0 0 0 0 0 0 0 0 127 0" result="hardAlpha"/>
<feOffset dy="1"/>
<feGaussianBlur stdDeviation="4"/>
<feColorMatrix type="matrix" values="0 0 0 0 0 0 0 0 0 0 0 0 0 0 0 0 0 0 0.2 0"/>
<feBlend mode="normal" in2="BackgroundImageFix" result="effect1_dropShadow_730:5841"/>
<feColorMatrix in="SourceAlpha" type="matrix" values="0 0 0 0 0 0 0 0 0 0 0 0 0 0 0 0 0 0 127 0" result="hardAlpha"/>
<feOffset dy="3"/>
<feGaussianBlur stdDeviation="1.5"/>
<feColorMatrix type="matrix" values="0 0 0 0 0 0 0 0 0 0 0 0 0 0 0 0 0 0 0.12 0"/>
<feBlend mode="normal" in2="effect1_dropShadow_730:5841" result="effect2_dropShadow_730:5841"/>
<feColorMatrix in="SourceAlpha" type="matrix" values="0 0 0 0 0 0 0 0 0 0 0 0 0 0 0 0 0 0 127 0" result="hardAlpha"/>
<feOffset dy="3"/>
<feGaussianBlur stdDeviation="2"/>
<feColorMatrix type="matrix" values="0 0 0 0 0 0 0 0 0 0 0 0 0 0 0 0 0 0 0.14 0"/>
<feBlend mode="normal" in2="effect2_dropShadow_730:5841" result="effect3_dropShadow_730:5841"/>
<feBlend mode="normal" in="SourceGraphic" in2="effect3_dropShadow_730:5841" result="shape"/>
</filter>
<filter id="filter1_ddd_730:5841" x="-10" y="-9" width="431" height="76" filterUnits="userSpaceOnUse" color-interpolation-filters="sRGB">
<feFlood flood-opacity="0" result="BackgroundImageFix"/>
<feColorMatrix in="SourceAlpha" type="matrix" values="0 0 0 0 0 0 0 0 0 0 0 0 0 0 0 0 0 0 127 0" result="hardAlpha"/>
<feOffset dy="2"/>
<feGaussianBlur stdDeviation="2"/>
<feColorMatrix type="matrix" values="0 0 0 0 0 0 0 0 0 0 0 0 0 0 0 0 0 0 0.2 0"/>
<feBlend mode="normal" in2="BackgroundImageFix" result="effect1_dropShadow_730:5841"/>
<feColorMatrix in="SourceAlpha" type="matrix" values="0 0 0 0 0 0 0 0 0 0 0 0 0 0 0 0 0 0 127 0" result="hardAlpha"/>
<feOffset dy="1"/>
<feGaussianBlur stdDeviation="5"/>
<feColorMatrix type="matrix" values="0 0 0 0 0 0 0 0 0 0 0 0 0 0 0 0 0 0 0.12 0"/>
<feBlend mode="normal" in2="effect1_dropShadow_730:5841" result="effect2_dropShadow_730:5841"/>
<feColorMatrix in="SourceAlpha" type="matrix" values="0 0 0 0 0 0 0 0 0 0 0 0 0 0 0 0 0 0 127 0" result="hardAlpha"/>
<feOffset dy="4"/>
<feGaussianBlur stdDeviation="2.5"/>
<feColorMatrix type="matrix" values="0 0 0 0 0 0 0 0 0 0 0 0 0 0 0 0 0 0 0.14 0"/>
<feBlend mode="normal" in2="effect2_dropShadow_730:5841" result="effect3_dropShadow_730:5841"/>
<feBlend mode="normal" in="SourceGraphic" in2="effect3_dropShadow_730:5841" result="shape"/>
</filter>
<filter id="filter2_d_730:5841" x="283" y="10" width="24" height="24" filterUnits="userSpaceOnUse" color-interpolation-filters="sRGB">
<feFlood flood-opacity="0" result="BackgroundImageFix"/>
<feColorMatrix in="SourceAlpha" type="matrix" values="0 0 0 0 0 0 0 0 0 0 0 0 0 0 0 0 0 0 127 0" result="hardAlpha"/>
<feOffset dy="2"/>
<feGaussianBlur stdDeviation="2"/>
<feComposite in2="hardAlpha" operator="out"/>
<feColorMatrix type="matrix" values="0 0 0 0 0 0 0 0 0 0 0 0 0 0 0 0 0 0 0.25 0"/>
<feBlend mode="normal" in2="BackgroundImageFix" result="effect1_dropShadow_730:5841"/>
<feBlend mode="normal" in="SourceGraphic" in2="effect1_dropShadow_730:5841" result="shape"/>
</filter>
<filter id="filter3_ddd_730:5841" x="3" y="31" width="294" height="174" filterUnits="userSpaceOnUse" color-interpolation-filters="sRGB">
<feFlood flood-opacity="0" result="BackgroundImageFix"/>
<feColorMatrix in="SourceAlpha" type="matrix" values="0 0 0 0 0 0 0 0 0 0 0 0 0 0 0 0 0 0 127 0" result="hardAlpha"/>
<feOffset dy="2"/>
<feGaussianBlur stdDeviation="2"/>
<feColorMatrix type="matrix" values="0 0 0 0 0 0 0 0 0 0 0 0 0 0 0 0 0 0 0.2 0"/>
<feBlend mode="normal" in2="BackgroundImageFix" result="effect1_dropShadow_730:5841"/>
<feColorMatrix in="SourceAlpha" type="matrix" values="0 0 0 0 0 0 0 0 0 0 0 0 0 0 0 0 0 0 127 0" result="hardAlpha"/>
<feOffset dy="1"/>
<feGaussianBlur stdDeviation="5"/>
<feColorMatrix type="matrix" values="0 0 0 0 0 0 0 0 0 0 0 0 0 0 0 0 0 0 0.12 0"/>
<feBlend mode="normal" in2="effect1_dropShadow_730:5841" result="effect2_dropShadow_730:5841"/>
<feColorMatrix in="SourceAlpha" type="matrix" values="0 0 0 0 0 0 0 0 0 0 0 0 0 0 0 0 0 0 127 0" result="hardAlpha"/>
<feOffset dy="4"/>
<feGaussianBlur stdDeviation="2.5"/>
<feColorMatrix type="matrix" values="0 0 0 0 0 0 0 0 0 0 0 0 0 0 0 0 0 0 0.14 0"/>
<feBlend mode="normal" in2="effect2_dropShadow_730:5841" result="effect3_dropShadow_730:5841"/>
<feBlend mode="normal" in="SourceGraphic" in2="effect3_dropShadow_730:5841" result="shape"/>
</filter>
<clipPath id="clip0_730:5841">
<rect width="411" height="731" fill="white"/>
</clipPath>
</defs>
</svg>
