<svg width="411" height="731" viewBox="0 0 411 731" fill="none" xmlns="http://www.w3.org/2000/svg">
<rect width="411" height="731" fill="#F1F1F1"/>
<rect width="411" height="731" fill="white"/>
<rect width="411" height="56" fill="#6200EE"/>
<path fill-rule="evenodd" clip-rule="evenodd" d="M31.41 23.41L30 22L24 28L30 34L31.41 32.59L26.83 28L31.41 23.41Z" fill="white"/>
<path d="M79.4551 31.9043L83.0684 20.7812H85.7832L80.666 35H78.2734L73.1758 20.7812H75.8809L79.4551 31.9043ZM89.8395 35H87.4664V24.4336H89.8395V35ZM87.3199 21.6895C87.3199 21.3249 87.4339 21.0221 87.6617 20.7812C87.8961 20.5404 88.2281 20.4199 88.6578 20.4199C89.0875 20.4199 89.4195 20.5404 89.6539 20.7812C89.8883 21.0221 90.0055 21.3249 90.0055 21.6895C90.0055 22.0475 89.8883 22.347 89.6539 22.5879C89.4195 22.8223 89.0875 22.9395 88.6578 22.9395C88.2281 22.9395 87.8961 22.8223 87.6617 22.5879C87.4339 22.347 87.3199 22.0475 87.3199 21.6895ZM97.2355 35.1953C95.7316 35.1953 94.5109 34.7233 93.5734 33.7793C92.6424 32.8288 92.177 31.5658 92.177 29.9902V29.6973C92.177 28.6426 92.3788 27.7018 92.7824 26.875C93.1926 26.0417 93.7655 25.3939 94.5012 24.9316C95.2368 24.4694 96.0572 24.2383 96.9621 24.2383C98.4009 24.2383 99.5109 24.6973 100.292 25.6152C101.08 26.5332 101.474 27.832 101.474 29.5117V30.4688H94.5695C94.6411 31.3411 94.9309 32.0312 95.4387 32.5391C95.953 33.0469 96.5975 33.3008 97.3723 33.3008C98.4595 33.3008 99.3449 32.8613 100.029 31.9824L101.308 33.2031C100.885 33.8346 100.318 34.3262 99.6086 34.6777C98.9055 35.0228 98.1145 35.1953 97.2355 35.1953ZM96.9523 26.1426C96.3013 26.1426 95.774 26.3704 95.3703 26.8262C94.9732 27.2819 94.7193 27.9167 94.6086 28.7305H99.1301V28.5547C99.078 27.7604 98.8664 27.1615 98.4953 26.7578C98.1242 26.3477 97.6099 26.1426 96.9523 26.1426ZM112.757 31.7285L114.436 24.4336H116.751L113.87 35H111.917L109.651 27.7441L107.425 35H105.471L102.581 24.4336H104.895L106.604 31.6504L108.772 24.4336H110.559L112.757 31.7285ZM135.137 35H132.676V28.6816H126.318V35H123.848V20.7812H126.318V26.6992H132.676V20.7812H135.137V35ZM144.3 35C144.196 34.7982 144.105 34.4694 144.027 34.0137C143.272 34.8014 142.347 35.1953 141.254 35.1953C140.192 35.1953 139.326 34.8926 138.656 34.2871C137.985 33.6816 137.65 32.9329 137.65 32.041C137.65 30.9147 138.067 30.0521 138.9 29.4531C139.74 28.8477 140.938 28.5449 142.494 28.5449H143.949V27.8516C143.949 27.3047 143.796 26.8685 143.49 26.543C143.184 26.2109 142.718 26.0449 142.093 26.0449C141.553 26.0449 141.11 26.1816 140.765 26.4551C140.42 26.722 140.248 27.0638 140.248 27.4805H137.875C137.875 26.901 138.067 26.3607 138.451 25.8594C138.835 25.3516 139.356 24.9544 140.013 24.668C140.677 24.3815 141.416 24.2383 142.23 24.2383C143.467 24.2383 144.453 24.5508 145.189 25.1758C145.925 25.7943 146.302 26.6667 146.322 27.793V32.5586C146.322 33.5091 146.455 34.2676 146.722 34.834V35H144.3ZM141.693 33.291C142.162 33.291 142.601 33.1771 143.011 32.9492C143.428 32.7214 143.74 32.4154 143.949 32.0312V30.0391H142.67C141.791 30.0391 141.13 30.1921 140.687 30.498C140.244 30.804 140.023 31.237 140.023 31.7969C140.023 32.2526 140.173 32.6172 140.472 32.8906C140.778 33.1576 141.185 33.291 141.693 33.291ZM158.23 29.8242C158.23 31.4648 157.862 32.7702 157.126 33.7402C156.397 34.7103 155.391 35.1953 154.109 35.1953C152.872 35.1953 151.908 34.7493 151.218 33.8574L151.101 35H148.952V20H151.325V25.4492C152.009 24.6419 152.93 24.2383 154.089 24.2383C155.378 24.2383 156.39 24.7168 157.126 25.6738C157.862 26.6309 158.23 27.9688 158.23 29.6875V29.8242ZM155.857 29.6191C155.857 28.4733 155.655 27.6139 155.251 27.041C154.848 26.4681 154.262 26.1816 153.493 26.1816C152.465 26.1816 151.742 26.6309 151.325 27.5293V31.8848C151.749 32.8027 152.478 33.2617 153.513 33.2617C154.255 33.2617 154.828 32.985 155.232 32.4316C155.635 31.8783 155.844 31.0417 155.857 29.9219V29.6191ZM162.901 35H160.528V24.4336H162.901V35ZM160.382 21.6895C160.382 21.3249 160.496 21.0221 160.723 20.7812C160.958 20.5404 161.29 20.4199 161.72 20.4199C162.149 20.4199 162.481 20.5404 162.716 20.7812C162.95 21.0221 163.067 21.3249 163.067 21.6895C163.067 22.0475 162.95 22.347 162.716 22.5879C162.481 22.8223 162.149 22.9395 161.72 22.9395C161.29 22.9395 160.958 22.8223 160.723 22.5879C160.496 22.347 160.382 22.0475 160.382 21.6895ZM168.618 21.8652V24.4336H170.483V26.1914H168.618V32.0898C168.618 32.4935 168.696 32.7865 168.852 32.9688C169.015 33.1445 169.301 33.2324 169.711 33.2324C169.985 33.2324 170.261 33.1999 170.541 33.1348V34.9707C170.001 35.1204 169.48 35.1953 168.979 35.1953C167.156 35.1953 166.245 34.1895 166.245 32.1777V26.1914H164.506V24.4336H166.245V21.8652H168.618Z" fill="white"/>
<path d="M382.938 18C377.389 18 372.886 22.48 372.886 28C372.886 33.52 377.389 38 382.938 38C388.486 38 392.99 33.52 392.99 28C392.99 22.48 388.486 18 382.938 18ZM383.943 35H381.933V33H383.943V35ZM386.024 27.25L385.119 28.17C384.395 28.9 383.943 29.5 383.943 31H381.933V30.5C381.933 29.4 382.385 28.4 383.109 27.67L384.355 26.41C384.727 26.05 384.948 25.55 384.948 25C384.948 23.9 384.044 23 382.938 23C381.832 23 380.927 23.9 380.927 25H378.917C378.917 22.79 380.716 21 382.938 21C385.159 21 386.959 22.79 386.959 25C386.959 25.88 386.597 26.68 386.024 27.25Z" fill="white" fill-opacity="0.74"/>
<rect x="11" y="108" width="388" height="1" fill="#212121" fill-opacity="0.08"/>
<path d="M37.3828 102H34.1787V90.8271H21.9932V102H18.8057V77.8281H21.9932V88.2207H34.1787V77.8281H37.3828V102ZM53.6523 102C53.4753 101.646 53.3314 101.015 53.2207 100.107C51.793 101.59 50.0885 102.332 48.1074 102.332C46.3366 102.332 44.8812 101.834 43.7412 100.838C42.6123 99.8307 42.0479 98.5579 42.0479 97.0195C42.0479 95.1491 42.7562 93.6992 44.1729 92.6699C45.6006 91.6296 47.6038 91.1094 50.1826 91.1094H53.1709V89.6982C53.1709 88.6247 52.8499 87.7725 52.208 87.1416C51.5661 86.4997 50.6198 86.1787 49.3691 86.1787C48.2734 86.1787 47.3548 86.4554 46.6133 87.0088C45.8717 87.5622 45.501 88.2318 45.501 89.0176H42.4131C42.4131 88.1211 42.7285 87.2578 43.3594 86.4277C44.0013 85.5866 44.8646 84.9225 45.9492 84.4355C47.0449 83.9486 48.2458 83.7051 49.5518 83.7051C51.6214 83.7051 53.2428 84.2253 54.416 85.2656C55.5892 86.2949 56.1979 87.7171 56.2422 89.5322V97.7998C56.2422 99.4489 56.4525 100.76 56.873 101.734V102H53.6523ZM48.5557 99.6592C49.5186 99.6592 50.4316 99.4102 51.2949 98.9121C52.1582 98.4141 52.7835 97.7666 53.1709 96.9697V93.2842H50.7637C47.0007 93.2842 45.1191 94.3854 45.1191 96.5879C45.1191 97.5508 45.4401 98.3034 46.082 98.8457C46.724 99.388 47.5485 99.6592 48.5557 99.6592ZM76.2637 93.2178C76.2637 95.9626 75.6328 98.1706 74.3711 99.8418C73.1094 101.502 71.416 102.332 69.291 102.332C67.0221 102.332 65.2679 101.53 64.0283 99.9248L63.8789 102H61.0566V76.5H64.1279V86.0127C65.3675 84.4743 67.0775 83.7051 69.2578 83.7051C71.4382 83.7051 73.1481 84.5296 74.3877 86.1787C75.6383 87.8278 76.2637 90.0856 76.2637 92.9521V93.2178ZM73.1924 92.8691C73.1924 90.7773 72.7884 89.1615 71.9805 88.0215C71.1725 86.8815 70.0104 86.3115 68.4941 86.3115C66.4688 86.3115 65.0133 87.2523 64.1279 89.1338V96.9033C65.0687 98.7848 66.5352 99.7256 68.5273 99.7256C69.9993 99.7256 71.1449 99.1556 71.9639 98.0156C72.7829 96.8757 73.1924 95.1602 73.1924 92.8691ZM83.4854 102H80.4141V84.0371H83.4854V102ZM80.165 79.2725C80.165 78.7744 80.3145 78.3538 80.6133 78.0107C80.9232 77.6676 81.377 77.4961 81.9746 77.4961C82.5723 77.4961 83.026 77.6676 83.3359 78.0107C83.6458 78.3538 83.8008 78.7744 83.8008 79.2725C83.8008 79.7705 83.6458 80.1855 83.3359 80.5176C83.026 80.8496 82.5723 81.0156 81.9746 81.0156C81.377 81.0156 80.9232 80.8496 80.6133 80.5176C80.3145 80.1855 80.165 79.7705 80.165 79.2725ZM92.583 79.6875V84.0371H95.9365V86.4111H92.583V97.5508C92.583 98.2702 92.7324 98.8125 93.0312 99.1777C93.3301 99.5319 93.8392 99.709 94.5586 99.709C94.9128 99.709 95.3997 99.6426 96.0195 99.5098V102C95.2116 102.221 94.4258 102.332 93.6621 102.332C92.2897 102.332 91.2549 101.917 90.5576 101.087C89.8604 100.257 89.5117 99.0781 89.5117 97.5508V86.4111H86.2412V84.0371H89.5117V79.6875H92.583ZM117.751 102H114.663V81.5303L108.471 83.8047V81.0156L117.27 77.7119H117.751V102Z" fill="black" fill-opacity="0.87"/>
<g filter="url(#filter0_ddd)">
<rect x="14" y="143" width="384" height="246" rx="4" fill="white"/>
</g>
<g clip-path="url(#clip0)">
<circle cx="54" cy="190" r="16" fill="#019592"/>
<circle cx="92" cy="190" r="16" fill="#019592"/>
<circle cx="130" cy="190" r="16" fill="#019592"/>
<circle cx="168" cy="190" r="16" fill="#019592"/>
<circle cx="206" cy="190" r="16" fill="#019592"/>
<circle cx="244" cy="190" r="16" fill="#019592"/>
<circle cx="282" cy="190" r="16" fill="#019592"/>
<circle cx="320" cy="190" r="16" fill="#019592"/>
<circle cx="358" cy="190" r="16" fill="#019592"/>
<circle cx="54" cy="228" r="16" fill="#019592"/>
<circle cx="92" cy="228" r="16" fill="#019592"/>
<circle cx="130" cy="228" r="16" fill="#019592"/>
<circle cx="168" cy="228" r="16" fill="#B00020"/>
<circle cx="206" cy="228" r="16" fill="#019592"/>
<circle cx="244" cy="228" r="16" fill="#019592"/>
<circle cx="282" cy="228" r="16" fill="#019592"/>
<circle cx="320" cy="228" r="16" fill="#019592"/>
<circle cx="358" cy="228" r="16" fill="#019592"/>
<circle cx="54" cy="266" r="16" fill="#019592"/>
<circle cx="92" cy="266" r="16" fill="#019592"/>
<circle cx="130" cy="266" r="16" fill="#019592"/>
<circle cx="168" cy="266" r="16" fill="#019592"/>
<circle cx="206" cy="266" r="16" fill="#019592"/>
<circle cx="244" cy="266" r="16" fill="#019592"/>
<circle cx="282" cy="266" r="16" fill="#B00020"/>
<circle cx="320" cy="266" r="16" fill="#019592"/>
<circle cx="358" cy="266" r="16" fill="#019592"/>
<circle cx="54" cy="304" r="16" fill="#019592"/>
<circle cx="92" cy="304" r="16" fill="#019592"/>
<circle cx="130" cy="304" r="16" fill="#019592"/>
<circle cx="168" cy="304" r="16" fill="#019592"/>
<circle cx="206" cy="304" r="16" fill="#019592"/>
<circle cx="244" cy="304" r="16" fill="#019592"/>
<circle cx="282" cy="304" r="16" fill="#019592"/>
<circle cx="320" cy="304" r="16" fill="#019592"/>
<circle cx="358" cy="304" r="16" fill="#019592"/>
<circle cx="54" cy="342" r="16" fill="#019592"/>
<circle cx="92" cy="342" r="16" fill="#019592"/>
<circle cx="130" cy="342" r="16" fill="#019592"/>
<circle cx="168" cy="342" r="16" fill="#019592"/>
<circle cx="206" cy="342" r="16" fill="#019592"/>
<circle cx="244" cy="342" r="16" fill="#B00020"/>
<circle cx="282" cy="342" r="16" fill="#019592"/>
</g>
<path d="M238 282C238 279.791 239.791 278 242 278H322C324.209 278 326 279.791 326 282V300C326 302.209 324.209 304 322 304H242C239.791 304 238 302.209 238 300V282Z" fill="black" fill-opacity="0.6"/>
<path d="M258.096 286.675C258.096 287.371 257.979 287.98 257.744 288.501C257.51 289.019 257.178 289.414 256.748 289.688C256.319 289.961 255.817 290.098 255.244 290.098C254.684 290.098 254.188 289.961 253.755 289.688C253.322 289.411 252.985 289.019 252.744 288.511C252.507 288 252.385 287.409 252.378 286.738V286.226C252.378 285.542 252.497 284.938 252.735 284.414C252.972 283.89 253.307 283.49 253.74 283.213C254.177 282.933 254.675 282.793 255.235 282.793C255.804 282.793 256.306 282.931 256.738 283.208C257.175 283.481 257.51 283.88 257.744 284.404C257.979 284.925 258.096 285.532 258.096 286.226V286.675ZM257.163 286.216C257.163 285.373 256.994 284.727 256.655 284.277C256.317 283.825 255.843 283.599 255.235 283.599C254.642 283.599 254.175 283.825 253.833 284.277C253.495 284.727 253.321 285.352 253.311 286.152V286.675C253.311 287.492 253.482 288.135 253.823 288.604C254.168 289.069 254.642 289.302 255.244 289.302C255.85 289.302 256.319 289.082 256.651 288.643C256.983 288.2 257.154 287.567 257.163 286.743V286.216ZM261.88 289.36C262.202 289.36 262.484 289.263 262.724 289.067C262.965 288.872 263.099 288.628 263.125 288.335H263.979C263.963 288.638 263.859 288.926 263.667 289.199C263.475 289.473 263.218 289.691 262.895 289.854C262.576 290.016 262.238 290.098 261.88 290.098C261.16 290.098 260.587 289.858 260.161 289.38C259.738 288.898 259.526 288.241 259.526 287.407V287.256C259.526 286.742 259.621 286.284 259.809 285.884C259.998 285.483 260.268 285.173 260.62 284.951C260.975 284.73 261.393 284.619 261.875 284.619C262.467 284.619 262.959 284.797 263.349 285.151C263.743 285.506 263.953 285.967 263.979 286.533H263.125C263.099 286.191 262.969 285.911 262.734 285.693C262.503 285.472 262.217 285.361 261.875 285.361C261.416 285.361 261.059 285.527 260.805 285.859C260.555 286.188 260.429 286.665 260.429 287.29V287.461C260.429 288.07 260.555 288.538 260.805 288.867C261.056 289.196 261.414 289.36 261.88 289.36ZM266.621 283.438V284.717H267.607V285.415H266.621V288.691C266.621 288.903 266.664 289.062 266.752 289.17C266.84 289.274 266.99 289.326 267.202 289.326C267.306 289.326 267.449 289.307 267.631 289.268V290C267.394 290.065 267.162 290.098 266.938 290.098C266.534 290.098 266.23 289.976 266.025 289.731C265.82 289.487 265.717 289.141 265.717 288.691V285.415H264.755V284.717H265.717V283.438H266.621ZM274.823 290H273.915V283.979L272.093 284.648V283.828L274.681 282.856H274.823V290ZM282.528 290H277.869V289.351L280.33 286.616C280.695 286.203 280.946 285.868 281.082 285.61C281.222 285.35 281.292 285.081 281.292 284.805C281.292 284.434 281.18 284.129 280.955 283.892C280.731 283.654 280.431 283.535 280.057 283.535C279.608 283.535 279.258 283.664 279.007 283.921C278.76 284.175 278.636 284.53 278.636 284.985H277.733C277.733 284.331 277.943 283.802 278.362 283.398C278.786 282.995 279.35 282.793 280.057 282.793C280.718 282.793 281.24 282.967 281.624 283.315C282.008 283.66 282.2 284.121 282.2 284.697C282.2 285.397 281.754 286.23 280.862 287.197L278.958 289.263H282.528V290ZM283.948 291.416L283.435 291.064C283.741 290.638 283.901 290.199 283.914 289.746V288.931H284.798V289.639C284.798 289.967 284.716 290.296 284.554 290.625C284.394 290.954 284.192 291.217 283.948 291.416ZM293.786 290H289.128V289.351L291.589 286.616C291.953 286.203 292.204 285.868 292.341 285.61C292.481 285.35 292.551 285.081 292.551 284.805C292.551 284.434 292.438 284.129 292.214 283.892C291.989 283.654 291.69 283.535 291.315 283.535C290.866 283.535 290.516 283.664 290.266 283.921C290.018 284.175 289.895 284.53 289.895 284.985H288.991C288.991 284.331 289.201 283.802 289.621 283.398C290.044 282.995 290.609 282.793 291.315 282.793C291.976 282.793 292.499 282.967 292.883 283.315C293.267 283.66 293.459 284.121 293.459 284.697C293.459 285.397 293.013 286.23 292.121 287.197L290.217 289.263H293.786V290ZM299.601 286.968C299.601 288.026 299.421 288.812 299.059 289.326C298.698 289.84 298.133 290.098 297.365 290.098C296.606 290.098 296.045 289.847 295.68 289.346C295.316 288.841 295.127 288.089 295.114 287.09V285.884C295.114 284.839 295.295 284.062 295.656 283.555C296.017 283.047 296.584 282.793 297.355 282.793C298.12 282.793 298.683 283.039 299.045 283.53C299.406 284.019 299.591 284.774 299.601 285.796V286.968ZM298.698 285.732C298.698 284.967 298.59 284.411 298.376 284.062C298.161 283.711 297.821 283.535 297.355 283.535C296.893 283.535 296.556 283.709 296.344 284.058C296.133 284.406 296.024 284.941 296.017 285.664V287.109C296.017 287.878 296.128 288.446 296.349 288.813C296.574 289.178 296.912 289.36 297.365 289.36C297.811 289.36 298.141 289.188 298.356 288.843C298.574 288.498 298.688 287.954 298.698 287.212V285.732ZM305.817 290H301.158V289.351L303.619 286.616C303.984 286.203 304.235 285.868 304.371 285.61C304.511 285.35 304.581 285.081 304.581 284.805C304.581 284.434 304.469 284.129 304.244 283.892C304.02 283.654 303.72 283.535 303.346 283.535C302.897 283.535 302.547 283.664 302.296 283.921C302.049 284.175 301.925 284.53 301.925 284.985H301.022C301.022 284.331 301.232 283.802 301.652 283.398C302.075 282.995 302.64 282.793 303.346 282.793C304.007 282.793 304.529 282.967 304.913 283.315C305.297 283.66 305.489 284.121 305.489 284.697C305.489 285.397 305.043 286.23 304.152 287.197L302.247 289.263H305.817V290ZM310.142 290H309.234V283.979L307.413 284.648V283.828L310.001 282.856H310.142V290ZM252.173 291.891L254.497 297.691L256.821 291.891H258.037V299H257.1V296.231L257.188 293.243L254.854 299H254.136L251.807 293.258L251.9 296.231V299H250.962V291.891H252.173ZM260.932 299H260.029V293.717H260.932V299ZM259.956 292.315C259.956 292.169 260 292.045 260.088 291.944C260.179 291.843 260.312 291.793 260.488 291.793C260.664 291.793 260.797 291.843 260.888 291.944C260.98 292.045 261.025 292.169 261.025 292.315C261.025 292.462 260.98 292.584 260.888 292.682C260.797 292.779 260.664 292.828 260.488 292.828C260.312 292.828 260.179 292.779 260.088 292.682C260 292.584 259.956 292.462 259.956 292.315ZM265.859 297.599C265.859 297.354 265.766 297.166 265.58 297.032C265.398 296.896 265.078 296.778 264.619 296.681C264.163 296.583 263.8 296.466 263.53 296.329C263.263 296.192 263.064 296.03 262.934 295.841C262.807 295.652 262.744 295.427 262.744 295.167C262.744 294.734 262.926 294.368 263.29 294.068C263.658 293.769 264.127 293.619 264.697 293.619C265.296 293.619 265.781 293.774 266.152 294.083C266.526 294.392 266.713 294.788 266.713 295.27H265.805C265.805 295.022 265.699 294.809 265.488 294.63C265.279 294.451 265.016 294.361 264.697 294.361C264.368 294.361 264.111 294.433 263.925 294.576C263.74 294.719 263.647 294.907 263.647 295.138C263.647 295.356 263.733 295.52 263.906 295.631C264.078 295.742 264.389 295.847 264.838 295.948C265.291 296.049 265.657 296.17 265.937 296.31C266.217 296.45 266.424 296.619 266.557 296.817C266.694 297.013 266.762 297.252 266.762 297.535C266.762 298.007 266.573 298.386 266.196 298.673C265.818 298.956 265.328 299.098 264.726 299.098C264.303 299.098 263.928 299.023 263.603 298.873C263.277 298.723 263.022 298.515 262.836 298.248C262.654 297.978 262.563 297.687 262.563 297.374H263.466C263.482 297.677 263.603 297.918 263.828 298.097C264.055 298.272 264.355 298.36 264.726 298.36C265.068 298.36 265.341 298.292 265.546 298.155C265.755 298.015 265.859 297.83 265.859 297.599ZM271.415 297.599C271.415 297.354 271.322 297.166 271.137 297.032C270.954 296.896 270.634 296.778 270.175 296.681C269.719 296.583 269.356 296.466 269.086 296.329C268.819 296.192 268.62 296.03 268.49 295.841C268.363 295.652 268.3 295.427 268.3 295.167C268.3 294.734 268.482 294.368 268.847 294.068C269.215 293.769 269.683 293.619 270.253 293.619C270.852 293.619 271.337 293.774 271.708 294.083C272.082 294.392 272.27 294.788 272.27 295.27H271.361C271.361 295.022 271.256 294.809 271.044 294.63C270.836 294.451 270.572 294.361 270.253 294.361C269.924 294.361 269.667 294.433 269.481 294.576C269.296 294.719 269.203 294.907 269.203 295.138C269.203 295.356 269.289 295.52 269.462 295.631C269.634 295.742 269.945 295.847 270.395 295.948C270.847 296.049 271.213 296.17 271.493 296.31C271.773 296.45 271.98 296.619 272.113 296.817C272.25 297.013 272.318 297.252 272.318 297.535C272.318 298.007 272.13 298.386 271.752 298.673C271.374 298.956 270.884 299.098 270.282 299.098C269.859 299.098 269.485 299.023 269.159 298.873C268.834 298.723 268.578 298.515 268.393 298.248C268.21 297.978 268.119 297.687 268.119 297.374H269.022C269.039 297.677 269.159 297.918 269.384 298.097C269.612 298.272 269.911 298.36 270.282 298.36C270.624 298.36 270.897 298.292 271.103 298.155C271.311 298.015 271.415 297.83 271.415 297.599ZM276.087 299.098C275.371 299.098 274.789 298.863 274.339 298.395C273.89 297.923 273.666 297.293 273.666 296.505V296.339C273.666 295.815 273.765 295.348 273.963 294.938C274.165 294.524 274.445 294.202 274.803 293.971C275.165 293.736 275.555 293.619 275.975 293.619C276.662 293.619 277.196 293.845 277.577 294.298C277.958 294.75 278.148 295.398 278.148 296.241V296.617H274.569C274.582 297.138 274.733 297.56 275.023 297.882C275.316 298.201 275.687 298.36 276.136 298.36C276.455 298.36 276.726 298.295 276.947 298.165C277.168 298.035 277.362 297.862 277.528 297.647L278.08 298.077C277.637 298.757 276.973 299.098 276.087 299.098ZM275.975 294.361C275.611 294.361 275.305 294.495 275.057 294.762C274.81 295.025 274.657 295.396 274.598 295.875H277.245V295.807C277.219 295.348 277.095 294.993 276.874 294.742C276.652 294.488 276.353 294.361 275.975 294.361ZM279.378 296.314C279.378 295.504 279.57 294.853 279.954 294.361C280.338 293.867 280.841 293.619 281.463 293.619C282.082 293.619 282.571 293.831 282.933 294.254V291.5H283.836V299H283.006L282.962 298.434C282.601 298.876 282.098 299.098 281.453 299.098C280.841 299.098 280.342 298.847 279.954 298.346C279.57 297.844 279.378 297.19 279.378 296.383V296.314ZM280.281 296.417C280.281 297.016 280.405 297.485 280.653 297.823C280.9 298.162 281.242 298.331 281.678 298.331C282.251 298.331 282.669 298.074 282.933 297.56V295.133C282.663 294.635 282.248 294.386 281.688 294.386C281.245 294.386 280.9 294.557 280.653 294.898C280.405 295.24 280.281 295.746 280.281 296.417ZM292.683 295.714H289.602V298.233H293.181V299H288.664V291.891H293.132V292.662H289.602V294.947H292.683V295.714ZM296.223 297.774L297.531 293.717H298.454L296.56 299H295.871L293.957 293.717H294.88L296.223 297.774ZM301.847 299.098C301.131 299.098 300.548 298.863 300.099 298.395C299.65 297.923 299.425 297.293 299.425 296.505V296.339C299.425 295.815 299.525 295.348 299.723 294.938C299.925 294.524 300.205 294.202 300.563 293.971C300.924 293.736 301.315 293.619 301.735 293.619C302.422 293.619 302.956 293.845 303.337 294.298C303.717 294.75 303.908 295.398 303.908 296.241V296.617H300.329C300.342 297.138 300.493 297.56 300.783 297.882C301.076 298.201 301.447 298.36 301.896 298.36C302.215 298.36 302.485 298.295 302.707 298.165C302.928 298.035 303.122 297.862 303.288 297.647L303.839 298.077C303.397 298.757 302.733 299.098 301.847 299.098ZM301.735 294.361C301.37 294.361 301.064 294.495 300.817 294.762C300.57 295.025 300.417 295.396 300.358 295.875H303.004V295.807C302.978 295.348 302.855 294.993 302.633 294.742C302.412 294.488 302.113 294.361 301.735 294.361ZM306.212 293.717L306.241 294.381C306.645 293.873 307.172 293.619 307.823 293.619C308.94 293.619 309.503 294.249 309.513 295.509V299H308.61V295.504C308.606 295.123 308.518 294.841 308.346 294.659C308.177 294.477 307.911 294.386 307.55 294.386C307.257 294.386 307 294.464 306.779 294.62C306.557 294.776 306.385 294.981 306.261 295.235V299H305.358V293.717H306.212ZM312.501 292.438V293.717H313.487V294.415H312.501V297.691C312.501 297.903 312.545 298.062 312.633 298.17C312.721 298.274 312.87 298.326 313.082 298.326C313.186 298.326 313.329 298.307 313.512 298.268V299C313.274 299.065 313.043 299.098 312.818 299.098C312.415 299.098 312.11 298.976 311.905 298.731C311.7 298.487 311.597 298.141 311.597 297.691V294.415H310.636V293.717H311.597V292.438H312.501Z" fill="white"/>
<path d="M15.4453 424V409.781H19.6445C20.901 409.781 22.0143 410.061 22.9844 410.621C23.9609 411.181 24.7161 411.975 25.25 413.004C25.7839 414.033 26.0508 415.211 26.0508 416.539V417.252C26.0508 418.6 25.7806 419.785 25.2402 420.807C24.7064 421.829 23.9414 422.617 22.9453 423.17C21.9557 423.723 20.8197 424 19.5371 424H15.4453ZM17.916 411.773V422.027H19.5273C20.8229 422.027 21.8158 421.624 22.5059 420.816C23.2025 420.003 23.5573 418.837 23.5703 417.32V416.529C23.5703 414.986 23.235 413.808 22.5645 412.994C21.8939 412.18 20.9206 411.773 19.6445 411.773H17.916ZM33.0855 424.195C31.5816 424.195 30.3609 423.723 29.4234 422.779C28.4924 421.829 28.027 420.566 28.027 418.99V418.697C28.027 417.643 28.2288 416.702 28.6324 415.875C29.0426 415.042 29.6155 414.394 30.3512 413.932C31.0868 413.469 31.9072 413.238 32.8121 413.238C34.2509 413.238 35.3609 413.697 36.1422 414.615C36.9299 415.533 37.3238 416.832 37.3238 418.512V419.469H30.4195C30.4911 420.341 30.7809 421.031 31.2887 421.539C31.803 422.047 32.4475 422.301 33.2223 422.301C34.3095 422.301 35.1949 421.861 35.8785 420.982L37.1578 422.203C36.7346 422.835 36.1682 423.326 35.4586 423.678C34.7555 424.023 33.9645 424.195 33.0855 424.195ZM32.8023 415.143C32.1513 415.143 31.624 415.37 31.2203 415.826C30.8232 416.282 30.5693 416.917 30.4586 417.73H34.9801V417.555C34.928 416.76 34.7164 416.161 34.3453 415.758C33.9742 415.348 33.4599 415.143 32.8023 415.143ZM45.2473 421.129C45.2473 420.706 45.0715 420.383 44.7199 420.162C44.3749 419.941 43.7987 419.745 42.9914 419.576C42.1841 419.407 41.5103 419.192 40.9699 418.932C39.785 418.359 39.1926 417.529 39.1926 416.441C39.1926 415.53 39.5767 414.768 40.3449 414.156C41.1132 413.544 42.0897 413.238 43.2746 413.238C44.5376 413.238 45.5565 413.551 46.3312 414.176C47.1125 414.801 47.5031 415.611 47.5031 416.607H45.1301C45.1301 416.152 44.9608 415.774 44.6223 415.475C44.2837 415.169 43.8345 415.016 43.2746 415.016C42.7538 415.016 42.3273 415.136 41.9953 415.377C41.6698 415.618 41.507 415.94 41.507 416.344C41.507 416.708 41.66 416.992 41.966 417.193C42.272 417.395 42.8905 417.6 43.8215 417.809C44.7525 418.01 45.4816 418.255 46.009 418.541C46.5428 418.821 46.9367 419.16 47.1906 419.557C47.451 419.954 47.5812 420.436 47.5812 421.002C47.5812 421.952 47.1874 422.724 46.3996 423.316C45.6118 423.902 44.5799 424.195 43.3039 424.195C42.438 424.195 41.6665 424.039 40.9895 423.727C40.3124 423.414 39.785 422.984 39.4074 422.438C39.0298 421.891 38.841 421.301 38.841 420.67H41.1457C41.1783 421.23 41.3898 421.663 41.7805 421.969C42.1711 422.268 42.6887 422.418 43.3332 422.418C43.9582 422.418 44.4335 422.301 44.759 422.066C45.0845 421.826 45.2473 421.513 45.2473 421.129ZM54.1473 422.301C54.7397 422.301 55.2313 422.128 55.6219 421.783C56.0125 421.438 56.2208 421.012 56.2469 420.504H58.4832C58.4572 421.161 58.2521 421.777 57.868 422.35C57.4839 422.916 56.963 423.365 56.3055 423.697C55.6479 424.029 54.9383 424.195 54.1766 424.195C52.6987 424.195 51.5268 423.717 50.6609 422.76C49.7951 421.803 49.3621 420.481 49.3621 418.795V418.551C49.3621 416.943 49.7918 415.657 50.6512 414.693C51.5105 413.723 52.6824 413.238 54.1668 413.238C55.4233 413.238 56.4454 413.606 57.2332 414.342C58.0275 415.071 58.4441 416.031 58.4832 417.223H56.2469C56.2208 416.617 56.0125 416.119 55.6219 415.729C55.2378 415.338 54.7462 415.143 54.1473 415.143C53.379 415.143 52.7866 415.423 52.3699 415.982C51.9533 416.536 51.7417 417.379 51.7352 418.512V418.893C51.7352 420.038 51.9402 420.895 52.3504 421.461C52.7671 422.021 53.366 422.301 54.1473 422.301ZM65.9574 415.602C65.6449 415.549 65.3227 415.523 64.9906 415.523C63.9034 415.523 63.171 415.94 62.7934 416.773V424H60.4203V413.434H62.6859L62.7445 414.615C63.3174 413.697 64.1117 413.238 65.1273 413.238C65.4659 413.238 65.7458 413.284 65.9672 413.375L65.9574 415.602ZM70.1309 424H67.7578V413.434H70.1309V424ZM67.6113 410.689C67.6113 410.325 67.7253 410.022 67.9531 409.781C68.1875 409.54 68.5195 409.42 68.9492 409.42C69.3789 409.42 69.7109 409.54 69.9453 409.781C70.1797 410.022 70.2969 410.325 70.2969 410.689C70.2969 411.048 70.1797 411.347 69.9453 411.588C69.7109 411.822 69.3789 411.939 68.9492 411.939C68.5195 411.939 68.1875 411.822 67.9531 411.588C67.7253 411.347 67.6113 411.048 67.6113 410.689ZM82.1266 418.824C82.1266 420.458 81.7555 421.764 81.0133 422.74C80.2711 423.71 79.275 424.195 78.025 424.195C76.8661 424.195 75.9384 423.814 75.2418 423.053V428.062H72.8688V413.434H75.0563L75.1539 414.508C75.8505 413.661 76.7978 413.238 77.9957 413.238C79.2848 413.238 80.2939 413.72 81.023 414.684C81.7587 415.641 82.1266 416.972 82.1266 418.678V418.824ZM79.7633 418.619C79.7633 417.564 79.5517 416.728 79.1285 416.109C78.7119 415.491 78.1129 415.182 77.3316 415.182C76.3616 415.182 75.665 415.582 75.2418 416.383V421.07C75.6715 421.891 76.3746 422.301 77.3512 422.301C78.1064 422.301 78.6956 421.998 79.1188 421.393C79.5484 420.781 79.7633 419.856 79.7633 418.619ZM87.2668 410.865V413.434H89.132V415.191H87.2668V421.09C87.2668 421.493 87.3449 421.786 87.5012 421.969C87.6639 422.145 87.9504 422.232 88.3605 422.232C88.634 422.232 88.9107 422.2 89.1906 422.135V423.971C88.6503 424.12 88.1294 424.195 87.6281 424.195C85.8052 424.195 84.8938 423.189 84.8938 421.178V415.191H83.1555V413.434H84.8938V410.865H87.2668ZM93.6277 424H91.2547V413.434H93.6277V424ZM91.1082 410.689C91.1082 410.325 91.2221 410.022 91.45 409.781C91.6844 409.54 92.0164 409.42 92.4461 409.42C92.8758 409.42 93.2078 409.54 93.4422 409.781C93.6766 410.022 93.7937 410.325 93.7937 410.689C93.7937 411.048 93.6766 411.347 93.4422 411.588C93.2078 411.822 92.8758 411.939 92.4461 411.939C92.0164 411.939 91.6844 411.822 91.45 411.588C91.2221 411.347 91.1082 411.048 91.1082 410.689ZM95.9262 418.619C95.9262 417.584 96.1312 416.653 96.5414 415.826C96.9516 414.993 97.5277 414.355 98.2699 413.912C99.0121 413.463 99.865 413.238 100.829 413.238C102.254 413.238 103.41 413.697 104.295 414.615C105.187 415.533 105.669 416.751 105.741 418.268L105.75 418.824C105.75 419.866 105.549 420.797 105.145 421.617C104.748 422.438 104.175 423.072 103.426 423.521C102.684 423.971 101.825 424.195 100.848 424.195C99.3572 424.195 98.1625 423.701 97.2641 422.711C96.3721 421.715 95.9262 420.39 95.9262 418.736V418.619ZM98.2992 418.824C98.2992 419.911 98.5238 420.764 98.973 421.383C99.4223 421.995 100.047 422.301 100.848 422.301C101.649 422.301 102.271 421.988 102.713 421.363C103.162 420.738 103.387 419.824 103.387 418.619C103.387 417.551 103.156 416.705 102.694 416.08C102.238 415.455 101.616 415.143 100.829 415.143C100.054 415.143 99.4385 415.452 98.9828 416.07C98.5271 416.682 98.2992 417.6 98.2992 418.824ZM110.109 413.434L110.178 414.654C110.959 413.71 111.984 413.238 113.254 413.238C115.454 413.238 116.574 414.498 116.613 417.018V424H114.24V417.154C114.24 416.484 114.094 415.989 113.801 415.67C113.514 415.344 113.042 415.182 112.385 415.182C111.428 415.182 110.715 415.615 110.246 416.48V424H107.873V413.434H110.109Z" fill="black" fill-opacity="0.87"/>
<path d="M24.0625 446H22.5547V440.742H16.8203V446H15.3203V434.625H16.8203V439.516H22.5547V434.625H24.0625V446ZM32.2188 446C32.1354 445.833 32.0677 445.536 32.0156 445.109C31.3438 445.807 30.5417 446.156 29.6094 446.156C28.776 446.156 28.0911 445.922 27.5547 445.453C27.0234 444.979 26.7578 444.38 26.7578 443.656C26.7578 442.776 27.0911 442.094 27.7578 441.609C28.4297 441.12 29.3724 440.875 30.5859 440.875H31.9922V440.211C31.9922 439.706 31.8411 439.305 31.5391 439.008C31.237 438.706 30.7917 438.555 30.2031 438.555C29.6875 438.555 29.2552 438.685 28.9062 438.945C28.5573 439.206 28.3828 439.521 28.3828 439.891H26.9297C26.9297 439.469 27.0781 439.062 27.375 438.672C27.6771 438.276 28.0833 437.964 28.5938 437.734C29.1094 437.505 29.6745 437.391 30.2891 437.391C31.263 437.391 32.026 437.635 32.5781 438.125C33.1302 438.609 33.4167 439.279 33.4375 440.133V444.023C33.4375 444.799 33.5365 445.417 33.7344 445.875V446H32.2188ZM29.8203 444.898C30.2734 444.898 30.7031 444.781 31.1094 444.547C31.5156 444.312 31.8099 444.008 31.9922 443.633V441.898H30.8594C29.0885 441.898 28.2031 442.417 28.2031 443.453C28.2031 443.906 28.3542 444.26 28.6562 444.516C28.9583 444.771 29.3464 444.898 29.8203 444.898ZM43.3594 441.867C43.3594 443.159 43.0625 444.198 42.4688 444.984C41.875 445.766 41.0781 446.156 40.0781 446.156C39.0104 446.156 38.1849 445.779 37.6016 445.023L37.5312 446H36.2031V434H37.6484V438.477C38.2318 437.753 39.0365 437.391 40.0625 437.391C41.0885 437.391 41.8932 437.779 42.4766 438.555C43.0651 439.331 43.3594 440.393 43.3594 441.742V441.867ZM41.9141 441.703C41.9141 440.719 41.724 439.958 41.3438 439.422C40.9635 438.885 40.4167 438.617 39.7031 438.617C38.75 438.617 38.0651 439.06 37.6484 439.945V443.602C38.0911 444.487 38.7812 444.93 39.7188 444.93C40.4115 444.93 40.9505 444.661 41.3359 444.125C41.7214 443.589 41.9141 442.781 41.9141 441.703ZM47.2578 446H45.8125V437.547H47.2578V446ZM45.6953 435.305C45.6953 435.07 45.7656 434.872 45.9062 434.711C46.0521 434.549 46.2656 434.469 46.5469 434.469C46.8281 434.469 47.0417 434.549 47.1875 434.711C47.3333 434.872 47.4062 435.07 47.4062 435.305C47.4062 435.539 47.3333 435.734 47.1875 435.891C47.0417 436.047 46.8281 436.125 46.5469 436.125C46.2656 436.125 46.0521 436.047 45.9062 435.891C45.7656 435.734 45.6953 435.539 45.6953 435.305ZM52.0391 435.5V437.547H53.6172V438.664H52.0391V443.906C52.0391 444.245 52.1094 444.5 52.25 444.672C52.3906 444.839 52.6302 444.922 52.9688 444.922C53.1354 444.922 53.3646 444.891 53.6562 444.828V446C53.276 446.104 52.9062 446.156 52.5469 446.156C51.901 446.156 51.4141 445.961 51.0859 445.57C50.7578 445.18 50.5938 444.625 50.5938 443.906V438.664H49.0547V437.547H50.5938V435.5H52.0391ZM60.5078 446V434.625H63.7188C64.7083 434.625 65.5833 434.844 66.3438 435.281C67.1042 435.719 67.6901 436.341 68.1016 437.148C68.5182 437.956 68.7292 438.883 68.7344 439.93V440.656C68.7344 441.729 68.526 442.669 68.1094 443.477C67.6979 444.284 67.1068 444.904 66.3359 445.336C65.5703 445.768 64.6771 445.99 63.6562 446H60.5078ZM62.0078 435.859V444.773H63.5859C64.7422 444.773 65.6406 444.414 66.2812 443.695C66.9271 442.977 67.25 441.953 67.25 440.625V439.961C67.25 438.669 66.9453 437.667 66.3359 436.953C65.7318 436.234 64.8724 435.87 63.7578 435.859H62.0078ZM74.7891 446.156C73.6432 446.156 72.7109 445.781 71.9922 445.031C71.2734 444.276 70.9141 443.268 70.9141 442.008V441.742C70.9141 440.904 71.0729 440.156 71.3906 439.5C71.7135 438.839 72.1615 438.323 72.7344 437.953C73.3125 437.578 73.9375 437.391 74.6094 437.391C75.7083 437.391 76.5625 437.753 77.1719 438.477C77.7812 439.201 78.0859 440.237 78.0859 441.586V442.188H72.3594C72.3802 443.021 72.6224 443.695 73.0859 444.211C73.5547 444.721 74.1484 444.977 74.8672 444.977C75.3776 444.977 75.8099 444.872 76.1641 444.664C76.5182 444.456 76.8281 444.18 77.0938 443.836L77.9766 444.523C77.2682 445.612 76.2057 446.156 74.7891 446.156ZM74.6094 438.578C74.026 438.578 73.5365 438.792 73.1406 439.219C72.7448 439.641 72.5 440.234 72.4062 441H76.6406V440.891C76.599 440.156 76.401 439.589 76.0469 439.188C75.6927 438.781 75.2135 438.578 74.6094 438.578ZM85.1875 443.758C85.1875 443.367 85.0391 443.065 84.7422 442.852C84.4505 442.633 83.9375 442.445 83.2031 442.289C82.474 442.133 81.8932 441.945 81.4609 441.727C81.0339 441.508 80.7161 441.247 80.5078 440.945C80.3047 440.643 80.2031 440.284 80.2031 439.867C80.2031 439.174 80.4948 438.589 81.0781 438.109C81.6667 437.63 82.4167 437.391 83.3281 437.391C84.2865 437.391 85.0625 437.638 85.6562 438.133C86.2552 438.628 86.5547 439.26 86.5547 440.031H85.1016C85.1016 439.635 84.9323 439.294 84.5938 439.008C84.2604 438.721 83.8385 438.578 83.3281 438.578C82.8021 438.578 82.3906 438.693 82.0938 438.922C81.7969 439.151 81.6484 439.451 81.6484 439.82C81.6484 440.169 81.7865 440.432 82.0625 440.609C82.3385 440.786 82.8359 440.956 83.5547 441.117C84.2786 441.279 84.8646 441.471 85.3125 441.695C85.7604 441.919 86.0911 442.19 86.3047 442.508C86.5234 442.82 86.6328 443.203 86.6328 443.656C86.6328 444.411 86.3307 445.018 85.7266 445.477C85.1224 445.93 84.3385 446.156 83.375 446.156C82.6979 446.156 82.099 446.036 81.5781 445.797C81.0573 445.557 80.6484 445.224 80.3516 444.797C80.0599 444.365 79.9141 443.898 79.9141 443.398H81.3594C81.3854 443.883 81.5781 444.268 81.9375 444.555C82.3021 444.836 82.7812 444.977 83.375 444.977C83.9219 444.977 84.3594 444.867 84.6875 444.648C85.0208 444.424 85.1875 444.128 85.1875 443.758ZM92.4062 444.977C92.9219 444.977 93.3724 444.82 93.7578 444.508C94.1432 444.195 94.3568 443.805 94.3984 443.336H95.7656C95.7396 443.82 95.5729 444.281 95.2656 444.719C94.9583 445.156 94.5469 445.505 94.0312 445.766C93.5208 446.026 92.9792 446.156 92.4062 446.156C91.2552 446.156 90.3385 445.773 89.6562 445.008C88.9792 444.237 88.6406 443.185 88.6406 441.852V441.609C88.6406 440.786 88.7917 440.055 89.0938 439.414C89.3958 438.773 89.8281 438.276 90.3906 437.922C90.9583 437.568 91.6276 437.391 92.3984 437.391C93.3464 437.391 94.1328 437.674 94.7578 438.242C95.388 438.81 95.724 439.547 95.7656 440.453H94.3984C94.3568 439.906 94.1484 439.458 93.7734 439.109C93.4036 438.755 92.9453 438.578 92.3984 438.578C91.6641 438.578 91.0938 438.844 90.6875 439.375C90.2865 439.901 90.0859 440.664 90.0859 441.664V441.938C90.0859 442.911 90.2865 443.661 90.6875 444.188C91.0885 444.714 91.6615 444.977 92.4062 444.977ZM101.977 438.844C101.758 438.807 101.521 438.789 101.266 438.789C100.318 438.789 99.6745 439.193 99.3359 440V446H97.8906V437.547H99.2969L99.3203 438.523C99.7943 437.768 100.466 437.391 101.336 437.391C101.617 437.391 101.831 437.427 101.977 437.5V438.844ZM105.383 446H103.938V437.547H105.383V446ZM103.82 435.305C103.82 435.07 103.891 434.872 104.031 434.711C104.177 434.549 104.391 434.469 104.672 434.469C104.953 434.469 105.167 434.549 105.312 434.711C105.458 434.872 105.531 435.07 105.531 435.305C105.531 435.539 105.458 435.734 105.312 435.891C105.167 436.047 104.953 436.125 104.672 436.125C104.391 436.125 104.177 436.047 104.031 435.891C103.891 435.734 103.82 435.539 103.82 435.305ZM115.344 441.867C115.344 443.154 115.049 444.19 114.461 444.977C113.872 445.763 113.076 446.156 112.07 446.156C111.044 446.156 110.237 445.831 109.648 445.18V449.25H108.203V437.547H109.523L109.594 438.484C110.182 437.755 111 437.391 112.047 437.391C113.062 437.391 113.865 437.773 114.453 438.539C115.047 439.305 115.344 440.37 115.344 441.734V441.867ZM113.898 441.703C113.898 440.75 113.695 439.997 113.289 439.445C112.883 438.893 112.326 438.617 111.617 438.617C110.742 438.617 110.086 439.005 109.648 439.781V443.82C110.081 444.591 110.742 444.977 111.633 444.977C112.326 444.977 112.875 444.703 113.281 444.156C113.693 443.604 113.898 442.786 113.898 441.703ZM119.648 435.5V437.547H121.227V438.664H119.648V443.906C119.648 444.245 119.719 444.5 119.859 444.672C120 444.839 120.24 444.922 120.578 444.922C120.745 444.922 120.974 444.891 121.266 444.828V446C120.885 446.104 120.516 446.156 120.156 446.156C119.51 446.156 119.023 445.961 118.695 445.57C118.367 445.18 118.203 444.625 118.203 443.906V438.664H116.664V437.547H118.203V435.5H119.648ZM124.992 446H123.547V437.547H124.992V446ZM123.43 435.305C123.43 435.07 123.5 434.872 123.641 434.711C123.786 434.549 124 434.469 124.281 434.469C124.562 434.469 124.776 434.549 124.922 434.711C125.068 434.872 125.141 435.07 125.141 435.305C125.141 435.539 125.068 435.734 124.922 435.891C124.776 436.047 124.562 436.125 124.281 436.125C124 436.125 123.786 436.047 123.641 435.891C123.5 435.734 123.43 435.539 123.43 435.305ZM127.43 441.695C127.43 440.867 127.591 440.122 127.914 439.461C128.242 438.799 128.695 438.289 129.273 437.93C129.857 437.57 130.521 437.391 131.266 437.391C132.417 437.391 133.346 437.789 134.055 438.586C134.768 439.383 135.125 440.443 135.125 441.766V441.867C135.125 442.69 134.966 443.43 134.648 444.086C134.336 444.737 133.885 445.245 133.297 445.609C132.714 445.974 132.042 446.156 131.281 446.156C130.135 446.156 129.206 445.758 128.492 444.961C127.784 444.164 127.43 443.109 127.43 441.797V441.695ZM128.883 441.867C128.883 442.805 129.099 443.557 129.531 444.125C129.969 444.693 130.552 444.977 131.281 444.977C132.016 444.977 132.599 444.69 133.031 444.117C133.464 443.539 133.68 442.732 133.68 441.695C133.68 440.768 133.458 440.018 133.016 439.445C132.578 438.867 131.995 438.578 131.266 438.578C130.552 438.578 129.977 438.862 129.539 439.43C129.102 439.997 128.883 440.81 128.883 441.867ZM138.805 437.547L138.852 438.609C139.497 437.797 140.341 437.391 141.383 437.391C143.169 437.391 144.07 438.398 144.086 440.414V446H142.641V440.406C142.635 439.797 142.495 439.346 142.219 439.055C141.948 438.763 141.523 438.617 140.945 438.617C140.477 438.617 140.065 438.742 139.711 438.992C139.357 439.242 139.081 439.57 138.883 439.977V446H137.438V437.547H138.805Z" fill="black" fill-opacity="0.87"/>
<path d="M21.7012 120.773H18.127L17.3242 123H16.1641L19.4219 114.469H20.4062L23.6699 123H22.5156L21.7012 120.773ZM18.4668 119.848H21.3672L19.9141 115.857L18.4668 119.848ZM24.7848 119.777C24.7848 118.805 25.0152 118.023 25.4762 117.434C25.9371 116.84 26.5406 116.543 27.2867 116.543C28.0289 116.543 28.6168 116.797 29.0504 117.305V114H30.1344V123H29.1383L29.0855 122.32C28.652 122.852 28.0484 123.117 27.275 123.117C26.5406 123.117 25.941 122.816 25.4762 122.215C25.0152 121.613 24.7848 120.828 24.7848 119.859V119.777ZM25.8687 119.9C25.8687 120.619 26.0172 121.182 26.3141 121.588C26.6109 121.994 27.0211 122.197 27.5445 122.197C28.232 122.197 28.734 121.889 29.0504 121.271V118.359C28.7262 117.762 28.2281 117.463 27.5562 117.463C27.025 117.463 26.6109 117.668 26.3141 118.078C26.0172 118.488 25.8687 119.096 25.8687 119.9ZM31.9582 119.777C31.9582 118.805 32.1887 118.023 32.6496 117.434C33.1105 116.84 33.7141 116.543 34.4602 116.543C35.2023 116.543 35.7902 116.797 36.2238 117.305V114H37.3078V123H36.3117L36.259 122.32C35.8254 122.852 35.2219 123.117 34.4484 123.117C33.7141 123.117 33.1145 122.816 32.6496 122.215C32.1887 121.613 31.9582 120.828 31.9582 119.859V119.777ZM33.0422 119.9C33.0422 120.619 33.1906 121.182 33.4875 121.588C33.7844 121.994 34.1945 122.197 34.718 122.197C35.4055 122.197 35.9074 121.889 36.2238 121.271V118.359C35.8996 117.762 35.4016 117.463 34.7297 117.463C34.1984 117.463 33.7844 117.668 33.4875 118.078C33.1906 118.488 33.0422 119.096 33.0422 119.9ZM42.0262 123.117C41.1668 123.117 40.4676 122.836 39.9285 122.273C39.3895 121.707 39.1199 120.951 39.1199 120.006V119.807C39.1199 119.178 39.2391 118.617 39.4773 118.125C39.7195 117.629 40.0555 117.242 40.4852 116.965C40.9188 116.684 41.3875 116.543 41.8914 116.543C42.7156 116.543 43.3563 116.814 43.8133 117.357C44.2703 117.9 44.4988 118.678 44.4988 119.689V120.141H40.2039C40.2195 120.766 40.4012 121.271 40.7488 121.658C41.1004 122.041 41.5457 122.232 42.0848 122.232C42.4676 122.232 42.7918 122.154 43.0574 121.998C43.323 121.842 43.5555 121.635 43.7547 121.377L44.4168 121.893C43.8855 122.709 43.0887 123.117 42.0262 123.117ZM41.8914 117.434C41.4539 117.434 41.0867 117.594 40.7898 117.914C40.493 118.23 40.3094 118.676 40.2391 119.25H43.4148V119.168C43.3836 118.617 43.2352 118.191 42.9695 117.891C42.7039 117.586 42.3445 117.434 41.8914 117.434ZM45.8949 119.777C45.8949 118.805 46.1254 118.023 46.5863 117.434C47.0473 116.84 47.6508 116.543 48.3969 116.543C49.1391 116.543 49.727 116.797 50.1605 117.305V114H51.2445V123H50.2484L50.1957 122.32C49.7621 122.852 49.1586 123.117 48.3852 123.117C47.6508 123.117 47.0512 122.816 46.5863 122.215C46.1254 121.613 45.8949 120.828 45.8949 119.859V119.777ZM46.9789 119.9C46.9789 120.619 47.1273 121.182 47.4242 121.588C47.7211 121.994 48.1313 122.197 48.6547 122.197C49.3422 122.197 49.8441 121.889 50.1605 121.271V118.359C49.8363 117.762 49.3383 117.463 48.6664 117.463C48.1352 117.463 47.7211 117.668 47.4242 118.078C47.1273 118.488 46.9789 119.096 46.9789 119.9ZM56.4215 119.771C56.4215 119.15 56.5426 118.592 56.7848 118.096C57.0309 117.6 57.3707 117.217 57.8043 116.947C58.2418 116.678 58.7398 116.543 59.2984 116.543C60.1617 116.543 60.859 116.842 61.3902 117.439C61.9254 118.037 62.193 118.832 62.193 119.824V119.9C62.193 120.518 62.0738 121.072 61.8355 121.564C61.6012 122.053 61.2633 122.434 60.8219 122.707C60.3844 122.98 59.8805 123.117 59.3102 123.117C58.4508 123.117 57.7535 122.818 57.2184 122.221C56.6871 121.623 56.4215 120.832 56.4215 119.848V119.771ZM57.5113 119.9C57.5113 120.604 57.6734 121.168 57.9977 121.594C58.3258 122.02 58.7633 122.232 59.3102 122.232C59.8609 122.232 60.2984 122.018 60.6227 121.588C60.9469 121.154 61.109 120.549 61.109 119.771C61.109 119.076 60.943 118.514 60.6109 118.084C60.2828 117.65 59.8453 117.434 59.2984 117.434C58.7633 117.434 58.3316 117.646 58.0035 118.072C57.6754 118.498 57.5113 119.107 57.5113 119.9ZM64.9777 116.66L65.0129 117.457C65.4973 116.848 66.1301 116.543 66.9113 116.543C68.2512 116.543 68.927 117.299 68.9387 118.811V123H67.8547V118.805C67.8508 118.348 67.7453 118.01 67.5383 117.791C67.3352 117.572 67.0168 117.463 66.5832 117.463C66.2316 117.463 65.923 117.557 65.6574 117.744C65.3918 117.932 65.1848 118.178 65.0363 118.482V123H63.9523V116.66H64.9777ZM78.0941 114.469H79.225V120.51C79.225 121.326 78.9789 121.965 78.4867 122.426C77.9984 122.887 77.3461 123.117 76.5297 123.117C75.682 123.117 75.0219 122.9 74.5492 122.467C74.0766 122.033 73.8402 121.426 73.8402 120.645H74.9652C74.9652 121.133 75.098 121.514 75.3637 121.787C75.6332 122.061 76.0219 122.197 76.5297 122.197C76.9945 122.197 77.3695 122.051 77.6547 121.758C77.9437 121.465 78.0902 121.055 78.0941 120.527V114.469ZM85.2852 122.373C84.8633 122.869 84.2441 123.117 83.4277 123.117C82.752 123.117 82.2363 122.922 81.8809 122.531C81.5293 122.137 81.3516 121.555 81.3477 120.785V116.66H82.4316V120.756C82.4316 121.717 82.8223 122.197 83.6035 122.197C84.4316 122.197 84.9824 121.889 85.2559 121.271V116.66H86.3398V123H85.3086L85.2852 122.373ZM89.4176 116.66L89.4527 117.457C89.9371 116.848 90.5699 116.543 91.3512 116.543C92.691 116.543 93.3668 117.299 93.3785 118.811V123H92.2945V118.805C92.2906 118.348 92.1852 118.01 91.9781 117.791C91.775 117.572 91.4566 117.463 91.023 117.463C90.6715 117.463 90.3629 117.557 90.0973 117.744C89.8316 117.932 89.6246 118.178 89.4762 118.482V123H88.3922V116.66H89.4176ZM103.255 120.135H104.438V121.02H103.255V123H102.165V121.02H98.2801V120.381L102.1 114.469H103.255V120.135ZM99.5105 120.135H102.165V115.951L102.036 116.186L99.5105 120.135ZM105.893 124.699L105.278 124.277C105.645 123.766 105.836 123.238 105.852 122.695V121.717H106.912V122.566C106.912 122.961 106.815 123.355 106.62 123.75C106.428 124.145 106.186 124.461 105.893 124.699ZM117.539 123H111.949V122.221L114.902 118.939C115.339 118.443 115.64 118.041 115.804 117.732C115.972 117.42 116.056 117.098 116.056 116.766C116.056 116.32 115.921 115.955 115.652 115.67C115.382 115.385 115.023 115.242 114.574 115.242C114.035 115.242 113.615 115.396 113.314 115.705C113.017 116.01 112.869 116.436 112.869 116.982H111.785C111.785 116.197 112.037 115.562 112.541 115.078C113.048 114.594 113.726 114.352 114.574 114.352C115.367 114.352 115.994 114.561 116.455 114.979C116.916 115.393 117.146 115.945 117.146 116.637C117.146 117.477 116.611 118.477 115.541 119.637L113.255 122.115H117.539V123ZM124.437 119.361C124.437 120.631 124.22 121.574 123.786 122.191C123.353 122.809 122.675 123.117 121.753 123.117C120.843 123.117 120.169 122.816 119.732 122.215C119.294 121.609 119.068 120.707 119.052 119.508V118.061C119.052 116.807 119.269 115.875 119.702 115.266C120.136 114.656 120.816 114.352 121.741 114.352C122.659 114.352 123.335 114.646 123.769 115.236C124.202 115.822 124.425 116.729 124.437 117.955V119.361ZM123.353 117.879C123.353 116.961 123.224 116.293 122.966 115.875C122.708 115.453 122.3 115.242 121.741 115.242C121.187 115.242 120.782 115.451 120.529 115.869C120.275 116.287 120.144 116.93 120.136 117.797V119.531C120.136 120.453 120.269 121.135 120.534 121.576C120.804 122.014 121.21 122.232 121.753 122.232C122.288 122.232 122.685 122.025 122.943 121.611C123.204 121.197 123.341 120.545 123.353 119.654V117.879ZM131.815 123H126.225V122.221L129.179 118.939C129.616 118.443 129.917 118.041 130.081 117.732C130.249 117.42 130.333 117.098 130.333 116.766C130.333 116.32 130.198 115.955 129.929 115.67C129.659 115.385 129.3 115.242 128.85 115.242C128.311 115.242 127.891 115.396 127.591 115.705C127.294 116.01 127.145 116.436 127.145 116.982H126.061C126.061 116.197 126.313 115.562 126.817 115.078C127.325 114.594 128.003 114.352 128.85 114.352C129.643 114.352 130.27 114.561 130.731 114.979C131.192 115.393 131.423 115.945 131.423 116.637C131.423 117.477 130.887 118.477 129.817 119.637L127.532 122.115H131.815V123ZM138.713 119.361C138.713 120.631 138.496 121.574 138.063 122.191C137.629 122.809 136.952 123.117 136.03 123.117C135.12 123.117 134.446 122.816 134.008 122.215C133.571 121.609 133.344 120.707 133.329 119.508V118.061C133.329 116.807 133.545 115.875 133.979 115.266C134.412 114.656 135.092 114.352 136.018 114.352C136.936 114.352 137.612 114.646 138.045 115.236C138.479 115.822 138.702 116.729 138.713 117.955V119.361ZM137.629 117.879C137.629 116.961 137.5 116.293 137.243 115.875C136.985 115.453 136.577 115.242 136.018 115.242C135.463 115.242 135.059 115.451 134.805 115.869C134.551 116.287 134.42 116.93 134.412 117.797V119.531C134.412 120.453 134.545 121.135 134.811 121.576C135.08 122.014 135.487 122.232 136.03 122.232C136.565 122.232 136.961 122.025 137.219 121.611C137.481 121.197 137.618 120.545 137.629 119.654V117.879Z" fill="black" fill-opacity="0.6"/>
<defs>
<filter id="filter0_ddd" x="11" y="141" width="390" height="252" filterUnits="userSpaceOnUse" color-interpolation-filters="sRGB">
<feFlood flood-opacity="0" result="BackgroundImageFix"/>
<feColorMatrix in="SourceAlpha" type="matrix" values="0 0 0 0 0 0 0 0 0 0 0 0 0 0 0 0 0 0 127 0" result="hardAlpha"/>
<feOffset dy="1"/>
<feGaussianBlur stdDeviation="1.5"/>
<feColorMatrix type="matrix" values="0 0 0 0 0 0 0 0 0 0 0 0 0 0 0 0 0 0 0.2 0"/>
<feBlend mode="normal" in2="BackgroundImageFix" result="effect1_dropShadow"/>
<feColorMatrix in="SourceAlpha" type="matrix" values="0 0 0 0 0 0 0 0 0 0 0 0 0 0 0 0 0 0 127 0" result="hardAlpha"/>
<feOffset dy="2"/>
<feGaussianBlur stdDeviation="0.5"/>
<feColorMatrix type="matrix" values="0 0 0 0 0 0 0 0 0 0 0 0 0 0 0 0 0 0 0.12 0"/>
<feBlend mode="normal" in2="effect1_dropShadow" result="effect2_dropShadow"/>
<feColorMatrix in="SourceAlpha" type="matrix" values="0 0 0 0 0 0 0 0 0 0 0 0 0 0 0 0 0 0 127 0" result="hardAlpha"/>
<feOffset dy="1"/>
<feGaussianBlur stdDeviation="0.5"/>
<feColorMatrix type="matrix" values="0 0 0 0 0 0 0 0 0 0 0 0 0 0 0 0 0 0 0.14 0"/>
<feBlend mode="normal" in2="effect2_dropShadow" result="effect3_dropShadow"/>
<feBlend mode="normal" in="SourceGraphic" in2="effect3_dropShadow" result="shape"/>
</filter>
<clipPath id="clip0">
<rect width="336" height="184" fill="white" transform="translate(38 174)"/>
</clipPath>
</defs>
</svg>
