<svg width="411" height="731" viewBox="0 0 411 731" fill="none" xmlns="http://www.w3.org/2000/svg">
<rect width="411" height="731" fill="#F1F1F1"/>
<rect width="411" height="731" fill="white"/>
<rect width="411" height="56" fill="#6200EE"/>
<path fill-rule="evenodd" clip-rule="evenodd" d="M31.41 23.41L30 22L24 28L30 34L31.41 32.59L26.83 28L31.41 23.41Z" fill="white"/>
<path d="M79.4551 31.9043L83.0684 20.7812H85.7832L80.666 35H78.2734L73.1758 20.7812H75.8809L79.4551 31.9043ZM89.8395 35H87.4664V24.4336H89.8395V35ZM87.3199 21.6895C87.3199 21.3249 87.4339 21.0221 87.6617 20.7812C87.8961 20.5404 88.2281 20.4199 88.6578 20.4199C89.0875 20.4199 89.4195 20.5404 89.6539 20.7812C89.8883 21.0221 90.0055 21.3249 90.0055 21.6895C90.0055 22.0475 89.8883 22.347 89.6539 22.5879C89.4195 22.8223 89.0875 22.9395 88.6578 22.9395C88.2281 22.9395 87.8961 22.8223 87.6617 22.5879C87.4339 22.347 87.3199 22.0475 87.3199 21.6895ZM97.2355 35.1953C95.7316 35.1953 94.5109 34.7233 93.5734 33.7793C92.6424 32.8288 92.177 31.5658 92.177 29.9902V29.6973C92.177 28.6426 92.3788 27.7018 92.7824 26.875C93.1926 26.0417 93.7655 25.3939 94.5012 24.9316C95.2368 24.4694 96.0572 24.2383 96.9621 24.2383C98.4009 24.2383 99.5109 24.6973 100.292 25.6152C101.08 26.5332 101.474 27.832 101.474 29.5117V30.4688H94.5695C94.6411 31.3411 94.9309 32.0312 95.4387 32.5391C95.953 33.0469 96.5975 33.3008 97.3723 33.3008C98.4595 33.3008 99.3449 32.8613 100.029 31.9824L101.308 33.2031C100.885 33.8346 100.318 34.3262 99.6086 34.6777C98.9055 35.0228 98.1145 35.1953 97.2355 35.1953ZM96.9523 26.1426C96.3013 26.1426 95.774 26.3704 95.3703 26.8262C94.9732 27.2819 94.7193 27.9167 94.6086 28.7305H99.1301V28.5547C99.078 27.7604 98.8664 27.1615 98.4953 26.7578C98.1242 26.3477 97.6099 26.1426 96.9523 26.1426ZM112.757 31.7285L114.436 24.4336H116.751L113.87 35H111.917L109.651 27.7441L107.425 35H105.471L102.581 24.4336H104.895L106.604 31.6504L108.772 24.4336H110.559L112.757 31.7285ZM135.137 35H132.676V28.6816H126.318V35H123.848V20.7812H126.318V26.6992H132.676V20.7812H135.137V35ZM144.3 35C144.196 34.7982 144.105 34.4694 144.027 34.0137C143.272 34.8014 142.347 35.1953 141.254 35.1953C140.192 35.1953 139.326 34.8926 138.656 34.2871C137.985 33.6816 137.65 32.9329 137.65 32.041C137.65 30.9147 138.067 30.0521 138.9 29.4531C139.74 28.8477 140.938 28.5449 142.494 28.5449H143.949V27.8516C143.949 27.3047 143.796 26.8685 143.49 26.543C143.184 26.2109 142.718 26.0449 142.093 26.0449C141.553 26.0449 141.11 26.1816 140.765 26.4551C140.42 26.722 140.248 27.0638 140.248 27.4805H137.875C137.875 26.901 138.067 26.3607 138.451 25.8594C138.835 25.3516 139.356 24.9544 140.013 24.668C140.677 24.3815 141.416 24.2383 142.23 24.2383C143.467 24.2383 144.453 24.5508 145.189 25.1758C145.925 25.7943 146.302 26.6667 146.322 27.793V32.5586C146.322 33.5091 146.455 34.2676 146.722 34.834V35H144.3ZM141.693 33.291C142.162 33.291 142.601 33.1771 143.011 32.9492C143.428 32.7214 143.74 32.4154 143.949 32.0312V30.0391H142.67C141.791 30.0391 141.13 30.1921 140.687 30.498C140.244 30.804 140.023 31.237 140.023 31.7969C140.023 32.2526 140.173 32.6172 140.472 32.8906C140.778 33.1576 141.185 33.291 141.693 33.291ZM158.23 29.8242C158.23 31.4648 157.862 32.7702 157.126 33.7402C156.397 34.7103 155.391 35.1953 154.109 35.1953C152.872 35.1953 151.908 34.7493 151.218 33.8574L151.101 35H148.952V20H151.325V25.4492C152.009 24.6419 152.93 24.2383 154.089 24.2383C155.378 24.2383 156.39 24.7168 157.126 25.6738C157.862 26.6309 158.23 27.9688 158.23 29.6875V29.8242ZM155.857 29.6191C155.857 28.4733 155.655 27.6139 155.251 27.041C154.848 26.4681 154.262 26.1816 153.493 26.1816C152.465 26.1816 151.742 26.6309 151.325 27.5293V31.8848C151.749 32.8027 152.478 33.2617 153.513 33.2617C154.255 33.2617 154.828 32.985 155.232 32.4316C155.635 31.8783 155.844 31.0417 155.857 29.9219V29.6191ZM162.901 35H160.528V24.4336H162.901V35ZM160.382 21.6895C160.382 21.3249 160.496 21.0221 160.723 20.7812C160.958 20.5404 161.29 20.4199 161.72 20.4199C162.149 20.4199 162.481 20.5404 162.716 20.7812C162.95 21.0221 163.067 21.3249 163.067 21.6895C163.067 22.0475 162.95 22.347 162.716 22.5879C162.481 22.8223 162.149 22.9395 161.72 22.9395C161.29 22.9395 160.958 22.8223 160.723 22.5879C160.496 22.347 160.382 22.0475 160.382 21.6895ZM168.618 21.8652V24.4336H170.483V26.1914H168.618V32.0898C168.618 32.4935 168.696 32.7865 168.852 32.9688C169.015 33.1445 169.301 33.2324 169.711 33.2324C169.985 33.2324 170.261 33.1999 170.541 33.1348V34.9707C170.001 35.1204 169.48 35.1953 168.979 35.1953C167.156 35.1953 166.245 34.1895 166.245 32.1777V26.1914H164.506V24.4336H166.245V21.8652H168.618Z" fill="white"/>
<path d="M382.938 18C377.389 18 372.886 22.48 372.886 28C372.886 33.52 377.389 38 382.938 38C388.486 38 392.99 33.52 392.99 28C392.99 22.48 388.486 18 382.938 18ZM383.943 35H381.933V33H383.943V35ZM386.024 27.25L385.119 28.17C384.395 28.9 383.943 29.5 383.943 31H381.933V30.5C381.933 29.4 382.385 28.4 383.109 27.67L384.355 26.41C384.727 26.05 384.948 25.55 384.948 25C384.948 23.9 384.044 23 382.938 23C381.832 23 380.927 23.9 380.927 25H378.917C378.917 22.79 380.716 21 382.938 21C385.159 21 386.959 22.79 386.959 25C386.959 25.88 386.597 26.68 386.024 27.25Z" fill="white" fill-opacity="0.74"/>
<rect x="11" y="108" width="388" height="1" fill="#212121" fill-opacity="0.08"/>
<path d="M24.0186 94.3799L24.4834 97.5674L25.1641 94.6953L29.9453 77.8281H32.6348L37.2998 94.6953L37.9639 97.6172L38.4785 94.3633L42.2305 77.8281H45.4346L39.5742 102H36.6689L31.6885 84.3857L31.3066 82.543L30.9248 84.3857L25.7617 102H22.8564L17.0127 77.8281H20.2002L24.0186 94.3799ZM56.8232 86.793C56.3584 86.7155 55.8548 86.6768 55.3125 86.6768C53.2982 86.6768 51.9313 87.5345 51.2119 89.25V102H48.1406V84.0371H51.1289L51.1787 86.1123C52.1859 84.5075 53.6136 83.7051 55.4619 83.7051C56.0596 83.7051 56.5133 83.7826 56.8232 83.9375V86.793ZM62.999 102H59.9277V84.0371H62.999V102ZM59.6787 79.2725C59.6787 78.7744 59.8281 78.3538 60.127 78.0107C60.4368 77.6676 60.8906 77.4961 61.4883 77.4961C62.0859 77.4961 62.5397 77.6676 62.8496 78.0107C63.1595 78.3538 63.3145 78.7744 63.3145 79.2725C63.3145 79.7705 63.1595 80.1855 62.8496 80.5176C62.5397 80.8496 62.0859 81.0156 61.4883 81.0156C60.8906 81.0156 60.4368 80.8496 60.127 80.5176C59.8281 80.1855 59.6787 79.7705 59.6787 79.2725ZM72.0967 79.6875V84.0371H75.4502V86.4111H72.0967V97.5508C72.0967 98.2702 72.2461 98.8125 72.5449 99.1777C72.8438 99.5319 73.3529 99.709 74.0723 99.709C74.4264 99.709 74.9134 99.6426 75.5332 99.5098V102C74.7253 102.221 73.9395 102.332 73.1758 102.332C71.8034 102.332 70.7686 101.917 70.0713 101.087C69.374 100.257 69.0254 99.0781 69.0254 97.5508V86.4111H65.7549V84.0371H69.0254V79.6875H72.0967ZM86.5068 102.332C84.0719 102.332 82.0908 101.535 80.5635 99.9414C79.0361 98.3366 78.2725 96.195 78.2725 93.5166V92.9521C78.2725 91.1702 78.61 89.582 79.2852 88.1875C79.9714 86.7819 80.9232 85.6862 82.1406 84.9004C83.3691 84.1035 84.6973 83.7051 86.125 83.7051C88.4603 83.7051 90.2754 84.4743 91.5703 86.0127C92.8652 87.5511 93.5127 89.7536 93.5127 92.6201V93.8984H81.3438C81.388 95.6693 81.9027 97.1025 82.8877 98.1982C83.8838 99.2829 85.1455 99.8252 86.6729 99.8252C87.7575 99.8252 88.6761 99.6038 89.4287 99.1611C90.1813 98.7184 90.8398 98.1318 91.4043 97.4014L93.2803 98.8623C91.7751 101.175 89.5173 102.332 86.5068 102.332ZM86.125 86.2285C84.8854 86.2285 83.8451 86.6823 83.0039 87.5898C82.1628 88.4863 81.6426 89.748 81.4434 91.375H90.4414V91.1426C90.3529 89.582 89.9323 88.3757 89.1797 87.5234C88.4271 86.6602 87.4089 86.2285 86.125 86.2285ZM116.605 102C116.428 101.646 116.285 101.015 116.174 100.107C114.746 101.59 113.042 102.332 111.061 102.332C109.29 102.332 107.834 101.834 106.694 100.838C105.565 99.8307 105.001 98.5579 105.001 97.0195C105.001 95.1491 105.709 93.6992 107.126 92.6699C108.554 91.6296 110.557 91.1094 113.136 91.1094H116.124V89.6982C116.124 88.6247 115.803 87.7725 115.161 87.1416C114.519 86.4997 113.573 86.1787 112.322 86.1787C111.227 86.1787 110.308 86.4554 109.566 87.0088C108.825 87.5622 108.454 88.2318 108.454 89.0176H105.366C105.366 88.1211 105.682 87.2578 106.312 86.4277C106.954 85.5866 107.818 84.9225 108.902 84.4355C109.998 83.9486 111.199 83.7051 112.505 83.7051C114.575 83.7051 116.196 84.2253 117.369 85.2656C118.542 86.2949 119.151 87.7171 119.195 89.5322V97.7998C119.195 99.4489 119.406 100.76 119.826 101.734V102H116.605ZM111.509 99.6592C112.472 99.6592 113.385 99.4102 114.248 98.9121C115.111 98.4141 115.737 97.7666 116.124 96.9697V93.2842H113.717C109.954 93.2842 108.072 94.3854 108.072 96.5879C108.072 97.5508 108.393 98.3034 109.035 98.8457C109.677 99.388 110.502 99.6592 111.509 99.6592ZM135.614 84.0371V104.075C135.614 107.528 134.048 109.255 130.916 109.255C130.241 109.255 129.616 109.155 129.04 108.956V106.499C129.394 106.588 129.859 106.632 130.435 106.632C131.121 106.632 131.641 106.444 131.995 106.067C132.36 105.702 132.543 105.06 132.543 104.142V84.0371H135.614ZM132.228 79.2725C132.228 78.7855 132.377 78.3704 132.676 78.0273C132.986 77.6732 133.434 77.4961 134.021 77.4961C134.618 77.4961 135.072 77.6676 135.382 78.0107C135.692 78.3538 135.847 78.7744 135.847 79.2725C135.847 79.7705 135.692 80.1855 135.382 80.5176C135.072 80.8496 134.618 81.0156 134.021 81.0156C133.423 81.0156 132.975 80.8496 132.676 80.5176C132.377 80.1855 132.228 79.7705 132.228 79.2725ZM139.765 92.8525C139.765 91.0928 140.108 89.5101 140.794 88.1045C141.491 86.6989 142.454 85.6143 143.683 84.8506C144.922 84.0869 146.333 83.7051 147.916 83.7051C150.362 83.7051 152.338 84.5518 153.843 86.2451C155.359 87.9385 156.117 90.1908 156.117 93.002V93.2178C156.117 94.9665 155.78 96.5381 155.104 97.9326C154.44 99.3161 153.483 100.395 152.232 101.17C150.993 101.945 149.565 102.332 147.949 102.332C145.514 102.332 143.539 101.485 142.022 99.792C140.517 98.0986 139.765 95.8574 139.765 93.0684V92.8525ZM142.853 93.2178C142.853 95.21 143.312 96.8092 144.23 98.0156C145.16 99.222 146.4 99.8252 147.949 99.8252C149.51 99.8252 150.749 99.2165 151.668 97.999C152.587 96.7705 153.046 95.055 153.046 92.8525C153.046 90.8825 152.576 89.2887 151.635 88.0713C150.705 86.8428 149.465 86.2285 147.916 86.2285C146.4 86.2285 145.177 86.8317 144.247 88.0381C143.317 89.2445 142.853 90.971 142.853 93.2178ZM164.982 93.6826L163.057 95.6914V102H159.985V76.5H163.057V91.9229L164.7 89.9473L170.295 84.0371H174.03L167.041 91.541L174.844 102H171.241L164.982 93.6826ZM184.323 102.332C181.888 102.332 179.907 101.535 178.38 99.9414C176.853 98.3366 176.089 96.195 176.089 93.5166V92.9521C176.089 91.1702 176.426 89.582 177.102 88.1875C177.788 86.7819 178.74 85.6862 179.957 84.9004C181.186 84.1035 182.514 83.7051 183.941 83.7051C186.277 83.7051 188.092 84.4743 189.387 86.0127C190.682 87.5511 191.329 89.7536 191.329 92.6201V93.8984H179.16C179.204 95.6693 179.719 97.1025 180.704 98.1982C181.7 99.2829 182.962 99.8252 184.489 99.8252C185.574 99.8252 186.493 99.6038 187.245 99.1611C187.998 98.7184 188.656 98.1318 189.221 97.4014L191.097 98.8623C189.591 101.175 187.334 102.332 184.323 102.332ZM183.941 86.2285C182.702 86.2285 181.661 86.6823 180.82 87.5898C179.979 88.4863 179.459 89.748 179.26 91.375H188.258V91.1426C188.169 89.582 187.749 88.3757 186.996 87.5234C186.243 86.6602 185.225 86.2285 183.941 86.2285Z" fill="black" fill-opacity="0.87"/>
<g filter="url(#filter0_ddd_730:4305)">
<rect x="14" y="143" width="384" height="246" rx="4" fill="white"/>
</g>
<g clip-path="url(#clip0_730:4305)">
<circle cx="54" cy="190" r="16" fill="#019592"/>
<circle cx="92" cy="190" r="16" fill="#019592"/>
<circle cx="130" cy="190" r="16" fill="#019592"/>
<circle cx="168" cy="190" r="16" fill="#019592"/>
<circle cx="206" cy="190" r="16" fill="#019592"/>
<circle cx="244" cy="190" r="16" fill="#019592"/>
<circle cx="282" cy="190" r="16" fill="#019592"/>
<circle cx="320" cy="190" r="16" fill="#019592"/>
<circle cx="358" cy="190" r="16" fill="#019592"/>
<circle cx="54" cy="228" r="16" fill="#019592"/>
<circle cx="92" cy="228" r="16" fill="#019592"/>
<circle cx="130" cy="228" r="16" fill="#019592"/>
<circle cx="168" cy="228" r="16" fill="#B00020"/>
<circle cx="206" cy="228" r="16" fill="#019592"/>
<circle cx="244" cy="228" r="16" fill="#019592"/>
<circle cx="282" cy="228" r="16" fill="#019592"/>
<circle cx="320" cy="228" r="16" fill="#019592"/>
<circle cx="358" cy="228" r="16" fill="#019592"/>
<circle cx="54" cy="266" r="16" fill="#019592"/>
<circle cx="92" cy="266" r="16" fill="#019592"/>
<circle cx="130" cy="266" r="16" fill="#019592"/>
<circle cx="168" cy="266" r="16" fill="#019592"/>
<circle cx="206" cy="266" r="16" fill="#019592"/>
<circle cx="244" cy="266" r="16" fill="#019592"/>
<circle cx="282" cy="266" r="16" fill="#B00020"/>
<circle cx="320" cy="266" r="16" fill="#019592"/>
<circle cx="358" cy="266" r="16" fill="#019592"/>
<circle cx="54" cy="304" r="16" fill="#019592"/>
<circle cx="92" cy="304" r="16" fill="#019592"/>
<circle cx="130" cy="304" r="16" fill="#019592"/>
<circle cx="168" cy="304" r="16" fill="#019592"/>
<circle cx="206" cy="304" r="16" fill="#019592"/>
<circle cx="244" cy="304" r="16" fill="#019592"/>
<circle cx="282" cy="304" r="16" fill="#019592"/>
<circle cx="320" cy="304" r="16" fill="#019592"/>
<circle cx="358" cy="304" r="16" fill="#019592"/>
<circle cx="54" cy="342" r="16" fill="#019592"/>
<circle cx="92" cy="342" r="16" fill="#019592"/>
<circle cx="130" cy="342" r="16" fill="#019592"/>
<circle cx="168" cy="342" r="16" fill="#019592"/>
<circle cx="206" cy="342" r="16" fill="#019592"/>
<circle cx="244" cy="342" r="16" fill="#B00020"/>
<circle cx="282" cy="342" r="16" fill="#019592"/>
</g>
<path d="M238 282C238 279.791 239.791 278 242 278H322C324.209 278 326 279.791 326 282V300C326 302.209 324.209 304 322 304H242C239.791 304 238 302.209 238 300V282Z" fill="black" fill-opacity="0.6"/>
<path d="M258.096 286.675C258.096 287.371 257.979 287.98 257.744 288.501C257.51 289.019 257.178 289.414 256.748 289.688C256.319 289.961 255.817 290.098 255.244 290.098C254.684 290.098 254.188 289.961 253.755 289.688C253.322 289.411 252.985 289.019 252.744 288.511C252.507 288 252.385 287.409 252.378 286.738V286.226C252.378 285.542 252.497 284.938 252.735 284.414C252.972 283.89 253.307 283.49 253.74 283.213C254.177 282.933 254.675 282.793 255.235 282.793C255.804 282.793 256.306 282.931 256.738 283.208C257.175 283.481 257.51 283.88 257.744 284.404C257.979 284.925 258.096 285.532 258.096 286.226V286.675ZM257.163 286.216C257.163 285.373 256.994 284.727 256.655 284.277C256.317 283.825 255.843 283.599 255.235 283.599C254.642 283.599 254.175 283.825 253.833 284.277C253.495 284.727 253.321 285.352 253.311 286.152V286.675C253.311 287.492 253.482 288.135 253.823 288.604C254.168 289.069 254.642 289.302 255.244 289.302C255.85 289.302 256.319 289.082 256.651 288.643C256.983 288.2 257.154 287.567 257.163 286.743V286.216ZM261.88 289.36C262.202 289.36 262.484 289.263 262.724 289.067C262.965 288.872 263.099 288.628 263.125 288.335H263.979C263.963 288.638 263.859 288.926 263.667 289.199C263.475 289.473 263.218 289.691 262.895 289.854C262.576 290.016 262.238 290.098 261.88 290.098C261.16 290.098 260.587 289.858 260.161 289.38C259.738 288.898 259.526 288.241 259.526 287.407V287.256C259.526 286.742 259.621 286.284 259.809 285.884C259.998 285.483 260.268 285.173 260.62 284.951C260.975 284.73 261.393 284.619 261.875 284.619C262.467 284.619 262.959 284.797 263.349 285.151C263.743 285.506 263.953 285.967 263.979 286.533H263.125C263.099 286.191 262.969 285.911 262.734 285.693C262.503 285.472 262.217 285.361 261.875 285.361C261.416 285.361 261.059 285.527 260.805 285.859C260.555 286.188 260.429 286.665 260.429 287.29V287.461C260.429 288.07 260.555 288.538 260.805 288.867C261.056 289.196 261.414 289.36 261.88 289.36ZM266.621 283.438V284.717H267.607V285.415H266.621V288.691C266.621 288.903 266.664 289.062 266.752 289.17C266.84 289.274 266.99 289.326 267.202 289.326C267.306 289.326 267.449 289.307 267.631 289.268V290C267.394 290.065 267.162 290.098 266.938 290.098C266.534 290.098 266.23 289.976 266.025 289.731C265.82 289.487 265.717 289.141 265.717 288.691V285.415H264.755V284.717H265.717V283.438H266.621ZM274.823 290H273.915V283.979L272.093 284.648V283.828L274.681 282.856H274.823V290ZM282.528 290H277.869V289.351L280.33 286.616C280.695 286.203 280.946 285.868 281.082 285.61C281.222 285.35 281.292 285.081 281.292 284.805C281.292 284.434 281.18 284.129 280.955 283.892C280.731 283.654 280.431 283.535 280.057 283.535C279.608 283.535 279.258 283.664 279.007 283.921C278.76 284.175 278.636 284.53 278.636 284.985H277.733C277.733 284.331 277.943 283.802 278.362 283.398C278.786 282.995 279.35 282.793 280.057 282.793C280.718 282.793 281.24 282.967 281.624 283.315C282.008 283.66 282.2 284.121 282.2 284.697C282.2 285.397 281.754 286.23 280.862 287.197L278.958 289.263H282.528V290ZM283.948 291.416L283.435 291.064C283.741 290.638 283.901 290.199 283.914 289.746V288.931H284.798V289.639C284.798 289.967 284.716 290.296 284.554 290.625C284.394 290.954 284.192 291.217 283.948 291.416ZM293.786 290H289.128V289.351L291.589 286.616C291.953 286.203 292.204 285.868 292.341 285.61C292.481 285.35 292.551 285.081 292.551 284.805C292.551 284.434 292.438 284.129 292.214 283.892C291.989 283.654 291.69 283.535 291.315 283.535C290.866 283.535 290.516 283.664 290.266 283.921C290.018 284.175 289.895 284.53 289.895 284.985H288.991C288.991 284.331 289.201 283.802 289.621 283.398C290.044 282.995 290.609 282.793 291.315 282.793C291.976 282.793 292.499 282.967 292.883 283.315C293.267 283.66 293.459 284.121 293.459 284.697C293.459 285.397 293.013 286.23 292.121 287.197L290.217 289.263H293.786V290ZM299.601 286.968C299.601 288.026 299.421 288.812 299.059 289.326C298.698 289.84 298.133 290.098 297.365 290.098C296.606 290.098 296.045 289.847 295.68 289.346C295.316 288.841 295.127 288.089 295.114 287.09V285.884C295.114 284.839 295.295 284.062 295.656 283.555C296.017 283.047 296.584 282.793 297.355 282.793C298.12 282.793 298.683 283.039 299.045 283.53C299.406 284.019 299.591 284.774 299.601 285.796V286.968ZM298.698 285.732C298.698 284.967 298.59 284.411 298.376 284.062C298.161 283.711 297.821 283.535 297.355 283.535C296.893 283.535 296.556 283.709 296.344 284.058C296.133 284.406 296.024 284.941 296.017 285.664V287.109C296.017 287.878 296.128 288.446 296.349 288.813C296.574 289.178 296.912 289.36 297.365 289.36C297.811 289.36 298.141 289.188 298.356 288.843C298.574 288.498 298.688 287.954 298.698 287.212V285.732ZM305.817 290H301.158V289.351L303.619 286.616C303.984 286.203 304.235 285.868 304.371 285.61C304.511 285.35 304.581 285.081 304.581 284.805C304.581 284.434 304.469 284.129 304.244 283.892C304.02 283.654 303.72 283.535 303.346 283.535C302.897 283.535 302.547 283.664 302.296 283.921C302.049 284.175 301.925 284.53 301.925 284.985H301.022C301.022 284.331 301.232 283.802 301.652 283.398C302.075 282.995 302.64 282.793 303.346 282.793C304.007 282.793 304.529 282.967 304.913 283.315C305.297 283.66 305.489 284.121 305.489 284.697C305.489 285.397 305.043 286.23 304.152 287.197L302.247 289.263H305.817V290ZM310.142 290H309.234V283.979L307.413 284.648V283.828L310.001 282.856H310.142V290ZM252.173 291.891L254.497 297.691L256.821 291.891H258.037V299H257.1V296.231L257.188 293.243L254.854 299H254.136L251.807 293.258L251.9 296.231V299H250.962V291.891H252.173ZM260.932 299H260.029V293.717H260.932V299ZM259.956 292.315C259.956 292.169 260 292.045 260.088 291.944C260.179 291.843 260.312 291.793 260.488 291.793C260.664 291.793 260.797 291.843 260.888 291.944C260.98 292.045 261.025 292.169 261.025 292.315C261.025 292.462 260.98 292.584 260.888 292.682C260.797 292.779 260.664 292.828 260.488 292.828C260.312 292.828 260.179 292.779 260.088 292.682C260 292.584 259.956 292.462 259.956 292.315ZM265.859 297.599C265.859 297.354 265.766 297.166 265.58 297.032C265.398 296.896 265.078 296.778 264.619 296.681C264.163 296.583 263.8 296.466 263.53 296.329C263.263 296.192 263.064 296.03 262.934 295.841C262.807 295.652 262.744 295.427 262.744 295.167C262.744 294.734 262.926 294.368 263.29 294.068C263.658 293.769 264.127 293.619 264.697 293.619C265.296 293.619 265.781 293.774 266.152 294.083C266.526 294.392 266.713 294.788 266.713 295.27H265.805C265.805 295.022 265.699 294.809 265.488 294.63C265.279 294.451 265.016 294.361 264.697 294.361C264.368 294.361 264.111 294.433 263.925 294.576C263.74 294.719 263.647 294.907 263.647 295.138C263.647 295.356 263.733 295.52 263.906 295.631C264.078 295.742 264.389 295.847 264.838 295.948C265.291 296.049 265.657 296.17 265.937 296.31C266.217 296.45 266.424 296.619 266.557 296.817C266.694 297.013 266.762 297.252 266.762 297.535C266.762 298.007 266.573 298.386 266.196 298.673C265.818 298.956 265.328 299.098 264.726 299.098C264.303 299.098 263.928 299.023 263.603 298.873C263.277 298.723 263.022 298.515 262.836 298.248C262.654 297.978 262.563 297.687 262.563 297.374H263.466C263.482 297.677 263.603 297.918 263.828 298.097C264.055 298.272 264.355 298.36 264.726 298.36C265.068 298.36 265.341 298.292 265.546 298.155C265.755 298.015 265.859 297.83 265.859 297.599ZM271.415 297.599C271.415 297.354 271.322 297.166 271.137 297.032C270.954 296.896 270.634 296.778 270.175 296.681C269.719 296.583 269.356 296.466 269.086 296.329C268.819 296.192 268.62 296.03 268.49 295.841C268.363 295.652 268.3 295.427 268.3 295.167C268.3 294.734 268.482 294.368 268.847 294.068C269.215 293.769 269.683 293.619 270.253 293.619C270.852 293.619 271.337 293.774 271.708 294.083C272.082 294.392 272.27 294.788 272.27 295.27H271.361C271.361 295.022 271.256 294.809 271.044 294.63C270.836 294.451 270.572 294.361 270.253 294.361C269.924 294.361 269.667 294.433 269.481 294.576C269.296 294.719 269.203 294.907 269.203 295.138C269.203 295.356 269.289 295.52 269.462 295.631C269.634 295.742 269.945 295.847 270.395 295.948C270.847 296.049 271.213 296.17 271.493 296.31C271.773 296.45 271.98 296.619 272.113 296.817C272.25 297.013 272.318 297.252 272.318 297.535C272.318 298.007 272.13 298.386 271.752 298.673C271.374 298.956 270.884 299.098 270.282 299.098C269.859 299.098 269.485 299.023 269.159 298.873C268.834 298.723 268.578 298.515 268.393 298.248C268.21 297.978 268.119 297.687 268.119 297.374H269.022C269.039 297.677 269.159 297.918 269.384 298.097C269.612 298.272 269.911 298.36 270.282 298.36C270.624 298.36 270.897 298.292 271.103 298.155C271.311 298.015 271.415 297.83 271.415 297.599ZM276.087 299.098C275.371 299.098 274.789 298.863 274.339 298.395C273.89 297.923 273.666 297.293 273.666 296.505V296.339C273.666 295.815 273.765 295.348 273.963 294.938C274.165 294.524 274.445 294.202 274.803 293.971C275.165 293.736 275.555 293.619 275.975 293.619C276.662 293.619 277.196 293.845 277.577 294.298C277.958 294.75 278.148 295.398 278.148 296.241V296.617H274.569C274.582 297.138 274.733 297.56 275.023 297.882C275.316 298.201 275.687 298.36 276.136 298.36C276.455 298.36 276.726 298.295 276.947 298.165C277.168 298.035 277.362 297.862 277.528 297.647L278.08 298.077C277.637 298.757 276.973 299.098 276.087 299.098ZM275.975 294.361C275.611 294.361 275.305 294.495 275.057 294.762C274.81 295.025 274.657 295.396 274.598 295.875H277.245V295.807C277.219 295.348 277.095 294.993 276.874 294.742C276.652 294.488 276.353 294.361 275.975 294.361ZM279.378 296.314C279.378 295.504 279.57 294.853 279.954 294.361C280.338 293.867 280.841 293.619 281.463 293.619C282.082 293.619 282.571 293.831 282.933 294.254V291.5H283.836V299H283.006L282.962 298.434C282.601 298.876 282.098 299.098 281.453 299.098C280.841 299.098 280.342 298.847 279.954 298.346C279.57 297.844 279.378 297.19 279.378 296.383V296.314ZM280.281 296.417C280.281 297.016 280.405 297.485 280.653 297.823C280.9 298.162 281.242 298.331 281.678 298.331C282.251 298.331 282.669 298.074 282.933 297.56V295.133C282.663 294.635 282.248 294.386 281.688 294.386C281.245 294.386 280.9 294.557 280.653 294.898C280.405 295.24 280.281 295.746 280.281 296.417ZM292.683 295.714H289.602V298.233H293.181V299H288.664V291.891H293.132V292.662H289.602V294.947H292.683V295.714ZM296.223 297.774L297.531 293.717H298.454L296.56 299H295.871L293.957 293.717H294.88L296.223 297.774ZM301.847 299.098C301.131 299.098 300.548 298.863 300.099 298.395C299.65 297.923 299.425 297.293 299.425 296.505V296.339C299.425 295.815 299.525 295.348 299.723 294.938C299.925 294.524 300.205 294.202 300.563 293.971C300.924 293.736 301.315 293.619 301.735 293.619C302.422 293.619 302.956 293.845 303.337 294.298C303.717 294.75 303.908 295.398 303.908 296.241V296.617H300.329C300.342 297.138 300.493 297.56 300.783 297.882C301.076 298.201 301.447 298.36 301.896 298.36C302.215 298.36 302.485 298.295 302.707 298.165C302.928 298.035 303.122 297.862 303.288 297.647L303.839 298.077C303.397 298.757 302.733 299.098 301.847 299.098ZM301.735 294.361C301.37 294.361 301.064 294.495 300.817 294.762C300.57 295.025 300.417 295.396 300.358 295.875H303.004V295.807C302.978 295.348 302.855 294.993 302.633 294.742C302.412 294.488 302.113 294.361 301.735 294.361ZM306.212 293.717L306.241 294.381C306.645 293.873 307.172 293.619 307.823 293.619C308.94 293.619 309.503 294.249 309.513 295.509V299H308.61V295.504C308.606 295.123 308.518 294.841 308.346 294.659C308.177 294.477 307.911 294.386 307.55 294.386C307.257 294.386 307 294.464 306.779 294.62C306.557 294.776 306.385 294.981 306.261 295.235V299H305.358V293.717H306.212ZM312.501 292.438V293.717H313.487V294.415H312.501V297.691C312.501 297.903 312.545 298.062 312.633 298.17C312.721 298.274 312.87 298.326 313.082 298.326C313.186 298.326 313.329 298.307 313.512 298.268V299C313.274 299.065 313.043 299.098 312.818 299.098C312.415 299.098 312.11 298.976 311.905 298.731C311.7 298.487 311.597 298.141 311.597 297.691V294.415H310.636V293.717H311.597V292.438H312.501Z" fill="white"/>
<path d="M20.6699 418.521H17.916V424H15.4453V409.781H20.4453C22.0859 409.781 23.3522 410.149 24.2441 410.885C25.1361 411.62 25.582 412.685 25.582 414.078C25.582 415.029 25.3509 415.826 24.8887 416.471C24.4329 417.109 23.7949 417.6 22.9746 417.945L26.168 423.873V424H23.5215L20.6699 418.521ZM17.916 416.539H20.4551C21.2884 416.539 21.9395 416.331 22.4082 415.914C22.877 415.491 23.1113 414.915 23.1113 414.186C23.1113 413.424 22.8932 412.835 22.457 412.418C22.0273 412.001 21.3828 411.786 20.5234 411.773H17.916V416.539ZM32.4996 424.195C30.9957 424.195 29.775 423.723 28.8375 422.779C27.9065 421.829 27.441 420.566 27.441 418.99V418.697C27.441 417.643 27.6428 416.702 28.0465 415.875C28.4566 415.042 29.0296 414.394 29.7652 413.932C30.5009 413.469 31.3212 413.238 32.2262 413.238C33.665 413.238 34.775 413.697 35.5562 414.615C36.344 415.533 36.7379 416.832 36.7379 418.512V419.469H29.8336C29.9052 420.341 30.1949 421.031 30.7027 421.539C31.2171 422.047 31.8616 422.301 32.6363 422.301C33.7236 422.301 34.609 421.861 35.2926 420.982L36.5719 422.203C36.1487 422.835 35.5823 423.326 34.8727 423.678C34.1695 424.023 33.3785 424.195 32.4996 424.195ZM32.2164 415.143C31.5654 415.143 31.038 415.37 30.6344 415.826C30.2372 416.282 29.9833 416.917 29.8727 417.73H34.3941V417.555C34.3421 416.76 34.1305 416.161 33.7594 415.758C33.3883 415.348 32.874 415.143 32.2164 415.143ZM45.052 424C44.9478 423.798 44.8566 423.469 44.7785 423.014C44.0233 423.801 43.0988 424.195 42.0051 424.195C40.9439 424.195 40.078 423.893 39.4074 423.287C38.7368 422.682 38.4016 421.933 38.4016 421.041C38.4016 419.915 38.8182 419.052 39.6516 418.453C40.4914 417.848 41.6893 417.545 43.2453 417.545H44.7004V416.852C44.7004 416.305 44.5474 415.868 44.2414 415.543C43.9354 415.211 43.4699 415.045 42.8449 415.045C42.3046 415.045 41.8618 415.182 41.5168 415.455C41.1717 415.722 40.9992 416.064 40.9992 416.48H38.6262C38.6262 415.901 38.8182 415.361 39.2023 414.859C39.5865 414.352 40.1073 413.954 40.7648 413.668C41.4289 413.382 42.1678 413.238 42.9816 413.238C44.2186 413.238 45.2049 413.551 45.9406 414.176C46.6763 414.794 47.0539 415.667 47.0734 416.793V421.559C47.0734 422.509 47.2069 423.268 47.4738 423.834V424H45.052ZM42.4445 422.291C42.9133 422.291 43.3527 422.177 43.7629 421.949C44.1796 421.721 44.4921 421.415 44.7004 421.031V419.039H43.4211C42.5422 419.039 41.8814 419.192 41.4387 419.498C40.996 419.804 40.7746 420.237 40.7746 420.797C40.7746 421.253 40.9243 421.617 41.2238 421.891C41.5298 422.158 41.9367 422.291 42.4445 422.291ZM55.6316 421.129C55.6316 420.706 55.4559 420.383 55.1043 420.162C54.7592 419.941 54.1831 419.745 53.3758 419.576C52.5685 419.407 51.8947 419.192 51.3543 418.932C50.1694 418.359 49.577 417.529 49.577 416.441C49.577 415.53 49.9611 414.768 50.7293 414.156C51.4975 413.544 52.4741 413.238 53.659 413.238C54.922 413.238 55.9409 413.551 56.7156 414.176C57.4969 414.801 57.8875 415.611 57.8875 416.607H55.5145C55.5145 416.152 55.3452 415.774 55.0066 415.475C54.6681 415.169 54.2189 415.016 53.659 415.016C53.1382 415.016 52.7117 415.136 52.3797 415.377C52.0542 415.618 51.8914 415.94 51.8914 416.344C51.8914 416.708 52.0444 416.992 52.3504 417.193C52.6564 417.395 53.2749 417.6 54.2059 417.809C55.1368 418.01 55.866 418.255 56.3934 418.541C56.9272 418.821 57.3211 419.16 57.575 419.557C57.8354 419.954 57.9656 420.436 57.9656 421.002C57.9656 421.952 57.5717 422.724 56.784 423.316C55.9962 423.902 54.9643 424.195 53.6883 424.195C52.8224 424.195 52.0509 424.039 51.3738 423.727C50.6967 423.414 50.1694 422.984 49.7918 422.438C49.4142 421.891 49.2254 421.301 49.2254 420.67H51.5301C51.5626 421.23 51.7742 421.663 52.1648 421.969C52.5555 422.268 53.073 422.418 53.7176 422.418C54.3426 422.418 54.8178 422.301 55.1434 422.066C55.4689 421.826 55.6316 421.513 55.6316 421.129ZM59.7465 418.619C59.7465 417.584 59.9516 416.653 60.3617 415.826C60.7719 414.993 61.348 414.355 62.0902 413.912C62.8324 413.463 63.6853 413.238 64.6488 413.238C66.0746 413.238 67.2302 413.697 68.1156 414.615C69.0076 415.533 69.4893 416.751 69.5609 418.268L69.5707 418.824C69.5707 419.866 69.3689 420.797 68.9652 421.617C68.5681 422.438 67.9952 423.072 67.2465 423.521C66.5043 423.971 65.6449 424.195 64.6684 424.195C63.1775 424.195 61.9828 423.701 61.0844 422.711C60.1924 421.715 59.7465 420.39 59.7465 418.736V418.619ZM62.1195 418.824C62.1195 419.911 62.3441 420.764 62.7934 421.383C63.2426 421.995 63.8676 422.301 64.6684 422.301C65.4691 422.301 66.0909 421.988 66.5336 421.363C66.9828 420.738 67.2074 419.824 67.2074 418.619C67.2074 417.551 66.9763 416.705 66.5141 416.08C66.0583 415.455 65.4366 415.143 64.6488 415.143C63.8741 415.143 63.2589 415.452 62.8031 416.07C62.3474 416.682 62.1195 417.6 62.1195 418.824ZM73.9297 413.434L73.998 414.654C74.7793 413.71 75.8047 413.238 77.0742 413.238C79.2747 413.238 80.3945 414.498 80.4336 417.018V424H78.0605V417.154C78.0605 416.484 77.9141 415.989 77.6211 415.67C77.3346 415.344 76.8626 415.182 76.2051 415.182C75.248 415.182 74.5352 415.615 74.0664 416.48V424H71.6934V413.434H73.9297Z" fill="black" fill-opacity="0.87"/>
<path d="M16.9297 446H15.4297V434.625H16.9297V446ZM20.9625 437.547L21.0016 438.484C21.6214 437.755 22.4573 437.391 23.5094 437.391C24.6917 437.391 25.4964 437.844 25.9234 438.75C26.2047 438.344 26.5693 438.016 27.0172 437.766C27.4703 437.516 28.0042 437.391 28.6188 437.391C30.4729 437.391 31.4156 438.372 31.4469 440.336V446H30.0016V440.422C30.0016 439.818 29.8635 439.367 29.5875 439.07C29.3115 438.768 28.8479 438.617 28.1969 438.617C27.6604 438.617 27.2151 438.779 26.8609 439.102C26.5068 439.419 26.301 439.849 26.2438 440.391V446H24.7906V440.461C24.7906 439.232 24.1891 438.617 22.9859 438.617C22.038 438.617 21.3896 439.021 21.0406 439.828V446H19.5953V437.547H20.9625ZM40.925 441.867C40.925 443.154 40.6307 444.19 40.0422 444.977C39.4536 445.763 38.6568 446.156 37.6516 446.156C36.6255 446.156 35.8182 445.831 35.2297 445.18V449.25H33.7844V437.547H35.1047L35.175 438.484C35.7635 437.755 36.5812 437.391 37.6281 437.391C38.6437 437.391 39.4458 437.773 40.0344 438.539C40.6281 439.305 40.925 440.37 40.925 441.734V441.867ZM39.4797 441.703C39.4797 440.75 39.2766 439.997 38.8703 439.445C38.4641 438.893 37.9068 438.617 37.1984 438.617C36.3234 438.617 35.6672 439.005 35.2297 439.781V443.82C35.662 444.591 36.3234 444.977 37.2141 444.977C37.9068 444.977 38.4562 444.703 38.8625 444.156C39.274 443.604 39.4797 442.786 39.4797 441.703ZM47.0047 438.844C46.7859 438.807 46.549 438.789 46.2938 438.789C45.3458 438.789 44.7026 439.193 44.3641 440V446H42.9188V437.547H44.325L44.3484 438.523C44.8224 437.768 45.4943 437.391 46.3641 437.391C46.6453 437.391 46.8589 437.427 47.0047 437.5V438.844ZM47.9516 441.695C47.9516 440.867 48.113 440.122 48.4359 439.461C48.7641 438.799 49.2172 438.289 49.7953 437.93C50.3786 437.57 51.0427 437.391 51.7875 437.391C52.9385 437.391 53.8682 437.789 54.5766 438.586C55.2901 439.383 55.6469 440.443 55.6469 441.766V441.867C55.6469 442.69 55.488 443.43 55.1703 444.086C54.8578 444.737 54.4073 445.245 53.8187 445.609C53.2354 445.974 52.5635 446.156 51.8031 446.156C50.6573 446.156 49.7276 445.758 49.0141 444.961C48.3057 444.164 47.9516 443.109 47.9516 441.797V441.695ZM49.4047 441.867C49.4047 442.805 49.6208 443.557 50.0531 444.125C50.4906 444.693 51.074 444.977 51.8031 444.977C52.5375 444.977 53.1208 444.69 53.5531 444.117C53.9854 443.539 54.2016 442.732 54.2016 441.695C54.2016 440.768 53.9802 440.018 53.5375 439.445C53.1 438.867 52.5167 438.578 51.7875 438.578C51.074 438.578 50.4984 438.862 50.0609 439.43C49.6234 439.997 49.4047 440.81 49.4047 441.867ZM60.2734 444.039L62.3672 437.547H63.8438L60.8125 446H59.7109L56.6484 437.547H58.125L60.2734 444.039ZM68.7828 446.156C67.637 446.156 66.7047 445.781 65.9859 445.031C65.2672 444.276 64.9078 443.268 64.9078 442.008V441.742C64.9078 440.904 65.0667 440.156 65.3844 439.5C65.7073 438.839 66.1552 438.323 66.7281 437.953C67.3063 437.578 67.9313 437.391 68.6031 437.391C69.7021 437.391 70.5563 437.753 71.1656 438.477C71.775 439.201 72.0797 440.237 72.0797 441.586V442.188H66.3531C66.374 443.021 66.6161 443.695 67.0797 444.211C67.5484 444.721 68.1422 444.977 68.8609 444.977C69.3714 444.977 69.8036 444.872 70.1578 444.664C70.512 444.456 70.8219 444.18 71.0875 443.836L71.9703 444.523C71.262 445.612 70.1995 446.156 68.7828 446.156ZM68.6031 438.578C68.0198 438.578 67.5302 438.792 67.1344 439.219C66.7385 439.641 66.4938 440.234 66.4 441H70.6344V440.891C70.5927 440.156 70.3948 439.589 70.0406 439.188C69.6865 438.781 69.2073 438.578 68.6031 438.578ZM79.3875 437.547L79.4266 438.484C80.0464 437.755 80.8823 437.391 81.9344 437.391C83.1167 437.391 83.9214 437.844 84.3484 438.75C84.6297 438.344 84.9943 438.016 85.4422 437.766C85.8953 437.516 86.4292 437.391 87.0438 437.391C88.8979 437.391 89.8406 438.372 89.8719 440.336V446H88.4266V440.422C88.4266 439.818 88.2885 439.367 88.0125 439.07C87.7365 438.768 87.2729 438.617 86.6219 438.617C86.0854 438.617 85.6401 438.779 85.2859 439.102C84.9318 439.419 84.726 439.849 84.6688 440.391V446H83.2156V440.461C83.2156 439.232 82.6141 438.617 81.4109 438.617C80.463 438.617 79.8146 439.021 79.4656 439.828V446H78.0203V437.547H79.3875ZM94.975 443.883L96.9437 437.547H98.4906L95.0922 447.305C94.5661 448.711 93.7302 449.414 92.5844 449.414L92.3109 449.391L91.7719 449.289V448.117L92.1625 448.148C92.6521 448.148 93.0323 448.049 93.3031 447.852C93.5792 447.654 93.8057 447.292 93.9828 446.766L94.3031 445.906L91.2875 437.547H92.8656L94.975 443.883ZM108.978 443.758C108.978 443.367 108.83 443.065 108.533 442.852C108.241 442.633 107.728 442.445 106.994 442.289C106.265 442.133 105.684 441.945 105.252 441.727C104.824 441.508 104.507 441.247 104.298 440.945C104.095 440.643 103.994 440.284 103.994 439.867C103.994 439.174 104.285 438.589 104.869 438.109C105.457 437.63 106.207 437.391 107.119 437.391C108.077 437.391 108.853 437.638 109.447 438.133C110.046 438.628 110.345 439.26 110.345 440.031H108.892C108.892 439.635 108.723 439.294 108.384 439.008C108.051 438.721 107.629 438.578 107.119 438.578C106.593 438.578 106.181 438.693 105.884 438.922C105.588 439.151 105.439 439.451 105.439 439.82C105.439 440.169 105.577 440.432 105.853 440.609C106.129 440.786 106.627 440.956 107.345 441.117C108.069 441.279 108.655 441.471 109.103 441.695C109.551 441.919 109.882 442.19 110.095 442.508C110.314 442.82 110.423 443.203 110.423 443.656C110.423 444.411 110.121 445.018 109.517 445.477C108.913 445.93 108.129 446.156 107.166 446.156C106.489 446.156 105.89 446.036 105.369 445.797C104.848 445.557 104.439 445.224 104.142 444.797C103.851 444.365 103.705 443.898 103.705 443.398H105.15C105.176 443.883 105.369 444.268 105.728 444.555C106.093 444.836 106.572 444.977 107.166 444.977C107.713 444.977 108.15 444.867 108.478 444.648C108.811 444.424 108.978 444.128 108.978 443.758ZM115.964 446.156C114.818 446.156 113.886 445.781 113.167 445.031C112.448 444.276 112.089 443.268 112.089 442.008V441.742C112.089 440.904 112.248 440.156 112.566 439.5C112.889 438.839 113.336 438.323 113.909 437.953C114.488 437.578 115.113 437.391 115.784 437.391C116.883 437.391 117.738 437.753 118.347 438.477C118.956 439.201 119.261 440.237 119.261 441.586V442.188H113.534C113.555 443.021 113.797 443.695 114.261 444.211C114.73 444.721 115.323 444.977 116.042 444.977C116.553 444.977 116.985 444.872 117.339 444.664C117.693 444.456 118.003 444.18 118.269 443.836L119.152 444.523C118.443 445.612 117.381 446.156 115.964 446.156ZM115.784 438.578C115.201 438.578 114.711 438.792 114.316 439.219C113.92 439.641 113.675 440.234 113.581 441H117.816V440.891C117.774 440.156 117.576 439.589 117.222 439.188C116.868 438.781 116.389 438.578 115.784 438.578ZM122.458 437.547L122.505 438.609C123.151 437.797 123.994 437.391 125.036 437.391C126.822 437.391 127.723 438.398 127.739 440.414V446H126.294V440.406C126.289 439.797 126.148 439.346 125.872 439.055C125.601 438.763 125.177 438.617 124.598 438.617C124.13 438.617 123.718 438.742 123.364 438.992C123.01 439.242 122.734 439.57 122.536 439.977V446H121.091V437.547H122.458ZM134.991 443.758C134.991 443.367 134.842 443.065 134.545 442.852C134.254 442.633 133.741 442.445 133.006 442.289C132.277 442.133 131.696 441.945 131.264 441.727C130.837 441.508 130.519 441.247 130.311 440.945C130.108 440.643 130.006 440.284 130.006 439.867C130.006 439.174 130.298 438.589 130.881 438.109C131.47 437.63 132.22 437.391 133.131 437.391C134.09 437.391 134.866 437.638 135.459 438.133C136.058 438.628 136.358 439.26 136.358 440.031H134.905C134.905 439.635 134.735 439.294 134.397 439.008C134.064 438.721 133.642 438.578 133.131 438.578C132.605 438.578 132.194 438.693 131.897 438.922C131.6 439.151 131.452 439.451 131.452 439.82C131.452 440.169 131.59 440.432 131.866 440.609C132.142 440.786 132.639 440.956 133.358 441.117C134.082 441.279 134.668 441.471 135.116 441.695C135.564 441.919 135.894 442.19 136.108 442.508C136.327 442.82 136.436 443.203 136.436 443.656C136.436 444.411 136.134 445.018 135.53 445.477C134.926 445.93 134.142 446.156 133.178 446.156C132.501 446.156 131.902 446.036 131.381 445.797C130.86 445.557 130.452 445.224 130.155 444.797C129.863 444.365 129.717 443.898 129.717 443.398H131.162C131.189 443.883 131.381 444.268 131.741 444.555C132.105 444.836 132.584 444.977 133.178 444.977C133.725 444.977 134.162 444.867 134.491 444.648C134.824 444.424 134.991 444.128 134.991 443.758ZM141.977 446.156C140.831 446.156 139.898 445.781 139.18 445.031C138.461 444.276 138.102 443.268 138.102 442.008V441.742C138.102 440.904 138.26 440.156 138.578 439.5C138.901 438.839 139.349 438.323 139.922 437.953C140.5 437.578 141.125 437.391 141.797 437.391C142.896 437.391 143.75 437.753 144.359 438.477C144.969 439.201 145.273 440.237 145.273 441.586V442.188H139.547C139.568 443.021 139.81 443.695 140.273 444.211C140.742 444.721 141.336 444.977 142.055 444.977C142.565 444.977 142.997 444.872 143.352 444.664C143.706 444.456 144.016 444.18 144.281 443.836L145.164 444.523C144.456 445.612 143.393 446.156 141.977 446.156ZM141.797 438.578C141.214 438.578 140.724 438.792 140.328 439.219C139.932 439.641 139.688 440.234 139.594 441H143.828V440.891C143.786 440.156 143.589 439.589 143.234 439.188C142.88 438.781 142.401 438.578 141.797 438.578ZM150.839 441.695C150.839 440.867 151.001 440.122 151.323 439.461C151.652 438.799 152.105 438.289 152.683 437.93C153.266 437.57 153.93 437.391 154.675 437.391C155.826 437.391 156.756 437.789 157.464 438.586C158.178 439.383 158.534 440.443 158.534 441.766V441.867C158.534 442.69 158.376 443.43 158.058 444.086C157.745 444.737 157.295 445.245 156.706 445.609C156.123 445.974 155.451 446.156 154.691 446.156C153.545 446.156 152.615 445.758 151.902 444.961C151.193 444.164 150.839 443.109 150.839 441.797V441.695ZM152.292 441.867C152.292 442.805 152.508 443.557 152.941 444.125C153.378 444.693 153.961 444.977 154.691 444.977C155.425 444.977 156.008 444.69 156.441 444.117C156.873 443.539 157.089 442.732 157.089 441.695C157.089 440.768 156.868 440.018 156.425 439.445C155.988 438.867 155.404 438.578 154.675 438.578C153.961 438.578 153.386 438.862 152.948 439.43C152.511 439.997 152.292 440.81 152.292 441.867ZM161.208 446V438.664H159.872V437.547H161.208V436.68C161.208 435.773 161.45 435.073 161.934 434.578C162.419 434.083 163.104 433.836 163.989 433.836C164.322 433.836 164.653 433.88 164.981 433.969L164.903 435.141C164.658 435.094 164.398 435.07 164.122 435.07C163.653 435.07 163.291 435.208 163.036 435.484C162.781 435.755 162.653 436.146 162.653 436.656V437.547H164.458V438.664H162.653V446H161.208ZM171.773 438.57C172.414 437.784 173.247 437.391 174.273 437.391C176.06 437.391 176.961 438.398 176.977 440.414V446H175.531V440.406C175.526 439.797 175.385 439.346 175.109 439.055C174.839 438.763 174.414 438.617 173.836 438.617C173.367 438.617 172.956 438.742 172.602 438.992C172.247 439.242 171.971 439.57 171.773 439.977V446H170.328V434H171.773V438.57ZM184.509 445.164C183.947 445.826 183.121 446.156 182.033 446.156C181.132 446.156 180.444 445.896 179.97 445.375C179.502 444.849 179.265 444.073 179.259 443.047V437.547H180.705V443.008C180.705 444.289 181.226 444.93 182.267 444.93C183.371 444.93 184.106 444.518 184.47 443.695V437.547H185.916V446H184.541L184.509 445.164ZM189.628 437.547L189.667 438.484C190.287 437.755 191.123 437.391 192.175 437.391C193.357 437.391 194.162 437.844 194.589 438.75C194.87 438.344 195.235 438.016 195.683 437.766C196.136 437.516 196.67 437.391 197.284 437.391C199.139 437.391 200.081 438.372 200.113 440.336V446H198.667V440.422C198.667 439.818 198.529 439.367 198.253 439.07C197.977 438.768 197.514 438.617 196.863 438.617C196.326 438.617 195.881 438.779 195.527 439.102C195.172 439.419 194.967 439.849 194.909 440.391V446H193.456V440.461C193.456 439.232 192.855 438.617 191.652 438.617C190.704 438.617 190.055 439.021 189.706 439.828V446H188.261V437.547H189.628ZM202.067 441.695C202.067 440.867 202.229 440.122 202.552 439.461C202.88 438.799 203.333 438.289 203.911 437.93C204.494 437.57 205.158 437.391 205.903 437.391C207.054 437.391 207.984 437.789 208.692 438.586C209.406 439.383 209.762 440.443 209.762 441.766V441.867C209.762 442.69 209.604 443.43 209.286 444.086C208.973 444.737 208.523 445.245 207.934 445.609C207.351 445.974 206.679 446.156 205.919 446.156C204.773 446.156 203.843 445.758 203.13 444.961C202.421 444.164 202.067 443.109 202.067 441.797V441.695ZM203.52 441.867C203.52 442.805 203.736 443.557 204.169 444.125C204.606 444.693 205.19 444.977 205.919 444.977C206.653 444.977 207.236 444.69 207.669 444.117C208.101 443.539 208.317 442.732 208.317 441.695C208.317 440.768 208.096 440.018 207.653 439.445C207.216 438.867 206.632 438.578 205.903 438.578C205.19 438.578 204.614 438.862 204.177 439.43C203.739 439.997 203.52 440.81 203.52 441.867ZM215.811 438.844C215.592 438.807 215.355 438.789 215.1 438.789C214.152 438.789 213.509 439.193 213.17 440V446H211.725V437.547H213.131L213.155 438.523C213.629 437.768 214.301 437.391 215.17 437.391C215.452 437.391 215.665 437.427 215.811 437.5V438.844Z" fill="black" fill-opacity="0.87"/>
<path d="M21.7012 120.773H18.127L17.3242 123H16.1641L19.4219 114.469H20.4062L23.6699 123H22.5156L21.7012 120.773ZM18.4668 119.848H21.3672L19.9141 115.857L18.4668 119.848ZM24.7848 119.777C24.7848 118.805 25.0152 118.023 25.4762 117.434C25.9371 116.84 26.5406 116.543 27.2867 116.543C28.0289 116.543 28.6168 116.797 29.0504 117.305V114H30.1344V123H29.1383L29.0855 122.32C28.652 122.852 28.0484 123.117 27.275 123.117C26.5406 123.117 25.941 122.816 25.4762 122.215C25.0152 121.613 24.7848 120.828 24.7848 119.859V119.777ZM25.8687 119.9C25.8687 120.619 26.0172 121.182 26.3141 121.588C26.6109 121.994 27.0211 122.197 27.5445 122.197C28.232 122.197 28.734 121.889 29.0504 121.271V118.359C28.7262 117.762 28.2281 117.463 27.5562 117.463C27.025 117.463 26.6109 117.668 26.3141 118.078C26.0172 118.488 25.8687 119.096 25.8687 119.9ZM31.9582 119.777C31.9582 118.805 32.1887 118.023 32.6496 117.434C33.1105 116.84 33.7141 116.543 34.4602 116.543C35.2023 116.543 35.7902 116.797 36.2238 117.305V114H37.3078V123H36.3117L36.259 122.32C35.8254 122.852 35.2219 123.117 34.4484 123.117C33.7141 123.117 33.1145 122.816 32.6496 122.215C32.1887 121.613 31.9582 120.828 31.9582 119.859V119.777ZM33.0422 119.9C33.0422 120.619 33.1906 121.182 33.4875 121.588C33.7844 121.994 34.1945 122.197 34.718 122.197C35.4055 122.197 35.9074 121.889 36.2238 121.271V118.359C35.8996 117.762 35.4016 117.463 34.7297 117.463C34.1984 117.463 33.7844 117.668 33.4875 118.078C33.1906 118.488 33.0422 119.096 33.0422 119.9ZM42.0262 123.117C41.1668 123.117 40.4676 122.836 39.9285 122.273C39.3895 121.707 39.1199 120.951 39.1199 120.006V119.807C39.1199 119.178 39.2391 118.617 39.4773 118.125C39.7195 117.629 40.0555 117.242 40.4852 116.965C40.9188 116.684 41.3875 116.543 41.8914 116.543C42.7156 116.543 43.3563 116.814 43.8133 117.357C44.2703 117.9 44.4988 118.678 44.4988 119.689V120.141H40.2039C40.2195 120.766 40.4012 121.271 40.7488 121.658C41.1004 122.041 41.5457 122.232 42.0848 122.232C42.4676 122.232 42.7918 122.154 43.0574 121.998C43.323 121.842 43.5555 121.635 43.7547 121.377L44.4168 121.893C43.8855 122.709 43.0887 123.117 42.0262 123.117ZM41.8914 117.434C41.4539 117.434 41.0867 117.594 40.7898 117.914C40.493 118.23 40.3094 118.676 40.2391 119.25H43.4148V119.168C43.3836 118.617 43.2352 118.191 42.9695 117.891C42.7039 117.586 42.3445 117.434 41.8914 117.434ZM45.8949 119.777C45.8949 118.805 46.1254 118.023 46.5863 117.434C47.0473 116.84 47.6508 116.543 48.3969 116.543C49.1391 116.543 49.727 116.797 50.1605 117.305V114H51.2445V123H50.2484L50.1957 122.32C49.7621 122.852 49.1586 123.117 48.3852 123.117C47.6508 123.117 47.0512 122.816 46.5863 122.215C46.1254 121.613 45.8949 120.828 45.8949 119.859V119.777ZM46.9789 119.9C46.9789 120.619 47.1273 121.182 47.4242 121.588C47.7211 121.994 48.1313 122.197 48.6547 122.197C49.3422 122.197 49.8441 121.889 50.1605 121.271V118.359C49.8363 117.762 49.3383 117.463 48.6664 117.463C48.1352 117.463 47.7211 117.668 47.4242 118.078C47.1273 118.488 46.9789 119.096 46.9789 119.9ZM56.4215 119.771C56.4215 119.15 56.5426 118.592 56.7848 118.096C57.0309 117.6 57.3707 117.217 57.8043 116.947C58.2418 116.678 58.7398 116.543 59.2984 116.543C60.1617 116.543 60.859 116.842 61.3902 117.439C61.9254 118.037 62.193 118.832 62.193 119.824V119.9C62.193 120.518 62.0738 121.072 61.8355 121.564C61.6012 122.053 61.2633 122.434 60.8219 122.707C60.3844 122.98 59.8805 123.117 59.3102 123.117C58.4508 123.117 57.7535 122.818 57.2184 122.221C56.6871 121.623 56.4215 120.832 56.4215 119.848V119.771ZM57.5113 119.9C57.5113 120.604 57.6734 121.168 57.9977 121.594C58.3258 122.02 58.7633 122.232 59.3102 122.232C59.8609 122.232 60.2984 122.018 60.6227 121.588C60.9469 121.154 61.109 120.549 61.109 119.771C61.109 119.076 60.943 118.514 60.6109 118.084C60.2828 117.65 59.8453 117.434 59.2984 117.434C58.7633 117.434 58.3316 117.646 58.0035 118.072C57.6754 118.498 57.5113 119.107 57.5113 119.9ZM64.9777 116.66L65.0129 117.457C65.4973 116.848 66.1301 116.543 66.9113 116.543C68.2512 116.543 68.927 117.299 68.9387 118.811V123H67.8547V118.805C67.8508 118.348 67.7453 118.01 67.5383 117.791C67.3352 117.572 67.0168 117.463 66.5832 117.463C66.2316 117.463 65.923 117.557 65.6574 117.744C65.3918 117.932 65.1848 118.178 65.0363 118.482V123H63.9523V116.66H64.9777ZM78.0941 114.469H79.225V120.51C79.225 121.326 78.9789 121.965 78.4867 122.426C77.9984 122.887 77.3461 123.117 76.5297 123.117C75.682 123.117 75.0219 122.9 74.5492 122.467C74.0766 122.033 73.8402 121.426 73.8402 120.645H74.9652C74.9652 121.133 75.098 121.514 75.3637 121.787C75.6332 122.061 76.0219 122.197 76.5297 122.197C76.9945 122.197 77.3695 122.051 77.6547 121.758C77.9437 121.465 78.0902 121.055 78.0941 120.527V114.469ZM85.2852 122.373C84.8633 122.869 84.2441 123.117 83.4277 123.117C82.752 123.117 82.2363 122.922 81.8809 122.531C81.5293 122.137 81.3516 121.555 81.3477 120.785V116.66H82.4316V120.756C82.4316 121.717 82.8223 122.197 83.6035 122.197C84.4316 122.197 84.9824 121.889 85.2559 121.271V116.66H86.3398V123H85.3086L85.2852 122.373ZM89.4176 116.66L89.4527 117.457C89.9371 116.848 90.5699 116.543 91.3512 116.543C92.691 116.543 93.3668 117.299 93.3785 118.811V123H92.2945V118.805C92.2906 118.348 92.1852 118.01 91.9781 117.791C91.775 117.572 91.4566 117.463 91.023 117.463C90.6715 117.463 90.3629 117.557 90.0973 117.744C89.8316 117.932 89.6246 118.178 89.4762 118.482V123H88.3922V116.66H89.4176ZM103.255 120.135H104.438V121.02H103.255V123H102.165V121.02H98.2801V120.381L102.1 114.469H103.255V120.135ZM99.5105 120.135H102.165V115.951L102.036 116.186L99.5105 120.135ZM105.893 124.699L105.278 124.277C105.645 123.766 105.836 123.238 105.852 122.695V121.717H106.912V122.566C106.912 122.961 106.815 123.355 106.62 123.75C106.428 124.145 106.186 124.461 105.893 124.699ZM117.539 123H111.949V122.221L114.902 118.939C115.339 118.443 115.64 118.041 115.804 117.732C115.972 117.42 116.056 117.098 116.056 116.766C116.056 116.32 115.921 115.955 115.652 115.67C115.382 115.385 115.023 115.242 114.574 115.242C114.035 115.242 113.615 115.396 113.314 115.705C113.017 116.01 112.869 116.436 112.869 116.982H111.785C111.785 116.197 112.037 115.562 112.541 115.078C113.048 114.594 113.726 114.352 114.574 114.352C115.367 114.352 115.994 114.561 116.455 114.979C116.916 115.393 117.146 115.945 117.146 116.637C117.146 117.477 116.611 118.477 115.541 119.637L113.255 122.115H117.539V123ZM124.437 119.361C124.437 120.631 124.22 121.574 123.786 122.191C123.353 122.809 122.675 123.117 121.753 123.117C120.843 123.117 120.169 122.816 119.732 122.215C119.294 121.609 119.068 120.707 119.052 119.508V118.061C119.052 116.807 119.269 115.875 119.702 115.266C120.136 114.656 120.816 114.352 121.741 114.352C122.659 114.352 123.335 114.646 123.769 115.236C124.202 115.822 124.425 116.729 124.437 117.955V119.361ZM123.353 117.879C123.353 116.961 123.224 116.293 122.966 115.875C122.708 115.453 122.3 115.242 121.741 115.242C121.187 115.242 120.782 115.451 120.529 115.869C120.275 116.287 120.144 116.93 120.136 117.797V119.531C120.136 120.453 120.269 121.135 120.534 121.576C120.804 122.014 121.21 122.232 121.753 122.232C122.288 122.232 122.685 122.025 122.943 121.611C123.204 121.197 123.341 120.545 123.353 119.654V117.879ZM131.815 123H126.225V122.221L129.179 118.939C129.616 118.443 129.917 118.041 130.081 117.732C130.249 117.42 130.333 117.098 130.333 116.766C130.333 116.32 130.198 115.955 129.929 115.67C129.659 115.385 129.3 115.242 128.85 115.242C128.311 115.242 127.891 115.396 127.591 115.705C127.294 116.01 127.145 116.436 127.145 116.982H126.061C126.061 116.197 126.313 115.562 126.817 115.078C127.325 114.594 128.003 114.352 128.85 114.352C129.643 114.352 130.27 114.561 130.731 114.979C131.192 115.393 131.423 115.945 131.423 116.637C131.423 117.477 130.887 118.477 129.817 119.637L127.532 122.115H131.815V123ZM138.713 119.361C138.713 120.631 138.496 121.574 138.063 122.191C137.629 122.809 136.952 123.117 136.03 123.117C135.12 123.117 134.446 122.816 134.008 122.215C133.571 121.609 133.344 120.707 133.329 119.508V118.061C133.329 116.807 133.545 115.875 133.979 115.266C134.412 114.656 135.092 114.352 136.018 114.352C136.936 114.352 137.612 114.646 138.045 115.236C138.479 115.822 138.702 116.729 138.713 117.955V119.361ZM137.629 117.879C137.629 116.961 137.5 116.293 137.243 115.875C136.985 115.453 136.577 115.242 136.018 115.242C135.463 115.242 135.059 115.451 134.805 115.869C134.551 116.287 134.42 116.93 134.412 117.797V119.531C134.412 120.453 134.545 121.135 134.811 121.576C135.08 122.014 135.487 122.232 136.03 122.232C136.565 122.232 136.961 122.025 137.219 121.611C137.481 121.197 137.618 120.545 137.629 119.654V117.879Z" fill="black" fill-opacity="0.6"/>
<defs>
<filter id="filter0_ddd_730:4305" x="11" y="141" width="390" height="252" filterUnits="userSpaceOnUse" color-interpolation-filters="sRGB">
<feFlood flood-opacity="0" result="BackgroundImageFix"/>
<feColorMatrix in="SourceAlpha" type="matrix" values="0 0 0 0 0 0 0 0 0 0 0 0 0 0 0 0 0 0 127 0" result="hardAlpha"/>
<feOffset dy="1"/>
<feGaussianBlur stdDeviation="1.5"/>
<feColorMatrix type="matrix" values="0 0 0 0 0 0 0 0 0 0 0 0 0 0 0 0 0 0 0.2 0"/>
<feBlend mode="normal" in2="BackgroundImageFix" result="effect1_dropShadow_730:4305"/>
<feColorMatrix in="SourceAlpha" type="matrix" values="0 0 0 0 0 0 0 0 0 0 0 0 0 0 0 0 0 0 127 0" result="hardAlpha"/>
<feOffset dy="2"/>
<feGaussianBlur stdDeviation="0.5"/>
<feColorMatrix type="matrix" values="0 0 0 0 0 0 0 0 0 0 0 0 0 0 0 0 0 0 0.12 0"/>
<feBlend mode="normal" in2="effect1_dropShadow_730:4305" result="effect2_dropShadow_730:4305"/>
<feColorMatrix in="SourceAlpha" type="matrix" values="0 0 0 0 0 0 0 0 0 0 0 0 0 0 0 0 0 0 127 0" result="hardAlpha"/>
<feOffset dy="1"/>
<feGaussianBlur stdDeviation="0.5"/>
<feColorMatrix type="matrix" values="0 0 0 0 0 0 0 0 0 0 0 0 0 0 0 0 0 0 0.14 0"/>
<feBlend mode="normal" in2="effect2_dropShadow_730:4305" result="effect3_dropShadow_730:4305"/>
<feBlend mode="normal" in="SourceGraphic" in2="effect3_dropShadow_730:4305" result="shape"/>
</filter>
<clipPath id="clip0_730:4305">
<rect width="336" height="184" fill="white" transform="translate(38 174)"/>
</clipPath>
</defs>
</svg>
