<svg width="411" height="731" viewBox="0 0 411 731" fill="none" xmlns="http://www.w3.org/2000/svg">
<rect width="411" height="731" fill="#F1F1F1"/>
<g clip-path="url(#clip0_730:5998)">
<rect width="411" height="731" fill="white"/>
<g filter="url(#filter0_ddd_730:5998)">
<rect width="411" height="56" fill="#6200EE"/>
<path fill-rule="evenodd" clip-rule="evenodd" d="M386.5 30H385.71L385.43 29.73C386.41 28.59 387 27.11 387 25.5C387 21.91 384.09 19 380.5 19C376.91 19 374 21.91 374 25.5C374 29.09 376.91 32 380.5 32C382.11 32 383.59 31.41 384.73 30.43L385 30.71V31.5L390 36.49L391.49 35L386.5 30ZM380.5 30C378.01 30 376 27.99 376 25.5C376 23.01 378.01 21 380.5 21C382.99 21 385 23.01 385 25.5C385 27.99 382.99 30 380.5 30Z" fill="white" fill-opacity="0.74"/>
<path fill-rule="evenodd" clip-rule="evenodd" d="M31.41 23.41L30 22L24 28L30 34L31.41 32.59L26.83 28L31.41 23.41Z" fill="white" fill-opacity="0.74"/>
<path d="M49 12C49 9.79086 50.7909 8 53 8H353C355.209 8 357 9.79086 357 12V48H49V12Z" fill="#212121" fill-opacity="0.08"/>
<path d="M72.6016 30.0312H67.8359L66.7656 33H65.2188L69.5625 21.625H70.875L75.2266 33H73.6875L72.6016 30.0312ZM68.2891 28.7969H72.1562L70.2188 23.4766L68.2891 28.7969Z" fill="white"/>
<rect x="80" y="19.5" width="1" height="17" fill="#6200EE"/>
<rect x="49" y="48" width="308" height="1" fill="#6200EE"/>
</g>
<mask id="mask0_730:5998" style="mask-type:alpha" maskUnits="userSpaceOnUse" x="0" y="72" width="394" height="64">
<rect y="72" width="394" height="64" fill="white"/>
</mask>
<g mask="url(#mask0_730:5998)">
<path d="M23.6016 95.0312H18.8359L17.7656 98H16.2188L20.5625 86.625H21.875L26.2266 98H24.6875L23.6016 95.0312ZM19.2891 93.7969H23.1562L21.2188 88.4766L19.2891 93.7969ZM29.2516 98H27.8062V86H29.2516V98ZM36.9406 98C36.8573 97.8333 36.7896 97.5365 36.7375 97.1094C36.0656 97.8073 35.2635 98.1562 34.3313 98.1562C33.4979 98.1562 32.813 97.9219 32.2766 97.4531C31.7453 96.9792 31.4797 96.3802 31.4797 95.6562C31.4797 94.776 31.813 94.0938 32.4797 93.6094C33.1516 93.1198 34.0943 92.875 35.3078 92.875H36.7141V92.2109C36.7141 91.7057 36.563 91.3047 36.2609 91.0078C35.9589 90.7057 35.5135 90.5547 34.925 90.5547C34.4094 90.5547 33.9771 90.6849 33.6281 90.9453C33.2792 91.2057 33.1047 91.5208 33.1047 91.8906H31.6516C31.6516 91.4688 31.8 91.0625 32.0969 90.6719C32.399 90.276 32.8052 89.9635 33.3156 89.7344C33.8313 89.5052 34.3964 89.3906 35.0109 89.3906C35.9849 89.3906 36.7479 89.6354 37.3 90.125C37.8521 90.6094 38.1385 91.2786 38.1594 92.1328V96.0234C38.1594 96.7995 38.2583 97.4167 38.4563 97.875V98H36.9406ZM34.5422 96.8984C34.9953 96.8984 35.425 96.7812 35.8313 96.5469C36.2375 96.3125 36.5318 96.0078 36.7141 95.6328V93.8984H35.5813C33.8104 93.8984 32.925 94.4167 32.925 95.4531C32.925 95.9062 33.076 96.2604 33.3781 96.5156C33.6802 96.7708 34.0682 96.8984 34.5422 96.8984ZM41.9422 89.5469L41.9891 90.6094C42.6349 89.7969 43.4786 89.3906 44.5203 89.3906C46.3068 89.3906 47.2078 90.3984 47.2234 92.4141V98H45.7781V92.4062C45.7729 91.7969 45.6323 91.3464 45.3563 91.0547C45.0854 90.763 44.6609 90.6172 44.0828 90.6172C43.6141 90.6172 43.2026 90.7422 42.8484 90.9922C42.4943 91.2422 42.2182 91.5703 42.0203 91.9766V98H40.575V89.5469H41.9422Z" fill="black" fill-opacity="0.87"/>
<path d="M20.0879 114.563C18.9622 114.24 18.1419 113.843 17.627 113.374C17.1165 112.9 16.8613 112.317 16.8613 111.624C16.8613 110.84 17.1735 110.193 17.7979 109.683C18.4268 109.168 19.2425 108.91 20.2451 108.91C20.9287 108.91 21.5371 109.042 22.0703 109.307C22.6081 109.571 23.0228 109.936 23.3145 110.4C23.6107 110.865 23.7588 111.373 23.7588 111.925H22.4395C22.4395 111.323 22.248 110.852 21.8652 110.51C21.4824 110.163 20.9424 109.99 20.2451 109.99C19.598 109.99 19.0921 110.134 18.7275 110.421C18.3675 110.703 18.1875 111.098 18.1875 111.604C18.1875 112.009 18.3584 112.353 18.7002 112.636C19.0465 112.914 19.6322 113.169 20.457 113.401C21.2865 113.634 21.9336 113.891 22.3984 114.174C22.8678 114.452 23.2142 114.778 23.4375 115.151C23.6654 115.525 23.7793 115.965 23.7793 116.471C23.7793 117.277 23.4648 117.924 22.8359 118.412C22.207 118.895 21.3662 119.137 20.3135 119.137C19.6299 119.137 18.9919 119.007 18.3994 118.747C17.807 118.483 17.349 118.123 17.0254 117.667C16.7064 117.211 16.5469 116.694 16.5469 116.115H17.8662C17.8662 116.717 18.0872 117.193 18.5293 117.544C18.9759 117.89 19.5706 118.063 20.3135 118.063C21.0062 118.063 21.5371 117.922 21.9062 117.64C22.2754 117.357 22.46 116.972 22.46 116.484C22.46 115.997 22.2891 115.621 21.9473 115.356C21.6055 115.088 20.9857 114.823 20.0879 114.563ZM27.2354 109.812V111.604H28.6162V112.581H27.2354V117.168C27.2354 117.464 27.2969 117.688 27.4199 117.838C27.543 117.984 27.7526 118.057 28.0488 118.057C28.1947 118.057 28.3952 118.029 28.6504 117.975V119C28.3177 119.091 27.9941 119.137 27.6797 119.137C27.1146 119.137 26.6885 118.966 26.4014 118.624C26.1143 118.282 25.9707 117.797 25.9707 117.168V112.581H24.624V111.604H25.9707V109.812H27.2354ZM34.916 118.269C34.4238 118.847 33.7015 119.137 32.749 119.137C31.9606 119.137 31.359 118.909 30.9443 118.453C30.5342 117.993 30.3268 117.314 30.3223 116.416V111.604H31.5869V116.382C31.5869 117.503 32.0426 118.063 32.9541 118.063C33.9202 118.063 34.5628 117.703 34.8818 116.983V111.604H36.1465V119H34.9434L34.916 118.269ZM38.0166 115.24C38.0166 114.105 38.2855 113.194 38.8232 112.506C39.361 111.813 40.0651 111.467 40.9355 111.467C41.8014 111.467 42.4873 111.763 42.9932 112.355V108.5H44.2578V119H43.0957L43.0342 118.207C42.5283 118.827 41.8242 119.137 40.9219 119.137C40.0651 119.137 39.3656 118.786 38.8232 118.084C38.2855 117.382 38.0166 116.466 38.0166 115.336V115.24ZM39.2812 115.384C39.2812 116.222 39.4544 116.879 39.8008 117.353C40.1471 117.826 40.6257 118.063 41.2363 118.063C42.0384 118.063 42.624 117.703 42.9932 116.983V113.586C42.6149 112.889 42.0339 112.54 41.25 112.54C40.6302 112.54 40.1471 112.779 39.8008 113.258C39.4544 113.736 39.2812 114.445 39.2812 115.384ZM49.5459 119.137C48.5433 119.137 47.7275 118.809 47.0986 118.152C46.4697 117.492 46.1553 116.61 46.1553 115.507V115.274C46.1553 114.541 46.2943 113.887 46.5723 113.312C46.8548 112.734 47.2467 112.283 47.748 111.959C48.2539 111.631 48.8008 111.467 49.3887 111.467C50.3503 111.467 51.0977 111.784 51.6309 112.417C52.1641 113.05 52.4307 113.957 52.4307 115.138V115.664H47.4199C47.4382 116.393 47.6501 116.983 48.0557 117.435C48.4658 117.881 48.9854 118.104 49.6143 118.104C50.0609 118.104 50.4391 118.013 50.749 117.831C51.0589 117.649 51.3301 117.407 51.5625 117.106L52.335 117.708C51.7152 118.66 50.7855 119.137 49.5459 119.137ZM49.3887 112.506C48.8783 112.506 48.4499 112.693 48.1035 113.066C47.7572 113.436 47.543 113.955 47.4609 114.625H51.166V114.529C51.1296 113.887 50.9564 113.39 50.6465 113.039C50.3366 112.684 49.9173 112.506 49.3887 112.506ZM55.3467 111.604L55.3877 112.533C55.9528 111.822 56.6911 111.467 57.6025 111.467C59.1657 111.467 59.9541 112.349 59.9678 114.112V119H58.7031V114.105C58.6986 113.572 58.5755 113.178 58.334 112.923C58.097 112.668 57.7256 112.54 57.2197 112.54C56.8096 112.54 56.4495 112.649 56.1396 112.868C55.8298 113.087 55.5882 113.374 55.415 113.729V119H54.1504V111.604H55.3467ZM63.8408 109.812V111.604H65.2217V112.581H63.8408V117.168C63.8408 117.464 63.9023 117.688 64.0254 117.838C64.1484 117.984 64.3581 118.057 64.6543 118.057C64.8001 118.057 65.0007 118.029 65.2559 117.975V119C64.9232 119.091 64.5996 119.137 64.2852 119.137C63.7201 119.137 63.2939 118.966 63.0068 118.624C62.7197 118.282 62.5762 117.797 62.5762 117.168V112.581H61.2295V111.604H62.5762V109.812H63.8408Z" fill="black" fill-opacity="0.6"/>
<path fill-rule="evenodd" clip-rule="evenodd" d="M389 105H383V111H381V105H375V103H381V97H383V103H389V105Z" fill="black" fill-opacity="0.6"/>
<rect x="17.5111" y="135" width="376.489" height="1" fill="#212121" fill-opacity="0.08"/>
</g>
<mask id="mask1_730:5998" style="mask-type:alpha" maskUnits="userSpaceOnUse" x="0" y="232" width="394" height="64">
<rect y="232" width="394" height="64" fill="white"/>
</mask>
<g mask="url(#mask1_730:5998)">
<path d="M19.2578 246.625L22.9766 255.906L26.6953 246.625H28.6406V258H27.1406V253.57L27.2812 248.789L23.5469 258H22.3984L18.6719 248.812L18.8203 253.57V258H17.3203V246.625H19.2578ZM36.4312 258C36.3479 257.833 36.2802 257.536 36.2281 257.109C35.5562 257.807 34.7542 258.156 33.8219 258.156C32.9885 258.156 32.3036 257.922 31.7672 257.453C31.2359 256.979 30.9703 256.38 30.9703 255.656C30.9703 254.776 31.3036 254.094 31.9703 253.609C32.6422 253.12 33.5849 252.875 34.7984 252.875H36.2047V252.211C36.2047 251.706 36.0536 251.305 35.7516 251.008C35.4495 250.706 35.0042 250.555 34.4156 250.555C33.9 250.555 33.4677 250.685 33.1187 250.945C32.7698 251.206 32.5953 251.521 32.5953 251.891H31.1422C31.1422 251.469 31.2906 251.062 31.5875 250.672C31.8896 250.276 32.2958 249.964 32.8062 249.734C33.3219 249.505 33.887 249.391 34.5016 249.391C35.4755 249.391 36.2385 249.635 36.7906 250.125C37.3427 250.609 37.6292 251.279 37.65 252.133V256.023C37.65 256.799 37.749 257.417 37.9469 257.875V258H36.4312ZM34.0328 256.898C34.4859 256.898 34.9156 256.781 35.3219 256.547C35.7281 256.312 36.0224 256.008 36.2047 255.633V253.898H35.0719C33.301 253.898 32.4156 254.417 32.4156 255.453C32.4156 255.906 32.5667 256.26 32.8687 256.516C33.1708 256.771 33.5589 256.898 34.0328 256.898ZM44.1516 250.844C43.9328 250.807 43.6958 250.789 43.4406 250.789C42.4927 250.789 41.8495 251.193 41.5109 252V258H40.0656V249.547H41.4719L41.4953 250.523C41.9693 249.768 42.6411 249.391 43.5109 249.391C43.7922 249.391 44.0057 249.427 44.1516 249.5V250.844ZM48.5438 255.883L50.5125 249.547H52.0594L48.6609 259.305C48.1349 260.711 47.299 261.414 46.1531 261.414L45.8797 261.391L45.3406 261.289V260.117L45.7313 260.148C46.2208 260.148 46.601 260.049 46.8719 259.852C47.1479 259.654 47.3745 259.292 47.5516 258.766L47.8719 257.906L44.8563 249.547H46.4344L48.5438 255.883Z" fill="black" fill-opacity="0.87"/>
<path d="M20.0879 274.563C18.9622 274.24 18.1419 273.843 17.627 273.374C17.1165 272.9 16.8613 272.317 16.8613 271.624C16.8613 270.84 17.1735 270.193 17.7979 269.683C18.4268 269.168 19.2425 268.91 20.2451 268.91C20.9287 268.91 21.5371 269.042 22.0703 269.307C22.6081 269.571 23.0228 269.936 23.3145 270.4C23.6107 270.865 23.7588 271.373 23.7588 271.925H22.4395C22.4395 271.323 22.248 270.852 21.8652 270.51C21.4824 270.163 20.9424 269.99 20.2451 269.99C19.598 269.99 19.0921 270.134 18.7275 270.421C18.3675 270.703 18.1875 271.098 18.1875 271.604C18.1875 272.009 18.3584 272.353 18.7002 272.636C19.0465 272.914 19.6322 273.169 20.457 273.401C21.2865 273.634 21.9336 273.891 22.3984 274.174C22.8678 274.452 23.2142 274.778 23.4375 275.151C23.6654 275.525 23.7793 275.965 23.7793 276.471C23.7793 277.277 23.4648 277.924 22.8359 278.412C22.207 278.895 21.3662 279.137 20.3135 279.137C19.6299 279.137 18.9919 279.007 18.3994 278.747C17.807 278.483 17.349 278.123 17.0254 277.667C16.7064 277.211 16.5469 276.694 16.5469 276.115H17.8662C17.8662 276.717 18.0872 277.193 18.5293 277.544C18.9759 277.89 19.5706 278.063 20.3135 278.063C21.0062 278.063 21.5371 277.922 21.9062 277.64C22.2754 277.357 22.46 276.972 22.46 276.484C22.46 275.997 22.2891 275.621 21.9473 275.356C21.6055 275.088 20.9857 274.823 20.0879 274.563ZM27.2354 269.812V271.604H28.6162V272.581H27.2354V277.168C27.2354 277.464 27.2969 277.688 27.4199 277.838C27.543 277.984 27.7526 278.057 28.0488 278.057C28.1947 278.057 28.3952 278.029 28.6504 277.975V279C28.3177 279.091 27.9941 279.137 27.6797 279.137C27.1146 279.137 26.6885 278.966 26.4014 278.624C26.1143 278.282 25.9707 277.797 25.9707 277.168V272.581H24.624V271.604H25.9707V269.812H27.2354ZM34.916 278.269C34.4238 278.847 33.7015 279.137 32.749 279.137C31.9606 279.137 31.359 278.909 30.9443 278.453C30.5342 277.993 30.3268 277.314 30.3223 276.416V271.604H31.5869V276.382C31.5869 277.503 32.0426 278.063 32.9541 278.063C33.9202 278.063 34.5628 277.703 34.8818 276.983V271.604H36.1465V279H34.9434L34.916 278.269ZM38.0166 275.24C38.0166 274.105 38.2855 273.194 38.8232 272.506C39.361 271.813 40.0651 271.467 40.9355 271.467C41.8014 271.467 42.4873 271.763 42.9932 272.355V268.5H44.2578V279H43.0957L43.0342 278.207C42.5283 278.827 41.8242 279.137 40.9219 279.137C40.0651 279.137 39.3656 278.786 38.8232 278.084C38.2855 277.382 38.0166 276.466 38.0166 275.336V275.24ZM39.2812 275.384C39.2812 276.222 39.4544 276.879 39.8008 277.353C40.1471 277.826 40.6257 278.063 41.2363 278.063C42.0384 278.063 42.624 277.703 42.9932 276.983V273.586C42.6149 272.889 42.0339 272.54 41.25 272.54C40.6302 272.54 40.1471 272.779 39.8008 273.258C39.4544 273.736 39.2812 274.445 39.2812 275.384ZM49.5459 279.137C48.5433 279.137 47.7275 278.809 47.0986 278.152C46.4697 277.492 46.1553 276.61 46.1553 275.507V275.274C46.1553 274.541 46.2943 273.887 46.5723 273.312C46.8548 272.734 47.2467 272.283 47.748 271.959C48.2539 271.631 48.8008 271.467 49.3887 271.467C50.3503 271.467 51.0977 271.784 51.6309 272.417C52.1641 273.05 52.4307 273.957 52.4307 275.138V275.664H47.4199C47.4382 276.393 47.6501 276.983 48.0557 277.435C48.4658 277.881 48.9854 278.104 49.6143 278.104C50.0609 278.104 50.4391 278.013 50.749 277.831C51.0589 277.649 51.3301 277.407 51.5625 277.106L52.335 277.708C51.7152 278.66 50.7855 279.137 49.5459 279.137ZM49.3887 272.506C48.8783 272.506 48.4499 272.693 48.1035 273.066C47.7572 273.436 47.543 273.955 47.4609 274.625H51.166V274.529C51.1296 273.887 50.9564 273.39 50.6465 273.039C50.3366 272.684 49.9173 272.506 49.3887 272.506ZM55.3467 271.604L55.3877 272.533C55.9528 271.822 56.6911 271.467 57.6025 271.467C59.1657 271.467 59.9541 272.349 59.9678 274.112V279H58.7031V274.105C58.6986 273.572 58.5755 273.178 58.334 272.923C58.097 272.668 57.7256 272.54 57.2197 272.54C56.8096 272.54 56.4495 272.649 56.1396 272.868C55.8298 273.087 55.5882 273.374 55.415 273.729V279H54.1504V271.604H55.3467ZM63.8408 269.812V271.604H65.2217V272.581H63.8408V277.168C63.8408 277.464 63.9023 277.688 64.0254 277.838C64.1484 277.984 64.3581 278.057 64.6543 278.057C64.8001 278.057 65.0007 278.029 65.2559 277.975V279C64.9232 279.091 64.5996 279.137 64.2852 279.137C63.7201 279.137 63.2939 278.966 63.0068 278.624C62.7197 278.282 62.5762 277.797 62.5762 277.168V272.581H61.2295V271.604H62.5762V269.812H63.8408Z" fill="black" fill-opacity="0.6"/>
<path fill-rule="evenodd" clip-rule="evenodd" d="M389 265H383V271H381V265H375V263H381V257H383V263H389V265Z" fill="black" fill-opacity="0.6"/>
<rect x="17.5111" y="295" width="376.489" height="1" fill="#212121" fill-opacity="0.08"/>
</g>
<mask id="mask2_730:5998" style="mask-type:alpha" maskUnits="userSpaceOnUse" x="0" y="152" width="394" height="64">
<rect y="152" width="394" height="64" fill="white"/>
</mask>
<g mask="url(#mask2_730:5998)">
<path d="M19.2578 166.625L22.9766 175.906L26.6953 166.625H28.6406V178H27.1406V173.57L27.2812 168.789L23.5469 178H22.3984L18.6719 168.812L18.8203 173.57V178H17.3203V166.625H19.2578ZM36.4312 178C36.3479 177.833 36.2802 177.536 36.2281 177.109C35.5562 177.807 34.7542 178.156 33.8219 178.156C32.9885 178.156 32.3036 177.922 31.7672 177.453C31.2359 176.979 30.9703 176.38 30.9703 175.656C30.9703 174.776 31.3036 174.094 31.9703 173.609C32.6422 173.12 33.5849 172.875 34.7984 172.875H36.2047V172.211C36.2047 171.706 36.0536 171.305 35.7516 171.008C35.4495 170.706 35.0042 170.555 34.4156 170.555C33.9 170.555 33.4677 170.685 33.1187 170.945C32.7698 171.206 32.5953 171.521 32.5953 171.891H31.1422C31.1422 171.469 31.2906 171.062 31.5875 170.672C31.8896 170.276 32.2958 169.964 32.8062 169.734C33.3219 169.505 33.887 169.391 34.5016 169.391C35.4755 169.391 36.2385 169.635 36.7906 170.125C37.3427 170.609 37.6292 171.279 37.65 172.133V176.023C37.65 176.799 37.749 177.417 37.9469 177.875V178H36.4312ZM34.0328 176.898C34.4859 176.898 34.9156 176.781 35.3219 176.547C35.7281 176.312 36.0224 176.008 36.2047 175.633V173.898H35.0719C33.301 173.898 32.4156 174.417 32.4156 175.453C32.4156 175.906 32.5667 176.26 32.8687 176.516C33.1708 176.771 33.5589 176.898 34.0328 176.898ZM44.1516 170.844C43.9328 170.807 43.6958 170.789 43.4406 170.789C42.4927 170.789 41.8495 171.193 41.5109 172V178H40.0656V169.547H41.4719L41.4953 170.523C41.9693 169.768 42.6411 169.391 43.5109 169.391C43.7922 169.391 44.0057 169.427 44.1516 169.5V170.844ZM47.2078 178H45.7625V169.547H47.2078V178ZM45.6453 167.305C45.6453 167.07 45.7156 166.872 45.8563 166.711C46.0021 166.549 46.2156 166.469 46.4969 166.469C46.7781 166.469 46.9917 166.549 47.1375 166.711C47.2833 166.872 47.3563 167.07 47.3563 167.305C47.3563 167.539 47.2833 167.734 47.1375 167.891C46.9917 168.047 46.7781 168.125 46.4969 168.125C46.2156 168.125 46.0021 168.047 45.8563 167.891C45.7156 167.734 45.6453 167.539 45.6453 167.305ZM54.8969 178C54.8135 177.833 54.7458 177.536 54.6937 177.109C54.0219 177.807 53.2198 178.156 52.2875 178.156C51.4542 178.156 50.7693 177.922 50.2328 177.453C49.7016 176.979 49.4359 176.38 49.4359 175.656C49.4359 174.776 49.7693 174.094 50.4359 173.609C51.1078 173.12 52.0505 172.875 53.2641 172.875H54.6703V172.211C54.6703 171.706 54.5193 171.305 54.2172 171.008C53.9151 170.706 53.4698 170.555 52.8812 170.555C52.3656 170.555 51.9333 170.685 51.5844 170.945C51.2354 171.206 51.0609 171.521 51.0609 171.891H49.6078C49.6078 171.469 49.7562 171.062 50.0531 170.672C50.3552 170.276 50.7615 169.964 51.2719 169.734C51.7875 169.505 52.3526 169.391 52.9672 169.391C53.9411 169.391 54.7042 169.635 55.2562 170.125C55.8083 170.609 56.0948 171.279 56.1156 172.133V176.023C56.1156 176.799 56.2146 177.417 56.4125 177.875V178H54.8969ZM52.4984 176.898C52.9516 176.898 53.3812 176.781 53.7875 176.547C54.1937 176.312 54.488 176.008 54.6703 175.633V173.898H53.5375C51.7667 173.898 50.8812 174.417 50.8812 175.453C50.8812 175.906 51.0323 176.26 51.3344 176.516C51.6365 176.771 52.0245 176.898 52.4984 176.898Z" fill="black" fill-opacity="0.87"/>
<path d="M20.0879 194.563C18.9622 194.24 18.1419 193.843 17.627 193.374C17.1165 192.9 16.8613 192.317 16.8613 191.624C16.8613 190.84 17.1735 190.193 17.7979 189.683C18.4268 189.168 19.2425 188.91 20.2451 188.91C20.9287 188.91 21.5371 189.042 22.0703 189.307C22.6081 189.571 23.0228 189.936 23.3145 190.4C23.6107 190.865 23.7588 191.373 23.7588 191.925H22.4395C22.4395 191.323 22.248 190.852 21.8652 190.51C21.4824 190.163 20.9424 189.99 20.2451 189.99C19.598 189.99 19.0921 190.134 18.7275 190.421C18.3675 190.703 18.1875 191.098 18.1875 191.604C18.1875 192.009 18.3584 192.353 18.7002 192.636C19.0465 192.914 19.6322 193.169 20.457 193.401C21.2865 193.634 21.9336 193.891 22.3984 194.174C22.8678 194.452 23.2142 194.778 23.4375 195.151C23.6654 195.525 23.7793 195.965 23.7793 196.471C23.7793 197.277 23.4648 197.924 22.8359 198.412C22.207 198.895 21.3662 199.137 20.3135 199.137C19.6299 199.137 18.9919 199.007 18.3994 198.747C17.807 198.483 17.349 198.123 17.0254 197.667C16.7064 197.211 16.5469 196.694 16.5469 196.115H17.8662C17.8662 196.717 18.0872 197.193 18.5293 197.544C18.9759 197.89 19.5706 198.063 20.3135 198.063C21.0062 198.063 21.5371 197.922 21.9062 197.64C22.2754 197.357 22.46 196.972 22.46 196.484C22.46 195.997 22.2891 195.621 21.9473 195.356C21.6055 195.088 20.9857 194.823 20.0879 194.563ZM27.2354 189.812V191.604H28.6162V192.581H27.2354V197.168C27.2354 197.464 27.2969 197.688 27.4199 197.838C27.543 197.984 27.7526 198.057 28.0488 198.057C28.1947 198.057 28.3952 198.029 28.6504 197.975V199C28.3177 199.091 27.9941 199.137 27.6797 199.137C27.1146 199.137 26.6885 198.966 26.4014 198.624C26.1143 198.282 25.9707 197.797 25.9707 197.168V192.581H24.624V191.604H25.9707V189.812H27.2354ZM34.916 198.269C34.4238 198.847 33.7015 199.137 32.749 199.137C31.9606 199.137 31.359 198.909 30.9443 198.453C30.5342 197.993 30.3268 197.314 30.3223 196.416V191.604H31.5869V196.382C31.5869 197.503 32.0426 198.063 32.9541 198.063C33.9202 198.063 34.5628 197.703 34.8818 196.983V191.604H36.1465V199H34.9434L34.916 198.269ZM38.0166 195.24C38.0166 194.105 38.2855 193.194 38.8232 192.506C39.361 191.813 40.0651 191.467 40.9355 191.467C41.8014 191.467 42.4873 191.763 42.9932 192.355V188.5H44.2578V199H43.0957L43.0342 198.207C42.5283 198.827 41.8242 199.137 40.9219 199.137C40.0651 199.137 39.3656 198.786 38.8232 198.084C38.2855 197.382 38.0166 196.466 38.0166 195.336V195.24ZM39.2812 195.384C39.2812 196.222 39.4544 196.879 39.8008 197.353C40.1471 197.826 40.6257 198.063 41.2363 198.063C42.0384 198.063 42.624 197.703 42.9932 196.983V193.586C42.6149 192.889 42.0339 192.54 41.25 192.54C40.6302 192.54 40.1471 192.779 39.8008 193.258C39.4544 193.736 39.2812 194.445 39.2812 195.384ZM49.5459 199.137C48.5433 199.137 47.7275 198.809 47.0986 198.152C46.4697 197.492 46.1553 196.61 46.1553 195.507V195.274C46.1553 194.541 46.2943 193.887 46.5723 193.312C46.8548 192.734 47.2467 192.283 47.748 191.959C48.2539 191.631 48.8008 191.467 49.3887 191.467C50.3503 191.467 51.0977 191.784 51.6309 192.417C52.1641 193.05 52.4307 193.957 52.4307 195.138V195.664H47.4199C47.4382 196.393 47.6501 196.983 48.0557 197.435C48.4658 197.881 48.9854 198.104 49.6143 198.104C50.0609 198.104 50.4391 198.013 50.749 197.831C51.0589 197.649 51.3301 197.407 51.5625 197.106L52.335 197.708C51.7152 198.66 50.7855 199.137 49.5459 199.137ZM49.3887 192.506C48.8783 192.506 48.4499 192.693 48.1035 193.066C47.7572 193.436 47.543 193.955 47.4609 194.625H51.166V194.529C51.1296 193.887 50.9564 193.39 50.6465 193.039C50.3366 192.684 49.9173 192.506 49.3887 192.506ZM55.3467 191.604L55.3877 192.533C55.9528 191.822 56.6911 191.467 57.6025 191.467C59.1657 191.467 59.9541 192.349 59.9678 194.112V199H58.7031V194.105C58.6986 193.572 58.5755 193.178 58.334 192.923C58.097 192.668 57.7256 192.54 57.2197 192.54C56.8096 192.54 56.4495 192.649 56.1396 192.868C55.8298 193.087 55.5882 193.374 55.415 193.729V199H54.1504V191.604H55.3467ZM63.8408 189.812V191.604H65.2217V192.581H63.8408V197.168C63.8408 197.464 63.9023 197.688 64.0254 197.838C64.1484 197.984 64.3581 198.057 64.6543 198.057C64.8001 198.057 65.0007 198.029 65.2559 197.975V199C64.9232 199.091 64.5996 199.137 64.2852 199.137C63.7201 199.137 63.2939 198.966 63.0068 198.624C62.7197 198.282 62.5762 197.797 62.5762 197.168V192.581H61.2295V191.604H62.5762V189.812H63.8408Z" fill="black" fill-opacity="0.6"/>
<path fill-rule="evenodd" clip-rule="evenodd" d="M389 185H383V191H381V185H375V183H381V177H383V183H389V185Z" fill="black" fill-opacity="0.6"/>
<rect x="17.5111" y="215" width="376.489" height="1" fill="#212121" fill-opacity="0.08"/>
</g>
</g>
<defs>
<filter id="filter0_ddd_730:5998" x="-10" y="-9" width="431" height="76" filterUnits="userSpaceOnUse" color-interpolation-filters="sRGB">
<feFlood flood-opacity="0" result="BackgroundImageFix"/>
<feColorMatrix in="SourceAlpha" type="matrix" values="0 0 0 0 0 0 0 0 0 0 0 0 0 0 0 0 0 0 127 0" result="hardAlpha"/>
<feOffset dy="2"/>
<feGaussianBlur stdDeviation="2"/>
<feColorMatrix type="matrix" values="0 0 0 0 0 0 0 0 0 0 0 0 0 0 0 0 0 0 0.2 0"/>
<feBlend mode="normal" in2="BackgroundImageFix" result="effect1_dropShadow_730:5998"/>
<feColorMatrix in="SourceAlpha" type="matrix" values="0 0 0 0 0 0 0 0 0 0 0 0 0 0 0 0 0 0 127 0" result="hardAlpha"/>
<feOffset dy="1"/>
<feGaussianBlur stdDeviation="5"/>
<feColorMatrix type="matrix" values="0 0 0 0 0 0 0 0 0 0 0 0 0 0 0 0 0 0 0.12 0"/>
<feBlend mode="normal" in2="effect1_dropShadow_730:5998" result="effect2_dropShadow_730:5998"/>
<feColorMatrix in="SourceAlpha" type="matrix" values="0 0 0 0 0 0 0 0 0 0 0 0 0 0 0 0 0 0 127 0" result="hardAlpha"/>
<feOffset dy="4"/>
<feGaussianBlur stdDeviation="2.5"/>
<feColorMatrix type="matrix" values="0 0 0 0 0 0 0 0 0 0 0 0 0 0 0 0 0 0 0.14 0"/>
<feBlend mode="normal" in2="effect2_dropShadow_730:5998" result="effect3_dropShadow_730:5998"/>
<feBlend mode="normal" in="SourceGraphic" in2="effect3_dropShadow_730:5998" result="shape"/>
</filter>
<clipPath id="clip0_730:5998">
<rect width="411" height="731" fill="white"/>
</clipPath>
</defs>
</svg>
