<svg width="411" height="731" viewBox="0 0 411 731" fill="none" xmlns="http://www.w3.org/2000/svg">
<rect width="411" height="731" fill="#F1F1F1"/>
<g clip-path="url(#clip0)">
<rect width="411" height="731" fill="white"/>
<g filter="url(#filter0_ddd)">
<rect width="411" height="56" fill="#6200EE"/>
<path fill-rule="evenodd" clip-rule="evenodd" d="M386.5 30H385.71L385.43 29.73C386.41 28.59 387 27.11 387 25.5C387 21.91 384.09 19 380.5 19C376.91 19 374 21.91 374 25.5C374 29.09 376.91 32 380.5 32C382.11 32 383.59 31.41 384.73 30.43L385 30.71V31.5L390 36.49L391.49 35L386.5 30ZM380.5 30C378.01 30 376 27.99 376 25.5C376 23.01 378.01 21 380.5 21C382.99 21 385 23.01 385 25.5C385 27.99 382.99 30 380.5 30Z" fill="white" fill-opacity="0.74"/>
<path fill-rule="evenodd" clip-rule="evenodd" d="M31.41 23.41L30 22L24 28L30 34L31.41 32.59L26.83 28L31.41 23.41Z" fill="white" fill-opacity="0.74"/>
<path d="M49 12C49 9.79086 50.7909 8 53 8H353C355.209 8 357 9.79086 357 12V48H49V12Z" fill="#212121" fill-opacity="0.08"/>
<path d="M74.3281 21.625V29.3594C74.3229 30.4323 73.9844 31.3099 73.3125 31.9922C72.6458 32.6745 71.7396 33.0573 70.5938 33.1406L70.1953 33.1562C68.9505 33.1562 67.9583 32.8203 67.2188 32.1484C66.4792 31.4766 66.1042 30.5521 66.0938 29.375V21.625H67.5781V29.3281C67.5781 30.151 67.8047 30.7917 68.2578 31.25C68.7109 31.7031 69.3568 31.9297 70.1953 31.9297C71.0443 31.9297 71.6927 31.7031 72.1406 31.25C72.5938 30.7969 72.8203 30.1589 72.8203 29.3359V21.625H74.3281ZM81.5406 30.7578C81.5406 30.3672 81.3922 30.0651 81.0953 29.8516C80.8036 29.6328 80.2906 29.4453 79.5562 29.2891C78.8271 29.1328 78.2464 28.9453 77.8141 28.7266C77.387 28.5078 77.0693 28.2474 76.8609 27.9453C76.6578 27.6432 76.5562 27.2839 76.5562 26.8672C76.5562 26.1745 76.8479 25.5885 77.4312 25.1094C78.0198 24.6302 78.7698 24.3906 79.6812 24.3906C80.6396 24.3906 81.4156 24.638 82.0094 25.1328C82.6083 25.6276 82.9078 26.2604 82.9078 27.0312H81.4547C81.4547 26.6354 81.2854 26.2943 80.9469 26.0078C80.6135 25.7214 80.1917 25.5781 79.6812 25.5781C79.1552 25.5781 78.7437 25.6927 78.4469 25.9219C78.15 26.151 78.0016 26.4505 78.0016 26.8203C78.0016 27.1693 78.1396 27.4323 78.4156 27.6094C78.6917 27.7865 79.1891 27.9557 79.9078 28.1172C80.6318 28.2786 81.2177 28.4714 81.6656 28.6953C82.1135 28.9193 82.4443 29.1901 82.6578 29.5078C82.8766 29.8203 82.9859 30.2031 82.9859 30.6562C82.9859 31.4115 82.6839 32.0182 82.0797 32.4766C81.4755 32.9297 80.6917 33.1562 79.7281 33.1562C79.051 33.1562 78.4521 33.0365 77.9312 32.7969C77.4104 32.5573 77.0016 32.224 76.7047 31.7969C76.413 31.3646 76.2672 30.8984 76.2672 30.3984H77.7125C77.7385 30.8828 77.9312 31.2682 78.2906 31.5547C78.6552 31.8359 79.1344 31.9766 79.7281 31.9766C80.275 31.9766 80.7125 31.8672 81.0406 31.6484C81.374 31.4245 81.5406 31.1276 81.5406 30.7578ZM88.5266 33.1562C87.3807 33.1562 86.4484 32.7812 85.7297 32.0312C85.0109 31.276 84.6516 30.2682 84.6516 29.0078V28.7422C84.6516 27.9036 84.8104 27.1562 85.1281 26.5C85.451 25.8385 85.899 25.3229 86.4719 24.9531C87.05 24.5781 87.675 24.3906 88.3469 24.3906C89.4458 24.3906 90.3 24.7526 90.9094 25.4766C91.5187 26.2005 91.8234 27.237 91.8234 28.5859V29.1875H86.0969C86.1177 30.0208 86.3599 30.6953 86.8234 31.2109C87.2922 31.7214 87.8859 31.9766 88.6047 31.9766C89.1151 31.9766 89.5474 31.8724 89.9016 31.6641C90.2557 31.4557 90.5656 31.1797 90.8312 30.8359L91.7141 31.5234C91.0057 32.612 89.9432 33.1562 88.5266 33.1562ZM88.3469 25.5781C87.7635 25.5781 87.274 25.7917 86.8781 26.2188C86.4823 26.6406 86.2375 27.2344 86.1437 28H90.3781V27.8906C90.3365 27.1562 90.1385 26.5885 89.7844 26.1875C89.4302 25.7812 88.951 25.5781 88.3469 25.5781ZM97.7391 25.8438C97.5203 25.8073 97.2833 25.7891 97.0281 25.7891C96.0802 25.7891 95.437 26.1927 95.0984 27V33H93.6531V24.5469H95.0594L95.0828 25.5234C95.5568 24.7682 96.2286 24.3906 97.0984 24.3906C97.3797 24.3906 97.5932 24.4271 97.7391 24.5V25.8438ZM107.945 33H106.492V23.3672L103.578 24.4375V23.125L107.719 21.5703H107.945V33Z" fill="white"/>
<rect x="116" y="19.5" width="1" height="17" fill="#6200EE"/>
<rect x="49" y="48" width="308" height="1" fill="#6200EE"/>
</g>
<mask id="mask0" style="mask-type:alpha" maskUnits="userSpaceOnUse" x="0" y="72" width="394" height="64">
<rect y="72" width="394" height="64" fill="white"/>
</mask>
<g mask="url(#mask0)">
<path d="M25.3281 86.625V94.3594C25.3229 95.4323 24.9844 96.3099 24.3125 96.9922C23.6458 97.6745 22.7396 98.0573 21.5938 98.1406L21.1953 98.1562C19.9505 98.1562 18.9583 97.8203 18.2188 97.1484C17.4792 96.4766 17.1042 95.5521 17.0938 94.375V86.625H18.5781V94.3281C18.5781 95.151 18.8047 95.7917 19.2578 96.25C19.7109 96.7031 20.3568 96.9297 21.1953 96.9297C22.0443 96.9297 22.6927 96.7031 23.1406 96.25C23.5938 95.7969 23.8203 95.1589 23.8203 94.3359V86.625H25.3281ZM32.5406 95.7578C32.5406 95.3672 32.3922 95.0651 32.0953 94.8516C31.8036 94.6328 31.2906 94.4453 30.5562 94.2891C29.8271 94.1328 29.2464 93.9453 28.8141 93.7266C28.387 93.5078 28.0693 93.2474 27.8609 92.9453C27.6578 92.6432 27.5562 92.2839 27.5562 91.8672C27.5562 91.1745 27.8479 90.5885 28.4312 90.1094C29.0198 89.6302 29.7698 89.3906 30.6812 89.3906C31.6396 89.3906 32.4156 89.638 33.0094 90.1328C33.6083 90.6276 33.9078 91.2604 33.9078 92.0312H32.4547C32.4547 91.6354 32.2854 91.2943 31.9469 91.0078C31.6135 90.7214 31.1917 90.5781 30.6812 90.5781C30.1552 90.5781 29.7437 90.6927 29.4469 90.9219C29.15 91.151 29.0016 91.4505 29.0016 91.8203C29.0016 92.1693 29.1396 92.4323 29.4156 92.6094C29.6917 92.7865 30.1891 92.9557 30.9078 93.1172C31.6318 93.2786 32.2177 93.4714 32.6656 93.6953C33.1135 93.9193 33.4443 94.1901 33.6578 94.5078C33.8766 94.8203 33.9859 95.2031 33.9859 95.6562C33.9859 96.4115 33.6839 97.0182 33.0797 97.4766C32.4755 97.9297 31.6917 98.1562 30.7281 98.1562C30.051 98.1562 29.4521 98.0365 28.9312 97.7969C28.4104 97.5573 28.0016 97.224 27.7047 96.7969C27.413 96.3646 27.2672 95.8984 27.2672 95.3984H28.7125C28.7385 95.8828 28.9312 96.2682 29.2906 96.5547C29.6552 96.8359 30.1344 96.9766 30.7281 96.9766C31.275 96.9766 31.7125 96.8672 32.0406 96.6484C32.374 96.4245 32.5406 96.1276 32.5406 95.7578ZM39.5266 98.1562C38.3807 98.1562 37.4484 97.7812 36.7297 97.0312C36.0109 96.276 35.6516 95.2682 35.6516 94.0078V93.7422C35.6516 92.9036 35.8104 92.1562 36.1281 91.5C36.451 90.8385 36.899 90.3229 37.4719 89.9531C38.05 89.5781 38.675 89.3906 39.3469 89.3906C40.4458 89.3906 41.3 89.7526 41.9094 90.4766C42.5187 91.2005 42.8234 92.237 42.8234 93.5859V94.1875H37.0969C37.1177 95.0208 37.3599 95.6953 37.8234 96.2109C38.2922 96.7214 38.8859 96.9766 39.6047 96.9766C40.1151 96.9766 40.5474 96.8724 40.9016 96.6641C41.2557 96.4557 41.5656 96.1797 41.8312 95.8359L42.7141 96.5234C42.0057 97.612 40.9432 98.1562 39.5266 98.1562ZM39.3469 90.5781C38.7635 90.5781 38.274 90.7917 37.8781 91.2188C37.4823 91.6406 37.2375 92.2344 37.1437 93H41.3781V92.8906C41.3365 92.1562 41.1385 91.5885 40.7844 91.1875C40.4302 90.7812 39.951 90.5781 39.3469 90.5781ZM48.7391 90.8438C48.5203 90.8073 48.2833 90.7891 48.0281 90.7891C47.0802 90.7891 46.437 91.1927 46.0984 92V98H44.6531V89.5469H46.0594L46.0828 90.5234C46.5568 89.7682 47.2286 89.3906 48.0984 89.3906C48.3797 89.3906 48.5932 89.4271 48.7391 89.5V90.8438ZM58.9453 98H57.4922V88.3672L54.5781 89.4375V88.125L58.7188 86.5703H58.9453V98Z" fill="black" fill-opacity="0.87"/>
<path d="M24.1621 109.047V115.814C24.1576 116.753 23.8613 117.521 23.2734 118.118C22.6901 118.715 21.8971 119.05 20.8945 119.123L20.5459 119.137C19.4567 119.137 18.5885 118.843 17.9414 118.255C17.2943 117.667 16.9661 116.858 16.957 115.828V109.047H18.2559V115.787C18.2559 116.507 18.4541 117.068 18.8506 117.469C19.2471 117.865 19.8122 118.063 20.5459 118.063C21.2887 118.063 21.8561 117.865 22.248 117.469C22.6445 117.072 22.8428 116.514 22.8428 115.794V109.047H24.1621ZM30.5918 117.038C30.5918 116.696 30.4619 116.432 30.2021 116.245C29.9469 116.054 29.498 115.89 28.8555 115.753C28.2174 115.616 27.7093 115.452 27.3311 115.261C26.9574 115.069 26.6794 114.841 26.4971 114.577C26.3193 114.313 26.2305 113.998 26.2305 113.634C26.2305 113.028 26.4857 112.515 26.9961 112.096C27.5111 111.676 28.1673 111.467 28.9648 111.467C29.8034 111.467 30.4824 111.683 31.002 112.116C31.526 112.549 31.7881 113.103 31.7881 113.777H30.5166C30.5166 113.431 30.3685 113.132 30.0723 112.882C29.7806 112.631 29.4115 112.506 28.9648 112.506C28.5046 112.506 28.1445 112.606 27.8848 112.807C27.625 113.007 27.4951 113.269 27.4951 113.593C27.4951 113.898 27.6159 114.128 27.8574 114.283C28.099 114.438 28.5342 114.586 29.1631 114.728C29.7965 114.869 30.3092 115.037 30.7012 115.233C31.0931 115.429 31.3825 115.666 31.5693 115.944C31.7607 116.218 31.8564 116.553 31.8564 116.949C31.8564 117.61 31.5921 118.141 31.0635 118.542C30.5348 118.938 29.849 119.137 29.0059 119.137C28.4134 119.137 27.8893 119.032 27.4336 118.822C26.9779 118.613 26.6201 118.321 26.3604 117.947C26.1051 117.569 25.9775 117.161 25.9775 116.724H27.2422C27.265 117.147 27.4336 117.485 27.748 117.735C28.0671 117.981 28.4863 118.104 29.0059 118.104C29.4844 118.104 29.8672 118.009 30.1543 117.817C30.446 117.621 30.5918 117.362 30.5918 117.038ZM36.8232 119.137C35.8206 119.137 35.0049 118.809 34.376 118.152C33.7471 117.492 33.4326 116.61 33.4326 115.507V115.274C33.4326 114.541 33.5716 113.887 33.8496 113.312C34.1322 112.734 34.5241 112.283 35.0254 111.959C35.5312 111.631 36.0781 111.467 36.666 111.467C37.6276 111.467 38.375 111.784 38.9082 112.417C39.4414 113.05 39.708 113.957 39.708 115.138V115.664H34.6973C34.7155 116.393 34.9274 116.983 35.333 117.435C35.7432 117.881 36.2627 118.104 36.8916 118.104C37.3382 118.104 37.7165 118.013 38.0264 117.831C38.3363 117.649 38.6074 117.407 38.8398 117.106L39.6123 117.708C38.9925 118.66 38.0628 119.137 36.8232 119.137ZM36.666 112.506C36.1556 112.506 35.7272 112.693 35.3809 113.066C35.0345 113.436 34.8203 113.955 34.7383 114.625H38.4434V114.529C38.4069 113.887 38.2337 113.39 37.9238 113.039C37.6139 112.684 37.1947 112.506 36.666 112.506ZM45.0029 112.738C44.8115 112.706 44.6042 112.69 44.3809 112.69C43.5514 112.69 42.9886 113.044 42.6924 113.75V119H41.4277V111.604H42.6582L42.6787 112.458C43.0934 111.797 43.6813 111.467 44.4424 111.467C44.6885 111.467 44.8753 111.499 45.0029 111.562V112.738ZM49.8369 115.24C49.8369 114.105 50.1058 113.194 50.6436 112.506C51.1813 111.813 51.8854 111.467 52.7559 111.467C53.6217 111.467 54.3076 111.763 54.8135 112.355V108.5H56.0781V119H54.916L54.8545 118.207C54.3486 118.827 53.6445 119.137 52.7422 119.137C51.8854 119.137 51.1859 118.786 50.6436 118.084C50.1058 117.382 49.8369 116.466 49.8369 115.336V115.24ZM51.1016 115.384C51.1016 116.222 51.2747 116.879 51.6211 117.353C51.9674 117.826 52.446 118.063 53.0566 118.063C53.8587 118.063 54.4443 117.703 54.8135 116.983V113.586C54.4352 112.889 53.8542 112.54 53.0703 112.54C52.4505 112.54 51.9674 112.779 51.6211 113.258C51.2747 113.736 51.1016 114.445 51.1016 115.384ZM61.3662 119.137C60.3636 119.137 59.5479 118.809 58.9189 118.152C58.29 117.492 57.9756 116.61 57.9756 115.507V115.274C57.9756 114.541 58.1146 113.887 58.3926 113.312C58.6751 112.734 59.0671 112.283 59.5684 111.959C60.0742 111.631 60.6211 111.467 61.209 111.467C62.1706 111.467 62.918 111.784 63.4512 112.417C63.9844 113.05 64.251 113.957 64.251 115.138V115.664H59.2402C59.2585 116.393 59.4704 116.983 59.876 117.435C60.2861 117.881 60.8057 118.104 61.4346 118.104C61.8812 118.104 62.2594 118.013 62.5693 117.831C62.8792 117.649 63.1504 117.407 63.3828 117.106L64.1553 117.708C63.5355 118.66 62.6058 119.137 61.3662 119.137ZM61.209 112.506C60.6986 112.506 60.2702 112.693 59.9238 113.066C59.5775 113.436 59.3633 113.955 59.2812 114.625H62.9863V114.529C62.9499 113.887 62.7767 113.39 62.4668 113.039C62.1569 112.684 61.7376 112.506 61.209 112.506ZM70.2773 117.038C70.2773 116.696 70.1475 116.432 69.8877 116.245C69.6325 116.054 69.1836 115.89 68.541 115.753C67.903 115.616 67.3949 115.452 67.0166 115.261C66.6429 115.069 66.3649 114.841 66.1826 114.577C66.0049 114.313 65.916 113.998 65.916 113.634C65.916 113.028 66.1712 112.515 66.6816 112.096C67.1966 111.676 67.8529 111.467 68.6504 111.467C69.4889 111.467 70.168 111.683 70.6875 112.116C71.2116 112.549 71.4736 113.103 71.4736 113.777H70.2021C70.2021 113.431 70.054 113.132 69.7578 112.882C69.4661 112.631 69.097 112.506 68.6504 112.506C68.1901 112.506 67.8301 112.606 67.5703 112.807C67.3105 113.007 67.1807 113.269 67.1807 113.593C67.1807 113.898 67.3014 114.128 67.543 114.283C67.7845 114.438 68.2197 114.586 68.8486 114.728C69.4821 114.869 69.9948 115.037 70.3867 115.233C70.7786 115.429 71.068 115.666 71.2549 115.944C71.4463 116.218 71.542 116.553 71.542 116.949C71.542 117.61 71.2777 118.141 70.749 118.542C70.2204 118.938 69.5345 119.137 68.6914 119.137C68.099 119.137 67.5749 119.032 67.1191 118.822C66.6634 118.613 66.3057 118.321 66.0459 117.947C65.7907 117.569 65.6631 117.161 65.6631 116.724H66.9277C66.9505 117.147 67.1191 117.485 67.4336 117.735C67.7526 117.981 68.1719 118.104 68.6914 118.104C69.1699 118.104 69.5527 118.009 69.8398 117.817C70.1315 117.621 70.2773 117.362 70.2773 117.038ZM76.4062 118.104C76.8574 118.104 77.2516 117.968 77.5889 117.694C77.9261 117.421 78.113 117.079 78.1494 116.669H79.3457C79.3229 117.093 79.1771 117.496 78.9082 117.879C78.6393 118.262 78.2793 118.567 77.8281 118.795C77.3815 119.023 76.9076 119.137 76.4062 119.137C75.3991 119.137 74.597 118.802 74 118.132C73.4076 117.457 73.1113 116.537 73.1113 115.37V115.158C73.1113 114.438 73.2435 113.798 73.5078 113.237C73.7721 112.677 74.1504 112.242 74.6426 111.932C75.1393 111.622 75.7249 111.467 76.3994 111.467C77.2288 111.467 77.917 111.715 78.4639 112.212C79.0153 112.709 79.3092 113.354 79.3457 114.146H78.1494C78.113 113.668 77.9307 113.276 77.6025 112.971C77.279 112.661 76.8779 112.506 76.3994 112.506C75.7568 112.506 75.2578 112.738 74.9023 113.203C74.5514 113.663 74.376 114.331 74.376 115.206V115.445C74.376 116.298 74.5514 116.954 74.9023 117.414C75.2533 117.874 75.7546 118.104 76.4062 118.104ZM84.5928 112.738C84.4014 112.706 84.194 112.69 83.9707 112.69C83.1413 112.69 82.5785 113.044 82.2822 113.75V119H81.0176V111.604H82.248L82.2686 112.458C82.6833 111.797 83.2712 111.467 84.0322 111.467C84.2783 111.467 84.4652 111.499 84.5928 111.562V112.738ZM87.3857 119H86.1211V111.604H87.3857V119ZM86.0186 109.642C86.0186 109.437 86.0801 109.263 86.2031 109.122C86.3307 108.981 86.5176 108.91 86.7637 108.91C87.0098 108.91 87.1966 108.981 87.3242 109.122C87.4518 109.263 87.5156 109.437 87.5156 109.642C87.5156 109.847 87.4518 110.018 87.3242 110.154C87.1966 110.291 87.0098 110.359 86.7637 110.359C86.5176 110.359 86.3307 110.291 86.2031 110.154C86.0801 110.018 86.0186 109.847 86.0186 109.642ZM95.9141 115.384C95.9141 116.509 95.6566 117.416 95.1416 118.104C94.6266 118.793 93.9294 119.137 93.0498 119.137C92.152 119.137 91.4456 118.852 90.9307 118.282V121.844H89.666V111.604H90.8213L90.8828 112.424C91.3978 111.786 92.1133 111.467 93.0293 111.467C93.918 111.467 94.6198 111.802 95.1348 112.472C95.6543 113.142 95.9141 114.074 95.9141 115.268V115.384ZM94.6494 115.24C94.6494 114.406 94.4717 113.748 94.1162 113.265C93.7607 112.782 93.2731 112.54 92.6533 112.54C91.8877 112.54 91.3135 112.88 90.9307 113.559V117.093C91.3089 117.767 91.8877 118.104 92.667 118.104C93.2731 118.104 93.7539 117.865 94.1094 117.387C94.4694 116.904 94.6494 116.188 94.6494 115.24ZM99.4932 109.812V111.604H100.874V112.581H99.4932V117.168C99.4932 117.464 99.5547 117.688 99.6777 117.838C99.8008 117.984 100.01 118.057 100.307 118.057C100.452 118.057 100.653 118.029 100.908 117.975V119C100.576 119.091 100.252 119.137 99.9375 119.137C99.3724 119.137 98.9463 118.966 98.6592 118.624C98.3721 118.282 98.2285 117.797 98.2285 117.168V112.581H96.8818V111.604H98.2285V109.812H99.4932ZM103.981 119H102.717V111.604H103.981V119ZM102.614 109.642C102.614 109.437 102.676 109.263 102.799 109.122C102.926 108.981 103.113 108.91 103.359 108.91C103.605 108.91 103.792 108.981 103.92 109.122C104.048 109.263 104.111 109.437 104.111 109.642C104.111 109.847 104.048 110.018 103.92 110.154C103.792 110.291 103.605 110.359 103.359 110.359C103.113 110.359 102.926 110.291 102.799 110.154C102.676 110.018 102.614 109.847 102.614 109.642ZM105.927 115.233C105.927 114.509 106.068 113.857 106.351 113.278C106.638 112.7 107.034 112.253 107.54 111.938C108.05 111.624 108.632 111.467 109.283 111.467C110.29 111.467 111.104 111.815 111.724 112.513C112.348 113.21 112.66 114.137 112.66 115.295V115.384C112.66 116.104 112.521 116.751 112.243 117.325C111.97 117.895 111.576 118.339 111.061 118.658C110.55 118.977 109.962 119.137 109.297 119.137C108.294 119.137 107.481 118.788 106.856 118.091C106.237 117.394 105.927 116.471 105.927 115.322V115.233ZM107.198 115.384C107.198 116.204 107.387 116.863 107.766 117.359C108.148 117.856 108.659 118.104 109.297 118.104C109.939 118.104 110.45 117.854 110.828 117.353C111.206 116.847 111.396 116.14 111.396 115.233C111.396 114.422 111.202 113.766 110.814 113.265C110.432 112.759 109.921 112.506 109.283 112.506C108.659 112.506 108.155 112.754 107.772 113.251C107.39 113.748 107.198 114.459 107.198 115.384ZM115.692 111.604L115.733 112.533C116.299 111.822 117.037 111.467 117.948 111.467C119.511 111.467 120.3 112.349 120.313 114.112V119H119.049V114.105C119.044 113.572 118.921 113.178 118.68 112.923C118.443 112.668 118.071 112.54 117.565 112.54C117.155 112.54 116.795 112.649 116.485 112.868C116.175 113.087 115.934 113.374 115.761 113.729V119H114.496V111.604H115.692Z" fill="black" fill-opacity="0.6"/>
<path fill-rule="evenodd" clip-rule="evenodd" d="M389 105H383V111H381V105H375V103H381V97H383V103H389V105Z" fill="black" fill-opacity="0.6"/>
<rect x="17.5111" y="135" width="376.489" height="1" fill="#212121" fill-opacity="0.08"/>
</g>
<mask id="mask1" style="mask-type:alpha" maskUnits="userSpaceOnUse" x="0" y="232" width="394" height="64">
<rect y="232" width="394" height="64" fill="white"/>
</mask>
<g mask="url(#mask1)">
<path d="M25.3281 246.625V254.359C25.3229 255.432 24.9844 256.31 24.3125 256.992C23.6458 257.674 22.7396 258.057 21.5938 258.141L21.1953 258.156C19.9505 258.156 18.9583 257.82 18.2188 257.148C17.4792 256.477 17.1042 255.552 17.0938 254.375V246.625H18.5781V254.328C18.5781 255.151 18.8047 255.792 19.2578 256.25C19.7109 256.703 20.3568 256.93 21.1953 256.93C22.0443 256.93 22.6927 256.703 23.1406 256.25C23.5938 255.797 23.8203 255.159 23.8203 254.336V246.625H25.3281ZM32.5406 255.758C32.5406 255.367 32.3922 255.065 32.0953 254.852C31.8036 254.633 31.2906 254.445 30.5562 254.289C29.8271 254.133 29.2464 253.945 28.8141 253.727C28.387 253.508 28.0693 253.247 27.8609 252.945C27.6578 252.643 27.5562 252.284 27.5562 251.867C27.5562 251.174 27.8479 250.589 28.4312 250.109C29.0198 249.63 29.7698 249.391 30.6812 249.391C31.6396 249.391 32.4156 249.638 33.0094 250.133C33.6083 250.628 33.9078 251.26 33.9078 252.031H32.4547C32.4547 251.635 32.2854 251.294 31.9469 251.008C31.6135 250.721 31.1917 250.578 30.6812 250.578C30.1552 250.578 29.7437 250.693 29.4469 250.922C29.15 251.151 29.0016 251.451 29.0016 251.82C29.0016 252.169 29.1396 252.432 29.4156 252.609C29.6917 252.786 30.1891 252.956 30.9078 253.117C31.6318 253.279 32.2177 253.471 32.6656 253.695C33.1135 253.919 33.4443 254.19 33.6578 254.508C33.8766 254.82 33.9859 255.203 33.9859 255.656C33.9859 256.411 33.6839 257.018 33.0797 257.477C32.4755 257.93 31.6917 258.156 30.7281 258.156C30.051 258.156 29.4521 258.036 28.9312 257.797C28.4104 257.557 28.0016 257.224 27.7047 256.797C27.413 256.365 27.2672 255.898 27.2672 255.398H28.7125C28.7385 255.883 28.9312 256.268 29.2906 256.555C29.6552 256.836 30.1344 256.977 30.7281 256.977C31.275 256.977 31.7125 256.867 32.0406 256.648C32.374 256.424 32.5406 256.128 32.5406 255.758ZM39.5266 258.156C38.3807 258.156 37.4484 257.781 36.7297 257.031C36.0109 256.276 35.6516 255.268 35.6516 254.008V253.742C35.6516 252.904 35.8104 252.156 36.1281 251.5C36.451 250.839 36.899 250.323 37.4719 249.953C38.05 249.578 38.675 249.391 39.3469 249.391C40.4458 249.391 41.3 249.753 41.9094 250.477C42.5187 251.201 42.8234 252.237 42.8234 253.586V254.188H37.0969C37.1177 255.021 37.3599 255.695 37.8234 256.211C38.2922 256.721 38.8859 256.977 39.6047 256.977C40.1151 256.977 40.5474 256.872 40.9016 256.664C41.2557 256.456 41.5656 256.18 41.8312 255.836L42.7141 256.523C42.0057 257.612 40.9432 258.156 39.5266 258.156ZM39.3469 250.578C38.7635 250.578 38.274 250.792 37.8781 251.219C37.4823 251.641 37.2375 252.234 37.1437 253H41.3781V252.891C41.3365 252.156 41.1385 251.589 40.7844 251.188C40.4302 250.781 39.951 250.578 39.3469 250.578ZM48.7391 250.844C48.5203 250.807 48.2833 250.789 48.0281 250.789C47.0802 250.789 46.437 251.193 46.0984 252V258H44.6531V249.547H46.0594L46.0828 250.523C46.5568 249.768 47.2286 249.391 48.0984 249.391C48.3797 249.391 48.5932 249.427 48.7391 249.5V250.844ZM58.9453 258H57.4922V248.367L54.5781 249.438V248.125L58.7188 246.57H58.9453V258ZM70.7828 258H63.3297V256.961L67.2672 252.586C67.8505 251.924 68.2516 251.388 68.4703 250.977C68.6943 250.56 68.8063 250.13 68.8063 249.688C68.8063 249.094 68.6266 248.607 68.2672 248.227C67.9078 247.846 67.4286 247.656 66.8297 247.656C66.1109 247.656 65.551 247.862 65.15 248.273C64.7542 248.68 64.5563 249.247 64.5563 249.977H63.1109C63.1109 248.93 63.4469 248.083 64.1188 247.438C64.7958 246.792 65.6995 246.469 66.8297 246.469C67.887 246.469 68.7229 246.747 69.3375 247.305C69.9521 247.857 70.2594 248.594 70.2594 249.516C70.2594 250.635 69.5458 251.969 68.1188 253.516L65.0719 256.82H70.7828V258Z" fill="black" fill-opacity="0.87"/>
<path d="M24.1621 269.047V275.814C24.1576 276.753 23.8613 277.521 23.2734 278.118C22.6901 278.715 21.8971 279.05 20.8945 279.123L20.5459 279.137C19.4567 279.137 18.5885 278.843 17.9414 278.255C17.2943 277.667 16.9661 276.858 16.957 275.828V269.047H18.2559V275.787C18.2559 276.507 18.4541 277.068 18.8506 277.469C19.2471 277.865 19.8122 278.063 20.5459 278.063C21.2887 278.063 21.8561 277.865 22.248 277.469C22.6445 277.072 22.8428 276.514 22.8428 275.794V269.047H24.1621ZM30.5918 277.038C30.5918 276.696 30.4619 276.432 30.2021 276.245C29.9469 276.054 29.498 275.89 28.8555 275.753C28.2174 275.616 27.7093 275.452 27.3311 275.261C26.9574 275.069 26.6794 274.841 26.4971 274.577C26.3193 274.313 26.2305 273.998 26.2305 273.634C26.2305 273.028 26.4857 272.515 26.9961 272.096C27.5111 271.676 28.1673 271.467 28.9648 271.467C29.8034 271.467 30.4824 271.683 31.002 272.116C31.526 272.549 31.7881 273.103 31.7881 273.777H30.5166C30.5166 273.431 30.3685 273.132 30.0723 272.882C29.7806 272.631 29.4115 272.506 28.9648 272.506C28.5046 272.506 28.1445 272.606 27.8848 272.807C27.625 273.007 27.4951 273.269 27.4951 273.593C27.4951 273.898 27.6159 274.128 27.8574 274.283C28.099 274.438 28.5342 274.586 29.1631 274.728C29.7965 274.869 30.3092 275.037 30.7012 275.233C31.0931 275.429 31.3825 275.666 31.5693 275.944C31.7607 276.218 31.8564 276.553 31.8564 276.949C31.8564 277.61 31.5921 278.141 31.0635 278.542C30.5348 278.938 29.849 279.137 29.0059 279.137C28.4134 279.137 27.8893 279.032 27.4336 278.822C26.9779 278.613 26.6201 278.321 26.3604 277.947C26.1051 277.569 25.9775 277.161 25.9775 276.724H27.2422C27.265 277.147 27.4336 277.485 27.748 277.735C28.0671 277.981 28.4863 278.104 29.0059 278.104C29.4844 278.104 29.8672 278.009 30.1543 277.817C30.446 277.621 30.5918 277.362 30.5918 277.038ZM36.8232 279.137C35.8206 279.137 35.0049 278.809 34.376 278.152C33.7471 277.492 33.4326 276.61 33.4326 275.507V275.274C33.4326 274.541 33.5716 273.887 33.8496 273.312C34.1322 272.734 34.5241 272.283 35.0254 271.959C35.5312 271.631 36.0781 271.467 36.666 271.467C37.6276 271.467 38.375 271.784 38.9082 272.417C39.4414 273.05 39.708 273.957 39.708 275.138V275.664H34.6973C34.7155 276.393 34.9274 276.983 35.333 277.435C35.7432 277.881 36.2627 278.104 36.8916 278.104C37.3382 278.104 37.7165 278.013 38.0264 277.831C38.3363 277.649 38.6074 277.407 38.8398 277.106L39.6123 277.708C38.9925 278.66 38.0628 279.137 36.8232 279.137ZM36.666 272.506C36.1556 272.506 35.7272 272.693 35.3809 273.066C35.0345 273.436 34.8203 273.955 34.7383 274.625H38.4434V274.529C38.4069 273.887 38.2337 273.39 37.9238 273.039C37.6139 272.684 37.1947 272.506 36.666 272.506ZM45.0029 272.738C44.8115 272.706 44.6042 272.69 44.3809 272.69C43.5514 272.69 42.9886 273.044 42.6924 273.75V279H41.4277V271.604H42.6582L42.6787 272.458C43.0934 271.797 43.6813 271.467 44.4424 271.467C44.6885 271.467 44.8753 271.499 45.0029 271.562V272.738ZM49.8369 275.24C49.8369 274.105 50.1058 273.194 50.6436 272.506C51.1813 271.813 51.8854 271.467 52.7559 271.467C53.6217 271.467 54.3076 271.763 54.8135 272.355V268.5H56.0781V279H54.916L54.8545 278.207C54.3486 278.827 53.6445 279.137 52.7422 279.137C51.8854 279.137 51.1859 278.786 50.6436 278.084C50.1058 277.382 49.8369 276.466 49.8369 275.336V275.24ZM51.1016 275.384C51.1016 276.222 51.2747 276.879 51.6211 277.353C51.9674 277.826 52.446 278.063 53.0566 278.063C53.8587 278.063 54.4443 277.703 54.8135 276.983V273.586C54.4352 272.889 53.8542 272.54 53.0703 272.54C52.4505 272.54 51.9674 272.779 51.6211 273.258C51.2747 273.736 51.1016 274.445 51.1016 275.384ZM61.3662 279.137C60.3636 279.137 59.5479 278.809 58.9189 278.152C58.29 277.492 57.9756 276.61 57.9756 275.507V275.274C57.9756 274.541 58.1146 273.887 58.3926 273.312C58.6751 272.734 59.0671 272.283 59.5684 271.959C60.0742 271.631 60.6211 271.467 61.209 271.467C62.1706 271.467 62.918 271.784 63.4512 272.417C63.9844 273.05 64.251 273.957 64.251 275.138V275.664H59.2402C59.2585 276.393 59.4704 276.983 59.876 277.435C60.2861 277.881 60.8057 278.104 61.4346 278.104C61.8812 278.104 62.2594 278.013 62.5693 277.831C62.8792 277.649 63.1504 277.407 63.3828 277.106L64.1553 277.708C63.5355 278.66 62.6058 279.137 61.3662 279.137ZM61.209 272.506C60.6986 272.506 60.2702 272.693 59.9238 273.066C59.5775 273.436 59.3633 273.955 59.2812 274.625H62.9863V274.529C62.9499 273.887 62.7767 273.39 62.4668 273.039C62.1569 272.684 61.7376 272.506 61.209 272.506ZM70.2773 277.038C70.2773 276.696 70.1475 276.432 69.8877 276.245C69.6325 276.054 69.1836 275.89 68.541 275.753C67.903 275.616 67.3949 275.452 67.0166 275.261C66.6429 275.069 66.3649 274.841 66.1826 274.577C66.0049 274.313 65.916 273.998 65.916 273.634C65.916 273.028 66.1712 272.515 66.6816 272.096C67.1966 271.676 67.8529 271.467 68.6504 271.467C69.4889 271.467 70.168 271.683 70.6875 272.116C71.2116 272.549 71.4736 273.103 71.4736 273.777H70.2021C70.2021 273.431 70.054 273.132 69.7578 272.882C69.4661 272.631 69.097 272.506 68.6504 272.506C68.1901 272.506 67.8301 272.606 67.5703 272.807C67.3105 273.007 67.1807 273.269 67.1807 273.593C67.1807 273.898 67.3014 274.128 67.543 274.283C67.7845 274.438 68.2197 274.586 68.8486 274.728C69.4821 274.869 69.9948 275.037 70.3867 275.233C70.7786 275.429 71.068 275.666 71.2549 275.944C71.4463 276.218 71.542 276.553 71.542 276.949C71.542 277.61 71.2777 278.141 70.749 278.542C70.2204 278.938 69.5345 279.137 68.6914 279.137C68.099 279.137 67.5749 279.032 67.1191 278.822C66.6634 278.613 66.3057 278.321 66.0459 277.947C65.7907 277.569 65.6631 277.161 65.6631 276.724H66.9277C66.9505 277.147 67.1191 277.485 67.4336 277.735C67.7526 277.981 68.1719 278.104 68.6914 278.104C69.1699 278.104 69.5527 278.009 69.8398 277.817C70.1315 277.621 70.2773 277.362 70.2773 277.038ZM76.4062 278.104C76.8574 278.104 77.2516 277.968 77.5889 277.694C77.9261 277.421 78.113 277.079 78.1494 276.669H79.3457C79.3229 277.093 79.1771 277.496 78.9082 277.879C78.6393 278.262 78.2793 278.567 77.8281 278.795C77.3815 279.023 76.9076 279.137 76.4062 279.137C75.3991 279.137 74.597 278.802 74 278.132C73.4076 277.457 73.1113 276.537 73.1113 275.37V275.158C73.1113 274.438 73.2435 273.798 73.5078 273.237C73.7721 272.677 74.1504 272.242 74.6426 271.932C75.1393 271.622 75.7249 271.467 76.3994 271.467C77.2288 271.467 77.917 271.715 78.4639 272.212C79.0153 272.709 79.3092 273.354 79.3457 274.146H78.1494C78.113 273.668 77.9307 273.276 77.6025 272.971C77.279 272.661 76.8779 272.506 76.3994 272.506C75.7568 272.506 75.2578 272.738 74.9023 273.203C74.5514 273.663 74.376 274.331 74.376 275.206V275.445C74.376 276.298 74.5514 276.954 74.9023 277.414C75.2533 277.874 75.7546 278.104 76.4062 278.104ZM84.5928 272.738C84.4014 272.706 84.194 272.69 83.9707 272.69C83.1413 272.69 82.5785 273.044 82.2822 273.75V279H81.0176V271.604H82.248L82.2686 272.458C82.6833 271.797 83.2712 271.467 84.0322 271.467C84.2783 271.467 84.4652 271.499 84.5928 271.562V272.738ZM87.3857 279H86.1211V271.604H87.3857V279ZM86.0186 269.642C86.0186 269.437 86.0801 269.263 86.2031 269.122C86.3307 268.981 86.5176 268.91 86.7637 268.91C87.0098 268.91 87.1966 268.981 87.3242 269.122C87.4518 269.263 87.5156 269.437 87.5156 269.642C87.5156 269.847 87.4518 270.018 87.3242 270.154C87.1966 270.291 87.0098 270.359 86.7637 270.359C86.5176 270.359 86.3307 270.291 86.2031 270.154C86.0801 270.018 86.0186 269.847 86.0186 269.642ZM95.9141 275.384C95.9141 276.509 95.6566 277.416 95.1416 278.104C94.6266 278.793 93.9294 279.137 93.0498 279.137C92.152 279.137 91.4456 278.852 90.9307 278.282V281.844H89.666V271.604H90.8213L90.8828 272.424C91.3978 271.786 92.1133 271.467 93.0293 271.467C93.918 271.467 94.6198 271.802 95.1348 272.472C95.6543 273.142 95.9141 274.074 95.9141 275.268V275.384ZM94.6494 275.24C94.6494 274.406 94.4717 273.748 94.1162 273.265C93.7607 272.782 93.2731 272.54 92.6533 272.54C91.8877 272.54 91.3135 272.88 90.9307 273.559V277.093C91.3089 277.767 91.8877 278.104 92.667 278.104C93.2731 278.104 93.7539 277.865 94.1094 277.387C94.4694 276.904 94.6494 276.188 94.6494 275.24ZM99.4932 269.812V271.604H100.874V272.581H99.4932V277.168C99.4932 277.464 99.5547 277.688 99.6777 277.838C99.8008 277.984 100.01 278.057 100.307 278.057C100.452 278.057 100.653 278.029 100.908 277.975V279C100.576 279.091 100.252 279.137 99.9375 279.137C99.3724 279.137 98.9463 278.966 98.6592 278.624C98.3721 278.282 98.2285 277.797 98.2285 277.168V272.581H96.8818V271.604H98.2285V269.812H99.4932ZM103.981 279H102.717V271.604H103.981V279ZM102.614 269.642C102.614 269.437 102.676 269.263 102.799 269.122C102.926 268.981 103.113 268.91 103.359 268.91C103.605 268.91 103.792 268.981 103.92 269.122C104.048 269.263 104.111 269.437 104.111 269.642C104.111 269.847 104.048 270.018 103.92 270.154C103.792 270.291 103.605 270.359 103.359 270.359C103.113 270.359 102.926 270.291 102.799 270.154C102.676 270.018 102.614 269.847 102.614 269.642ZM105.927 275.233C105.927 274.509 106.068 273.857 106.351 273.278C106.638 272.7 107.034 272.253 107.54 271.938C108.05 271.624 108.632 271.467 109.283 271.467C110.29 271.467 111.104 271.815 111.724 272.513C112.348 273.21 112.66 274.137 112.66 275.295V275.384C112.66 276.104 112.521 276.751 112.243 277.325C111.97 277.895 111.576 278.339 111.061 278.658C110.55 278.977 109.962 279.137 109.297 279.137C108.294 279.137 107.481 278.788 106.856 278.091C106.237 277.394 105.927 276.471 105.927 275.322V275.233ZM107.198 275.384C107.198 276.204 107.387 276.863 107.766 277.359C108.148 277.856 108.659 278.104 109.297 278.104C109.939 278.104 110.45 277.854 110.828 277.353C111.206 276.847 111.396 276.14 111.396 275.233C111.396 274.422 111.202 273.766 110.814 273.265C110.432 272.759 109.921 272.506 109.283 272.506C108.659 272.506 108.155 272.754 107.772 273.251C107.39 273.748 107.198 274.459 107.198 275.384ZM115.692 271.604L115.733 272.533C116.299 271.822 117.037 271.467 117.948 271.467C119.511 271.467 120.3 272.349 120.313 274.112V279H119.049V274.105C119.044 273.572 118.921 273.178 118.68 272.923C118.443 272.668 118.071 272.54 117.565 272.54C117.155 272.54 116.795 272.649 116.485 272.868C116.175 273.087 115.934 273.374 115.761 273.729V279H114.496V271.604H115.692Z" fill="black" fill-opacity="0.6"/>
<path fill-rule="evenodd" clip-rule="evenodd" d="M389 265H383V271H381V265H375V263H381V257H383V263H389V265Z" fill="black" fill-opacity="0.6"/>
<rect x="17.5111" y="295" width="376.489" height="1" fill="#212121" fill-opacity="0.08"/>
</g>
<mask id="mask2" style="mask-type:alpha" maskUnits="userSpaceOnUse" x="0" y="152" width="394" height="64">
<rect y="152" width="394" height="64" fill="white"/>
</mask>
<g mask="url(#mask2)">
<path d="M25.3281 166.625V174.359C25.3229 175.432 24.9844 176.31 24.3125 176.992C23.6458 177.674 22.7396 178.057 21.5938 178.141L21.1953 178.156C19.9505 178.156 18.9583 177.82 18.2188 177.148C17.4792 176.477 17.1042 175.552 17.0938 174.375V166.625H18.5781V174.328C18.5781 175.151 18.8047 175.792 19.2578 176.25C19.7109 176.703 20.3568 176.93 21.1953 176.93C22.0443 176.93 22.6927 176.703 23.1406 176.25C23.5938 175.797 23.8203 175.159 23.8203 174.336V166.625H25.3281ZM32.5406 175.758C32.5406 175.367 32.3922 175.065 32.0953 174.852C31.8036 174.633 31.2906 174.445 30.5562 174.289C29.8271 174.133 29.2464 173.945 28.8141 173.727C28.387 173.508 28.0693 173.247 27.8609 172.945C27.6578 172.643 27.5562 172.284 27.5562 171.867C27.5562 171.174 27.8479 170.589 28.4312 170.109C29.0198 169.63 29.7698 169.391 30.6812 169.391C31.6396 169.391 32.4156 169.638 33.0094 170.133C33.6083 170.628 33.9078 171.26 33.9078 172.031H32.4547C32.4547 171.635 32.2854 171.294 31.9469 171.008C31.6135 170.721 31.1917 170.578 30.6812 170.578C30.1552 170.578 29.7437 170.693 29.4469 170.922C29.15 171.151 29.0016 171.451 29.0016 171.82C29.0016 172.169 29.1396 172.432 29.4156 172.609C29.6917 172.786 30.1891 172.956 30.9078 173.117C31.6318 173.279 32.2177 173.471 32.6656 173.695C33.1135 173.919 33.4443 174.19 33.6578 174.508C33.8766 174.82 33.9859 175.203 33.9859 175.656C33.9859 176.411 33.6839 177.018 33.0797 177.477C32.4755 177.93 31.6917 178.156 30.7281 178.156C30.051 178.156 29.4521 178.036 28.9312 177.797C28.4104 177.557 28.0016 177.224 27.7047 176.797C27.413 176.365 27.2672 175.898 27.2672 175.398H28.7125C28.7385 175.883 28.9312 176.268 29.2906 176.555C29.6552 176.836 30.1344 176.977 30.7281 176.977C31.275 176.977 31.7125 176.867 32.0406 176.648C32.374 176.424 32.5406 176.128 32.5406 175.758ZM39.5266 178.156C38.3807 178.156 37.4484 177.781 36.7297 177.031C36.0109 176.276 35.6516 175.268 35.6516 174.008V173.742C35.6516 172.904 35.8104 172.156 36.1281 171.5C36.451 170.839 36.899 170.323 37.4719 169.953C38.05 169.578 38.675 169.391 39.3469 169.391C40.4458 169.391 41.3 169.753 41.9094 170.477C42.5187 171.201 42.8234 172.237 42.8234 173.586V174.188H37.0969C37.1177 175.021 37.3599 175.695 37.8234 176.211C38.2922 176.721 38.8859 176.977 39.6047 176.977C40.1151 176.977 40.5474 176.872 40.9016 176.664C41.2557 176.456 41.5656 176.18 41.8312 175.836L42.7141 176.523C42.0057 177.612 40.9432 178.156 39.5266 178.156ZM39.3469 170.578C38.7635 170.578 38.274 170.792 37.8781 171.219C37.4823 171.641 37.2375 172.234 37.1437 173H41.3781V172.891C41.3365 172.156 41.1385 171.589 40.7844 171.188C40.4302 170.781 39.951 170.578 39.3469 170.578ZM48.7391 170.844C48.5203 170.807 48.2833 170.789 48.0281 170.789C47.0802 170.789 46.437 171.193 46.0984 172V178H44.6531V169.547H46.0594L46.0828 170.523C46.5568 169.768 47.2286 169.391 48.0984 169.391C48.3797 169.391 48.5932 169.427 48.7391 169.5V170.844ZM58.9453 178H57.4922V168.367L54.5781 169.438V168.125L58.7188 166.57H58.9453V178ZM68.0797 178H66.6266V168.367L63.7125 169.438V168.125L67.8531 166.57H68.0797V178Z" fill="black" fill-opacity="0.87"/>
<path d="M24.1621 189.047V195.814C24.1576 196.753 23.8613 197.521 23.2734 198.118C22.6901 198.715 21.8971 199.05 20.8945 199.123L20.5459 199.137C19.4567 199.137 18.5885 198.843 17.9414 198.255C17.2943 197.667 16.9661 196.858 16.957 195.828V189.047H18.2559V195.787C18.2559 196.507 18.4541 197.068 18.8506 197.469C19.2471 197.865 19.8122 198.063 20.5459 198.063C21.2887 198.063 21.8561 197.865 22.248 197.469C22.6445 197.072 22.8428 196.514 22.8428 195.794V189.047H24.1621ZM30.5918 197.038C30.5918 196.696 30.4619 196.432 30.2021 196.245C29.9469 196.054 29.498 195.89 28.8555 195.753C28.2174 195.616 27.7093 195.452 27.3311 195.261C26.9574 195.069 26.6794 194.841 26.4971 194.577C26.3193 194.313 26.2305 193.998 26.2305 193.634C26.2305 193.028 26.4857 192.515 26.9961 192.096C27.5111 191.676 28.1673 191.467 28.9648 191.467C29.8034 191.467 30.4824 191.683 31.002 192.116C31.526 192.549 31.7881 193.103 31.7881 193.777H30.5166C30.5166 193.431 30.3685 193.132 30.0723 192.882C29.7806 192.631 29.4115 192.506 28.9648 192.506C28.5046 192.506 28.1445 192.606 27.8848 192.807C27.625 193.007 27.4951 193.269 27.4951 193.593C27.4951 193.898 27.6159 194.128 27.8574 194.283C28.099 194.438 28.5342 194.586 29.1631 194.728C29.7965 194.869 30.3092 195.037 30.7012 195.233C31.0931 195.429 31.3825 195.666 31.5693 195.944C31.7607 196.218 31.8564 196.553 31.8564 196.949C31.8564 197.61 31.5921 198.141 31.0635 198.542C30.5348 198.938 29.849 199.137 29.0059 199.137C28.4134 199.137 27.8893 199.032 27.4336 198.822C26.9779 198.613 26.6201 198.321 26.3604 197.947C26.1051 197.569 25.9775 197.161 25.9775 196.724H27.2422C27.265 197.147 27.4336 197.485 27.748 197.735C28.0671 197.981 28.4863 198.104 29.0059 198.104C29.4844 198.104 29.8672 198.009 30.1543 197.817C30.446 197.621 30.5918 197.362 30.5918 197.038ZM36.8232 199.137C35.8206 199.137 35.0049 198.809 34.376 198.152C33.7471 197.492 33.4326 196.61 33.4326 195.507V195.274C33.4326 194.541 33.5716 193.887 33.8496 193.312C34.1322 192.734 34.5241 192.283 35.0254 191.959C35.5312 191.631 36.0781 191.467 36.666 191.467C37.6276 191.467 38.375 191.784 38.9082 192.417C39.4414 193.05 39.708 193.957 39.708 195.138V195.664H34.6973C34.7155 196.393 34.9274 196.983 35.333 197.435C35.7432 197.881 36.2627 198.104 36.8916 198.104C37.3382 198.104 37.7165 198.013 38.0264 197.831C38.3363 197.649 38.6074 197.407 38.8398 197.106L39.6123 197.708C38.9925 198.66 38.0628 199.137 36.8232 199.137ZM36.666 192.506C36.1556 192.506 35.7272 192.693 35.3809 193.066C35.0345 193.436 34.8203 193.955 34.7383 194.625H38.4434V194.529C38.4069 193.887 38.2337 193.39 37.9238 193.039C37.6139 192.684 37.1947 192.506 36.666 192.506ZM45.0029 192.738C44.8115 192.706 44.6042 192.69 44.3809 192.69C43.5514 192.69 42.9886 193.044 42.6924 193.75V199H41.4277V191.604H42.6582L42.6787 192.458C43.0934 191.797 43.6813 191.467 44.4424 191.467C44.6885 191.467 44.8753 191.499 45.0029 191.562V192.738ZM49.8369 195.24C49.8369 194.105 50.1058 193.194 50.6436 192.506C51.1813 191.813 51.8854 191.467 52.7559 191.467C53.6217 191.467 54.3076 191.763 54.8135 192.355V188.5H56.0781V199H54.916L54.8545 198.207C54.3486 198.827 53.6445 199.137 52.7422 199.137C51.8854 199.137 51.1859 198.786 50.6436 198.084C50.1058 197.382 49.8369 196.466 49.8369 195.336V195.24ZM51.1016 195.384C51.1016 196.222 51.2747 196.879 51.6211 197.353C51.9674 197.826 52.446 198.063 53.0566 198.063C53.8587 198.063 54.4443 197.703 54.8135 196.983V193.586C54.4352 192.889 53.8542 192.54 53.0703 192.54C52.4505 192.54 51.9674 192.779 51.6211 193.258C51.2747 193.736 51.1016 194.445 51.1016 195.384ZM61.3662 199.137C60.3636 199.137 59.5479 198.809 58.9189 198.152C58.29 197.492 57.9756 196.61 57.9756 195.507V195.274C57.9756 194.541 58.1146 193.887 58.3926 193.312C58.6751 192.734 59.0671 192.283 59.5684 191.959C60.0742 191.631 60.6211 191.467 61.209 191.467C62.1706 191.467 62.918 191.784 63.4512 192.417C63.9844 193.05 64.251 193.957 64.251 195.138V195.664H59.2402C59.2585 196.393 59.4704 196.983 59.876 197.435C60.2861 197.881 60.8057 198.104 61.4346 198.104C61.8812 198.104 62.2594 198.013 62.5693 197.831C62.8792 197.649 63.1504 197.407 63.3828 197.106L64.1553 197.708C63.5355 198.66 62.6058 199.137 61.3662 199.137ZM61.209 192.506C60.6986 192.506 60.2702 192.693 59.9238 193.066C59.5775 193.436 59.3633 193.955 59.2812 194.625H62.9863V194.529C62.9499 193.887 62.7767 193.39 62.4668 193.039C62.1569 192.684 61.7376 192.506 61.209 192.506ZM70.2773 197.038C70.2773 196.696 70.1475 196.432 69.8877 196.245C69.6325 196.054 69.1836 195.89 68.541 195.753C67.903 195.616 67.3949 195.452 67.0166 195.261C66.6429 195.069 66.3649 194.841 66.1826 194.577C66.0049 194.313 65.916 193.998 65.916 193.634C65.916 193.028 66.1712 192.515 66.6816 192.096C67.1966 191.676 67.8529 191.467 68.6504 191.467C69.4889 191.467 70.168 191.683 70.6875 192.116C71.2116 192.549 71.4736 193.103 71.4736 193.777H70.2021C70.2021 193.431 70.054 193.132 69.7578 192.882C69.4661 192.631 69.097 192.506 68.6504 192.506C68.1901 192.506 67.8301 192.606 67.5703 192.807C67.3105 193.007 67.1807 193.269 67.1807 193.593C67.1807 193.898 67.3014 194.128 67.543 194.283C67.7845 194.438 68.2197 194.586 68.8486 194.728C69.4821 194.869 69.9948 195.037 70.3867 195.233C70.7786 195.429 71.068 195.666 71.2549 195.944C71.4463 196.218 71.542 196.553 71.542 196.949C71.542 197.61 71.2777 198.141 70.749 198.542C70.2204 198.938 69.5345 199.137 68.6914 199.137C68.099 199.137 67.5749 199.032 67.1191 198.822C66.6634 198.613 66.3057 198.321 66.0459 197.947C65.7907 197.569 65.6631 197.161 65.6631 196.724H66.9277C66.9505 197.147 67.1191 197.485 67.4336 197.735C67.7526 197.981 68.1719 198.104 68.6914 198.104C69.1699 198.104 69.5527 198.009 69.8398 197.817C70.1315 197.621 70.2773 197.362 70.2773 197.038ZM76.4062 198.104C76.8574 198.104 77.2516 197.968 77.5889 197.694C77.9261 197.421 78.113 197.079 78.1494 196.669H79.3457C79.3229 197.093 79.1771 197.496 78.9082 197.879C78.6393 198.262 78.2793 198.567 77.8281 198.795C77.3815 199.023 76.9076 199.137 76.4062 199.137C75.3991 199.137 74.597 198.802 74 198.132C73.4076 197.457 73.1113 196.537 73.1113 195.37V195.158C73.1113 194.438 73.2435 193.798 73.5078 193.237C73.7721 192.677 74.1504 192.242 74.6426 191.932C75.1393 191.622 75.7249 191.467 76.3994 191.467C77.2288 191.467 77.917 191.715 78.4639 192.212C79.0153 192.709 79.3092 193.354 79.3457 194.146H78.1494C78.113 193.668 77.9307 193.276 77.6025 192.971C77.279 192.661 76.8779 192.506 76.3994 192.506C75.7568 192.506 75.2578 192.738 74.9023 193.203C74.5514 193.663 74.376 194.331 74.376 195.206V195.445C74.376 196.298 74.5514 196.954 74.9023 197.414C75.2533 197.874 75.7546 198.104 76.4062 198.104ZM84.5928 192.738C84.4014 192.706 84.194 192.69 83.9707 192.69C83.1413 192.69 82.5785 193.044 82.2822 193.75V199H81.0176V191.604H82.248L82.2686 192.458C82.6833 191.797 83.2712 191.467 84.0322 191.467C84.2783 191.467 84.4652 191.499 84.5928 191.562V192.738ZM87.3857 199H86.1211V191.604H87.3857V199ZM86.0186 189.642C86.0186 189.437 86.0801 189.263 86.2031 189.122C86.3307 188.981 86.5176 188.91 86.7637 188.91C87.0098 188.91 87.1966 188.981 87.3242 189.122C87.4518 189.263 87.5156 189.437 87.5156 189.642C87.5156 189.847 87.4518 190.018 87.3242 190.154C87.1966 190.291 87.0098 190.359 86.7637 190.359C86.5176 190.359 86.3307 190.291 86.2031 190.154C86.0801 190.018 86.0186 189.847 86.0186 189.642ZM95.9141 195.384C95.9141 196.509 95.6566 197.416 95.1416 198.104C94.6266 198.793 93.9294 199.137 93.0498 199.137C92.152 199.137 91.4456 198.852 90.9307 198.282V201.844H89.666V191.604H90.8213L90.8828 192.424C91.3978 191.786 92.1133 191.467 93.0293 191.467C93.918 191.467 94.6198 191.802 95.1348 192.472C95.6543 193.142 95.9141 194.074 95.9141 195.268V195.384ZM94.6494 195.24C94.6494 194.406 94.4717 193.748 94.1162 193.265C93.7607 192.782 93.2731 192.54 92.6533 192.54C91.8877 192.54 91.3135 192.88 90.9307 193.559V197.093C91.3089 197.767 91.8877 198.104 92.667 198.104C93.2731 198.104 93.7539 197.865 94.1094 197.387C94.4694 196.904 94.6494 196.188 94.6494 195.24ZM99.4932 189.812V191.604H100.874V192.581H99.4932V197.168C99.4932 197.464 99.5547 197.688 99.6777 197.838C99.8008 197.984 100.01 198.057 100.307 198.057C100.452 198.057 100.653 198.029 100.908 197.975V199C100.576 199.091 100.252 199.137 99.9375 199.137C99.3724 199.137 98.9463 198.966 98.6592 198.624C98.3721 198.282 98.2285 197.797 98.2285 197.168V192.581H96.8818V191.604H98.2285V189.812H99.4932ZM103.981 199H102.717V191.604H103.981V199ZM102.614 189.642C102.614 189.437 102.676 189.263 102.799 189.122C102.926 188.981 103.113 188.91 103.359 188.91C103.605 188.91 103.792 188.981 103.92 189.122C104.048 189.263 104.111 189.437 104.111 189.642C104.111 189.847 104.048 190.018 103.92 190.154C103.792 190.291 103.605 190.359 103.359 190.359C103.113 190.359 102.926 190.291 102.799 190.154C102.676 190.018 102.614 189.847 102.614 189.642ZM105.927 195.233C105.927 194.509 106.068 193.857 106.351 193.278C106.638 192.7 107.034 192.253 107.54 191.938C108.05 191.624 108.632 191.467 109.283 191.467C110.29 191.467 111.104 191.815 111.724 192.513C112.348 193.21 112.66 194.137 112.66 195.295V195.384C112.66 196.104 112.521 196.751 112.243 197.325C111.97 197.895 111.576 198.339 111.061 198.658C110.55 198.977 109.962 199.137 109.297 199.137C108.294 199.137 107.481 198.788 106.856 198.091C106.237 197.394 105.927 196.471 105.927 195.322V195.233ZM107.198 195.384C107.198 196.204 107.387 196.863 107.766 197.359C108.148 197.856 108.659 198.104 109.297 198.104C109.939 198.104 110.45 197.854 110.828 197.353C111.206 196.847 111.396 196.14 111.396 195.233C111.396 194.422 111.202 193.766 110.814 193.265C110.432 192.759 109.921 192.506 109.283 192.506C108.659 192.506 108.155 192.754 107.772 193.251C107.39 193.748 107.198 194.459 107.198 195.384ZM115.692 191.604L115.733 192.533C116.299 191.822 117.037 191.467 117.948 191.467C119.511 191.467 120.3 192.349 120.313 194.112V199H119.049V194.105C119.044 193.572 118.921 193.178 118.68 192.923C118.443 192.668 118.071 192.54 117.565 192.54C117.155 192.54 116.795 192.649 116.485 192.868C116.175 193.087 115.934 193.374 115.761 193.729V199H114.496V191.604H115.692Z" fill="black" fill-opacity="0.6"/>
<path fill-rule="evenodd" clip-rule="evenodd" d="M389 185H383V191H381V185H375V183H381V177H383V183H389V185Z" fill="black" fill-opacity="0.6"/>
<rect x="17.5111" y="215" width="376.489" height="1" fill="#212121" fill-opacity="0.08"/>
</g>
</g>
<defs>
<filter id="filter0_ddd" x="-10" y="-9" width="431" height="76" filterUnits="userSpaceOnUse" color-interpolation-filters="sRGB">
<feFlood flood-opacity="0" result="BackgroundImageFix"/>
<feColorMatrix in="SourceAlpha" type="matrix" values="0 0 0 0 0 0 0 0 0 0 0 0 0 0 0 0 0 0 127 0" result="hardAlpha"/>
<feOffset dy="2"/>
<feGaussianBlur stdDeviation="2"/>
<feColorMatrix type="matrix" values="0 0 0 0 0 0 0 0 0 0 0 0 0 0 0 0 0 0 0.2 0"/>
<feBlend mode="normal" in2="BackgroundImageFix" result="effect1_dropShadow"/>
<feColorMatrix in="SourceAlpha" type="matrix" values="0 0 0 0 0 0 0 0 0 0 0 0 0 0 0 0 0 0 127 0" result="hardAlpha"/>
<feOffset dy="1"/>
<feGaussianBlur stdDeviation="5"/>
<feColorMatrix type="matrix" values="0 0 0 0 0 0 0 0 0 0 0 0 0 0 0 0 0 0 0.12 0"/>
<feBlend mode="normal" in2="effect1_dropShadow" result="effect2_dropShadow"/>
<feColorMatrix in="SourceAlpha" type="matrix" values="0 0 0 0 0 0 0 0 0 0 0 0 0 0 0 0 0 0 127 0" result="hardAlpha"/>
<feOffset dy="4"/>
<feGaussianBlur stdDeviation="2.5"/>
<feColorMatrix type="matrix" values="0 0 0 0 0 0 0 0 0 0 0 0 0 0 0 0 0 0 0.14 0"/>
<feBlend mode="normal" in2="effect2_dropShadow" result="effect3_dropShadow"/>
<feBlend mode="normal" in="SourceGraphic" in2="effect3_dropShadow" result="shape"/>
</filter>
<clipPath id="clip0">
<rect width="411" height="731" fill="white"/>
</clipPath>
</defs>
</svg>
