<svg width="411" height="731" viewBox="0 0 411 731" fill="none" xmlns="http://www.w3.org/2000/svg">
<rect width="411" height="731" fill="#F1F1F1"/>
<g clip-path="url(#clip0)">
<rect width="411" height="731" fill="white"/>
<g filter="url(#filter0_ddd)">
<rect width="411" height="72" transform="translate(0 659)" fill="#6200EE"/>
<rect width="102.75" height="72" transform="translate(0 659)" fill="#6200EE"/>
<path d="M36.3008 706.441H33.1973V715H31.4814V706.441H28.4053V705.047H36.3008V706.441ZM46.6152 710.283C46.6152 711.258 46.4466 712.115 46.1094 712.854C45.7721 713.587 45.2891 714.152 44.6602 714.549C44.0358 714.941 43.3158 715.137 42.5 715.137C41.6934 715.137 40.9733 714.941 40.3398 714.549C39.7109 714.152 39.2233 713.59 38.877 712.86C38.5352 712.131 38.362 711.29 38.3574 710.338V709.777C38.3574 708.807 38.5283 707.95 38.8701 707.207C39.2165 706.464 39.7018 705.897 40.3262 705.505C40.9551 705.108 41.6751 704.91 42.4863 704.91C43.2975 704.91 44.0153 705.106 44.6396 705.498C45.2686 705.885 45.7539 706.446 46.0957 707.18C46.4375 707.909 46.6107 708.759 46.6152 709.729V710.283ZM44.8857 709.764C44.8857 708.661 44.6761 707.815 44.2568 707.228C43.8421 706.64 43.252 706.346 42.4863 706.346C41.7389 706.346 41.1533 706.64 40.7295 707.228C40.3102 707.811 40.096 708.638 40.0869 709.709V710.283C40.0869 711.377 40.2988 712.222 40.7227 712.819C41.151 713.416 41.7435 713.715 42.5 713.715C43.2656 713.715 43.8535 713.423 44.2637 712.84C44.6784 712.257 44.8857 711.404 44.8857 710.283V709.764ZM49.5879 715V705.047H52.5273C53.4069 705.047 54.1862 705.243 54.8652 705.635C55.5488 706.027 56.0775 706.583 56.4512 707.303C56.8249 708.023 57.0117 708.848 57.0117 709.777V710.276C57.0117 711.22 56.8226 712.049 56.4443 712.765C56.0706 713.48 55.5352 714.032 54.8379 714.419C54.1452 714.806 53.3499 715 52.4521 715H49.5879ZM51.3174 706.441V713.619H52.4453C53.3522 713.619 54.0472 713.337 54.5303 712.771C55.0179 712.202 55.2663 711.386 55.2754 710.324V709.771C55.2754 708.69 55.0407 707.866 54.5713 707.296C54.1019 706.726 53.4206 706.441 52.5273 706.441H51.3174ZM65.4053 712.683H61.5498L60.7432 715H58.9453L62.7051 705.047H64.2568L68.0234 715H66.2188L65.4053 712.683ZM62.0352 711.288H64.9199L63.4775 707.159L62.0352 711.288ZM72.6299 709.764L74.9199 705.047H76.834L73.498 711.336V715H71.7617V711.336L68.4189 705.047H70.3398L72.6299 709.764Z" fill="white" fill-opacity="0.74"/>
<path fill-rule="evenodd" clip-rule="evenodd" d="M51 693C52.1 693 53 692.1 53 691H49C49 692.1 49.89 693 51 693ZM57 687V682C57 678.93 55.36 676.36 52.5 675.68V675C52.5 674.17 51.83 673.5 51 673.5C50.17 673.5 49.5 674.17 49.5 675V675.68C46.63 676.36 45 678.92 45 682V687L43 689V690H59V689L57 687Z" fill="white" fill-opacity="0.74"/>
<rect width="102.75" height="72" transform="translate(102.75 659)" fill="#6200EE"/>
<path d="M138.012 710.557H133.924V713.619H138.702V715H132.194V705.047H138.654V706.441H133.924V709.189H138.012V710.557ZM144.867 712.833L147.396 705.047H149.297L145.715 715H144.04L140.472 705.047H142.365L144.867 712.833ZM157.492 710.557H153.404V713.619H158.183V715H151.675V705.047H158.135V706.441H153.404V709.189H157.492V710.557ZM168.736 715H167.007L162.57 707.938V715H160.841V705.047H162.57L167.021 712.136V705.047H168.736V715ZM179.017 706.441H175.913V715H174.197V706.441H171.121V705.047H179.017V706.441Z" fill="white" fill-opacity="0.74"/>
<path d="M150.75 682H148.75V684H150.75V682ZM154.75 682H152.75V684H154.75V682ZM158.75 682H156.75V684H158.75V682ZM160.75 675H159.75V673H157.75V675H149.75V673H147.75V675H146.75C145.64 675 144.76 675.9 144.76 677L144.75 691C144.75 691.53 144.961 692.039 145.336 692.414C145.711 692.789 146.22 693 146.75 693H160.75C161.85 693 162.75 692.1 162.75 691V677C162.75 675.9 161.85 675 160.75 675ZM160.75 691H146.75V680H160.75V691Z" fill="white" fill-opacity="0.74"/>
<rect width="102.75" height="72" transform="translate(205.5 659)" fill="#6200EE"/>
<rect width="102.75" height="2" transform="translate(205.5 729)" fill="#6200EE"/>
<rect x="205.5" y="729" width="103" height="2" fill="white"/>
<path d="M244.173 715H242.45V710.577H238V715H236.271V705.047H238V709.189H242.45V705.047H244.173V715ZM253.168 712.683H249.312L248.506 715H246.708L250.468 705.047H252.02L255.786 715H253.981L253.168 712.683ZM249.798 711.288H252.683L251.24 707.159L249.798 711.288ZM258.171 715V705.047H261.582C262.708 705.047 263.564 705.272 264.152 705.724C264.74 706.175 265.034 706.847 265.034 707.74C265.034 708.196 264.911 708.606 264.665 708.971C264.419 709.335 264.059 709.618 263.585 709.818C264.123 709.964 264.537 710.24 264.829 710.646C265.125 711.047 265.273 711.53 265.273 712.095C265.273 713.029 264.973 713.747 264.371 714.248C263.774 714.749 262.917 715 261.801 715H258.171ZM259.9 710.509V713.619H261.821C262.364 713.619 262.787 713.485 263.093 713.216C263.398 712.947 263.551 712.573 263.551 712.095C263.551 711.06 263.022 710.532 261.965 710.509H259.9ZM259.9 709.237H261.596C262.133 709.237 262.553 709.117 262.854 708.875C263.159 708.629 263.312 708.283 263.312 707.836C263.312 707.344 263.17 706.988 262.888 706.77C262.61 706.551 262.174 706.441 261.582 706.441H259.9V709.237ZM270.078 715H268.355V705.047H270.078V715ZM280.44 706.441H277.337V715H275.621V706.441H272.545V705.047H280.44V706.441Z" fill="white"/>
<path fill-rule="evenodd" clip-rule="evenodd" d="M256.5 692.35L255.05 691.03C249.9 686.36 246.5 683.28 246.5 679.5C246.5 676.42 248.92 674 252 674C253.74 674 255.41 674.81 256.5 676.09C257.59 674.81 259.26 674 261 674C264.08 674 266.5 676.42 266.5 679.5C266.5 683.28 263.1 686.36 257.95 691.04L256.5 692.35Z" fill="white"/>
<rect width="102.75" height="72" transform="translate(308.25 659)" fill="#6200EE"/>
<path d="M322.205 711.76C322.105 712.822 321.713 713.651 321.029 714.248C320.346 714.84 319.437 715.137 318.302 715.137C317.509 715.137 316.809 714.95 316.203 714.576C315.602 714.198 315.137 713.662 314.809 712.97C314.48 712.277 314.31 711.473 314.296 710.557V709.627C314.296 708.688 314.462 707.861 314.795 707.146C315.128 706.43 315.604 705.879 316.224 705.491C316.848 705.104 317.568 704.91 318.384 704.91C319.482 704.91 320.366 705.209 321.036 705.806C321.706 706.403 322.096 707.246 322.205 708.335H320.482C320.4 707.619 320.191 707.104 319.854 706.79C319.521 706.471 319.031 706.312 318.384 706.312C317.632 706.312 317.053 706.587 316.647 707.139C316.246 707.686 316.041 708.49 316.032 709.552V710.434C316.032 711.509 316.224 712.329 316.606 712.895C316.994 713.46 317.559 713.742 318.302 713.742C318.981 713.742 319.491 713.59 319.833 713.284C320.175 712.979 320.391 712.471 320.482 711.76H322.205ZM332.95 710.283C332.95 711.258 332.782 712.115 332.444 712.854C332.107 713.587 331.624 714.152 330.995 714.549C330.371 714.941 329.651 715.137 328.835 715.137C328.028 715.137 327.308 714.941 326.675 714.549C326.046 714.152 325.558 713.59 325.212 712.86C324.87 712.131 324.697 711.29 324.692 710.338V709.777C324.692 708.807 324.863 707.95 325.205 707.207C325.551 706.464 326.037 705.897 326.661 705.505C327.29 705.108 328.01 704.91 328.821 704.91C329.632 704.91 330.35 705.106 330.975 705.498C331.604 705.885 332.089 706.446 332.431 707.18C332.772 707.909 332.946 708.759 332.95 709.729V710.283ZM331.221 709.764C331.221 708.661 331.011 707.815 330.592 707.228C330.177 706.64 329.587 706.346 328.821 706.346C328.074 706.346 327.488 706.64 327.064 707.228C326.645 707.811 326.431 708.638 326.422 709.709V710.283C326.422 711.377 326.634 712.222 327.058 712.819C327.486 713.416 328.078 713.715 328.835 713.715C329.601 713.715 330.188 713.423 330.599 712.84C331.013 712.257 331.221 711.404 331.221 710.283V709.764ZM338.165 705.047L341.036 712.676L343.9 705.047H346.136V715H344.413V711.719L344.584 707.33L341.645 715H340.407L337.475 707.337L337.646 711.719V715H335.923V705.047H338.165ZM351.679 705.047L354.55 712.676L357.414 705.047H359.649V715H357.927V711.719L358.098 707.33L355.158 715H353.921L350.988 707.337L351.159 711.719V715H349.437V705.047H351.679ZM370.23 705.047V711.698C370.23 712.756 369.891 713.594 369.212 714.214C368.537 714.829 367.637 715.137 366.512 715.137C365.372 715.137 364.468 714.834 363.798 714.228C363.128 713.617 362.793 712.771 362.793 711.691V705.047H364.516V711.705C364.516 712.37 364.684 712.879 365.021 713.229C365.359 713.58 365.855 713.756 366.512 713.756C367.842 713.756 368.508 713.054 368.508 711.65V705.047H370.23ZM381.229 715H379.499L375.062 707.938V715H373.333V705.047H375.062L379.513 712.136V705.047H381.229V715ZM386.348 715H384.625V705.047H386.348V715ZM396.71 706.441H393.606V715H391.891V706.441H388.814V705.047H396.71V706.441ZM402.629 709.764L404.919 705.047H406.833L403.497 711.336V715H401.761V711.336L398.418 705.047H400.339L402.629 709.764Z" fill="white" fill-opacity="0.74"/>
<path d="M363.25 682C364.91 682 366.24 680.66 366.24 679C366.24 677.34 364.91 676 363.25 676C361.59 676 360.25 677.34 360.25 679C360.25 680.66 361.59 682 363.25 682ZM355.25 682C356.91 682 358.24 680.66 358.24 679C358.24 677.34 356.91 676 355.25 676C353.59 676 352.25 677.34 352.25 679C352.25 680.66 353.59 682 355.25 682ZM355.25 684C352.92 684 348.25 685.17 348.25 687.5V690H362.25V687.5C362.25 685.17 357.58 684 355.25 684ZM363.25 684C362.96 684 362.63 684.02 362.28 684.05C363.44 684.89 364.25 686.02 364.25 687.5V690H370.25V687.5C370.25 685.17 365.58 684 363.25 684Z" fill="white" fill-opacity="0.74"/>
</g>
<g filter="url(#filter1_ddd)">
<rect width="411" height="56" fill="#6200EE"/>
<path fill-rule="evenodd" clip-rule="evenodd" d="M287 38C288.1 38 289 37.1 289 36H285C285 37.1 285.89 38 287 38ZM293 32V27C293 23.93 291.36 21.36 288.5 20.68V20C288.5 19.17 287.83 18.5 287 18.5C286.17 18.5 285.5 19.17 285.5 20V20.68C282.63 21.36 281 23.92 281 27V32L279 34V35H295V34L293 32Z" fill="white" fill-opacity="0.74"/>
<path fill-rule="evenodd" clip-rule="evenodd" d="M341 32.08C340.24 32.08 339.56 32.38 339.04 32.85L331.91 28.7C331.96 28.47 332 28.24 332 28C332 27.76 331.96 27.53 331.91 27.3L338.96 23.19C339.5 23.69 340.21 24 341 24C342.66 24 344 22.66 344 21C344 19.34 342.66 18 341 18C339.34 18 338 19.34 338 21C338 21.24 338.04 21.47 338.09 21.7L331.04 25.81C330.5 25.31 329.79 25 329 25C327.34 25 326 26.34 326 28C326 29.66 327.34 31 329 31C329.79 31 330.5 30.69 331.04 30.19L338.16 34.35C338.11 34.56 338.08 34.78 338.08 35C338.08 36.61 339.39 37.92 341 37.92C342.61 37.92 343.92 36.61 343.92 35C343.92 33.39 342.61 32.08 341 32.08Z" fill="white" fill-opacity="0.74"/>
<path fill-rule="evenodd" clip-rule="evenodd" d="M386.5 30H385.71L385.43 29.73C386.41 28.59 387 27.11 387 25.5C387 21.91 384.09 19 380.5 19C376.91 19 374 21.91 374 25.5C374 29.09 376.91 32 380.5 32C382.11 32 383.59 31.41 384.73 30.43L385 30.71V31.5L390 36.49L391.49 35L386.5 30ZM380.5 30C378.01 30 376 27.99 376 25.5C376 23.01 378.01 21 380.5 21C382.99 21 385 23.01 385 25.5C385 27.99 382.99 30 380.5 30Z" fill="white" fill-opacity="0.74"/>
<path fill-rule="evenodd" clip-rule="evenodd" d="M19 34H37V32H19V34ZM19 29H37V27H19V29ZM19 22V24H37V22H19Z" fill="white" fill-opacity="0.74"/>
</g>
<mask id="mask0" style="mask-type:alpha" maskUnits="userSpaceOnUse" x="0" y="66" width="394" height="64">
<rect y="66" width="394" height="64" fill="white"/>
</mask>
<g mask="url(#mask0)">
<path d="M26.0625 92H24.5547V86.7422H18.8203V92H17.3203V80.625H18.8203V85.5156H24.5547V80.625H26.0625V92ZM33.8687 92C33.7854 91.8333 33.7177 91.5365 33.6656 91.1094C32.9937 91.8073 32.1917 92.1562 31.2594 92.1562C30.426 92.1562 29.7411 91.9219 29.2047 91.4531C28.6734 90.9792 28.4078 90.3802 28.4078 89.6562C28.4078 88.776 28.7411 88.0938 29.4078 87.6094C30.0797 87.1198 31.0224 86.875 32.2359 86.875H33.6422V86.2109C33.6422 85.7057 33.4911 85.3047 33.1891 85.0078C32.887 84.7057 32.4417 84.5547 31.8531 84.5547C31.3375 84.5547 30.9052 84.6849 30.5562 84.9453C30.2073 85.2057 30.0328 85.5208 30.0328 85.8906H28.5797C28.5797 85.4688 28.7281 85.0625 29.025 84.6719C29.3271 84.276 29.7333 83.9635 30.2437 83.7344C30.7594 83.5052 31.3245 83.3906 31.9391 83.3906C32.913 83.3906 33.676 83.6354 34.2281 84.125C34.7802 84.6094 35.0667 85.2786 35.0875 86.1328V90.0234C35.0875 90.7995 35.1865 91.4167 35.3844 91.875V92H33.8687ZM31.4703 90.8984C31.9234 90.8984 32.3531 90.7812 32.7594 90.5469C33.1656 90.3125 33.4599 90.0078 33.6422 89.6328V87.8984H32.5094C30.7385 87.8984 29.8531 88.4167 29.8531 89.4531C29.8531 89.9062 30.0042 90.2604 30.3062 90.5156C30.6083 90.7708 30.9964 90.8984 31.4703 90.8984ZM44.6594 87.8672C44.6594 89.1589 44.3625 90.1979 43.7687 90.9844C43.175 91.7656 42.3781 92.1562 41.3781 92.1562C40.3104 92.1562 39.4849 91.7786 38.9016 91.0234L38.8312 92H37.5031V80H38.9484V84.4766C39.5318 83.7526 40.3365 83.3906 41.3625 83.3906C42.3885 83.3906 43.1932 83.7786 43.7766 84.5547C44.3651 85.3307 44.6594 86.3932 44.6594 87.7422V87.8672ZM43.2141 87.7031C43.2141 86.7188 43.024 85.9583 42.6437 85.4219C42.2635 84.8854 41.7167 84.6172 41.0031 84.6172C40.05 84.6172 39.3651 85.0599 38.9484 85.9453V89.6016C39.3911 90.487 40.0812 90.9297 41.0187 90.9297C41.7115 90.9297 42.2505 90.6615 42.6359 90.125C43.0214 89.5885 43.2141 88.7812 43.2141 87.7031ZM48.2078 92H46.7625V83.5469H48.2078V92ZM46.6453 81.3047C46.6453 81.0703 46.7156 80.8724 46.8563 80.7109C47.0021 80.5495 47.2156 80.4688 47.4969 80.4688C47.7781 80.4688 47.9917 80.5495 48.1375 80.7109C48.2833 80.8724 48.3563 81.0703 48.3563 81.3047C48.3563 81.5391 48.2833 81.7344 48.1375 81.8906C47.9917 82.0469 47.7781 82.125 47.4969 82.125C47.2156 82.125 47.0021 82.0469 46.8563 81.8906C46.7156 81.7344 46.6453 81.5391 46.6453 81.3047ZM52.6391 81.5V83.5469H54.2172V84.6641H52.6391V89.9062C52.6391 90.2448 52.7094 90.5 52.85 90.6719C52.9906 90.8385 53.2302 90.9219 53.5687 90.9219C53.7354 90.9219 53.9646 90.8906 54.2562 90.8281V92C53.876 92.1042 53.5062 92.1562 53.1469 92.1562C52.501 92.1562 52.0141 91.9609 51.6859 91.5703C51.3578 91.1797 51.1937 90.625 51.1937 89.9062V84.6641H49.6547V83.5469H51.1937V81.5H52.6391ZM64.7828 92H63.3297V82.3672L60.4156 83.4375V82.125L64.5563 80.5703H64.7828V92Z" fill="black" fill-opacity="0.87"/>
<path d="M17.1553 113V103.047H19.9648C20.8307 103.047 21.5964 103.238 22.2617 103.621C22.9271 104.004 23.4398 104.549 23.7998 105.255C24.1644 105.961 24.349 106.772 24.3535 107.688V108.324C24.3535 109.263 24.1712 110.086 23.8066 110.792C23.4466 111.498 22.9294 112.041 22.2549 112.419C21.585 112.797 20.8034 112.991 19.9102 113H17.1553ZM18.4678 104.127V111.927H19.8486C20.8604 111.927 21.6465 111.612 22.207 110.983C22.7721 110.354 23.0547 109.459 23.0547 108.297V107.716C23.0547 106.586 22.7881 105.708 22.2549 105.084C21.7262 104.455 20.9743 104.136 19.999 104.127H18.4678ZM29.4639 113.137C28.4613 113.137 27.6455 112.809 27.0166 112.152C26.3877 111.492 26.0732 110.61 26.0732 109.507V109.274C26.0732 108.541 26.2122 107.887 26.4902 107.312C26.7728 106.734 27.1647 106.283 27.666 105.959C28.1719 105.631 28.7188 105.467 29.3066 105.467C30.2682 105.467 31.0156 105.784 31.5488 106.417C32.082 107.05 32.3486 107.957 32.3486 109.138V109.664H27.3379C27.3561 110.393 27.568 110.983 27.9736 111.435C28.3838 111.881 28.9033 112.104 29.5322 112.104C29.9788 112.104 30.3571 112.013 30.667 111.831C30.9769 111.649 31.248 111.407 31.4805 111.106L32.2529 111.708C31.6331 112.66 30.7035 113.137 29.4639 113.137ZM29.3066 106.506C28.7962 106.506 28.3678 106.693 28.0215 107.066C27.6751 107.436 27.4609 107.955 27.3789 108.625H31.084V108.529C31.0475 107.887 30.8743 107.39 30.5645 107.039C30.2546 106.684 29.8353 106.506 29.3066 106.506ZM38.375 111.038C38.375 110.696 38.2451 110.432 37.9854 110.245C37.7301 110.054 37.2812 109.89 36.6387 109.753C36.0007 109.616 35.4925 109.452 35.1143 109.261C34.7406 109.069 34.4626 108.841 34.2803 108.577C34.1025 108.313 34.0137 107.998 34.0137 107.634C34.0137 107.028 34.2689 106.515 34.7793 106.096C35.2943 105.676 35.9505 105.467 36.748 105.467C37.5866 105.467 38.2656 105.683 38.7852 106.116C39.3092 106.549 39.5713 107.103 39.5713 107.777H38.2998C38.2998 107.431 38.1517 107.132 37.8555 106.882C37.5638 106.631 37.1947 106.506 36.748 106.506C36.2878 106.506 35.9277 106.606 35.668 106.807C35.4082 107.007 35.2783 107.269 35.2783 107.593C35.2783 107.898 35.3991 108.128 35.6406 108.283C35.8822 108.438 36.3174 108.586 36.9463 108.728C37.5798 108.869 38.0924 109.037 38.4844 109.233C38.8763 109.429 39.1657 109.666 39.3525 109.944C39.5439 110.218 39.6396 110.553 39.6396 110.949C39.6396 111.61 39.3753 112.141 38.8467 112.542C38.318 112.938 37.6322 113.137 36.7891 113.137C36.1966 113.137 35.6725 113.032 35.2168 112.822C34.7611 112.613 34.4033 112.321 34.1436 111.947C33.8883 111.569 33.7607 111.161 33.7607 110.724H35.0254C35.0482 111.147 35.2168 111.485 35.5312 111.735C35.8503 111.981 36.2695 112.104 36.7891 112.104C37.2676 112.104 37.6504 112.009 37.9375 111.817C38.2292 111.621 38.375 111.362 38.375 111.038ZM44.5039 112.104C44.9551 112.104 45.3493 111.968 45.6865 111.694C46.0238 111.421 46.2106 111.079 46.2471 110.669H47.4434C47.4206 111.093 47.2747 111.496 47.0059 111.879C46.737 112.262 46.377 112.567 45.9258 112.795C45.4792 113.023 45.0052 113.137 44.5039 113.137C43.4967 113.137 42.6947 112.802 42.0977 112.132C41.5052 111.457 41.209 110.537 41.209 109.37V109.158C41.209 108.438 41.3411 107.798 41.6055 107.237C41.8698 106.677 42.248 106.242 42.7402 105.932C43.237 105.622 43.8226 105.467 44.4971 105.467C45.3265 105.467 46.0146 105.715 46.5615 106.212C47.113 106.709 47.4069 107.354 47.4434 108.146H46.2471C46.2106 107.668 46.0283 107.276 45.7002 106.971C45.3766 106.661 44.9756 106.506 44.4971 106.506C43.8545 106.506 43.3555 106.738 43 107.203C42.6491 107.663 42.4736 108.331 42.4736 109.206V109.445C42.4736 110.298 42.6491 110.954 43 111.414C43.3509 111.874 43.8522 112.104 44.5039 112.104ZM52.6904 106.738C52.499 106.706 52.2917 106.69 52.0684 106.69C51.2389 106.69 50.6761 107.044 50.3799 107.75V113H49.1152V105.604H50.3457L50.3662 106.458C50.7809 105.797 51.3688 105.467 52.1299 105.467C52.376 105.467 52.5628 105.499 52.6904 105.562V106.738ZM55.4834 113H54.2188V105.604H55.4834V113ZM54.1162 103.642C54.1162 103.437 54.1777 103.263 54.3008 103.122C54.4284 102.981 54.6152 102.91 54.8613 102.91C55.1074 102.91 55.2943 102.981 55.4219 103.122C55.5495 103.263 55.6133 103.437 55.6133 103.642C55.6133 103.847 55.5495 104.018 55.4219 104.154C55.2943 104.291 55.1074 104.359 54.8613 104.359C54.6152 104.359 54.4284 104.291 54.3008 104.154C54.1777 104.018 54.1162 103.847 54.1162 103.642ZM64.0117 109.384C64.0117 110.509 63.7542 111.416 63.2393 112.104C62.7243 112.793 62.027 113.137 61.1475 113.137C60.2497 113.137 59.5433 112.852 59.0283 112.282V115.844H57.7637V105.604H58.9189L58.9805 106.424C59.4954 105.786 60.2109 105.467 61.127 105.467C62.0156 105.467 62.7174 105.802 63.2324 106.472C63.752 107.142 64.0117 108.074 64.0117 109.268V109.384ZM62.7471 109.24C62.7471 108.406 62.5693 107.748 62.2139 107.265C61.8584 106.782 61.3708 106.54 60.751 106.54C59.9854 106.54 59.4111 106.88 59.0283 107.559V111.093C59.4066 111.767 59.9854 112.104 60.7646 112.104C61.3708 112.104 61.8516 111.865 62.207 111.387C62.5671 110.904 62.7471 110.188 62.7471 109.24ZM67.5908 103.812V105.604H68.9717V106.581H67.5908V111.168C67.5908 111.464 67.6523 111.688 67.7754 111.838C67.8984 111.984 68.1081 112.057 68.4043 112.057C68.5501 112.057 68.7507 112.029 69.0059 111.975V113C68.6732 113.091 68.3496 113.137 68.0352 113.137C67.4701 113.137 67.0439 112.966 66.7568 112.624C66.4697 112.282 66.3262 111.797 66.3262 111.168V106.581H64.9795V105.604H66.3262V103.812H67.5908ZM72.0791 113H70.8145V105.604H72.0791V113ZM70.7119 103.642C70.7119 103.437 70.7734 103.263 70.8965 103.122C71.0241 102.981 71.2109 102.91 71.457 102.91C71.7031 102.91 71.89 102.981 72.0176 103.122C72.1452 103.263 72.209 103.437 72.209 103.642C72.209 103.847 72.1452 104.018 72.0176 104.154C71.89 104.291 71.7031 104.359 71.457 104.359C71.2109 104.359 71.0241 104.291 70.8965 104.154C70.7734 104.018 70.7119 103.847 70.7119 103.642ZM74.0244 109.233C74.0244 108.509 74.1657 107.857 74.4482 107.278C74.7354 106.7 75.1318 106.253 75.6377 105.938C76.1481 105.624 76.7292 105.467 77.3809 105.467C78.388 105.467 79.2015 105.815 79.8213 106.513C80.4456 107.21 80.7578 108.137 80.7578 109.295V109.384C80.7578 110.104 80.6188 110.751 80.3408 111.325C80.0674 111.895 79.6732 112.339 79.1582 112.658C78.6478 112.977 78.0599 113.137 77.3945 113.137C76.3919 113.137 75.5785 112.788 74.9541 112.091C74.3343 111.394 74.0244 110.471 74.0244 109.322V109.233ZM75.2959 109.384C75.2959 110.204 75.485 110.863 75.8633 111.359C76.2461 111.856 76.7565 112.104 77.3945 112.104C78.0371 112.104 78.5475 111.854 78.9258 111.353C79.304 110.847 79.4932 110.14 79.4932 109.233C79.4932 108.422 79.2995 107.766 78.9121 107.265C78.5293 106.759 78.0189 106.506 77.3809 106.506C76.7565 106.506 76.2529 106.754 75.8701 107.251C75.4873 107.748 75.2959 108.459 75.2959 109.384ZM83.79 105.604L83.8311 106.533C84.3962 105.822 85.1344 105.467 86.0459 105.467C87.609 105.467 88.3975 106.349 88.4111 108.112V113H87.1465V108.105C87.1419 107.572 87.0189 107.178 86.7773 106.923C86.5404 106.668 86.1689 106.54 85.6631 106.54C85.2529 106.54 84.8929 106.649 84.583 106.868C84.2731 107.087 84.0316 107.374 83.8584 107.729V113H82.5938V105.604H83.79ZM94.9131 113V106.581H93.7441V105.604H94.9131V104.845C94.9131 104.052 95.125 103.439 95.5488 103.006C95.9727 102.573 96.5719 102.356 97.3467 102.356C97.6383 102.356 97.9277 102.395 98.2148 102.473L98.1465 103.498C97.9323 103.457 97.7044 103.437 97.4629 103.437C97.0527 103.437 96.736 103.557 96.5127 103.799C96.2894 104.036 96.1777 104.378 96.1777 104.824V105.604H97.7568V106.581H96.1777V113H94.9131ZM99.0732 109.233C99.0732 108.509 99.2145 107.857 99.4971 107.278C99.7842 106.7 100.181 106.253 100.687 105.938C101.197 105.624 101.778 105.467 102.43 105.467C103.437 105.467 104.25 105.815 104.87 106.513C105.494 107.21 105.807 108.137 105.807 109.295V109.384C105.807 110.104 105.668 110.751 105.39 111.325C105.116 111.895 104.722 112.339 104.207 112.658C103.697 112.977 103.109 113.137 102.443 113.137C101.441 113.137 100.627 112.788 100.003 112.091C99.3831 111.394 99.0732 110.471 99.0732 109.322V109.233ZM100.345 109.384C100.345 110.204 100.534 110.863 100.912 111.359C101.295 111.856 101.805 112.104 102.443 112.104C103.086 112.104 103.596 111.854 103.975 111.353C104.353 110.847 104.542 110.14 104.542 109.233C104.542 108.422 104.348 107.766 103.961 107.265C103.578 106.759 103.068 106.506 102.43 106.506C101.805 106.506 101.302 106.754 100.919 107.251C100.536 107.748 100.345 108.459 100.345 109.384ZM111.218 106.738C111.026 106.706 110.819 106.69 110.596 106.69C109.766 106.69 109.203 107.044 108.907 107.75V113H107.643V105.604H108.873L108.894 106.458C109.308 105.797 109.896 105.467 110.657 105.467C110.903 105.467 111.09 105.499 111.218 105.562V106.738ZM124.207 113H122.888V108.399H117.87V113H116.558V103.047H117.87V107.326H122.888V103.047H124.207V113ZM131.156 113C131.083 112.854 131.024 112.594 130.979 112.221C130.391 112.831 129.689 113.137 128.873 113.137C128.144 113.137 127.545 112.932 127.075 112.521C126.61 112.107 126.378 111.583 126.378 110.949C126.378 110.179 126.67 109.582 127.253 109.158C127.841 108.73 128.666 108.516 129.728 108.516H130.958V107.935C130.958 107.493 130.826 107.142 130.562 106.882C130.297 106.618 129.908 106.485 129.393 106.485C128.941 106.485 128.563 106.599 128.258 106.827C127.952 107.055 127.8 107.331 127.8 107.654H126.528C126.528 107.285 126.658 106.93 126.918 106.588C127.182 106.242 127.538 105.968 127.984 105.768C128.436 105.567 128.93 105.467 129.468 105.467C130.32 105.467 130.988 105.681 131.471 106.109C131.954 106.533 132.204 107.119 132.223 107.866V111.271C132.223 111.95 132.309 112.49 132.482 112.891V113H131.156ZM129.058 112.036C129.454 112.036 129.83 111.934 130.186 111.729C130.541 111.523 130.799 111.257 130.958 110.929V109.411H129.967C128.417 109.411 127.643 109.865 127.643 110.771C127.643 111.168 127.775 111.478 128.039 111.701C128.303 111.924 128.643 112.036 129.058 112.036ZM140.717 109.384C140.717 110.514 140.457 111.423 139.938 112.111C139.418 112.795 138.721 113.137 137.846 113.137C136.911 113.137 136.189 112.806 135.679 112.146L135.617 113H134.455V102.5H135.72V106.417C136.23 105.784 136.934 105.467 137.832 105.467C138.73 105.467 139.434 105.806 139.944 106.485C140.459 107.164 140.717 108.094 140.717 109.274V109.384ZM139.452 109.24C139.452 108.379 139.286 107.714 138.953 107.244C138.62 106.775 138.142 106.54 137.518 106.54C136.684 106.54 136.084 106.927 135.72 107.702V110.901C136.107 111.676 136.711 112.063 137.531 112.063C138.137 112.063 138.609 111.829 138.946 111.359C139.284 110.89 139.452 110.184 139.452 109.24ZM143.94 113H142.676V105.604H143.94V113ZM142.573 103.642C142.573 103.437 142.635 103.263 142.758 103.122C142.885 102.981 143.072 102.91 143.318 102.91C143.564 102.91 143.751 102.981 143.879 103.122C144.007 103.263 144.07 103.437 144.07 103.642C144.07 103.847 144.007 104.018 143.879 104.154C143.751 104.291 143.564 104.359 143.318 104.359C143.072 104.359 142.885 104.291 142.758 104.154C142.635 104.018 142.573 103.847 142.573 103.642ZM147.937 103.812V105.604H149.317V106.581H147.937V111.168C147.937 111.464 147.998 111.688 148.121 111.838C148.244 111.984 148.454 112.057 148.75 112.057C148.896 112.057 149.096 112.029 149.352 111.975V113C149.019 113.091 148.695 113.137 148.381 113.137C147.816 113.137 147.39 112.966 147.103 112.624C146.815 112.282 146.672 111.797 146.672 111.168V106.581H145.325V105.604H146.672V103.812H147.937ZM158.8 113H157.528V104.571L154.979 105.508V104.359L158.602 102.999H158.8V113Z" fill="black" fill-opacity="0.6"/>
<path fill-rule="evenodd" clip-rule="evenodd" d="M382 94C383.1 94 384 93.1 384 92C384 90.9 383.1 90 382 90C380.9 90 380 90.9 380 92C380 93.1 380.9 94 382 94ZM382 96C380.9 96 380 96.9 380 98C380 99.1 380.9 100 382 100C383.1 100 384 99.1 384 98C384 96.9 383.1 96 382 96ZM382 102C380.9 102 380 102.9 380 104C380 105.1 380.9 106 382 106C383.1 106 384 105.1 384 104C384 102.9 383.1 102 382 102Z" fill="black" fill-opacity="0.6"/>
<rect x="17.5111" y="129" width="376.489" height="1" fill="#212121" fill-opacity="0.08"/>
</g>
<mask id="mask1" style="mask-type:alpha" maskUnits="userSpaceOnUse" x="0" y="140" width="394" height="64">
<rect y="140" width="394" height="64" fill="white"/>
</mask>
<g mask="url(#mask1)">
<path d="M26.0625 166H24.5547V160.742H18.8203V166H17.3203V154.625H18.8203V159.516H24.5547V154.625H26.0625V166ZM33.8687 166C33.7854 165.833 33.7177 165.536 33.6656 165.109C32.9937 165.807 32.1917 166.156 31.2594 166.156C30.426 166.156 29.7411 165.922 29.2047 165.453C28.6734 164.979 28.4078 164.38 28.4078 163.656C28.4078 162.776 28.7411 162.094 29.4078 161.609C30.0797 161.12 31.0224 160.875 32.2359 160.875H33.6422V160.211C33.6422 159.706 33.4911 159.305 33.1891 159.008C32.887 158.706 32.4417 158.555 31.8531 158.555C31.3375 158.555 30.9052 158.685 30.5562 158.945C30.2073 159.206 30.0328 159.521 30.0328 159.891H28.5797C28.5797 159.469 28.7281 159.062 29.025 158.672C29.3271 158.276 29.7333 157.964 30.2437 157.734C30.7594 157.505 31.3245 157.391 31.9391 157.391C32.913 157.391 33.676 157.635 34.2281 158.125C34.7802 158.609 35.0667 159.279 35.0875 160.133V164.023C35.0875 164.799 35.1865 165.417 35.3844 165.875V166H33.8687ZM31.4703 164.898C31.9234 164.898 32.3531 164.781 32.7594 164.547C33.1656 164.312 33.4599 164.008 33.6422 163.633V161.898H32.5094C30.7385 161.898 29.8531 162.417 29.8531 163.453C29.8531 163.906 30.0042 164.26 30.3062 164.516C30.6083 164.771 30.9964 164.898 31.4703 164.898ZM44.6594 161.867C44.6594 163.159 44.3625 164.198 43.7687 164.984C43.175 165.766 42.3781 166.156 41.3781 166.156C40.3104 166.156 39.4849 165.779 38.9016 165.023L38.8312 166H37.5031V154H38.9484V158.477C39.5318 157.753 40.3365 157.391 41.3625 157.391C42.3885 157.391 43.1932 157.779 43.7766 158.555C44.3651 159.331 44.6594 160.393 44.6594 161.742V161.867ZM43.2141 161.703C43.2141 160.719 43.024 159.958 42.6437 159.422C42.2635 158.885 41.7167 158.617 41.0031 158.617C40.05 158.617 39.3651 159.06 38.9484 159.945V163.602C39.3911 164.487 40.0812 164.93 41.0187 164.93C41.7115 164.93 42.2505 164.661 42.6359 164.125C43.0214 163.589 43.2141 162.781 43.2141 161.703ZM48.2078 166H46.7625V157.547H48.2078V166ZM46.6453 155.305C46.6453 155.07 46.7156 154.872 46.8563 154.711C47.0021 154.549 47.2156 154.469 47.4969 154.469C47.7781 154.469 47.9917 154.549 48.1375 154.711C48.2833 154.872 48.3563 155.07 48.3563 155.305C48.3563 155.539 48.2833 155.734 48.1375 155.891C47.9917 156.047 47.7781 156.125 47.4969 156.125C47.2156 156.125 47.0021 156.047 46.8563 155.891C46.7156 155.734 46.6453 155.539 46.6453 155.305ZM52.6391 155.5V157.547H54.2172V158.664H52.6391V163.906C52.6391 164.245 52.7094 164.5 52.85 164.672C52.9906 164.839 53.2302 164.922 53.5687 164.922C53.7354 164.922 53.9646 164.891 54.2562 164.828V166C53.876 166.104 53.5062 166.156 53.1469 166.156C52.501 166.156 52.0141 165.961 51.6859 165.57C51.3578 165.18 51.1937 164.625 51.1937 163.906V158.664H49.6547V157.547H51.1937V155.5H52.6391ZM67.4859 166H60.0328V164.961L63.9703 160.586C64.5536 159.924 64.9547 159.388 65.1734 158.977C65.3974 158.56 65.5094 158.13 65.5094 157.688C65.5094 157.094 65.3297 156.607 64.9703 156.227C64.6109 155.846 64.1318 155.656 63.5328 155.656C62.8141 155.656 62.2542 155.862 61.8531 156.273C61.4573 156.68 61.2594 157.247 61.2594 157.977H59.8141C59.8141 156.93 60.15 156.083 60.8219 155.438C61.499 154.792 62.4026 154.469 63.5328 154.469C64.5901 154.469 65.426 154.747 66.0406 155.305C66.6552 155.857 66.9625 156.594 66.9625 157.516C66.9625 158.635 66.249 159.969 64.8219 161.516L61.775 164.82H67.4859V166Z" fill="black" fill-opacity="0.87"/>
<path d="M17.1553 187V177.047H19.9648C20.8307 177.047 21.5964 177.238 22.2617 177.621C22.9271 178.004 23.4398 178.549 23.7998 179.255C24.1644 179.961 24.349 180.772 24.3535 181.688V182.324C24.3535 183.263 24.1712 184.086 23.8066 184.792C23.4466 185.498 22.9294 186.041 22.2549 186.419C21.585 186.797 20.8034 186.991 19.9102 187H17.1553ZM18.4678 178.127V185.927H19.8486C20.8604 185.927 21.6465 185.612 22.207 184.983C22.7721 184.354 23.0547 183.459 23.0547 182.297V181.716C23.0547 180.586 22.7881 179.708 22.2549 179.084C21.7262 178.455 20.9743 178.136 19.999 178.127H18.4678ZM29.4639 187.137C28.4613 187.137 27.6455 186.809 27.0166 186.152C26.3877 185.492 26.0732 184.61 26.0732 183.507V183.274C26.0732 182.541 26.2122 181.887 26.4902 181.312C26.7728 180.734 27.1647 180.283 27.666 179.959C28.1719 179.631 28.7188 179.467 29.3066 179.467C30.2682 179.467 31.0156 179.784 31.5488 180.417C32.082 181.05 32.3486 181.957 32.3486 183.138V183.664H27.3379C27.3561 184.393 27.568 184.983 27.9736 185.435C28.3838 185.881 28.9033 186.104 29.5322 186.104C29.9788 186.104 30.3571 186.013 30.667 185.831C30.9769 185.649 31.248 185.407 31.4805 185.106L32.2529 185.708C31.6331 186.66 30.7035 187.137 29.4639 187.137ZM29.3066 180.506C28.7962 180.506 28.3678 180.693 28.0215 181.066C27.6751 181.436 27.4609 181.955 27.3789 182.625H31.084V182.529C31.0475 181.887 30.8743 181.39 30.5645 181.039C30.2546 180.684 29.8353 180.506 29.3066 180.506ZM38.375 185.038C38.375 184.696 38.2451 184.432 37.9854 184.245C37.7301 184.054 37.2812 183.89 36.6387 183.753C36.0007 183.616 35.4925 183.452 35.1143 183.261C34.7406 183.069 34.4626 182.841 34.2803 182.577C34.1025 182.313 34.0137 181.998 34.0137 181.634C34.0137 181.028 34.2689 180.515 34.7793 180.096C35.2943 179.676 35.9505 179.467 36.748 179.467C37.5866 179.467 38.2656 179.683 38.7852 180.116C39.3092 180.549 39.5713 181.103 39.5713 181.777H38.2998C38.2998 181.431 38.1517 181.132 37.8555 180.882C37.5638 180.631 37.1947 180.506 36.748 180.506C36.2878 180.506 35.9277 180.606 35.668 180.807C35.4082 181.007 35.2783 181.269 35.2783 181.593C35.2783 181.898 35.3991 182.128 35.6406 182.283C35.8822 182.438 36.3174 182.586 36.9463 182.728C37.5798 182.869 38.0924 183.037 38.4844 183.233C38.8763 183.429 39.1657 183.666 39.3525 183.944C39.5439 184.218 39.6396 184.553 39.6396 184.949C39.6396 185.61 39.3753 186.141 38.8467 186.542C38.318 186.938 37.6322 187.137 36.7891 187.137C36.1966 187.137 35.6725 187.032 35.2168 186.822C34.7611 186.613 34.4033 186.321 34.1436 185.947C33.8883 185.569 33.7607 185.161 33.7607 184.724H35.0254C35.0482 185.147 35.2168 185.485 35.5312 185.735C35.8503 185.981 36.2695 186.104 36.7891 186.104C37.2676 186.104 37.6504 186.009 37.9375 185.817C38.2292 185.621 38.375 185.362 38.375 185.038ZM44.5039 186.104C44.9551 186.104 45.3493 185.968 45.6865 185.694C46.0238 185.421 46.2106 185.079 46.2471 184.669H47.4434C47.4206 185.093 47.2747 185.496 47.0059 185.879C46.737 186.262 46.377 186.567 45.9258 186.795C45.4792 187.023 45.0052 187.137 44.5039 187.137C43.4967 187.137 42.6947 186.802 42.0977 186.132C41.5052 185.457 41.209 184.537 41.209 183.37V183.158C41.209 182.438 41.3411 181.798 41.6055 181.237C41.8698 180.677 42.248 180.242 42.7402 179.932C43.237 179.622 43.8226 179.467 44.4971 179.467C45.3265 179.467 46.0146 179.715 46.5615 180.212C47.113 180.709 47.4069 181.354 47.4434 182.146H46.2471C46.2106 181.668 46.0283 181.276 45.7002 180.971C45.3766 180.661 44.9756 180.506 44.4971 180.506C43.8545 180.506 43.3555 180.738 43 181.203C42.6491 181.663 42.4736 182.331 42.4736 183.206V183.445C42.4736 184.298 42.6491 184.954 43 185.414C43.3509 185.874 43.8522 186.104 44.5039 186.104ZM52.6904 180.738C52.499 180.706 52.2917 180.69 52.0684 180.69C51.2389 180.69 50.6761 181.044 50.3799 181.75V187H49.1152V179.604H50.3457L50.3662 180.458C50.7809 179.797 51.3688 179.467 52.1299 179.467C52.376 179.467 52.5628 179.499 52.6904 179.562V180.738ZM55.4834 187H54.2188V179.604H55.4834V187ZM54.1162 177.642C54.1162 177.437 54.1777 177.263 54.3008 177.122C54.4284 176.981 54.6152 176.91 54.8613 176.91C55.1074 176.91 55.2943 176.981 55.4219 177.122C55.5495 177.263 55.6133 177.437 55.6133 177.642C55.6133 177.847 55.5495 178.018 55.4219 178.154C55.2943 178.291 55.1074 178.359 54.8613 178.359C54.6152 178.359 54.4284 178.291 54.3008 178.154C54.1777 178.018 54.1162 177.847 54.1162 177.642ZM64.0117 183.384C64.0117 184.509 63.7542 185.416 63.2393 186.104C62.7243 186.793 62.027 187.137 61.1475 187.137C60.2497 187.137 59.5433 186.852 59.0283 186.282V189.844H57.7637V179.604H58.9189L58.9805 180.424C59.4954 179.786 60.2109 179.467 61.127 179.467C62.0156 179.467 62.7174 179.802 63.2324 180.472C63.752 181.142 64.0117 182.074 64.0117 183.268V183.384ZM62.7471 183.24C62.7471 182.406 62.5693 181.748 62.2139 181.265C61.8584 180.782 61.3708 180.54 60.751 180.54C59.9854 180.54 59.4111 180.88 59.0283 181.559V185.093C59.4066 185.767 59.9854 186.104 60.7646 186.104C61.3708 186.104 61.8516 185.865 62.207 185.387C62.5671 184.904 62.7471 184.188 62.7471 183.24ZM67.5908 177.812V179.604H68.9717V180.581H67.5908V185.168C67.5908 185.464 67.6523 185.688 67.7754 185.838C67.8984 185.984 68.1081 186.057 68.4043 186.057C68.5501 186.057 68.7507 186.029 69.0059 185.975V187C68.6732 187.091 68.3496 187.137 68.0352 187.137C67.4701 187.137 67.0439 186.966 66.7568 186.624C66.4697 186.282 66.3262 185.797 66.3262 185.168V180.581H64.9795V179.604H66.3262V177.812H67.5908ZM72.0791 187H70.8145V179.604H72.0791V187ZM70.7119 177.642C70.7119 177.437 70.7734 177.263 70.8965 177.122C71.0241 176.981 71.2109 176.91 71.457 176.91C71.7031 176.91 71.89 176.981 72.0176 177.122C72.1452 177.263 72.209 177.437 72.209 177.642C72.209 177.847 72.1452 178.018 72.0176 178.154C71.89 178.291 71.7031 178.359 71.457 178.359C71.2109 178.359 71.0241 178.291 70.8965 178.154C70.7734 178.018 70.7119 177.847 70.7119 177.642ZM74.0244 183.233C74.0244 182.509 74.1657 181.857 74.4482 181.278C74.7354 180.7 75.1318 180.253 75.6377 179.938C76.1481 179.624 76.7292 179.467 77.3809 179.467C78.388 179.467 79.2015 179.815 79.8213 180.513C80.4456 181.21 80.7578 182.137 80.7578 183.295V183.384C80.7578 184.104 80.6188 184.751 80.3408 185.325C80.0674 185.895 79.6732 186.339 79.1582 186.658C78.6478 186.977 78.0599 187.137 77.3945 187.137C76.3919 187.137 75.5785 186.788 74.9541 186.091C74.3343 185.394 74.0244 184.471 74.0244 183.322V183.233ZM75.2959 183.384C75.2959 184.204 75.485 184.863 75.8633 185.359C76.2461 185.856 76.7565 186.104 77.3945 186.104C78.0371 186.104 78.5475 185.854 78.9258 185.353C79.304 184.847 79.4932 184.14 79.4932 183.233C79.4932 182.422 79.2995 181.766 78.9121 181.265C78.5293 180.759 78.0189 180.506 77.3809 180.506C76.7565 180.506 76.2529 180.754 75.8701 181.251C75.4873 181.748 75.2959 182.459 75.2959 183.384ZM83.79 179.604L83.8311 180.533C84.3962 179.822 85.1344 179.467 86.0459 179.467C87.609 179.467 88.3975 180.349 88.4111 182.112V187H87.1465V182.105C87.1419 181.572 87.0189 181.178 86.7773 180.923C86.5404 180.668 86.1689 180.54 85.6631 180.54C85.2529 180.54 84.8929 180.649 84.583 180.868C84.2731 181.087 84.0316 181.374 83.8584 181.729V187H82.5938V179.604H83.79ZM94.9131 187V180.581H93.7441V179.604H94.9131V178.845C94.9131 178.052 95.125 177.439 95.5488 177.006C95.9727 176.573 96.5719 176.356 97.3467 176.356C97.6383 176.356 97.9277 176.395 98.2148 176.473L98.1465 177.498C97.9323 177.457 97.7044 177.437 97.4629 177.437C97.0527 177.437 96.736 177.557 96.5127 177.799C96.2894 178.036 96.1777 178.378 96.1777 178.824V179.604H97.7568V180.581H96.1777V187H94.9131ZM99.0732 183.233C99.0732 182.509 99.2145 181.857 99.4971 181.278C99.7842 180.7 100.181 180.253 100.687 179.938C101.197 179.624 101.778 179.467 102.43 179.467C103.437 179.467 104.25 179.815 104.87 180.513C105.494 181.21 105.807 182.137 105.807 183.295V183.384C105.807 184.104 105.668 184.751 105.39 185.325C105.116 185.895 104.722 186.339 104.207 186.658C103.697 186.977 103.109 187.137 102.443 187.137C101.441 187.137 100.627 186.788 100.003 186.091C99.3831 185.394 99.0732 184.471 99.0732 183.322V183.233ZM100.345 183.384C100.345 184.204 100.534 184.863 100.912 185.359C101.295 185.856 101.805 186.104 102.443 186.104C103.086 186.104 103.596 185.854 103.975 185.353C104.353 184.847 104.542 184.14 104.542 183.233C104.542 182.422 104.348 181.766 103.961 181.265C103.578 180.759 103.068 180.506 102.43 180.506C101.805 180.506 101.302 180.754 100.919 181.251C100.536 181.748 100.345 182.459 100.345 183.384ZM111.218 180.738C111.026 180.706 110.819 180.69 110.596 180.69C109.766 180.69 109.203 181.044 108.907 181.75V187H107.643V179.604H108.873L108.894 180.458C109.308 179.797 109.896 179.467 110.657 179.467C110.903 179.467 111.09 179.499 111.218 179.562V180.738ZM124.207 187H122.888V182.399H117.87V187H116.558V177.047H117.87V181.326H122.888V177.047H124.207V187ZM131.156 187C131.083 186.854 131.024 186.594 130.979 186.221C130.391 186.831 129.689 187.137 128.873 187.137C128.144 187.137 127.545 186.932 127.075 186.521C126.61 186.107 126.378 185.583 126.378 184.949C126.378 184.179 126.67 183.582 127.253 183.158C127.841 182.73 128.666 182.516 129.728 182.516H130.958V181.935C130.958 181.493 130.826 181.142 130.562 180.882C130.297 180.618 129.908 180.485 129.393 180.485C128.941 180.485 128.563 180.599 128.258 180.827C127.952 181.055 127.8 181.331 127.8 181.654H126.528C126.528 181.285 126.658 180.93 126.918 180.588C127.182 180.242 127.538 179.968 127.984 179.768C128.436 179.567 128.93 179.467 129.468 179.467C130.32 179.467 130.988 179.681 131.471 180.109C131.954 180.533 132.204 181.119 132.223 181.866V185.271C132.223 185.95 132.309 186.49 132.482 186.891V187H131.156ZM129.058 186.036C129.454 186.036 129.83 185.934 130.186 185.729C130.541 185.523 130.799 185.257 130.958 184.929V183.411H129.967C128.417 183.411 127.643 183.865 127.643 184.771C127.643 185.168 127.775 185.478 128.039 185.701C128.303 185.924 128.643 186.036 129.058 186.036ZM140.717 183.384C140.717 184.514 140.457 185.423 139.938 186.111C139.418 186.795 138.721 187.137 137.846 187.137C136.911 187.137 136.189 186.806 135.679 186.146L135.617 187H134.455V176.5H135.72V180.417C136.23 179.784 136.934 179.467 137.832 179.467C138.73 179.467 139.434 179.806 139.944 180.485C140.459 181.164 140.717 182.094 140.717 183.274V183.384ZM139.452 183.24C139.452 182.379 139.286 181.714 138.953 181.244C138.62 180.775 138.142 180.54 137.518 180.54C136.684 180.54 136.084 180.927 135.72 181.702V184.901C136.107 185.676 136.711 186.063 137.531 186.063C138.137 186.063 138.609 185.829 138.946 185.359C139.284 184.89 139.452 184.184 139.452 183.24ZM143.94 187H142.676V179.604H143.94V187ZM142.573 177.642C142.573 177.437 142.635 177.263 142.758 177.122C142.885 176.981 143.072 176.91 143.318 176.91C143.564 176.91 143.751 176.981 143.879 177.122C144.007 177.263 144.07 177.437 144.07 177.642C144.07 177.847 144.007 178.018 143.879 178.154C143.751 178.291 143.564 178.359 143.318 178.359C143.072 178.359 142.885 178.291 142.758 178.154C142.635 178.018 142.573 177.847 142.573 177.642ZM147.937 177.812V179.604H149.317V180.581H147.937V185.168C147.937 185.464 147.998 185.688 148.121 185.838C148.244 185.984 148.454 186.057 148.75 186.057C148.896 186.057 149.096 186.029 149.352 185.975V187C149.019 187.091 148.695 187.137 148.381 187.137C147.816 187.137 147.39 186.966 147.103 186.624C146.815 186.282 146.672 185.797 146.672 185.168V180.581H145.325V179.604H146.672V177.812H147.937ZM161.165 187H154.644V186.091L158.089 182.263C158.599 181.684 158.95 181.215 159.142 180.854C159.338 180.49 159.436 180.114 159.436 179.727C159.436 179.207 159.278 178.781 158.964 178.448C158.649 178.116 158.23 177.949 157.706 177.949C157.077 177.949 156.587 178.129 156.236 178.489C155.89 178.845 155.717 179.341 155.717 179.979H154.452C154.452 179.063 154.746 178.323 155.334 177.758C155.926 177.193 156.717 176.91 157.706 176.91C158.631 176.91 159.363 177.154 159.9 177.642C160.438 178.125 160.707 178.77 160.707 179.576C160.707 180.556 160.083 181.723 158.834 183.076L156.168 185.968H161.165V187Z" fill="black" fill-opacity="0.6"/>
<path fill-rule="evenodd" clip-rule="evenodd" d="M382 168C383.1 168 384 167.1 384 166C384 164.9 383.1 164 382 164C380.9 164 380 164.9 380 166C380 167.1 380.9 168 382 168ZM382 170C380.9 170 380 170.9 380 172C380 173.1 380.9 174 382 174C383.1 174 384 173.1 384 172C384 170.9 383.1 170 382 170ZM382 176C380.9 176 380 176.9 380 178C380 179.1 380.9 180 382 180C383.1 180 384 179.1 384 178C384 176.9 383.1 176 382 176Z" fill="black" fill-opacity="0.6"/>
<rect x="17.5111" y="203" width="376.489" height="1" fill="#212121" fill-opacity="0.08"/>
</g>
<mask id="mask2" style="mask-type:alpha" maskUnits="userSpaceOnUse" x="0" y="214" width="394" height="64">
<rect y="214" width="394" height="64" fill="white"/>
</mask>
<g mask="url(#mask2)">
<path d="M26.0625 240H24.5547V234.742H18.8203V240H17.3203V228.625H18.8203V233.516H24.5547V228.625H26.0625V240ZM33.8687 240C33.7854 239.833 33.7177 239.536 33.6656 239.109C32.9937 239.807 32.1917 240.156 31.2594 240.156C30.426 240.156 29.7411 239.922 29.2047 239.453C28.6734 238.979 28.4078 238.38 28.4078 237.656C28.4078 236.776 28.7411 236.094 29.4078 235.609C30.0797 235.12 31.0224 234.875 32.2359 234.875H33.6422V234.211C33.6422 233.706 33.4911 233.305 33.1891 233.008C32.887 232.706 32.4417 232.555 31.8531 232.555C31.3375 232.555 30.9052 232.685 30.5562 232.945C30.2073 233.206 30.0328 233.521 30.0328 233.891H28.5797C28.5797 233.469 28.7281 233.062 29.025 232.672C29.3271 232.276 29.7333 231.964 30.2437 231.734C30.7594 231.505 31.3245 231.391 31.9391 231.391C32.913 231.391 33.676 231.635 34.2281 232.125C34.7802 232.609 35.0667 233.279 35.0875 234.133V238.023C35.0875 238.799 35.1865 239.417 35.3844 239.875V240H33.8687ZM31.4703 238.898C31.9234 238.898 32.3531 238.781 32.7594 238.547C33.1656 238.312 33.4599 238.008 33.6422 237.633V235.898H32.5094C30.7385 235.898 29.8531 236.417 29.8531 237.453C29.8531 237.906 30.0042 238.26 30.3062 238.516C30.6083 238.771 30.9964 238.898 31.4703 238.898ZM44.6594 235.867C44.6594 237.159 44.3625 238.198 43.7687 238.984C43.175 239.766 42.3781 240.156 41.3781 240.156C40.3104 240.156 39.4849 239.779 38.9016 239.023L38.8312 240H37.5031V228H38.9484V232.477C39.5318 231.753 40.3365 231.391 41.3625 231.391C42.3885 231.391 43.1932 231.779 43.7766 232.555C44.3651 233.331 44.6594 234.393 44.6594 235.742V235.867ZM43.2141 235.703C43.2141 234.719 43.024 233.958 42.6437 233.422C42.2635 232.885 41.7167 232.617 41.0031 232.617C40.05 232.617 39.3651 233.06 38.9484 233.945V237.602C39.3911 238.487 40.0812 238.93 41.0187 238.93C41.7115 238.93 42.2505 238.661 42.6359 238.125C43.0214 237.589 43.2141 236.781 43.2141 235.703ZM48.2078 240H46.7625V231.547H48.2078V240ZM46.6453 229.305C46.6453 229.07 46.7156 228.872 46.8563 228.711C47.0021 228.549 47.2156 228.469 47.4969 228.469C47.7781 228.469 47.9917 228.549 48.1375 228.711C48.2833 228.872 48.3563 229.07 48.3563 229.305C48.3563 229.539 48.2833 229.734 48.1375 229.891C47.9917 230.047 47.7781 230.125 47.4969 230.125C47.2156 230.125 47.0021 230.047 46.8563 229.891C46.7156 229.734 46.6453 229.539 46.6453 229.305ZM52.6391 229.5V231.547H54.2172V232.664H52.6391V237.906C52.6391 238.245 52.7094 238.5 52.85 238.672C52.9906 238.839 53.2302 238.922 53.5687 238.922C53.7354 238.922 53.9646 238.891 54.2562 238.828V240C53.876 240.104 53.5062 240.156 53.1469 240.156C52.501 240.156 52.0141 239.961 51.6859 239.57C51.3578 239.18 51.1937 238.625 51.1937 237.906V232.664H49.6547V231.547H51.1937V229.5H52.6391ZM62.1344 233.609H63.2203C63.9026 233.599 64.4391 233.419 64.8297 233.07C65.2203 232.721 65.4156 232.25 65.4156 231.656C65.4156 230.323 64.7516 229.656 63.4234 229.656C62.7984 229.656 62.2984 229.836 61.9234 230.195C61.5536 230.549 61.3688 231.021 61.3688 231.609H59.9234C59.9234 230.708 60.2516 229.961 60.9078 229.367C61.5693 228.768 62.4078 228.469 63.4234 228.469C64.4964 228.469 65.3375 228.753 65.9469 229.32C66.5563 229.888 66.8609 230.677 66.8609 231.688C66.8609 232.182 66.6995 232.661 66.3766 233.125C66.0589 233.589 65.624 233.935 65.0719 234.164C65.6969 234.362 66.1786 234.69 66.5172 235.148C66.8609 235.607 67.0328 236.167 67.0328 236.828C67.0328 237.849 66.6995 238.659 66.0328 239.258C65.3661 239.857 64.499 240.156 63.4313 240.156C62.3635 240.156 61.4938 239.867 60.8219 239.289C60.1552 238.711 59.8219 237.948 59.8219 237H61.275C61.275 237.599 61.4703 238.078 61.8609 238.438C62.2516 238.797 62.775 238.977 63.4313 238.977C64.1292 238.977 64.663 238.794 65.0328 238.43C65.4026 238.065 65.5875 237.542 65.5875 236.859C65.5875 236.198 65.3844 235.69 64.9781 235.336C64.5719 234.982 63.9859 234.799 63.2203 234.789H62.1344V233.609Z" fill="black" fill-opacity="0.87"/>
<path d="M17.1553 261V251.047H19.9648C20.8307 251.047 21.5964 251.238 22.2617 251.621C22.9271 252.004 23.4398 252.549 23.7998 253.255C24.1644 253.961 24.349 254.772 24.3535 255.688V256.324C24.3535 257.263 24.1712 258.086 23.8066 258.792C23.4466 259.498 22.9294 260.041 22.2549 260.419C21.585 260.797 20.8034 260.991 19.9102 261H17.1553ZM18.4678 252.127V259.927H19.8486C20.8604 259.927 21.6465 259.612 22.207 258.983C22.7721 258.354 23.0547 257.459 23.0547 256.297V255.716C23.0547 254.586 22.7881 253.708 22.2549 253.084C21.7262 252.455 20.9743 252.136 19.999 252.127H18.4678ZM29.4639 261.137C28.4613 261.137 27.6455 260.809 27.0166 260.152C26.3877 259.492 26.0732 258.61 26.0732 257.507V257.274C26.0732 256.541 26.2122 255.887 26.4902 255.312C26.7728 254.734 27.1647 254.283 27.666 253.959C28.1719 253.631 28.7188 253.467 29.3066 253.467C30.2682 253.467 31.0156 253.784 31.5488 254.417C32.082 255.05 32.3486 255.957 32.3486 257.138V257.664H27.3379C27.3561 258.393 27.568 258.983 27.9736 259.435C28.3838 259.881 28.9033 260.104 29.5322 260.104C29.9788 260.104 30.3571 260.013 30.667 259.831C30.9769 259.649 31.248 259.407 31.4805 259.106L32.2529 259.708C31.6331 260.66 30.7035 261.137 29.4639 261.137ZM29.3066 254.506C28.7962 254.506 28.3678 254.693 28.0215 255.066C27.6751 255.436 27.4609 255.955 27.3789 256.625H31.084V256.529C31.0475 255.887 30.8743 255.39 30.5645 255.039C30.2546 254.684 29.8353 254.506 29.3066 254.506ZM38.375 259.038C38.375 258.696 38.2451 258.432 37.9854 258.245C37.7301 258.054 37.2812 257.89 36.6387 257.753C36.0007 257.616 35.4925 257.452 35.1143 257.261C34.7406 257.069 34.4626 256.841 34.2803 256.577C34.1025 256.313 34.0137 255.998 34.0137 255.634C34.0137 255.028 34.2689 254.515 34.7793 254.096C35.2943 253.676 35.9505 253.467 36.748 253.467C37.5866 253.467 38.2656 253.683 38.7852 254.116C39.3092 254.549 39.5713 255.103 39.5713 255.777H38.2998C38.2998 255.431 38.1517 255.132 37.8555 254.882C37.5638 254.631 37.1947 254.506 36.748 254.506C36.2878 254.506 35.9277 254.606 35.668 254.807C35.4082 255.007 35.2783 255.269 35.2783 255.593C35.2783 255.898 35.3991 256.128 35.6406 256.283C35.8822 256.438 36.3174 256.586 36.9463 256.728C37.5798 256.869 38.0924 257.037 38.4844 257.233C38.8763 257.429 39.1657 257.666 39.3525 257.944C39.5439 258.218 39.6396 258.553 39.6396 258.949C39.6396 259.61 39.3753 260.141 38.8467 260.542C38.318 260.938 37.6322 261.137 36.7891 261.137C36.1966 261.137 35.6725 261.032 35.2168 260.822C34.7611 260.613 34.4033 260.321 34.1436 259.947C33.8883 259.569 33.7607 259.161 33.7607 258.724H35.0254C35.0482 259.147 35.2168 259.485 35.5312 259.735C35.8503 259.981 36.2695 260.104 36.7891 260.104C37.2676 260.104 37.6504 260.009 37.9375 259.817C38.2292 259.621 38.375 259.362 38.375 259.038ZM44.5039 260.104C44.9551 260.104 45.3493 259.968 45.6865 259.694C46.0238 259.421 46.2106 259.079 46.2471 258.669H47.4434C47.4206 259.093 47.2747 259.496 47.0059 259.879C46.737 260.262 46.377 260.567 45.9258 260.795C45.4792 261.023 45.0052 261.137 44.5039 261.137C43.4967 261.137 42.6947 260.802 42.0977 260.132C41.5052 259.457 41.209 258.537 41.209 257.37V257.158C41.209 256.438 41.3411 255.798 41.6055 255.237C41.8698 254.677 42.248 254.242 42.7402 253.932C43.237 253.622 43.8226 253.467 44.4971 253.467C45.3265 253.467 46.0146 253.715 46.5615 254.212C47.113 254.709 47.4069 255.354 47.4434 256.146H46.2471C46.2106 255.668 46.0283 255.276 45.7002 254.971C45.3766 254.661 44.9756 254.506 44.4971 254.506C43.8545 254.506 43.3555 254.738 43 255.203C42.6491 255.663 42.4736 256.331 42.4736 257.206V257.445C42.4736 258.298 42.6491 258.954 43 259.414C43.3509 259.874 43.8522 260.104 44.5039 260.104ZM52.6904 254.738C52.499 254.706 52.2917 254.69 52.0684 254.69C51.2389 254.69 50.6761 255.044 50.3799 255.75V261H49.1152V253.604H50.3457L50.3662 254.458C50.7809 253.797 51.3688 253.467 52.1299 253.467C52.376 253.467 52.5628 253.499 52.6904 253.562V254.738ZM55.4834 261H54.2188V253.604H55.4834V261ZM54.1162 251.642C54.1162 251.437 54.1777 251.263 54.3008 251.122C54.4284 250.981 54.6152 250.91 54.8613 250.91C55.1074 250.91 55.2943 250.981 55.4219 251.122C55.5495 251.263 55.6133 251.437 55.6133 251.642C55.6133 251.847 55.5495 252.018 55.4219 252.154C55.2943 252.291 55.1074 252.359 54.8613 252.359C54.6152 252.359 54.4284 252.291 54.3008 252.154C54.1777 252.018 54.1162 251.847 54.1162 251.642ZM64.0117 257.384C64.0117 258.509 63.7542 259.416 63.2393 260.104C62.7243 260.793 62.027 261.137 61.1475 261.137C60.2497 261.137 59.5433 260.852 59.0283 260.282V263.844H57.7637V253.604H58.9189L58.9805 254.424C59.4954 253.786 60.2109 253.467 61.127 253.467C62.0156 253.467 62.7174 253.802 63.2324 254.472C63.752 255.142 64.0117 256.074 64.0117 257.268V257.384ZM62.7471 257.24C62.7471 256.406 62.5693 255.748 62.2139 255.265C61.8584 254.782 61.3708 254.54 60.751 254.54C59.9854 254.54 59.4111 254.88 59.0283 255.559V259.093C59.4066 259.767 59.9854 260.104 60.7646 260.104C61.3708 260.104 61.8516 259.865 62.207 259.387C62.5671 258.904 62.7471 258.188 62.7471 257.24ZM67.5908 251.812V253.604H68.9717V254.581H67.5908V259.168C67.5908 259.464 67.6523 259.688 67.7754 259.838C67.8984 259.984 68.1081 260.057 68.4043 260.057C68.5501 260.057 68.7507 260.029 69.0059 259.975V261C68.6732 261.091 68.3496 261.137 68.0352 261.137C67.4701 261.137 67.0439 260.966 66.7568 260.624C66.4697 260.282 66.3262 259.797 66.3262 259.168V254.581H64.9795V253.604H66.3262V251.812H67.5908ZM72.0791 261H70.8145V253.604H72.0791V261ZM70.7119 251.642C70.7119 251.437 70.7734 251.263 70.8965 251.122C71.0241 250.981 71.2109 250.91 71.457 250.91C71.7031 250.91 71.89 250.981 72.0176 251.122C72.1452 251.263 72.209 251.437 72.209 251.642C72.209 251.847 72.1452 252.018 72.0176 252.154C71.89 252.291 71.7031 252.359 71.457 252.359C71.2109 252.359 71.0241 252.291 70.8965 252.154C70.7734 252.018 70.7119 251.847 70.7119 251.642ZM74.0244 257.233C74.0244 256.509 74.1657 255.857 74.4482 255.278C74.7354 254.7 75.1318 254.253 75.6377 253.938C76.1481 253.624 76.7292 253.467 77.3809 253.467C78.388 253.467 79.2015 253.815 79.8213 254.513C80.4456 255.21 80.7578 256.137 80.7578 257.295V257.384C80.7578 258.104 80.6188 258.751 80.3408 259.325C80.0674 259.895 79.6732 260.339 79.1582 260.658C78.6478 260.977 78.0599 261.137 77.3945 261.137C76.3919 261.137 75.5785 260.788 74.9541 260.091C74.3343 259.394 74.0244 258.471 74.0244 257.322V257.233ZM75.2959 257.384C75.2959 258.204 75.485 258.863 75.8633 259.359C76.2461 259.856 76.7565 260.104 77.3945 260.104C78.0371 260.104 78.5475 259.854 78.9258 259.353C79.304 258.847 79.4932 258.14 79.4932 257.233C79.4932 256.422 79.2995 255.766 78.9121 255.265C78.5293 254.759 78.0189 254.506 77.3809 254.506C76.7565 254.506 76.2529 254.754 75.8701 255.251C75.4873 255.748 75.2959 256.459 75.2959 257.384ZM83.79 253.604L83.8311 254.533C84.3962 253.822 85.1344 253.467 86.0459 253.467C87.609 253.467 88.3975 254.349 88.4111 256.112V261H87.1465V256.105C87.1419 255.572 87.0189 255.178 86.7773 254.923C86.5404 254.668 86.1689 254.54 85.6631 254.54C85.2529 254.54 84.8929 254.649 84.583 254.868C84.2731 255.087 84.0316 255.374 83.8584 255.729V261H82.5938V253.604H83.79ZM94.9131 261V254.581H93.7441V253.604H94.9131V252.845C94.9131 252.052 95.125 251.439 95.5488 251.006C95.9727 250.573 96.5719 250.356 97.3467 250.356C97.6383 250.356 97.9277 250.395 98.2148 250.473L98.1465 251.498C97.9323 251.457 97.7044 251.437 97.4629 251.437C97.0527 251.437 96.736 251.557 96.5127 251.799C96.2894 252.036 96.1777 252.378 96.1777 252.824V253.604H97.7568V254.581H96.1777V261H94.9131ZM99.0732 257.233C99.0732 256.509 99.2145 255.857 99.4971 255.278C99.7842 254.7 100.181 254.253 100.687 253.938C101.197 253.624 101.778 253.467 102.43 253.467C103.437 253.467 104.25 253.815 104.87 254.513C105.494 255.21 105.807 256.137 105.807 257.295V257.384C105.807 258.104 105.668 258.751 105.39 259.325C105.116 259.895 104.722 260.339 104.207 260.658C103.697 260.977 103.109 261.137 102.443 261.137C101.441 261.137 100.627 260.788 100.003 260.091C99.3831 259.394 99.0732 258.471 99.0732 257.322V257.233ZM100.345 257.384C100.345 258.204 100.534 258.863 100.912 259.359C101.295 259.856 101.805 260.104 102.443 260.104C103.086 260.104 103.596 259.854 103.975 259.353C104.353 258.847 104.542 258.14 104.542 257.233C104.542 256.422 104.348 255.766 103.961 255.265C103.578 254.759 103.068 254.506 102.43 254.506C101.805 254.506 101.302 254.754 100.919 255.251C100.536 255.748 100.345 256.459 100.345 257.384ZM111.218 254.738C111.026 254.706 110.819 254.69 110.596 254.69C109.766 254.69 109.203 255.044 108.907 255.75V261H107.643V253.604H108.873L108.894 254.458C109.308 253.797 109.896 253.467 110.657 253.467C110.903 253.467 111.09 253.499 111.218 253.562V254.738ZM124.207 261H122.888V256.399H117.87V261H116.558V251.047H117.87V255.326H122.888V251.047H124.207V261ZM131.156 261C131.083 260.854 131.024 260.594 130.979 260.221C130.391 260.831 129.689 261.137 128.873 261.137C128.144 261.137 127.545 260.932 127.075 260.521C126.61 260.107 126.378 259.583 126.378 258.949C126.378 258.179 126.67 257.582 127.253 257.158C127.841 256.73 128.666 256.516 129.728 256.516H130.958V255.935C130.958 255.493 130.826 255.142 130.562 254.882C130.297 254.618 129.908 254.485 129.393 254.485C128.941 254.485 128.563 254.599 128.258 254.827C127.952 255.055 127.8 255.331 127.8 255.654H126.528C126.528 255.285 126.658 254.93 126.918 254.588C127.182 254.242 127.538 253.968 127.984 253.768C128.436 253.567 128.93 253.467 129.468 253.467C130.32 253.467 130.988 253.681 131.471 254.109C131.954 254.533 132.204 255.119 132.223 255.866V259.271C132.223 259.95 132.309 260.49 132.482 260.891V261H131.156ZM129.058 260.036C129.454 260.036 129.83 259.934 130.186 259.729C130.541 259.523 130.799 259.257 130.958 258.929V257.411H129.967C128.417 257.411 127.643 257.865 127.643 258.771C127.643 259.168 127.775 259.478 128.039 259.701C128.303 259.924 128.643 260.036 129.058 260.036ZM140.717 257.384C140.717 258.514 140.457 259.423 139.938 260.111C139.418 260.795 138.721 261.137 137.846 261.137C136.911 261.137 136.189 260.806 135.679 260.146L135.617 261H134.455V250.5H135.72V254.417C136.23 253.784 136.934 253.467 137.832 253.467C138.73 253.467 139.434 253.806 139.944 254.485C140.459 255.164 140.717 256.094 140.717 257.274V257.384ZM139.452 257.24C139.452 256.379 139.286 255.714 138.953 255.244C138.62 254.775 138.142 254.54 137.518 254.54C136.684 254.54 136.084 254.927 135.72 255.702V258.901C136.107 259.676 136.711 260.063 137.531 260.063C138.137 260.063 138.609 259.829 138.946 259.359C139.284 258.89 139.452 258.184 139.452 257.24ZM143.94 261H142.676V253.604H143.94V261ZM142.573 251.642C142.573 251.437 142.635 251.263 142.758 251.122C142.885 250.981 143.072 250.91 143.318 250.91C143.564 250.91 143.751 250.981 143.879 251.122C144.007 251.263 144.07 251.437 144.07 251.642C144.07 251.847 144.007 252.018 143.879 252.154C143.751 252.291 143.564 252.359 143.318 252.359C143.072 252.359 142.885 252.291 142.758 252.154C142.635 252.018 142.573 251.847 142.573 251.642ZM147.937 251.812V253.604H149.317V254.581H147.937V259.168C147.937 259.464 147.998 259.688 148.121 259.838C148.244 259.984 148.454 260.057 148.75 260.057C148.896 260.057 149.096 260.029 149.352 259.975V261C149.019 261.091 148.695 261.137 148.381 261.137C147.816 261.137 147.39 260.966 147.103 260.624C146.815 260.282 146.672 259.797 146.672 259.168V254.581H145.325V253.604H146.672V251.812H147.937ZM156.482 255.408H157.433C158.03 255.399 158.499 255.242 158.841 254.937C159.183 254.631 159.354 254.219 159.354 253.699C159.354 252.533 158.772 251.949 157.61 251.949C157.063 251.949 156.626 252.106 156.298 252.421C155.974 252.731 155.812 253.143 155.812 253.658H154.548C154.548 252.87 154.835 252.216 155.409 251.696C155.988 251.172 156.722 250.91 157.61 250.91C158.549 250.91 159.285 251.159 159.818 251.655C160.352 252.152 160.618 252.842 160.618 253.727C160.618 254.16 160.477 254.579 160.194 254.984C159.916 255.39 159.536 255.693 159.053 255.894C159.6 256.067 160.021 256.354 160.317 256.755C160.618 257.156 160.769 257.646 160.769 258.225C160.769 259.118 160.477 259.826 159.894 260.351C159.31 260.875 158.551 261.137 157.617 261.137C156.683 261.137 155.922 260.884 155.334 260.378C154.751 259.872 154.459 259.204 154.459 258.375H155.73C155.73 258.899 155.901 259.318 156.243 259.633C156.585 259.947 157.043 260.104 157.617 260.104C158.228 260.104 158.695 259.945 159.019 259.626C159.342 259.307 159.504 258.849 159.504 258.252C159.504 257.673 159.326 257.229 158.971 256.919C158.615 256.609 158.103 256.45 157.433 256.44H156.482V255.408Z" fill="black" fill-opacity="0.6"/>
<path fill-rule="evenodd" clip-rule="evenodd" d="M382 242C383.1 242 384 241.1 384 240C384 238.9 383.1 238 382 238C380.9 238 380 238.9 380 240C380 241.1 380.9 242 382 242ZM382 244C380.9 244 380 244.9 380 246C380 247.1 380.9 248 382 248C383.1 248 384 247.1 384 246C384 244.9 383.1 244 382 244ZM382 250C380.9 250 380 250.9 380 252C380 253.1 380.9 254 382 254C383.1 254 384 253.1 384 252C384 250.9 383.1 250 382 250Z" fill="black" fill-opacity="0.6"/>
<rect x="17.5111" y="277" width="376.489" height="1" fill="#212121" fill-opacity="0.08"/>
</g>
<g filter="url(#filter2_ddd)">
<path d="M255 250C255 247.791 256.791 246 259 246H379C381.209 246 383 247.791 383 250V370C383 372.209 381.209 374 379 374H259C256.791 374 255 372.209 255 370V250Z" fill="white"/>
<path d="M267.651 264.402H263.481L262.545 267H261.191L264.992 257.047H266.141L269.948 267H268.602L267.651 264.402ZM263.878 263.322H267.262L265.566 258.667L263.878 263.322ZM271.032 263.24C271.032 262.105 271.301 261.194 271.839 260.506C272.377 259.813 273.081 259.467 273.951 259.467C274.817 259.467 275.503 259.763 276.009 260.355V256.5H277.273V267H276.111L276.05 266.207C275.544 266.827 274.84 267.137 273.938 267.137C273.081 267.137 272.381 266.786 271.839 266.084C271.301 265.382 271.032 264.466 271.032 263.336V263.24ZM272.297 263.384C272.297 264.222 272.47 264.879 272.816 265.353C273.163 265.826 273.641 266.063 274.252 266.063C275.054 266.063 275.64 265.703 276.009 264.983V261.586C275.631 260.889 275.049 260.54 274.266 260.54C273.646 260.54 273.163 260.779 272.816 261.258C272.47 261.736 272.297 262.445 272.297 263.384ZM279.185 263.24C279.185 262.105 279.453 261.194 279.991 260.506C280.529 259.813 281.233 259.467 282.104 259.467C282.969 259.467 283.655 259.763 284.161 260.355V256.5H285.426V267H284.264L284.202 266.207C283.696 266.827 282.992 267.137 282.09 267.137C281.233 267.137 280.534 266.786 279.991 266.084C279.453 265.382 279.185 264.466 279.185 263.336V263.24ZM280.449 263.384C280.449 264.222 280.622 264.879 280.969 265.353C281.315 265.826 281.794 266.063 282.404 266.063C283.206 266.063 283.792 265.703 284.161 264.983V261.586C283.783 260.889 283.202 260.54 282.418 260.54C281.798 260.54 281.315 260.779 280.969 261.258C280.622 261.736 280.449 262.445 280.449 263.384ZM297.191 262.399H292.878V265.927H297.889V267H291.565V257.047H297.82V258.127H292.878V261.326H297.191V262.399ZM301.837 265.284L303.669 259.604H304.961L302.309 267H301.345L298.665 259.604H299.957L301.837 265.284ZM309.401 267.137C308.399 267.137 307.583 266.809 306.954 266.152C306.325 265.492 306.011 264.61 306.011 263.507V263.274C306.011 262.541 306.15 261.887 306.428 261.312C306.71 260.734 307.102 260.283 307.604 259.959C308.109 259.631 308.656 259.467 309.244 259.467C310.206 259.467 310.953 259.784 311.486 260.417C312.02 261.05 312.286 261.957 312.286 263.138V263.664H307.275C307.294 264.393 307.506 264.983 307.911 265.435C308.321 265.881 308.841 266.104 309.47 266.104C309.916 266.104 310.295 266.013 310.604 265.831C310.914 265.649 311.186 265.407 311.418 265.106L312.19 265.708C311.571 266.66 310.641 267.137 309.401 267.137ZM309.244 260.506C308.734 260.506 308.305 260.693 307.959 261.066C307.613 261.436 307.398 261.955 307.316 262.625H311.021V262.529C310.985 261.887 310.812 261.39 310.502 261.039C310.192 260.684 309.773 260.506 309.244 260.506ZM315.202 259.604L315.243 260.533C315.808 259.822 316.547 259.467 317.458 259.467C319.021 259.467 319.81 260.349 319.823 262.112V267H318.559V262.105C318.554 261.572 318.431 261.178 318.189 260.923C317.952 260.668 317.581 260.54 317.075 260.54C316.665 260.54 316.305 260.649 315.995 260.868C315.685 261.087 315.444 261.374 315.271 261.729V267H314.006V259.604H315.202ZM323.696 257.812V259.604H325.077V260.581H323.696V265.168C323.696 265.464 323.758 265.688 323.881 265.838C324.004 265.984 324.214 266.057 324.51 266.057C324.656 266.057 324.856 266.029 325.111 265.975V267C324.779 267.091 324.455 267.137 324.141 267.137C323.576 267.137 323.149 266.966 322.862 266.624C322.575 266.282 322.432 265.797 322.432 265.168V260.581H321.085V259.604H322.432V257.812H323.696Z" fill="black"/>
<path d="M265.45 297.257L268.294 289.047H269.729L266.038 299H264.876L261.191 289.047H262.62L265.45 297.257ZM272.495 299H271.23V291.604H272.495V299ZM271.128 289.642C271.128 289.437 271.189 289.263 271.312 289.122C271.44 288.981 271.627 288.91 271.873 288.91C272.119 288.91 272.306 288.981 272.434 289.122C272.561 289.263 272.625 289.437 272.625 289.642C272.625 289.847 272.561 290.018 272.434 290.154C272.306 290.291 272.119 290.359 271.873 290.359C271.627 290.359 271.44 290.291 271.312 290.154C271.189 290.018 271.128 289.847 271.128 289.642ZM277.845 299.137C276.842 299.137 276.026 298.809 275.397 298.152C274.769 297.492 274.454 296.61 274.454 295.507V295.274C274.454 294.541 274.593 293.887 274.871 293.312C275.154 292.734 275.546 292.283 276.047 291.959C276.553 291.631 277.1 291.467 277.688 291.467C278.649 291.467 279.396 291.784 279.93 292.417C280.463 293.05 280.729 293.957 280.729 295.138V295.664H275.719C275.737 296.393 275.949 296.983 276.354 297.435C276.765 297.881 277.284 298.104 277.913 298.104C278.36 298.104 278.738 298.013 279.048 297.831C279.358 297.649 279.629 297.407 279.861 297.106L280.634 297.708C280.014 298.66 279.084 299.137 277.845 299.137ZM277.688 292.506C277.177 292.506 276.749 292.693 276.402 293.066C276.056 293.436 275.842 293.955 275.76 294.625H279.465V294.529C279.428 293.887 279.255 293.39 278.945 293.039C278.635 292.684 278.216 292.506 277.688 292.506ZM288.998 297.257L290.42 291.604H291.685L289.531 299H288.506L286.708 293.395L284.958 299H283.933L281.786 291.604H283.044L284.5 297.141L286.223 291.604H287.241L288.998 297.257Z" fill="black"/>
<path d="M267.781 326.399H263.468V329.927H268.479V331H262.155V321.047H268.41V322.127H263.468V325.326H267.781V326.399ZM269.72 327.24C269.72 326.105 269.989 325.194 270.526 324.506C271.064 323.813 271.768 323.467 272.639 323.467C273.505 323.467 274.19 323.763 274.696 324.355V320.5H275.961V331H274.799L274.737 330.207C274.231 330.827 273.527 331.137 272.625 331.137C271.768 331.137 271.069 330.786 270.526 330.084C269.989 329.382 269.72 328.466 269.72 327.336V327.24ZM270.984 327.384C270.984 328.222 271.158 328.879 271.504 329.353C271.85 329.826 272.329 330.063 272.939 330.063C273.742 330.063 274.327 329.703 274.696 328.983V325.586C274.318 324.889 273.737 324.54 272.953 324.54C272.333 324.54 271.85 324.779 271.504 325.258C271.158 325.736 270.984 326.445 270.984 327.384ZM279.554 331H278.289V323.604H279.554V331ZM278.187 321.642C278.187 321.437 278.248 321.263 278.371 321.122C278.499 320.981 278.686 320.91 278.932 320.91C279.178 320.91 279.365 320.981 279.492 321.122C279.62 321.263 279.684 321.437 279.684 321.642C279.684 321.847 279.62 322.018 279.492 322.154C279.365 322.291 279.178 322.359 278.932 322.359C278.686 322.359 278.499 322.291 278.371 322.154C278.248 322.018 278.187 321.847 278.187 321.642ZM283.55 321.812V323.604H284.931V324.581H283.55V329.168C283.55 329.464 283.611 329.688 283.734 329.838C283.857 329.984 284.067 330.057 284.363 330.057C284.509 330.057 284.71 330.029 284.965 329.975V331C284.632 331.091 284.309 331.137 283.994 331.137C283.429 331.137 283.003 330.966 282.716 330.624C282.429 330.282 282.285 329.797 282.285 329.168V324.581H280.938V323.604H282.285V321.812H283.55Z" fill="black"/>
<path d="M262.155 363V353.047H264.965C265.831 353.047 266.596 353.238 267.262 353.621C267.927 354.004 268.44 354.549 268.8 355.255C269.164 355.961 269.349 356.772 269.354 357.688V358.324C269.354 359.263 269.171 360.086 268.807 360.792C268.447 361.498 267.929 362.041 267.255 362.419C266.585 362.797 265.803 362.991 264.91 363H262.155ZM263.468 354.127V361.927H264.849C265.86 361.927 266.646 361.612 267.207 360.983C267.772 360.354 268.055 359.459 268.055 358.297V357.716C268.055 356.586 267.788 355.708 267.255 355.084C266.726 354.455 265.974 354.136 264.999 354.127H263.468ZM274.464 363.137C273.461 363.137 272.646 362.809 272.017 362.152C271.388 361.492 271.073 360.61 271.073 359.507V359.274C271.073 358.541 271.212 357.887 271.49 357.312C271.773 356.734 272.165 356.283 272.666 355.959C273.172 355.631 273.719 355.467 274.307 355.467C275.268 355.467 276.016 355.784 276.549 356.417C277.082 357.05 277.349 357.957 277.349 359.138V359.664H272.338C272.356 360.393 272.568 360.983 272.974 361.435C273.384 361.881 273.903 362.104 274.532 362.104C274.979 362.104 275.357 362.013 275.667 361.831C275.977 361.649 276.248 361.407 276.48 361.106L277.253 361.708C276.633 362.66 275.703 363.137 274.464 363.137ZM274.307 356.506C273.796 356.506 273.368 356.693 273.021 357.066C272.675 357.436 272.461 357.955 272.379 358.625H276.084V358.529C276.048 357.887 275.874 357.39 275.564 357.039C275.255 356.684 274.835 356.506 274.307 356.506ZM280.442 363H279.178V352.5H280.442V363ZM285.792 363.137C284.789 363.137 283.974 362.809 283.345 362.152C282.716 361.492 282.401 360.61 282.401 359.507V359.274C282.401 358.541 282.54 357.887 282.818 357.312C283.101 356.734 283.493 356.283 283.994 355.959C284.5 355.631 285.047 355.467 285.635 355.467C286.596 355.467 287.344 355.784 287.877 356.417C288.41 357.05 288.677 357.957 288.677 359.138V359.664H283.666C283.684 360.393 283.896 360.983 284.302 361.435C284.712 361.881 285.231 362.104 285.86 362.104C286.307 362.104 286.685 362.013 286.995 361.831C287.305 361.649 287.576 361.407 287.809 361.106L288.581 361.708C287.961 362.66 287.032 363.137 285.792 363.137ZM285.635 356.506C285.124 356.506 284.696 356.693 284.35 357.066C284.003 357.436 283.789 357.955 283.707 358.625H287.412V358.529C287.376 357.887 287.202 357.39 286.893 357.039C286.583 356.684 286.163 356.506 285.635 356.506ZM292.112 353.812V355.604H293.493V356.581H292.112V361.168C292.112 361.464 292.174 361.688 292.297 361.838C292.42 361.984 292.63 362.057 292.926 362.057C293.072 362.057 293.272 362.029 293.527 361.975V363C293.195 363.091 292.871 363.137 292.557 363.137C291.992 363.137 291.565 362.966 291.278 362.624C290.991 362.282 290.848 361.797 290.848 361.168V356.581H289.501V355.604H290.848V353.812H292.112ZM298.296 363.137C297.293 363.137 296.478 362.809 295.849 362.152C295.22 361.492 294.905 360.61 294.905 359.507V359.274C294.905 358.541 295.044 357.887 295.322 357.312C295.605 356.734 295.997 356.283 296.498 355.959C297.004 355.631 297.551 355.467 298.139 355.467C299.1 355.467 299.848 355.784 300.381 356.417C300.914 357.05 301.181 357.957 301.181 359.138V359.664H296.17C296.188 360.393 296.4 360.983 296.806 361.435C297.216 361.881 297.735 362.104 298.364 362.104C298.811 362.104 299.189 362.013 299.499 361.831C299.809 361.649 300.08 361.407 300.312 361.106L301.085 361.708C300.465 362.66 299.535 363.137 298.296 363.137ZM298.139 356.506C297.628 356.506 297.2 356.693 296.854 357.066C296.507 357.436 296.293 357.955 296.211 358.625H299.916V358.529C299.88 357.887 299.706 357.39 299.396 357.039C299.087 356.684 298.667 356.506 298.139 356.506Z" fill="black"/>
</g>
</g>
<defs>
<filter id="filter0_ddd" x="-8" y="652" width="427" height="88" filterUnits="userSpaceOnUse" color-interpolation-filters="sRGB">
<feFlood flood-opacity="0" result="BackgroundImageFix"/>
<feColorMatrix in="SourceAlpha" type="matrix" values="0 0 0 0 0 0 0 0 0 0 0 0 0 0 0 0 0 0 127 0" result="hardAlpha"/>
<feOffset dy="1"/>
<feGaussianBlur stdDeviation="4"/>
<feColorMatrix type="matrix" values="0 0 0 0 0 0 0 0 0 0 0 0 0 0 0 0 0 0 0.2 0"/>
<feBlend mode="normal" in2="BackgroundImageFix" result="effect1_dropShadow"/>
<feColorMatrix in="SourceAlpha" type="matrix" values="0 0 0 0 0 0 0 0 0 0 0 0 0 0 0 0 0 0 127 0" result="hardAlpha"/>
<feOffset dy="3"/>
<feGaussianBlur stdDeviation="1.5"/>
<feColorMatrix type="matrix" values="0 0 0 0 0 0 0 0 0 0 0 0 0 0 0 0 0 0 0.12 0"/>
<feBlend mode="normal" in2="effect1_dropShadow" result="effect2_dropShadow"/>
<feColorMatrix in="SourceAlpha" type="matrix" values="0 0 0 0 0 0 0 0 0 0 0 0 0 0 0 0 0 0 127 0" result="hardAlpha"/>
<feOffset dy="3"/>
<feGaussianBlur stdDeviation="2"/>
<feColorMatrix type="matrix" values="0 0 0 0 0 0 0 0 0 0 0 0 0 0 0 0 0 0 0.14 0"/>
<feBlend mode="normal" in2="effect2_dropShadow" result="effect3_dropShadow"/>
<feBlend mode="normal" in="SourceGraphic" in2="effect3_dropShadow" result="shape"/>
</filter>
<filter id="filter1_ddd" x="-10" y="-9" width="431" height="76" filterUnits="userSpaceOnUse" color-interpolation-filters="sRGB">
<feFlood flood-opacity="0" result="BackgroundImageFix"/>
<feColorMatrix in="SourceAlpha" type="matrix" values="0 0 0 0 0 0 0 0 0 0 0 0 0 0 0 0 0 0 127 0" result="hardAlpha"/>
<feOffset dy="2"/>
<feGaussianBlur stdDeviation="2"/>
<feColorMatrix type="matrix" values="0 0 0 0 0 0 0 0 0 0 0 0 0 0 0 0 0 0 0.2 0"/>
<feBlend mode="normal" in2="BackgroundImageFix" result="effect1_dropShadow"/>
<feColorMatrix in="SourceAlpha" type="matrix" values="0 0 0 0 0 0 0 0 0 0 0 0 0 0 0 0 0 0 127 0" result="hardAlpha"/>
<feOffset dy="1"/>
<feGaussianBlur stdDeviation="5"/>
<feColorMatrix type="matrix" values="0 0 0 0 0 0 0 0 0 0 0 0 0 0 0 0 0 0 0.12 0"/>
<feBlend mode="normal" in2="effect1_dropShadow" result="effect2_dropShadow"/>
<feColorMatrix in="SourceAlpha" type="matrix" values="0 0 0 0 0 0 0 0 0 0 0 0 0 0 0 0 0 0 127 0" result="hardAlpha"/>
<feOffset dy="4"/>
<feGaussianBlur stdDeviation="2.5"/>
<feColorMatrix type="matrix" values="0 0 0 0 0 0 0 0 0 0 0 0 0 0 0 0 0 0 0.14 0"/>
<feBlend mode="normal" in2="effect2_dropShadow" result="effect3_dropShadow"/>
<feBlend mode="normal" in="SourceGraphic" in2="effect3_dropShadow" result="shape"/>
</filter>
<filter id="filter2_ddd" x="241" y="235" width="156" height="157" filterUnits="userSpaceOnUse" color-interpolation-filters="sRGB">
<feFlood flood-opacity="0" result="BackgroundImageFix"/>
<feColorMatrix in="SourceAlpha" type="matrix" values="0 0 0 0 0 0 0 0 0 0 0 0 0 0 0 0 0 0 127 0" result="hardAlpha"/>
<feOffset dy="5"/>
<feGaussianBlur stdDeviation="2.5"/>
<feColorMatrix type="matrix" values="0 0 0 0 0 0 0 0 0 0 0 0 0 0 0 0 0 0 0.2 0"/>
<feBlend mode="normal" in2="BackgroundImageFix" result="effect1_dropShadow"/>
<feColorMatrix in="SourceAlpha" type="matrix" values="0 0 0 0 0 0 0 0 0 0 0 0 0 0 0 0 0 0 127 0" result="hardAlpha"/>
<feOffset dy="3"/>
<feGaussianBlur stdDeviation="7"/>
<feColorMatrix type="matrix" values="0 0 0 0 0 0 0 0 0 0 0 0 0 0 0 0 0 0 0.12 0"/>
<feBlend mode="normal" in2="effect1_dropShadow" result="effect2_dropShadow"/>
<feColorMatrix in="SourceAlpha" type="matrix" values="0 0 0 0 0 0 0 0 0 0 0 0 0 0 0 0 0 0 127 0" result="hardAlpha"/>
<feOffset dy="8"/>
<feGaussianBlur stdDeviation="5"/>
<feColorMatrix type="matrix" values="0 0 0 0 0 0 0 0 0 0 0 0 0 0 0 0 0 0 0.14 0"/>
<feBlend mode="normal" in2="effect2_dropShadow" result="effect3_dropShadow"/>
<feBlend mode="normal" in="SourceGraphic" in2="effect3_dropShadow" result="shape"/>
</filter>
<clipPath id="clip0">
<rect width="411" height="731" fill="white"/>
</clipPath>
</defs>
</svg>
