<svg width="411" height="731" viewBox="0 0 411 731" fill="none" xmlns="http://www.w3.org/2000/svg">
<rect width="411" height="731" fill="#F1F1F1"/>
<g clip-path="url(#clip0_726:4085)">
<rect width="411" height="731" fill="white"/>
<g filter="url(#filter0_ddd_726:4085)">
<rect width="411" height="72" transform="translate(0 659)" fill="#6200EE"/>
<rect width="102.75" height="72" transform="translate(0 659)" fill="#6200EE"/>
<path d="M36.3008 706.441H33.1973V715H31.4814V706.441H28.4053V705.047H36.3008V706.441ZM46.6152 710.283C46.6152 711.258 46.4466 712.115 46.1094 712.854C45.7721 713.587 45.2891 714.152 44.6602 714.549C44.0358 714.941 43.3158 715.137 42.5 715.137C41.6934 715.137 40.9733 714.941 40.3398 714.549C39.7109 714.152 39.2233 713.59 38.877 712.86C38.5352 712.131 38.362 711.29 38.3574 710.338V709.777C38.3574 708.807 38.5283 707.95 38.8701 707.207C39.2165 706.464 39.7018 705.897 40.3262 705.505C40.9551 705.108 41.6751 704.91 42.4863 704.91C43.2975 704.91 44.0153 705.106 44.6396 705.498C45.2686 705.885 45.7539 706.446 46.0957 707.18C46.4375 707.909 46.6107 708.759 46.6152 709.729V710.283ZM44.8857 709.764C44.8857 708.661 44.6761 707.815 44.2568 707.228C43.8421 706.64 43.252 706.346 42.4863 706.346C41.7389 706.346 41.1533 706.64 40.7295 707.228C40.3102 707.811 40.096 708.638 40.0869 709.709V710.283C40.0869 711.377 40.2988 712.222 40.7227 712.819C41.151 713.416 41.7435 713.715 42.5 713.715C43.2656 713.715 43.8535 713.423 44.2637 712.84C44.6784 712.257 44.8857 711.404 44.8857 710.283V709.764ZM49.5879 715V705.047H52.5273C53.4069 705.047 54.1862 705.243 54.8652 705.635C55.5488 706.027 56.0775 706.583 56.4512 707.303C56.8249 708.023 57.0117 708.848 57.0117 709.777V710.276C57.0117 711.22 56.8226 712.049 56.4443 712.765C56.0706 713.48 55.5352 714.032 54.8379 714.419C54.1452 714.806 53.3499 715 52.4521 715H49.5879ZM51.3174 706.441V713.619H52.4453C53.3522 713.619 54.0472 713.337 54.5303 712.771C55.0179 712.202 55.2663 711.386 55.2754 710.324V709.771C55.2754 708.69 55.0407 707.866 54.5713 707.296C54.1019 706.726 53.4206 706.441 52.5273 706.441H51.3174ZM65.4053 712.683H61.5498L60.7432 715H58.9453L62.7051 705.047H64.2568L68.0234 715H66.2188L65.4053 712.683ZM62.0352 711.288H64.9199L63.4775 707.159L62.0352 711.288ZM72.6299 709.764L74.9199 705.047H76.834L73.498 711.336V715H71.7617V711.336L68.4189 705.047H70.3398L72.6299 709.764Z" fill="white" fill-opacity="0.74"/>
<path fill-rule="evenodd" clip-rule="evenodd" d="M51 693C52.1 693 53 692.1 53 691H49C49 692.1 49.89 693 51 693ZM57 687V682C57 678.93 55.36 676.36 52.5 675.68V675C52.5 674.17 51.83 673.5 51 673.5C50.17 673.5 49.5 674.17 49.5 675V675.68C46.63 676.36 45 678.92 45 682V687L43 689V690H59V689L57 687Z" fill="white" fill-opacity="0.74"/>
<rect width="102.75" height="72" transform="translate(102.75 659)" fill="#6200EE"/>
<path d="M138.012 710.557H133.924V713.619H138.702V715H132.194V705.047H138.654V706.441H133.924V709.189H138.012V710.557ZM144.867 712.833L147.396 705.047H149.297L145.715 715H144.04L140.472 705.047H142.365L144.867 712.833ZM157.492 710.557H153.404V713.619H158.183V715H151.675V705.047H158.135V706.441H153.404V709.189H157.492V710.557ZM168.736 715H167.007L162.57 707.938V715H160.841V705.047H162.57L167.021 712.136V705.047H168.736V715ZM179.017 706.441H175.913V715H174.197V706.441H171.121V705.047H179.017V706.441Z" fill="white" fill-opacity="0.74"/>
<path d="M150.75 682H148.75V684H150.75V682ZM154.75 682H152.75V684H154.75V682ZM158.75 682H156.75V684H158.75V682ZM160.75 675H159.75V673H157.75V675H149.75V673H147.75V675H146.75C145.64 675 144.76 675.9 144.76 677L144.75 691C144.75 691.53 144.961 692.039 145.336 692.414C145.711 692.789 146.22 693 146.75 693H160.75C161.85 693 162.75 692.1 162.75 691V677C162.75 675.9 161.85 675 160.75 675ZM160.75 691H146.75V680H160.75V691Z" fill="white" fill-opacity="0.74"/>
<rect width="102.75" height="72" transform="translate(205.5 659)" fill="#6200EE"/>
<rect width="102.75" height="2" transform="translate(205.5 729)" fill="#6200EE"/>
<rect x="205.5" y="729" width="103" height="2" fill="white"/>
<path d="M244.173 715H242.45V710.577H238V715H236.271V705.047H238V709.189H242.45V705.047H244.173V715ZM253.168 712.683H249.312L248.506 715H246.708L250.468 705.047H252.02L255.786 715H253.981L253.168 712.683ZM249.798 711.288H252.683L251.24 707.159L249.798 711.288ZM258.171 715V705.047H261.582C262.708 705.047 263.564 705.272 264.152 705.724C264.74 706.175 265.034 706.847 265.034 707.74C265.034 708.196 264.911 708.606 264.665 708.971C264.419 709.335 264.059 709.618 263.585 709.818C264.123 709.964 264.537 710.24 264.829 710.646C265.125 711.047 265.273 711.53 265.273 712.095C265.273 713.029 264.973 713.747 264.371 714.248C263.774 714.749 262.917 715 261.801 715H258.171ZM259.9 710.509V713.619H261.821C262.364 713.619 262.787 713.485 263.093 713.216C263.398 712.947 263.551 712.573 263.551 712.095C263.551 711.06 263.022 710.532 261.965 710.509H259.9ZM259.9 709.237H261.596C262.133 709.237 262.553 709.117 262.854 708.875C263.159 708.629 263.312 708.283 263.312 707.836C263.312 707.344 263.17 706.988 262.888 706.77C262.61 706.551 262.174 706.441 261.582 706.441H259.9V709.237ZM270.078 715H268.355V705.047H270.078V715ZM280.44 706.441H277.337V715H275.621V706.441H272.545V705.047H280.44V706.441Z" fill="white"/>
<path fill-rule="evenodd" clip-rule="evenodd" d="M256.5 692.35L255.05 691.03C249.9 686.36 246.5 683.28 246.5 679.5C246.5 676.42 248.92 674 252 674C253.74 674 255.41 674.81 256.5 676.09C257.59 674.81 259.26 674 261 674C264.08 674 266.5 676.42 266.5 679.5C266.5 683.28 263.1 686.36 257.95 691.04L256.5 692.35Z" fill="white"/>
<rect width="102.75" height="72" transform="translate(308.25 659)" fill="#6200EE"/>
<path d="M322.205 711.76C322.105 712.822 321.713 713.651 321.029 714.248C320.346 714.84 319.437 715.137 318.302 715.137C317.509 715.137 316.809 714.95 316.203 714.576C315.602 714.198 315.137 713.662 314.809 712.97C314.48 712.277 314.31 711.473 314.296 710.557V709.627C314.296 708.688 314.462 707.861 314.795 707.146C315.128 706.43 315.604 705.879 316.224 705.491C316.848 705.104 317.568 704.91 318.384 704.91C319.482 704.91 320.366 705.209 321.036 705.806C321.706 706.403 322.096 707.246 322.205 708.335H320.482C320.4 707.619 320.191 707.104 319.854 706.79C319.521 706.471 319.031 706.312 318.384 706.312C317.632 706.312 317.053 706.587 316.647 707.139C316.246 707.686 316.041 708.49 316.032 709.552V710.434C316.032 711.509 316.224 712.329 316.606 712.895C316.994 713.46 317.559 713.742 318.302 713.742C318.981 713.742 319.491 713.59 319.833 713.284C320.175 712.979 320.391 712.471 320.482 711.76H322.205ZM332.95 710.283C332.95 711.258 332.782 712.115 332.444 712.854C332.107 713.587 331.624 714.152 330.995 714.549C330.371 714.941 329.651 715.137 328.835 715.137C328.028 715.137 327.308 714.941 326.675 714.549C326.046 714.152 325.558 713.59 325.212 712.86C324.87 712.131 324.697 711.29 324.692 710.338V709.777C324.692 708.807 324.863 707.95 325.205 707.207C325.551 706.464 326.037 705.897 326.661 705.505C327.29 705.108 328.01 704.91 328.821 704.91C329.632 704.91 330.35 705.106 330.975 705.498C331.604 705.885 332.089 706.446 332.431 707.18C332.772 707.909 332.946 708.759 332.95 709.729V710.283ZM331.221 709.764C331.221 708.661 331.011 707.815 330.592 707.228C330.177 706.64 329.587 706.346 328.821 706.346C328.074 706.346 327.488 706.64 327.064 707.228C326.645 707.811 326.431 708.638 326.422 709.709V710.283C326.422 711.377 326.634 712.222 327.058 712.819C327.486 713.416 328.078 713.715 328.835 713.715C329.601 713.715 330.188 713.423 330.599 712.84C331.013 712.257 331.221 711.404 331.221 710.283V709.764ZM338.165 705.047L341.036 712.676L343.9 705.047H346.136V715H344.413V711.719L344.584 707.33L341.645 715H340.407L337.475 707.337L337.646 711.719V715H335.923V705.047H338.165ZM351.679 705.047L354.55 712.676L357.414 705.047H359.649V715H357.927V711.719L358.098 707.33L355.158 715H353.921L350.988 707.337L351.159 711.719V715H349.437V705.047H351.679ZM370.23 705.047V711.698C370.23 712.756 369.891 713.594 369.212 714.214C368.537 714.829 367.637 715.137 366.512 715.137C365.372 715.137 364.468 714.834 363.798 714.228C363.128 713.617 362.793 712.771 362.793 711.691V705.047H364.516V711.705C364.516 712.37 364.684 712.879 365.021 713.229C365.359 713.58 365.855 713.756 366.512 713.756C367.842 713.756 368.508 713.054 368.508 711.65V705.047H370.23ZM381.229 715H379.499L375.062 707.938V715H373.333V705.047H375.062L379.513 712.136V705.047H381.229V715ZM386.348 715H384.625V705.047H386.348V715ZM396.71 706.441H393.606V715H391.891V706.441H388.814V705.047H396.71V706.441ZM402.629 709.764L404.919 705.047H406.833L403.497 711.336V715H401.761V711.336L398.418 705.047H400.339L402.629 709.764Z" fill="white" fill-opacity="0.74"/>
<path d="M363.25 682C364.91 682 366.24 680.66 366.24 679C366.24 677.34 364.91 676 363.25 676C361.59 676 360.25 677.34 360.25 679C360.25 680.66 361.59 682 363.25 682ZM355.25 682C356.91 682 358.24 680.66 358.24 679C358.24 677.34 356.91 676 355.25 676C353.59 676 352.25 677.34 352.25 679C352.25 680.66 353.59 682 355.25 682ZM355.25 684C352.92 684 348.25 685.17 348.25 687.5V690H362.25V687.5C362.25 685.17 357.58 684 355.25 684ZM363.25 684C362.96 684 362.63 684.02 362.28 684.05C363.44 684.89 364.25 686.02 364.25 687.5V690H370.25V687.5C370.25 685.17 365.58 684 363.25 684Z" fill="white" fill-opacity="0.74"/>
</g>
<g filter="url(#filter1_ddd_726:4085)">
<rect width="411" height="56" fill="#6200EE"/>
<path fill-rule="evenodd" clip-rule="evenodd" d="M287 38C288.1 38 289 37.1 289 36H285C285 37.1 285.89 38 287 38ZM293 32V27C293 23.93 291.36 21.36 288.5 20.68V20C288.5 19.17 287.83 18.5 287 18.5C286.17 18.5 285.5 19.17 285.5 20V20.68C282.63 21.36 281 23.92 281 27V32L279 34V35H295V34L293 32Z" fill="white" fill-opacity="0.74"/>
<path fill-rule="evenodd" clip-rule="evenodd" d="M341 32.08C340.24 32.08 339.56 32.38 339.04 32.85L331.91 28.7C331.96 28.47 332 28.24 332 28C332 27.76 331.96 27.53 331.91 27.3L338.96 23.19C339.5 23.69 340.21 24 341 24C342.66 24 344 22.66 344 21C344 19.34 342.66 18 341 18C339.34 18 338 19.34 338 21C338 21.24 338.04 21.47 338.09 21.7L331.04 25.81C330.5 25.31 329.79 25 329 25C327.34 25 326 26.34 326 28C326 29.66 327.34 31 329 31C329.79 31 330.5 30.69 331.04 30.19L338.16 34.35C338.11 34.56 338.08 34.78 338.08 35C338.08 36.61 339.39 37.92 341 37.92C342.61 37.92 343.92 36.61 343.92 35C343.92 33.39 342.61 32.08 341 32.08Z" fill="white" fill-opacity="0.74"/>
<path fill-rule="evenodd" clip-rule="evenodd" d="M386.5 30H385.71L385.43 29.73C386.41 28.59 387 27.11 387 25.5C387 21.91 384.09 19 380.5 19C376.91 19 374 21.91 374 25.5C374 29.09 376.91 32 380.5 32C382.11 32 383.59 31.41 384.73 30.43L385 30.71V31.5L390 36.49L391.49 35L386.5 30ZM380.5 30C378.01 30 376 27.99 376 25.5C376 23.01 378.01 21 380.5 21C382.99 21 385 23.01 385 25.5C385 27.99 382.99 30 380.5 30Z" fill="white" fill-opacity="0.74"/>
<path fill-rule="evenodd" clip-rule="evenodd" d="M19 34H37V32H19V34ZM19 29H37V27H19V29ZM19 22V24H37V22H19Z" fill="white" fill-opacity="0.74"/>
</g>
<mask id="mask0_726:4085" style="mask-type:alpha" maskUnits="userSpaceOnUse" x="0" y="66" width="394" height="64">
<rect y="66" width="394" height="64" fill="white"/>
</mask>
<g mask="url(#mask0_726:4085)">
<path d="M19.7734 88.4141L19.9922 89.9141L20.3125 88.5625L22.5625 80.625H23.8281L26.0234 88.5625L26.3359 89.9375L26.5781 88.4062L28.3438 80.625H29.8516L27.0938 92H25.7266L23.3828 83.7109L23.2031 82.8438L23.0234 83.7109L20.5938 92H19.2266L16.4766 80.625H17.9766L19.7734 88.4141ZM35.3609 84.8438C35.1422 84.8073 34.9052 84.7891 34.65 84.7891C33.7021 84.7891 33.0589 85.1927 32.7203 86V92H31.275V83.5469H32.6812L32.7047 84.5234C33.1786 83.7682 33.8505 83.3906 34.7203 83.3906C35.0016 83.3906 35.2151 83.4271 35.3609 83.5V84.8438ZM38.4172 92H36.9719V83.5469H38.4172V92ZM36.8547 81.3047C36.8547 81.0703 36.925 80.8724 37.0656 80.7109C37.2115 80.5495 37.425 80.4688 37.7062 80.4688C37.9875 80.4688 38.201 80.5495 38.3469 80.7109C38.4927 80.8724 38.5656 81.0703 38.5656 81.3047C38.5656 81.5391 38.4927 81.7344 38.3469 81.8906C38.201 82.0469 37.9875 82.125 37.7062 82.125C37.425 82.125 37.2115 82.0469 37.0656 81.8906C36.925 81.7344 36.8547 81.5391 36.8547 81.3047ZM42.8484 81.5V83.5469H44.4266V84.6641H42.8484V89.9062C42.8484 90.2448 42.9188 90.5 43.0594 90.6719C43.2 90.8385 43.4396 90.9219 43.7781 90.9219C43.9448 90.9219 44.174 90.8906 44.4656 90.8281V92C44.0854 92.1042 43.7156 92.1562 43.3563 92.1562C42.7104 92.1562 42.2234 91.9609 41.8953 91.5703C41.5672 91.1797 41.4031 90.625 41.4031 89.9062V84.6641H39.8641V83.5469H41.4031V81.5H42.8484ZM49.7797 92.1562C48.6339 92.1562 47.7016 91.7812 46.9828 91.0312C46.2641 90.276 45.9047 89.2682 45.9047 88.0078V87.7422C45.9047 86.9036 46.0635 86.1562 46.3813 85.5C46.7042 84.8385 47.1521 84.3229 47.725 83.9531C48.3031 83.5781 48.9281 83.3906 49.6 83.3906C50.699 83.3906 51.5531 83.7526 52.1625 84.4766C52.7719 85.2005 53.0766 86.237 53.0766 87.5859V88.1875H47.35C47.3708 89.0208 47.613 89.6953 48.0766 90.2109C48.5453 90.7214 49.1391 90.9766 49.8578 90.9766C50.3682 90.9766 50.8005 90.8724 51.1547 90.6641C51.5089 90.4557 51.8188 90.1797 52.0844 89.8359L52.9672 90.5234C52.2589 91.612 51.1964 92.1562 49.7797 92.1562ZM49.6 84.5781C49.0167 84.5781 48.5271 84.7917 48.1313 85.2188C47.7354 85.6406 47.4906 86.2344 47.3969 87H51.6313V86.8906C51.5896 86.1562 51.3917 85.5885 51.0375 85.1875C50.6833 84.7812 50.2042 84.5781 49.6 84.5781ZM64.2438 92C64.1604 91.8333 64.0927 91.5365 64.0406 91.1094C63.3688 91.8073 62.5667 92.1562 61.6344 92.1562C60.801 92.1562 60.1161 91.9219 59.5797 91.4531C59.0484 90.9792 58.7828 90.3802 58.7828 89.6562C58.7828 88.776 59.1161 88.0938 59.7828 87.6094C60.4547 87.1198 61.3974 86.875 62.6109 86.875H64.0172V86.2109C64.0172 85.7057 63.8661 85.3047 63.5641 85.0078C63.262 84.7057 62.8167 84.5547 62.2281 84.5547C61.7125 84.5547 61.2802 84.6849 60.9313 84.9453C60.5823 85.2057 60.4078 85.5208 60.4078 85.8906H58.9547C58.9547 85.4688 59.1031 85.0625 59.4 84.6719C59.7021 84.276 60.1083 83.9635 60.6188 83.7344C61.1344 83.5052 61.6995 83.3906 62.3141 83.3906C63.288 83.3906 64.051 83.6354 64.6031 84.125C65.1552 84.6094 65.4417 85.2786 65.4625 86.1328V90.0234C65.4625 90.7995 65.5615 91.4167 65.7594 91.875V92H64.2438ZM61.8453 90.8984C62.2984 90.8984 62.7281 90.7812 63.1344 90.5469C63.5406 90.3125 63.8349 90.0078 64.0172 89.6328V87.8984H62.8844C61.1135 87.8984 60.2281 88.4167 60.2281 89.4531C60.2281 89.9062 60.3792 90.2604 60.6813 90.5156C60.9833 90.7708 61.3714 90.8984 61.8453 90.8984ZM73.4891 83.5469V92.9766C73.4891 94.6016 72.7521 95.4141 71.2781 95.4141C70.9604 95.4141 70.6661 95.3672 70.3953 95.2734V94.1172C70.562 94.1589 70.7807 94.1797 71.0516 94.1797C71.3745 94.1797 71.6193 94.0911 71.7859 93.9141C71.9578 93.7422 72.0438 93.4401 72.0438 93.0078V83.5469H73.4891ZM71.8953 81.3047C71.8953 81.0755 71.9656 80.8802 72.1063 80.7188C72.2521 80.5521 72.463 80.4688 72.7391 80.4688C73.0203 80.4688 73.2339 80.5495 73.3797 80.7109C73.5255 80.8724 73.5984 81.0703 73.5984 81.3047C73.5984 81.5391 73.5255 81.7344 73.3797 81.8906C73.2339 82.0469 73.0203 82.125 72.7391 82.125C72.4578 82.125 72.2469 82.0469 72.1063 81.8906C71.9656 81.7344 71.8953 81.5391 71.8953 81.3047ZM75.5922 87.6953C75.5922 86.8672 75.7536 86.1224 76.0766 85.4609C76.4047 84.7995 76.8578 84.2891 77.4359 83.9297C78.0193 83.5703 78.6833 83.3906 79.4281 83.3906C80.5792 83.3906 81.5089 83.7891 82.2172 84.5859C82.9307 85.3828 83.2875 86.4427 83.2875 87.7656V87.8672C83.2875 88.6901 83.1286 89.4297 82.8109 90.0859C82.4984 90.737 82.0479 91.2448 81.4594 91.6094C80.876 91.974 80.2042 92.1562 79.4437 92.1562C78.2979 92.1562 77.3682 91.7578 76.6547 90.9609C75.9464 90.1641 75.5922 89.1094 75.5922 87.7969V87.6953ZM77.0453 87.8672C77.0453 88.8047 77.2615 89.5573 77.6937 90.125C78.1312 90.6927 78.7146 90.9766 79.4437 90.9766C80.1781 90.9766 80.7615 90.6901 81.1937 90.1172C81.626 89.5391 81.8422 88.7318 81.8422 87.6953C81.8422 86.7682 81.6208 86.0182 81.1781 85.4453C80.7406 84.8672 80.1573 84.5781 79.4281 84.5781C78.7146 84.5781 78.1391 84.862 77.7016 85.4297C77.2641 85.9974 77.0453 86.8099 77.0453 87.8672ZM87.6094 88.0859L86.7031 89.0312V92H85.2578V80H86.7031V87.2578L87.4766 86.3281L90.1094 83.5469H91.8672L88.5781 87.0781L92.25 92H90.5547L87.6094 88.0859ZM96.8609 92.1562C95.7151 92.1562 94.7828 91.7812 94.0641 91.0312C93.3453 90.276 92.9859 89.2682 92.9859 88.0078V87.7422C92.9859 86.9036 93.1448 86.1562 93.4625 85.5C93.7854 84.8385 94.2333 84.3229 94.8063 83.9531C95.3844 83.5781 96.0094 83.3906 96.6813 83.3906C97.7802 83.3906 98.6344 83.7526 99.2438 84.4766C99.8531 85.2005 100.158 86.237 100.158 87.5859V88.1875H94.4313C94.4521 89.0208 94.6943 89.6953 95.1578 90.2109C95.6266 90.7214 96.2203 90.9766 96.9391 90.9766C97.4495 90.9766 97.8818 90.8724 98.2359 90.6641C98.5901 90.4557 98.9 90.1797 99.1656 89.8359L100.048 90.5234C99.3401 91.612 98.2776 92.1562 96.8609 92.1562ZM96.6813 84.5781C96.0979 84.5781 95.6083 84.7917 95.2125 85.2188C94.8167 85.6406 94.5719 86.2344 94.4781 87H98.7125V86.8906C98.6708 86.1562 98.4729 85.5885 98.1188 85.1875C97.7646 84.7812 97.2854 84.5781 96.6813 84.5781Z" fill="black" fill-opacity="0.87"/>
<path d="M18.5635 113H17.251V103.047H18.5635V113ZM22.2109 105.604L22.2451 106.424C22.7874 105.786 23.5189 105.467 24.4395 105.467C25.474 105.467 26.1781 105.863 26.5518 106.656C26.7979 106.301 27.1169 106.014 27.5088 105.795C27.9053 105.576 28.3724 105.467 28.9102 105.467C30.5326 105.467 31.3574 106.326 31.3848 108.044V113H30.1201V108.119C30.1201 107.59 29.9993 107.196 29.7578 106.937C29.5163 106.672 29.1107 106.54 28.541 106.54C28.0716 106.54 27.682 106.681 27.3721 106.964C27.0622 107.242 26.8822 107.618 26.832 108.092V113H25.5605V108.153C25.5605 107.078 25.0342 106.54 23.9814 106.54C23.152 106.54 22.5846 106.893 22.2793 107.6V113H21.0146V105.604H22.2109ZM39.7969 109.384C39.7969 110.509 39.5394 111.416 39.0244 112.104C38.5094 112.793 37.8122 113.137 36.9326 113.137C36.0348 113.137 35.3285 112.852 34.8135 112.282V115.844H33.5488V105.604H34.7041L34.7656 106.424C35.2806 105.786 35.9961 105.467 36.9121 105.467C37.8008 105.467 38.5026 105.802 39.0176 106.472C39.5371 107.142 39.7969 108.074 39.7969 109.268V109.384ZM38.5322 109.24C38.5322 108.406 38.3545 107.748 37.999 107.265C37.6436 106.782 37.1559 106.54 36.5361 106.54C35.7705 106.54 35.1963 106.88 34.8135 107.559V111.093C35.1917 111.767 35.7705 112.104 36.5498 112.104C37.1559 112.104 37.6367 111.865 37.9922 111.387C38.3522 110.904 38.5322 110.188 38.5322 109.24ZM45.2354 106.738C45.0439 106.706 44.8366 106.69 44.6133 106.69C43.7839 106.69 43.221 107.044 42.9248 107.75V113H41.6602V105.604H42.8906L42.9111 106.458C43.3258 105.797 43.9137 105.467 44.6748 105.467C44.9209 105.467 45.1077 105.499 45.2354 105.562V106.738ZM46.1826 109.233C46.1826 108.509 46.3239 107.857 46.6064 107.278C46.8936 106.7 47.29 106.253 47.7959 105.938C48.3063 105.624 48.8874 105.467 49.5391 105.467C50.5462 105.467 51.3597 105.815 51.9795 106.513C52.6038 107.21 52.916 108.137 52.916 109.295V109.384C52.916 110.104 52.777 110.751 52.499 111.325C52.2256 111.895 51.8314 112.339 51.3164 112.658C50.806 112.977 50.2181 113.137 49.5527 113.137C48.5501 113.137 47.7367 112.788 47.1123 112.091C46.4925 111.394 46.1826 110.471 46.1826 109.322V109.233ZM47.4541 109.384C47.4541 110.204 47.6432 110.863 48.0215 111.359C48.4043 111.856 48.9147 112.104 49.5527 112.104C50.1953 112.104 50.7057 111.854 51.084 111.353C51.4622 110.847 51.6514 110.14 51.6514 109.233C51.6514 108.422 51.4577 107.766 51.0703 107.265C50.6875 106.759 50.1771 106.506 49.5391 106.506C48.9147 106.506 48.4111 106.754 48.0283 107.251C47.6455 107.748 47.4541 108.459 47.4541 109.384ZM57.083 111.284L58.915 105.604H60.207L57.5547 113H56.5908L53.9111 105.604H55.2031L57.083 111.284ZM64.6475 113.137C63.6449 113.137 62.8291 112.809 62.2002 112.152C61.5713 111.492 61.2568 110.61 61.2568 109.507V109.274C61.2568 108.541 61.3958 107.887 61.6738 107.312C61.9564 106.734 62.3483 106.283 62.8496 105.959C63.3555 105.631 63.9023 105.467 64.4902 105.467C65.4518 105.467 66.1992 105.784 66.7324 106.417C67.2656 107.05 67.5322 107.957 67.5322 109.138V109.664H62.5215C62.5397 110.393 62.7516 110.983 63.1572 111.435C63.5674 111.881 64.0869 112.104 64.7158 112.104C65.1624 112.104 65.5407 112.013 65.8506 111.831C66.1605 111.649 66.4316 111.407 66.6641 111.106L67.4365 111.708C66.8167 112.66 65.887 113.137 64.6475 113.137ZM64.4902 106.506C63.9798 106.506 63.5514 106.693 63.2051 107.066C62.8587 107.436 62.6445 107.955 62.5625 108.625H66.2676V108.529C66.2311 107.887 66.0579 107.39 65.748 107.039C65.4382 106.684 65.0189 106.506 64.4902 106.506ZM74.1641 105.604L74.1982 106.424C74.7406 105.786 75.472 105.467 76.3926 105.467C77.4271 105.467 78.1312 105.863 78.5049 106.656C78.751 106.301 79.07 106.014 79.4619 105.795C79.8584 105.576 80.3255 105.467 80.8633 105.467C82.4857 105.467 83.3105 106.326 83.3379 108.044V113H82.0732V108.119C82.0732 107.59 81.9525 107.196 81.7109 106.937C81.4694 106.672 81.0638 106.54 80.4941 106.54C80.0247 106.54 79.6351 106.681 79.3252 106.964C79.0153 107.242 78.8353 107.618 78.7852 108.092V113H77.5137V108.153C77.5137 107.078 76.9873 106.54 75.9346 106.54C75.1051 106.54 74.5378 106.893 74.2324 107.6V113H72.9678V105.604H74.1641ZM87.9219 111.147L89.6445 105.604H90.998L88.0244 114.142C87.5641 115.372 86.8327 115.987 85.8301 115.987L85.5908 115.967L85.1191 115.878V114.853L85.4609 114.88C85.8893 114.88 86.222 114.793 86.459 114.62C86.7005 114.447 86.8988 114.13 87.0537 113.67L87.334 112.918L84.6953 105.604H86.0762L87.9219 111.147ZM100.412 111.038C100.412 110.696 100.282 110.432 100.022 110.245C99.7673 110.054 99.3184 109.89 98.6758 109.753C98.0378 109.616 97.5296 109.452 97.1514 109.261C96.7777 109.069 96.4997 108.841 96.3174 108.577C96.1396 108.313 96.0508 107.998 96.0508 107.634C96.0508 107.028 96.306 106.515 96.8164 106.096C97.3314 105.676 97.9876 105.467 98.7852 105.467C99.6237 105.467 100.303 105.683 100.822 106.116C101.346 106.549 101.608 107.103 101.608 107.777H100.337C100.337 107.431 100.189 107.132 99.8926 106.882C99.6009 106.631 99.2318 106.506 98.7852 106.506C98.3249 106.506 97.9648 106.606 97.7051 106.807C97.4453 107.007 97.3154 107.269 97.3154 107.593C97.3154 107.898 97.4362 108.128 97.6777 108.283C97.9193 108.438 98.3545 108.586 98.9834 108.728C99.6169 108.869 100.13 109.037 100.521 109.233C100.913 109.429 101.203 109.666 101.39 109.944C101.581 110.218 101.677 110.553 101.677 110.949C101.677 111.61 101.412 112.141 100.884 112.542C100.355 112.938 99.6693 113.137 98.8262 113.137C98.2337 113.137 97.7096 113.032 97.2539 112.822C96.7982 112.613 96.4404 112.321 96.1807 111.947C95.9255 111.569 95.7979 111.161 95.7979 110.724H97.0625C97.0853 111.147 97.2539 111.485 97.5684 111.735C97.8874 111.981 98.3066 112.104 98.8262 112.104C99.3047 112.104 99.6875 112.009 99.9746 111.817C100.266 111.621 100.412 111.362 100.412 111.038ZM106.644 113.137C105.641 113.137 104.825 112.809 104.196 112.152C103.567 111.492 103.253 110.61 103.253 109.507V109.274C103.253 108.541 103.392 107.887 103.67 107.312C103.952 106.734 104.344 106.283 104.846 105.959C105.352 105.631 105.898 105.467 106.486 105.467C107.448 105.467 108.195 105.784 108.729 106.417C109.262 107.05 109.528 107.957 109.528 109.138V109.664H104.518C104.536 110.393 104.748 110.983 105.153 111.435C105.563 111.881 106.083 112.104 106.712 112.104C107.159 112.104 107.537 112.013 107.847 111.831C108.157 111.649 108.428 111.407 108.66 111.106L109.433 111.708C108.813 112.66 107.883 113.137 106.644 113.137ZM106.486 106.506C105.976 106.506 105.548 106.693 105.201 107.066C104.855 107.436 104.641 107.955 104.559 108.625H108.264V108.529C108.227 107.887 108.054 107.39 107.744 107.039C107.434 106.684 107.015 106.506 106.486 106.506ZM112.444 105.604L112.485 106.533C113.05 105.822 113.789 105.467 114.7 105.467C116.263 105.467 117.052 106.349 117.065 108.112V113H115.801V108.105C115.796 107.572 115.673 107.178 115.432 106.923C115.195 106.668 114.823 106.54 114.317 106.54C113.907 106.54 113.547 106.649 113.237 106.868C112.927 107.087 112.686 107.374 112.513 107.729V113H111.248V105.604H112.444ZM123.529 111.038C123.529 110.696 123.399 110.432 123.14 110.245C122.884 110.054 122.436 109.89 121.793 109.753C121.155 109.616 120.647 109.452 120.269 109.261C119.895 109.069 119.617 108.841 119.435 108.577C119.257 108.313 119.168 107.998 119.168 107.634C119.168 107.028 119.423 106.515 119.934 106.096C120.449 105.676 121.105 105.467 121.902 105.467C122.741 105.467 123.42 105.683 123.939 106.116C124.464 106.549 124.726 107.103 124.726 107.777H123.454C123.454 107.431 123.306 107.132 123.01 106.882C122.718 106.631 122.349 106.506 121.902 106.506C121.442 106.506 121.082 106.606 120.822 106.807C120.562 107.007 120.433 107.269 120.433 107.593C120.433 107.898 120.553 108.128 120.795 108.283C121.036 108.438 121.472 108.586 122.101 108.728C122.734 108.869 123.247 109.037 123.639 109.233C124.031 109.429 124.32 109.666 124.507 109.944C124.698 110.218 124.794 110.553 124.794 110.949C124.794 111.61 124.53 112.141 124.001 112.542C123.472 112.938 122.786 113.137 121.943 113.137C121.351 113.137 120.827 113.032 120.371 112.822C119.915 112.613 119.558 112.321 119.298 111.947C119.043 111.569 118.915 111.161 118.915 110.724H120.18C120.202 111.147 120.371 111.485 120.686 111.735C121.005 111.981 121.424 112.104 121.943 112.104C122.422 112.104 122.805 112.009 123.092 111.817C123.383 111.621 123.529 111.362 123.529 111.038ZM129.761 113.137C128.758 113.137 127.942 112.809 127.313 112.152C126.685 111.492 126.37 110.61 126.37 109.507V109.274C126.37 108.541 126.509 107.887 126.787 107.312C127.07 106.734 127.462 106.283 127.963 105.959C128.469 105.631 129.016 105.467 129.604 105.467C130.565 105.467 131.312 105.784 131.846 106.417C132.379 107.05 132.646 107.957 132.646 109.138V109.664H127.635C127.653 110.393 127.865 110.983 128.271 111.435C128.681 111.881 129.2 112.104 129.829 112.104C130.276 112.104 130.654 112.013 130.964 111.831C131.274 111.649 131.545 111.407 131.777 111.106L132.55 111.708C131.93 112.66 131 113.137 129.761 113.137ZM129.604 106.506C129.093 106.506 128.665 106.693 128.318 107.066C127.972 107.436 127.758 107.955 127.676 108.625H131.381V108.529C131.344 107.887 131.171 107.39 130.861 107.039C130.551 106.684 130.132 106.506 129.604 106.506ZM137.753 109.233C137.753 108.509 137.894 107.857 138.177 107.278C138.464 106.7 138.86 106.253 139.366 105.938C139.877 105.624 140.458 105.467 141.109 105.467C142.117 105.467 142.93 105.815 143.55 106.513C144.174 107.21 144.486 108.137 144.486 109.295V109.384C144.486 110.104 144.347 110.751 144.069 111.325C143.796 111.895 143.402 112.339 142.887 112.658C142.376 112.977 141.788 113.137 141.123 113.137C140.12 113.137 139.307 112.788 138.683 112.091C138.063 111.394 137.753 110.471 137.753 109.322V109.233ZM139.024 109.384C139.024 110.204 139.214 110.863 139.592 111.359C139.975 111.856 140.485 112.104 141.123 112.104C141.766 112.104 142.276 111.854 142.654 111.353C143.033 110.847 143.222 110.14 143.222 109.233C143.222 108.422 143.028 107.766 142.641 107.265C142.258 106.759 141.747 106.506 141.109 106.506C140.485 106.506 139.981 106.754 139.599 107.251C139.216 107.748 139.024 108.459 139.024 109.384ZM146.944 113V106.581H145.775V105.604H146.944V104.845C146.944 104.052 147.156 103.439 147.58 103.006C148.004 102.573 148.603 102.356 149.378 102.356C149.67 102.356 149.959 102.395 150.246 102.473L150.178 103.498C149.964 103.457 149.736 103.437 149.494 103.437C149.084 103.437 148.767 103.557 148.544 103.799C148.321 104.036 148.209 104.378 148.209 104.824V105.604H149.788V106.581H148.209V113H146.944ZM156.427 106.499C156.987 105.811 157.716 105.467 158.614 105.467C160.177 105.467 160.966 106.349 160.979 108.112V113H159.715V108.105C159.71 107.572 159.587 107.178 159.346 106.923C159.109 106.668 158.737 106.54 158.231 106.54C157.821 106.54 157.461 106.649 157.151 106.868C156.841 107.087 156.6 107.374 156.427 107.729V113H155.162V102.5H156.427V106.499ZM167.689 112.269C167.197 112.847 166.475 113.137 165.522 113.137C164.734 113.137 164.132 112.909 163.718 112.453C163.308 111.993 163.1 111.314 163.096 110.416V105.604H164.36V110.382C164.36 111.503 164.816 112.063 165.728 112.063C166.694 112.063 167.336 111.703 167.655 110.983V105.604H168.92V113H167.717L167.689 112.269ZM172.287 105.604L172.321 106.424C172.864 105.786 173.595 105.467 174.516 105.467C175.55 105.467 176.254 105.863 176.628 106.656C176.874 106.301 177.193 106.014 177.585 105.795C177.981 105.576 178.449 105.467 178.986 105.467C180.609 105.467 181.434 106.326 181.461 108.044V113H180.196V108.119C180.196 107.59 180.076 107.196 179.834 106.937C179.592 106.672 179.187 106.54 178.617 106.54C178.148 106.54 177.758 106.681 177.448 106.964C177.138 107.242 176.958 107.618 176.908 108.092V113H175.637V108.153C175.637 107.078 175.11 106.54 174.058 106.54C173.228 106.54 172.661 106.893 172.355 107.6V113H171.091V105.604H172.287ZM183.29 109.233C183.29 108.509 183.431 107.857 183.714 107.278C184.001 106.7 184.397 106.253 184.903 105.938C185.414 105.624 185.995 105.467 186.646 105.467C187.654 105.467 188.467 105.815 189.087 106.513C189.711 107.21 190.023 108.137 190.023 109.295V109.384C190.023 110.104 189.884 110.751 189.606 111.325C189.333 111.895 188.939 112.339 188.424 112.658C187.913 112.977 187.326 113.137 186.66 113.137C185.658 113.137 184.844 112.788 184.22 112.091C183.6 111.394 183.29 110.471 183.29 109.322V109.233ZM184.562 109.384C184.562 110.204 184.751 110.863 185.129 111.359C185.512 111.856 186.022 112.104 186.66 112.104C187.303 112.104 187.813 111.854 188.191 111.353C188.57 110.847 188.759 110.14 188.759 109.233C188.759 108.422 188.565 107.766 188.178 107.265C187.795 106.759 187.285 106.506 186.646 106.506C186.022 106.506 185.519 106.754 185.136 107.251C184.753 107.748 184.562 108.459 184.562 109.384ZM195.435 106.738C195.243 106.706 195.036 106.69 194.812 106.69C193.983 106.69 193.42 107.044 193.124 107.75V113H191.859V105.604H193.09L193.11 106.458C193.525 105.797 194.113 105.467 194.874 105.467C195.12 105.467 195.307 105.499 195.435 105.562V106.738Z" fill="black" fill-opacity="0.6"/>
<path fill-rule="evenodd" clip-rule="evenodd" d="M382 94C383.1 94 384 93.1 384 92C384 90.9 383.1 90 382 90C380.9 90 380 90.9 380 92C380 93.1 380.9 94 382 94ZM382 96C380.9 96 380 96.9 380 98C380 99.1 380.9 100 382 100C383.1 100 384 99.1 384 98C384 96.9 383.1 96 382 96ZM382 102C380.9 102 380 102.9 380 104C380 105.1 380.9 106 382 106C383.1 106 384 105.1 384 104C384 102.9 383.1 102 382 102Z" fill="black" fill-opacity="0.6"/>
<rect x="17.5111" y="129" width="376.489" height="1" fill="#212121" fill-opacity="0.08"/>
</g>
<mask id="mask1_726:4085" style="mask-type:alpha" maskUnits="userSpaceOnUse" x="0" y="140" width="394" height="64">
<rect y="140" width="394" height="64" fill="white"/>
</mask>
<g mask="url(#mask1_726:4085)">
<path d="M23.75 160.742H18.8203V164.773H24.5469V166H17.3203V154.625H24.4688V155.859H18.8203V159.516H23.75V160.742ZM31.5562 166C31.4729 165.833 31.4052 165.536 31.3531 165.109C30.6812 165.807 29.8792 166.156 28.9469 166.156C28.1135 166.156 27.4286 165.922 26.8922 165.453C26.3609 164.979 26.0953 164.38 26.0953 163.656C26.0953 162.776 26.4286 162.094 27.0953 161.609C27.7672 161.12 28.7099 160.875 29.9234 160.875H31.3297V160.211C31.3297 159.706 31.1786 159.305 30.8766 159.008C30.5745 158.706 30.1292 158.555 29.5406 158.555C29.025 158.555 28.5927 158.685 28.2437 158.945C27.8948 159.206 27.7203 159.521 27.7203 159.891H26.2672C26.2672 159.469 26.4156 159.062 26.7125 158.672C27.0146 158.276 27.4208 157.964 27.9312 157.734C28.4469 157.505 29.012 157.391 29.6266 157.391C30.6005 157.391 31.3635 157.635 31.9156 158.125C32.4677 158.609 32.7542 159.279 32.775 160.133V164.023C32.775 164.799 32.874 165.417 33.0719 165.875V166H31.5562ZM29.1578 164.898C29.6109 164.898 30.0406 164.781 30.4469 164.547C30.8531 164.312 31.1474 164.008 31.3297 163.633V161.898H30.1969C28.426 161.898 27.5406 162.417 27.5406 163.453C27.5406 163.906 27.6917 164.26 27.9937 164.516C28.2958 164.771 28.6839 164.898 29.1578 164.898ZM37.1516 155.5V157.547H38.7297V158.664H37.1516V163.906C37.1516 164.245 37.2219 164.5 37.3625 164.672C37.5031 164.839 37.7427 164.922 38.0812 164.922C38.2479 164.922 38.4771 164.891 38.7687 164.828V166C38.3885 166.104 38.0187 166.156 37.6594 166.156C37.0135 166.156 36.5266 165.961 36.1984 165.57C35.8703 165.18 35.7062 164.625 35.7062 163.906V158.664H34.1672V157.547H35.7062V155.5H37.1516ZM51.85 161.867C51.85 163.159 51.5531 164.198 50.9594 164.984C50.3656 165.766 49.5688 166.156 48.5688 166.156C47.501 166.156 46.6755 165.779 46.0922 165.023L46.0219 166H44.6938V154H46.1391V158.477C46.7224 157.753 47.5271 157.391 48.5531 157.391C49.5792 157.391 50.3839 157.779 50.9672 158.555C51.5557 159.331 51.85 160.393 51.85 161.742V161.867ZM50.4047 161.703C50.4047 160.719 50.2146 159.958 49.8344 159.422C49.4542 158.885 48.9073 158.617 48.1938 158.617C47.2406 158.617 46.5557 159.06 46.1391 159.945V163.602C46.5818 164.487 47.2719 164.93 48.2094 164.93C48.9021 164.93 49.4411 164.661 49.8266 164.125C50.212 163.589 50.4047 162.781 50.4047 161.703ZM57.9141 158.844C57.6953 158.807 57.4583 158.789 57.2031 158.789C56.2552 158.789 55.612 159.193 55.2734 160V166H53.8281V157.547H55.2344L55.2578 158.523C55.7318 157.768 56.4036 157.391 57.2734 157.391C57.5547 157.391 57.7682 157.427 57.9141 157.5V158.844ZM62.7516 166.156C61.6057 166.156 60.6734 165.781 59.9547 165.031C59.2359 164.276 58.8766 163.268 58.8766 162.008V161.742C58.8766 160.904 59.0354 160.156 59.3531 159.5C59.676 158.839 60.124 158.323 60.6969 157.953C61.275 157.578 61.9 157.391 62.5719 157.391C63.6708 157.391 64.525 157.753 65.1344 158.477C65.7438 159.201 66.0484 160.237 66.0484 161.586V162.188H60.3219C60.3427 163.021 60.5849 163.695 61.0484 164.211C61.5172 164.721 62.1109 164.977 62.8297 164.977C63.3401 164.977 63.7724 164.872 64.1266 164.664C64.4807 164.456 64.7906 164.18 65.0563 163.836L65.9391 164.523C65.2307 165.612 64.1682 166.156 62.7516 166.156ZM62.5719 158.578C61.9885 158.578 61.499 158.792 61.1031 159.219C60.7073 159.641 60.4625 160.234 60.3688 161H64.6031V160.891C64.5615 160.156 64.3635 159.589 64.0094 159.188C63.6552 158.781 63.176 158.578 62.5719 158.578ZM73.0969 166C73.0135 165.833 72.9458 165.536 72.8937 165.109C72.2219 165.807 71.4198 166.156 70.4875 166.156C69.6542 166.156 68.9693 165.922 68.4328 165.453C67.9016 164.979 67.6359 164.38 67.6359 163.656C67.6359 162.776 67.9693 162.094 68.6359 161.609C69.3078 161.12 70.2505 160.875 71.4641 160.875H72.8703V160.211C72.8703 159.706 72.7193 159.305 72.4172 159.008C72.1151 158.706 71.6698 158.555 71.0812 158.555C70.5656 158.555 70.1333 158.685 69.7844 158.945C69.4354 159.206 69.2609 159.521 69.2609 159.891H67.8078C67.8078 159.469 67.9562 159.062 68.2531 158.672C68.5552 158.276 68.9615 157.964 69.4719 157.734C69.9875 157.505 70.5526 157.391 71.1672 157.391C72.1411 157.391 72.9042 157.635 73.4562 158.125C74.0083 158.609 74.2948 159.279 74.3156 160.133V164.023C74.3156 164.799 74.4146 165.417 74.6125 165.875V166H73.0969ZM70.6984 164.898C71.1516 164.898 71.5812 164.781 71.9875 164.547C72.3937 164.312 72.688 164.008 72.8703 163.633V161.898H71.7375C69.9667 161.898 69.0812 162.417 69.0812 163.453C69.0812 163.906 69.2323 164.26 69.5344 164.516C69.8365 164.771 70.2245 164.898 70.6984 164.898ZM79.0906 162.086L78.1844 163.031V166H76.7391V154H78.1844V161.258L78.9578 160.328L81.5906 157.547H83.3484L80.0594 161.078L83.7313 166H82.0359L79.0906 162.086ZM85.7016 166V158.664H84.3656V157.547H85.7016V156.68C85.7016 155.773 85.9437 155.073 86.4281 154.578C86.9125 154.083 87.5974 153.836 88.4828 153.836C88.8161 153.836 89.1469 153.88 89.475 153.969L89.3969 155.141C89.1521 155.094 88.8917 155.07 88.6156 155.07C88.1469 155.07 87.7849 155.208 87.5297 155.484C87.2745 155.755 87.1469 156.146 87.1469 156.656V157.547H88.9516V158.664H87.1469V166H85.7016ZM95.9219 166C95.8385 165.833 95.7708 165.536 95.7188 165.109C95.0469 165.807 94.2448 166.156 93.3125 166.156C92.4792 166.156 91.7943 165.922 91.2578 165.453C90.7266 164.979 90.4609 164.38 90.4609 163.656C90.4609 162.776 90.7943 162.094 91.4609 161.609C92.1328 161.12 93.0755 160.875 94.2891 160.875H95.6953V160.211C95.6953 159.706 95.5443 159.305 95.2422 159.008C94.9401 158.706 94.4948 158.555 93.9062 158.555C93.3906 158.555 92.9583 158.685 92.6094 158.945C92.2604 159.206 92.0859 159.521 92.0859 159.891H90.6328C90.6328 159.469 90.7812 159.062 91.0781 158.672C91.3802 158.276 91.7865 157.964 92.2969 157.734C92.8125 157.505 93.3776 157.391 93.9922 157.391C94.9661 157.391 95.7292 157.635 96.2812 158.125C96.8333 158.609 97.1198 159.279 97.1406 160.133V164.023C97.1406 164.799 97.2396 165.417 97.4375 165.875V166H95.9219ZM93.5234 164.898C93.9766 164.898 94.4062 164.781 94.8125 164.547C95.2188 164.312 95.513 164.008 95.6953 163.633V161.898H94.5625C92.7917 161.898 91.9062 162.417 91.9062 163.453C91.9062 163.906 92.0573 164.26 92.3594 164.516C92.6615 164.771 93.0495 164.898 93.5234 164.898ZM104.478 163.758C104.478 163.367 104.33 163.065 104.033 162.852C103.741 162.633 103.228 162.445 102.494 162.289C101.765 162.133 101.184 161.945 100.752 161.727C100.324 161.508 100.007 161.247 99.7984 160.945C99.5953 160.643 99.4938 160.284 99.4938 159.867C99.4938 159.174 99.7854 158.589 100.369 158.109C100.957 157.63 101.707 157.391 102.619 157.391C103.577 157.391 104.353 157.638 104.947 158.133C105.546 158.628 105.845 159.26 105.845 160.031H104.392C104.392 159.635 104.223 159.294 103.884 159.008C103.551 158.721 103.129 158.578 102.619 158.578C102.093 158.578 101.681 158.693 101.384 158.922C101.088 159.151 100.939 159.451 100.939 159.82C100.939 160.169 101.077 160.432 101.353 160.609C101.629 160.786 102.127 160.956 102.845 161.117C103.569 161.279 104.155 161.471 104.603 161.695C105.051 161.919 105.382 162.19 105.595 162.508C105.814 162.82 105.923 163.203 105.923 163.656C105.923 164.411 105.621 165.018 105.017 165.477C104.413 165.93 103.629 166.156 102.666 166.156C101.989 166.156 101.39 166.036 100.869 165.797C100.348 165.557 99.9391 165.224 99.6422 164.797C99.3505 164.365 99.2047 163.898 99.2047 163.398H100.65C100.676 163.883 100.869 164.268 101.228 164.555C101.593 164.836 102.072 164.977 102.666 164.977C103.213 164.977 103.65 164.867 103.978 164.648C104.311 164.424 104.478 164.128 104.478 163.758ZM109.917 155.5V157.547H111.495V158.664H109.917V163.906C109.917 164.245 109.988 164.5 110.128 164.672C110.269 164.839 110.508 164.922 110.847 164.922C111.014 164.922 111.243 164.891 111.534 164.828V166C111.154 166.104 110.784 166.156 110.425 166.156C109.779 166.156 109.292 165.961 108.964 165.57C108.636 165.18 108.472 164.625 108.472 163.906V158.664H106.933V157.547H108.472V155.5H109.917Z" fill="black" fill-opacity="0.87"/>
<path d="M17.1553 187V177.047H20.4092C21.4893 177.047 22.3005 177.27 22.8428 177.717C23.3896 178.163 23.6631 178.824 23.6631 179.699C23.6631 180.164 23.5309 180.576 23.2666 180.937C23.0023 181.292 22.6423 181.568 22.1865 181.764C22.7243 181.914 23.1481 182.201 23.458 182.625C23.7725 183.044 23.9297 183.546 23.9297 184.129C23.9297 185.022 23.6403 185.724 23.0615 186.234C22.4827 186.745 21.6647 187 20.6074 187H17.1553ZM18.4678 182.345V185.927H20.6348C21.2454 185.927 21.7262 185.77 22.0771 185.455C22.4326 185.136 22.6104 184.699 22.6104 184.143C22.6104 182.944 21.9587 182.345 20.6553 182.345H18.4678ZM18.4678 181.292H20.4502C21.0244 181.292 21.4824 181.148 21.8242 180.861C22.1706 180.574 22.3438 180.185 22.3438 179.692C22.3438 179.146 22.1842 178.749 21.8652 178.503C21.5462 178.252 21.0609 178.127 20.4092 178.127H18.4678V181.292ZM28.999 187.137C27.9964 187.137 27.1807 186.809 26.5518 186.152C25.9229 185.492 25.6084 184.61 25.6084 183.507V183.274C25.6084 182.541 25.7474 181.887 26.0254 181.312C26.3079 180.734 26.6999 180.283 27.2012 179.959C27.707 179.631 28.2539 179.467 28.8418 179.467C29.8034 179.467 30.5508 179.784 31.084 180.417C31.6172 181.05 31.8838 181.957 31.8838 183.138V183.664H26.873C26.8913 184.393 27.1032 184.983 27.5088 185.435C27.9189 185.881 28.4385 186.104 29.0674 186.104C29.514 186.104 29.8923 186.013 30.2021 185.831C30.512 185.649 30.7832 185.407 31.0156 185.106L31.7881 185.708C31.1683 186.66 30.2386 187.137 28.999 187.137ZM28.8418 180.506C28.3314 180.506 27.903 180.693 27.5566 181.066C27.2103 181.436 26.9961 181.955 26.9141 182.625H30.6191V182.529C30.5827 181.887 30.4095 181.39 30.0996 181.039C29.7897 180.684 29.3704 180.506 28.8418 180.506ZM38.5908 180.499C39.1514 179.811 39.8805 179.467 40.7783 179.467C42.3415 179.467 43.1299 180.349 43.1436 182.112V187H41.8789V182.105C41.8743 181.572 41.7513 181.178 41.5098 180.923C41.2728 180.668 40.9014 180.54 40.3955 180.54C39.9854 180.54 39.6253 180.649 39.3154 180.868C39.0055 181.087 38.764 181.374 38.5908 181.729V187H37.3262V176.5H38.5908V180.499ZM48.3564 187.137C47.3538 187.137 46.5381 186.809 45.9092 186.152C45.2803 185.492 44.9658 184.61 44.9658 183.507V183.274C44.9658 182.541 45.1048 181.887 45.3828 181.312C45.6654 180.734 46.0573 180.283 46.5586 179.959C47.0645 179.631 47.6113 179.467 48.1992 179.467C49.1608 179.467 49.9082 179.784 50.4414 180.417C50.9746 181.05 51.2412 181.957 51.2412 183.138V183.664H46.2305C46.2487 184.393 46.4606 184.983 46.8662 185.435C47.2764 185.881 47.7959 186.104 48.4248 186.104C48.8714 186.104 49.2497 186.013 49.5596 185.831C49.8695 185.649 50.1406 185.407 50.373 185.106L51.1455 185.708C50.5257 186.66 49.596 187.137 48.3564 187.137ZM48.1992 180.506C47.6888 180.506 47.2604 180.693 46.9141 181.066C46.5677 181.436 46.3535 181.955 46.2715 182.625H49.9766V182.529C49.9401 181.887 49.7669 181.39 49.457 181.039C49.1471 180.684 48.7279 180.506 48.1992 180.506ZM57.5273 187C57.4544 186.854 57.3952 186.594 57.3496 186.221C56.7617 186.831 56.0599 187.137 55.2441 187.137C54.515 187.137 53.9157 186.932 53.4463 186.521C52.9814 186.107 52.749 185.583 52.749 184.949C52.749 184.179 53.0407 183.582 53.624 183.158C54.2119 182.73 55.0368 182.516 56.0986 182.516H57.3291V181.935C57.3291 181.493 57.1969 181.142 56.9326 180.882C56.6683 180.618 56.2786 180.485 55.7637 180.485C55.3125 180.485 54.9342 180.599 54.6289 180.827C54.3236 181.055 54.1709 181.331 54.1709 181.654H52.8994C52.8994 181.285 53.0293 180.93 53.2891 180.588C53.5534 180.242 53.9089 179.968 54.3555 179.768C54.8066 179.567 55.3011 179.467 55.8389 179.467C56.6911 179.467 57.3587 179.681 57.8418 180.109C58.3249 180.533 58.5755 181.119 58.5938 181.866V185.271C58.5938 185.95 58.6803 186.49 58.8535 186.891V187H57.5273ZM55.4287 186.036C55.8252 186.036 56.2012 185.934 56.5566 185.729C56.9121 185.523 57.1696 185.257 57.3291 184.929V183.411H56.3379C54.7884 183.411 54.0137 183.865 54.0137 184.771C54.0137 185.168 54.1458 185.478 54.4102 185.701C54.6745 185.924 55.014 186.036 55.4287 186.036ZM62.2002 187H60.9355V176.5H62.2002V187ZM66.1963 177.812V179.604H67.5771V180.581H66.1963V185.168C66.1963 185.464 66.2578 185.688 66.3809 185.838C66.5039 185.984 66.7135 186.057 67.0098 186.057C67.1556 186.057 67.3561 186.029 67.6113 185.975V187C67.2786 187.091 66.9551 187.137 66.6406 187.137C66.0755 187.137 65.6494 186.966 65.3623 186.624C65.0752 186.282 64.9316 185.797 64.9316 185.168V180.581H63.585V179.604H64.9316V177.812H66.1963ZM70.5752 180.499C71.1357 179.811 71.8649 179.467 72.7627 179.467C74.3258 179.467 75.1143 180.349 75.1279 182.112V187H73.8633V182.105C73.8587 181.572 73.7357 181.178 73.4941 180.923C73.2572 180.668 72.8857 180.54 72.3799 180.54C71.9697 180.54 71.6097 180.649 71.2998 180.868C70.9899 181.087 70.7484 181.374 70.5752 181.729V187H69.3105V176.5H70.5752V180.499ZM79.6914 185.147L81.4141 179.604H82.7676L79.7939 188.142C79.3337 189.372 78.6022 189.987 77.5996 189.987L77.3604 189.967L76.8887 189.878V188.853L77.2305 188.88C77.6589 188.88 77.9915 188.793 78.2285 188.62C78.4701 188.447 78.6683 188.13 78.8232 187.67L79.1035 186.918L76.4648 179.604H77.8457L79.6914 185.147Z" fill="black" fill-opacity="0.6"/>
<path fill-rule="evenodd" clip-rule="evenodd" d="M382 168C383.1 168 384 167.1 384 166C384 164.9 383.1 164 382 164C380.9 164 380 164.9 380 166C380 167.1 380.9 168 382 168ZM382 170C380.9 170 380 170.9 380 172C380 173.1 380.9 174 382 174C383.1 174 384 173.1 384 172C384 170.9 383.1 170 382 170ZM382 176C380.9 176 380 176.9 380 178C380 179.1 380.9 180 382 180C383.1 180 384 179.1 384 178C384 176.9 383.1 176 382 176Z" fill="black" fill-opacity="0.6"/>
<rect x="17.5111" y="203" width="376.489" height="1" fill="#212121" fill-opacity="0.08"/>
</g>
<mask id="mask2_726:4085" style="mask-type:alpha" maskUnits="userSpaceOnUse" x="0" y="214" width="394" height="64">
<rect y="214" width="394" height="64" fill="white"/>
</mask>
<g mask="url(#mask2_726:4085)">
<path d="M26.0625 240H24.5547L18.8281 231.234V240H17.3203V228.625H18.8281L24.5703 237.43V228.625H26.0625V240ZM28.2672 235.695C28.2672 234.867 28.4286 234.122 28.7516 233.461C29.0797 232.799 29.5328 232.289 30.1109 231.93C30.6943 231.57 31.3583 231.391 32.1031 231.391C33.2542 231.391 34.1839 231.789 34.8922 232.586C35.6057 233.383 35.9625 234.443 35.9625 235.766V235.867C35.9625 236.69 35.8036 237.43 35.4859 238.086C35.1734 238.737 34.7229 239.245 34.1344 239.609C33.551 239.974 32.8792 240.156 32.1187 240.156C30.9729 240.156 30.0432 239.758 29.3297 238.961C28.6214 238.164 28.2672 237.109 28.2672 235.797V235.695ZM29.7203 235.867C29.7203 236.805 29.9365 237.557 30.3687 238.125C30.8062 238.693 31.3896 238.977 32.1187 238.977C32.8531 238.977 33.4365 238.69 33.8687 238.117C34.301 237.539 34.5172 236.732 34.5172 235.695C34.5172 234.768 34.2958 234.018 33.8531 233.445C33.4156 232.867 32.8323 232.578 32.1031 232.578C31.3896 232.578 30.8141 232.862 30.3766 233.43C29.9391 233.997 29.7203 234.81 29.7203 235.867ZM45.4344 238.977C45.95 238.977 46.4005 238.82 46.7859 238.508C47.1714 238.195 47.3849 237.805 47.4266 237.336H48.7938C48.7677 237.82 48.601 238.281 48.2938 238.719C47.9865 239.156 47.575 239.505 47.0594 239.766C46.549 240.026 46.0073 240.156 45.4344 240.156C44.2833 240.156 43.3667 239.773 42.6844 239.008C42.0073 238.237 41.6688 237.185 41.6688 235.852V235.609C41.6688 234.786 41.8198 234.055 42.1219 233.414C42.424 232.773 42.8563 232.276 43.4188 231.922C43.9865 231.568 44.6557 231.391 45.4266 231.391C46.3745 231.391 47.1609 231.674 47.7859 232.242C48.4161 232.81 48.7521 233.547 48.7938 234.453H47.4266C47.3849 233.906 47.1766 233.458 46.8016 233.109C46.4318 232.755 45.9734 232.578 45.4266 232.578C44.6922 232.578 44.1219 232.844 43.7156 233.375C43.3146 233.901 43.1141 234.664 43.1141 235.664V235.938C43.1141 236.911 43.3146 237.661 43.7156 238.188C44.1167 238.714 44.6896 238.977 45.4344 238.977ZM55.7875 240C55.7042 239.833 55.6365 239.536 55.5844 239.109C54.9125 239.807 54.1104 240.156 53.1781 240.156C52.3448 240.156 51.6599 239.922 51.1234 239.453C50.5922 238.979 50.3266 238.38 50.3266 237.656C50.3266 236.776 50.6599 236.094 51.3266 235.609C51.9984 235.12 52.9411 234.875 54.1547 234.875H55.5609V234.211C55.5609 233.706 55.4099 233.305 55.1078 233.008C54.8057 232.706 54.3604 232.555 53.7719 232.555C53.2562 232.555 52.824 232.685 52.475 232.945C52.126 233.206 51.9516 233.521 51.9516 233.891H50.4984C50.4984 233.469 50.6469 233.062 50.9437 232.672C51.2458 232.276 51.6521 231.964 52.1625 231.734C52.6781 231.505 53.2432 231.391 53.8578 231.391C54.8318 231.391 55.5948 231.635 56.1469 232.125C56.699 232.609 56.9854 233.279 57.0062 234.133V238.023C57.0062 238.799 57.1052 239.417 57.3031 239.875V240H55.7875ZM53.3891 238.898C53.8422 238.898 54.2719 238.781 54.6781 238.547C55.0844 238.312 55.3786 238.008 55.5609 237.633V235.898H54.4281C52.6573 235.898 51.7719 236.417 51.7719 237.453C51.7719 237.906 51.9229 238.26 52.225 238.516C52.5271 238.771 52.9151 238.898 53.3891 238.898ZM63.5078 232.844C63.2891 232.807 63.0521 232.789 62.7969 232.789C61.849 232.789 61.2057 233.193 60.8672 234V240H59.4219V231.547H60.8281L60.8516 232.523C61.3255 231.768 61.9974 231.391 62.8672 231.391C63.1484 231.391 63.362 231.427 63.5078 231.5V232.844ZM74.3312 240C74.2479 239.833 74.1802 239.536 74.1281 239.109C73.4562 239.807 72.6542 240.156 71.7219 240.156C70.8885 240.156 70.2036 239.922 69.6672 239.453C69.1359 238.979 68.8703 238.38 68.8703 237.656C68.8703 236.776 69.2036 236.094 69.8703 235.609C70.5422 235.12 71.4849 234.875 72.6984 234.875H74.1047V234.211C74.1047 233.706 73.9536 233.305 73.6516 233.008C73.3495 232.706 72.9042 232.555 72.3156 232.555C71.8 232.555 71.3677 232.685 71.0187 232.945C70.6698 233.206 70.4953 233.521 70.4953 233.891H69.0422C69.0422 233.469 69.1906 233.062 69.4875 232.672C69.7896 232.276 70.1958 231.964 70.7062 231.734C71.2219 231.505 71.787 231.391 72.4016 231.391C73.3755 231.391 74.1385 231.635 74.6906 232.125C75.2427 232.609 75.5292 233.279 75.55 234.133V238.023C75.55 238.799 75.649 239.417 75.8469 239.875V240H74.3312ZM71.9328 238.898C72.3859 238.898 72.8156 238.781 73.2219 238.547C73.6281 238.312 73.9224 238.008 74.1047 237.633V235.898H72.9719C71.201 235.898 70.3156 236.417 70.3156 237.453C70.3156 237.906 70.4667 238.26 70.7687 238.516C71.0708 238.771 71.4589 238.898 71.9328 238.898ZM81.3563 238.977C81.8719 238.977 82.3224 238.82 82.7078 238.508C83.0932 238.195 83.3068 237.805 83.3484 237.336H84.7156C84.6896 237.82 84.5229 238.281 84.2156 238.719C83.9083 239.156 83.4969 239.505 82.9813 239.766C82.4708 240.026 81.9292 240.156 81.3563 240.156C80.2052 240.156 79.2885 239.773 78.6063 239.008C77.9292 238.237 77.5906 237.185 77.5906 235.852V235.609C77.5906 234.786 77.7417 234.055 78.0438 233.414C78.3458 232.773 78.7781 232.276 79.3406 231.922C79.9083 231.568 80.5776 231.391 81.3484 231.391C82.2964 231.391 83.0828 231.674 83.7078 232.242C84.338 232.81 84.674 233.547 84.7156 234.453H83.3484C83.3068 233.906 83.0984 233.458 82.7234 233.109C82.3536 232.755 81.8953 232.578 81.3484 232.578C80.6141 232.578 80.0438 232.844 79.6375 233.375C79.2365 233.901 79.0359 234.664 79.0359 235.664V235.938C79.0359 236.911 79.2365 237.661 79.6375 238.188C80.0385 238.714 80.6115 238.977 81.3563 238.977ZM89.8812 238.977C90.3969 238.977 90.8474 238.82 91.2328 238.508C91.6182 238.195 91.8318 237.805 91.8734 237.336H93.2406C93.2146 237.82 93.0479 238.281 92.7406 238.719C92.4333 239.156 92.0219 239.505 91.5062 239.766C90.9958 240.026 90.4542 240.156 89.8812 240.156C88.7302 240.156 87.8135 239.773 87.1312 239.008C86.4542 238.237 86.1156 237.185 86.1156 235.852V235.609C86.1156 234.786 86.2667 234.055 86.5687 233.414C86.8708 232.773 87.3031 232.276 87.8656 231.922C88.4333 231.568 89.1026 231.391 89.8734 231.391C90.8214 231.391 91.6078 231.674 92.2328 232.242C92.863 232.81 93.199 233.547 93.2406 234.453H91.8734C91.8318 233.906 91.6234 233.458 91.2484 233.109C90.8786 232.755 90.4203 232.578 89.8734 232.578C89.1391 232.578 88.5687 232.844 88.1625 233.375C87.7615 233.901 87.5609 234.664 87.5609 235.664V235.938C87.5609 236.911 87.7615 237.661 88.1625 238.188C88.5635 238.714 89.1365 238.977 89.8812 238.977ZM96.5859 240H95.1406V231.547H96.5859V240ZM95.0234 229.305C95.0234 229.07 95.0938 228.872 95.2344 228.711C95.3802 228.549 95.5938 228.469 95.875 228.469C96.1562 228.469 96.3698 228.549 96.5156 228.711C96.6615 228.872 96.7344 229.07 96.7344 229.305C96.7344 229.539 96.6615 229.734 96.5156 229.891C96.3698 230.047 96.1562 230.125 95.875 230.125C95.5938 230.125 95.3802 230.047 95.2344 229.891C95.0938 229.734 95.0234 229.539 95.0234 229.305ZM98.7047 235.703C98.7047 234.406 99.012 233.365 99.6266 232.578C100.241 231.786 101.046 231.391 102.041 231.391C103.03 231.391 103.814 231.729 104.392 232.406V228H105.838V240H104.509L104.439 239.094C103.861 239.802 103.056 240.156 102.025 240.156C101.046 240.156 100.246 239.755 99.6266 238.953C99.012 238.151 98.7047 237.104 98.7047 235.812V235.703ZM100.15 235.867C100.15 236.826 100.348 237.576 100.744 238.117C101.14 238.659 101.686 238.93 102.384 238.93C103.301 238.93 103.97 238.518 104.392 237.695V233.812C103.96 233.016 103.296 232.617 102.4 232.617C101.692 232.617 101.14 232.891 100.744 233.438C100.348 233.984 100.15 234.794 100.15 235.867ZM111.745 240.156C110.599 240.156 109.667 239.781 108.948 239.031C108.23 238.276 107.87 237.268 107.87 236.008V235.742C107.87 234.904 108.029 234.156 108.347 233.5C108.67 232.839 109.118 232.323 109.691 231.953C110.269 231.578 110.894 231.391 111.566 231.391C112.665 231.391 113.519 231.753 114.128 232.477C114.738 233.201 115.042 234.237 115.042 235.586V236.188H109.316C109.336 237.021 109.579 237.695 110.042 238.211C110.511 238.721 111.105 238.977 111.823 238.977C112.334 238.977 112.766 238.872 113.12 238.664C113.474 238.456 113.784 238.18 114.05 237.836L114.933 238.523C114.224 239.612 113.162 240.156 111.745 240.156ZM111.566 232.578C110.982 232.578 110.493 232.792 110.097 233.219C109.701 233.641 109.456 234.234 109.363 235H113.597V234.891C113.555 234.156 113.357 233.589 113.003 233.188C112.649 232.781 112.17 232.578 111.566 232.578ZM118.239 231.547L118.286 232.609C118.932 231.797 119.776 231.391 120.817 231.391C122.604 231.391 123.505 232.398 123.52 234.414V240H122.075V234.406C122.07 233.797 121.929 233.346 121.653 233.055C121.382 232.763 120.958 232.617 120.38 232.617C119.911 232.617 119.499 232.742 119.145 232.992C118.791 233.242 118.515 233.57 118.317 233.977V240H116.872V231.547H118.239ZM127.811 229.5V231.547H129.389V232.664H127.811V237.906C127.811 238.245 127.881 238.5 128.022 238.672C128.162 238.839 128.402 238.922 128.741 238.922C128.907 238.922 129.136 238.891 129.428 238.828V240C129.048 240.104 128.678 240.156 128.319 240.156C127.673 240.156 127.186 239.961 126.858 239.57C126.53 239.18 126.366 238.625 126.366 237.906V232.664H124.827V231.547H126.366V229.5H127.811Z" fill="black" fill-opacity="0.87"/>
<path d="M17.1553 261V251.047H20.4092C21.4893 251.047 22.3005 251.27 22.8428 251.717C23.3896 252.163 23.6631 252.824 23.6631 253.699C23.6631 254.164 23.5309 254.576 23.2666 254.937C23.0023 255.292 22.6423 255.568 22.1865 255.764C22.7243 255.914 23.1481 256.201 23.458 256.625C23.7725 257.044 23.9297 257.546 23.9297 258.129C23.9297 259.022 23.6403 259.724 23.0615 260.234C22.4827 260.745 21.6647 261 20.6074 261H17.1553ZM18.4678 256.345V259.927H20.6348C21.2454 259.927 21.7262 259.77 22.0771 259.455C22.4326 259.136 22.6104 258.699 22.6104 258.143C22.6104 256.944 21.9587 256.345 20.6553 256.345H18.4678ZM18.4678 255.292H20.4502C21.0244 255.292 21.4824 255.148 21.8242 254.861C22.1706 254.574 22.3438 254.185 22.3438 253.692C22.3438 253.146 22.1842 252.749 21.8652 252.503C21.5462 252.252 21.0609 252.127 20.4092 252.127H18.4678V255.292ZM28.999 261.137C27.9964 261.137 27.1807 260.809 26.5518 260.152C25.9229 259.492 25.6084 258.61 25.6084 257.507V257.274C25.6084 256.541 25.7474 255.887 26.0254 255.312C26.3079 254.734 26.6999 254.283 27.2012 253.959C27.707 253.631 28.2539 253.467 28.8418 253.467C29.8034 253.467 30.5508 253.784 31.084 254.417C31.6172 255.05 31.8838 255.957 31.8838 257.138V257.664H26.873C26.8913 258.393 27.1032 258.983 27.5088 259.435C27.9189 259.881 28.4385 260.104 29.0674 260.104C29.514 260.104 29.8923 260.013 30.2021 259.831C30.512 259.649 30.7832 259.407 31.0156 259.106L31.7881 259.708C31.1683 260.66 30.2386 261.137 28.999 261.137ZM28.8418 254.506C28.3314 254.506 27.903 254.693 27.5566 255.066C27.2103 255.436 26.9961 255.955 26.9141 256.625H30.6191V256.529C30.5827 255.887 30.4095 255.39 30.0996 255.039C29.7897 254.684 29.3704 254.506 28.8418 254.506ZM41.6328 259.038C41.6328 258.696 41.5029 258.432 41.2432 258.245C40.988 258.054 40.5391 257.89 39.8965 257.753C39.2585 257.616 38.7503 257.452 38.3721 257.261C37.9984 257.069 37.7204 256.841 37.5381 256.577C37.3604 256.313 37.2715 255.998 37.2715 255.634C37.2715 255.028 37.5267 254.515 38.0371 254.096C38.5521 253.676 39.2083 253.467 40.0059 253.467C40.8444 253.467 41.5234 253.683 42.043 254.116C42.5671 254.549 42.8291 255.103 42.8291 255.777H41.5576C41.5576 255.431 41.4095 255.132 41.1133 254.882C40.8216 254.631 40.4525 254.506 40.0059 254.506C39.5456 254.506 39.1855 254.606 38.9258 254.807C38.666 255.007 38.5361 255.269 38.5361 255.593C38.5361 255.898 38.6569 256.128 38.8984 256.283C39.14 256.438 39.5752 256.586 40.2041 256.728C40.8376 256.869 41.3503 257.037 41.7422 257.233C42.1341 257.429 42.4235 257.666 42.6104 257.944C42.8018 258.218 42.8975 258.553 42.8975 258.949C42.8975 259.61 42.6331 260.141 42.1045 260.542C41.5758 260.938 40.89 261.137 40.0469 261.137C39.4544 261.137 38.9303 261.032 38.4746 260.822C38.0189 260.613 37.6611 260.321 37.4014 259.947C37.1462 259.569 37.0186 259.161 37.0186 258.724H38.2832C38.306 259.147 38.4746 259.485 38.7891 259.735C39.1081 259.981 39.5273 260.104 40.0469 260.104C40.5254 260.104 40.9082 260.009 41.1953 259.817C41.487 259.621 41.6328 259.362 41.6328 259.038ZM49.3613 261C49.2884 260.854 49.2292 260.594 49.1836 260.221C48.5957 260.831 47.8939 261.137 47.0781 261.137C46.349 261.137 45.7497 260.932 45.2803 260.521C44.8154 260.107 44.583 259.583 44.583 258.949C44.583 258.179 44.8747 257.582 45.458 257.158C46.0459 256.73 46.8708 256.516 47.9326 256.516H49.1631V255.935C49.1631 255.493 49.0309 255.142 48.7666 254.882C48.5023 254.618 48.1126 254.485 47.5977 254.485C47.1465 254.485 46.7682 254.599 46.4629 254.827C46.1576 255.055 46.0049 255.331 46.0049 255.654H44.7334C44.7334 255.285 44.8633 254.93 45.123 254.588C45.3874 254.242 45.7428 253.968 46.1895 253.768C46.6406 253.567 47.1351 253.467 47.6729 253.467C48.5251 253.467 49.1927 253.681 49.6758 254.109C50.1589 254.533 50.4095 255.119 50.4277 255.866V259.271C50.4277 259.95 50.5143 260.49 50.6875 260.891V261H49.3613ZM47.2627 260.036C47.6592 260.036 48.0352 259.934 48.3906 259.729C48.7461 259.523 49.0036 259.257 49.1631 258.929V257.411H48.1719C46.6224 257.411 45.8477 257.865 45.8477 258.771C45.8477 259.168 45.9798 259.478 46.2441 259.701C46.5085 259.924 46.848 260.036 47.2627 260.036ZM53.2822 261V254.581H52.1133V253.604H53.2822V252.845C53.2822 252.052 53.4941 251.439 53.918 251.006C54.3418 250.573 54.9411 250.356 55.7158 250.356C56.0075 250.356 56.2969 250.395 56.584 250.473L56.5156 251.498C56.3014 251.457 56.0736 251.437 55.832 251.437C55.4219 251.437 55.1051 251.557 54.8818 251.799C54.6585 252.036 54.5469 252.378 54.5469 252.824V253.604H56.126V254.581H54.5469V261H53.2822ZM60.6826 261.137C59.68 261.137 58.8643 260.809 58.2354 260.152C57.6064 259.492 57.292 258.61 57.292 257.507V257.274C57.292 256.541 57.431 255.887 57.709 255.312C57.9915 254.734 58.3835 254.283 58.8848 253.959C59.3906 253.631 59.9375 253.467 60.5254 253.467C61.487 253.467 62.2344 253.784 62.7676 254.417C63.3008 255.05 63.5674 255.957 63.5674 257.138V257.664H58.5566C58.5749 258.393 58.7868 258.983 59.1924 259.435C59.6025 259.881 60.1221 260.104 60.751 260.104C61.1976 260.104 61.5758 260.013 61.8857 259.831C62.1956 259.649 62.4668 259.407 62.6992 259.106L63.4717 259.708C62.8519 260.66 61.9222 261.137 60.6826 261.137ZM60.5254 254.506C60.015 254.506 59.5866 254.693 59.2402 255.066C58.8939 255.436 58.6797 255.955 58.5977 256.625H62.3027V256.529C62.2663 255.887 62.0931 255.39 61.7832 255.039C61.4733 254.684 61.054 254.506 60.5254 254.506Z" fill="black" fill-opacity="0.6"/>
<path fill-rule="evenodd" clip-rule="evenodd" d="M382 242C383.1 242 384 241.1 384 240C384 238.9 383.1 238 382 238C380.9 238 380 238.9 380 240C380 241.1 380.9 242 382 242ZM382 244C380.9 244 380 244.9 380 246C380 247.1 380.9 248 382 248C383.1 248 384 247.1 384 246C384 244.9 383.1 244 382 244ZM382 250C380.9 250 380 250.9 380 252C380 253.1 380.9 254 382 254C383.1 254 384 253.1 384 252C384 250.9 383.1 250 382 250Z" fill="black" fill-opacity="0.6"/>
<rect x="17.5111" y="277" width="376.489" height="1" fill="#212121" fill-opacity="0.08"/>
</g>
<g filter="url(#filter2_ddd_726:4085)">
<path d="M255 250C255 247.791 256.791 246 259 246H379C381.209 246 383 247.791 383 250V370C383 372.209 381.209 374 379 374H259C256.791 374 255 372.209 255 370V250Z" fill="white"/>
<path d="M267.651 264.402H263.481L262.545 267H261.191L264.992 257.047H266.141L269.948 267H268.602L267.651 264.402ZM263.878 263.322H267.262L265.566 258.667L263.878 263.322ZM271.032 263.24C271.032 262.105 271.301 261.194 271.839 260.506C272.377 259.813 273.081 259.467 273.951 259.467C274.817 259.467 275.503 259.763 276.009 260.355V256.5H277.273V267H276.111L276.05 266.207C275.544 266.827 274.84 267.137 273.938 267.137C273.081 267.137 272.381 266.786 271.839 266.084C271.301 265.382 271.032 264.466 271.032 263.336V263.24ZM272.297 263.384C272.297 264.222 272.47 264.879 272.816 265.353C273.163 265.826 273.641 266.063 274.252 266.063C275.054 266.063 275.64 265.703 276.009 264.983V261.586C275.631 260.889 275.049 260.54 274.266 260.54C273.646 260.54 273.163 260.779 272.816 261.258C272.47 261.736 272.297 262.445 272.297 263.384ZM279.185 263.24C279.185 262.105 279.453 261.194 279.991 260.506C280.529 259.813 281.233 259.467 282.104 259.467C282.969 259.467 283.655 259.763 284.161 260.355V256.5H285.426V267H284.264L284.202 266.207C283.696 266.827 282.992 267.137 282.09 267.137C281.233 267.137 280.534 266.786 279.991 266.084C279.453 265.382 279.185 264.466 279.185 263.336V263.24ZM280.449 263.384C280.449 264.222 280.622 264.879 280.969 265.353C281.315 265.826 281.794 266.063 282.404 266.063C283.206 266.063 283.792 265.703 284.161 264.983V261.586C283.783 260.889 283.202 260.54 282.418 260.54C281.798 260.54 281.315 260.779 280.969 261.258C280.622 261.736 280.449 262.445 280.449 263.384ZM297.191 262.399H292.878V265.927H297.889V267H291.565V257.047H297.82V258.127H292.878V261.326H297.191V262.399ZM301.837 265.284L303.669 259.604H304.961L302.309 267H301.345L298.665 259.604H299.957L301.837 265.284ZM309.401 267.137C308.399 267.137 307.583 266.809 306.954 266.152C306.325 265.492 306.011 264.61 306.011 263.507V263.274C306.011 262.541 306.15 261.887 306.428 261.312C306.71 260.734 307.102 260.283 307.604 259.959C308.109 259.631 308.656 259.467 309.244 259.467C310.206 259.467 310.953 259.784 311.486 260.417C312.02 261.05 312.286 261.957 312.286 263.138V263.664H307.275C307.294 264.393 307.506 264.983 307.911 265.435C308.321 265.881 308.841 266.104 309.47 266.104C309.916 266.104 310.295 266.013 310.604 265.831C310.914 265.649 311.186 265.407 311.418 265.106L312.19 265.708C311.571 266.66 310.641 267.137 309.401 267.137ZM309.244 260.506C308.734 260.506 308.305 260.693 307.959 261.066C307.613 261.436 307.398 261.955 307.316 262.625H311.021V262.529C310.985 261.887 310.812 261.39 310.502 261.039C310.192 260.684 309.773 260.506 309.244 260.506ZM315.202 259.604L315.243 260.533C315.808 259.822 316.547 259.467 317.458 259.467C319.021 259.467 319.81 260.349 319.823 262.112V267H318.559V262.105C318.554 261.572 318.431 261.178 318.189 260.923C317.952 260.668 317.581 260.54 317.075 260.54C316.665 260.54 316.305 260.649 315.995 260.868C315.685 261.087 315.444 261.374 315.271 261.729V267H314.006V259.604H315.202ZM323.696 257.812V259.604H325.077V260.581H323.696V265.168C323.696 265.464 323.758 265.688 323.881 265.838C324.004 265.984 324.214 266.057 324.51 266.057C324.656 266.057 324.856 266.029 325.111 265.975V267C324.779 267.091 324.455 267.137 324.141 267.137C323.576 267.137 323.149 266.966 322.862 266.624C322.575 266.282 322.432 265.797 322.432 265.168V260.581H321.085V259.604H322.432V257.812H323.696Z" fill="black"/>
<path d="M265.45 297.257L268.294 289.047H269.729L266.038 299H264.876L261.191 289.047H262.62L265.45 297.257ZM272.495 299H271.23V291.604H272.495V299ZM271.128 289.642C271.128 289.437 271.189 289.263 271.312 289.122C271.44 288.981 271.627 288.91 271.873 288.91C272.119 288.91 272.306 288.981 272.434 289.122C272.561 289.263 272.625 289.437 272.625 289.642C272.625 289.847 272.561 290.018 272.434 290.154C272.306 290.291 272.119 290.359 271.873 290.359C271.627 290.359 271.44 290.291 271.312 290.154C271.189 290.018 271.128 289.847 271.128 289.642ZM277.845 299.137C276.842 299.137 276.026 298.809 275.397 298.152C274.769 297.492 274.454 296.61 274.454 295.507V295.274C274.454 294.541 274.593 293.887 274.871 293.312C275.154 292.734 275.546 292.283 276.047 291.959C276.553 291.631 277.1 291.467 277.688 291.467C278.649 291.467 279.396 291.784 279.93 292.417C280.463 293.05 280.729 293.957 280.729 295.138V295.664H275.719C275.737 296.393 275.949 296.983 276.354 297.435C276.765 297.881 277.284 298.104 277.913 298.104C278.36 298.104 278.738 298.013 279.048 297.831C279.358 297.649 279.629 297.407 279.861 297.106L280.634 297.708C280.014 298.66 279.084 299.137 277.845 299.137ZM277.688 292.506C277.177 292.506 276.749 292.693 276.402 293.066C276.056 293.436 275.842 293.955 275.76 294.625H279.465V294.529C279.428 293.887 279.255 293.39 278.945 293.039C278.635 292.684 278.216 292.506 277.688 292.506ZM288.998 297.257L290.42 291.604H291.685L289.531 299H288.506L286.708 293.395L284.958 299H283.933L281.786 291.604H283.044L284.5 297.141L286.223 291.604H287.241L288.998 297.257Z" fill="black"/>
<path d="M267.781 326.399H263.468V329.927H268.479V331H262.155V321.047H268.41V322.127H263.468V325.326H267.781V326.399ZM269.72 327.24C269.72 326.105 269.989 325.194 270.526 324.506C271.064 323.813 271.768 323.467 272.639 323.467C273.505 323.467 274.19 323.763 274.696 324.355V320.5H275.961V331H274.799L274.737 330.207C274.231 330.827 273.527 331.137 272.625 331.137C271.768 331.137 271.069 330.786 270.526 330.084C269.989 329.382 269.72 328.466 269.72 327.336V327.24ZM270.984 327.384C270.984 328.222 271.158 328.879 271.504 329.353C271.85 329.826 272.329 330.063 272.939 330.063C273.742 330.063 274.327 329.703 274.696 328.983V325.586C274.318 324.889 273.737 324.54 272.953 324.54C272.333 324.54 271.85 324.779 271.504 325.258C271.158 325.736 270.984 326.445 270.984 327.384ZM279.554 331H278.289V323.604H279.554V331ZM278.187 321.642C278.187 321.437 278.248 321.263 278.371 321.122C278.499 320.981 278.686 320.91 278.932 320.91C279.178 320.91 279.365 320.981 279.492 321.122C279.62 321.263 279.684 321.437 279.684 321.642C279.684 321.847 279.62 322.018 279.492 322.154C279.365 322.291 279.178 322.359 278.932 322.359C278.686 322.359 278.499 322.291 278.371 322.154C278.248 322.018 278.187 321.847 278.187 321.642ZM283.55 321.812V323.604H284.931V324.581H283.55V329.168C283.55 329.464 283.611 329.688 283.734 329.838C283.857 329.984 284.067 330.057 284.363 330.057C284.509 330.057 284.71 330.029 284.965 329.975V331C284.632 331.091 284.309 331.137 283.994 331.137C283.429 331.137 283.003 330.966 282.716 330.624C282.429 330.282 282.285 329.797 282.285 329.168V324.581H280.938V323.604H282.285V321.812H283.55Z" fill="black"/>
<path d="M262.155 363V353.047H264.965C265.831 353.047 266.596 353.238 267.262 353.621C267.927 354.004 268.44 354.549 268.8 355.255C269.164 355.961 269.349 356.772 269.354 357.688V358.324C269.354 359.263 269.171 360.086 268.807 360.792C268.447 361.498 267.929 362.041 267.255 362.419C266.585 362.797 265.803 362.991 264.91 363H262.155ZM263.468 354.127V361.927H264.849C265.86 361.927 266.646 361.612 267.207 360.983C267.772 360.354 268.055 359.459 268.055 358.297V357.716C268.055 356.586 267.788 355.708 267.255 355.084C266.726 354.455 265.974 354.136 264.999 354.127H263.468ZM274.464 363.137C273.461 363.137 272.646 362.809 272.017 362.152C271.388 361.492 271.073 360.61 271.073 359.507V359.274C271.073 358.541 271.212 357.887 271.49 357.312C271.773 356.734 272.165 356.283 272.666 355.959C273.172 355.631 273.719 355.467 274.307 355.467C275.268 355.467 276.016 355.784 276.549 356.417C277.082 357.05 277.349 357.957 277.349 359.138V359.664H272.338C272.356 360.393 272.568 360.983 272.974 361.435C273.384 361.881 273.903 362.104 274.532 362.104C274.979 362.104 275.357 362.013 275.667 361.831C275.977 361.649 276.248 361.407 276.48 361.106L277.253 361.708C276.633 362.66 275.703 363.137 274.464 363.137ZM274.307 356.506C273.796 356.506 273.368 356.693 273.021 357.066C272.675 357.436 272.461 357.955 272.379 358.625H276.084V358.529C276.048 357.887 275.874 357.39 275.564 357.039C275.255 356.684 274.835 356.506 274.307 356.506ZM280.442 363H279.178V352.5H280.442V363ZM285.792 363.137C284.789 363.137 283.974 362.809 283.345 362.152C282.716 361.492 282.401 360.61 282.401 359.507V359.274C282.401 358.541 282.54 357.887 282.818 357.312C283.101 356.734 283.493 356.283 283.994 355.959C284.5 355.631 285.047 355.467 285.635 355.467C286.596 355.467 287.344 355.784 287.877 356.417C288.41 357.05 288.677 357.957 288.677 359.138V359.664H283.666C283.684 360.393 283.896 360.983 284.302 361.435C284.712 361.881 285.231 362.104 285.86 362.104C286.307 362.104 286.685 362.013 286.995 361.831C287.305 361.649 287.576 361.407 287.809 361.106L288.581 361.708C287.961 362.66 287.032 363.137 285.792 363.137ZM285.635 356.506C285.124 356.506 284.696 356.693 284.35 357.066C284.003 357.436 283.789 357.955 283.707 358.625H287.412V358.529C287.376 357.887 287.202 357.39 286.893 357.039C286.583 356.684 286.163 356.506 285.635 356.506ZM292.112 353.812V355.604H293.493V356.581H292.112V361.168C292.112 361.464 292.174 361.688 292.297 361.838C292.42 361.984 292.63 362.057 292.926 362.057C293.072 362.057 293.272 362.029 293.527 361.975V363C293.195 363.091 292.871 363.137 292.557 363.137C291.992 363.137 291.565 362.966 291.278 362.624C290.991 362.282 290.848 361.797 290.848 361.168V356.581H289.501V355.604H290.848V353.812H292.112ZM298.296 363.137C297.293 363.137 296.478 362.809 295.849 362.152C295.22 361.492 294.905 360.61 294.905 359.507V359.274C294.905 358.541 295.044 357.887 295.322 357.312C295.605 356.734 295.997 356.283 296.498 355.959C297.004 355.631 297.551 355.467 298.139 355.467C299.1 355.467 299.848 355.784 300.381 356.417C300.914 357.05 301.181 357.957 301.181 359.138V359.664H296.17C296.188 360.393 296.4 360.983 296.806 361.435C297.216 361.881 297.735 362.104 298.364 362.104C298.811 362.104 299.189 362.013 299.499 361.831C299.809 361.649 300.08 361.407 300.312 361.106L301.085 361.708C300.465 362.66 299.535 363.137 298.296 363.137ZM298.139 356.506C297.628 356.506 297.2 356.693 296.854 357.066C296.507 357.436 296.293 357.955 296.211 358.625H299.916V358.529C299.88 357.887 299.706 357.39 299.396 357.039C299.087 356.684 298.667 356.506 298.139 356.506Z" fill="black"/>
</g>
</g>
<defs>
<filter id="filter0_ddd_726:4085" x="-8" y="652" width="427" height="88" filterUnits="userSpaceOnUse" color-interpolation-filters="sRGB">
<feFlood flood-opacity="0" result="BackgroundImageFix"/>
<feColorMatrix in="SourceAlpha" type="matrix" values="0 0 0 0 0 0 0 0 0 0 0 0 0 0 0 0 0 0 127 0" result="hardAlpha"/>
<feOffset dy="1"/>
<feGaussianBlur stdDeviation="4"/>
<feColorMatrix type="matrix" values="0 0 0 0 0 0 0 0 0 0 0 0 0 0 0 0 0 0 0.2 0"/>
<feBlend mode="normal" in2="BackgroundImageFix" result="effect1_dropShadow_726:4085"/>
<feColorMatrix in="SourceAlpha" type="matrix" values="0 0 0 0 0 0 0 0 0 0 0 0 0 0 0 0 0 0 127 0" result="hardAlpha"/>
<feOffset dy="3"/>
<feGaussianBlur stdDeviation="1.5"/>
<feColorMatrix type="matrix" values="0 0 0 0 0 0 0 0 0 0 0 0 0 0 0 0 0 0 0.12 0"/>
<feBlend mode="normal" in2="effect1_dropShadow_726:4085" result="effect2_dropShadow_726:4085"/>
<feColorMatrix in="SourceAlpha" type="matrix" values="0 0 0 0 0 0 0 0 0 0 0 0 0 0 0 0 0 0 127 0" result="hardAlpha"/>
<feOffset dy="3"/>
<feGaussianBlur stdDeviation="2"/>
<feColorMatrix type="matrix" values="0 0 0 0 0 0 0 0 0 0 0 0 0 0 0 0 0 0 0.14 0"/>
<feBlend mode="normal" in2="effect2_dropShadow_726:4085" result="effect3_dropShadow_726:4085"/>
<feBlend mode="normal" in="SourceGraphic" in2="effect3_dropShadow_726:4085" result="shape"/>
</filter>
<filter id="filter1_ddd_726:4085" x="-10" y="-9" width="431" height="76" filterUnits="userSpaceOnUse" color-interpolation-filters="sRGB">
<feFlood flood-opacity="0" result="BackgroundImageFix"/>
<feColorMatrix in="SourceAlpha" type="matrix" values="0 0 0 0 0 0 0 0 0 0 0 0 0 0 0 0 0 0 127 0" result="hardAlpha"/>
<feOffset dy="2"/>
<feGaussianBlur stdDeviation="2"/>
<feColorMatrix type="matrix" values="0 0 0 0 0 0 0 0 0 0 0 0 0 0 0 0 0 0 0.2 0"/>
<feBlend mode="normal" in2="BackgroundImageFix" result="effect1_dropShadow_726:4085"/>
<feColorMatrix in="SourceAlpha" type="matrix" values="0 0 0 0 0 0 0 0 0 0 0 0 0 0 0 0 0 0 127 0" result="hardAlpha"/>
<feOffset dy="1"/>
<feGaussianBlur stdDeviation="5"/>
<feColorMatrix type="matrix" values="0 0 0 0 0 0 0 0 0 0 0 0 0 0 0 0 0 0 0.12 0"/>
<feBlend mode="normal" in2="effect1_dropShadow_726:4085" result="effect2_dropShadow_726:4085"/>
<feColorMatrix in="SourceAlpha" type="matrix" values="0 0 0 0 0 0 0 0 0 0 0 0 0 0 0 0 0 0 127 0" result="hardAlpha"/>
<feOffset dy="4"/>
<feGaussianBlur stdDeviation="2.5"/>
<feColorMatrix type="matrix" values="0 0 0 0 0 0 0 0 0 0 0 0 0 0 0 0 0 0 0.14 0"/>
<feBlend mode="normal" in2="effect2_dropShadow_726:4085" result="effect3_dropShadow_726:4085"/>
<feBlend mode="normal" in="SourceGraphic" in2="effect3_dropShadow_726:4085" result="shape"/>
</filter>
<filter id="filter2_ddd_726:4085" x="241" y="235" width="156" height="157" filterUnits="userSpaceOnUse" color-interpolation-filters="sRGB">
<feFlood flood-opacity="0" result="BackgroundImageFix"/>
<feColorMatrix in="SourceAlpha" type="matrix" values="0 0 0 0 0 0 0 0 0 0 0 0 0 0 0 0 0 0 127 0" result="hardAlpha"/>
<feOffset dy="5"/>
<feGaussianBlur stdDeviation="2.5"/>
<feColorMatrix type="matrix" values="0 0 0 0 0 0 0 0 0 0 0 0 0 0 0 0 0 0 0.2 0"/>
<feBlend mode="normal" in2="BackgroundImageFix" result="effect1_dropShadow_726:4085"/>
<feColorMatrix in="SourceAlpha" type="matrix" values="0 0 0 0 0 0 0 0 0 0 0 0 0 0 0 0 0 0 127 0" result="hardAlpha"/>
<feOffset dy="3"/>
<feGaussianBlur stdDeviation="7"/>
<feColorMatrix type="matrix" values="0 0 0 0 0 0 0 0 0 0 0 0 0 0 0 0 0 0 0.12 0"/>
<feBlend mode="normal" in2="effect1_dropShadow_726:4085" result="effect2_dropShadow_726:4085"/>
<feColorMatrix in="SourceAlpha" type="matrix" values="0 0 0 0 0 0 0 0 0 0 0 0 0 0 0 0 0 0 127 0" result="hardAlpha"/>
<feOffset dy="8"/>
<feGaussianBlur stdDeviation="5"/>
<feColorMatrix type="matrix" values="0 0 0 0 0 0 0 0 0 0 0 0 0 0 0 0 0 0 0.14 0"/>
<feBlend mode="normal" in2="effect2_dropShadow_726:4085" result="effect3_dropShadow_726:4085"/>
<feBlend mode="normal" in="SourceGraphic" in2="effect3_dropShadow_726:4085" result="shape"/>
</filter>
<clipPath id="clip0_726:4085">
<rect width="411" height="731" fill="white"/>
</clipPath>
</defs>
</svg>
